<?xml version="1.0" encoding="UTF-8" standalone="no"?>
<!-- Created with Inkscape (http://www.inkscape.org/) -->

<svg
   xmlns:dc="http://purl.org/dc/elements/1.1/"
   xmlns:cc="http://creativecommons.org/ns#"
   xmlns:rdf="http://www.w3.org/1999/02/22-rdf-syntax-ns#"
   xmlns:svg="http://www.w3.org/2000/svg"
   xmlns="http://www.w3.org/2000/svg"
   xmlns:sodipodi="http://sodipodi.sourceforge.net/DTD/sodipodi-0.dtd"
   xmlns:inkscape="http://www.inkscape.org/namespaces/inkscape"
   width="128"
   height="128"
   viewBox="0 0 33.866667 33.866667"
   version="1.1"
   id="svg2634"
   inkscape:version="0.92.4 5da689c313, 2019-01-14"
   sodipodi:docname="user-desktop.svg">
  <title
     id="title3250">Boston Icons</title>
  <defs
     id="defs2628" />
  <sodipodi:namedview
     id="base"
     pagecolor="#ffffff"
     bordercolor="#00ffed"
     borderopacity="1"
     inkscape:pageopacity="1"
     inkscape:pageshadow="2"
     inkscape:zoom="11.2"
     inkscape:cx="49.947304"
     inkscape:cy="50.594265"
     inkscape:document-units="px"
     inkscape:current-layer="layer1"
     showgrid="false"
     showguides="false"
     inkscape:guide-bbox="true"
     fit-margin-top="0"
     fit-margin-left="0"
     fit-margin-right="0"
     fit-margin-bottom="0"
     inkscape:window-width="1920"
     inkscape:window-height="1016"
     inkscape:window-x="0"
     inkscape:window-y="27"
     inkscape:window-maximized="1"
     units="px">
    <inkscape:grid
       type="xygrid"
       id="grid3182"
       spacingx="0.52916667"
       spacingy="0.52916667"
       empspacing="4"
       originx="-82.550004"
       originy="-127.00001"
       dotted="false" />
    <sodipodi:guide
       position="-4.268358e-06,27.516666"
       orientation="1,0"
       id="guide3216"
       inkscape:locked="false" />
    <sodipodi:guide
       position="3.7041618,33.866666"
       orientation="0,1"
       id="guide3218"
       inkscape:locked="false" />
    <sodipodi:guide
       position="33.866657,24.870836"
       orientation="1,0"
       id="guide3220"
       inkscape:locked="false" />
    <sodipodi:guide
       position="32.279157,-4.1479283e-06"
       orientation="0,1"
       id="guide3222"
       inkscape:locked="false" />
    <sodipodi:guide
       position="15.345829,32.808336"
       orientation="0,1"
       id="guide3224"
       inkscape:locked="false" />
    <sodipodi:guide
       position="-4.7625023,1.0583259"
       orientation="0,1"
       id="guide3226"
       inkscape:locked="false" />
    <sodipodi:guide
       position="1.0583287,17.462496"
       orientation="1,0"
       id="guide3228"
       inkscape:locked="false" />
    <sodipodi:guide
       position="32.808327,20.108336"
       orientation="1,0"
       id="guide3230"
       inkscape:locked="false" />
    <sodipodi:guide
       position="15.874995,31.750006"
       orientation="0,1"
       id="guide3232"
       inkscape:locked="false" />
    <sodipodi:guide
       position="2.1166617,24.870836"
       orientation="1,0"
       id="guide3234"
       inkscape:locked="false" />
    <sodipodi:guide
       position="3.1749958,25.400006"
       orientation="1,0"
       id="guide3236"
       inkscape:locked="false" />
    <sodipodi:guide
       position="4.7624965,21.695824"
       orientation="1,0"
       id="guide3238"
       inkscape:locked="false" />
    <sodipodi:guide
       position="29.104163,18.520824"
       orientation="1,0"
       id="guide3240"
       inkscape:locked="false" />
    <sodipodi:guide
       position="30.691657,24.341666"
       orientation="1,0"
       id="guide3242"
       inkscape:locked="false" />
    <sodipodi:guide
       position="31.749997,21.695836"
       orientation="1,0"
       id="guide3244"
       inkscape:locked="false" />
    <sodipodi:guide
       position="21.695827,2.1166659"
       orientation="0,1"
       id="guide3246"
       inkscape:locked="false" />
    <sodipodi:guide
       position="16.404162,3.1749959"
       orientation="0,1"
       id="guide3248"
       inkscape:locked="false" />
    <sodipodi:guide
       position="26.987497,30.162491"
       orientation="0,1"
       id="guide843"
       inkscape:locked="false" />
    <sodipodi:guide
       position="30.162497,26.458325"
       orientation="0,1"
       id="guide845"
       inkscape:locked="false" />
    <sodipodi:guide
       position="8.9958299,21.695824"
       orientation="0,1"
       id="guide2024"
       inkscape:locked="false" />
    <sodipodi:guide
       position="20.10833,17.991658"
       orientation="1,0"
       id="guide2026"
       inkscape:locked="false" />
    <sodipodi:guide
       position="13.229163,11.112491"
       orientation="0,1"
       id="guide2028"
       inkscape:locked="false" />
    <sodipodi:guide
       position="26.45833,17.462491"
       orientation="0,1"
       id="guide2100"
       inkscape:locked="false" />
    <sodipodi:guide
       position="13.75833,7.9374908"
       orientation="1,0"
       id="guide2102"
       inkscape:locked="false" />
    <sodipodi:guide
       position="23.28333,6.8791575"
       orientation="0,1"
       id="guide2104"
       inkscape:locked="false" />
  </sodipodi:namedview>
  <metadata
     id="metadata2631">
    <rdf:RDF>
      <cc:Work
         rdf:about="">
        <dc:format>image/svg+xml</dc:format>
        <dc:type
           rdf:resource="http://purl.org/dc/dcmitype/StillImage" />
        <dc:title>Boston Icons</dc:title>
        <cc:license
           rdf:resource="dribbble.com/chrisdiaz" />
        <dc:creator>
          <cc:Agent>
            <dc:title>Christian Díaz</dc:title>
          </cc:Agent>
        </dc:creator>
        <dc:date>2019</dc:date>
        <dc:publisher>
          <cc:Agent>
            <dc:title>Christian Díaz</dc:title>
          </cc:Agent>
        </dc:publisher>
        <dc:identifier>christiandiaz.design [at] gmail [dot] com</dc:identifier>
        <dc:subject>
          <rdf:Bag>
            <rdf:li>GNOME icon Theme</rdf:li>
          </rdf:Bag>
        </dc:subject>
        <dc:description>diazchris.deviantart.com | dribbble.com/chrisdiaz</dc:description>
      </cc:Work>
    </rdf:RDF>
  </metadata>
  <g
     inkscape:label="Capa 1"
     inkscape:groupmode="layer"
     id="layer1"
     transform="translate(-82.550003,-136.13333)">
    <g
       id="g3181">
      <rect
         y="143.54167"
         x="83.60833"
         height="23.283327"
         width="31.750002"
         id="rect921"
         style="opacity:1;fill:#8698a6;fill-opacity:1;stroke:none;stroke-width:0.5291667;stroke-linejoin:bevel;stroke-miterlimit:4;stroke-dasharray:none;stroke-opacity:1" />
      <rect
         y="145.12917"
         x="84.137497"
         height="21.166664"
         width="30.691664"
         id="rect923"
         style="opacity:1;fill:#a8b4bd;fill-opacity:1;stroke:none;stroke-width:0.5291667;stroke-linejoin:bevel;stroke-miterlimit:4;stroke-dasharray:none;stroke-opacity:1" />
      <path
         style="opacity:0.5;fill:#ffffff;fill-opacity:1;stroke:none;stroke-width:2;stroke-linejoin:bevel;stroke-miterlimit:4;stroke-dasharray:none;stroke-opacity:1"
         d="m 8,34 v 2 h 2 v -2 z m 2,2 v 2 h 2 v -2 z m 2,0 h 2 v -2 h -2 z m 2,0 v 2 h 2 v -2 z m 2,0 h 2 v -2 h -2 z m 2,0 v 2 h 2 v -2 z m 2,0 h 2 v -2 h -2 z m 2,0 v 2 h 2 v -2 z m 2,0 h 2 v -2 h -2 z m 2,0 v 2 h 2 v -2 z m 2,0 h 2 v -2 h -2 z m 2,0 v 2 h 2 v -2 z m 2,0 h 2 v -2 h -2 z m 2,0 v 2 h 2 v -2 z m 2,0 h 2 v -2 h -2 z m 2,0 v 2 h 2 v -2 z m 2,0 h 2 v -2 h -2 z m 2,0 v 2 h 2 v -2 z m 2,0 h 2 v -2 h -2 z m 2,0 v 2 h 2 v -2 z m 2,0 h 2 v -2 h -2 z m 2,0 v 2 h 2 v -2 z m 2,0 h 2 v -2 h -2 z m 2,0 v 2 h 2 v -2 z m 2,0 h 2 v -2 h -2 z m 2,0 v 2 h 2 v -2 z m 2,0 h 2 v -2 h -2 z m 2,0 v 2 h 2 v -2 z m 2,0 h 2 v -2 h -2 z m 2,0 v 2 h 2 v -2 z m 2,0 h 2 v -2 h -2 z m 2,0 v 2 h 2 v -2 z m 2,0 h 2 v -2 h -2 z m 2,0 v 2 h 2 v -2 z m 2,0 h 2 v -2 h -2 z m 2,0 v 2 h 2 v -2 z m 2,0 h 2 v -2 h -2 z m 2,0 v 2 h 2 v -2 z m 2,0 h 2 v -2 h -2 z m 2,0 v 2 h 2 v -2 z m 2,0 h 2 v -2 h -2 z m 2,0 v 2 h 2 v -2 z m 2,0 h 2 v -2 h -2 z m 2,0 v 2 h 2 v -2 z m 2,0 h 2 v -2 h -2 z m 2,0 v 2 h 2 v -2 z m 2,0 h 2 v -2 h -2 z m 2,0 v 2 h 2 v -2 z m 2,0 h 2 v -2 h -2 z m 2,0 v 2 h 2 v -2 z m 2,0 h 2 v -2 h -2 z m 2,0 v 2 h 2 v -2 z m 2,0 h 2 v -2 h -2 z m 2,0 v 2 h 2 v -2 z m 2,0 h 2 v -2 h -2 z m 2,0 v 2 h 2 v -2 z m 2,0 h 2 v -2 h -2 z m 0,2 v 2 h 2 v -2 z m 0,2 h -2 v 2 h 2 z m 0,2 v 2 h 2 v -2 z m 0,2 h -2 v 2 h 2 z m 0,2 v 2 h 2 v -2 z m 0,2 h -2 v 2 h 2 z m 0,2 v 2 h 2 v -2 z m 0,2 h -2 v 2 h 2 z m 0,2 v 2 h 2 v -2 z m 0,2 h -2 v 2 h 2 z m 0,2 v 2 h 2 v -2 z m 0,2 h -2 v 2 h 2 z m 0,2 v 2 h 2 v -2 z m 0,2 h -2 v 2 h 2 z m 0,2 v 2 h 2 v -2 z m 0,2 h -2 v 2 h 2 z m 0,2 v 2 h 2 v -2 z m 0,2 h -2 v 2 h 2 z m 0,2 v 2 h 2 v -2 z m 0,2 h -2 v 2 h 2 z m 0,2 v 2 h 2 v -2 z m 0,2 h -2 v 2 h 2 z m 0,2 v 2 h 2 v -2 z m 0,2 h -2 v 2 h 2 z m 0,2 v 2 h 2 v -2 z m 0,2 h -2 v 2 h 2 z m 0,2 v 2 h 2 v -2 z m 0,2 h -2 v 2 h 2 z m 0,2 v 2 h 2 v -2 z m 0,2 h -2 v 2 h 2 z m 0,2 v 2 h 2 v -2 z m 0,2 h -2 v 2 h 2 z m 0,2 v 2 h 2 v -2 z m 0,2 h -2 v 2 h 2 z m 0,2 v 2 h 2 v -2 z m 0,2 h -2 v 2 h 2 z m 0,2 v 2 h 2 v -2 z m 0,2 h -2 v 2 h 2 z m -2,0 v -2 h -2 v 2 z m -2,0 h -2 v 2 h 2 z m -2,0 v -2 h -2 v 2 z m -2,0 h -2 v 2 h 2 z m -2,0 v -2 h -2 v 2 z m -2,0 h -2 v 2 h 2 z m -2,0 v -2 h -2 v 2 z m -2,0 h -2 v 2 h 2 z m -2,0 v -2 h -2 v 2 z m -2,0 h -2 v 2 h 2 z m -2,0 v -2 h -2 v 2 z m -2,0 h -2 v 2 h 2 z m -2,0 v -2 h -2 v 2 z m -2,0 h -2 v 2 h 2 z m -2,0 v -2 h -2 v 2 z m -2,0 h -2 v 2 h 2 z m -2,0 v -2 h -2 v 2 z m -2,0 h -2 v 2 h 2 z m -2,0 v -2 h -2 v 2 z m -2,0 h -2 v 2 h 2 z m -2,0 v -2 h -2 v 2 z m -2,0 h -2 v 2 h 2 z m -2,0 v -2 h -2 v 2 z m -2,0 h -2 v 2 h 2 z m -2,0 v -2 h -2 v 2 z m -2,0 h -2 v 2 h 2 z m -2,0 v -2 h -2 v 2 z m -2,0 h -2 v 2 h 2 z m -2,0 v -2 h -2 v 2 z m -2,0 h -2 v 2 h 2 z m -2,0 v -2 h -2 v 2 z m -2,0 h -2 v 2 h 2 z m -2,0 v -2 h -2 v 2 z m -2,0 h -2 v 2 h 2 z m -2,0 v -2 h -2 v 2 z m -2,0 h -2 v 2 h 2 z m -2,0 v -2 h -2 v 2 z m -2,0 h -2 v 2 h 2 z m -2,0 v -2 h -2 v 2 z m -2,0 h -2 v 2 h 2 z m -2,0 v -2 h -2 v 2 z m -2,0 h -2 v 2 h 2 z m -2,0 v -2 h -2 v 2 z m -2,0 h -2 v 2 h 2 z m -2,0 v -2 h -2 v 2 z m -2,0 h -2 v 2 h 2 z m -2,0 v -2 h -2 v 2 z m -2,0 h -2 v 2 h 2 z m -2,0 v -2 h -2 v 2 z m -2,0 h -2 v 2 h 2 z m -2,0 v -2 h -2 v 2 z m -2,0 h -2 v 2 h 2 z m -2,0 v -2 h -2 v 2 z m -2,0 h -2 v 2 h 2 z m -2,0 v -2 H 8 v 2 z m -2,0 H 6 v 2 h 2 z m 0,-2 v -2 H 6 v 2 z m 0,-2 h 2 v -2 H 8 Z m 0,-2 v -2 H 6 v 2 z m 0,-2 h 2 v -2 H 8 Z m 0,-2 v -2 H 6 v 2 z m 0,-2 h 2 V 98 H 8 Z M 8,98 V 96 H 6 v 2 z m 0,-2 h 2 V 94 H 8 Z M 8,94 V 92 H 6 v 2 z m 0,-2 h 2 V 90 H 8 Z M 8,90 V 88 H 6 v 2 z m 0,-2 h 2 V 86 H 8 Z M 8,86 V 84 H 6 v 2 z m 0,-2 h 2 V 82 H 8 Z M 8,82 V 80 H 6 v 2 z m 0,-2 h 2 V 78 H 8 Z M 8,78 V 76 H 6 v 2 z m 0,-2 h 2 V 74 H 8 Z M 8,74 V 72 H 6 v 2 z m 0,-2 h 2 V 70 H 8 Z M 8,70 V 68 H 6 v 2 z m 0,-2 h 2 V 66 H 8 Z M 8,66 V 64 H 6 v 2 z m 0,-2 h 2 V 62 H 8 Z M 8,62 V 60 H 6 v 2 z m 0,-2 h 2 V 58 H 8 Z M 8,58 V 56 H 6 v 2 z m 0,-2 h 2 V 54 H 8 Z M 8,54 V 52 H 6 v 2 z m 0,-2 h 2 V 50 H 8 Z M 8,50 V 48 H 6 v 2 z m 0,-2 h 2 V 46 H 8 Z M 8,46 V 44 H 6 v 2 z m 0,-2 h 2 V 42 H 8 Z M 8,42 V 40 H 6 v 2 z m 0,-2 h 2 V 38 H 8 Z M 8,38 V 36 H 6 v 2 z m 2,2 v 2 h 2 v -2 z m 2,0 h 2 v -2 h -2 z m 2,0 v 2 h 2 v -2 z m 2,0 h 2 v -2 h -2 z m 2,0 v 2 h 2 v -2 z m 2,0 h 2 v -2 h -2 z m 2,0 v 2 h 2 v -2 z m 2,0 h 2 v -2 h -2 z m 2,0 v 2 h 2 v -2 z m 2,0 h 2 v -2 h -2 z m 2,0 v 2 h 2 v -2 z m 2,0 h 2 v -2 h -2 z m 2,0 v 2 h 2 v -2 z m 2,0 h 2 v -2 h -2 z m 2,0 v 2 h 2 v -2 z m 2,0 h 2 v -2 h -2 z m 2,0 v 2 h 2 v -2 z m 2,0 h 2 v -2 h -2 z m 2,0 v 2 h 2 v -2 z m 2,0 h 2 v -2 h -2 z m 2,0 v 2 h 2 v -2 z m 2,0 h 2 v -2 h -2 z m 2,0 v 2 h 2 v -2 z m 2,0 h 2 v -2 h -2 z m 2,0 v 2 h 2 v -2 z m 2,0 h 2 v -2 h -2 z m 2,0 v 2 h 2 v -2 z m 2,0 h 2 v -2 h -2 z m 2,0 v 2 h 2 v -2 z m 2,0 h 2 v -2 h -2 z m 2,0 v 2 h 2 v -2 z m 2,0 h 2 v -2 h -2 z m 2,0 v 2 h 2 v -2 z m 2,0 h 2 v -2 h -2 z m 2,0 v 2 h 2 v -2 z m 2,0 h 2 v -2 h -2 z m 2,0 v 2 h 2 v -2 z m 2,0 h 2 v -2 h -2 z m 2,0 v 2 h 2 v -2 z m 2,0 h 2 v -2 h -2 z m 2,0 v 2 h 2 v -2 z m 2,0 h 2 v -2 h -2 z m 2,0 v 2 h 2 v -2 z m 2,0 h 2 v -2 h -2 z m 2,0 v 2 h 2 v -2 z m 2,0 h 2 v -2 h -2 z m 2,0 v 2 h 2 v -2 z m 2,0 h 2 v -2 h -2 z m 2,0 v 2 h 2 v -2 z m 2,0 h 2 v -2 h -2 z m 2,0 v 2 h 2 v -2 z m 2,0 h 2 v -2 h -2 z m 2,0 v 2 h 2 v -2 z m 2,0 h 2 v -2 h -2 z m 0,2 v 2 h 2 v -2 z m 0,2 h -2 v 2 h 2 z m 0,2 v 2 h 2 v -2 z m 0,2 h -2 v 2 h 2 z m 0,2 v 2 h 2 v -2 z m 0,2 h -2 v 2 h 2 z m 0,2 v 2 h 2 v -2 z m 0,2 h -2 v 2 h 2 z m 0,2 v 2 h 2 v -2 z m 0,2 h -2 v 2 h 2 z m 0,2 v 2 h 2 v -2 z m 0,2 h -2 v 2 h 2 z m 0,2 v 2 h 2 v -2 z m 0,2 h -2 v 2 h 2 z m 0,2 v 2 h 2 v -2 z m 0,2 h -2 v 2 h 2 z m 0,2 v 2 h 2 v -2 z m 0,2 h -2 v 2 h 2 z m 0,2 v 2 h 2 v -2 z m 0,2 h -2 v 2 h 2 z m 0,2 v 2 h 2 v -2 z m 0,2 h -2 v 2 h 2 z m 0,2 v 2 h 2 v -2 z m 0,2 h -2 v 2 h 2 z m 0,2 v 2 h 2 v -2 z m 0,2 h -2 v 2 h 2 z m 0,2 v 2 h 2 v -2 z m 0,2 h -2 v 2 h 2 z m 0,2 v 2 h 2 v -2 z m 0,2 h -2 v 2 h 2 z m 0,2 v 2 h 2 v -2 z m 0,2 h -2 v 2 h 2 z m 0,2 v 2 h 2 v -2 z m 0,2 h -2 v 2 h 2 z m -2,0 v -2 h -2 v 2 z m -2,0 h -2 v 2 h 2 z m -2,0 v -2 h -2 v 2 z m -2,0 h -2 v 2 h 2 z m -2,0 v -2 h -2 v 2 z m -2,0 h -2 v 2 h 2 z m -2,0 v -2 h -2 v 2 z m -2,0 h -2 v 2 h 2 z m -2,0 v -2 h -2 v 2 z m -2,0 h -2 v 2 h 2 z m -2,0 v -2 h -2 v 2 z m -2,0 h -2 v 2 h 2 z m -2,0 v -2 h -2 v 2 z m -2,0 h -2 v 2 h 2 z m -2,0 v -2 h -2 v 2 z m -2,0 h -2 v 2 h 2 z m -2,0 v -2 h -2 v 2 z m -2,0 h -2 v 2 h 2 z m -2,0 v -2 h -2 v 2 z m -2,0 h -2 v 2 h 2 z m -2,0 v -2 h -2 v 2 z m -2,0 h -2 v 2 h 2 z m -2,0 v -2 h -2 v 2 z m -2,0 h -2 v 2 h 2 z m -2,0 v -2 h -2 v 2 z m -2,0 h -2 v 2 h 2 z m -2,0 v -2 h -2 v 2 z m -2,0 h -2 v 2 h 2 z m -2,0 v -2 h -2 v 2 z m -2,0 h -2 v 2 h 2 z m -2,0 v -2 h -2 v 2 z m -2,0 h -2 v 2 h 2 z m -2,0 v -2 h -2 v 2 z m -2,0 h -2 v 2 h 2 z m -2,0 v -2 h -2 v 2 z m -2,0 h -2 v 2 h 2 z m -2,0 v -2 h -2 v 2 z m -2,0 h -2 v 2 h 2 z m -2,0 v -2 h -2 v 2 z m -2,0 h -2 v 2 h 2 z m -2,0 v -2 h -2 v 2 z m -2,0 h -2 v 2 h 2 z m -2,0 v -2 h -2 v 2 z m -2,0 h -2 v 2 h 2 z m -2,0 v -2 h -2 v 2 z m -2,0 h -2 v 2 h 2 z m -2,0 v -2 h -2 v 2 z m -2,0 h -2 v 2 h 2 z m -2,0 v -2 h -2 v 2 z m -2,0 h -2 v 2 h 2 z m -2,0 v -2 h -2 v 2 z m -2,0 h -2 v 2 h 2 z m 0,-2 v -2 h -2 v 2 z m 0,-2 h 2 v -2 h -2 z m 0,-2 v -2 h -2 v 2 z m 0,-2 h 2 v -2 h -2 z m 0,-2 v -2 h -2 v 2 z m 0,-2 h 2 v -2 h -2 z m 0,-2 v -2 h -2 v 2 z m 0,-2 h 2 v -2 h -2 z m 0,-2 v -2 h -2 v 2 z m 0,-2 h 2 v -2 h -2 z m 0,-2 v -2 h -2 v 2 z m 0,-2 h 2 v -2 h -2 z m 0,-2 v -2 h -2 v 2 z m 0,-2 h 2 v -2 h -2 z m 0,-2 v -2 h -2 v 2 z m 0,-2 h 2 v -2 h -2 z m 0,-2 v -2 h -2 v 2 z m 0,-2 h 2 v -2 h -2 z m 0,-2 v -2 h -2 v 2 z m 0,-2 h 2 v -2 h -2 z m 0,-2 v -2 h -2 v 2 z m 0,-2 h 2 v -2 h -2 z m 0,-2 v -2 h -2 v 2 z m 0,-2 h 2 v -2 h -2 z m 0,-2 v -2 h -2 v 2 z m 0,-2 h 2 v -2 h -2 z m 0,-2 v -2 h -2 v 2 z m 0,-2 h 2 v -2 h -2 z m 0,-2 v -2 h -2 v 2 z m 0,-2 h 2 v -2 h -2 z m 0,-2 v -2 h -2 v 2 z m 0,-2 h 2 v -2 h -2 z m 2,0 v 2 h 2 v -2 z m 2,0 h 2 v -2 h -2 z m 2,0 v 2 h 2 v -2 z m 2,0 h 2 v -2 h -2 z m 2,0 v 2 h 2 v -2 z m 2,0 h 2 v -2 h -2 z m 2,0 v 2 h 2 v -2 z m 2,0 h 2 v -2 h -2 z m 2,0 v 2 h 2 v -2 z m 2,0 h 2 v -2 h -2 z m 2,0 v 2 h 2 v -2 z m 2,0 h 2 v -2 h -2 z m 2,0 v 2 h 2 v -2 z m 2,0 h 2 v -2 h -2 z m 2,0 v 2 h 2 v -2 z m 2,0 h 2 v -2 h -2 z m 2,0 v 2 h 2 v -2 z m 2,0 h 2 v -2 h -2 z m 2,0 v 2 h 2 v -2 z m 2,0 h 2 v -2 h -2 z m 2,0 v 2 h 2 v -2 z m 2,0 h 2 v -2 h -2 z m 2,0 v 2 h 2 v -2 z m 2,0 h 2 v -2 h -2 z m 2,0 v 2 h 2 v -2 z m 2,0 h 2 v -2 h -2 z m 2,0 v 2 h 2 v -2 z m 2,0 h 2 v -2 h -2 z m 2,0 v 2 h 2 v -2 z m 2,0 h 2 v -2 h -2 z m 2,0 v 2 h 2 v -2 z m 2,0 h 2 v -2 h -2 z m 2,0 v 2 h 2 v -2 z m 2,0 h 2 v -2 h -2 z m 2,0 v 2 h 2 v -2 z m 2,0 h 2 v -2 h -2 z m 2,0 v 2 h 2 v -2 z m 2,0 h 2 v -2 h -2 z m 2,0 v 2 h 2 v -2 z m 2,0 h 2 v -2 h -2 z m 2,0 v 2 h 2 v -2 z m 2,0 h 2 v -2 h -2 z m 2,0 v 2 h 2 v -2 z m 2,0 h 2 v -2 h -2 z m 2,0 v 2 h 2 v -2 z m 2,0 h 2 v -2 h -2 z m 2,0 v 2 h 2 v -2 z m 2,0 h 2 v -2 h -2 z m 2,0 v 2 h 2 v -2 z m 2,0 h 2 v -2 h -2 z m 0,2 v 2 h 2 v -2 z m 0,2 h -2 v 2 h 2 z m 0,2 v 2 h 2 v -2 z m 0,2 h -2 v 2 h 2 z m 0,2 v 2 h 2 v -2 z m 0,2 h -2 v 2 h 2 z m 0,2 v 2 h 2 v -2 z m 0,2 h -2 v 2 h 2 z m 0,2 v 2 h 2 v -2 z m 0,2 h -2 v 2 h 2 z m 0,2 v 2 h 2 v -2 z m 0,2 h -2 v 2 h 2 z m 0,2 v 2 h 2 v -2 z m 0,2 h -2 v 2 h 2 z m 0,2 v 2 h 2 v -2 z m 0,2 h -2 v 2 h 2 z m 0,2 v 2 h 2 v -2 z m 0,2 h -2 v 2 h 2 z m 0,2 v 2 h 2 v -2 z m 0,2 h -2 v 2 h 2 z m 0,2 v 2 h 2 v -2 z m 0,2 h -2 v 2 h 2 z m 0,2 v 2 h 2 v -2 z m 0,2 h -2 v 2 h 2 z m 0,2 v 2 h 2 v -2 z m 0,2 h -2 v 2 h 2 z m 0,2 v 2 h 2 v -2 z m 0,2 h -2 v 2 h 2 z m 0,2 v 2 h 2 v -2 z m 0,2 h -2 v 2 h 2 z m -2,0 v -2 h -2 v 2 z m -2,0 h -2 v 2 h 2 z m -2,0 v -2 h -2 v 2 z m -2,0 h -2 v 2 h 2 z m -2,0 v -2 h -2 v 2 z m -2,0 h -2 v 2 h 2 z m -2,0 v -2 h -2 v 2 z m -2,0 h -2 v 2 h 2 z m -2,0 v -2 h -2 v 2 z m -2,0 h -2 v 2 h 2 z m -2,0 v -2 h -2 v 2 z m -2,0 h -2 v 2 h 2 z m -2,0 v -2 h -2 v 2 z m -2,0 h -2 v 2 h 2 z m -2,0 v -2 h -2 v 2 z m -2,0 h -2 v 2 h 2 z m -2,0 v -2 h -2 v 2 z m -2,0 h -2 v 2 h 2 z m -2,0 v -2 h -2 v 2 z m -2,0 h -2 v 2 h 2 z m -2,0 v -2 h -2 v 2 z m -2,0 h -2 v 2 h 2 z m -2,0 v -2 h -2 v 2 z m -2,0 h -2 v 2 h 2 z m -2,0 v -2 h -2 v 2 z m -2,0 h -2 v 2 h 2 z m -2,0 v -2 h -2 v 2 z m -2,0 h -2 v 2 h 2 z m -2,0 v -2 h -2 v 2 z m -2,0 h -2 v 2 h 2 z m -2,0 v -2 h -2 v 2 z m -2,0 h -2 v 2 h 2 z m -2,0 v -2 h -2 v 2 z m -2,0 h -2 v 2 h 2 z m -2,0 v -2 h -2 v 2 z m -2,0 h -2 v 2 h 2 z m -2,0 v -2 h -2 v 2 z m -2,0 h -2 v 2 h 2 z m -2,0 v -2 h -2 v 2 z m -2,0 h -2 v 2 h 2 z m -2,0 v -2 h -2 v 2 z m -2,0 h -2 v 2 h 2 z m -2,0 v -2 h -2 v 2 z m -2,0 h -2 v 2 h 2 z m -2,0 v -2 h -2 v 2 z m -2,0 h -2 v 2 h 2 z m -2,0 v -2 h -2 v 2 z m -2,0 h -2 v 2 h 2 z m 0,-2 v -2 h -2 v 2 z m 0,-2 h 2 v -2 h -2 z m 0,-2 v -2 h -2 v 2 z m 0,-2 h 2 v -2 h -2 z m 0,-2 v -2 h -2 v 2 z m 0,-2 h 2 v -2 h -2 z m 0,-2 v -2 h -2 v 2 z m 0,-2 h 2 v -2 h -2 z m 0,-2 v -2 h -2 v 2 z m 0,-2 h 2 v -2 h -2 z m 0,-2 v -2 h -2 v 2 z m 0,-2 h 2 v -2 h -2 z m 0,-2 v -2 h -2 v 2 z m 0,-2 h 2 v -2 h -2 z m 0,-2 v -2 h -2 v 2 z m 0,-2 h 2 v -2 h -2 z m 0,-2 v -2 h -2 v 2 z m 0,-2 h 2 v -2 h -2 z m 0,-2 v -2 h -2 v 2 z m 0,-2 h 2 v -2 h -2 z m 0,-2 v -2 h -2 v 2 z m 0,-2 h 2 v -2 h -2 z m 0,-2 v -2 h -2 v 2 z m 0,-2 h 2 v -2 h -2 z m 0,-2 v -2 h -2 v 2 z m 0,-2 h 2 v -2 h -2 z m 0,-2 v -2 h -2 v 2 z m 0,-2 h 2 v -2 h -2 z m 2,0 v 2 h 2 v -2 z m 2,0 h 2 v -2 h -2 z m 2,0 v 2 h 2 v -2 z m 2,0 h 2 v -2 h -2 z m 2,0 v 2 h 2 v -2 z m 2,0 h 2 v -2 h -2 z m 2,0 v 2 h 2 v -2 z m 2,0 h 2 v -2 h -2 z m 2,0 v 2 h 2 v -2 z m 2,0 h 2 v -2 h -2 z m 2,0 v 2 h 2 v -2 z m 2,0 h 2 v -2 h -2 z m 2,0 v 2 h 2 v -2 z m 2,0 h 2 v -2 h -2 z m 2,0 v 2 h 2 v -2 z m 2,0 h 2 v -2 h -2 z m 2,0 v 2 h 2 v -2 z m 2,0 h 2 v -2 h -2 z m 2,0 v 2 h 2 v -2 z m 2,0 h 2 v -2 h -2 z m 2,0 v 2 h 2 v -2 z m 2,0 h 2 v -2 h -2 z m 2,0 v 2 h 2 v -2 z m 2,0 h 2 v -2 h -2 z m 2,0 v 2 h 2 v -2 z m 2,0 h 2 v -2 h -2 z m 2,0 v 2 h 2 v -2 z m 2,0 h 2 v -2 h -2 z m 2,0 v 2 h 2 v -2 z m 2,0 h 2 v -2 h -2 z m 2,0 v 2 h 2 v -2 z m 2,0 h 2 v -2 h -2 z m 2,0 v 2 h 2 v -2 z m 2,0 h 2 v -2 h -2 z m 2,0 v 2 h 2 v -2 z m 2,0 h 2 v -2 h -2 z m 2,0 v 2 h 2 v -2 z m 2,0 h 2 v -2 h -2 z m 2,0 v 2 h 2 v -2 z m 2,0 h 2 v -2 h -2 z m 2,0 v 2 h 2 v -2 z m 2,0 h 2 v -2 h -2 z m 2,0 v 2 h 2 v -2 z m 2,0 h 2 v -2 h -2 z m 2,0 v 2 h 2 v -2 z m 2,0 h 2 v -2 h -2 z m 0,2 v 2 h 2 v -2 z m 0,2 h -2 v 2 h 2 z m 0,2 v 2 h 2 v -2 z m 0,2 h -2 v 2 h 2 z m 0,2 v 2 h 2 v -2 z m 0,2 h -2 v 2 h 2 z m 0,2 v 2 h 2 v -2 z m 0,2 h -2 v 2 h 2 z m 0,2 v 2 h 2 v -2 z m 0,2 h -2 v 2 h 2 z m 0,2 v 2 h 2 v -2 z m 0,2 h -2 v 2 h 2 z m 0,2 v 2 h 2 v -2 z m 0,2 h -2 v 2 h 2 z m 0,2 v 2 h 2 v -2 z m 0,2 h -2 v 2 h 2 z m 0,2 v 2 h 2 v -2 z m 0,2 h -2 v 2 h 2 z m 0,2 v 2 h 2 v -2 z m 0,2 h -2 v 2 h 2 z m 0,2 v 2 h 2 v -2 z m 0,2 h -2 v 2 h 2 z m 0,2 v 2 h 2 v -2 z m 0,2 h -2 v 2 h 2 z m 0,2 v 2 h 2 v -2 z m 0,2 h -2 v 2 h 2 z m -2,0 v -2 h -2 v 2 z m -2,0 h -2 v 2 h 2 z m -2,0 v -2 h -2 v 2 z m -2,0 h -2 v 2 h 2 z m -2,0 v -2 h -2 v 2 z m -2,0 h -2 v 2 h 2 z m -2,0 v -2 h -2 v 2 z m -2,0 h -2 v 2 h 2 z m -2,0 v -2 h -2 v 2 z m -2,0 h -2 v 2 h 2 z m -2,0 v -2 h -2 v 2 z m -2,0 h -2 v 2 h 2 z m -2,0 v -2 h -2 v 2 z m -2,0 h -2 v 2 h 2 z m -2,0 v -2 h -2 v 2 z m -2,0 h -2 v 2 h 2 z m -2,0 v -2 h -2 v 2 z m -2,0 h -2 v 2 h 2 z m -2,0 v -2 h -2 v 2 z m -2,0 h -2 v 2 h 2 z m -2,0 v -2 h -2 v 2 z m -2,0 h -2 v 2 h 2 z m -2,0 v -2 h -2 v 2 z m -2,0 h -2 v 2 h 2 z m -2,0 v -2 h -2 v 2 z m -2,0 h -2 v 2 h 2 z m -2,0 v -2 h -2 v 2 z m -2,0 h -2 v 2 h 2 z m -2,0 v -2 h -2 v 2 z m -2,0 h -2 v 2 h 2 z m -2,0 v -2 h -2 v 2 z m -2,0 h -2 v 2 h 2 z m -2,0 v -2 h -2 v 2 z m -2,0 h -2 v 2 h 2 z m -2,0 v -2 h -2 v 2 z m -2,0 h -2 v 2 h 2 z m -2,0 v -2 h -2 v 2 z m -2,0 h -2 v 2 h 2 z m -2,0 v -2 h -2 v 2 z m -2,0 h -2 v 2 h 2 z m -2,0 v -2 h -2 v 2 z m -2,0 h -2 v 2 h 2 z m -2,0 v -2 h -2 v 2 z m -2,0 h -2 v 2 h 2 z m 0,-2 v -2 h -2 v 2 z m 0,-2 h 2 v -2 h -2 z m 0,-2 v -2 h -2 v 2 z m 0,-2 h 2 v -2 h -2 z m 0,-2 v -2 h -2 v 2 z m 2,2 v 2 h 2 v -2 z m 2,0 h 2 v -2 h -2 z m 2,0 v 2 h 2 v -2 z m 2,0 h 2 v -2 h -2 z m 2,0 v 2 h 2 v -2 z m 2,0 h 2 v -2 h -2 z m 2,0 v 2 h 2 v -2 z m 2,0 h 2 v -2 h -2 z m 2,0 v 2 h 2 v -2 z m 2,0 h 2 v -2 h -2 z m 2,0 v 2 h 2 v -2 z m 2,0 h 2 v -2 h -2 z m 2,0 v 2 h 2 v -2 z m 2,0 h 2 v -2 h -2 z m 2,0 v 2 h 2 v -2 z m 2,0 h 2 v -2 h -2 z m 2,0 v 2 h 2 v -2 z m 2,0 h 2 v -2 h -2 z m 2,0 v 2 h 2 v -2 z m 2,0 h 2 v -2 h -2 z m 2,0 v 2 h 2 v -2 z m 2,0 h 2 v -2 h -2 z m 2,0 v 2 h 2 v -2 z m 2,0 h 2 v -2 h -2 z m 2,0 v 2 h 2 v -2 z m 2,0 h 2 v -2 h -2 z m 2,0 v 2 h 2 v -2 z m 2,0 h 2 v -2 h -2 z m 2,0 v 2 h 2 v -2 z m 2,0 h 2 v -2 h -2 z m 2,-2 h 2 v -2 h -2 z m 0,-2 v -2 h -2 v 2 z m 0,-2 h 2 v -2 h -2 z m 0,-2 v -2 h -2 v 2 z m 0,-2 h 2 v -2 h -2 z m 0,-2 v -2 h -2 v 2 z m 0,-2 h 2 v -2 h -2 z m 0,-2 v -2 h -2 v 2 z m 0,-2 h 2 v -2 h -2 z m 0,-2 v -2 h -2 v 2 z m 0,-2 h 2 v -2 h -2 z m 0,-2 v -2 h -2 v 2 z m 0,-2 h 2 v -2 h -2 z m 0,-2 v -2 h -2 v 2 z m 0,-2 h 2 v -2 h -2 z m 0,-2 v -2 h -2 v 2 z m 0,-2 h 2 v -2 h -2 z m 0,-2 v -2 h -2 v 2 z m -2,-2 v -2 h -2 v 2 z m -2,-2 v -2 h -2 v 2 z m -2,0 h -2 v 2 h 2 z m -2,2 h -2 v 2 h 2 z m 0,2 v 2 h 2 v -2 z m 0,2 h -2 v 2 h 2 z m 0,2 v 2 h 2 v -2 z m 0,2 h -2 v 2 h 2 z m 0,2 v 2 h 2 v -2 z m 0,2 h -2 v 2 h 2 z m 0,2 v 2 h 2 v -2 z m 0,2 h -2 v 2 h 2 z m 0,2 v 2 h 2 v -2 z m 0,2 h -2 v 2 h 2 z m 0,2 v 2 h 2 v -2 z m 0,2 h -2 v 2 h 2 z m 0,2 v 2 h 2 v -2 z m 0,2 h -2 v 2 h 2 z m 0,2 v 2 h 2 v -2 z m -2,0 h -2 v 2 h 2 z m -2,0 v -2 h -2 v 2 z m -2,0 h -2 v 2 h 2 z m -2,0 v -2 h -2 v 2 z m -2,0 h -2 v 2 h 2 z m -2,0 v -2 h -2 v 2 z m -2,0 h -2 v 2 h 2 z m -2,0 v -2 h -2 v 2 z m -2,0 h -2 v 2 h 2 z m -2,0 v -2 h -2 v 2 z m -2,0 h -2 v 2 h 2 z m -2,0 v -2 h -2 v 2 z m -2,0 h -2 v 2 h 2 z m -2,0 v -2 h -2 v 2 z m -2,0 h -2 v 2 h 2 z m -2,0 v -2 h -2 v 2 z m -2,0 h -2 v 2 h 2 z m -2,0 v -2 h -2 v 2 z m -2,0 h -2 v 2 h 2 z m -2,0 v -2 h -2 v 2 z m -2,0 h -2 v 2 h 2 z m -2,0 v -2 h -2 v 2 z m -2,0 h -2 v 2 h 2 z m -2,0 v -2 h -2 v 2 z m -2,0 h -2 v 2 h 2 z m -2,0 v -2 h -2 v 2 z m -2,0 h -2 v 2 h 2 z m 0,-2 v -2 h -2 v 2 z m 0,-2 h 2 v -2 h -2 z m 0,-2 v -2 h -2 v 2 z m 0,-2 h 2 v -2 h -2 z m 0,-2 v -2 h -2 v 2 z m 0,-2 h 2 v -2 h -2 z m 0,-2 v -2 h -2 v 2 z m 0,-2 h 2 v -2 h -2 z m 0,-2 v -2 h -2 v 2 z m 0,-2 h 2 v -2 h -2 z m 0,-2 v -2 h -2 v 2 z m 0,-2 h 2 v -2 h -2 z m 0,-2 v -2 h -2 v 2 z m 0,-2 h 2 v -2 h -2 z m 0,-2 v -2 h -2 v 2 z m 0,-2 h 2 v -2 h -2 z m 2,0 v 2 h 2 v -2 z m 2,0 h 2 v -2 h -2 z m 2,0 v 2 h 2 v -2 z m 2,0 h 2 v -2 h -2 z m 2,0 v 2 h 2 v -2 z m 2,0 h 2 v -2 h -2 z m 2,0 v 2 h 2 v -2 z m 2,0 h 2 v -2 h -2 z m 2,0 v 2 h 2 v -2 z m 2,0 h 2 v -2 h -2 z m 2,0 v 2 h 2 v -2 z m 2,0 h 2 v -2 h -2 z m 2,0 v 2 h 2 v -2 z m 2,0 h 2 v -2 h -2 z m 2,0 v 2 h 2 v -2 z m 2,0 h 2 v -2 h -2 z m 2,0 v 2 h 2 v -2 z m 2,0 h 2 v -2 h -2 z m 2,0 v 2 h 2 v -2 z m 2,0 h 2 v -2 h -2 z m 2,0 v 2 h 2 v -2 z m 2,0 h 2 v -2 h -2 z m 2,0 v 2 h 2 v -2 z m 2,0 h 2 v -2 h -2 z m 2,0 v 2 h 2 v -2 z m 2,0 h 2 v -2 h -2 z m -2,2 h -2 v 2 h 2 z m 0,2 v 2 h 2 v -2 z m 0,2 h -2 v 2 h 2 z m 0,2 v 2 h 2 v -2 z m 0,2 h -2 v 2 h 2 z m 0,2 v 2 h 2 v -2 z m 0,2 h -2 v 2 h 2 z m 0,2 v 2 h 2 v -2 z m 0,2 h -2 v 2 h 2 z m 0,2 v 2 h 2 v -2 z m 0,2 h -2 v 2 h 2 z m 0,2 v 2 h 2 v -2 z m 0,2 h -2 v 2 h 2 z m 0,2 v 2 h 2 v -2 z m -2,0 h -2 v 2 h 2 z m -2,0 v -2 h -2 v 2 z m -2,0 h -2 v 2 h 2 z m -2,0 v -2 h -2 v 2 z m -2,0 h -2 v 2 h 2 z m -2,0 v -2 h -2 v 2 z m -2,0 h -2 v 2 h 2 z m -2,0 v -2 h -2 v 2 z m -2,0 h -2 v 2 h 2 z m -2,0 v -2 h -2 v 2 z m -2,0 h -2 v 2 h 2 z m -2,0 v -2 h -2 v 2 z m -2,0 h -2 v 2 h 2 z m -2,0 v -2 h -2 v 2 z m -2,0 h -2 v 2 h 2 z m -2,0 v -2 h -2 v 2 z m -2,0 h -2 v 2 h 2 z m -2,0 v -2 h -2 v 2 z m -2,0 h -2 v 2 h 2 z m -2,0 v -2 h -2 v 2 z m -2,0 h -2 v 2 h 2 z m -2,0 v -2 h -2 v 2 z m -2,0 h -2 v 2 h 2 z m 0,-2 v -2 h -2 v 2 z m 0,-2 h 2 v -2 h -2 z m 0,-2 v -2 h -2 v 2 z m 0,-2 h 2 v -2 h -2 z m 0,-2 v -2 h -2 v 2 z m 0,-2 h 2 v -2 h -2 z m 0,-2 v -2 h -2 v 2 z m 0,-2 h 2 v -2 h -2 z m 0,-2 v -2 h -2 v 2 z m 0,-2 h 2 v -2 h -2 z m 0,-2 v -2 h -2 v 2 z m 0,-2 h 2 v -2 h -2 z m 2,0 v 2 h 2 v -2 z m 2,0 h 2 v -2 h -2 z m 2,0 v 2 h 2 v -2 z m 2,0 h 2 v -2 h -2 z m 2,0 v 2 h 2 v -2 z m 2,0 h 2 v -2 h -2 z m 2,0 v 2 h 2 v -2 z m 2,0 h 2 v -2 h -2 z m 2,0 v 2 h 2 v -2 z m 2,0 h 2 v -2 h -2 z m 2,0 v 2 h 2 v -2 z m 2,0 h 2 v -2 h -2 z m 2,0 v 2 h 2 v -2 z m 2,0 h 2 v -2 h -2 z m 2,0 v 2 h 2 v -2 z m 2,0 h 2 v -2 h -2 z m 2,0 v 2 h 2 v -2 z m 2,0 h 2 v -2 h -2 z m 2,0 v 2 h 2 v -2 z m 2,0 h 2 v -2 h -2 z m 2,0 v 2 h 2 v -2 z m 0,2 h -2 v 2 h 2 z m 0,2 v 2 h 2 v -2 z m 0,2 h -2 v 2 h 2 z m 0,2 v 2 h 2 v -2 z m 0,2 h -2 v 2 h 2 z m 0,2 v 2 h 2 v -2 z m 0,2 h -2 v 2 h 2 z m 0,2 v 2 h 2 v -2 z m 0,2 h -2 v 2 h 2 z m 0,2 v 2 h 2 v -2 z m -2,0 h -2 v 2 h 2 z m -2,0 v -2 h -2 v 2 z m -2,0 h -2 v 2 h 2 z m -2,0 v -2 h -2 v 2 z m -2,0 h -2 v 2 h 2 z m -2,0 v -2 h -2 v 2 z m -2,0 h -2 v 2 h 2 z m -2,0 v -2 h -2 v 2 z m -2,0 h -2 v 2 h 2 z m -2,0 v -2 h -2 v 2 z m -2,0 h -2 v 2 h 2 z m -2,0 v -2 h -2 v 2 z m -2,0 h -2 v 2 h 2 z m -2,0 v -2 h -2 v 2 z m -2,0 h -2 v 2 h 2 z m -2,0 v -2 h -2 v 2 z m -2,0 h -2 v 2 h 2 z m -2,0 v -2 h -2 v 2 z m -2,0 h -2 v 2 h 2 z m 0,-2 v -2 h -2 v 2 z m 0,-2 h 2 v -2 h -2 z m 0,-2 v -2 h -2 v 2 z m 0,-2 h 2 v -2 h -2 z m 0,-2 v -2 h -2 v 2 z m 0,-2 h 2 v -2 h -2 z m 0,-2 v -2 h -2 v 2 z m 0,-2 h 2 v -2 h -2 z m 2,0 v 2 h 2 v -2 z m 2,0 h 2 v -2 h -2 z m 2,0 v 2 h 2 v -2 z m 2,0 h 2 v -2 h -2 z m 2,0 v 2 h 2 v -2 z m 2,0 h 2 v -2 h -2 z m 2,0 v 2 h 2 v -2 z m 2,0 h 2 v -2 h -2 z m 2,0 v 2 h 2 v -2 z m 2,0 h 2 v -2 h -2 z m 2,0 v 2 h 2 v -2 z m 2,0 h 2 v -2 h -2 z m 2,0 v 2 h 2 v -2 z m 2,0 h 2 v -2 h -2 z m 2,0 v 2 h 2 v -2 z m 2,0 h 2 v -2 h -2 z m 2,0 v 2 h 2 v -2 z m 0,2 h -2 v 2 h 2 z m 0,2 v 2 h 2 v -2 z m 0,2 h -2 v 2 h 2 z m 0,2 v 2 h 2 v -2 z m 0,2 h -2 v 2 h 2 z m 0,2 v 2 h 2 v -2 z m -2,0 h -2 v 2 h 2 z m -2,0 v -2 h -2 v 2 z m -2,0 h -2 v 2 h 2 z m -2,0 v -2 h -2 v 2 z m -2,0 h -2 v 2 h 2 z m -2,0 v -2 h -2 v 2 z m -2,0 h -2 v 2 h 2 z m -2,0 v -2 h -2 v 2 z m -2,0 h -2 v 2 h 2 z m -2,0 v -2 h -2 v 2 z m -2,0 h -2 v 2 h 2 z m -2,0 v -2 h -2 v 2 z m -2,0 h -2 v 2 h 2 z m -2,0 v -2 h -2 v 2 z m -2,0 h -2 v 2 h 2 z m 0,-2 v -2 h -2 v 2 z m 0,-2 h 2 v -2 h -2 z m 0,-2 v -2 h -2 v 2 z m 0,-2 h 2 v -2 h -2 z m 2,0 v 2 h 2 v -2 z m 2,0 h 2 v -2 h -2 z m 2,0 v 2 h 2 v -2 z m 2,0 h 2 v -2 h -2 z m 2,0 v 2 h 2 v -2 z m 2,0 h 2 v -2 h -2 z m 2,0 v 2 h 2 v -2 z m 2,0 h 2 v -2 h -2 z m 2,0 v 2 h 2 v -2 z m 2,0 h 2 v -2 h -2 z m 2,0 v 2 h 2 v -2 z m 2,0 h 2 v -2 h -2 z m 2,0 v 2 h 2 v -2 z m 0,2 h -2 v 2 h 2 z m 0,2 v 2 h 2 v -2 z m -2,0 h -2 v 2 h 2 z m -2,0 v -2 h -2 v 2 z m -2,0 h -2 v 2 h 2 z m -2,0 v -2 h -2 v 2 z m -2,0 h -2 v 2 h 2 z m -2,0 v -2 h -2 v 2 z m -2,0 h -2 v 2 h 2 z m -2,0 v -2 h -2 v 2 z m -2,0 h -2 v 2 h 2 z m -2,0 v -2 h -2 v 2 z m -2,0 h -2 v 2 h 2 z M 80,52 h 2 v -2 h -2 z m 2,0 v 2 h 2 v -2 z m 2,0 h 2 v -2 h -2 z m 2,0 v 2 h 2 v -2 z m 2,0 h 2 v -2 h -2 z m 2,0 v 2 h 2 v -2 z m 2,0 h 2 v -2 h -2 z m 2,0 v 2 h 2 v -2 z m 2,0 h 2 v -2 h -2 z m 2,0 v 2 h 2 v -2 z m 2,0 h 2 v -2 h -2 z m 2,0 v 2 h 2 v -2 z m 2,0 h 2 v -2 h -2 z m 0,2 v 2 h 2 v -2 z m 0,2 h -2 v 2 h 2 z m 0,2 v 2 h 2 v -2 z m 0,2 h -2 v 2 h 2 z m 0,2 v 2 h 2 v -2 z m 0,2 h -2 v 2 h 2 z m 0,2 v 2 h 2 v -2 z m 0,2 h -2 v 2 h 2 z m 0,2 v 2 h 2 v -2 z m 0,2 h -2 v 2 h 2 z m 0,2 v 2 h 2 v -2 z m 0,2 h -2 v 2 h 2 z m 0,2 v 2 h 2 v -2 z m 0,2 h -2 v 2 h 2 z m 0,2 v 2 h 2 v -2 z m 0,2 h -2 v 2 h 2 z m 0,2 v 2 h 2 v -2 z m 0,2 h -2 v 2 h 2 z m 0,2 v 2 h 2 v -2 z m 0,2 h -2 v 2 h 2 z m 0,2 v 2 h 2 v -2 z m 0,2 h -2 v 2 h 2 z m -2,0 v -2 h -2 v 2 z m -2,0 h -2 v 2 h 2 z m -2,0 v -2 h -2 v 2 z m -2,0 h -2 v 2 h 2 z m -2,0 v -2 h -2 v 2 z m -2,0 h -2 v 2 h 2 z m -2,0 v -2 h -2 v 2 z m -2,0 h -2 v 2 h 2 z m -2,0 v -2 h -2 v 2 z m -2,0 h -2 v 2 h 2 z m -2,0 v -2 h -2 v 2 z m -2,0 h -2 v 2 h 2 z m -2,0 v -2 h -2 v 2 z m -2,0 h -2 v 2 h 2 z m -2,0 v -2 h -2 v 2 z m -2,0 h -2 v 2 h 2 z m -2,0 v -2 h -2 v 2 z m -2,0 h -2 v 2 h 2 z m -2,0 v -2 h -2 v 2 z m -2,0 h -2 v 2 h 2 z m -2,0 v -2 h -2 v 2 z m -2,0 h -2 v 2 h 2 z m -2,0 v -2 h -2 v 2 z m -2,0 h -2 v 2 h 2 z m -2,0 v -2 h -2 v 2 z m -2,0 h -2 v 2 h 2 z m -2,0 v -2 h -2 v 2 z m -2,0 h -2 v 2 h 2 z m -2,0 v -2 h -2 v 2 z m -2,0 h -2 v 2 h 2 z m -2,0 v -2 h -2 v 2 z m -2,0 h -2 v 2 h 2 z m -2,0 v -2 h -2 v 2 z m -2,0 h -2 v 2 h 2 z m -2,0 v -2 h -2 v 2 z m -2,0 h -2 v 2 h 2 z m -2,0 v -2 h -2 v 2 z m -2,0 h -2 v 2 h 2 z m -2,0 v -2 h -2 v 2 z m -2,0 h -2 v 2 h 2 z m 58,-2 h 2 v -2 h -2 z m 2,-2 h 2 v -2 h -2 z m 2,-2 h 2 v -2 h -2 z m 0,-2 v -2 h -2 v 2 z m 0,-2 h 2 v -2 h -2 z m 0,-2 v -2 h -2 v 2 z m 0,-2 h 2 v -2 h -2 z m 0,-2 v -2 h -2 v 2 z m 0,-2 h 2 v -2 h -2 z m 0,-2 v -2 h -2 v 2 z m 0,-2 h 2 v -2 h -2 z m 0,-2 v -2 h -2 v 2 z m 0,-2 h 2 v -2 h -2 z m 0,-2 v -2 h -2 v 2 z m 0,-2 h 2 v -2 h -2 z m 0,-2 v -2 h -2 v 2 z m 0,-2 h 2 v -2 h -2 z m 0,-2 v -2 h -2 v 2 z m 0,-2 h 2 v -2 h -2 z m 0,-2 v -2 h -2 v 2 z m 2,0 h 2 v -2 h -2 z m 2,0 v 2 h 2 v -2 z m 2,0 h 2 v -2 h -2 z m 2,0 v 2 h 2 v -2 z m 2,0 h 2 v -2 h -2 z m 2,0 v 2 h 2 v -2 z m 2,0 h 2 v -2 h -2 z m 0,2 v 2 h 2 v -2 z m 0,2 h -2 v 2 h 2 z m 0,2 v 2 h 2 v -2 z m 0,2 h -2 v 2 h 2 z m 0,2 v 2 h 2 v -2 z m 0,2 h -2 v 2 h 2 z m 0,2 v 2 h 2 v -2 z m 0,2 h -2 v 2 h 2 z m 0,2 v 2 h 2 v -2 z m 0,2 h -2 v 2 h 2 z m 0,2 v 2 h 2 v -2 z m 0,2 h -2 v 2 h 2 z m 0,2 v 2 h 2 v -2 z m 0,2 h -2 v 2 h 2 z m 0,2 v 2 h 2 v -2 z m 0,2 h -2 v 2 h 2 z m 0,2 v 2 h 2 v -2 z m 0,2 h -2 v 2 h 2 z m -2,0 v -2 h -2 v 2 z m -2,0 h -2 v 2 h 2 z m -2,0 v -2 h -2 v 2 z m -2,0 h -2 v 2 h 2 z m -2,0 v -2 h -2 v 2 z m -2,0 h -2 v 2 h 2 z m 2,-2 h 2 v -2 h -2 z m 0,-2 v -2 h -2 v 2 z m 0,-2 h 2 v -2 h -2 z m 0,-2 v -2 h -2 v 2 z m 0,-2 h 2 v -2 h -2 z m 0,-2 v -2 h -2 v 2 z m 0,-2 h 2 v -2 h -2 z m 0,-2 v -2 h -2 v 2 z m 0,-2 h 2 v -2 h -2 z m 0,-2 v -2 h -2 v 2 z m 0,-2 h 2 v -2 h -2 z m 0,-2 v -2 h -2 v 2 z m 0,-2 h 2 v -2 h -2 z m 0,-2 v -2 h -2 v 2 z m 0,-2 h 2 v -2 h -2 z m 0,-2 v -2 h -2 v 2 z m 2,0 h 2 v -2 h -2 z m 2,0 v 2 h 2 v -2 z m 2,0 h 2 v -2 h -2 z m 0,2 v 2 h 2 v -2 z m 0,2 h -2 v 2 h 2 z m 0,2 v 2 h 2 v -2 z m 0,2 h -2 v 2 h 2 z m 0,2 v 2 h 2 v -2 z m 0,2 h -2 v 2 h 2 z m 0,2 v 2 h 2 v -2 z m 0,2 h -2 v 2 h 2 z m 0,2 v 2 h 2 v -2 z m 0,2 h -2 v 2 h 2 z m 0,2 v 2 h 2 v -2 z m 0,2 h -2 v 2 h 2 z m 0,2 v 2 h 2 v -2 z m 0,2 h -2 v 2 h 2 z m -2,0 v -2 h -2 v 2 z m 0,-4 v -2 h -2 v 2 z m 0,-4 v -2 h -2 v 2 z m 0,-4 v -2 h -2 v 2 z m 0,-4 v -2 h -2 v 2 z m 0,-4 v -2 h -2 v 2 z m 0,-4 v -2 h -2 v 2 z"
         id="rect885-36-7"
         inkscape:connector-curvature="0"
         transform="matrix(0.26458334,0,0,0.26458334,82.550003,136.13333)" />
      <path
         style="opacity:0.5;fill:#8698a6;fill-opacity:1;stroke:none;stroke-width:2;stroke-linejoin:bevel;stroke-miterlimit:4;stroke-dasharray:none;stroke-opacity:1"
         d="m 76,54 v 2 h 2 v -2 z m 2,2 v 2 h 2 v -2 z m 0,2 h -2 v 2 h 2 z m 0,2 v 2 h 2 v -2 z m 0,2 h -2 v 2 h 2 z m 0,2 v 2 h 2 v -2 z m 0,2 h -2 v 2 h 2 z m 0,2 v 2 h 2 v -2 z m 0,2 h -2 v 2 h 2 z m 0,2 v 2 h 2 v -2 z m 0,2 h -2 v 2 h 2 z m 0,2 v 2 h 2 v -2 z m 0,2 h -2 v 2 h 2 z m 0,2 v 2 h 2 v -2 z m 0,2 h -2 v 2 h 2 z m 0,2 v 2 h 2 v -2 z m 0,2 h -2 v 2 h 2 z m 0,2 v 2 h 2 v -2 z m -2,0 h -2 v 2 h 2 z m -2,0 v -2 h -2 v 2 z m -2,0 h -2 v 2 h 2 z m -2,0 v -2 h -2 v 2 z m -2,0 h -2 v 2 h 2 z m -2,0 v -2 h -2 v 2 z m -2,0 h -2 v 2 h 2 z m -2,0 v -2 h -2 v 2 z m -2,0 h -2 v 2 h 2 z m -2,0 v -2 h -2 v 2 z m -2,0 h -2 v 2 h 2 z m -2,0 v -2 h -2 v 2 z m -2,0 h -2 v 2 h 2 z m -2,0 v -2 h -2 v 2 z m -2,0 h -2 v 2 h 2 z m -2,0 v -2 h -2 v 2 z m -2,0 h -2 v 2 h 2 z m -2,0 v -2 h -2 v 2 z m -2,0 h -2 v 2 h 2 z m -2,0 v -2 h -2 v 2 z m -2,0 h -2 v 2 h 2 z m -2,0 v -2 h -2 v 2 z m -2,0 h -2 v 2 h 2 z m -2,0 v -2 h -2 v 2 z m -2,0 h -2 v 2 h 2 z m -2,0 v -2 h -2 v 2 z m -2,0 h -2 v 2 h 2 z m -2,0 v -2 h -2 v 2 z"
         transform="matrix(0.26458334,0,0,0.26458334,82.550003,136.13333)"
         id="rect889-7-9-6-10"
         inkscape:connector-curvature="0" />
      <g
         id="g2098"
         transform="translate(-3.88e-6,8.87e-6)">
        <path
           style="opacity:1;fill:#8698a6;fill-opacity:1;stroke:none;stroke-width:2;stroke-linejoin:bevel;stroke-miterlimit:4;stroke-dasharray:none;stroke-opacity:1"
           d="M 80,62 V 90 H 52 v 10 l -10e-7,2 H 110 v -2 -36 c 0,-1.108017 -0.89201,-2 -2,-2 z"
           transform="matrix(0.26458334,0,0,0.26458334,82.550003,136.13333)"
           id="rect3828-6-2-1"
           inkscape:connector-curvature="0"
           sodipodi:nodetypes="cccccccssc" />
        <path
           style="fill:#ffffff;stroke:none;stroke-width:0.26458335px;stroke-linecap:butt;stroke-linejoin:miter;stroke-opacity:1"
           d="m 104.24583,153.06667 h 6.87917 v 9.525 H 96.8375 v -2.64583 h 6.87917 v -6.87917 z"
           id="path3924"
           inkscape:connector-curvature="0" />
        <rect
           style="opacity:1;fill:#8698a6;fill-opacity:1;stroke:none;stroke-width:0.5291667;stroke-linejoin:bevel;stroke-miterlimit:4;stroke-dasharray:none;stroke-opacity:1"
           id="rect3926"
           width="7.9375"
           height="0.52915955"
           x="103.71667"
           y="153.59584"
           rx="0"
           ry="0" />
      </g>
      <g
         id="g2038"
         transform="translate(6.6058571e-7,3.0182422e-6)">
        <path
           style="opacity:1;fill:#8698a6;fill-opacity:1;stroke:none;stroke-width:0.5291667;stroke-linejoin:bevel;stroke-miterlimit:4;stroke-dasharray:none;stroke-opacity:1"
           d="m 87.841682,148.30417 h 14.287478 c 0.29317,0 0.52918,0.236 0.52918,0.52916 v 9.52502 0.52916 H 87.312503 l -3e-6,-0.52916 v -9.52502 c 0,-0.29316 0.236015,-0.52916 0.529182,-0.52916 z"
           id="rect3828-6-2"
           inkscape:connector-curvature="0"
           sodipodi:nodetypes="sssccccss" />
        <rect
           style="opacity:1;fill:#ffffff;fill-opacity:1;stroke:none;stroke-width:0.5291667;stroke-linejoin:bevel;stroke-miterlimit:4;stroke-dasharray:none;stroke-opacity:1"
           id="rect3911"
           width="14.2875"
           height="8.9958334"
           x="87.841667"
           y="149.3625"
           rx="7.6293945e-06"
           ry="3.0182423e-06" />
        <rect
           style="opacity:1;fill:#8698a6;fill-opacity:1;stroke:none;stroke-width:0.5291667;stroke-linejoin:bevel;stroke-miterlimit:4;stroke-dasharray:none;stroke-opacity:1"
           id="rect3930"
           width="2.1166668"
           height="2.1166668"
           x="88.900002"
           y="150.42084"
           ry="2.0076563e-06" />
        <rect
           style="opacity:1;fill:#8698a6;fill-opacity:1;stroke:none;stroke-width:0.5291667;stroke-linejoin:bevel;stroke-miterlimit:4;stroke-dasharray:none;stroke-opacity:1"
           id="rect3932"
           width="2.1166668"
           height="2.1166668"
           x="92.074997"
           y="150.42084"
           ry="2.0076557e-06" />
        <rect
           style="opacity:1;fill:#8698a6;fill-opacity:1;stroke:none;stroke-width:0.5291667;stroke-linejoin:bevel;stroke-miterlimit:4;stroke-dasharray:none;stroke-opacity:1"
           id="rect3934"
           width="2.1166668"
           height="2.1166668"
           x="95.25"
           y="150.42084"
           ry="2.0076557e-06" />
        <rect
           style="opacity:1;fill:#8698a6;fill-opacity:1;stroke:none;stroke-width:0.5291667;stroke-linejoin:bevel;stroke-miterlimit:4;stroke-dasharray:none;stroke-opacity:1"
           id="rect3936"
           width="2.1166668"
           height="0.5291667"
           x="88.900002"
           y="153.06668"
           ry="2.0076557e-06" />
        <rect
           style="opacity:1;fill:#8698a6;fill-opacity:1;stroke:none;stroke-width:0.5291667;stroke-linejoin:bevel;stroke-miterlimit:4;stroke-dasharray:none;stroke-opacity:1"
           id="rect3938"
           width="2.1166668"
           height="0.5291667"
           x="92.074997"
           y="153.06668"
           ry="2.0076557e-06" />
        <rect
           style="opacity:1;fill:#8698a6;fill-opacity:1;stroke:none;stroke-width:0.5291667;stroke-linejoin:bevel;stroke-miterlimit:4;stroke-dasharray:none;stroke-opacity:1"
           id="rect3940"
           width="2.1166668"
           height="0.5291667"
           x="95.25"
           y="153.06668"
           ry="2.0076557e-06" />
      </g>
      <rect
         y="149.3625"
         x="102.65833"
         height="0.5291667"
         width="0.52916592"
         id="rect887-6-7-9-7-3-9"
         style="opacity:0.5;fill:#8698a6;fill-opacity:1;stroke:none;stroke-width:0.5291667;stroke-linejoin:bevel;stroke-miterlimit:4;stroke-dasharray:none;stroke-opacity:1" />
      <rect
         y="149.89168"
         x="103.1875"
         height="0.5291667"
         width="0.52916592"
         id="rect887-6-7-9-7-3-1"
         style="opacity:0.5;fill:#8698a6;fill-opacity:1;stroke:none;stroke-width:0.5291667;stroke-linejoin:bevel;stroke-miterlimit:4;stroke-dasharray:none;stroke-opacity:1" />
      <rect
         y="149.3625"
         x="102.65833"
         height="0.5291667"
         width="0.52916592"
         id="rect887-6-7-9-7-3-2"
         style="opacity:0.5;fill:#8698a6;fill-opacity:1;stroke:none;stroke-width:0.5291667;stroke-linejoin:bevel;stroke-miterlimit:4;stroke-dasharray:none;stroke-opacity:1" />
      <rect
         y="149.89168"
         x="103.1875"
         height="0.5291667"
         width="0.52916592"
         id="rect887-6-7-9-7-3-7"
         style="opacity:0.5;fill:#8698a6;fill-opacity:1;stroke:none;stroke-width:0.5291667;stroke-linejoin:bevel;stroke-miterlimit:4;stroke-dasharray:none;stroke-opacity:1" />
    </g>
  </g>
</svg>
