<?xml version="1.0" encoding="UTF-8" standalone="no"?>
<!-- Created with Inkscape (http://www.inkscape.org/) -->

<svg
   width="128"
   height="128"
   viewBox="0 0 33.866667 33.866667"
   version="1.1"
   id="svg2634"
   inkscape:version="1.1.2 (0a00cf5339, 2022-02-04, custom)"
   sodipodi:docname="folder-download.svg"
   xmlns:inkscape="http://www.inkscape.org/namespaces/inkscape"
   xmlns:sodipodi="http://sodipodi.sourceforge.net/DTD/sodipodi-0.dtd"
   xmlns="http://www.w3.org/2000/svg"
   xmlns:svg="http://www.w3.org/2000/svg"
   xmlns:rdf="http://www.w3.org/1999/02/22-rdf-syntax-ns#"
   xmlns:cc="http://creativecommons.org/ns#"
   xmlns:dc="http://purl.org/dc/elements/1.1/">
  <title
     id="title3250">Boston Icons</title>
  <defs
     id="defs2628" />
  <sodipodi:namedview
     id="base"
     pagecolor="#ffffff"
     bordercolor="#00ffed"
     borderopacity="1"
     inkscape:pageopacity="1"
     inkscape:pageshadow="2"
     inkscape:zoom="5.6"
     inkscape:cx="56.607143"
     inkscape:cy="54.732143"
     inkscape:document-units="px"
     inkscape:current-layer="g852"
     showgrid="false"
     showguides="false"
     inkscape:guide-bbox="true"
     fit-margin-top="0"
     fit-margin-left="0"
     fit-margin-right="0"
     fit-margin-bottom="0"
     inkscape:window-width="1920"
     inkscape:window-height="1011"
     inkscape:window-x="0"
     inkscape:window-y="0"
     inkscape:window-maximized="1"
     units="px"
     inkscape:pagecheckerboard="0">
    <inkscape:grid
       type="xygrid"
       id="grid3182"
       spacingx="0.52916667"
       spacingy="0.52916667"
       empspacing="4"
       originx="-82.550004"
       originy="-127.00001"
       dotted="false" />
    <sodipodi:guide
       position="-4.268358e-06,27.516666"
       orientation="1,0"
       id="guide3216"
       inkscape:locked="false" />
    <sodipodi:guide
       position="3.7041618,33.866666"
       orientation="0,1"
       id="guide3218"
       inkscape:locked="false" />
    <sodipodi:guide
       position="33.866657,24.870836"
       orientation="1,0"
       id="guide3220"
       inkscape:locked="false" />
    <sodipodi:guide
       position="32.279157,-4.1479283e-06"
       orientation="0,1"
       id="guide3222"
       inkscape:locked="false" />
    <sodipodi:guide
       position="15.345829,32.808336"
       orientation="0,1"
       id="guide3224"
       inkscape:locked="false" />
    <sodipodi:guide
       position="-4.7625023,1.0583259"
       orientation="0,1"
       id="guide3226"
       inkscape:locked="false" />
    <sodipodi:guide
       position="1.0583287,17.462496"
       orientation="1,0"
       id="guide3228"
       inkscape:locked="false" />
    <sodipodi:guide
       position="32.808327,20.108336"
       orientation="1,0"
       id="guide3230"
       inkscape:locked="false" />
    <sodipodi:guide
       position="15.874995,31.750006"
       orientation="0,1"
       id="guide3232"
       inkscape:locked="false" />
    <sodipodi:guide
       position="2.1166617,24.870836"
       orientation="1,0"
       id="guide3234"
       inkscape:locked="false" />
    <sodipodi:guide
       position="3.1749958,25.400006"
       orientation="1,0"
       id="guide3236"
       inkscape:locked="false" />
    <sodipodi:guide
       position="5.2916633,15.345824"
       orientation="1,0"
       id="guide3238"
       inkscape:locked="false" />
    <sodipodi:guide
       position="28.574997,25.400006"
       orientation="1,0"
       id="guide3240"
       inkscape:locked="false" />
    <sodipodi:guide
       position="30.691657,24.341666"
       orientation="1,0"
       id="guide3242"
       inkscape:locked="false" />
    <sodipodi:guide
       position="31.749997,21.695836"
       orientation="1,0"
       id="guide3244"
       inkscape:locked="false" />
    <sodipodi:guide
       position="21.695827,2.1166659"
       orientation="0,1"
       id="guide3246"
       inkscape:locked="false" />
    <sodipodi:guide
       position="16.404162,3.1749959"
       orientation="0,1"
       id="guide3248"
       inkscape:locked="false" />
    <sodipodi:guide
       position="15.874997,27.516658"
       orientation="0.70710678,0.70710678"
       id="guide850"
       inkscape:locked="false" />
    <sodipodi:guide
       position="1.5874965,30.691676"
       orientation="0,1"
       id="guide843"
       inkscape:locked="false" />
    <sodipodi:guide
       position="30.162497,26.458325"
       orientation="0,1"
       id="guide845"
       inkscape:locked="false" />
  </sodipodi:namedview>
  <metadata
     id="metadata2631">
    <rdf:RDF>
      <cc:Work
         rdf:about="">
        <dc:format>image/svg+xml</dc:format>
        <dc:type
           rdf:resource="http://purl.org/dc/dcmitype/StillImage" />
        <dc:title>Boston Icons</dc:title>
        <cc:license
           rdf:resource="dribbble.com/chrisdiaz" />
        <dc:creator>
          <cc:Agent>
            <dc:title>Christian Díaz</dc:title>
          </cc:Agent>
        </dc:creator>
        <dc:date>2022</dc:date>
        <dc:publisher>
          <cc:Agent>
            <dc:title>Christian Díaz</dc:title>
          </cc:Agent>
        </dc:publisher>
        <dc:identifier>christiandiaz.design [at] gmail [dot] com</dc:identifier>
        <dc:subject>
          <rdf:Bag>
            <rdf:li>GNOME icon Theme</rdf:li>
          </rdf:Bag>
        </dc:subject>
        <dc:description>dribbble.com/chrisdiaz | diazchris.deviantart.com</dc:description>
      </cc:Work>
    </rdf:RDF>
  </metadata>
  <g
     inkscape:label="Capa 1"
     inkscape:groupmode="layer"
     id="layer1"
     transform="translate(-82.550003,-136.13333)">
    <g
       id="g852">
      <g
         id="g1902">
        <g
           id="g1546">
          <path
             id="path957"
             style="fill:#2d8cff;fill-opacity:1;stroke:none;stroke-width:0.264583px;stroke-linecap:butt;stroke-linejoin:miter;stroke-opacity:1"
             d="m 85.725003,139.30833 a 2.1166669,2.1166666 0 0 0 -0.15813,0.006 2.1166669,2.1166666 0 0 0 -0.157096,0.0181 2.1166669,2.1166666 0 0 0 -0.155546,0.0295 2.1166669,2.1166666 0 0 0 -0.152962,0.0408 2.1166669,2.1166666 0 0 0 -0.149345,0.0522 2.1166669,2.1166666 0 0 0 -0.145211,0.0636 2.1166669,2.1166666 0 0 0 -0.140043,0.0739 2.1166669,2.1166666 0 0 0 -0.133842,0.0842 2.1166669,2.1166666 0 0 0 -0.127641,0.0941 2.1166669,2.1166666 0 0 0 -0.119889,0.10283 2.1166669,2.1166666 0 0 0 -0.112138,0.11214 2.1166669,2.1166666 0 0 0 -0.102836,0.11989 2.1166669,2.1166666 0 0 0 -0.09405,0.12764 2.1166669,2.1166666 0 0 0 -0.08423,0.13384 2.1166669,2.1166666 0 0 0 -0.0739,0.14005 2.1166669,2.1166666 0 0 0 -0.06356,0.14521 2.1166669,2.1166666 0 0 0 -0.05219,0.14934 2.1166669,2.1166666 0 0 0 -0.04082,0.15296 2.1166669,2.1166666 0 0 0 -0.02945,0.15555 2.1166669,2.1166666 0 0 0 -0.01809,0.1571 2.1166669,2.1166666 0 0 0 -0.0057,0.15813 v 25.4 h 0.520899 31.229107 v -23.8125 c -6e-5,-0.009 -2.1e-4,-0.0183 -5.3e-4,-0.0274 -2.3e-4,-0.009 -5.3e-4,-0.0179 -0.001,-0.0269 -5.3e-4,-0.009 -7.9e-4,-0.0183 -0.002,-0.0274 -7.9e-4,-0.009 -0.002,-0.0183 -0.003,-0.0274 -8e-4,-0.009 -0.002,-0.0179 -0.003,-0.0269 -0.001,-0.009 -0.002,-0.0179 -0.004,-0.0269 -10e-4,-0.009 -0.003,-0.0179 -0.005,-0.0269 -0.002,-0.009 -0.003,-0.0179 -0.005,-0.0269 -0.002,-0.009 -0.004,-0.0176 -0.006,-0.0264 -0.002,-0.009 -0.004,-0.018 -0.007,-0.0269 -0.002,-0.009 -0.005,-0.0173 -0.007,-0.0258 -0.002,-0.009 -0.005,-0.0176 -0.008,-0.0264 -0.003,-0.009 -0.006,-0.0173 -0.009,-0.0258 -0.003,-0.008 -0.006,-0.0169 -0.009,-0.0253 -0.003,-0.009 -0.006,-0.0173 -0.01,-0.0258 -0.003,-0.008 -0.007,-0.0166 -0.0104,-0.0248 -0.004,-0.008 -0.007,-0.0166 -0.0114,-0.0248 -0.004,-0.008 -0.008,-0.0166 -0.0119,-0.0248 -0.004,-0.008 -0.008,-0.0163 -0.0124,-0.0243 -0.004,-0.008 -0.009,-0.0159 -0.0134,-0.0238 -0.004,-0.008 -0.009,-0.0156 -0.0134,-0.0233 -0.005,-0.008 -0.01,-0.0156 -0.0145,-0.0233 -0.005,-0.008 -0.01,-0.0152 -0.015,-0.0227 -0.005,-0.008 -0.0102,-0.0152 -0.0155,-0.0227 -0.005,-0.007 -0.0106,-0.0145 -0.016,-0.0217 -0.005,-0.007 -0.0109,-0.0145 -0.0165,-0.0217 -0.006,-0.007 -0.0113,-0.0142 -0.017,-0.0212 -0.006,-0.007 -0.0119,-0.0139 -0.0181,-0.0207 -0.006,-0.007 -0.012,-0.0135 -0.0181,-0.0202 -0.006,-0.007 -0.0123,-0.0132 -0.0186,-0.0196 -0.006,-0.007 -0.013,-0.0132 -0.0196,-0.0196 -0.006,-0.006 -0.013,-0.0125 -0.0196,-0.0186 -0.007,-0.006 -0.0133,-0.0122 -0.0202,-0.0181 -0.007,-0.006 -0.0137,-0.0122 -0.0207,-0.0181 -0.007,-0.006 -0.014,-0.0115 -0.0212,-0.0171 -0.007,-0.006 -0.0144,-0.0111 -0.0217,-0.0165 -0.007,-0.005 -0.0144,-0.0108 -0.0217,-0.016 -0.008,-0.005 -0.0151,-0.0104 -0.0227,-0.0155 -0.008,-0.005 -0.0151,-0.0101 -0.0227,-0.015 -0.008,-0.005 -0.0155,-0.01 -0.0233,-0.0145 -0.008,-0.005 -0.0155,-0.009 -0.0232,-0.0134 -0.008,-0.005 -0.0158,-0.009 -0.0238,-0.0134 -0.008,-0.004 -0.0161,-0.008 -0.0243,-0.0124 -0.008,-0.004 -0.0165,-0.008 -0.0248,-0.0119 -0.008,-0.004 -0.0165,-0.008 -0.0248,-0.0114 -0.008,-0.004 -0.0165,-0.007 -0.0248,-0.0103 -0.009,-0.003 -0.0172,-0.007 -0.0258,-0.01 -0.008,-0.003 -0.0169,-0.006 -0.0253,-0.009 -0.009,-0.003 -0.0172,-0.006 -0.0258,-0.009 -0.009,-0.003 -0.0175,-0.005 -0.0264,-0.008 -0.009,-0.003 -0.0172,-0.005 -0.0258,-0.008 -0.009,-0.002 -0.0179,-0.004 -0.0269,-0.006 -0.009,-0.002 -0.0175,-0.004 -0.0264,-0.006 -0.009,-0.002 -0.0179,-0.004 -0.0269,-0.005 -0.009,-0.002 -0.0179,-0.003 -0.0269,-0.005 -0.009,-0.001 -0.0179,-0.003 -0.0269,-0.004 -0.009,-0.001 -0.0179,-0.002 -0.0269,-0.003 -0.009,-9.8e-4 -0.0183,-0.002 -0.0274,-0.003 -0.009,-6.3e-4 -0.0183,-0.001 -0.0274,-0.002 -0.009,-4.5e-4 -0.0179,-7.9e-4 -0.0269,-0.001 -0.009,-2.7e-4 -0.0182,-4.2e-4 -0.0273,-5e-4 H 99.483337 l -3.704167,-2.64583 z m 2.11615,2.07378 a 2.1166669,2.1166666 0 0 1 5.29e-4,0.002 2.1166669,2.1166666 0 0 0 -5.29e-4,-0.002 z m -0.0021,0.15244 a 2.1166669,2.1166666 0 0 1 -5.29e-4,0.007 2.1166669,2.1166666 0 0 0 5.29e-4,-0.007 z m -0.001,0.0191 a 2.1166669,2.1166666 0 0 1 -5.29e-4,0.007 2.1166669,2.1166666 0 0 0 5.29e-4,-0.007 z" />
          <path
             sodipodi:nodetypes="cccccccccccccc"
             inkscape:connector-curvature="0"
             id="path959"
             d="m 98.530836,143.54165 -3.016249,2.11668 -10.847921,-1e-5 v 20.6375 H 114.3 v -22.225 z m 0.238125,0.52917 h 16.060209 v 22.225 H 84.137503 V 146.1875 H 95.77917 Z"
             style="fill:#2d8cff;fill-opacity:1;stroke:none;stroke-width:0.264583px;stroke-linecap:butt;stroke-linejoin:miter;stroke-opacity:1" />
          <path
             id="path845"
             style="fill:#6fb7ff;fill-opacity:1;stroke:none;stroke-width:0.264583px;stroke-linecap:butt;stroke-linejoin:miter;stroke-opacity:1"
             d="M 98.769168,142.48333 95.77917,144.6 H 84.137503 v 21.69583 H 114.82917 V 143.028 a 0.52916671,0.5291756 0 0 0 0,-0.005 0.52916671,0.5291756 0 0 0 0,-0.0103 0.52916671,0.5291756 0 0 0 -0.005,-0.0692 0.52916671,0.5291756 0 0 0 -0.0134,-0.0677 0.52916671,0.5291756 0 0 0 -0.0222,-0.0656 0.52916671,0.5291756 0 0 0 -0.0305,-0.062 0.52916671,0.5291756 0 0 0 -0.0387,-0.0574 0.52916671,0.5291756 0 0 0 -0.0455,-0.0522 0.52916671,0.5291756 0 0 0 -0.0522,-0.0455 0.52916671,0.5291756 0 0 0 -0.0574,-0.0388 0.52916671,0.5291756 0 0 0 -0.062,-0.0305 0.52916671,0.5291756 0 0 0 -0.0656,-0.0222 0.52916671,0.5291756 0 0 0 -0.0677,-0.0134 0.52916671,0.5291756 0 0 0 -0.0692,-0.005 z" />
          <path
             id="path843"
             style="fill:#6fb7ff;fill-opacity:1;stroke:none;stroke-width:0.264583px;stroke-linecap:butt;stroke-linejoin:miter;stroke-opacity:1"
             d="m 85.725003,139.8375 a 1.5875001,1.5875001 0 0 0 -0.410827,0.0543 1.5875001,1.5875001 0 0 0 -0.382923,0.15864 1.5875001,1.5875001 0 0 0 -0.328662,0.25218 1.5875001,1.5875001 0 0 0 -0.252181,0.32867 1.5875001,1.5875001 0 0 0 -0.158647,0.38292 1.5875001,1.5875001 0 0 0 -0.05426,0.41083 v 2.64583 h 11.377084 l 3.042708,-2.11667 -3.042708,-2.11666 z" />
        </g>
        <path
           sodipodi:nodetypes="cccccccccccc"
           inkscape:connector-curvature="0"
           d="m 95.437491,157.02105 -0.375,0.37305 4.41992,4.41992 4.421879,-4.41992 -0.375,-0.37305 -4.046879,4.04492 z m 3.78125,-8.18607 v 12.60599 h 0.529297 v -12.60599 z"
           style="color:#000000;font-style:normal;font-variant:normal;font-weight:normal;font-stretch:normal;font-size:medium;line-height:normal;font-family:sans-serif;font-variant-ligatures:normal;font-variant-position:normal;font-variant-caps:normal;font-variant-numeric:normal;font-variant-alternates:normal;font-feature-settings:normal;text-indent:0;text-align:start;text-decoration:none;text-decoration-line:none;text-decoration-style:solid;text-decoration-color:#000000;letter-spacing:normal;word-spacing:normal;text-transform:none;writing-mode:lr-tb;direction:ltr;text-orientation:mixed;dominant-baseline:auto;baseline-shift:baseline;text-anchor:start;white-space:normal;shape-padding:0;clip-rule:nonzero;display:inline;overflow:visible;visibility:visible;isolation:auto;mix-blend-mode:normal;color-interpolation:sRGB;color-interpolation-filters:linearRGB;solid-color:#000000;solid-opacity:1;vector-effect:none;fill:#2d8cff;fill-opacity:1;fill-rule:nonzero;stroke:none;stroke-width:0.529167;stroke-linecap:butt;stroke-linejoin:miter;stroke-miterlimit:4;stroke-dasharray:none;stroke-dashoffset:0;stroke-opacity:1;color-rendering:auto;image-rendering:auto;shape-rendering:auto;text-rendering:auto;enable-background:accumulate"
           id="path883" />
      </g>
    </g>
  </g>
</svg>
