<?xml version="1.0" encoding="UTF-8" standalone="no"?>
<!-- Created with Inkscape (http://www.inkscape.org/) -->

<svg
   width="128"
   height="128"
   viewBox="0 0 33.866667 33.866667"
   version="1.1"
   id="svg2634"
   inkscape:version="1.1.2 (0a00cf5339, 2022-02-04, custom)"
   sodipodi:docname="folder-music.svg"
   xmlns:inkscape="http://www.inkscape.org/namespaces/inkscape"
   xmlns:sodipodi="http://sodipodi.sourceforge.net/DTD/sodipodi-0.dtd"
   xmlns="http://www.w3.org/2000/svg"
   xmlns:svg="http://www.w3.org/2000/svg"
   xmlns:rdf="http://www.w3.org/1999/02/22-rdf-syntax-ns#"
   xmlns:cc="http://creativecommons.org/ns#"
   xmlns:dc="http://purl.org/dc/elements/1.1/">
  <title
     id="title3250">Boston Icons</title>
  <defs
     id="defs2628" />
  <sodipodi:namedview
     id="base"
     pagecolor="#ffffff"
     bordercolor="#00ffed"
     borderopacity="1"
     inkscape:pageopacity="1"
     inkscape:pageshadow="2"
     inkscape:zoom="5.6"
     inkscape:cx="56.785714"
     inkscape:cy="54.732143"
     inkscape:document-units="px"
     inkscape:current-layer="g852"
     showgrid="false"
     showguides="false"
     inkscape:guide-bbox="true"
     fit-margin-top="0"
     fit-margin-left="0"
     fit-margin-right="0"
     fit-margin-bottom="0"
     inkscape:window-width="1920"
     inkscape:window-height="1011"
     inkscape:window-x="0"
     inkscape:window-y="0"
     inkscape:window-maximized="1"
     units="px"
     inkscape:pagecheckerboard="0">
    <inkscape:grid
       type="xygrid"
       id="grid3182"
       spacingx="0.52916667"
       spacingy="0.52916667"
       empspacing="4"
       originx="-82.550004"
       originy="-127.00001"
       dotted="false" />
    <sodipodi:guide
       position="-4.268358e-06,27.516666"
       orientation="1,0"
       id="guide3216"
       inkscape:locked="false" />
    <sodipodi:guide
       position="3.7041618,33.866666"
       orientation="0,1"
       id="guide3218"
       inkscape:locked="false" />
    <sodipodi:guide
       position="33.866657,24.870836"
       orientation="1,0"
       id="guide3220"
       inkscape:locked="false" />
    <sodipodi:guide
       position="32.279157,-4.1479283e-06"
       orientation="0,1"
       id="guide3222"
       inkscape:locked="false" />
    <sodipodi:guide
       position="15.345829,32.808336"
       orientation="0,1"
       id="guide3224"
       inkscape:locked="false" />
    <sodipodi:guide
       position="-4.7625023,1.0583259"
       orientation="0,1"
       id="guide3226"
       inkscape:locked="false" />
    <sodipodi:guide
       position="1.0583287,17.462496"
       orientation="1,0"
       id="guide3228"
       inkscape:locked="false" />
    <sodipodi:guide
       position="32.808327,20.108336"
       orientation="1,0"
       id="guide3230"
       inkscape:locked="false" />
    <sodipodi:guide
       position="15.874995,31.750006"
       orientation="0,1"
       id="guide3232"
       inkscape:locked="false" />
    <sodipodi:guide
       position="2.1166617,24.870836"
       orientation="1,0"
       id="guide3234"
       inkscape:locked="false" />
    <sodipodi:guide
       position="3.1749958,25.400006"
       orientation="1,0"
       id="guide3236"
       inkscape:locked="false" />
    <sodipodi:guide
       position="5.2916633,15.345824"
       orientation="1,0"
       id="guide3238"
       inkscape:locked="false" />
    <sodipodi:guide
       position="28.574997,25.400006"
       orientation="1,0"
       id="guide3240"
       inkscape:locked="false" />
    <sodipodi:guide
       position="30.691657,24.341666"
       orientation="1,0"
       id="guide3242"
       inkscape:locked="false" />
    <sodipodi:guide
       position="31.749997,21.695836"
       orientation="1,0"
       id="guide3244"
       inkscape:locked="false" />
    <sodipodi:guide
       position="21.695827,2.1166659"
       orientation="0,1"
       id="guide3246"
       inkscape:locked="false" />
    <sodipodi:guide
       position="16.404162,3.1749959"
       orientation="0,1"
       id="guide3248"
       inkscape:locked="false" />
    <sodipodi:guide
       position="15.874997,27.516658"
       orientation="0.70710678,0.70710678"
       id="guide850"
       inkscape:locked="false" />
    <sodipodi:guide
       position="1.5874965,30.691676"
       orientation="0,1"
       id="guide843"
       inkscape:locked="false" />
    <sodipodi:guide
       position="30.162497,26.458325"
       orientation="0,1"
       id="guide845"
       inkscape:locked="false" />
  </sodipodi:namedview>
  <metadata
     id="metadata2631">
    <rdf:RDF>
      <cc:Work
         rdf:about="">
        <dc:format>image/svg+xml</dc:format>
        <dc:type
           rdf:resource="http://purl.org/dc/dcmitype/StillImage" />
        <dc:title>Boston Icons</dc:title>
        <cc:license
           rdf:resource="dribbble.com/chrisdiaz" />
        <dc:creator>
          <cc:Agent>
            <dc:title>Christian Díaz</dc:title>
          </cc:Agent>
        </dc:creator>
        <dc:date>2022</dc:date>
        <dc:publisher>
          <cc:Agent>
            <dc:title>Christian Díaz</dc:title>
          </cc:Agent>
        </dc:publisher>
        <dc:identifier>christiandiaz.design [at] gmail [dot] com</dc:identifier>
        <dc:subject>
          <rdf:Bag>
            <rdf:li>GNOME icon Theme</rdf:li>
          </rdf:Bag>
        </dc:subject>
        <dc:description>dribbble.com/chrisdiaz | diazchris.deviantart.com</dc:description>
      </cc:Work>
    </rdf:RDF>
  </metadata>
  <g
     inkscape:label="Capa 1"
     inkscape:groupmode="layer"
     id="layer1"
     transform="translate(-82.550003,-136.13333)">
    <g
       id="g852">
      <g
         id="g3023">
        <g
           id="g1546">
          <path
             id="path957"
             style="fill:#2d8cff;fill-opacity:1;stroke:none;stroke-width:0.264583px;stroke-linecap:butt;stroke-linejoin:miter;stroke-opacity:1"
             d="m 85.725003,139.30833 c -0.05277,3e-5 -0.105513,0.002 -0.15813,0.006 -0.05257,0.004 -0.104974,0.0101 -0.157096,0.0181 -0.0522,0.008 -0.104083,0.0177 -0.155546,0.0295 -0.05148,0.0117 -0.102501,0.0253 -0.152962,0.0408 -0.05042,0.0155 -0.100231,0.0329 -0.149345,0.0522 -0.04918,0.0194 -0.09762,0.0406 -0.145211,0.0636 -0.04759,0.0229 -0.0943,0.0475 -0.140043,0.0739 -0.04565,0.0264 -0.09029,0.0545 -0.133842,0.0842 -0.04371,0.0298 -0.08628,0.0611 -0.127641,0.0941 -0.04123,0.0328 -0.08122,0.0671 -0.119889,0.10283 -0.03877,0.036 -0.07617,0.0734 -0.112138,0.11214 -0.03576,0.0387 -0.07006,0.0787 -0.102836,0.11989 -0.03293,0.0414 -0.06431,0.0839 -0.09405,0.12764 -0.02973,0.0436 -0.05783,0.0882 -0.08423,0.13384 -0.02637,0.0457 -0.05102,0.0925 -0.0739,0.14005 -0.02299,0.0476 -0.04419,0.096 -0.06356,0.14521 -0.01925,0.0491 -0.03666,0.0989 -0.05219,0.14934 -0.01551,0.0505 -0.02912,0.10148 -0.04082,0.15296 -0.01175,0.0515 -0.02158,0.10335 -0.02945,0.15555 -0.008,0.0521 -0.01402,0.10453 -0.01809,0.1571 -0.0039,0.0526 -0.0058,0.10537 -0.0057,0.15813 v 25.4 h 0.520899 31.229107 v -23.8125 c -6e-5,-0.009 -2.1e-4,-0.0183 -5.3e-4,-0.0274 -2.3e-4,-0.009 -5.3e-4,-0.0179 -0.001,-0.0269 -5.3e-4,-0.009 -7.9e-4,-0.0183 -0.002,-0.0274 -7.9e-4,-0.009 -0.002,-0.0183 -0.003,-0.0274 -8e-4,-0.009 -0.002,-0.0179 -0.003,-0.0269 -0.001,-0.009 -0.002,-0.0179 -0.004,-0.0269 -10e-4,-0.009 -0.003,-0.0179 -0.005,-0.0269 -0.002,-0.009 -0.003,-0.0179 -0.005,-0.0269 -0.002,-0.009 -0.004,-0.0176 -0.006,-0.0264 -0.002,-0.009 -0.004,-0.018 -0.007,-0.0269 -0.002,-0.009 -0.005,-0.0173 -0.007,-0.0258 -0.002,-0.009 -0.005,-0.0176 -0.008,-0.0264 -0.003,-0.009 -0.006,-0.0173 -0.009,-0.0258 -0.003,-0.008 -0.006,-0.0169 -0.009,-0.0253 -0.003,-0.009 -0.006,-0.0173 -0.01,-0.0258 -0.003,-0.008 -0.007,-0.0166 -0.0104,-0.0248 -0.004,-0.008 -0.007,-0.0166 -0.0114,-0.0248 -0.004,-0.008 -0.008,-0.0166 -0.0119,-0.0248 -0.004,-0.008 -0.008,-0.0163 -0.0124,-0.0243 -0.004,-0.008 -0.009,-0.0159 -0.0134,-0.0238 -0.004,-0.008 -0.009,-0.0156 -0.0134,-0.0233 -0.005,-0.008 -0.01,-0.0156 -0.0145,-0.0233 -0.005,-0.008 -0.01,-0.0152 -0.015,-0.0227 -0.005,-0.008 -0.0102,-0.0152 -0.0155,-0.0227 -0.005,-0.007 -0.0106,-0.0145 -0.016,-0.0217 -0.005,-0.007 -0.0109,-0.0145 -0.0165,-0.0217 -0.006,-0.007 -0.0113,-0.0142 -0.017,-0.0212 -0.006,-0.007 -0.0119,-0.0139 -0.0181,-0.0207 -0.006,-0.007 -0.012,-0.0135 -0.0181,-0.0202 -0.006,-0.007 -0.0123,-0.0132 -0.0186,-0.0196 -0.006,-0.007 -0.013,-0.0132 -0.0196,-0.0196 -0.006,-0.006 -0.013,-0.0125 -0.0196,-0.0186 -0.007,-0.006 -0.0133,-0.0122 -0.0202,-0.0181 -0.007,-0.006 -0.0137,-0.0122 -0.0207,-0.0181 -0.007,-0.006 -0.014,-0.0115 -0.0212,-0.0171 -0.007,-0.006 -0.0144,-0.0111 -0.0217,-0.0165 -0.007,-0.005 -0.0144,-0.0108 -0.0217,-0.016 -0.008,-0.005 -0.0151,-0.0104 -0.0227,-0.0155 -0.008,-0.005 -0.0151,-0.0101 -0.0227,-0.015 -0.008,-0.005 -0.0155,-0.01 -0.0233,-0.0145 -0.008,-0.005 -0.0155,-0.009 -0.0232,-0.0134 -0.008,-0.005 -0.0158,-0.009 -0.0238,-0.0134 -0.008,-0.004 -0.0161,-0.008 -0.0243,-0.0124 -0.008,-0.004 -0.0165,-0.008 -0.0248,-0.0119 -0.008,-0.004 -0.0165,-0.008 -0.0248,-0.0114 -0.008,-0.004 -0.0165,-0.007 -0.0248,-0.0103 -0.009,-0.003 -0.0172,-0.007 -0.0258,-0.01 -0.008,-0.003 -0.0169,-0.006 -0.0253,-0.009 -0.009,-0.003 -0.0172,-0.006 -0.0258,-0.009 -0.009,-0.003 -0.0175,-0.005 -0.0264,-0.008 -0.009,-0.003 -0.0172,-0.005 -0.0258,-0.008 -0.009,-0.002 -0.0179,-0.004 -0.0269,-0.006 -0.009,-0.002 -0.0175,-0.004 -0.0264,-0.006 -0.009,-0.002 -0.0179,-0.004 -0.0269,-0.005 -0.009,-0.002 -0.0179,-0.003 -0.0269,-0.005 -0.009,-0.001 -0.0179,-0.003 -0.0269,-0.004 -0.009,-0.001 -0.0179,-0.002 -0.0269,-0.003 -0.009,-9.8e-4 -0.0183,-0.002 -0.0274,-0.003 -0.009,-6.3e-4 -0.0183,-0.001 -0.0274,-0.002 -0.009,-4.5e-4 -0.0179,-7.9e-4 -0.0269,-0.001 -0.009,-2.7e-4 -0.0182,-4.2e-4 -0.0273,-5e-4 H 99.483337 l -3.704167,-2.64583 z"
             sodipodi:nodetypes="ccccccccccccccccccccccccccccccscsscccccccccccccccccccccccccccccccccccccccccccscccscccccccc" />
          <path
             sodipodi:nodetypes="cccccccccccccc"
             inkscape:connector-curvature="0"
             id="path959"
             d="m 98.530836,143.54165 -3.016249,2.11668 -10.847921,-1e-5 v 20.6375 H 114.3 v -22.225 z m 0.238125,0.52917 h 16.060209 v 22.225 H 84.137503 V 146.1875 H 95.77917 Z"
             style="fill:#2d8cff;fill-opacity:1;stroke:none;stroke-width:0.264583px;stroke-linecap:butt;stroke-linejoin:miter;stroke-opacity:1" />
          <path
             id="path845"
             style="fill:#6fb7ff;fill-opacity:1;stroke:none;stroke-width:0.264583px;stroke-linecap:butt;stroke-linejoin:miter;stroke-opacity:1"
             d="M 98.769168,142.48333 95.77917,144.6 H 84.137503 v 21.69583 H 114.82917 V 143.028 a 0.52916671,0.5291756 0 0 0 0,-0.005 0.52916671,0.5291756 0 0 0 0,-0.0103 0.52916671,0.5291756 0 0 0 -0.005,-0.0692 0.52916671,0.5291756 0 0 0 -0.0134,-0.0677 0.52916671,0.5291756 0 0 0 -0.0222,-0.0656 0.52916671,0.5291756 0 0 0 -0.0305,-0.062 0.52916671,0.5291756 0 0 0 -0.0387,-0.0574 0.52916671,0.5291756 0 0 0 -0.0455,-0.0522 0.52916671,0.5291756 0 0 0 -0.0522,-0.0455 0.52916671,0.5291756 0 0 0 -0.0574,-0.0388 0.52916671,0.5291756 0 0 0 -0.062,-0.0305 0.52916671,0.5291756 0 0 0 -0.0656,-0.0222 0.52916671,0.5291756 0 0 0 -0.0677,-0.0134 0.52916671,0.5291756 0 0 0 -0.0692,-0.005 z" />
          <path
             id="path843"
             style="fill:#6fb7ff;fill-opacity:1;stroke:none;stroke-width:0.264583px;stroke-linecap:butt;stroke-linejoin:miter;stroke-opacity:1"
             d="m 85.725003,139.8375 a 1.5875001,1.5875001 0 0 0 -0.410827,0.0543 1.5875001,1.5875001 0 0 0 -0.382923,0.15864 1.5875001,1.5875001 0 0 0 -0.328662,0.25218 1.5875001,1.5875001 0 0 0 -0.252181,0.32867 1.5875001,1.5875001 0 0 0 -0.158647,0.38292 1.5875001,1.5875001 0 0 0 -0.05426,0.41083 v 2.64583 h 11.377084 l 3.042708,-2.11667 -3.042708,-2.11666 z" />
        </g>
        <path
           inkscape:connector-curvature="0"
           id="path866"
           d="m 96.837513,148.82815 v 7.4135 a 2.6458337,2.6458337 0 0 0 -2.116667,-1.0635 2.6458337,2.6458337 0 0 0 -2.645834,2.64584 2.6458337,2.6458337 0 0 0 2.645834,2.64583 2.6458337,2.6458337 0 0 0 2.645837,-2.64583 v -6.87917 h 6.879147 v 5.29683 a 2.6458337,2.6458337 0 0 0 -2.11667,-1.0635 2.6458337,2.6458337 0 0 0 -2.645817,2.64584 2.6458337,2.6458337 0 0 0 2.645817,2.64583 2.6458337,2.6458337 0 0 0 2.64584,-2.64583 v -8.46667 -0.52917 h -7.408317 z m -2.116667,6.87917 a 2.1166669,2.1166669 0 0 1 2.116667,2.11667 2.1166669,2.1166669 0 0 1 -2.116667,2.11666 2.1166669,2.1166669 0 0 1 -2.116667,-2.11666 2.1166669,2.1166669 0 0 1 2.116667,-2.11667 z m 7.408314,0 a 2.1166668,2.1166668 0 0 1 2.11667,2.11667 2.1166668,2.1166668 0 0 1 -2.11667,2.11666 2.1166668,2.1166668 0 0 1 -2.11665,-2.11666 2.1166668,2.1166668 0 0 1 2.11665,-2.11667 z"
           style="fill:#2d8cff;fill-opacity:1;stroke:none;stroke-width:0.529167;stroke-linejoin:bevel;stroke-miterlimit:4;stroke-dasharray:none;stroke-opacity:1" />
      </g>
    </g>
  </g>
</svg>
