<?xml version="1.0" encoding="UTF-8" standalone="no"?>
<!-- Created with Inkscape (http://www.inkscape.org/) -->

<svg
   width="128"
   height="128"
   viewBox="0 0 33.866667 33.866667"
   version="1.1"
   id="svg2634"
   inkscape:version="1.1.2 (0a00cf5339, 2022-02-04, custom)"
   sodipodi:docname="folder-drag-accept.svg"
   xmlns:inkscape="http://www.inkscape.org/namespaces/inkscape"
   xmlns:sodipodi="http://sodipodi.sourceforge.net/DTD/sodipodi-0.dtd"
   xmlns:xlink="http://www.w3.org/1999/xlink"
   xmlns="http://www.w3.org/2000/svg"
   xmlns:svg="http://www.w3.org/2000/svg"
   xmlns:rdf="http://www.w3.org/1999/02/22-rdf-syntax-ns#"
   xmlns:cc="http://creativecommons.org/ns#"
   xmlns:dc="http://purl.org/dc/elements/1.1/">
  <title
     id="title3250">Boston Icons</title>
  <defs
     id="defs2628">
    <linearGradient
       inkscape:collect="always"
       id="linearGradient2772">
      <stop
         style="stop-color:#6fb7ff;stop-opacity:1;"
         offset="0"
         id="stop2768" />
      <stop
         style="stop-color:#2d8cff;stop-opacity:1"
         offset="1"
         id="stop2770" />
    </linearGradient>
    <linearGradient
       inkscape:collect="always"
       xlink:href="#linearGradient2772"
       id="linearGradient3650"
       gradientUnits="userSpaceOnUse"
       x1="71.999985"
       y1="31.999964"
       x2="71.999985"
       y2="81.999962" />
  </defs>
  <sodipodi:namedview
     id="base"
     pagecolor="#ffffff"
     bordercolor="#00ffed"
     borderopacity="1"
     inkscape:pageopacity="1"
     inkscape:pageshadow="2"
     inkscape:zoom="5.6"
     inkscape:cx="49.285714"
     inkscape:cy="59.553571"
     inkscape:document-units="px"
     inkscape:current-layer="g852"
     showgrid="false"
     showguides="false"
     inkscape:guide-bbox="true"
     fit-margin-top="0"
     fit-margin-left="0"
     fit-margin-right="0"
     fit-margin-bottom="0"
     inkscape:window-width="1920"
     inkscape:window-height="1011"
     inkscape:window-x="0"
     inkscape:window-y="0"
     inkscape:window-maximized="1"
     units="px"
     inkscape:pagecheckerboard="0">
    <inkscape:grid
       type="xygrid"
       id="grid3182"
       spacingx="0.52916667"
       spacingy="0.52916667"
       empspacing="4"
       originx="-82.550004"
       originy="-127.00001"
       dotted="false" />
    <sodipodi:guide
       position="-4.268358e-06,27.516666"
       orientation="1,0"
       id="guide3216"
       inkscape:locked="false" />
    <sodipodi:guide
       position="3.7041618,33.866666"
       orientation="0,1"
       id="guide3218"
       inkscape:locked="false" />
    <sodipodi:guide
       position="33.866657,24.870836"
       orientation="1,0"
       id="guide3220"
       inkscape:locked="false" />
    <sodipodi:guide
       position="32.279157,-4.1479283e-06"
       orientation="0,1"
       id="guide3222"
       inkscape:locked="false" />
    <sodipodi:guide
       position="15.345829,32.808336"
       orientation="0,1"
       id="guide3224"
       inkscape:locked="false" />
    <sodipodi:guide
       position="-4.7625023,1.0583259"
       orientation="0,1"
       id="guide3226"
       inkscape:locked="false" />
    <sodipodi:guide
       position="1.0583287,17.462496"
       orientation="1,0"
       id="guide3228"
       inkscape:locked="false" />
    <sodipodi:guide
       position="32.808327,20.108336"
       orientation="1,0"
       id="guide3230"
       inkscape:locked="false" />
    <sodipodi:guide
       position="15.874995,31.750006"
       orientation="0,1"
       id="guide3232"
       inkscape:locked="false" />
    <sodipodi:guide
       position="2.1166617,24.870836"
       orientation="1,0"
       id="guide3234"
       inkscape:locked="false" />
    <sodipodi:guide
       position="3.1749958,25.400006"
       orientation="1,0"
       id="guide3236"
       inkscape:locked="false" />
    <sodipodi:guide
       position="5.2916633,15.345824"
       orientation="1,0"
       id="guide3238"
       inkscape:locked="false" />
    <sodipodi:guide
       position="28.574997,25.400006"
       orientation="1,0"
       id="guide3240"
       inkscape:locked="false" />
    <sodipodi:guide
       position="30.691657,24.341666"
       orientation="1,0"
       id="guide3242"
       inkscape:locked="false" />
    <sodipodi:guide
       position="31.749997,21.695836"
       orientation="1,0"
       id="guide3244"
       inkscape:locked="false" />
    <sodipodi:guide
       position="21.695827,2.1166659"
       orientation="0,1"
       id="guide3246"
       inkscape:locked="false" />
    <sodipodi:guide
       position="16.404162,3.1749959"
       orientation="0,1"
       id="guide3248"
       inkscape:locked="false" />
    <sodipodi:guide
       position="1.5874965,30.691676"
       orientation="0,1"
       id="guide843"
       inkscape:locked="false" />
    <sodipodi:guide
       position="30.162497,26.458325"
       orientation="0,1"
       id="guide845"
       inkscape:locked="false" />
    <sodipodi:guide
       position="51.85833,12.170843"
       orientation="0,-1"
       id="guide1776" />
  </sodipodi:namedview>
  <metadata
     id="metadata2631">
    <rdf:RDF>
      <cc:Work
         rdf:about="">
        <dc:format>image/svg+xml</dc:format>
        <dc:type
           rdf:resource="http://purl.org/dc/dcmitype/StillImage" />
        <dc:title>Boston Icons</dc:title>
        <cc:license
           rdf:resource="dribbble.com/chrisdiaz" />
        <dc:creator>
          <cc:Agent>
            <dc:title>Christian Díaz</dc:title>
          </cc:Agent>
        </dc:creator>
        <dc:date>2022</dc:date>
        <dc:publisher>
          <cc:Agent>
            <dc:title>Christian Díaz</dc:title>
          </cc:Agent>
        </dc:publisher>
        <dc:identifier>christiandiaz.design [at] gmail [dot] com</dc:identifier>
        <dc:subject>
          <rdf:Bag>
            <rdf:li>GNOME icon Theme</rdf:li>
          </rdf:Bag>
        </dc:subject>
        <dc:description>dribbble.com/chrisdiaz | diazchris.deviantart.com</dc:description>
      </cc:Work>
    </rdf:RDF>
  </metadata>
  <g
     inkscape:label="Capa 1"
     inkscape:groupmode="layer"
     id="layer1"
     transform="translate(-82.550003,-136.13333)">
    <g
       id="g852">
      <g
         id="g857">
        <path
           id="path957"
           style="fill:#2d8cff;fill-opacity:1;stroke:none;stroke-width:0.264583px;stroke-linecap:butt;stroke-linejoin:miter;stroke-opacity:1"
           d="m 85.725003,139.30833 c -0.05277,3e-5 -0.105513,0.002 -0.15813,0.006 -0.05257,0.004 -0.104974,0.0101 -0.157096,0.0181 -0.0522,0.008 -0.104083,0.0177 -0.155546,0.0295 -0.05148,0.0117 -0.102501,0.0253 -0.152962,0.0408 -0.05042,0.0155 -0.100231,0.0329 -0.149345,0.0522 -0.04918,0.0194 -0.09762,0.0406 -0.145211,0.0636 -0.04759,0.0229 -0.0943,0.0475 -0.140043,0.0739 -0.04565,0.0264 -0.09029,0.0545 -0.133842,0.0842 -0.04371,0.0298 -0.08628,0.0611 -0.127641,0.0941 -0.04123,0.0328 -0.08122,0.0671 -0.119889,0.10283 -0.03877,0.036 -0.07617,0.0734 -0.112138,0.11214 -0.03576,0.0387 -0.07006,0.0787 -0.102836,0.11989 -0.03293,0.0414 -0.06431,0.0839 -0.09405,0.12764 -0.02973,0.0436 -0.05783,0.0882 -0.08423,0.13384 -0.02637,0.0457 -0.05102,0.0925 -0.0739,0.14005 -0.02299,0.0476 -0.04419,0.096 -0.06356,0.14521 -0.01925,0.0491 -0.03666,0.0989 -0.05219,0.14934 -0.01551,0.0505 -0.02912,0.10148 -0.04082,0.15296 -0.01175,0.0515 -0.02158,0.10335 -0.02945,0.15555 -0.008,0.0521 -0.01402,0.10453 -0.01809,0.1571 -0.0039,0.0526 -0.0058,0.10537 -0.0057,0.15813 v 25.4 h 0.520899 31.229107 v -23.8125 c -6e-5,-0.009 -2.1e-4,-0.0183 -5.3e-4,-0.0274 -2.3e-4,-0.009 -5.3e-4,-0.0179 -0.001,-0.0269 -5.3e-4,-0.009 -7.9e-4,-0.0183 -0.002,-0.0274 -7.9e-4,-0.009 -0.002,-0.0183 -0.003,-0.0274 -8e-4,-0.009 -0.002,-0.0179 -0.003,-0.0269 -0.001,-0.009 -0.002,-0.0179 -0.004,-0.0269 -10e-4,-0.009 -0.003,-0.0179 -0.005,-0.0269 -0.002,-0.009 -0.003,-0.0179 -0.005,-0.0269 -0.002,-0.009 -0.004,-0.0176 -0.006,-0.0264 -0.002,-0.009 -0.004,-0.018 -0.007,-0.0269 -0.002,-0.009 -0.005,-0.0173 -0.007,-0.0258 -0.002,-0.009 -0.005,-0.0176 -0.008,-0.0264 -0.003,-0.009 -0.006,-0.0173 -0.009,-0.0258 -0.003,-0.008 -0.006,-0.0169 -0.009,-0.0253 -0.003,-0.009 -0.006,-0.0173 -0.01,-0.0258 -0.003,-0.008 -0.007,-0.0166 -0.0104,-0.0248 -0.004,-0.008 -0.007,-0.0166 -0.0114,-0.0248 -0.004,-0.008 -0.008,-0.0166 -0.0119,-0.0248 -0.004,-0.008 -0.008,-0.0163 -0.0124,-0.0243 -0.004,-0.008 -0.009,-0.0159 -0.0134,-0.0238 -0.004,-0.008 -0.009,-0.0156 -0.0134,-0.0233 -0.005,-0.008 -0.01,-0.0156 -0.0145,-0.0233 -0.005,-0.008 -0.01,-0.0152 -0.015,-0.0227 -0.005,-0.008 -0.0102,-0.0152 -0.0155,-0.0227 -0.005,-0.007 -0.0106,-0.0145 -0.016,-0.0217 -0.005,-0.007 -0.0109,-0.0145 -0.0165,-0.0217 -0.006,-0.007 -0.0113,-0.0142 -0.017,-0.0212 -0.006,-0.007 -0.0119,-0.0139 -0.0181,-0.0207 -0.006,-0.007 -0.012,-0.0135 -0.0181,-0.0202 -0.006,-0.007 -0.0123,-0.0132 -0.0186,-0.0196 -0.006,-0.007 -0.013,-0.0132 -0.0196,-0.0196 -0.006,-0.006 -0.013,-0.0125 -0.0196,-0.0186 -0.007,-0.006 -0.0133,-0.0122 -0.0202,-0.0181 -0.007,-0.006 -0.0137,-0.0122 -0.0207,-0.0181 -0.007,-0.006 -0.014,-0.0115 -0.0212,-0.0171 -0.007,-0.006 -0.0144,-0.0111 -0.0217,-0.0165 -0.007,-0.005 -0.0144,-0.0108 -0.0217,-0.016 -0.008,-0.005 -0.0151,-0.0104 -0.0227,-0.0155 -0.008,-0.005 -0.0151,-0.0101 -0.0227,-0.015 -0.008,-0.005 -0.0155,-0.01 -0.0233,-0.0145 -0.008,-0.005 -0.0155,-0.009 -0.0232,-0.0134 -0.008,-0.005 -0.0158,-0.009 -0.0238,-0.0134 -0.008,-0.004 -0.0161,-0.008 -0.0243,-0.0124 -0.008,-0.004 -0.0165,-0.008 -0.0248,-0.0119 -0.008,-0.004 -0.0165,-0.008 -0.0248,-0.0114 -0.008,-0.004 -0.0165,-0.007 -0.0248,-0.0103 -0.009,-0.003 -0.0172,-0.007 -0.0258,-0.01 -0.008,-0.003 -0.0169,-0.006 -0.0253,-0.009 -0.009,-0.003 -0.0172,-0.006 -0.0258,-0.009 -0.009,-0.003 -0.0175,-0.005 -0.0264,-0.008 -0.009,-0.003 -0.0172,-0.005 -0.0258,-0.008 -0.009,-0.002 -0.0179,-0.004 -0.0269,-0.006 -0.009,-0.002 -0.0175,-0.004 -0.0264,-0.006 -0.009,-0.002 -0.0179,-0.004 -0.0269,-0.005 -0.009,-0.002 -0.0179,-0.003 -0.0269,-0.005 -0.009,-0.001 -0.0179,-0.003 -0.0269,-0.004 -0.009,-0.001 -0.0179,-0.002 -0.0269,-0.003 -0.009,-9.8e-4 -0.0183,-0.002 -0.0274,-0.003 -0.009,-6.3e-4 -0.0183,-0.001 -0.0274,-0.002 -0.009,-4.5e-4 -0.0179,-7.9e-4 -0.0269,-0.001 -0.009,-2.7e-4 -0.0182,-4.2e-4 -0.0273,-5e-4 H 99.483337 l -3.704167,-2.64583 z"
           sodipodi:nodetypes="ccccccccccccccccccccccccccccccscsscccccccccccccccccccccccccccccccccccccccccccscccscccccccc" />
        <path
           id="path3135"
           style="fill:url(#linearGradient3650);fill-opacity:1;stroke:none;stroke-width:0.999999px;stroke-linecap:butt;stroke-linejoin:miter;stroke-opacity:1"
           d="M 12 14 C 11.475685 14.000222 10.95366 14.06917 10.447266 14.205078 C 9.9407118 14.34084 9.4541444 14.542426 9 14.804688 C 8.5460835 15.066775 8.1284662 15.38721 7.7578125 15.757812 C 7.3872106 16.128468 7.0667746 16.546083 6.8046875 17 C 6.5424274 17.454144 6.3408398 17.940713 6.2050781 18.447266 C 6.0691689 18.95366 6.0002222 19.475685 6 20 L 6 24 L 6 30 L 6 32 L 6 114 L 122 114 L 122 26 A 2.0000001 2.0000337 0 0 0 121.98047 25.740234 A 2.0000001 2.0000337 0 0 0 121.92969 25.484375 A 2.0000001 2.0000337 0 0 0 121.8457 25.236328 A 2.0000001 2.0000337 0 0 0 121.73047 25.001953 A 2.0000001 2.0000337 0 0 0 121.58398 24.785156 A 2.0000001 2.0000337 0 0 0 121.41211 24.587891 A 2.0000001 2.0000337 0 0 0 121.21484 24.414062 A 2.0000001 2.0000337 0 0 0 120.99805 24.269531 A 2.0000001 2.0000337 0 0 0 120.76367 24.154297 A 2.0000001 2.0000337 0 0 0 120.51562 24.070312 A 2.0000001 2.0000337 0 0 0 120.25977 24.019531 A 2.0000001 2.0000337 0 0 0 119.99805 24 L 63.400391 24 L 49.199219 14 L 12 14 z "
           transform="matrix(0.26458334,0,0,0.26458334,82.550003,136.13333)" />
        <path
           id="path3430"
           style="fill:#2d8cff;fill-opacity:1;stroke:none;stroke-width:0.999999px;stroke-linecap:butt;stroke-linejoin:miter;stroke-opacity:1"
           d="m 4,64 v 52 H 124 V 60.005859 c -2.3e-4,-0.03402 -7.4e-4,-0.06912 -0.002,-0.103515 -8.7e-4,-0.03402 -0.002,-0.06755 -0.004,-0.101563 -0.002,-0.03402 -0.003,-0.06912 -0.008,-0.103515 -0.003,-0.03402 -0.008,-0.06912 -0.0117,-0.103516 -0.003,-0.03402 -0.006,-0.06755 -0.01,-0.101562 -0.004,-0.03402 -0.008,-0.06755 -0.0156,-0.101563 -0.004,-0.03402 -0.012,-0.06755 -0.0195,-0.101563 -0.008,-0.03402 -0.01,-0.06755 -0.0176,-0.101562 -0.008,-0.03402 -0.0159,-0.06635 -0.0234,-0.09961 -0.008,-0.03402 -0.016,-0.06793 -0.0273,-0.101563 -0.008,-0.03402 -0.0178,-0.06553 -0.0254,-0.09766 -0.008,-0.03402 -0.0199,-0.06635 -0.0312,-0.09961 -0.0113,-0.03402 -0.0219,-0.06553 -0.0332,-0.09766 -0.0113,-0.03024 -0.0238,-0.06395 -0.0352,-0.0957 -0.0113,-0.03402 -0.022,-0.06553 -0.0371,-0.09766 -0.0113,-0.03024 -0.0262,-0.06276 -0.0391,-0.09375 -0.0151,-0.03024 -0.0263,-0.06276 -0.043,-0.09375 -0.0151,-0.03024 -0.0302,-0.06276 -0.0449,-0.09375 -0.0151,-0.03024 -0.0303,-0.06156 -0.0469,-0.0918 -0.0151,-0.03024 -0.0341,-0.05998 -0.0508,-0.08984 -0.0151,-0.03024 -0.0341,-0.05879 -0.0508,-0.08789 -0.0189,-0.03024 -0.0377,-0.05879 -0.0547,-0.08789 -0.0189,-0.03024 -0.0377,-0.05759 -0.0566,-0.08594 -0.0189,-0.03024 -0.0386,-0.05759 -0.0586,-0.08594 -0.0189,-0.02646 -0.0401,-0.05482 -0.0606,-0.08203 -0.0189,-0.02646 -0.0413,-0.05482 -0.0625,-0.08203 -0.0227,-0.02646 -0.0429,-0.05362 -0.0644,-0.08008 -0.0227,-0.02646 -0.0449,-0.05242 -0.0684,-0.07813 -0.0227,-0.02646 -0.0453,-0.05085 -0.0684,-0.07617 -0.0227,-0.02646 -0.0465,-0.05003 -0.0703,-0.07422 -0.0227,-0.02646 -0.0493,-0.05003 -0.0742,-0.07422 -0.0227,-0.02268 -0.0493,-0.04726 -0.0742,-0.07031 -0.0265,-0.02268 -0.0501,-0.04606 -0.0762,-0.06836 -0.0265,-0.02268 -0.0517,-0.04606 -0.0781,-0.06836 -0.0265,-0.02268 -0.0529,-0.04329 -0.0801,-0.06445 -0.0265,-0.02268 -0.0544,-0.04209 -0.082,-0.0625 -0.0265,-0.0189 -0.0544,-0.04089 -0.082,-0.06055 -0.0302,-0.0189 -0.0572,-0.03932 -0.0859,-0.05859 -0.0302,-0.0189 -0.0572,-0.03812 -0.0859,-0.05664 -0.0302,-0.0189 -0.0584,-0.03768 -0.0879,-0.05469 -0.0302,-0.0189 -0.0588,-0.03415 -0.0879,-0.05078 -0.0302,-0.0189 -0.0596,-0.03415 -0.0898,-0.05078 -0.0302,-0.01512 -0.0608,-0.03025 -0.0918,-0.04687 -0.0302,-0.01512 -0.0624,-0.03018 -0.0937,-0.04492 -0.0302,-0.01512 -0.0624,-0.03012 -0.0937,-0.04297 -0.0302,-0.01512 -0.0624,-0.02659 -0.0937,-0.03906 -0.034,-0.01134 -0.0651,-0.02772 -0.0976,-0.03906 -0.0302,-0.01134 -0.064,-0.02186 -0.0957,-0.0332 -0.034,-0.01134 -0.0651,-0.02186 -0.0977,-0.0332 -0.034,-0.01134 -0.066,-0.01991 -0.0996,-0.03125 -0.034,-0.01134 -0.0651,-0.01796 -0.0977,-0.0293 -0.034,-0.0076 -0.0675,-0.01588 -0.10156,-0.02344 -0.034,-0.0076 -0.066,-0.01588 -0.0996,-0.02344 -0.034,-0.0076 -0.0675,-0.0138 -0.10156,-0.01758 -0.034,-0.0076 -0.0675,-0.01197 -0.10156,-0.01953 -0.034,-0.0038 -0.0675,-0.01185 -0.10157,-0.01563 -0.034,-0.0038 -0.0675,-0.006 -0.10156,-0.0098 -0.034,-0.0037 -0.0691,-0.0079 -0.10352,-0.01172 -0.034,-0.0024 -0.0691,-0.004 -0.10351,-0.0078 -0.034,-0.0017 -0.0675,-0.0031 -0.10156,-0.0039 -0.034,-0.001 -0.0691,-0.0017 -0.10352,-0.002 H 64 60.400391 L 49,64 Z M 61.300781,58 119.99999,59.999964 122,114 H 6 V 66 h 44 z"
           transform="matrix(0.26458334,0,0,0.26458334,82.550003,136.13333)"
           sodipodi:nodetypes="ccccccccscsscccccccccccccccccccccccccccccccccccccccccccscccscccccccccccccccc" />
        <path
           id="path3302"
           style="fill:#6fb7ff;fill-opacity:1;stroke:none;stroke-width:0.999999px;stroke-linecap:butt;stroke-linejoin:miter;stroke-opacity:1"
           d="M 61.300781 58 L 50 66 L 6 66 L 6 114 L 122 114 L 122 60.001953 A 2.0000001 2.0000337 0 0 0 121.98047 59.740234 A 2.0000001 2.0000337 0 0 0 121.92969 59.484375 A 2.0000001 2.0000337 0 0 0 121.8457 59.236328 A 2.0000001 2.0000337 0 0 0 121.73047 59.001953 A 2.0000001 2.0000337 0 0 0 121.58398 58.785156 A 2.0000001 2.0000337 0 0 0 121.41211 58.587891 A 2.0000001 2.0000337 0 0 0 121.21484 58.414062 A 2.0000001 2.0000337 0 0 0 120.99805 58.269531 A 2.0000001 2.0000337 0 0 0 120.76367 58.154297 A 2.0000001 2.0000337 0 0 0 120.51562 58.070312 A 2.0000001 2.0000337 0 0 0 120.25977 58.019531 A 2.0000001 2.0000337 0 0 0 119.99805 58 L 61.300781 58 z "
           transform="matrix(0.26458334,0,0,0.26458334,82.550003,136.13333)" />
      </g>
    </g>
  </g>
</svg>
