<?xml version="1.0" encoding="UTF-8" standalone="no"?>
<!-- Created with Inkscape (http://www.inkscape.org/) -->

<svg
   width="128"
   height="128"
   viewBox="0 0 33.866667 33.866667"
   version="1.1"
   id="svg2634"
   inkscape:version="1.1.2 (0a00cf5339, 2022-02-04, custom)"
   sodipodi:docname="folder.svg"
   xmlns:inkscape="http://www.inkscape.org/namespaces/inkscape"
   xmlns:sodipodi="http://sodipodi.sourceforge.net/DTD/sodipodi-0.dtd"
   xmlns="http://www.w3.org/2000/svg"
   xmlns:svg="http://www.w3.org/2000/svg"
   xmlns:rdf="http://www.w3.org/1999/02/22-rdf-syntax-ns#"
   xmlns:cc="http://creativecommons.org/ns#"
   xmlns:dc="http://purl.org/dc/elements/1.1/">
  <title
     id="title3250">Boston Icons</title>
  <defs
     id="defs2628" />
  <sodipodi:namedview
     id="base"
     pagecolor="#ffffff"
     bordercolor="#00ffed"
     borderopacity="1"
     inkscape:pageopacity="1"
     inkscape:pageshadow="2"
     inkscape:zoom="3.959798"
     inkscape:cx="22.728432"
     inkscape:cy="37.249375"
     inkscape:document-units="px"
     inkscape:current-layer="g852"
     showgrid="false"
     showguides="false"
     inkscape:guide-bbox="true"
     fit-margin-top="0"
     fit-margin-left="0"
     fit-margin-right="0"
     fit-margin-bottom="0"
     inkscape:window-width="1920"
     inkscape:window-height="1011"
     inkscape:window-x="0"
     inkscape:window-y="0"
     inkscape:window-maximized="1"
     units="px"
     inkscape:pagecheckerboard="0">
    <inkscape:grid
       type="xygrid"
       id="grid3182"
       spacingx="0.52916667"
       spacingy="0.52916667"
       empspacing="4"
       originx="-82.550004"
       originy="-127.00001"
       dotted="false" />
    <sodipodi:guide
       position="-4.268358e-06,27.516666"
       orientation="1,0"
       id="guide3216"
       inkscape:locked="false" />
    <sodipodi:guide
       position="3.7041618,33.866666"
       orientation="0,1"
       id="guide3218"
       inkscape:locked="false" />
    <sodipodi:guide
       position="33.866657,24.870836"
       orientation="1,0"
       id="guide3220"
       inkscape:locked="false" />
    <sodipodi:guide
       position="32.279157,-4.1479283e-06"
       orientation="0,1"
       id="guide3222"
       inkscape:locked="false" />
    <sodipodi:guide
       position="15.345829,32.808336"
       orientation="0,1"
       id="guide3224"
       inkscape:locked="false" />
    <sodipodi:guide
       position="-4.7625023,1.0583259"
       orientation="0,1"
       id="guide3226"
       inkscape:locked="false" />
    <sodipodi:guide
       position="1.0583287,17.462496"
       orientation="1,0"
       id="guide3228"
       inkscape:locked="false" />
    <sodipodi:guide
       position="32.808327,20.108336"
       orientation="1,0"
       id="guide3230"
       inkscape:locked="false" />
    <sodipodi:guide
       position="15.874995,31.750006"
       orientation="0,1"
       id="guide3232"
       inkscape:locked="false" />
    <sodipodi:guide
       position="2.1166617,24.870836"
       orientation="1,0"
       id="guide3234"
       inkscape:locked="false" />
    <sodipodi:guide
       position="3.1749958,25.400006"
       orientation="1,0"
       id="guide3236"
       inkscape:locked="false" />
    <sodipodi:guide
       position="5.2916633,15.345824"
       orientation="1,0"
       id="guide3238"
       inkscape:locked="false" />
    <sodipodi:guide
       position="28.574997,25.400006"
       orientation="1,0"
       id="guide3240"
       inkscape:locked="false" />
    <sodipodi:guide
       position="30.691657,24.341666"
       orientation="1,0"
       id="guide3242"
       inkscape:locked="false" />
    <sodipodi:guide
       position="31.749997,21.695836"
       orientation="1,0"
       id="guide3244"
       inkscape:locked="false" />
    <sodipodi:guide
       position="21.695827,2.1166659"
       orientation="0,1"
       id="guide3246"
       inkscape:locked="false" />
    <sodipodi:guide
       position="16.404162,3.1749959"
       orientation="0,1"
       id="guide3248"
       inkscape:locked="false" />
    <sodipodi:guide
       position="15.874997,27.516658"
       orientation="0.70710678,0.70710678"
       id="guide850"
       inkscape:locked="false" />
    <sodipodi:guide
       position="1.5874965,30.691676"
       orientation="0,1"
       id="guide843"
       inkscape:locked="false" />
    <sodipodi:guide
       position="30.162497,26.458325"
       orientation="0,1"
       id="guide845"
       inkscape:locked="false" />
  </sodipodi:namedview>
  <metadata
     id="metadata2631">
    <rdf:RDF>
      <cc:Work
         rdf:about="">
        <dc:format>image/svg+xml</dc:format>
        <dc:type
           rdf:resource="http://purl.org/dc/dcmitype/StillImage" />
        <dc:title>Boston Icons</dc:title>
        <cc:license
           rdf:resource="dribbble.com/chrisdiaz" />
        <dc:creator>
          <cc:Agent>
            <dc:title>Christian Díaz</dc:title>
          </cc:Agent>
        </dc:creator>
        <dc:date>2022</dc:date>
        <dc:publisher>
          <cc:Agent>
            <dc:title>Christian Díaz</dc:title>
          </cc:Agent>
        </dc:publisher>
        <dc:identifier>christiandiaz.design [at] gmail [dot] com</dc:identifier>
        <dc:subject>
          <rdf:Bag>
            <rdf:li>GNOME icon Theme</rdf:li>
          </rdf:Bag>
        </dc:subject>
        <dc:description>dribbble.com/chrisdiaz | diazchris.deviantart.com</dc:description>
      </cc:Work>
    </rdf:RDF>
  </metadata>
  <g
     inkscape:label="Capa 1"
     inkscape:groupmode="layer"
     id="layer1"
     transform="translate(-82.550003,-136.13333)">
    <g
       id="g852">
      <g
         id="g853">
        <path
           id="path957"
           style="fill:#2d8cff;fill-opacity:1;stroke:none;stroke-width:0.999999px;stroke-linecap:butt;stroke-linejoin:miter;stroke-opacity:1"
           d="m 12,12 c -0.199417,-2.9e-4 -0.398775,0.0069 -0.597656,0.02148 -0.198699,0.01538 -0.396754,0.03819 -0.59375,0.06836 -0.197283,0.02977 -0.393384,0.0669 -0.587891,0.111328 -0.194565,0.0442 -0.3874081,0.09567 -0.5781249,0.154297 -0.1905435,0.0587 -0.378826,0.124499 -0.5644531,0.197265 -0.185878,0.0732 -0.3689491,0.153332 -0.5488281,0.240235 C 8.3494428,12.879434 8.172887,12.972598 8,13.072266 c -0.1725266,0.09978 -0.3412641,0.205975 -0.5058594,0.318359 -0.1651901,0.112423 -0.3261103,0.230996 -0.4824218,0.355469 -0.1558247,0.123875 -0.3069716,0.253522 -0.453125,0.388672 -0.1465207,0.135932 -0.287896,0.277307 -0.4238282,0.423828 -0.1351497,0.146153 -0.2647972,0.2973 -0.3886718,0.453125 C 5.621621,15.168031 5.5030483,15.328951 5.390625,15.494141 5.278241,15.658736 5.1720471,15.827474 5.0722656,16 c -0.099668,0.172887 -0.1928321,0.349443 -0.2792968,0.529297 -0.086902,0.179879 -0.1670369,0.36295 -0.2402344,0.548828 -0.072766,0.185627 -0.1385672,0.37391 -0.1972656,0.564453 -0.058624,0.190717 -0.1100919,0.38356 -0.1542969,0.578125 -0.044427,0.194507 -0.081563,0.390608 -0.1113281,0.587891 -0.030174,0.196996 -0.052977,0.395051 -0.068359,0.59375 C 4.0068765,19.601225 3.99971,19.800583 4,20 v 96 H 5.96875 124 V 26 c -2e-4,-0.03451 -8e-4,-0.06902 -0.002,-0.103516 -8.7e-4,-0.03387 -0.002,-0.06773 -0.004,-0.101562 -0.002,-0.03453 -0.003,-0.06904 -0.006,-0.103516 -0.003,-0.03455 -0.006,-0.06905 -0.01,-0.103515 -0.003,-0.0339 -0.007,-0.06776 -0.0117,-0.101563 -0.004,-0.03391 -0.009,-0.06777 -0.0137,-0.101562 -0.005,-0.03393 -0.0113,-0.06779 -0.0176,-0.101563 -0.006,-0.03394 -0.0126,-0.06779 -0.0195,-0.101562 -0.007,-0.0333 -0.0152,-0.06651 -0.0234,-0.09961 -0.008,-0.03396 -0.0165,-0.06782 -0.0254,-0.101562 -0.009,-0.03267 -0.0178,-0.06521 -0.0273,-0.09766 -0.009,-0.03333 -0.0191,-0.06653 -0.0293,-0.09961 -0.0107,-0.03269 -0.0217,-0.06525 -0.0332,-0.09766 -0.0113,-0.03205 -0.0229,-0.06395 -0.0352,-0.0957 -0.0119,-0.03271 -0.0243,-0.06527 -0.0371,-0.09766 -0.0126,-0.03141 -0.0256,-0.06267 -0.0391,-0.09375 -0.0139,-0.03143 -0.0282,-0.06269 -0.043,-0.09375 -0.0146,-0.03144 -0.0296,-0.0627 -0.0449,-0.09375 -0.0152,-0.0308 -0.0309,-0.0614 -0.0469,-0.0918 -0.0165,-0.03017 -0.0335,-0.06012 -0.0508,-0.08984 -0.0165,-0.02951 -0.0335,-0.05881 -0.0508,-0.08789 -0.0178,-0.02953 -0.0361,-0.05883 -0.0547,-0.08789 -0.0185,-0.02889 -0.0374,-0.05754 -0.0566,-0.08594 -0.0192,-0.0289 -0.0387,-0.05755 -0.0586,-0.08594 -0.0198,-0.0276 -0.04,-0.05495 -0.0606,-0.08203 -0.0205,-0.02761 -0.0413,-0.05496 -0.0625,-0.08203 -0.0211,-0.02697 -0.0426,-0.05366 -0.0644,-0.08008 -0.0225,-0.02634 -0.0452,-0.05238 -0.0684,-0.07813 -0.0225,-0.02568 -0.0453,-0.05107 -0.0684,-0.07617 -0.0231,-0.02504 -0.0466,-0.04978 -0.0703,-0.07422 -0.0244,-0.02506 -0.0491,-0.0498 -0.0742,-0.07422 -0.0244,-0.02375 -0.0492,-0.04719 -0.0742,-0.07031 -0.0251,-0.02311 -0.0504,-0.0459 -0.0762,-0.06836 -0.0257,-0.02312 -0.0518,-0.04591 -0.0781,-0.06836 -0.0264,-0.02183 -0.0531,-0.04331 -0.0801,-0.06445 -0.0271,-0.02118 -0.0544,-0.04202 -0.082,-0.0625 -0.0271,-0.02053 -0.0544,-0.04071 -0.082,-0.06055 -0.0284,-0.0199 -0.057,-0.03944 -0.0859,-0.05859 -0.0284,-0.01925 -0.0571,-0.03813 -0.0859,-0.05664 -0.0291,-0.01861 -0.0584,-0.03683 -0.0879,-0.05469 -0.0291,-0.0173 -0.0584,-0.03423 -0.0879,-0.05078 -0.0297,-0.01731 -0.0597,-0.03424 -0.0898,-0.05078 -0.0304,-0.01602 -0.061,-0.03166 -0.0918,-0.04687 -0.0311,-0.01538 -0.0624,-0.03036 -0.0937,-0.04492 -0.0311,-0.01472 -0.0624,-0.02905 -0.0937,-0.04297 -0.0311,-0.01342 -0.0624,-0.02644 -0.0937,-0.03906 -0.0324,-0.0128 -0.0649,-0.02517 -0.0977,-0.03711 -0.0318,-0.01213 -0.0637,-0.02384 -0.0957,-0.03516 -0.0324,-0.01149 -0.065,-0.02256 -0.0976,-0.0332 -0.0331,-0.0102 -0.0663,-0.01996 -0.0996,-0.0293 -0.0324,-0.01018 -0.065,-0.01995 -0.0977,-0.0293 -0.0337,-0.0083 -0.0676,-0.01607 -0.10156,-0.02344 -0.0331,-0.0082 -0.0663,-0.01605 -0.0996,-0.02344 -0.0338,-0.0069 -0.0676,-0.01346 -0.10156,-0.01953 -0.0338,-0.0063 -0.0676,-0.01215 -0.10157,-0.01758 -0.0338,-0.005 -0.0677,-0.0095 -0.10156,-0.01367 -0.0338,-0.0043 -0.0677,-0.0082 -0.10156,-0.01172 -0.0345,-0.0037 -0.069,-0.007 -0.10352,-0.0098 -0.0345,-0.0024 -0.069,-0.0044 -0.10351,-0.0059 -0.0338,-0.0017 -0.0677,-0.003 -0.10156,-0.0039 C 120.06902,22.000853 120.03452,22.0003 120,22 H 64 L 50,12 Z"
           transform="matrix(0.26458334,0,0,0.26458334,82.550003,136.13333)"
           sodipodi:nodetypes="ccccccccccccccccccccccccccccsccccccccccccccscccscccsccccscccccccccccsccccccccccccccccccccc" />
        <path
           sodipodi:nodetypes="cccccccccccccc"
           inkscape:connector-curvature="0"
           id="path959"
           d="m 98.530836,143.54165 -3.016249,2.11668 -10.847921,-1e-5 v 20.6375 H 114.3 v -22.225 z m 0.238125,0.52917 h 16.060209 v 22.225 H 84.137503 V 146.1875 H 95.77917 Z"
           style="fill:#2d8cff;fill-opacity:1;stroke:none;stroke-width:0.264583px;stroke-linecap:butt;stroke-linejoin:miter;stroke-opacity:1" />
        <path
           id="path845"
           style="fill:#6fb7ff;fill-opacity:1;stroke:none;stroke-width:0.999999px;stroke-linecap:butt;stroke-linejoin:miter;stroke-opacity:1"
           d="M 61.300781 24 L 50 32 L 6 32 L 6 114 L 122 114 L 122 26.058594 A 2.0000001 2.0000337 0 0 0 122 26.039062 A 2.0000001 2.0000337 0 0 0 122 26 A 2.0000001 2.0000337 0 0 0 121.98242 25.738281 A 2.0000001 2.0000337 0 0 0 121.93164 25.482422 A 2.0000001 2.0000337 0 0 0 121.84766 25.234375 A 2.0000001 2.0000337 0 0 0 121.73242 25 A 2.0000001 2.0000337 0 0 0 121.58594 24.783203 A 2.0000001 2.0000337 0 0 0 121.41406 24.585938 A 2.0000001 2.0000337 0 0 0 121.2168 24.414062 A 2.0000001 2.0000337 0 0 0 121 24.267578 A 2.0000001 2.0000337 0 0 0 120.76562 24.152344 A 2.0000001 2.0000337 0 0 0 120.51758 24.068359 A 2.0000001 2.0000337 0 0 0 120.26172 24.017578 A 2.0000001 2.0000337 0 0 0 120 24 L 61.300781 24 z "
           transform="matrix(0.26458334,0,0,0.26458334,82.550003,136.13333)" />
        <path
           id="path843"
           style="fill:#6fb7ff;fill-opacity:1;stroke:none;stroke-width:0.999999px;stroke-linecap:butt;stroke-linejoin:miter;stroke-opacity:1"
           d="M 12 14 A 6.0000004 6.0000004 0 0 0 10.447266 14.205078 A 6.0000004 6.0000004 0 0 0 9 14.804688 A 6.0000004 6.0000004 0 0 0 7.7578125 15.757812 A 6.0000004 6.0000004 0 0 0 6.8046875 17 A 6.0000004 6.0000004 0 0 0 6.2050781 18.447266 A 6.0000004 6.0000004 0 0 0 6 20 L 6 30 L 49 30 L 60.5 22 L 49 14 L 12 14 z "
           transform="matrix(0.26458334,0,0,0.26458334,82.550003,136.13333)" />
      </g>
    </g>
  </g>
</svg>
