<?xml version="1.0" encoding="UTF-8" standalone="no"?>
<!-- Created with Inkscape (http://www.inkscape.org/) -->

<svg
   xmlns:dc="http://purl.org/dc/elements/1.1/"
   xmlns:cc="http://creativecommons.org/ns#"
   xmlns:rdf="http://www.w3.org/1999/02/22-rdf-syntax-ns#"
   xmlns:svg="http://www.w3.org/2000/svg"
   xmlns="http://www.w3.org/2000/svg"
   xmlns:sodipodi="http://sodipodi.sourceforge.net/DTD/sodipodi-0.dtd"
   xmlns:inkscape="http://www.inkscape.org/namespaces/inkscape"
   width="128"
   height="128"
   viewBox="0 0 33.866667 33.866667"
   version="1.1"
   id="svg2634"
   inkscape:version="0.92.4 5da689c313, 2019-01-14"
   sodipodi:docname="network-server.svg">
  <title
     id="title3250">Boston Icons</title>
  <defs
     id="defs2628" />
  <sodipodi:namedview
     id="base"
     pagecolor="#ffffff"
     bordercolor="#00ffed"
     borderopacity="1"
     inkscape:pageopacity="1"
     inkscape:pageshadow="2"
     inkscape:zoom="2.8"
     inkscape:cx="61.023958"
     inkscape:cy="71.136877"
     inkscape:document-units="px"
     inkscape:current-layer="layer1"
     showgrid="false"
     showguides="false"
     inkscape:guide-bbox="true"
     fit-margin-top="0"
     fit-margin-left="0"
     fit-margin-right="0"
     fit-margin-bottom="0"
     inkscape:window-width="1920"
     inkscape:window-height="1016"
     inkscape:window-x="0"
     inkscape:window-y="27"
     inkscape:window-maximized="1"
     units="px">
    <inkscape:grid
       type="xygrid"
       id="grid3182"
       spacingx="0.52916667"
       spacingy="0.52916667"
       empspacing="4"
       originx="-82.550004"
       originy="-127.00001"
       dotted="false" />
    <sodipodi:guide
       position="-4.268358e-06,27.516666"
       orientation="1,0"
       id="guide3216"
       inkscape:locked="false" />
    <sodipodi:guide
       position="3.7041618,33.866666"
       orientation="0,1"
       id="guide3218"
       inkscape:locked="false" />
    <sodipodi:guide
       position="33.866657,24.870836"
       orientation="1,0"
       id="guide3220"
       inkscape:locked="false" />
    <sodipodi:guide
       position="32.279157,-4.1479283e-06"
       orientation="0,1"
       id="guide3222"
       inkscape:locked="false" />
    <sodipodi:guide
       position="15.345829,32.808336"
       orientation="0,1"
       id="guide3224"
       inkscape:locked="false" />
    <sodipodi:guide
       position="-4.7625023,1.0583259"
       orientation="0,1"
       id="guide3226"
       inkscape:locked="false" />
    <sodipodi:guide
       position="1.0583287,17.462496"
       orientation="1,0"
       id="guide3228"
       inkscape:locked="false" />
    <sodipodi:guide
       position="32.808327,20.108336"
       orientation="1,0"
       id="guide3230"
       inkscape:locked="false" />
    <sodipodi:guide
       position="8.4666632,5.8208242"
       orientation="1,0"
       id="guide851"
       inkscape:locked="false" />
    <sodipodi:guide
       position="25.399997,6.8791575"
       orientation="1,0"
       id="guide855"
       inkscape:locked="false" />
    <sodipodi:guide
       position="-1.0583368,16.933324"
       orientation="0,1"
       id="guide852"
       inkscape:locked="false" />
  </sodipodi:namedview>
  <metadata
     id="metadata2631">
    <rdf:RDF>
      <cc:Work
         rdf:about="">
        <dc:format>image/svg+xml</dc:format>
        <dc:type
           rdf:resource="http://purl.org/dc/dcmitype/StillImage" />
        <dc:title>Boston Icons</dc:title>
        <cc:license
           rdf:resource="dribbble.com/chrisdiaz" />
        <dc:creator>
          <cc:Agent>
            <dc:title>Christian Díaz</dc:title>
          </cc:Agent>
        </dc:creator>
        <dc:date>2019</dc:date>
        <dc:publisher>
          <cc:Agent>
            <dc:title>Christian Díaz</dc:title>
          </cc:Agent>
        </dc:publisher>
        <dc:identifier>christiandiaz.design [at] gmail [dot] com</dc:identifier>
        <dc:subject>
          <rdf:Bag>
            <rdf:li>GNOME icon Theme</rdf:li>
          </rdf:Bag>
        </dc:subject>
        <dc:description>diazchris.deviantart.com | dribbble.com/chrisdiaz</dc:description>
      </cc:Work>
    </rdf:RDF>
  </metadata>
  <g
     inkscape:label="Capa 1"
     inkscape:groupmode="layer"
     id="layer1"
     transform="translate(-82.550003,-136.13333)">
    <g
       id="g991">
      <rect
         y="137.19167"
         x="91.016663"
         height="31.750006"
         width="16.933336"
         id="rect848"
         style="opacity:1;fill:#252627;fill-opacity:1;fill-rule:evenodd;stroke:none;stroke-width:0.5291667;stroke-linecap:round;stroke-linejoin:bevel;stroke-miterlimit:4;stroke-dasharray:none;stroke-opacity:1" />
      <rect
         y="137.72084"
         x="91.54583"
         height="29.104166"
         width="15.875003"
         id="rect873"
         style="opacity:1;fill:#373b43;fill-opacity:1;fill-rule:evenodd;stroke:none;stroke-width:0.5291667;stroke-linecap:round;stroke-linejoin:bevel;stroke-miterlimit:4;stroke-dasharray:none;stroke-opacity:1" />
      <rect
         y="138.77917"
         x="92.604164"
         height="4.2333312"
         width="13.758335"
         id="rect879"
         style="opacity:1;fill:#252627;fill-opacity:1;fill-rule:evenodd;stroke:none;stroke-width:0.5291667;stroke-linecap:round;stroke-linejoin:bevel;stroke-miterlimit:4;stroke-dasharray:none;stroke-opacity:1" />
      <path
         inkscape:connector-curvature="0"
         id="path1251-1"
         transform="matrix(0.26458334,0,0,0.26458334,82.550003,136.13333)"
         d="m 39,90 a 1.0000001,1.0000001 0 0 0 -1,1 1.0000001,1.0000001 0 0 0 1,1 1.0000001,1.0000001 0 0 0 1,-1 1.0000001,1.0000001 0 0 0 -1,-1 z m 4,0 a 1.0000001,1.0000001 0 0 0 -1,1 1.0000001,1.0000001 0 0 0 1,1 1.0000001,1.0000001 0 0 0 1,-1 1.0000001,1.0000001 0 0 0 -1,-1 z m 4,0 a 1.0000001,1.0000001 0 0 0 -1,1 1.0000001,1.0000001 0 0 0 1,1 1.0000001,1.0000001 0 0 0 1,-1 1.0000001,1.0000001 0 0 0 -1,-1 z m 4,0 a 1.0000001,1.0000001 0 0 0 -1,1 1.0000001,1.0000001 0 0 0 1,1 1.0000001,1.0000001 0 0 0 1,-1 1.0000001,1.0000001 0 0 0 -1,-1 z m 4,0 a 1.0000001,1.0000001 0 0 0 -1,1 1.0000001,1.0000001 0 0 0 1,1 1.0000001,1.0000001 0 0 0 1,-1 1.0000001,1.0000001 0 0 0 -1,-1 z m 4,0 a 1.0000001,1.0000001 0 0 0 -1,1 1.0000001,1.0000001 0 0 0 1,1 1.0000001,1.0000001 0 0 0 1,-1 1.0000001,1.0000001 0 0 0 -1,-1 z m 4,0 a 1.0000001,1.0000001 0 0 0 -1,1 1.0000001,1.0000001 0 0 0 1,1 1.0000001,1.0000001 0 0 0 1,-1 1.0000001,1.0000001 0 0 0 -1,-1 z m 4,0 a 1.0000001,1.0000001 0 0 0 -1,1 1.0000001,1.0000001 0 0 0 1,1 1.0000001,1.0000001 0 0 0 1,-1 1.0000001,1.0000001 0 0 0 -1,-1 z m 4,0 a 1.0000001,1.0000001 0 0 0 -1,1 1.0000001,1.0000001 0 0 0 1,1 1.0000001,1.0000001 0 0 0 1,-1 1.0000001,1.0000001 0 0 0 -1,-1 z m 4,0 a 1.0000001,1.0000001 0 0 0 -1,1 1.0000001,1.0000001 0 0 0 1,1 1.0000001,1.0000001 0 0 0 1,-1 1.0000001,1.0000001 0 0 0 -1,-1 z m 4,0 a 1.0000001,1.0000001 0 0 0 -1,1 1.0000001,1.0000001 0 0 0 1,1 1.0000001,1.0000001 0 0 0 1,-1 1.0000001,1.0000001 0 0 0 -1,-1 z m 4,0 a 1.0000001,1.0000001 0 0 0 -1,1 1.0000001,1.0000001 0 0 0 1,1 1.0000001,1.0000001 0 0 0 1,-1 1.0000001,1.0000001 0 0 0 -1,-1 z m 4,0 a 1.0000001,1.0000001 0 0 0 -1,1 1.0000001,1.0000001 0 0 0 1,1 1.0000001,1.0000001 0 0 0 1,-1 1.0000001,1.0000001 0 0 0 -1,-1 z m -46,2 a 1.0000001,1.0000001 0 0 0 -1,1 1.0000001,1.0000001 0 0 0 1,1 1.0000001,1.0000001 0 0 0 1,-1 1.0000001,1.0000001 0 0 0 -1,-1 z m 4,0 a 1.0000001,1.0000001 0 0 0 -1,1 1.0000001,1.0000001 0 0 0 1,1 1.0000001,1.0000001 0 0 0 1,-1 1.0000001,1.0000001 0 0 0 -1,-1 z m 4,0 a 1.0000001,1.0000001 0 0 0 -1,1 1.0000001,1.0000001 0 0 0 1,1 1.0000001,1.0000001 0 0 0 1,-1 1.0000001,1.0000001 0 0 0 -1,-1 z m 4,0 a 1.0000001,1.0000001 0 0 0 -1,1 1.0000001,1.0000001 0 0 0 1,1 1.0000001,1.0000001 0 0 0 1,-1 1.0000001,1.0000001 0 0 0 -1,-1 z m 4,0 a 1.0000001,1.0000001 0 0 0 -1,1 1.0000001,1.0000001 0 0 0 1,1 1.0000001,1.0000001 0 0 0 1,-1 1.0000001,1.0000001 0 0 0 -1,-1 z m 4,0 a 1.0000001,1.0000001 0 0 0 -1,1 1.0000001,1.0000001 0 0 0 1,1 1.0000001,1.0000001 0 0 0 1,-1 1.0000001,1.0000001 0 0 0 -1,-1 z m 4,0 a 1.0000001,1.0000001 0 0 0 -1,1 1.0000001,1.0000001 0 0 0 1,1 1.0000001,1.0000001 0 0 0 1,-1 1.0000001,1.0000001 0 0 0 -1,-1 z m 4,0 a 1.0000001,1.0000001 0 0 0 -1,1 1.0000001,1.0000001 0 0 0 1,1 1.0000001,1.0000001 0 0 0 1,-1 1.0000001,1.0000001 0 0 0 -1,-1 z m 4,0 a 1.0000001,1.0000001 0 0 0 -1,1 1.0000001,1.0000001 0 0 0 1,1 1.0000001,1.0000001 0 0 0 1,-1 1.0000001,1.0000001 0 0 0 -1,-1 z m 4,0 a 1.0000001,1.0000001 0 0 0 -1,1 1.0000001,1.0000001 0 0 0 1,1 1.0000001,1.0000001 0 0 0 1,-1 1.0000001,1.0000001 0 0 0 -1,-1 z m 4,0 a 1.0000001,1.0000001 0 0 0 -1,1 1.0000001,1.0000001 0 0 0 1,1 1.0000001,1.0000001 0 0 0 1,-1 1.0000001,1.0000001 0 0 0 -1,-1 z m 4,0 a 1.0000001,1.0000001 0 0 0 -1,1 1.0000001,1.0000001 0 0 0 1,1 1.0000001,1.0000001 0 0 0 1,-1 1.0000001,1.0000001 0 0 0 -1,-1 z m 4,0 a 1.0000001,1.0000001 0 0 0 -1,1 1.0000001,1.0000001 0 0 0 1,1 1.0000001,1.0000001 0 0 0 1,-1 1.0000001,1.0000001 0 0 0 -1,-1 z m -50,2 a 1.0000001,1.0000001 0 0 0 -1,1 1.0000001,1.0000001 0 0 0 1,1 1.0000001,1.0000001 0 0 0 1,-1 1.0000001,1.0000001 0 0 0 -1,-1 z m 4,0 a 1.0000001,1.0000001 0 0 0 -1,1 1.0000001,1.0000001 0 0 0 1,1 1.0000001,1.0000001 0 0 0 1,-1 1.0000001,1.0000001 0 0 0 -1,-1 z m 4,0 a 1.0000001,1.0000001 0 0 0 -1,1 1.0000001,1.0000001 0 0 0 1,1 1.0000001,1.0000001 0 0 0 1,-1 1.0000001,1.0000001 0 0 0 -1,-1 z m 4,0 a 1.0000001,1.0000001 0 0 0 -1,1 1.0000001,1.0000001 0 0 0 1,1 1.0000001,1.0000001 0 0 0 1,-1 1.0000001,1.0000001 0 0 0 -1,-1 z m 4,0 a 1.0000001,1.0000001 0 0 0 -1,1 1.0000001,1.0000001 0 0 0 1,1 1.0000001,1.0000001 0 0 0 1,-1 1.0000001,1.0000001 0 0 0 -1,-1 z m 4,0 a 1.0000001,1.0000001 0 0 0 -1,1 1.0000001,1.0000001 0 0 0 1,1 1.0000001,1.0000001 0 0 0 1,-1 1.0000001,1.0000001 0 0 0 -1,-1 z m 4,0 a 1.0000001,1.0000001 0 0 0 -1,1 1.0000001,1.0000001 0 0 0 1,1 1.0000001,1.0000001 0 0 0 1,-1 1.0000001,1.0000001 0 0 0 -1,-1 z m 4,0 a 1.0000001,1.0000001 0 0 0 -1,1 1.0000001,1.0000001 0 0 0 1,1 1.0000001,1.0000001 0 0 0 1,-1 1.0000001,1.0000001 0 0 0 -1,-1 z m 4,0 a 1.0000001,1.0000001 0 0 0 -1,1 1.0000001,1.0000001 0 0 0 1,1 1.0000001,1.0000001 0 0 0 1,-1 1.0000001,1.0000001 0 0 0 -1,-1 z m 4,0 a 1.0000001,1.0000001 0 0 0 -1,1 1.0000001,1.0000001 0 0 0 1,1 1.0000001,1.0000001 0 0 0 1,-1 1.0000001,1.0000001 0 0 0 -1,-1 z m 4,0 a 1.0000001,1.0000001 0 0 0 -1,1 1.0000001,1.0000001 0 0 0 1,1 1.0000001,1.0000001 0 0 0 1,-1 1.0000001,1.0000001 0 0 0 -1,-1 z m 4,0 a 1.0000001,1.0000001 0 0 0 -1,1 1.0000001,1.0000001 0 0 0 1,1 1.0000001,1.0000001 0 0 0 1,-1 1.0000001,1.0000001 0 0 0 -1,-1 z m 4,0 a 1.0000001,1.0000001 0 0 0 -1,1 1.0000001,1.0000001 0 0 0 1,1 1.0000001,1.0000001 0 0 0 1,-1 1.0000001,1.0000001 0 0 0 -1,-1 z m -46,2 a 1.0000001,1.0000001 0 0 0 -1,1 1.0000001,1.0000001 0 0 0 1,1 1.0000001,1.0000001 0 0 0 1,-1 1.0000001,1.0000001 0 0 0 -1,-1 z m 4,0 a 1.0000001,1.0000001 0 0 0 -1,1 1.0000001,1.0000001 0 0 0 1,1 1.0000001,1.0000001 0 0 0 1,-1 1.0000001,1.0000001 0 0 0 -1,-1 z m 4,0 a 1.0000001,1.0000001 0 0 0 -1,1 1.0000001,1.0000001 0 0 0 1,1 1.0000001,1.0000001 0 0 0 1,-1 1.0000001,1.0000001 0 0 0 -1,-1 z m 4,0 a 1.0000001,1.0000001 0 0 0 -1,1 1.0000001,1.0000001 0 0 0 1,1 1.0000001,1.0000001 0 0 0 1,-1 1.0000001,1.0000001 0 0 0 -1,-1 z m 4,0 a 1.0000001,1.0000001 0 0 0 -1,1 1.0000001,1.0000001 0 0 0 1,1 1.0000001,1.0000001 0 0 0 1,-1 1.0000001,1.0000001 0 0 0 -1,-1 z m 4,0 a 1.0000001,1.0000001 0 0 0 -1,1 1.0000001,1.0000001 0 0 0 1,1 1.0000001,1.0000001 0 0 0 1,-1 1.0000001,1.0000001 0 0 0 -1,-1 z m 4,0 a 1.0000001,1.0000001 0 0 0 -1,1 1.0000001,1.0000001 0 0 0 1,1 1.0000001,1.0000001 0 0 0 1,-1 1.0000001,1.0000001 0 0 0 -1,-1 z m 4,0 a 1.0000001,1.0000001 0 0 0 -1,1 1.0000001,1.0000001 0 0 0 1,1 1.0000001,1.0000001 0 0 0 1,-1 1.0000001,1.0000001 0 0 0 -1,-1 z m 4,0 a 1.0000001,1.0000001 0 0 0 -1,1 1.0000001,1.0000001 0 0 0 1,1 1.0000001,1.0000001 0 0 0 1,-1 1.0000001,1.0000001 0 0 0 -1,-1 z m 4,0 a 1.0000001,1.0000001 0 0 0 -1,1 1.0000001,1.0000001 0 0 0 1,1 1.0000001,1.0000001 0 0 0 1,-1 1.0000001,1.0000001 0 0 0 -1,-1 z m 4,0 a 1.0000001,1.0000001 0 0 0 -1,1 1.0000001,1.0000001 0 0 0 1,1 1.0000001,1.0000001 0 0 0 1,-1 1.0000001,1.0000001 0 0 0 -1,-1 z m 4,0 a 1.0000001,1.0000001 0 0 0 -1,1 1.0000001,1.0000001 0 0 0 1,1 1.0000001,1.0000001 0 0 0 1,-1 1.0000001,1.0000001 0 0 0 -1,-1 z m 4,0 a 1.0000001,1.0000001 0 0 0 -1,1 1.0000001,1.0000001 0 0 0 1,1 1.0000001,1.0000001 0 0 0 1,-1 1.0000001,1.0000001 0 0 0 -1,-1 z m -50,2 a 1.0000001,1.0000001 0 0 0 -1,1 1.0000001,1.0000001 0 0 0 1,1 1.0000001,1.0000001 0 0 0 1,-1 1.0000001,1.0000001 0 0 0 -1,-1 z m 4,0 a 1.0000001,1.0000001 0 0 0 -1,1 1.0000001,1.0000001 0 0 0 1,1 1.0000001,1.0000001 0 0 0 1,-1 1.0000001,1.0000001 0 0 0 -1,-1 z m 4,0 a 1.0000001,1.0000001 0 0 0 -1,1 1.0000001,1.0000001 0 0 0 1,1 1.0000001,1.0000001 0 0 0 1,-1 1.0000001,1.0000001 0 0 0 -1,-1 z m 4,0 a 1.0000001,1.0000001 0 0 0 -1,1 1.0000001,1.0000001 0 0 0 1,1 1.0000001,1.0000001 0 0 0 1,-1 1.0000001,1.0000001 0 0 0 -1,-1 z m 4,0 a 1.0000001,1.0000001 0 0 0 -1,1 1.0000001,1.0000001 0 0 0 1,1 1.0000001,1.0000001 0 0 0 1,-1 1.0000001,1.0000001 0 0 0 -1,-1 z m 4,0 a 1.0000001,1.0000001 0 0 0 -1,1 1.0000001,1.0000001 0 0 0 1,1 1.0000001,1.0000001 0 0 0 1,-1 1.0000001,1.0000001 0 0 0 -1,-1 z m 4,0 a 1.0000001,1.0000001 0 0 0 -1,1 1.0000001,1.0000001 0 0 0 1,1 1.0000001,1.0000001 0 0 0 1,-1 1.0000001,1.0000001 0 0 0 -1,-1 z m 4,0 a 1.0000001,1.0000001 0 0 0 -1,1 1.0000001,1.0000001 0 0 0 1,1 1.0000001,1.0000001 0 0 0 1,-1 1.0000001,1.0000001 0 0 0 -1,-1 z m 4,0 a 1.0000001,1.0000001 0 0 0 -1,1 1.0000001,1.0000001 0 0 0 1,1 1.0000001,1.0000001 0 0 0 1,-1 1.0000001,1.0000001 0 0 0 -1,-1 z m 4,0 a 1.0000001,1.0000001 0 0 0 -1,1 1.0000001,1.0000001 0 0 0 1,1 1.0000001,1.0000001 0 0 0 1,-1 1.0000001,1.0000001 0 0 0 -1,-1 z m 4,0 a 1.0000001,1.0000001 0 0 0 -1,1 1.0000001,1.0000001 0 0 0 1,1 1.0000001,1.0000001 0 0 0 1,-1 1.0000001,1.0000001 0 0 0 -1,-1 z m 4,0 a 1.0000001,1.0000001 0 0 0 -1,1 1.0000001,1.0000001 0 0 0 1,1 1.0000001,1.0000001 0 0 0 1,-1 1.0000001,1.0000001 0 0 0 -1,-1 z m 4,0 a 1.0000001,1.0000001 0 0 0 -1,1 1.0000001,1.0000001 0 0 0 1,1 1.0000001,1.0000001 0 0 0 1,-1 1.0000001,1.0000001 0 0 0 -1,-1 z m -46,2 a 1.0000001,1.0000001 0 0 0 -1,1 1.0000001,1.0000001 0 0 0 1,1 1.0000001,1.0000001 0 0 0 1,-1 1.0000001,1.0000001 0 0 0 -1,-1 z m 4,0 a 1.0000001,1.0000001 0 0 0 -1,1 1.0000001,1.0000001 0 0 0 1,1 1.0000001,1.0000001 0 0 0 1,-1 1.0000001,1.0000001 0 0 0 -1,-1 z m 4,0 a 1.0000001,1.0000001 0 0 0 -1,1 1.0000001,1.0000001 0 0 0 1,1 1.0000001,1.0000001 0 0 0 1,-1 1.0000001,1.0000001 0 0 0 -1,-1 z m 4,0 a 1.0000001,1.0000001 0 0 0 -1,1 1.0000001,1.0000001 0 0 0 1,1 1.0000001,1.0000001 0 0 0 1,-1 1.0000001,1.0000001 0 0 0 -1,-1 z m 4,0 a 1.0000001,1.0000001 0 0 0 -1,1 1.0000001,1.0000001 0 0 0 1,1 1.0000001,1.0000001 0 0 0 1,-1 1.0000001,1.0000001 0 0 0 -1,-1 z m 4,0 a 1.0000001,1.0000001 0 0 0 -1,1 1.0000001,1.0000001 0 0 0 1,1 1.0000001,1.0000001 0 0 0 1,-1 1.0000001,1.0000001 0 0 0 -1,-1 z m 4,0 a 1.0000001,1.0000001 0 0 0 -1,1 1.0000001,1.0000001 0 0 0 1,1 1.0000001,1.0000001 0 0 0 1,-1 1.0000001,1.0000001 0 0 0 -1,-1 z m 4,0 a 1.0000001,1.0000001 0 0 0 -1,1 1.0000001,1.0000001 0 0 0 1,1 1.0000001,1.0000001 0 0 0 1,-1 1.0000001,1.0000001 0 0 0 -1,-1 z m 4,0 a 1.0000001,1.0000001 0 0 0 -1,1 1.0000001,1.0000001 0 0 0 1,1 1.0000001,1.0000001 0 0 0 1,-1 1.0000001,1.0000001 0 0 0 -1,-1 z m 4,0 a 1.0000001,1.0000001 0 0 0 -1,1 1.0000001,1.0000001 0 0 0 1,1 1.0000001,1.0000001 0 0 0 1,-1 1.0000001,1.0000001 0 0 0 -1,-1 z m 4,0 a 1.0000001,1.0000001 0 0 0 -1,1 1.0000001,1.0000001 0 0 0 1,1 1.0000001,1.0000001 0 0 0 1,-1 1.0000001,1.0000001 0 0 0 -1,-1 z m 4,0 a 1.0000001,1.0000001 0 0 0 -1,1 1.0000001,1.0000001 0 0 0 1,1 1.0000001,1.0000001 0 0 0 1,-1 1.0000001,1.0000001 0 0 0 -1,-1 z m 4,0 a 1.0000001,1.0000001 0 0 0 -1,1 1.0000001,1.0000001 0 0 0 1,1 1.0000001,1.0000001 0 0 0 1,-1 1.0000001,1.0000001 0 0 0 -1,-1 z m -50,2 a 1.0000001,1.0000001 0 0 0 -1,1 1.0000001,1.0000001 0 0 0 1,1 1.0000001,1.0000001 0 0 0 1,-1 1.0000001,1.0000001 0 0 0 -1,-1 z m 4,0 a 1.0000001,1.0000001 0 0 0 -1,1 1.0000001,1.0000001 0 0 0 1,1 1.0000001,1.0000001 0 0 0 1,-1 1.0000001,1.0000001 0 0 0 -1,-1 z m 4,0 a 1.0000001,1.0000001 0 0 0 -1,1 1.0000001,1.0000001 0 0 0 1,1 1.0000001,1.0000001 0 0 0 1,-1 1.0000001,1.0000001 0 0 0 -1,-1 z m 4,0 a 1.0000001,1.0000001 0 0 0 -1,1 1.0000001,1.0000001 0 0 0 1,1 1.0000001,1.0000001 0 0 0 1,-1 1.0000001,1.0000001 0 0 0 -1,-1 z m 4,0 a 1.0000001,1.0000001 0 0 0 -1,1 1.0000001,1.0000001 0 0 0 1,1 1.0000001,1.0000001 0 0 0 1,-1 1.0000001,1.0000001 0 0 0 -1,-1 z m 4,0 a 1.0000001,1.0000001 0 0 0 -1,1 1.0000001,1.0000001 0 0 0 1,1 1.0000001,1.0000001 0 0 0 1,-1 1.0000001,1.0000001 0 0 0 -1,-1 z m 4,0 a 1.0000001,1.0000001 0 0 0 -1,1 1.0000001,1.0000001 0 0 0 1,1 1.0000001,1.0000001 0 0 0 1,-1 1.0000001,1.0000001 0 0 0 -1,-1 z m 4,0 a 1.0000001,1.0000001 0 0 0 -1,1 1.0000001,1.0000001 0 0 0 1,1 1.0000001,1.0000001 0 0 0 1,-1 1.0000001,1.0000001 0 0 0 -1,-1 z m 4,0 a 1.0000001,1.0000001 0 0 0 -1,1 1.0000001,1.0000001 0 0 0 1,1 1.0000001,1.0000001 0 0 0 1,-1 1.0000001,1.0000001 0 0 0 -1,-1 z m 4,0 a 1.0000001,1.0000001 0 0 0 -1,1 1.0000001,1.0000001 0 0 0 1,1 1.0000001,1.0000001 0 0 0 1,-1 1.0000001,1.0000001 0 0 0 -1,-1 z m 4,0 a 1.0000001,1.0000001 0 0 0 -1,1 1.0000001,1.0000001 0 0 0 1,1 1.0000001,1.0000001 0 0 0 1,-1 1.0000001,1.0000001 0 0 0 -1,-1 z m 4,0 a 1.0000001,1.0000001 0 0 0 -1,1 1.0000001,1.0000001 0 0 0 1,1 1.0000001,1.0000001 0 0 0 1,-1 1.0000001,1.0000001 0 0 0 -1,-1 z m 4,0 a 1.0000001,1.0000001 0 0 0 -1,1 1.0000001,1.0000001 0 0 0 1,1 1.0000001,1.0000001 0 0 0 1,-1 1.0000001,1.0000001 0 0 0 -1,-1 z m -46,2 a 1.0000001,1.0000001 0 0 0 -1,1 1.0000001,1.0000001 0 0 0 1,1 1.0000001,1.0000001 0 0 0 1,-1 1.0000001,1.0000001 0 0 0 -1,-1 z m 4,0 a 1.0000001,1.0000001 0 0 0 -1,1 1.0000001,1.0000001 0 0 0 1,1 1.0000001,1.0000001 0 0 0 1,-1 1.0000001,1.0000001 0 0 0 -1,-1 z m 4,0 a 1.0000001,1.0000001 0 0 0 -1,1 1.0000001,1.0000001 0 0 0 1,1 1.0000001,1.0000001 0 0 0 1,-1 1.0000001,1.0000001 0 0 0 -1,-1 z m 4,0 a 1.0000001,1.0000001 0 0 0 -1,1 1.0000001,1.0000001 0 0 0 1,1 1.0000001,1.0000001 0 0 0 1,-1 1.0000001,1.0000001 0 0 0 -1,-1 z m 4,0 a 1.0000001,1.0000001 0 0 0 -1,1 1.0000001,1.0000001 0 0 0 1,1 1.0000001,1.0000001 0 0 0 1,-1 1.0000001,1.0000001 0 0 0 -1,-1 z m 4,0 a 1.0000001,1.0000001 0 0 0 -1,1 1.0000001,1.0000001 0 0 0 1,1 1.0000001,1.0000001 0 0 0 1,-1 1.0000001,1.0000001 0 0 0 -1,-1 z m 4,0 a 1.0000001,1.0000001 0 0 0 -1,1 1.0000001,1.0000001 0 0 0 1,1 1.0000001,1.0000001 0 0 0 1,-1 1.0000001,1.0000001 0 0 0 -1,-1 z m 4,0 a 1.0000001,1.0000001 0 0 0 -1,1 1.0000001,1.0000001 0 0 0 1,1 1.0000001,1.0000001 0 0 0 1,-1 1.0000001,1.0000001 0 0 0 -1,-1 z m 4,0 a 1.0000001,1.0000001 0 0 0 -1,1 1.0000001,1.0000001 0 0 0 1,1 1.0000001,1.0000001 0 0 0 1,-1 1.0000001,1.0000001 0 0 0 -1,-1 z m 4,0 a 1.0000001,1.0000001 0 0 0 -1,1 1.0000001,1.0000001 0 0 0 1,1 1.0000001,1.0000001 0 0 0 1,-1 1.0000001,1.0000001 0 0 0 -1,-1 z m 4,0 a 1.0000001,1.0000001 0 0 0 -1,1 1.0000001,1.0000001 0 0 0 1,1 1.0000001,1.0000001 0 0 0 1,-1 1.0000001,1.0000001 0 0 0 -1,-1 z m 4,0 a 1.0000001,1.0000001 0 0 0 -1,1 1.0000001,1.0000001 0 0 0 1,1 1.0000001,1.0000001 0 0 0 1,-1 1.0000001,1.0000001 0 0 0 -1,-1 z m 4,0 a 1.0000001,1.0000001 0 0 0 -1,1 1.0000001,1.0000001 0 0 0 1,1 1.0000001,1.0000001 0 0 0 1,-1 1.0000001,1.0000001 0 0 0 -1,-1 z m -50,2 a 1.0000001,1.0000001 0 0 0 -1,1 1.0000001,1.0000001 0 0 0 1,1 1.0000001,1.0000001 0 0 0 1,-1 1.0000001,1.0000001 0 0 0 -1,-1 z m 4,0 a 1.0000001,1.0000001 0 0 0 -1,1 1.0000001,1.0000001 0 0 0 1,1 1.0000001,1.0000001 0 0 0 1,-1 1.0000001,1.0000001 0 0 0 -1,-1 z m 4,0 a 1.0000001,1.0000001 0 0 0 -1,1 1.0000001,1.0000001 0 0 0 1,1 1.0000001,1.0000001 0 0 0 1,-1 1.0000001,1.0000001 0 0 0 -1,-1 z m 4,0 a 1.0000001,1.0000001 0 0 0 -1,1 1.0000001,1.0000001 0 0 0 1,1 1.0000001,1.0000001 0 0 0 1,-1 1.0000001,1.0000001 0 0 0 -1,-1 z m 4,0 a 1.0000001,1.0000001 0 0 0 -1,1 1.0000001,1.0000001 0 0 0 1,1 1.0000001,1.0000001 0 0 0 1,-1 1.0000001,1.0000001 0 0 0 -1,-1 z m 4,0 a 1.0000001,1.0000001 0 0 0 -1,1 1.0000001,1.0000001 0 0 0 1,1 1.0000001,1.0000001 0 0 0 1,-1 1.0000001,1.0000001 0 0 0 -1,-1 z m 4,0 a 1.0000001,1.0000001 0 0 0 -1,1 1.0000001,1.0000001 0 0 0 1,1 1.0000001,1.0000001 0 0 0 1,-1 1.0000001,1.0000001 0 0 0 -1,-1 z m 4,0 a 1.0000001,1.0000001 0 0 0 -1,1 1.0000001,1.0000001 0 0 0 1,1 1.0000001,1.0000001 0 0 0 1,-1 1.0000001,1.0000001 0 0 0 -1,-1 z m 4,0 a 1.0000001,1.0000001 0 0 0 -1,1 1.0000001,1.0000001 0 0 0 1,1 1.0000001,1.0000001 0 0 0 1,-1 1.0000001,1.0000001 0 0 0 -1,-1 z m 4,0 a 1.0000001,1.0000001 0 0 0 -1,1 1.0000001,1.0000001 0 0 0 1,1 1.0000001,1.0000001 0 0 0 1,-1 1.0000001,1.0000001 0 0 0 -1,-1 z m 4,0 a 1.0000001,1.0000001 0 0 0 -1,1 1.0000001,1.0000001 0 0 0 1,1 1.0000001,1.0000001 0 0 0 1,-1 1.0000001,1.0000001 0 0 0 -1,-1 z m 4,0 a 1.0000001,1.0000001 0 0 0 -1,1 1.0000001,1.0000001 0 0 0 1,1 1.0000001,1.0000001 0 0 0 1,-1 1.0000001,1.0000001 0 0 0 -1,-1 z m 4,0 a 1.0000001,1.0000001 0 0 0 -1,1 1.0000001,1.0000001 0 0 0 1,1 1.0000001,1.0000001 0 0 0 1,-1 1.0000001,1.0000001 0 0 0 -1,-1 z m -46,2 a 1.0000001,1.0000001 0 0 0 -1,1 1.0000001,1.0000001 0 0 0 1,1 1.0000001,1.0000001 0 0 0 1,-1 1.0000001,1.0000001 0 0 0 -1,-1 z m 4,0 a 1.0000001,1.0000001 0 0 0 -1,1 1.0000001,1.0000001 0 0 0 1,1 1.0000001,1.0000001 0 0 0 1,-1 1.0000001,1.0000001 0 0 0 -1,-1 z m 4,0 a 1.0000001,1.0000001 0 0 0 -1,1 1.0000001,1.0000001 0 0 0 1,1 1.0000001,1.0000001 0 0 0 1,-1 1.0000001,1.0000001 0 0 0 -1,-1 z m 4,0 a 1.0000001,1.0000001 0 0 0 -1,1 1.0000001,1.0000001 0 0 0 1,1 1.0000001,1.0000001 0 0 0 1,-1 1.0000001,1.0000001 0 0 0 -1,-1 z m 4,0 a 1.0000001,1.0000001 0 0 0 -1,1 1.0000001,1.0000001 0 0 0 1,1 1.0000001,1.0000001 0 0 0 1,-1 1.0000001,1.0000001 0 0 0 -1,-1 z m 4,0 a 1.0000001,1.0000001 0 0 0 -1,1 1.0000001,1.0000001 0 0 0 1,1 1.0000001,1.0000001 0 0 0 1,-1 1.0000001,1.0000001 0 0 0 -1,-1 z m 4,0 a 1.0000001,1.0000001 0 0 0 -1,1 1.0000001,1.0000001 0 0 0 1,1 1.0000001,1.0000001 0 0 0 1,-1 1.0000001,1.0000001 0 0 0 -1,-1 z m 4,0 a 1.0000001,1.0000001 0 0 0 -1,1 1.0000001,1.0000001 0 0 0 1,1 1.0000001,1.0000001 0 0 0 1,-1 1.0000001,1.0000001 0 0 0 -1,-1 z m 4,0 a 1.0000001,1.0000001 0 0 0 -1,1 1.0000001,1.0000001 0 0 0 1,1 1.0000001,1.0000001 0 0 0 1,-1 1.0000001,1.0000001 0 0 0 -1,-1 z m 4,0 a 1.0000001,1.0000001 0 0 0 -1,1 1.0000001,1.0000001 0 0 0 1,1 1.0000001,1.0000001 0 0 0 1,-1 1.0000001,1.0000001 0 0 0 -1,-1 z m 4,0 a 1.0000001,1.0000001 0 0 0 -1,1 1.0000001,1.0000001 0 0 0 1,1 1.0000001,1.0000001 0 0 0 1,-1 1.0000001,1.0000001 0 0 0 -1,-1 z m 4,0 a 1.0000001,1.0000001 0 0 0 -1,1 1.0000001,1.0000001 0 0 0 1,1 1.0000001,1.0000001 0 0 0 1,-1 1.0000001,1.0000001 0 0 0 -1,-1 z m 4,0 a 1.0000001,1.0000001 0 0 0 -1,1 1.0000001,1.0000001 0 0 0 1,1 1.0000001,1.0000001 0 0 0 1,-1 1.0000001,1.0000001 0 0 0 -1,-1 z m -50,2 a 1.0000001,1.0000001 0 0 0 -1,1 1.0000001,1.0000001 0 0 0 1,1 1.0000001,1.0000001 0 0 0 1,-1 1.0000001,1.0000001 0 0 0 -1,-1 z m 4,0 a 1.0000001,1.0000001 0 0 0 -1,1 1.0000001,1.0000001 0 0 0 1,1 1.0000001,1.0000001 0 0 0 1,-1 1.0000001,1.0000001 0 0 0 -1,-1 z m 4,0 a 1.0000001,1.0000001 0 0 0 -1,1 1.0000001,1.0000001 0 0 0 1,1 1.0000001,1.0000001 0 0 0 1,-1 1.0000001,1.0000001 0 0 0 -1,-1 z m 4,0 a 1.0000001,1.0000001 0 0 0 -1,1 1.0000001,1.0000001 0 0 0 1,1 1.0000001,1.0000001 0 0 0 1,-1 1.0000001,1.0000001 0 0 0 -1,-1 z m 4,0 a 1.0000001,1.0000001 0 0 0 -1,1 1.0000001,1.0000001 0 0 0 1,1 1.0000001,1.0000001 0 0 0 1,-1 1.0000001,1.0000001 0 0 0 -1,-1 z m 4,0 a 1.0000001,1.0000001 0 0 0 -1,1 1.0000001,1.0000001 0 0 0 1,1 1.0000001,1.0000001 0 0 0 1,-1 1.0000001,1.0000001 0 0 0 -1,-1 z m 4,0 a 1.0000001,1.0000001 0 0 0 -1,1 1.0000001,1.0000001 0 0 0 1,1 1.0000001,1.0000001 0 0 0 1,-1 1.0000001,1.0000001 0 0 0 -1,-1 z m 4,0 a 1.0000001,1.0000001 0 0 0 -1,1 1.0000001,1.0000001 0 0 0 1,1 1.0000001,1.0000001 0 0 0 1,-1 1.0000001,1.0000001 0 0 0 -1,-1 z m 4,0 a 1.0000001,1.0000001 0 0 0 -1,1 1.0000001,1.0000001 0 0 0 1,1 1.0000001,1.0000001 0 0 0 1,-1 1.0000001,1.0000001 0 0 0 -1,-1 z m 4,0 a 1.0000001,1.0000001 0 0 0 -1,1 1.0000001,1.0000001 0 0 0 1,1 1.0000001,1.0000001 0 0 0 1,-1 1.0000001,1.0000001 0 0 0 -1,-1 z m 4,0 a 1.0000001,1.0000001 0 0 0 -1,1 1.0000001,1.0000001 0 0 0 1,1 1.0000001,1.0000001 0 0 0 1,-1 1.0000001,1.0000001 0 0 0 -1,-1 z m 4,0 a 1.0000001,1.0000001 0 0 0 -1,1 1.0000001,1.0000001 0 0 0 1,1 1.0000001,1.0000001 0 0 0 1,-1 1.0000001,1.0000001 0 0 0 -1,-1 z m 4,0 a 1.0000001,1.0000001 0 0 0 -1,1 1.0000001,1.0000001 0 0 0 1,1 1.0000001,1.0000001 0 0 0 1,-1 1.0000001,1.0000001 0 0 0 -1,-1 z"
         style="opacity:1;fill:#252627;fill-opacity:1;fill-rule:evenodd;stroke:none;stroke-width:2;stroke-linecap:round;stroke-linejoin:bevel;stroke-miterlimit:4;stroke-dasharray:none;stroke-opacity:1" />
      <rect
         y="139.83751"
         x="93.662498"
         height="2.1166635"
         width="0.52916831"
         id="rect1572"
         style="opacity:1;fill:#cdd5d9;fill-opacity:1;fill-rule:evenodd;stroke:none;stroke-width:0.5291667;stroke-linecap:round;stroke-linejoin:bevel;stroke-miterlimit:4;stroke-dasharray:none;stroke-opacity:1" />
      <rect
         y="139.83751"
         x="94.720833"
         height="2.1166635"
         width="0.52916729"
         id="rect1574"
         style="opacity:1;fill:#cdd5d9;fill-opacity:1;fill-rule:evenodd;stroke:none;stroke-width:0.5291667;stroke-linecap:round;stroke-linejoin:bevel;stroke-miterlimit:4;stroke-dasharray:none;stroke-opacity:1" />
      <rect
         y="139.83751"
         x="95.779167"
         height="2.1166668"
         width="0.5291667"
         id="rect2193"
         style="opacity:1;fill:#cdd5d9;fill-opacity:1;fill-rule:evenodd;stroke:none;stroke-width:0.5291667;stroke-linecap:round;stroke-linejoin:bevel;stroke-miterlimit:4;stroke-dasharray:none;stroke-opacity:1" />
      <rect
         y="139.83751"
         x="103.71666"
         height="0.5291667"
         width="0.5291667"
         id="rect2195"
         style="opacity:1;fill:#cdd5d9;fill-opacity:1;fill-rule:evenodd;stroke:none;stroke-width:0.5291667;stroke-linecap:round;stroke-linejoin:bevel;stroke-miterlimit:4;stroke-dasharray:none;stroke-opacity:1" />
      <rect
         y="139.83751"
         x="102.65833"
         height="0.5291667"
         width="0.5291667"
         id="rect2197"
         style="opacity:1;fill:#cdd5d9;fill-opacity:1;fill-rule:evenodd;stroke:none;stroke-width:0.5291667;stroke-linecap:round;stroke-linejoin:bevel;stroke-miterlimit:4;stroke-dasharray:none;stroke-opacity:1" />
      <rect
         y="139.83751"
         x="101.60001"
         height="0.5291667"
         width="0.5291667"
         id="rect2199"
         style="opacity:1;fill:#cdd5d9;fill-opacity:1;fill-rule:evenodd;stroke:none;stroke-width:0.5291667;stroke-linecap:round;stroke-linejoin:bevel;stroke-miterlimit:4;stroke-dasharray:none;stroke-opacity:1" />
      <rect
         y="152.00835"
         x="84.137497"
         height="2.1166596"
         width="6.8791695"
         id="rect2497"
         style="opacity:1;fill:#6fb7ff;fill-opacity:1;fill-rule:evenodd;stroke:none;stroke-width:0.5291667;stroke-linecap:round;stroke-linejoin:bevel;stroke-miterlimit:4;stroke-dasharray:none;stroke-opacity:1" />
      <rect
         y="152.00835"
         x="83.60833"
         height="0.52915955"
         width="7.4083366"
         id="rect2499"
         style="opacity:1;fill:#2d8cff;fill-opacity:1;fill-rule:evenodd;stroke:none;stroke-width:0.5291667;stroke-linecap:round;stroke-linejoin:bevel;stroke-miterlimit:4;stroke-dasharray:none;stroke-opacity:1" />
      <rect
         y="153.59584"
         x="83.60833"
         height="0.52916563"
         width="7.4083366"
         id="rect2501"
         style="opacity:1;fill:#2d8cff;fill-opacity:1;fill-rule:evenodd;stroke:none;stroke-width:0.5291667;stroke-linecap:round;stroke-linejoin:bevel;stroke-miterlimit:4;stroke-dasharray:none;stroke-opacity:1" />
      <rect
         y="152.00835"
         x="107.95"
         height="2.1166606"
         width="6.8791628"
         id="rect2503"
         style="opacity:1;fill:#6fb7ff;fill-opacity:1;fill-rule:evenodd;stroke:none;stroke-width:0.5291667;stroke-linecap:round;stroke-linejoin:bevel;stroke-miterlimit:4;stroke-dasharray:none;stroke-opacity:1" />
      <rect
         y="152.00835"
         x="107.95"
         height="0.5291667"
         width="7.4083376"
         id="rect2505"
         style="opacity:1;fill:#2d8cff;fill-opacity:1;fill-rule:evenodd;stroke:none;stroke-width:0.5291667;stroke-linecap:round;stroke-linejoin:bevel;stroke-miterlimit:4;stroke-dasharray:none;stroke-opacity:1" />
      <rect
         y="153.59584"
         x="107.95"
         height="0.52916056"
         width="7.4083376"
         id="rect2507"
         style="opacity:1;fill:#2d8cff;fill-opacity:1;fill-rule:evenodd;stroke:none;stroke-width:0.5291667;stroke-linecap:round;stroke-linejoin:bevel;stroke-miterlimit:4;stroke-dasharray:none;stroke-opacity:1" />
      <rect
         y="144.07083"
         x="92.604164"
         height="4.2333312"
         width="13.758335"
         id="rect879-3"
         style="opacity:1;fill:#252627;fill-opacity:1;fill-rule:evenodd;stroke:none;stroke-width:0.5291667;stroke-linecap:round;stroke-linejoin:bevel;stroke-miterlimit:4;stroke-dasharray:none;stroke-opacity:1" />
      <rect
         y="149.3625"
         x="92.604164"
         height="4.2333312"
         width="13.758335"
         id="rect879-1"
         style="opacity:1;fill:#252627;fill-opacity:1;fill-rule:evenodd;stroke:none;stroke-width:0.5291667;stroke-linecap:round;stroke-linejoin:bevel;stroke-miterlimit:4;stroke-dasharray:none;stroke-opacity:1" />
      <rect
         y="154.65417"
         x="92.604164"
         height="4.2333312"
         width="13.758335"
         id="rect879-8"
         style="opacity:1;fill:#252627;fill-opacity:1;fill-rule:evenodd;stroke:none;stroke-width:0.5291667;stroke-linecap:round;stroke-linejoin:bevel;stroke-miterlimit:4;stroke-dasharray:none;stroke-opacity:1" />
      <rect
         y="139.83751"
         x="96.837502"
         height="2.1166668"
         width="0.5291667"
         id="rect866"
         style="opacity:1;fill:#cdd5d9;fill-opacity:1;fill-rule:nonzero;stroke:none;stroke-width:0.5291667;stroke-linecap:square;stroke-linejoin:bevel;stroke-miterlimit:4;stroke-dasharray:none;stroke-dashoffset:35;stroke-opacity:1" />
      <rect
         y="139.83751"
         x="104.775"
         height="0.5291667"
         width="0.5291667"
         id="rect868"
         style="opacity:1;fill:#cdd5d9;fill-opacity:1;fill-rule:nonzero;stroke:none;stroke-width:0.5291667;stroke-linecap:square;stroke-linejoin:bevel;stroke-miterlimit:4;stroke-dasharray:none;stroke-dashoffset:35;stroke-opacity:1" />
      <rect
         y="145.12917"
         x="93.662498"
         height="2.1166635"
         width="0.52916831"
         id="rect1572-3"
         style="opacity:1;fill:#cdd5d9;fill-opacity:1;fill-rule:evenodd;stroke:none;stroke-width:0.5291667;stroke-linecap:round;stroke-linejoin:bevel;stroke-miterlimit:4;stroke-dasharray:none;stroke-opacity:1" />
      <rect
         y="145.12917"
         x="94.720833"
         height="2.1166635"
         width="0.52916729"
         id="rect1574-6"
         style="opacity:1;fill:#cdd5d9;fill-opacity:1;fill-rule:evenodd;stroke:none;stroke-width:0.5291667;stroke-linecap:round;stroke-linejoin:bevel;stroke-miterlimit:4;stroke-dasharray:none;stroke-opacity:1" />
      <rect
         y="145.12917"
         x="95.779167"
         height="2.1166668"
         width="0.5291667"
         id="rect2193-7"
         style="opacity:1;fill:#cdd5d9;fill-opacity:1;fill-rule:evenodd;stroke:none;stroke-width:0.5291667;stroke-linecap:round;stroke-linejoin:bevel;stroke-miterlimit:4;stroke-dasharray:none;stroke-opacity:1" />
      <rect
         y="145.12917"
         x="103.71666"
         height="0.5291667"
         width="0.5291667"
         id="rect2195-5"
         style="opacity:1;fill:#cdd5d9;fill-opacity:1;fill-rule:evenodd;stroke:none;stroke-width:0.5291667;stroke-linecap:round;stroke-linejoin:bevel;stroke-miterlimit:4;stroke-dasharray:none;stroke-opacity:1" />
      <rect
         y="145.12917"
         x="102.65833"
         height="0.5291667"
         width="0.5291667"
         id="rect2197-3"
         style="opacity:1;fill:#cdd5d9;fill-opacity:1;fill-rule:evenodd;stroke:none;stroke-width:0.5291667;stroke-linecap:round;stroke-linejoin:bevel;stroke-miterlimit:4;stroke-dasharray:none;stroke-opacity:1" />
      <rect
         y="145.12917"
         x="101.60001"
         height="0.5291667"
         width="0.5291667"
         id="rect2199-5"
         style="opacity:1;fill:#cdd5d9;fill-opacity:1;fill-rule:evenodd;stroke:none;stroke-width:0.5291667;stroke-linecap:round;stroke-linejoin:bevel;stroke-miterlimit:4;stroke-dasharray:none;stroke-opacity:1" />
      <rect
         y="145.12917"
         x="96.837502"
         height="2.1166668"
         width="0.5291667"
         id="rect866-6"
         style="opacity:1;fill:#cdd5d9;fill-opacity:1;fill-rule:nonzero;stroke:none;stroke-width:0.5291667;stroke-linecap:square;stroke-linejoin:bevel;stroke-miterlimit:4;stroke-dasharray:none;stroke-dashoffset:35;stroke-opacity:1" />
      <rect
         y="145.12917"
         x="104.775"
         height="0.5291667"
         width="0.5291667"
         id="rect868-2"
         style="opacity:1;fill:#cdd5d9;fill-opacity:1;fill-rule:nonzero;stroke:none;stroke-width:0.5291667;stroke-linecap:square;stroke-linejoin:bevel;stroke-miterlimit:4;stroke-dasharray:none;stroke-dashoffset:35;stroke-opacity:1" />
      <rect
         y="150.42084"
         x="93.662498"
         height="2.1166635"
         width="0.52916831"
         id="rect1572-9"
         style="opacity:1;fill:#cdd5d9;fill-opacity:1;fill-rule:evenodd;stroke:none;stroke-width:0.5291667;stroke-linecap:round;stroke-linejoin:bevel;stroke-miterlimit:4;stroke-dasharray:none;stroke-opacity:1" />
      <rect
         y="150.42084"
         x="94.720833"
         height="2.1166635"
         width="0.52916729"
         id="rect1574-1"
         style="opacity:1;fill:#cdd5d9;fill-opacity:1;fill-rule:evenodd;stroke:none;stroke-width:0.5291667;stroke-linecap:round;stroke-linejoin:bevel;stroke-miterlimit:4;stroke-dasharray:none;stroke-opacity:1" />
      <rect
         y="150.42084"
         x="95.779167"
         height="2.1166668"
         width="0.5291667"
         id="rect2193-2"
         style="opacity:1;fill:#cdd5d9;fill-opacity:1;fill-rule:evenodd;stroke:none;stroke-width:0.5291667;stroke-linecap:round;stroke-linejoin:bevel;stroke-miterlimit:4;stroke-dasharray:none;stroke-opacity:1" />
      <rect
         y="150.42084"
         x="103.71666"
         height="0.5291667"
         width="0.5291667"
         id="rect2195-7"
         style="opacity:1;fill:#cdd5d9;fill-opacity:1;fill-rule:evenodd;stroke:none;stroke-width:0.5291667;stroke-linecap:round;stroke-linejoin:bevel;stroke-miterlimit:4;stroke-dasharray:none;stroke-opacity:1" />
      <rect
         y="150.42084"
         x="102.65833"
         height="0.5291667"
         width="0.5291667"
         id="rect2197-0"
         style="opacity:1;fill:#cdd5d9;fill-opacity:1;fill-rule:evenodd;stroke:none;stroke-width:0.5291667;stroke-linecap:round;stroke-linejoin:bevel;stroke-miterlimit:4;stroke-dasharray:none;stroke-opacity:1" />
      <rect
         y="150.42084"
         x="101.60001"
         height="0.5291667"
         width="0.5291667"
         id="rect2199-9"
         style="opacity:1;fill:#cdd5d9;fill-opacity:1;fill-rule:evenodd;stroke:none;stroke-width:0.5291667;stroke-linecap:round;stroke-linejoin:bevel;stroke-miterlimit:4;stroke-dasharray:none;stroke-opacity:1" />
      <rect
         y="150.42084"
         x="96.837502"
         height="2.1166668"
         width="0.5291667"
         id="rect866-3"
         style="opacity:1;fill:#cdd5d9;fill-opacity:1;fill-rule:nonzero;stroke:none;stroke-width:0.5291667;stroke-linecap:square;stroke-linejoin:bevel;stroke-miterlimit:4;stroke-dasharray:none;stroke-dashoffset:35;stroke-opacity:1" />
      <rect
         y="150.42084"
         x="104.775"
         height="0.5291667"
         width="0.5291667"
         id="rect868-6"
         style="opacity:1;fill:#cdd5d9;fill-opacity:1;fill-rule:nonzero;stroke:none;stroke-width:0.5291667;stroke-linecap:square;stroke-linejoin:bevel;stroke-miterlimit:4;stroke-dasharray:none;stroke-dashoffset:35;stroke-opacity:1" />
      <rect
         y="155.71251"
         x="93.662498"
         height="2.1166635"
         width="0.52916831"
         id="rect1572-0"
         style="opacity:1;fill:#cdd5d9;fill-opacity:1;fill-rule:evenodd;stroke:none;stroke-width:0.5291667;stroke-linecap:round;stroke-linejoin:bevel;stroke-miterlimit:4;stroke-dasharray:none;stroke-opacity:1" />
      <rect
         y="155.71251"
         x="94.720833"
         height="2.1166635"
         width="0.52916729"
         id="rect1574-62"
         style="opacity:1;fill:#cdd5d9;fill-opacity:1;fill-rule:evenodd;stroke:none;stroke-width:0.5291667;stroke-linecap:round;stroke-linejoin:bevel;stroke-miterlimit:4;stroke-dasharray:none;stroke-opacity:1" />
      <rect
         y="155.71251"
         x="95.779167"
         height="2.1166668"
         width="0.5291667"
         id="rect2193-6"
         style="opacity:1;fill:#cdd5d9;fill-opacity:1;fill-rule:evenodd;stroke:none;stroke-width:0.5291667;stroke-linecap:round;stroke-linejoin:bevel;stroke-miterlimit:4;stroke-dasharray:none;stroke-opacity:1" />
      <rect
         y="155.71251"
         x="103.71666"
         height="0.5291667"
         width="0.5291667"
         id="rect2195-1"
         style="opacity:1;fill:#cdd5d9;fill-opacity:1;fill-rule:evenodd;stroke:none;stroke-width:0.5291667;stroke-linecap:round;stroke-linejoin:bevel;stroke-miterlimit:4;stroke-dasharray:none;stroke-opacity:1" />
      <rect
         y="155.71251"
         x="102.65833"
         height="0.5291667"
         width="0.5291667"
         id="rect2197-8"
         style="opacity:1;fill:#cdd5d9;fill-opacity:1;fill-rule:evenodd;stroke:none;stroke-width:0.5291667;stroke-linecap:round;stroke-linejoin:bevel;stroke-miterlimit:4;stroke-dasharray:none;stroke-opacity:1" />
      <rect
         y="155.71251"
         x="101.60001"
         height="0.5291667"
         width="0.5291667"
         id="rect2199-7"
         style="opacity:1;fill:#cdd5d9;fill-opacity:1;fill-rule:evenodd;stroke:none;stroke-width:0.5291667;stroke-linecap:round;stroke-linejoin:bevel;stroke-miterlimit:4;stroke-dasharray:none;stroke-opacity:1" />
      <rect
         y="155.71251"
         x="96.837502"
         height="2.1166668"
         width="0.5291667"
         id="rect866-9"
         style="opacity:1;fill:#cdd5d9;fill-opacity:1;fill-rule:nonzero;stroke:none;stroke-width:0.5291667;stroke-linecap:square;stroke-linejoin:bevel;stroke-miterlimit:4;stroke-dasharray:none;stroke-dashoffset:35;stroke-opacity:1" />
      <rect
         y="155.71251"
         x="104.775"
         height="0.5291667"
         width="0.5291667"
         id="rect868-20"
         style="opacity:1;fill:#cdd5d9;fill-opacity:1;fill-rule:nonzero;stroke:none;stroke-width:0.5291667;stroke-linecap:square;stroke-linejoin:bevel;stroke-miterlimit:4;stroke-dasharray:none;stroke-dashoffset:35;stroke-opacity:1" />
    </g>
  </g>
</svg>
