<?xml version="1.0" encoding="UTF-8" standalone="no"?>
<!-- Created with Inkscape (http://www.inkscape.org/) -->

<svg
   width="128"
   height="128"
   viewBox="0 0 33.866667 33.866667"
   version="1.1"
   id="svg2634"
   inkscape:version="1.1.2 (0a00cf5339, 2022-02-04, custom)"
   sodipodi:docname="start-here.svg"
   xmlns:inkscape="http://www.inkscape.org/namespaces/inkscape"
   xmlns:sodipodi="http://sodipodi.sourceforge.net/DTD/sodipodi-0.dtd"
   xmlns="http://www.w3.org/2000/svg"
   xmlns:svg="http://www.w3.org/2000/svg"
   xmlns:rdf="http://www.w3.org/1999/02/22-rdf-syntax-ns#"
   xmlns:cc="http://creativecommons.org/ns#"
   xmlns:dc="http://purl.org/dc/elements/1.1/">
  <title
     id="title3250">Boston Icons</title>
  <defs
     id="defs2628" />
  <sodipodi:namedview
     id="base"
     pagecolor="#ffffff"
     bordercolor="#00ffed"
     borderopacity="1"
     inkscape:pageopacity="1"
     inkscape:pageshadow="2"
     inkscape:zoom="5.6831686"
     inkscape:cx="55.866722"
     inkscape:cy="60.969509"
     inkscape:document-units="px"
     inkscape:current-layer="g1780"
     showgrid="false"
     showguides="false"
     inkscape:guide-bbox="true"
     fit-margin-top="0"
     fit-margin-left="0"
     fit-margin-right="0"
     fit-margin-bottom="0"
     inkscape:window-width="1920"
     inkscape:window-height="1011"
     inkscape:window-x="0"
     inkscape:window-y="0"
     inkscape:window-maximized="1"
     units="px"
     inkscape:pagecheckerboard="0">
    <inkscape:grid
       type="xygrid"
       id="grid3182"
       spacingx="0.52916667"
       spacingy="0.52916667"
       empspacing="4"
       originx="-82.550004"
       originy="-127.00001"
       dotted="false" />
    <sodipodi:guide
       position="-4.268358e-06,27.516666"
       orientation="1,0"
       id="guide3216"
       inkscape:locked="false" />
    <sodipodi:guide
       position="3.7041618,33.866666"
       orientation="0,1"
       id="guide3218"
       inkscape:locked="false" />
    <sodipodi:guide
       position="33.866657,24.870836"
       orientation="1,0"
       id="guide3220"
       inkscape:locked="false" />
    <sodipodi:guide
       position="32.279157,-4.1479283e-06"
       orientation="0,1"
       id="guide3222"
       inkscape:locked="false" />
    <sodipodi:guide
       position="15.345829,32.808336"
       orientation="0,1"
       id="guide3224"
       inkscape:locked="false" />
    <sodipodi:guide
       position="-4.7625023,1.0583259"
       orientation="0,1"
       id="guide3226"
       inkscape:locked="false" />
    <sodipodi:guide
       position="1.0583287,17.462496"
       orientation="1,0"
       id="guide3228"
       inkscape:locked="false" />
    <sodipodi:guide
       position="32.808327,20.108336"
       orientation="1,0"
       id="guide3230"
       inkscape:locked="false" />
    <sodipodi:guide
       position="15.874995,31.750006"
       orientation="0,1"
       id="guide3232"
       inkscape:locked="false" />
    <sodipodi:guide
       position="2.1166617,24.870836"
       orientation="1,0"
       id="guide3234"
       inkscape:locked="false" />
    <sodipodi:guide
       position="3.1749958,25.400006"
       orientation="1,0"
       id="guide3236"
       inkscape:locked="false" />
    <sodipodi:guide
       position="16.93333,19.579158"
       orientation="1,0"
       id="guide3238"
       inkscape:locked="false" />
    <sodipodi:guide
       position="30.691657,24.341666"
       orientation="1,0"
       id="guide3242"
       inkscape:locked="false" />
    <sodipodi:guide
       position="31.749997,21.695836"
       orientation="1,0"
       id="guide3244"
       inkscape:locked="false" />
    <sodipodi:guide
       position="21.695827,2.1166659"
       orientation="0,1"
       id="guide3246"
       inkscape:locked="false" />
    <sodipodi:guide
       position="16.404162,3.1749959"
       orientation="0,1"
       id="guide3248"
       inkscape:locked="false" />
    <sodipodi:guide
       position="26.987497,30.162491"
       orientation="0,1"
       id="guide843"
       inkscape:locked="false" />
    <sodipodi:guide
       position="13.75833,16.933324"
       orientation="0,1"
       id="guide845"
       inkscape:locked="false" />
  </sodipodi:namedview>
  <metadata
     id="metadata2631">
    <rdf:RDF>
      <cc:Work
         rdf:about="">
        <dc:format>image/svg+xml</dc:format>
        <dc:type
           rdf:resource="http://purl.org/dc/dcmitype/StillImage" />
        <dc:title>Boston Icons</dc:title>
        <cc:license
           rdf:resource="dribbble.com/chrisdiaz" />
        <dc:creator>
          <cc:Agent>
            <dc:title>Christian Díaz</dc:title>
          </cc:Agent>
        </dc:creator>
        <dc:date>2022</dc:date>
        <dc:publisher>
          <cc:Agent>
            <dc:title>Christian Díaz</dc:title>
          </cc:Agent>
        </dc:publisher>
        <dc:identifier>christiandiaz.design [at] gmail [dot] com</dc:identifier>
        <dc:subject>
          <rdf:Bag>
            <rdf:li>GNOME icon Theme</rdf:li>
          </rdf:Bag>
        </dc:subject>
        <dc:description>dribbble.com/chrisdiaz | diazchris.deviantart.com</dc:description>
      </cc:Work>
    </rdf:RDF>
  </metadata>
  <g
     inkscape:label="Capa 1"
     inkscape:groupmode="layer"
     id="layer1"
     transform="translate(-82.550003,-136.13333)">
    <g
       id="g1780">
      <rect
         y="138.24998"
         x="84.666664"
         height="29.633341"
         width="29.633333"
         id="rect4944"
         style="fill:#252627;fill-opacity:1;fill-rule:nonzero;stroke:none;stroke-width:0.100806;stroke-linecap:square;stroke-linejoin:bevel;stroke-miterlimit:4;stroke-dasharray:none;stroke-dashoffset:35;stroke-opacity:1"
         ry="1.058336"
         rx="1.058329" />
      <rect
         style="fill:#373b43;stroke-width:0.264583;stroke-linejoin:round"
         id="rect1460"
         width="28.575001"
         height="28.575001"
         x="85.195831"
         y="138.77916"
         rx="0.52916187"
         ry="0.52916127" />
      <path
         id="path1187"
         style="fill:#ffffff;stroke-width:0.235186;stroke-linejoin:round"
         d="m 93.133336,144.6 c -1.169003,0 -2.116667,0.94766 -2.116666,2.11666 -6e-6,1.169 0.947659,2.11667 2.116666,2.11667 1.169007,0 2.116673,-0.94767 2.116667,-2.11667 10e-7,-1.169 -0.947664,-2.11666 -2.116667,-2.11666 z m 6.349996,0 c -1.169003,0 -2.116668,0.94766 -2.116667,2.11666 -6e-6,1.169 0.94766,2.11667 2.116667,2.11667 1.169008,0 2.116678,-0.94767 2.116668,-2.11667 0,-1.169 -0.94766,-2.11666 -2.116668,-2.11666 z m 6.349998,0 c -1.169,0 -2.11666,0.94766 -2.11666,2.11666 0,1.169 0.94766,2.11666 2.11666,2.11667 1.16901,0 2.11668,-0.94767 2.11667,-2.11667 0,-1.169 -0.94766,-2.11666 -2.11667,-2.11666 z m -12.699994,6.34999 c -1.169007,0 -2.116672,0.94767 -2.116666,2.11667 -1e-6,1.169 0.947663,2.11666 2.116666,2.11666 1.169003,0 2.116668,-0.94766 2.116667,-2.11666 6e-6,-1.169 -0.94766,-2.11667 -2.116667,-2.11667 z m 6.349996,0 c -1.169007,0 -2.116673,0.94767 -2.116667,2.11667 -10e-7,1.169 0.947664,2.11666 2.116667,2.11666 1.169008,0 2.116668,-0.94766 2.116668,-2.11666 1e-5,-1.169 -0.94766,-2.11667 -2.116668,-2.11667 z m 6.349998,0 c -1.169,0 -2.11666,0.94767 -2.11666,2.11667 0,1.169 0.94766,2.11666 2.11666,2.11666 1.16901,0 2.11667,-0.94766 2.11667,-2.11666 1e-5,-1.169 -0.94766,-2.11667 -2.11667,-2.11667 z m -12.699994,6.35 c -1.169007,0 -2.116672,0.94767 -2.116666,2.11667 -6e-6,1.16901 0.947659,2.11667 2.116666,2.11667 1.169007,0 2.116673,-0.94766 2.116667,-2.11667 6e-6,-1.169 -0.94766,-2.11667 -2.116667,-2.11667 z m 6.349996,0 c -1.169007,0 -2.116673,0.94767 -2.116667,2.11667 -6e-6,1.16901 0.94766,2.11667 2.116667,2.11667 1.169008,0 2.116678,-0.94766 2.116668,-2.11667 1e-5,-1.169 -0.94766,-2.11667 -2.116668,-2.11667 z m 6.349998,0 c -1.169,1e-5 -2.11666,0.94767 -2.11666,2.11667 0,1.169 0.94766,2.11667 2.11666,2.11667 1.16901,1e-5 2.11668,-0.94766 2.11667,-2.11667 1e-5,-1.169 -0.94766,-2.11667 -2.11667,-2.11667 z"
         sodipodi:nodetypes="scscsscscsscscsscscsscscsscscsscscsscscsscscs" />
    </g>
  </g>
</svg>
