<?xml version="1.0" encoding="UTF-8" standalone="no"?>
<!-- Created with Inkscape (http://www.inkscape.org/) -->

<svg
   xmlns:dc="http://purl.org/dc/elements/1.1/"
   xmlns:cc="http://creativecommons.org/ns#"
   xmlns:rdf="http://www.w3.org/1999/02/22-rdf-syntax-ns#"
   xmlns:svg="http://www.w3.org/2000/svg"
   xmlns="http://www.w3.org/2000/svg"
   xmlns:sodipodi="http://sodipodi.sourceforge.net/DTD/sodipodi-0.dtd"
   xmlns:inkscape="http://www.inkscape.org/namespaces/inkscape"
   width="128"
   height="128"
   viewBox="0 0 33.866667 33.866667"
   version="1.1"
   id="svg2634"
   inkscape:version="0.92.4 5da689c313, 2019-01-14"
   sodipodi:docname="user-desktop.svg">
  <title
     id="title3250">Boston Icons</title>
  <defs
     id="defs2628" />
  <sodipodi:namedview
     id="base"
     pagecolor="#ffffff"
     bordercolor="#00ffed"
     borderopacity="1"
     inkscape:pageopacity="1"
     inkscape:pageshadow="2"
     inkscape:zoom="3.959798"
     inkscape:cx="24.687539"
     inkscape:cy="36.417614"
     inkscape:document-units="px"
     inkscape:current-layer="layer1"
     showgrid="false"
     showguides="false"
     inkscape:guide-bbox="true"
     fit-margin-top="0"
     fit-margin-left="0"
     fit-margin-right="0"
     fit-margin-bottom="0"
     inkscape:window-width="1920"
     inkscape:window-height="1016"
     inkscape:window-x="0"
     inkscape:window-y="27"
     inkscape:window-maximized="1"
     units="px">
    <inkscape:grid
       type="xygrid"
       id="grid3182"
       spacingx="0.52916667"
       spacingy="0.52916667"
       empspacing="4"
       originx="-82.550004"
       originy="-127.00001"
       dotted="false" />
    <sodipodi:guide
       position="-4.268358e-06,27.516666"
       orientation="1,0"
       id="guide3216"
       inkscape:locked="false" />
    <sodipodi:guide
       position="3.7041618,33.866666"
       orientation="0,1"
       id="guide3218"
       inkscape:locked="false" />
    <sodipodi:guide
       position="33.866657,24.870836"
       orientation="1,0"
       id="guide3220"
       inkscape:locked="false" />
    <sodipodi:guide
       position="32.279157,-4.1479283e-06"
       orientation="0,1"
       id="guide3222"
       inkscape:locked="false" />
    <sodipodi:guide
       position="15.345829,32.808336"
       orientation="0,1"
       id="guide3224"
       inkscape:locked="false" />
    <sodipodi:guide
       position="-4.7625023,1.0583259"
       orientation="0,1"
       id="guide3226"
       inkscape:locked="false" />
    <sodipodi:guide
       position="1.0583287,17.462496"
       orientation="1,0"
       id="guide3228"
       inkscape:locked="false" />
    <sodipodi:guide
       position="32.808327,20.108336"
       orientation="1,0"
       id="guide3230"
       inkscape:locked="false" />
    <sodipodi:guide
       position="15.874995,31.750006"
       orientation="0,1"
       id="guide3232"
       inkscape:locked="false" />
    <sodipodi:guide
       position="2.1166617,24.870836"
       orientation="1,0"
       id="guide3234"
       inkscape:locked="false" />
    <sodipodi:guide
       position="3.1749958,25.400006"
       orientation="1,0"
       id="guide3236"
       inkscape:locked="false" />
    <sodipodi:guide
       position="4.7624965,21.695824"
       orientation="1,0"
       id="guide3238"
       inkscape:locked="false" />
    <sodipodi:guide
       position="29.104163,18.520824"
       orientation="1,0"
       id="guide3240"
       inkscape:locked="false" />
    <sodipodi:guide
       position="30.691657,24.341666"
       orientation="1,0"
       id="guide3242"
       inkscape:locked="false" />
    <sodipodi:guide
       position="31.749997,21.695836"
       orientation="1,0"
       id="guide3244"
       inkscape:locked="false" />
    <sodipodi:guide
       position="21.695827,2.1166659"
       orientation="0,1"
       id="guide3246"
       inkscape:locked="false" />
    <sodipodi:guide
       position="16.404162,3.1749959"
       orientation="0,1"
       id="guide3248"
       inkscape:locked="false" />
    <sodipodi:guide
       position="26.987497,30.162491"
       orientation="0,1"
       id="guide843"
       inkscape:locked="false" />
    <sodipodi:guide
       position="30.162497,26.458325"
       orientation="0,1"
       id="guide845"
       inkscape:locked="false" />
    <sodipodi:guide
       position="8.9958299,21.695824"
       orientation="0,1"
       id="guide2024"
       inkscape:locked="false" />
    <sodipodi:guide
       position="20.10833,17.991658"
       orientation="1,0"
       id="guide2026"
       inkscape:locked="false" />
    <sodipodi:guide
       position="13.229163,11.112491"
       orientation="0,1"
       id="guide2028"
       inkscape:locked="false" />
    <sodipodi:guide
       position="26.45833,17.462491"
       orientation="0,1"
       id="guide2100"
       inkscape:locked="false" />
    <sodipodi:guide
       position="13.75833,7.9374908"
       orientation="1,0"
       id="guide2102"
       inkscape:locked="false" />
    <sodipodi:guide
       position="23.28333,6.8791575"
       orientation="0,1"
       id="guide2104"
       inkscape:locked="false" />
  </sodipodi:namedview>
  <metadata
     id="metadata2631">
    <rdf:RDF>
      <cc:Work
         rdf:about="">
        <dc:format>image/svg+xml</dc:format>
        <dc:type
           rdf:resource="http://purl.org/dc/dcmitype/StillImage" />
        <dc:title>Boston Icons</dc:title>
        <cc:license
           rdf:resource="dribbble.com/chrisdiaz" />
        <dc:creator>
          <cc:Agent>
            <dc:title>Christian Díaz</dc:title>
          </cc:Agent>
        </dc:creator>
        <dc:date>2019</dc:date>
        <dc:publisher>
          <cc:Agent>
            <dc:title>Christian Díaz</dc:title>
          </cc:Agent>
        </dc:publisher>
        <dc:identifier>christiandiaz.design [at] gmail [dot] com</dc:identifier>
        <dc:subject>
          <rdf:Bag>
            <rdf:li>GNOME icon Theme</rdf:li>
          </rdf:Bag>
        </dc:subject>
        <dc:description>diazchris.deviantart.com | dribbble.com/chrisdiaz</dc:description>
      </cc:Work>
    </rdf:RDF>
  </metadata>
  <g
     inkscape:label="Capa 1"
     inkscape:groupmode="layer"
     id="layer1"
     transform="translate(-82.550003,-136.13333)">
    <g
       id="g4840">
      <rect
         y="143.54167"
         x="83.60833"
         height="23.283327"
         width="31.750002"
         id="rect921"
         style="opacity:1;fill:#7a8e9e;fill-opacity:1;stroke:none;stroke-width:0.5291667;stroke-linejoin:bevel;stroke-miterlimit:4;stroke-dasharray:none;stroke-opacity:1" />
      <rect
         y="145.12917"
         x="84.137497"
         height="21.166664"
         width="30.691664"
         id="rect923"
         style="opacity:1;fill:#96a5af;fill-opacity:1;stroke:none;stroke-width:0.5291667;stroke-linejoin:bevel;stroke-miterlimit:4;stroke-dasharray:none;stroke-opacity:1" />
      <path
         inkscape:connector-curvature="0"
         id="rect885-36-7"
         d="m 84.66667,145.12916 v 0.52917 h 0.529166 v -0.52917 z m 0.529166,0.52917 v 0.52917 h 0.529167 v -0.52917 z m 0.529167,0 h 0.529167 v -0.52917 h -0.529167 z m 0.529167,0 v 0.52917 h 0.529166 v -0.52917 z m 0.529166,0 h 0.529167 v -0.52917 h -0.529167 z m 0.529167,0 v 0.52917 h 0.529167 v -0.52917 z m 0.529167,0 h 0.529166 v -0.52917 H 87.84167 Z m 0.529166,0 v 0.52917 h 0.529167 v -0.52917 z m 0.529167,0 h 0.529167 v -0.52917 h -0.529167 z m 0.529167,0 v 0.52917 h 0.529167 v -0.52917 z m 0.529167,0 h 0.529166 v -0.52917 h -0.529166 z m 0.529166,0 v 0.52917 h 0.529167 v -0.52917 z m 0.529167,0 h 0.529167 v -0.52917 H 91.01667 Z m 0.529167,0 v 0.52917 h 0.529166 v -0.52917 z m 0.529166,0 h 0.529167 v -0.52917 h -0.529167 z m 0.529167,0 v 0.52917 h 0.529167 v -0.52917 z m 0.529167,0 h 0.529166 v -0.52917 h -0.529166 z m 0.529166,0 v 0.52917 h 0.529167 v -0.52917 z m 0.529167,0 h 0.529167 v -0.52917 H 94.19167 Z m 0.529167,0 v 0.52917 h 0.529166 v -0.52917 z m 0.529166,0 h 0.529167 v -0.52917 h -0.529167 z m 0.529167,0 v 0.52917 h 0.529167 v -0.52917 z m 0.529167,0 h 0.529166 v -0.52917 h -0.529166 z m 0.529166,0 v 0.52917 h 0.529167 v -0.52917 z m 0.529167,0 h 0.529167 v -0.52917 H 97.36667 Z m 0.529167,0 v 0.52917 h 0.529166 v -0.52917 z m 0.529166,0 h 0.529167 v -0.52917 h -0.529167 z m 0.529167,0 v 0.52917 h 0.529167 v -0.52917 z m 0.529167,0 h 0.529163 v -0.52917 h -0.529163 z m 0.529163,0 v 0.52917 h 0.52917 v -0.52917 z m 0.52917,0 h 0.52917 v -0.52917 h -0.52917 z m 0.52917,0 v 0.52917 H 101.6 v -0.52917 z m 0.52916,0 h 0.52917 v -0.52917 H 101.6 Z m 0.52917,0 v 0.52917 h 0.52917 v -0.52917 z m 0.52917,0 h 0.52916 v -0.52917 h -0.52916 z m 0.52916,0 v 0.52917 h 0.52917 v -0.52917 z m 0.52917,0 h 0.52917 v -0.52917 h -0.52917 z m 0.52917,0 v 0.52917 h 0.52916 v -0.52917 z m 0.52916,0 h 0.52917 v -0.52917 H 104.775 Z m 0.52917,0 v 0.52917 h 0.52917 v -0.52917 z m 0.52917,0 h 0.52916 v -0.52917 h -0.52916 z m 0.52916,0 v 0.52917 h 0.52917 v -0.52917 z m 0.52917,0 h 0.52917 v -0.52917 h -0.52917 z m 0.52917,0 v 0.52917 H 107.95 v -0.52917 z m 0.52916,0 h 0.52917 v -0.52917 H 107.95 Z m 0.52917,0 v 0.52917 h 0.52917 v -0.52917 z m 0.52917,0 h 0.52916 v -0.52917 h -0.52916 z m 0.52916,0 v 0.52917 h 0.52917 v -0.52917 z m 0.52917,0 h 0.52917 v -0.52917 h -0.52917 z m 0.52917,0 v 0.52917 h 0.52916 v -0.52917 z m 0.52916,0 h 0.52917 v -0.52917 H 111.125 Z m 0.52917,0 v 0.52917 h 0.52917 v -0.52917 z m 0.52917,0 h 0.52916 v -0.52917 h -0.52916 z m 0.52916,0 v 0.52917 h 0.52917 v -0.52917 z m 0.52917,0 h 0.52917 v -0.52917 h -0.52917 z m 0.52917,0 v 0.52917 H 114.3 v -0.52917 z m 0.52916,0 h 0.52917 v -0.52917 H 114.3 Z m 0,0.52917 v 0.52916 h 0.52917 v -0.52916 z m 0,0.52916 h -0.52916 v 0.52917 H 114.3 Z m 0,0.52917 v 0.52917 h 0.52917 v -0.52917 z m 0,0.52917 h -0.52916 v 0.52916 H 114.3 Z m 0,0.52916 v 0.52917 h 0.52917 v -0.52917 z m 0,0.52917 h -0.52916 v 0.52917 H 114.3 Z m 0,0.52917 v 0.52916 h 0.52917 v -0.52916 z m 0,0.52916 h -0.52916 v 0.52917 H 114.3 Z m 0,0.52917 V 150.95 h 0.52917 v -0.52917 z m 0,0.52917 h -0.52916 v 0.52916 H 114.3 Z m 0,0.52916 v 0.52917 h 0.52917 v -0.52917 z m 0,0.52917 h -0.52916 v 0.52917 H 114.3 Z m 0,0.52917 v 0.52916 h 0.52917 v -0.52916 z m 0,0.52916 h -0.52916 v 0.52917 H 114.3 Z m 0,0.52917 v 0.52917 h 0.52917 v -0.52917 z m 0,0.52917 h -0.52916 v 0.52916 H 114.3 Z m 0,0.52916 v 0.52917 h 0.52917 v -0.52917 z m 0,0.52917 h -0.52916 v 0.52917 H 114.3 Z m 0,0.52917 v 0.52916 h 0.52917 v -0.52916 z m 0,0.52916 h -0.52916 v 0.52917 H 114.3 Z m 0,0.52917 V 157.3 h 0.52917 v -0.52917 z m 0,0.52917 h -0.52916 v 0.52916 H 114.3 Z m 0,0.52916 v 0.52917 h 0.52917 v -0.52917 z m 0,0.52917 h -0.52916 v 0.52917 H 114.3 Z m 0,0.52917 v 0.52916 h 0.52917 v -0.52916 z m 0,0.52916 h -0.52916 v 0.52917 H 114.3 Z m 0,0.52917 v 0.52917 h 0.52917 v -0.52917 z m 0,0.52917 h -0.52916 v 0.52916 H 114.3 Z m 0,0.52916 v 0.52917 h 0.52917 v -0.52917 z m 0,0.52917 h -0.52916 v 0.52917 H 114.3 Z m 0,0.52917 v 0.52916 h 0.52917 v -0.52916 z m 0,0.52916 h -0.52916 v 0.52917 H 114.3 Z m 0,0.52917 V 163.65 h 0.52917 v -0.52917 z m 0,0.52917 h -0.52916 v 0.52916 H 114.3 Z m 0,0.52916 v 0.52917 h 0.52917 v -0.52917 z m 0,0.52917 h -0.52916 v 0.52917 H 114.3 Z m 0,0.52917 v 0.52916 h 0.52917 v -0.52916 z m 0,0.52916 h -0.52916 v 0.52917 H 114.3 Z m -0.52916,0 v -0.52916 h -0.52917 v 0.52916 z m -0.52917,0 h -0.52917 v 0.52917 h 0.52917 z m -0.52917,0 v -0.52916 h -0.52916 v 0.52916 z m -0.52916,0 h -0.52917 v 0.52917 h 0.52917 z m -0.52917,0 V 165.2375 H 111.125 v 0.52916 z m -0.52917,0 h -0.52916 v 0.52917 h 0.52916 z m -0.52916,0 v -0.52916 h -0.52917 v 0.52916 z m -0.52917,0 h -0.52917 v 0.52917 h 0.52917 z m -0.52917,0 v -0.52916 h -0.52916 v 0.52916 z m -0.52916,0 h -0.52917 v 0.52917 h 0.52917 z m -0.52917,0 V 165.2375 H 107.95 v 0.52916 z m -0.52917,0 h -0.52916 v 0.52917 H 107.95 Z m -0.52916,0 v -0.52916 h -0.52917 v 0.52916 z m -0.52917,0 h -0.52917 v 0.52917 h 0.52917 z m -0.52917,0 v -0.52916 h -0.52916 v 0.52916 z m -0.52916,0 h -0.52917 v 0.52917 h 0.52917 z m -0.52917,0 V 165.2375 H 104.775 v 0.52916 z m -0.52917,0 h -0.52916 v 0.52917 h 0.52916 z m -0.52916,0 v -0.52916 h -0.52917 v 0.52916 z m -0.52917,0 h -0.52917 v 0.52917 h 0.52917 z m -0.52917,0 v -0.52916 h -0.52916 v 0.52916 z m -0.52916,0 h -0.52917 v 0.52917 h 0.52917 z m -0.52917,0 V 165.2375 H 101.6 v 0.52916 z m -0.52917,0 h -0.52916 v 0.52917 H 101.6 Z m -0.52916,0 v -0.52916 h -0.52917 v 0.52916 z m -0.52917,0 h -0.52917 v 0.52917 h 0.52917 z m -0.52917,0 v -0.52916 h -0.529163 v 0.52916 z m -0.529163,0 H 98.95417 v 0.52917 h 0.529167 z m -0.529167,0 v -0.52916 h -0.529167 v 0.52916 z m -0.529167,0 h -0.529166 v 0.52917 h 0.529166 z m -0.529166,0 V 165.2375 H 97.36667 v 0.52916 z m -0.529167,0 h -0.529167 v 0.52917 h 0.529167 z m -0.529167,0 v -0.52916 h -0.529166 v 0.52916 z m -0.529166,0 H 95.77917 v 0.52917 h 0.529167 z m -0.529167,0 v -0.52916 h -0.529167 v 0.52916 z m -0.529167,0 h -0.529166 v 0.52917 h 0.529166 z m -0.529166,0 V 165.2375 H 94.19167 v 0.52916 z m -0.529167,0 h -0.529167 v 0.52917 h 0.529167 z m -0.529167,0 v -0.52916 h -0.529166 v 0.52916 z m -0.529166,0 H 92.60417 v 0.52917 h 0.529167 z m -0.529167,0 v -0.52916 h -0.529167 v 0.52916 z m -0.529167,0 h -0.529166 v 0.52917 h 0.529166 z m -0.529166,0 V 165.2375 H 91.01667 v 0.52916 z m -0.529167,0 h -0.529167 v 0.52917 h 0.529167 z m -0.529167,0 v -0.52916 h -0.529166 v 0.52916 z m -0.529166,0 H 89.42917 v 0.52917 h 0.529167 z m -0.529167,0 v -0.52916 h -0.529167 v 0.52916 z m -0.529167,0 h -0.529167 v 0.52917 h 0.529167 z m -0.529167,0 V 165.2375 H 87.84167 v 0.52916 z m -0.529166,0 h -0.529167 v 0.52917 h 0.529167 z m -0.529167,0 v -0.52916 h -0.529167 v 0.52916 z m -0.529167,0 H 86.25417 v 0.52917 h 0.529166 z m -0.529166,0 v -0.52916 h -0.529167 v 0.52916 z m -0.529167,0 h -0.529167 v 0.52917 h 0.529167 z m -0.529167,0 V 165.2375 H 84.66667 v 0.52916 z m -0.529166,0 h -0.529167 v 0.52917 h 0.529167 z m 0,-0.52916 v -0.52917 h -0.529167 v 0.52917 z m 0,-0.52917 h 0.529166 v -0.52917 H 84.66667 Z m 0,-0.52917 V 163.65 h -0.529167 v 0.52916 z m 0,-0.52916 h 0.529166 v -0.52917 H 84.66667 Z m 0,-0.52917 v -0.52917 h -0.529167 v 0.52917 z m 0,-0.52917 h 0.529166 V 162.0625 H 84.66667 Z m 0,-0.52916 v -0.52917 h -0.529167 v 0.52917 z m 0,-0.52917 h 0.529166 v -0.52917 H 84.66667 Z m 0,-0.52917 V 160.475 h -0.529167 v 0.52916 z m 0,-0.52916 h 0.529166 v -0.52917 H 84.66667 Z m 0,-0.52917 v -0.52917 h -0.529167 v 0.52917 z m 0,-0.52917 h 0.529166 V 158.8875 H 84.66667 Z m 0,-0.52916 v -0.52917 h -0.529167 v 0.52917 z m 0,-0.52917 h 0.529166 v -0.52917 H 84.66667 Z m 0,-0.52917 V 157.3 h -0.529167 v 0.52916 z m 0,-0.52916 h 0.529166 v -0.52917 H 84.66667 Z m 0,-0.52917 v -0.52917 h -0.529167 v 0.52917 z m 0,-0.52917 h 0.529166 V 155.7125 H 84.66667 Z m 0,-0.52916 v -0.52917 h -0.529167 v 0.52917 z m 0,-0.52917 h 0.529166 v -0.52917 H 84.66667 Z m 0,-0.52917 V 154.125 h -0.529167 v 0.52916 z m 0,-0.52916 h 0.529166 v -0.52917 H 84.66667 Z m 0,-0.52917 v -0.52917 h -0.529167 v 0.52917 z m 0,-0.52917 h 0.529166 V 152.5375 H 84.66667 Z m 0,-0.52916 v -0.52917 h -0.529167 v 0.52917 z m 0,-0.52917 h 0.529166 v -0.52917 H 84.66667 Z m 0,-0.52917 V 150.95 h -0.529167 v 0.52916 z m 0,-0.52916 h 0.529166 v -0.52917 H 84.66667 Z m 0,-0.52917 v -0.52917 h -0.529167 v 0.52917 z m 0,-0.52917 h 0.529166 V 149.3625 H 84.66667 Z m 0,-0.52916 v -0.52917 h -0.529167 v 0.52917 z m 0,-0.52917 h 0.529166 v -0.52917 H 84.66667 Z m 0,-0.52917 V 147.775 h -0.529167 v 0.52916 z m 0,-0.52916 h 0.529166 v -0.52917 H 84.66667 Z m 0,-0.52917 v -0.52917 h -0.529167 v 0.52917 z m 0,-0.52917 h 0.529166 V 146.1875 H 84.66667 Z m 0,-0.52916 v -0.52917 h -0.529167 v 0.52917 z m 0.529166,0.52916 v 0.52917 h 0.529167 v -0.52917 z m 0.529167,0 h 0.529167 v -0.52916 h -0.529167 z m 0.529167,0 v 0.52917 h 0.529166 v -0.52917 z m 0.529166,0 h 0.529167 v -0.52916 h -0.529167 z m 0.529167,0 v 0.52917 h 0.529167 v -0.52917 z m 0.529167,0 h 0.529166 V 146.1875 H 87.84167 Z m 0.529166,0 v 0.52917 h 0.529167 v -0.52917 z m 0.529167,0 h 0.529167 v -0.52916 h -0.529167 z m 0.529167,0 v 0.52917 h 0.529167 v -0.52917 z m 0.529167,0 h 0.529166 v -0.52916 h -0.529166 z m 0.529166,0 v 0.52917 h 0.529167 v -0.52917 z m 0.529167,0 h 0.529167 V 146.1875 H 91.01667 Z m 0.529167,0 v 0.52917 h 0.529166 v -0.52917 z m 0.529166,0 h 0.529167 v -0.52916 h -0.529167 z m 0.529167,0 v 0.52917 h 0.529167 v -0.52917 z m 0.529167,0 h 0.529166 v -0.52916 h -0.529166 z m 0.529166,0 v 0.52917 h 0.529167 v -0.52917 z m 0.529167,0 h 0.529167 V 146.1875 H 94.19167 Z m 0.529167,0 v 0.52917 h 0.529166 v -0.52917 z m 0.529166,0 h 0.529167 v -0.52916 h -0.529167 z m 0.529167,0 v 0.52917 h 0.529167 v -0.52917 z m 0.529167,0 h 0.529166 v -0.52916 h -0.529166 z m 0.529166,0 v 0.52917 h 0.529167 v -0.52917 z m 0.529167,0 h 0.529167 V 146.1875 H 97.36667 Z m 0.529167,0 v 0.52917 h 0.529166 v -0.52917 z m 0.529166,0 h 0.529167 v -0.52916 h -0.529167 z m 0.529167,0 v 0.52917 h 0.529167 v -0.52917 z m 0.529167,0 h 0.529163 v -0.52916 h -0.529163 z m 0.529163,0 v 0.52917 h 0.52917 v -0.52917 z m 0.52917,0 h 0.52917 v -0.52916 h -0.52917 z m 0.52917,0 v 0.52917 H 101.6 v -0.52917 z m 0.52916,0 h 0.52917 V 146.1875 H 101.6 Z m 0.52917,0 v 0.52917 h 0.52917 v -0.52917 z m 0.52917,0 h 0.52916 v -0.52916 h -0.52916 z m 0.52916,0 v 0.52917 h 0.52917 v -0.52917 z m 0.52917,0 h 0.52917 v -0.52916 h -0.52917 z m 0.52917,0 v 0.52917 h 0.52916 v -0.52917 z m 0.52916,0 h 0.52917 V 146.1875 H 104.775 Z m 0.52917,0 v 0.52917 h 0.52917 v -0.52917 z m 0.52917,0 h 0.52916 v -0.52916 h -0.52916 z m 0.52916,0 v 0.52917 h 0.52917 v -0.52917 z m 0.52917,0 h 0.52917 v -0.52916 h -0.52917 z m 0.52917,0 v 0.52917 H 107.95 v -0.52917 z m 0.52916,0 h 0.52917 V 146.1875 H 107.95 Z m 0.52917,0 v 0.52917 h 0.52917 v -0.52917 z m 0.52917,0 h 0.52916 v -0.52916 h -0.52916 z m 0.52916,0 v 0.52917 h 0.52917 v -0.52917 z m 0.52917,0 h 0.52917 v -0.52916 h -0.52917 z m 0.52917,0 v 0.52917 h 0.52916 v -0.52917 z m 0.52916,0 h 0.52917 V 146.1875 H 111.125 Z m 0.52917,0 v 0.52917 h 0.52917 v -0.52917 z m 0.52917,0 h 0.52916 v -0.52916 h -0.52916 z m 0.52916,0 v 0.52917 h 0.52917 v -0.52917 z m 0.52917,0 h 0.52917 v -0.52916 h -0.52917 z m 0,0.52917 v 0.52917 h 0.52917 v -0.52917 z m 0,0.52917 h -0.52917 v 0.52916 h 0.52917 z m 0,0.52916 v 0.52917 h 0.52917 v -0.52917 z m 0,0.52917 h -0.52917 v 0.52917 h 0.52917 z m 0,0.52917 v 0.52916 h 0.52917 v -0.52916 z m 0,0.52916 h -0.52917 v 0.52917 h 0.52917 z m 0,0.52917 V 150.95 h 0.52917 v -0.52917 z m 0,0.52917 h -0.52917 v 0.52916 h 0.52917 z m 0,0.52916 v 0.52917 h 0.52917 v -0.52917 z m 0,0.52917 h -0.52917 v 0.52917 h 0.52917 z m 0,0.52917 v 0.52916 h 0.52917 v -0.52916 z m 0,0.52916 h -0.52917 v 0.52917 h 0.52917 z m 0,0.52917 v 0.52917 h 0.52917 v -0.52917 z m 0,0.52917 h -0.52917 v 0.52916 h 0.52917 z m 0,0.52916 v 0.52917 h 0.52917 v -0.52917 z m 0,0.52917 h -0.52917 v 0.52917 h 0.52917 z m 0,0.52917 v 0.52916 h 0.52917 v -0.52916 z m 0,0.52916 h -0.52917 v 0.52917 h 0.52917 z m 0,0.52917 V 157.3 h 0.52917 v -0.52917 z m 0,0.52917 h -0.52917 v 0.52916 h 0.52917 z m 0,0.52916 v 0.52917 h 0.52917 v -0.52917 z m 0,0.52917 h -0.52917 v 0.52917 h 0.52917 z m 0,0.52917 v 0.52916 h 0.52917 v -0.52916 z m 0,0.52916 h -0.52917 v 0.52917 h 0.52917 z m 0,0.52917 v 0.52917 h 0.52917 v -0.52917 z m 0,0.52917 h -0.52917 v 0.52916 h 0.52917 z m 0,0.52916 v 0.52917 h 0.52917 v -0.52917 z m 0,0.52917 h -0.52917 v 0.52917 h 0.52917 z m 0,0.52917 v 0.52916 h 0.52917 v -0.52916 z m 0,0.52916 h -0.52917 v 0.52917 h 0.52917 z m 0,0.52917 V 163.65 h 0.52917 v -0.52917 z m 0,0.52917 h -0.52917 v 0.52916 h 0.52917 z m 0,0.52916 v 0.52917 h 0.52917 v -0.52917 z m 0,0.52917 h -0.52917 v 0.52917 h 0.52917 z m -0.52917,0 v -0.52917 h -0.52916 v 0.52917 z m -0.52916,0 h -0.52917 v 0.52917 h 0.52917 z m -0.52917,0 v -0.52917 H 111.125 v 0.52917 z m -0.52917,0 h -0.52916 v 0.52917 h 0.52916 z m -0.52916,0 v -0.52917 h -0.52917 v 0.52917 z m -0.52917,0 h -0.52917 v 0.52917 h 0.52917 z m -0.52917,0 v -0.52917 h -0.52916 v 0.52917 z m -0.52916,0 h -0.52917 v 0.52917 h 0.52917 z m -0.52917,0 v -0.52917 H 107.95 v 0.52917 z m -0.52917,0 h -0.52916 v 0.52917 H 107.95 Z m -0.52916,0 v -0.52917 h -0.52917 v 0.52917 z m -0.52917,0 h -0.52917 v 0.52917 h 0.52917 z m -0.52917,0 v -0.52917 h -0.52916 v 0.52917 z m -0.52916,0 h -0.52917 v 0.52917 h 0.52917 z m -0.52917,0 v -0.52917 H 104.775 v 0.52917 z m -0.52917,0 h -0.52916 v 0.52917 h 0.52916 z m -0.52916,0 v -0.52917 h -0.52917 v 0.52917 z m -0.52917,0 h -0.52917 v 0.52917 h 0.52917 z m -0.52917,0 v -0.52917 h -0.52916 v 0.52917 z m -0.52916,0 h -0.52917 v 0.52917 h 0.52917 z m -0.52917,0 v -0.52917 H 101.6 v 0.52917 z m -0.52917,0 h -0.52916 v 0.52917 H 101.6 Z m -0.52916,0 v -0.52917 h -0.52917 v 0.52917 z m -0.52917,0 h -0.52917 v 0.52917 h 0.52917 z m -0.52917,0 v -0.52917 h -0.529163 v 0.52917 z m -0.529163,0 H 98.95417 v 0.52917 h 0.529167 z m -0.529167,0 v -0.52917 h -0.529167 v 0.52917 z m -0.529167,0 h -0.529166 v 0.52917 h 0.529166 z m -0.529166,0 v -0.52917 H 97.36667 v 0.52917 z m -0.529167,0 h -0.529167 v 0.52917 h 0.529167 z m -0.529167,0 v -0.52917 h -0.529166 v 0.52917 z m -0.529166,0 H 95.77917 v 0.52917 h 0.529167 z m -0.529167,0 v -0.52917 h -0.529167 v 0.52917 z m -0.529167,0 h -0.529166 v 0.52917 h 0.529166 z m -0.529166,0 v -0.52917 H 94.19167 v 0.52917 z m -0.529167,0 h -0.529167 v 0.52917 h 0.529167 z m -0.529167,0 v -0.52917 h -0.529166 v 0.52917 z m -0.529166,0 H 92.60417 v 0.52917 h 0.529167 z m -0.529167,0 v -0.52917 h -0.529167 v 0.52917 z m -0.529167,0 h -0.529166 v 0.52917 h 0.529166 z m -0.529166,0 v -0.52917 H 91.01667 v 0.52917 z m -0.529167,0 h -0.529167 v 0.52917 h 0.529167 z m -0.529167,0 v -0.52917 h -0.529166 v 0.52917 z m -0.529166,0 H 89.42917 v 0.52917 h 0.529167 z m -0.529167,0 v -0.52917 h -0.529167 v 0.52917 z m -0.529167,0 h -0.529167 v 0.52917 h 0.529167 z m -0.529167,0 v -0.52917 H 87.84167 v 0.52917 z m -0.529166,0 h -0.529167 v 0.52917 h 0.529167 z m -0.529167,0 v -0.52917 h -0.529167 v 0.52917 z m -0.529167,0 H 86.25417 v 0.52917 h 0.529166 z m -0.529166,0 v -0.52917 h -0.529167 v 0.52917 z m -0.529167,0 h -0.529167 v 0.52917 h 0.529167 z m 0,-0.52917 V 163.65 h -0.529167 v 0.52916 z m 0,-0.52916 h 0.529167 v -0.52917 h -0.529167 z m 0,-0.52917 v -0.52917 h -0.529167 v 0.52917 z m 0,-0.52917 h 0.529167 v -0.52916 h -0.529167 z m 0,-0.52916 v -0.52917 h -0.529167 v 0.52917 z m 0,-0.52917 h 0.529167 v -0.52917 h -0.529167 z m 0,-0.52917 V 160.475 h -0.529167 v 0.52916 z m 0,-0.52916 h 0.529167 v -0.52917 h -0.529167 z m 0,-0.52917 v -0.52917 h -0.529167 v 0.52917 z m 0,-0.52917 h 0.529167 v -0.52916 h -0.529167 z m 0,-0.52916 v -0.52917 h -0.529167 v 0.52917 z m 0,-0.52917 h 0.529167 v -0.52917 h -0.529167 z m 0,-0.52917 V 157.3 h -0.529167 v 0.52916 z m 0,-0.52916 h 0.529167 v -0.52917 h -0.529167 z m 0,-0.52917 v -0.52917 h -0.529167 v 0.52917 z m 0,-0.52917 h 0.529167 v -0.52916 h -0.529167 z m 0,-0.52916 v -0.52917 h -0.529167 v 0.52917 z m 0,-0.52917 h 0.529167 v -0.52917 h -0.529167 z m 0,-0.52917 V 154.125 h -0.529167 v 0.52916 z m 0,-0.52916 h 0.529167 v -0.52917 h -0.529167 z m 0,-0.52917 v -0.52917 h -0.529167 v 0.52917 z m 0,-0.52917 h 0.529167 v -0.52916 h -0.529167 z m 0,-0.52916 v -0.52917 h -0.529167 v 0.52917 z m 0,-0.52917 h 0.529167 v -0.52917 h -0.529167 z m 0,-0.52917 V 150.95 h -0.529167 v 0.52916 z m 0,-0.52916 h 0.529167 v -0.52917 h -0.529167 z m 0,-0.52917 v -0.52917 h -0.529167 v 0.52917 z m 0,-0.52917 h 0.529167 v -0.52916 h -0.529167 z m 0,-0.52916 v -0.52917 h -0.529167 v 0.52917 z m 0,-0.52917 h 0.529167 v -0.52917 h -0.529167 z m 0,-0.52917 V 147.775 h -0.529167 v 0.52916 z m 0,-0.52916 h 0.529167 v -0.52917 h -0.529167 z m 0.529167,0 v 0.52916 h 0.529166 V 147.775 Z m 0.529166,0 h 0.529167 v -0.52917 h -0.529167 z m 0.529167,0 v 0.52916 H 87.84167 V 147.775 Z m 0.529167,0 h 0.529166 v -0.52917 H 87.84167 Z m 0.529166,0 v 0.52916 h 0.529167 V 147.775 Z m 0.529167,0 h 0.529167 v -0.52917 h -0.529167 z m 0.529167,0 v 0.52916 h 0.529167 V 147.775 Z m 0.529167,0 h 0.529166 v -0.52917 h -0.529166 z m 0.529166,0 v 0.52916 H 91.01667 V 147.775 Z m 0.529167,0 h 0.529167 v -0.52917 H 91.01667 Z m 0.529167,0 v 0.52916 h 0.529166 V 147.775 Z m 0.529166,0 h 0.529167 v -0.52917 h -0.529167 z m 0.529167,0 v 0.52916 h 0.529167 V 147.775 Z m 0.529167,0 h 0.529166 v -0.52917 h -0.529166 z m 0.529166,0 v 0.52916 H 94.19167 V 147.775 Z m 0.529167,0 h 0.529167 v -0.52917 H 94.19167 Z m 0.529167,0 v 0.52916 h 0.529166 V 147.775 Z m 0.529166,0 h 0.529167 v -0.52917 h -0.529167 z m 0.529167,0 v 0.52916 h 0.529167 V 147.775 Z m 0.529167,0 h 0.529166 v -0.52917 h -0.529166 z m 0.529166,0 v 0.52916 H 97.36667 V 147.775 Z m 0.529167,0 h 0.529167 v -0.52917 H 97.36667 Z m 0.529167,0 v 0.52916 h 0.529166 V 147.775 Z m 0.529166,0 h 0.529167 v -0.52917 h -0.529167 z m 0.529167,0 v 0.52916 h 0.529167 V 147.775 Z m 0.529167,0 h 0.529163 v -0.52917 h -0.529163 z m 0.529163,0 v 0.52916 h 0.52917 V 147.775 Z m 0.52917,0 h 0.52917 v -0.52917 h -0.52917 z m 0.52917,0 v 0.52916 H 101.6 V 147.775 Z m 0.52916,0 h 0.52917 v -0.52917 H 101.6 Z m 0.52917,0 v 0.52916 h 0.52917 V 147.775 Z m 0.52917,0 h 0.52916 v -0.52917 h -0.52916 z m 0.52916,0 v 0.52916 h 0.52917 V 147.775 Z m 0.52917,0 h 0.52917 v -0.52917 h -0.52917 z m 0.52917,0 v 0.52916 H 104.775 V 147.775 Z m 0.52916,0 h 0.52917 v -0.52917 H 104.775 Z m 0.52917,0 v 0.52916 h 0.52917 V 147.775 Z m 0.52917,0 h 0.52916 v -0.52917 h -0.52916 z m 0.52916,0 v 0.52916 h 0.52917 V 147.775 Z m 0.52917,0 h 0.52917 v -0.52917 h -0.52917 z m 0.52917,0 v 0.52916 H 107.95 V 147.775 Z m 0.52916,0 h 0.52917 v -0.52917 H 107.95 Z m 0.52917,0 v 0.52916 h 0.52917 V 147.775 Z m 0.52917,0 h 0.52916 v -0.52917 h -0.52916 z m 0.52916,0 v 0.52916 h 0.52917 V 147.775 Z m 0.52917,0 h 0.52917 v -0.52917 h -0.52917 z m 0.52917,0 v 0.52916 H 111.125 V 147.775 Z m 0.52916,0 h 0.52917 v -0.52917 H 111.125 Z m 0.52917,0 v 0.52916 h 0.52917 V 147.775 Z m 0.52917,0 h 0.52916 v -0.52917 h -0.52916 z m 0,0.52916 v 0.52917 h 0.52916 v -0.52917 z m 0,0.52917 h -0.52917 v 0.52917 h 0.52917 z m 0,0.52917 v 0.52916 h 0.52916 v -0.52916 z m 0,0.52916 h -0.52917 v 0.52917 h 0.52917 z m 0,0.52917 V 150.95 h 0.52916 v -0.52917 z m 0,0.52917 h -0.52917 v 0.52916 h 0.52917 z m 0,0.52916 v 0.52917 h 0.52916 v -0.52917 z m 0,0.52917 h -0.52917 v 0.52917 h 0.52917 z m 0,0.52917 v 0.52916 h 0.52916 v -0.52916 z m 0,0.52916 h -0.52917 v 0.52917 h 0.52917 z m 0,0.52917 v 0.52917 h 0.52916 v -0.52917 z m 0,0.52917 h -0.52917 v 0.52916 h 0.52917 z m 0,0.52916 v 0.52917 h 0.52916 v -0.52917 z m 0,0.52917 h -0.52917 v 0.52917 h 0.52917 z m 0,0.52917 v 0.52916 h 0.52916 v -0.52916 z m 0,0.52916 h -0.52917 v 0.52917 h 0.52917 z m 0,0.52917 V 157.3 h 0.52916 v -0.52917 z m 0,0.52917 h -0.52917 v 0.52916 h 0.52917 z m 0,0.52916 v 0.52917 h 0.52916 v -0.52917 z m 0,0.52917 h -0.52917 v 0.52917 h 0.52917 z m 0,0.52917 v 0.52916 h 0.52916 v -0.52916 z m 0,0.52916 h -0.52917 v 0.52917 h 0.52917 z m 0,0.52917 v 0.52917 h 0.52916 v -0.52917 z m 0,0.52917 h -0.52917 v 0.52916 h 0.52917 z m 0,0.52916 v 0.52917 h 0.52916 v -0.52917 z m 0,0.52917 h -0.52917 v 0.52917 h 0.52917 z m 0,0.52917 v 0.52916 h 0.52916 v -0.52916 z m 0,0.52916 h -0.52917 v 0.52917 h 0.52917 z m 0,0.52917 V 163.65 h 0.52916 v -0.52917 z m 0,0.52917 h -0.52917 v 0.52916 h 0.52917 z m -0.52917,0 v -0.52917 H 111.125 V 163.65 Z m -0.52917,0 h -0.52916 v 0.52916 h 0.52916 z m -0.52916,0 v -0.52917 h -0.52917 V 163.65 Z m -0.52917,0 h -0.52917 v 0.52916 h 0.52917 z m -0.52917,0 v -0.52917 h -0.52916 V 163.65 Z m -0.52916,0 h -0.52917 v 0.52916 h 0.52917 z m -0.52917,0 v -0.52917 H 107.95 V 163.65 Z m -0.52917,0 h -0.52916 v 0.52916 H 107.95 Z m -0.52916,0 v -0.52917 h -0.52917 V 163.65 Z m -0.52917,0 h -0.52917 v 0.52916 h 0.52917 z m -0.52917,0 v -0.52917 h -0.52916 V 163.65 Z m -0.52916,0 h -0.52917 v 0.52916 h 0.52917 z m -0.52917,0 v -0.52917 H 104.775 V 163.65 Z m -0.52917,0 h -0.52916 v 0.52916 h 0.52916 z m -0.52916,0 v -0.52917 h -0.52917 V 163.65 Z m -0.52917,0 h -0.52917 v 0.52916 h 0.52917 z m -0.52917,0 v -0.52917 h -0.52916 V 163.65 Z m -0.52916,0 h -0.52917 v 0.52916 h 0.52917 z m -0.52917,0 v -0.52917 H 101.6 V 163.65 Z m -0.52917,0 h -0.52916 v 0.52916 H 101.6 Z m -0.52916,0 v -0.52917 h -0.52917 V 163.65 Z m -0.52917,0 h -0.52917 v 0.52916 h 0.52917 z m -0.52917,0 v -0.52917 H 99.483337 V 163.65 Z m -0.529163,0 H 98.95417 v 0.52916 h 0.529167 z m -0.529167,0 v -0.52917 H 98.425003 V 163.65 Z m -0.529167,0 h -0.529166 v 0.52916 h 0.529166 z m -0.529166,0 v -0.52917 H 97.36667 V 163.65 Z m -0.529167,0 h -0.529167 v 0.52916 h 0.529167 z m -0.529167,0 v -0.52917 H 96.308337 V 163.65 Z m -0.529166,0 H 95.77917 v 0.52916 h 0.529167 z m -0.529167,0 v -0.52917 H 95.250003 V 163.65 Z m -0.529167,0 h -0.529166 v 0.52916 h 0.529166 z m -0.529166,0 v -0.52917 H 94.19167 V 163.65 Z m -0.529167,0 h -0.529167 v 0.52916 h 0.529167 z m -0.529167,0 v -0.52917 H 93.133337 V 163.65 Z m -0.529166,0 H 92.60417 v 0.52916 h 0.529167 z m -0.529167,0 v -0.52917 H 92.075003 V 163.65 Z m -0.529167,0 h -0.529166 v 0.52916 h 0.529166 z m -0.529166,0 v -0.52917 H 91.01667 V 163.65 Z m -0.529167,0 h -0.529167 v 0.52916 h 0.529167 z m -0.529167,0 v -0.52917 H 89.958337 V 163.65 Z m -0.529166,0 H 89.42917 v 0.52916 h 0.529167 z m -0.529167,0 v -0.52917 H 88.900003 V 163.65 Z m -0.529167,0 h -0.529167 v 0.52916 h 0.529167 z m -0.529167,0 v -0.52917 H 87.84167 V 163.65 Z m -0.529166,0 h -0.529167 v 0.52916 h 0.529167 z m -0.529167,0 v -0.52917 H 86.783336 V 163.65 Z m -0.529167,0 H 86.25417 v 0.52916 h 0.529166 z m 0,-0.52917 v -0.52917 H 86.25417 v 0.52917 z m 0,-0.52917 h 0.529167 v -0.52916 h -0.529167 z m 0,-0.52916 v -0.52917 H 86.25417 v 0.52917 z m 0,-0.52917 h 0.529167 v -0.52917 h -0.529167 z m 0,-0.52917 V 160.475 H 86.25417 v 0.52916 z m 0,-0.52916 h 0.529167 v -0.52917 h -0.529167 z m 0,-0.52917 v -0.52917 H 86.25417 v 0.52917 z m 0,-0.52917 h 0.529167 v -0.52916 h -0.529167 z m 0,-0.52916 v -0.52917 H 86.25417 v 0.52917 z m 0,-0.52917 h 0.529167 v -0.52917 h -0.529167 z m 0,-0.52917 V 157.3 H 86.25417 v 0.52916 z m 0,-0.52916 h 0.529167 v -0.52917 h -0.529167 z m 0,-0.52917 v -0.52917 H 86.25417 v 0.52917 z m 0,-0.52917 h 0.529167 v -0.52916 h -0.529167 z m 0,-0.52916 v -0.52917 H 86.25417 v 0.52917 z m 0,-0.52917 h 0.529167 v -0.52917 h -0.529167 z m 0,-0.52917 V 154.125 H 86.25417 v 0.52916 z m 0,-0.52916 h 0.529167 v -0.52917 h -0.529167 z m 0,-0.52917 v -0.52917 H 86.25417 v 0.52917 z m 0,-0.52917 h 0.529167 v -0.52916 h -0.529167 z m 0,-0.52916 v -0.52917 H 86.25417 v 0.52917 z m 0,-0.52917 h 0.529167 v -0.52917 h -0.529167 z m 0,-0.52917 V 150.95 H 86.25417 v 0.52916 z m 0,-0.52916 h 0.529167 v -0.52917 h -0.529167 z m 0,-0.52917 v -0.52917 H 86.25417 v 0.52917 z m 0,-0.52917 h 0.529167 v -0.52916 h -0.529167 z m 0,-0.52916 v -0.52917 H 86.25417 v 0.52917 z m 0,-0.52917 h 0.529167 v -0.52917 h -0.529167 z m 0.529167,0 v 0.52917 h 0.529167 v -0.52917 z m 0.529167,0 h 0.529166 v -0.52917 H 87.84167 Z m 0.529166,0 v 0.52917 h 0.529167 v -0.52917 z m 0.529167,0 h 0.529167 v -0.52917 h -0.529167 z m 0.529167,0 v 0.52917 h 0.529167 v -0.52917 z m 0.529167,0 h 0.529166 v -0.52917 h -0.529166 z m 0.529166,0 v 0.52917 h 0.529167 v -0.52917 z m 0.529167,0 h 0.529167 v -0.52917 H 91.01667 Z m 0.529167,0 v 0.52917 h 0.529166 v -0.52917 z m 0.529166,0 h 0.529167 v -0.52917 h -0.529167 z m 0.529167,0 v 0.52917 h 0.529167 v -0.52917 z m 0.529167,0 h 0.529166 v -0.52917 h -0.529166 z m 0.529166,0 v 0.52917 h 0.529167 v -0.52917 z m 0.529167,0 h 0.529167 v -0.52917 H 94.19167 Z m 0.529167,0 v 0.52917 h 0.529166 v -0.52917 z m 0.529166,0 h 0.529167 v -0.52917 h -0.529167 z m 0.529167,0 v 0.52917 h 0.529167 v -0.52917 z m 0.529167,0 h 0.529166 v -0.52917 h -0.529166 z m 0.529166,0 v 0.52917 h 0.529167 v -0.52917 z m 0.529167,0 h 0.529167 v -0.52917 H 97.36667 Z m 0.529167,0 v 0.52917 h 0.529166 v -0.52917 z m 0.529166,0 h 0.529167 v -0.52917 h -0.529167 z m 0.529167,0 v 0.52917 h 0.529167 v -0.52917 z m 0.529167,0 h 0.529163 v -0.52917 h -0.529163 z m 0.529163,0 v 0.52917 h 0.52917 v -0.52917 z m 0.52917,0 h 0.52917 v -0.52917 h -0.52917 z m 0.52917,0 v 0.52917 H 101.6 v -0.52917 z m 0.52916,0 h 0.52917 v -0.52917 H 101.6 Z m 0.52917,0 v 0.52917 h 0.52917 v -0.52917 z m 0.52917,0 h 0.52916 v -0.52917 h -0.52916 z m 0.52916,0 v 0.52917 h 0.52917 v -0.52917 z m 0.52917,0 h 0.52917 v -0.52917 h -0.52917 z m 0.52917,0 v 0.52917 h 0.52916 v -0.52917 z m 0.52916,0 h 0.52917 v -0.52917 H 104.775 Z m 0.52917,0 v 0.52917 h 0.52917 v -0.52917 z m 0.52917,0 h 0.52916 v -0.52917 h -0.52916 z m 0.52916,0 v 0.52917 h 0.52917 v -0.52917 z m 0.52917,0 h 0.52917 v -0.52917 h -0.52917 z m 0.52917,0 v 0.52917 H 107.95 v -0.52917 z m 0.52916,0 h 0.52917 v -0.52917 H 107.95 Z m 0.52917,0 v 0.52917 h 0.52917 v -0.52917 z m 0.52917,0 h 0.52916 v -0.52917 h -0.52916 z m 0.52916,0 v 0.52917 h 0.52917 v -0.52917 z m 0.52917,0 h 0.52917 v -0.52917 h -0.52917 z m 0.52917,0 v 0.52917 h 0.52916 v -0.52917 z m 0.52916,0 h 0.52917 v -0.52917 H 111.125 Z m 0,0.52917 v 0.52916 h 0.52917 v -0.52916 z m 0,0.52916 h -0.52916 v 0.52917 h 0.52916 z m 0,0.52917 V 150.95 h 0.52917 v -0.52917 z m 0,0.52917 h -0.52916 v 0.52916 h 0.52916 z m 0,0.52916 v 0.52917 h 0.52917 v -0.52917 z m 0,0.52917 h -0.52916 v 0.52917 h 0.52916 z m 0,0.52917 v 0.52916 h 0.52917 v -0.52916 z m 0,0.52916 h -0.52916 v 0.52917 h 0.52916 z m 0,0.52917 v 0.52917 h 0.52917 v -0.52917 z m 0,0.52917 h -0.52916 v 0.52916 h 0.52916 z m 0,0.52916 v 0.52917 h 0.52917 v -0.52917 z m 0,0.52917 h -0.52916 v 0.52917 h 0.52916 z m 0,0.52917 v 0.52916 h 0.52917 v -0.52916 z m 0,0.52916 h -0.52916 v 0.52917 h 0.52916 z m 0,0.52917 V 157.3 h 0.52917 v -0.52917 z m 0,0.52917 h -0.52916 v 0.52916 h 0.52916 z m 0,0.52916 v 0.52917 h 0.52917 v -0.52917 z m 0,0.52917 h -0.52916 v 0.52917 h 0.52916 z m 0,0.52917 v 0.52916 h 0.52917 v -0.52916 z m 0,0.52916 h -0.52916 v 0.52917 h 0.52916 z m 0,0.52917 v 0.52917 h 0.52917 v -0.52917 z m 0,0.52917 h -0.52916 v 0.52916 h 0.52916 z m 0,0.52916 v 0.52917 h 0.52917 v -0.52917 z m 0,0.52917 h -0.52916 v 0.52917 h 0.52916 z m 0,0.52917 v 0.52916 h 0.52917 v -0.52916 z m 0,0.52916 h -0.52916 v 0.52917 h 0.52916 z m -0.52916,0 v -0.52916 h -0.52917 v 0.52916 z m -0.52917,0 h -0.52917 v 0.52917 h 0.52917 z m -0.52917,0 v -0.52916 h -0.52916 v 0.52916 z m -0.52916,0 h -0.52917 v 0.52917 h 0.52917 z m -0.52917,0 V 162.0625 H 107.95 v 0.52916 z m -0.52917,0 h -0.52916 v 0.52917 H 107.95 Z m -0.52916,0 v -0.52916 h -0.52917 v 0.52916 z m -0.52917,0 h -0.52917 v 0.52917 h 0.52917 z m -0.52917,0 v -0.52916 h -0.52916 v 0.52916 z m -0.52916,0 h -0.52917 v 0.52917 h 0.52917 z m -0.52917,0 V 162.0625 H 104.775 v 0.52916 z m -0.52917,0 h -0.52916 v 0.52917 h 0.52916 z m -0.52916,0 v -0.52916 h -0.52917 v 0.52916 z m -0.52917,0 h -0.52917 v 0.52917 h 0.52917 z m -0.52917,0 v -0.52916 h -0.52916 v 0.52916 z m -0.52916,0 h -0.52917 v 0.52917 h 0.52917 z m -0.52917,0 V 162.0625 H 101.6 v 0.52916 z m -0.52917,0 h -0.52916 v 0.52917 H 101.6 Z m -0.52916,0 v -0.52916 h -0.52917 v 0.52916 z m -0.52917,0 h -0.52917 v 0.52917 h 0.52917 z m -0.52917,0 v -0.52916 h -0.529163 v 0.52916 z m -0.529163,0 H 98.95417 v 0.52917 h 0.529167 z m -0.529167,0 v -0.52916 h -0.529167 v 0.52916 z m -0.529167,0 h -0.529166 v 0.52917 h 0.529166 z m -0.529166,0 V 162.0625 H 97.36667 v 0.52916 z m -0.529167,0 h -0.529167 v 0.52917 h 0.529167 z m -0.529167,0 v -0.52916 h -0.529166 v 0.52916 z m -0.529166,0 H 95.77917 v 0.52917 h 0.529167 z m -0.529167,0 v -0.52916 h -0.529167 v 0.52916 z m -0.529167,0 h -0.529166 v 0.52917 h 0.529166 z m -0.529166,0 V 162.0625 H 94.19167 v 0.52916 z m -0.529167,0 h -0.529167 v 0.52917 h 0.529167 z m -0.529167,0 v -0.52916 h -0.529166 v 0.52916 z m -0.529166,0 H 92.60417 v 0.52917 h 0.529167 z m -0.529167,0 v -0.52916 h -0.529167 v 0.52916 z m -0.529167,0 h -0.529166 v 0.52917 h 0.529166 z m -0.529166,0 V 162.0625 H 91.01667 v 0.52916 z m -0.529167,0 h -0.529167 v 0.52917 h 0.529167 z m -0.529167,0 v -0.52916 h -0.529166 v 0.52916 z m -0.529166,0 H 89.42917 v 0.52917 h 0.529167 z m -0.529167,0 v -0.52916 h -0.529167 v 0.52916 z m -0.529167,0 h -0.529167 v 0.52917 h 0.529167 z m -0.529167,0 V 162.0625 H 87.84167 v 0.52916 z m -0.529166,0 h -0.529167 v 0.52917 h 0.529167 z m 0,-0.52916 v -0.52917 h -0.529167 v 0.52917 z m 0,-0.52917 h 0.529166 v -0.52917 H 87.84167 Z m 0,-0.52917 V 160.475 h -0.529167 v 0.52916 z m 0.529166,0.52917 v 0.52917 h 0.529167 v -0.52917 z m 0.529167,0 h 0.529167 v -0.52917 h -0.529167 z m 0.529167,0 v 0.52917 h 0.529167 v -0.52917 z m 0.529167,0 h 0.529166 v -0.52917 h -0.529166 z m 0.529166,0 v 0.52917 h 0.529167 v -0.52917 z m 0.529167,0 h 0.529167 v -0.52917 H 91.01667 Z m 0.529167,0 v 0.52917 h 0.529166 v -0.52917 z m 0.529166,0 h 0.529167 v -0.52917 h -0.529167 z m 0.529167,0 v 0.52917 h 0.529167 v -0.52917 z m 0.529167,0 h 0.529166 v -0.52917 h -0.529166 z m 0.529166,0 v 0.52917 h 0.529167 v -0.52917 z m 0.529167,0 h 0.529167 v -0.52917 H 94.19167 Z m 0.529167,0 v 0.52917 h 0.529166 v -0.52917 z m 0.529166,0 h 0.529167 v -0.52917 h -0.529167 z m 0.529167,0 v 0.52917 h 0.529167 v -0.52917 z m 0.529167,0 h 0.529166 v -0.52917 h -0.529166 z m 0.529166,0 v 0.52917 h 0.529167 v -0.52917 z m 0.529167,0 h 0.529167 v -0.52917 H 97.36667 Z m 0.529167,0 v 0.52917 h 0.529166 v -0.52917 z m 0.529166,0 h 0.529167 v -0.52917 h -0.529167 z m 0.529167,0 v 0.52917 h 0.529167 v -0.52917 z m 0.529167,0 h 0.529163 v -0.52917 h -0.529163 z m 0.529163,0 v 0.52917 h 0.52917 v -0.52917 z m 0.52917,0 h 0.52917 v -0.52917 h -0.52917 z m 0.52917,0 v 0.52917 H 101.6 v -0.52917 z m 0.52916,0 h 0.52917 v -0.52917 H 101.6 Z m 0.52917,0 v 0.52917 h 0.52917 v -0.52917 z m 0.52917,0 h 0.52916 v -0.52917 h -0.52916 z m 0.52916,0 v 0.52917 h 0.52917 v -0.52917 z m 0.52917,0 h 0.52917 v -0.52917 h -0.52917 z m 0.52917,-0.52917 H 104.775 V 160.475 h -0.52916 z m 0,-0.52916 v -0.52917 h -0.52917 v 0.52917 z m 0,-0.52917 h 0.52916 v -0.52917 h -0.52916 z m 0,-0.52917 v -0.52916 h -0.52917 v 0.52916 z m 0,-0.52916 h 0.52916 v -0.52917 h -0.52916 z m 0,-0.52917 v -0.52917 h -0.52917 v 0.52917 z m 0,-0.52917 H 104.775 V 157.3 h -0.52916 z m 0,-0.52916 v -0.52917 h -0.52917 V 157.3 Z m 0,-0.52917 h 0.52916 v -0.52917 h -0.52916 z m 0,-0.52917 v -0.52916 h -0.52917 v 0.52916 z m 0,-0.52916 h 0.52916 v -0.52917 h -0.52916 z m 0,-0.52917 v -0.52917 h -0.52917 v 0.52917 z m 0,-0.52917 H 104.775 V 154.125 h -0.52916 z m 0,-0.52916 v -0.52917 h -0.52917 v 0.52917 z m 0,-0.52917 h 0.52916 v -0.52917 h -0.52916 z m 0,-0.52917 v -0.52916 h -0.52917 v 0.52916 z m 0,-0.52916 h 0.52916 v -0.52917 h -0.52916 z m 0,-0.52917 v -0.52917 h -0.52917 v 0.52917 z m 0,-0.52917 H 104.775 V 150.95 h -0.52916 z m 0,-0.52916 v -0.52917 h -0.52917 V 150.95 Z m 0,-0.52917 h 0.52916 v -0.52917 h -0.52916 z m 0,-0.52917 v -0.52916 h -0.52917 v 0.52916 z m 0.52916,0 h 0.52917 V 149.3625 H 104.775 Z m 0.52917,0 v 0.52917 h 0.52917 v -0.52917 z m 0.52917,0 h 0.52916 v -0.52916 h -0.52916 z m 0.52916,0 v 0.52917 h 0.52917 v -0.52917 z m 0.52917,0 h 0.52917 v -0.52916 h -0.52917 z m 0.52917,0 v 0.52917 H 107.95 v -0.52917 z m 0.52916,0 h 0.52917 V 149.3625 H 107.95 Z m 0.52917,0 v 0.52917 h 0.52917 v -0.52917 z m 0.52917,0 h 0.52916 v -0.52916 h -0.52916 z m 0.52916,0 v 0.52917 h 0.52917 v -0.52917 z m 0.52917,0 h 0.52917 v -0.52916 h -0.52917 z m 0,0.52917 V 150.95 h 0.52917 v -0.52917 z m 0,0.52917 h -0.52917 v 0.52916 h 0.52917 z m 0,0.52916 v 0.52917 h 0.52917 v -0.52917 z m 0,0.52917 h -0.52917 v 0.52917 h 0.52917 z m 0,0.52917 v 0.52916 h 0.52917 v -0.52916 z m 0,0.52916 h -0.52917 v 0.52917 h 0.52917 z m 0,0.52917 v 0.52917 h 0.52917 v -0.52917 z m 0,0.52917 h -0.52917 v 0.52916 h 0.52917 z m 0,0.52916 v 0.52917 h 0.52917 v -0.52917 z m 0,0.52917 h -0.52917 v 0.52917 h 0.52917 z m 0,0.52917 v 0.52916 h 0.52917 v -0.52916 z m 0,0.52916 h -0.52917 v 0.52917 h 0.52917 z m 0,0.52917 V 157.3 h 0.52917 v -0.52917 z m 0,0.52917 h -0.52917 v 0.52916 h 0.52917 z m 0,0.52916 v 0.52917 h 0.52917 v -0.52917 z m 0,0.52917 h -0.52917 v 0.52917 h 0.52917 z m 0,0.52917 v 0.52916 h 0.52917 v -0.52916 z m 0,0.52916 h -0.52917 v 0.52917 h 0.52917 z m 0,0.52917 v 0.52917 h 0.52917 v -0.52917 z m 0,0.52917 h -0.52917 v 0.52916 h 0.52917 z m 0,0.52916 v 0.52917 h 0.52917 v -0.52917 z m 0,0.52917 h -0.52917 v 0.52917 h 0.52917 z m -0.52917,0 v -0.52917 h -0.52916 v 0.52917 z m -0.52916,0 h -0.52917 v 0.52917 h 0.52917 z m -0.52917,0 v -0.52917 H 107.95 v 0.52917 z m -0.52917,0 h -0.52916 v 0.52917 H 107.95 Z m -0.52916,0 v -0.52917 h -0.52917 v 0.52917 z m -0.52917,0 h -0.52917 v 0.52917 h 0.52917 z m -0.52917,0 v -0.52917 h -0.52916 v 0.52917 z m -0.52916,0 h -0.52917 v 0.52917 h 0.52917 z m -0.52917,0 v -0.52917 H 104.775 v 0.52917 z m -0.52917,0 h -0.52916 v 0.52917 h 0.52916 z m 0.52917,-0.52917 h 0.52917 V 160.475 h -0.52917 z m 0,-0.52916 v -0.52917 H 104.775 v 0.52917 z m 0,-0.52917 h 0.52917 v -0.52917 h -0.52917 z m 0,-0.52917 V 158.8875 H 104.775 v 0.52916 z m 0,-0.52916 h 0.52917 v -0.52917 h -0.52917 z m 0,-0.52917 v -0.52917 H 104.775 v 0.52917 z m 0,-0.52917 h 0.52917 V 157.3 h -0.52917 z m 0,-0.52916 v -0.52917 H 104.775 V 157.3 Z m 0,-0.52917 h 0.52917 v -0.52917 h -0.52917 z m 0,-0.52917 V 155.7125 H 104.775 v 0.52916 z m 0,-0.52916 h 0.52917 v -0.52917 h -0.52917 z m 0,-0.52917 v -0.52917 H 104.775 v 0.52917 z m 0,-0.52917 h 0.52917 V 154.125 h -0.52917 z m 0,-0.52916 v -0.52917 H 104.775 v 0.52917 z m 0,-0.52917 h 0.52917 v -0.52917 h -0.52917 z m 0,-0.52917 V 152.5375 H 104.775 v 0.52916 z m 0,-0.52916 h 0.52917 v -0.52917 h -0.52917 z m 0,-0.52917 v -0.52917 H 104.775 v 0.52917 z m 0,-0.52917 h 0.52917 V 150.95 h -0.52917 z m 0,-0.52916 v -0.52917 H 104.775 V 150.95 Z m 0.52917,0 h 0.52916 v -0.52917 h -0.52916 z m 0.52916,0 v 0.52916 h 0.52917 V 150.95 Z m 0.52917,0 h 0.52917 v -0.52917 h -0.52917 z m 0.52917,0 v 0.52916 H 107.95 V 150.95 Z m 0.52916,0 h 0.52917 v -0.52917 H 107.95 Z m 0.52917,0 v 0.52916 h 0.52917 V 150.95 Z m 0.52917,0 h 0.52916 v -0.52917 h -0.52916 z m 0,0.52916 v 0.52917 h 0.52916 v -0.52917 z m 0,0.52917 h -0.52917 v 0.52917 h 0.52917 z m 0,0.52917 v 0.52916 h 0.52916 v -0.52916 z m 0,0.52916 h -0.52917 v 0.52917 h 0.52917 z m 0,0.52917 v 0.52917 h 0.52916 v -0.52917 z m 0,0.52917 h -0.52917 v 0.52916 h 0.52917 z m 0,0.52916 v 0.52917 h 0.52916 v -0.52917 z m 0,0.52917 h -0.52917 v 0.52917 h 0.52917 z m 0,0.52917 v 0.52916 h 0.52916 v -0.52916 z m 0,0.52916 h -0.52917 v 0.52917 h 0.52917 z m 0,0.52917 V 157.3 h 0.52916 v -0.52917 z m 0,0.52917 h -0.52917 v 0.52916 h 0.52917 z m 0,0.52916 v 0.52917 h 0.52916 v -0.52917 z m 0,0.52917 h -0.52917 v 0.52917 h 0.52917 z m 0,0.52917 v 0.52916 h 0.52916 v -0.52916 z m 0,0.52916 h -0.52917 v 0.52917 h 0.52917 z m 0,0.52917 v 0.52917 h 0.52916 v -0.52917 z m 0,0.52917 h -0.52917 v 0.52916 h 0.52917 z m -0.52917,0 v -0.52917 H 107.95 v 0.52917 z m -0.52917,0 h -0.52916 v 0.52916 H 107.95 Z m -0.52916,0 v -0.52917 h -0.52917 v 0.52917 z m -0.52917,0 h -0.52917 v 0.52916 h 0.52917 z m -0.52917,0 v -0.52917 h -0.52916 v 0.52917 z m 0,-0.52917 h 0.52917 v -0.52917 h -0.52917 z m 0,-0.52917 v -0.52916 h -0.52916 v 0.52916 z m 0,-0.52916 h 0.52917 v -0.52917 h -0.52917 z m 0,-0.52917 v -0.52917 h -0.52916 v 0.52917 z m 0,-0.52917 h 0.52917 V 157.3 h -0.52917 z m 0,-0.52916 v -0.52917 h -0.52916 V 157.3 Z m 0,-0.52917 h 0.52917 v -0.52917 h -0.52917 z m 0,-0.52917 v -0.52916 h -0.52916 v 0.52916 z m 0,-0.52916 h 0.52917 v -0.52917 h -0.52917 z m 0,-0.52917 v -0.52917 h -0.52916 v 0.52917 z m 0,-0.52917 h 0.52917 V 154.125 h -0.52917 z m 0,-0.52916 v -0.52917 h -0.52916 v 0.52917 z m 0,-0.52917 h 0.52917 v -0.52917 h -0.52917 z m 0,-0.52917 v -0.52916 h -0.52916 v 0.52916 z m 0,-0.52916 h 0.52917 v -0.52917 h -0.52917 z m 0,-0.52917 v -0.52917 h -0.52916 v 0.52917 z m 0.52917,0 h 0.52917 v -0.52917 h -0.52917 z m 0.52917,0 v 0.52917 H 107.95 v -0.52917 z m 0.52916,0 h 0.52917 v -0.52917 H 107.95 Z m 0,0.52917 v 0.52916 h 0.52917 v -0.52916 z m 0,0.52916 h -0.52916 v 0.52917 H 107.95 Z m 0,0.52917 v 0.52917 h 0.52917 v -0.52917 z m 0,0.52917 h -0.52916 v 0.52916 H 107.95 Z m 0,0.52916 v 0.52917 h 0.52917 v -0.52917 z m 0,0.52917 h -0.52916 v 0.52917 H 107.95 Z m 0,0.52917 v 0.52916 h 0.52917 v -0.52916 z m 0,0.52916 h -0.52916 v 0.52917 H 107.95 Z m 0,0.52917 V 157.3 h 0.52917 v -0.52917 z m 0,0.52917 h -0.52916 v 0.52916 H 107.95 Z m 0,0.52916 v 0.52917 h 0.52917 v -0.52917 z m 0,0.52917 h -0.52916 v 0.52917 H 107.95 Z m 0,0.52917 v 0.52916 h 0.52917 v -0.52916 z m 0,0.52916 h -0.52916 v 0.52917 H 107.95 Z m -0.52916,0 v -0.52916 h -0.52917 v 0.52916 z m 0,-1.05833 v -0.52917 h -0.52917 v 0.52917 z m 0,-1.05833 v -0.52917 h -0.52917 V 157.3 Z m 0,-1.05834 v -0.52916 h -0.52917 v 0.52916 z m 0,-1.05833 v -0.52917 h -0.52917 v 0.52917 z m 0,-1.05833 v -0.52917 h -0.52917 v 0.52917 z m 0,-1.05834 v -0.52916 h -0.52917 v 0.52916 z m -5.29167,-3.70416 H 101.6 v 0.52916 h 0.52917 z m 0,0.52916 v 0.52917 h 0.52917 v -0.52917 z m 0,0.52917 H 101.6 V 150.95 h 0.52917 z m 0,0.52917 v 0.52916 h 0.52917 V 150.95 Z m 0,0.52916 H 101.6 v 0.52917 h 0.52917 z m 0,0.52917 v 0.52917 h 0.52917 v -0.52917 z m 0,0.52917 H 101.6 v 0.52916 h 0.52917 z m 0,0.52916 v 0.52917 h 0.52917 v -0.52917 z m 0,0.52917 H 101.6 v 0.52917 h 0.52917 z m 0,0.52917 v 0.52916 h 0.52917 V 154.125 Z m 0,0.52916 H 101.6 v 0.52917 h 0.52917 z m 0,0.52917 v 0.52917 h 0.52917 v -0.52917 z m 0,0.52917 H 101.6 v 0.52916 h 0.52917 z m 0,0.52916 v 0.52917 h 0.52917 v -0.52917 z m 0,0.52917 H 101.6 V 157.3 h 0.52917 z m 0,0.52917 v 0.52916 h 0.52917 V 157.3 Z m 0,0.52916 H 101.6 v 0.52917 h 0.52917 z m 0,0.52917 v 0.52917 h 0.52917 v -0.52917 z m -0.52917,0 h -0.52916 v 0.52917 H 101.6 Z m -0.52916,0 v -0.52917 h -0.52917 v 0.52917 z m -0.52917,0 h -0.52917 v 0.52917 h 0.52917 z m -0.52917,0 v -0.52917 h -0.529163 v 0.52917 z m -0.529163,0 H 98.95417 v 0.52917 h 0.529167 z m -0.529167,0 v -0.52917 h -0.529167 v 0.52917 z m -0.529167,0 h -0.529166 v 0.52917 h 0.529166 z m -0.529166,0 v -0.52917 H 97.36667 v 0.52917 z m -0.529167,0 h -0.529167 v 0.52917 h 0.529167 z m -0.529167,0 v -0.52917 h -0.529166 v 0.52917 z m -0.529166,0 H 95.77917 v 0.52917 h 0.529167 z m -0.529167,0 v -0.52917 h -0.529167 v 0.52917 z m -0.529167,0 h -0.529166 v 0.52917 h 0.529166 z m -0.529166,0 v -0.52917 H 94.19167 v 0.52917 z m -0.529167,0 h -0.529167 v 0.52917 h 0.529167 z m -0.529167,0 v -0.52917 h -0.529166 v 0.52917 z m -0.529166,0 H 92.60417 v 0.52917 h 0.529167 z m -0.529167,0 v -0.52917 h -0.529167 v 0.52917 z m -0.529167,0 h -0.529166 v 0.52917 h 0.529166 z m -0.529166,0 v -0.52917 H 91.01667 v 0.52917 z m -0.529167,0 h -0.529167 v 0.52917 h 0.529167 z m -0.529167,0 v -0.52917 h -0.529166 v 0.52917 z m -0.529166,0 H 89.42917 v 0.52917 h 0.529167 z m -0.529167,0 v -0.52917 h -0.529167 v 0.52917 z m -0.529167,0 h -0.529167 v 0.52917 h 0.529167 z m -0.529167,0 v -0.52917 H 87.84167 v 0.52917 z m -0.529166,0 h -0.529167 v 0.52917 h 0.529167 z m 0,-0.52917 V 157.3 h -0.529167 v 0.52916 z m 0,-0.52916 h 0.529166 v -0.52917 H 87.84167 Z m 0,-0.52917 v -0.52917 h -0.529167 v 0.52917 z m 0,-0.52917 h 0.529166 V 155.7125 H 87.84167 Z m 0,-0.52916 v -0.52917 h -0.529167 v 0.52917 z m 0,-0.52917 h 0.529166 v -0.52917 H 87.84167 Z m 0,-0.52917 V 154.125 h -0.529167 v 0.52916 z m 0,-0.52916 h 0.529166 v -0.52917 H 87.84167 Z m 0,-0.52917 v -0.52917 h -0.529167 v 0.52917 z m 0,-0.52917 h 0.529166 V 152.5375 H 87.84167 Z m 0,-0.52916 v -0.52917 h -0.529167 v 0.52917 z m 0,-0.52917 h 0.529166 v -0.52917 H 87.84167 Z m 0,-0.52917 V 150.95 h -0.529167 v 0.52916 z m 0,-0.52916 h 0.529166 v -0.52917 H 87.84167 Z m 0,-0.52917 v -0.52917 h -0.529167 v 0.52917 z m 0,-0.52917 h 0.529166 V 149.3625 H 87.84167 Z m 0.529166,0 v 0.52917 h 0.529167 v -0.52917 z m 0.529167,0 h 0.529167 v -0.52916 h -0.529167 z m 0.529167,0 v 0.52917 h 0.529167 v -0.52917 z m 0.529167,0 h 0.529166 v -0.52916 h -0.529166 z m 0.529166,0 v 0.52917 h 0.529167 v -0.52917 z m 0.529167,0 h 0.529167 V 149.3625 H 91.01667 Z m 0.529167,0 v 0.52917 h 0.529166 v -0.52917 z m 0.529166,0 h 0.529167 v -0.52916 h -0.529167 z m 0.529167,0 v 0.52917 h 0.529167 v -0.52917 z m 0.529167,0 h 0.529166 v -0.52916 h -0.529166 z m 0.529166,0 v 0.52917 h 0.529167 v -0.52917 z m 0.529167,0 h 0.529167 V 149.3625 H 94.19167 Z m 0.529167,0 v 0.52917 h 0.529166 v -0.52917 z m 0.529166,0 h 0.529167 v -0.52916 h -0.529167 z m 0.529167,0 v 0.52917 h 0.529167 v -0.52917 z m 0.529167,0 h 0.529166 v -0.52916 h -0.529166 z m 0.529166,0 v 0.52917 h 0.529167 v -0.52917 z m 0.529167,0 h 0.529167 V 149.3625 H 97.36667 Z m 0.529167,0 v 0.52917 h 0.529166 v -0.52917 z m 0.529166,0 h 0.529167 v -0.52916 h -0.529167 z m 0.529167,0 v 0.52917 h 0.529167 v -0.52917 z m 0.529167,0 h 0.529163 v -0.52916 h -0.529163 z m 0.529163,0 v 0.52917 h 0.52917 v -0.52917 z m 0.52917,0 h 0.52917 v -0.52916 h -0.52917 z m 0.52917,0 v 0.52917 H 101.6 v -0.52917 z m 0,0.52917 h -0.52917 V 150.95 h 0.52917 z m 0,0.52917 v 0.52916 H 101.6 V 150.95 Z m 0,0.52916 h -0.52917 v 0.52917 h 0.52917 z m 0,0.52917 v 0.52917 H 101.6 v -0.52917 z m 0,0.52917 h -0.52917 v 0.52916 h 0.52917 z m 0,0.52916 v 0.52917 H 101.6 v -0.52917 z m 0,0.52917 h -0.52917 v 0.52917 h 0.52917 z m 0,0.52917 v 0.52916 H 101.6 V 154.125 Z m 0,0.52916 h -0.52917 v 0.52917 h 0.52917 z m 0,0.52917 v 0.52917 H 101.6 v -0.52917 z m 0,0.52917 h -0.52917 v 0.52916 h 0.52917 z m 0,0.52916 v 0.52917 H 101.6 v -0.52917 z m 0,0.52917 h -0.52917 V 157.3 h 0.52917 z m 0,0.52917 v 0.52916 H 101.6 V 157.3 Z m -0.52917,0 h -0.52917 v 0.52916 h 0.52917 z m -0.52917,0 v -0.52917 H 99.483337 V 157.3 Z m -0.529163,0 H 98.95417 v 0.52916 h 0.529167 z m -0.529167,0 v -0.52917 H 98.425003 V 157.3 Z m -0.529167,0 h -0.529166 v 0.52916 h 0.529166 z m -0.529166,0 v -0.52917 H 97.36667 V 157.3 Z m -0.529167,0 h -0.529167 v 0.52916 h 0.529167 z m -0.529167,0 v -0.52917 H 96.308337 V 157.3 Z m -0.529166,0 H 95.77917 v 0.52916 h 0.529167 z m -0.529167,0 v -0.52917 H 95.250003 V 157.3 Z m -0.529167,0 h -0.529166 v 0.52916 h 0.529166 z m -0.529166,0 v -0.52917 H 94.19167 V 157.3 Z m -0.529167,0 h -0.529167 v 0.52916 h 0.529167 z m -0.529167,0 v -0.52917 H 93.133337 V 157.3 Z m -0.529166,0 H 92.60417 v 0.52916 h 0.529167 z m -0.529167,0 v -0.52917 H 92.075003 V 157.3 Z m -0.529167,0 h -0.529166 v 0.52916 h 0.529166 z m -0.529166,0 v -0.52917 H 91.01667 V 157.3 Z m -0.529167,0 h -0.529167 v 0.52916 h 0.529167 z m -0.529167,0 v -0.52917 H 89.958337 V 157.3 Z m -0.529166,0 H 89.42917 v 0.52916 h 0.529167 z m -0.529167,0 v -0.52917 H 88.900003 V 157.3 Z m -0.529167,0 h -0.529167 v 0.52916 h 0.529167 z m 0,-0.52917 v -0.52917 h -0.529167 v 0.52917 z m 0,-0.52917 h 0.529167 v -0.52916 h -0.529167 z m 0,-0.52916 v -0.52917 h -0.529167 v 0.52917 z m 0,-0.52917 h 0.529167 v -0.52917 h -0.529167 z m 0,-0.52917 V 154.125 h -0.529167 v 0.52916 z m 0,-0.52916 h 0.529167 v -0.52917 h -0.529167 z m 0,-0.52917 v -0.52917 h -0.529167 v 0.52917 z m 0,-0.52917 h 0.529167 v -0.52916 h -0.529167 z m 0,-0.52916 v -0.52917 h -0.529167 v 0.52917 z m 0,-0.52917 h 0.529167 v -0.52917 h -0.529167 z m 0,-0.52917 V 150.95 h -0.529167 v 0.52916 z m 0,-0.52916 h 0.529167 v -0.52917 h -0.529167 z m 0.529167,0 v 0.52916 h 0.529167 V 150.95 Z m 0.529167,0 h 0.529166 v -0.52917 h -0.529166 z m 0.529166,0 v 0.52916 H 91.01667 V 150.95 Z m 0.529167,0 h 0.529167 v -0.52917 H 91.01667 Z m 0.529167,0 v 0.52916 h 0.529166 V 150.95 Z m 0.529166,0 h 0.529167 v -0.52917 h -0.529167 z m 0.529167,0 v 0.52916 h 0.529167 V 150.95 Z m 0.529167,0 h 0.529166 v -0.52917 h -0.529166 z m 0.529166,0 v 0.52916 H 94.19167 V 150.95 Z m 0.529167,0 h 0.529167 v -0.52917 H 94.19167 Z m 0.529167,0 v 0.52916 h 0.529166 V 150.95 Z m 0.529166,0 h 0.529167 v -0.52917 h -0.529167 z m 0.529167,0 v 0.52916 h 0.529167 V 150.95 Z m 0.529167,0 h 0.529166 v -0.52917 h -0.529166 z m 0.529166,0 v 0.52916 H 97.36667 V 150.95 Z m 0.529167,0 h 0.529167 v -0.52917 H 97.36667 Z m 0.529167,0 v 0.52916 h 0.529166 V 150.95 Z m 0.529166,0 h 0.529167 v -0.52917 h -0.529167 z m 0.529167,0 v 0.52916 h 0.529167 V 150.95 Z m 0.529167,0 h 0.529163 v -0.52917 h -0.529163 z m 0.529163,0 v 0.52916 h 0.52917 V 150.95 Z m 0,0.52916 h -0.529163 v 0.52917 h 0.529163 z m 0,0.52917 v 0.52917 h 0.52917 v -0.52917 z m 0,0.52917 h -0.529163 v 0.52916 h 0.529163 z m 0,0.52916 v 0.52917 h 0.52917 v -0.52917 z m 0,0.52917 h -0.529163 v 0.52917 h 0.529163 z m 0,0.52917 v 0.52916 h 0.52917 V 154.125 Z m 0,0.52916 h -0.529163 v 0.52917 h 0.529163 z m 0,0.52917 v 0.52917 h 0.52917 v -0.52917 z m 0,0.52917 h -0.529163 v 0.52916 h 0.529163 z m 0,0.52916 v 0.52917 h 0.52917 v -0.52917 z m -0.529163,0 H 98.95417 v 0.52917 h 0.529167 z m -0.529167,0 v -0.52916 h -0.529167 v 0.52916 z m -0.529167,0 h -0.529166 v 0.52917 h 0.529166 z m -0.529166,0 V 155.7125 H 97.36667 v 0.52916 z m -0.529167,0 h -0.529167 v 0.52917 h 0.529167 z m -0.529167,0 v -0.52916 h -0.529166 v 0.52916 z m -0.529166,0 H 95.77917 v 0.52917 h 0.529167 z m -0.529167,0 v -0.52916 h -0.529167 v 0.52916 z m -0.529167,0 h -0.529166 v 0.52917 h 0.529166 z m -0.529166,0 V 155.7125 H 94.19167 v 0.52916 z m -0.529167,0 h -0.529167 v 0.52917 h 0.529167 z m -0.529167,0 v -0.52916 h -0.529166 v 0.52916 z m -0.529166,0 H 92.60417 v 0.52917 h 0.529167 z m -0.529167,0 v -0.52916 h -0.529167 v 0.52916 z m -0.529167,0 h -0.529166 v 0.52917 h 0.529166 z m -0.529166,0 V 155.7125 H 91.01667 v 0.52916 z m -0.529167,0 h -0.529167 v 0.52917 h 0.529167 z m -0.529167,0 v -0.52916 h -0.529166 v 0.52916 z m -0.529166,0 H 89.42917 v 0.52917 h 0.529167 z m 0,-0.52916 v -0.52917 H 89.42917 v 0.52917 z m 0,-0.52917 h 0.529166 v -0.52917 h -0.529166 z m 0,-0.52917 V 154.125 H 89.42917 v 0.52916 z m 0,-0.52916 h 0.529166 v -0.52917 h -0.529166 z m 0,-0.52917 v -0.52917 H 89.42917 v 0.52917 z m 0,-0.52917 h 0.529166 v -0.52916 h -0.529166 z m 0,-0.52916 v -0.52917 H 89.42917 v 0.52917 z m 0,-0.52917 h 0.529166 v -0.52917 h -0.529166 z m 0.529166,0 v 0.52917 h 0.529167 v -0.52917 z m 0.529167,0 h 0.529167 v -0.52917 H 91.01667 Z m 0.529167,0 v 0.52917 h 0.529166 v -0.52917 z m 0.529166,0 h 0.529167 v -0.52917 h -0.529167 z m 0.529167,0 v 0.52917 h 0.529167 v -0.52917 z m 0.529167,0 h 0.529166 v -0.52917 h -0.529166 z m 0.529166,0 v 0.52917 h 0.529167 v -0.52917 z m 0.529167,0 h 0.529167 v -0.52917 H 94.19167 Z m 0.529167,0 v 0.52917 h 0.529166 v -0.52917 z m 0.529166,0 h 0.529167 v -0.52917 h -0.529167 z m 0.529167,0 v 0.52917 h 0.529167 v -0.52917 z m 0.529167,0 h 0.529166 v -0.52917 h -0.529166 z m 0.529166,0 v 0.52917 h 0.529167 v -0.52917 z m 0.529167,0 h 0.529167 v -0.52917 H 97.36667 Z m 0.529167,0 v 0.52917 h 0.529166 v -0.52917 z m 0.529166,0 h 0.529167 v -0.52917 h -0.529167 z m 0.529167,0 v 0.52917 h 0.529167 v -0.52917 z m 0,0.52917 h -0.529167 v 0.52916 h 0.529167 z m 0,0.52916 v 0.52917 h 0.529167 v -0.52917 z m 0,0.52917 h -0.529167 v 0.52917 h 0.529167 z m 0,0.52917 v 0.52916 h 0.529167 V 154.125 Z m 0,0.52916 h -0.529167 v 0.52917 h 0.529167 z m 0,0.52917 v 0.52917 h 0.529167 v -0.52917 z m -0.529167,0 h -0.529166 v 0.52917 h 0.529166 z m -0.529166,0 v -0.52917 H 97.36667 v 0.52917 z m -0.529167,0 h -0.529167 v 0.52917 h 0.529167 z m -0.529167,0 v -0.52917 h -0.529166 v 0.52917 z m -0.529166,0 H 95.77917 v 0.52917 h 0.529167 z m -0.529167,0 v -0.52917 h -0.529167 v 0.52917 z m -0.529167,0 h -0.529166 v 0.52917 h 0.529166 z m -0.529166,0 v -0.52917 H 94.19167 v 0.52917 z m -0.529167,0 h -0.529167 v 0.52917 h 0.529167 z m -0.529167,0 v -0.52917 h -0.529166 v 0.52917 z m -0.529166,0 H 92.60417 v 0.52917 h 0.529167 z m -0.529167,0 v -0.52917 h -0.529167 v 0.52917 z m -0.529167,0 h -0.529166 v 0.52917 h 0.529166 z m -0.529166,0 v -0.52917 H 91.01667 v 0.52917 z m -0.529167,0 h -0.529167 v 0.52917 h 0.529167 z m 0,-0.52917 V 154.125 h -0.529167 v 0.52916 z m 0,-0.52916 h 0.529167 v -0.52917 H 91.01667 Z m 0,-0.52917 v -0.52917 h -0.529167 v 0.52917 z m 0,-0.52917 h 0.529167 V 152.5375 H 91.01667 Z m 0.529167,0 v 0.52917 h 0.529166 v -0.52917 z m 0.529166,0 h 0.529167 v -0.52916 h -0.529167 z m 0.529167,0 v 0.52917 h 0.529167 v -0.52917 z m 0.529167,0 h 0.529166 v -0.52916 h -0.529166 z m 0.529166,0 v 0.52917 h 0.529167 v -0.52917 z m 0.529167,0 h 0.529167 V 152.5375 H 94.19167 Z m 0.529167,0 v 0.52917 h 0.529166 v -0.52917 z m 0.529166,0 h 0.529167 v -0.52916 h -0.529167 z m 0.529167,0 v 0.52917 h 0.529167 v -0.52917 z m 0.529167,0 h 0.529166 v -0.52916 h -0.529166 z m 0.529166,0 v 0.52917 h 0.529167 v -0.52917 z m 0.529167,0 h 0.529167 V 152.5375 H 97.36667 Z m 0.529167,0 v 0.52917 h 0.529166 v -0.52917 z m 0,0.52917 H 97.36667 v 0.52917 h 0.529167 z m 0,0.52917 v 0.52916 h 0.529166 V 154.125 Z m -0.529167,0 h -0.529167 v 0.52916 h 0.529167 z m -0.529167,0 v -0.52917 h -0.529166 v 0.52917 z m -0.529166,0 H 95.77917 v 0.52916 h 0.529167 z m -0.529167,0 v -0.52917 h -0.529167 v 0.52917 z m -0.529167,0 h -0.529166 v 0.52916 h 0.529166 z m -0.529166,0 v -0.52917 H 94.19167 v 0.52917 z m -0.529167,0 h -0.529167 v 0.52916 h 0.529167 z m -0.529167,0 v -0.52917 h -0.529166 v 0.52917 z m -0.529166,0 H 92.60417 v 0.52916 h 0.529167 z m -0.529167,0 v -0.52917 h -0.529167 v 0.52917 z m -0.529167,0 h -0.529166 v 0.52916 h 0.529166 z m -4.7625,5.29166 v 0.52917 h 0.529167 v -0.52917 z"
         style="opacity:0.5;fill:#ffffff;fill-opacity:1;stroke:none;stroke-width:0.5291667;stroke-linejoin:bevel;stroke-miterlimit:4;stroke-dasharray:none;stroke-opacity:1" />
      <path
         inkscape:connector-curvature="0"
         id="rect889-7-9-6-10"
         d="m 102.65834,149.3625 v 0.52916 h 0.52916 v -0.52916 z m 0.52916,0.52916 v 0.52917 h 0.52917 v -0.52917 z m 0,0.52917 h -0.52916 V 150.95 h 0.52916 z m 0,0.52917 v 0.52916 h 0.52917 V 150.95 Z m 0,0.52916 h -0.52916 v 0.52917 h 0.52916 z m 0,0.52917 v 0.52917 h 0.52917 v -0.52917 z m 0,0.52917 h -0.52916 v 0.52916 h 0.52916 z m 0,0.52916 v 0.52917 h 0.52917 v -0.52917 z m 0,0.52917 h -0.52916 v 0.52917 h 0.52916 z m 0,0.52917 v 0.52916 h 0.52917 V 154.125 Z m 0,0.52916 h -0.52916 v 0.52917 h 0.52916 z m 0,0.52917 v 0.52917 h 0.52917 v -0.52917 z m 0,0.52917 h -0.52916 v 0.52916 h 0.52916 z m 0,0.52916 v 0.52917 h 0.52917 v -0.52917 z m 0,0.52917 h -0.52916 V 157.3 h 0.52916 z m 0,0.52917 v 0.52916 h 0.52917 V 157.3 Z m 0,0.52916 h -0.52916 v 0.52917 h 0.52916 z m 0,0.52917 v 0.52917 h 0.52917 v -0.52917 z m 0,0.52917 h -0.52916 v 0.52916 h 0.52916 z m 0,0.52916 v 0.52917 h 0.52917 v -0.52917 z m 0,0.52917 h -0.52916 v 0.52917 h 0.52916 z m 0,0.52917 v 0.52916 h 0.52917 V 160.475 Z m -0.52916,0 h -0.52917 v 0.52916 h 0.52917 z m -0.52917,0 v -0.52917 H 101.6 v 0.52917 z m -0.52917,0 h -0.52916 v 0.52916 H 101.6 Z m -0.52916,0 v -0.52917 h -0.52917 v 0.52917 z m -0.52917,0 h -0.52917 v 0.52916 h 0.52917 z m -0.52917,0 v -0.52917 h -0.529163 v 0.52917 z m -0.529163,0 H 98.95417 v 0.52916 h 0.529167 z m -0.529167,0 v -0.52917 h -0.529167 v 0.52917 z m -0.529167,0 h -0.529166 v 0.52916 h 0.529166 z m -0.529166,0 v -0.52917 H 97.36667 v 0.52917 z m -0.529167,0 h -0.529167 v 0.52916 h 0.529167 z m -0.529167,0 v -0.52917 h -0.529166 v 0.52917 z m -0.529166,0 H 95.77917 v 0.52916 h 0.529167 z m -0.529167,0 v -0.52917 h -0.529167 v 0.52917 z m -0.529167,0 h -0.529166 v 0.52916 h 0.529166 z m -0.529166,0 v -0.52917 H 94.19167 v 0.52917 z m -0.529167,0 h -0.529167 v 0.52916 h 0.529167 z m -0.529167,0 v -0.52917 h -0.529166 v 0.52917 z m -0.529166,0 H 92.60417 v 0.52916 h 0.529167 z m -0.529167,0 v -0.52917 h -0.529167 v 0.52917 z m -0.529167,0 h -0.529166 v 0.52916 h 0.529166 z m -0.529166,0 v -0.52917 H 91.01667 v 0.52917 z m -0.529167,0 h -0.529167 v 0.52916 h 0.529167 z m -0.529167,0 v -0.52917 h -0.529166 v 0.52917 z m -0.529166,0 H 89.42917 v 0.52916 h 0.529167 z m -0.529167,0 v -0.52917 h -0.529167 v 0.52917 z m -0.529167,0 h -0.529167 v 0.52916 h 0.529167 z m -0.529167,0 v -0.52917 H 87.84167 v 0.52917 z"
         style="opacity:0.5;fill:#7a8e9e;fill-opacity:1;stroke:none;stroke-width:0.5291667;stroke-linejoin:bevel;stroke-miterlimit:4;stroke-dasharray:none;stroke-opacity:1" />
      <g
         id="g2098"
         transform="translate(-3.88e-6,8.87e-6)">
        <path
           style="opacity:1;fill:#7a8e9e;fill-opacity:1;stroke:none;stroke-width:2;stroke-linejoin:bevel;stroke-miterlimit:4;stroke-dasharray:none;stroke-opacity:1"
           d="M 80,58.000001 V 94 H 52 v 6 l -10e-7,2 H 110 v -2 -39.999999 c 0,-1.108017 -0.89201,-2 -2,-2 z"
           transform="matrix(0.26458334,0,0,0.26458334,82.550003,136.13333)"
           id="rect3828-6-2-1"
           inkscape:connector-curvature="0"
           sodipodi:nodetypes="cccccccssc" />
        <path
           sodipodi:nodetypes="ccccccccccccc"
           inkscape:connector-curvature="0"
           id="path3924"
           transform="matrix(0.26458334,0,0,0.26458334,82.550007,136.13332)"
           d="m 79.999984,60.000038 v 2 h 27.999996 v -2 z m 0,4 10e-7,30 h -26 L 54,100 h 54 l -2e-5,-35.999962 H 81.999984 Z"
           style="fill:#ffffff;stroke:none;stroke-width:1px;stroke-linecap:butt;stroke-linejoin:miter;stroke-opacity:1" />
      </g>
      <g
         id="g4822">
        <path
           style="opacity:1;fill:#7a8e9e;fill-opacity:1;stroke:none;stroke-width:0.5291667;stroke-linejoin:bevel;stroke-miterlimit:4;stroke-dasharray:none;stroke-opacity:1"
           d="m 87.841688,148.30416 h 14.287472 c 0.29317,0 0.52918,0.236 0.52918,0.52916 l -10e-6,10.58336 v 0.52916 H 87.3125 l -3e-6,-0.52916 9e-6,-10.58336 c 0,-0.29316 0.236015,-0.52916 0.529182,-0.52916 z"
           id="rect3828-6-2"
           inkscape:connector-curvature="0"
           sodipodi:nodetypes="sssccccss" />
        <rect
           style="opacity:1;fill:#ffffff;fill-opacity:1;stroke:none;stroke-width:0.5291667;stroke-linejoin:bevel;stroke-miterlimit:4;stroke-dasharray:none;stroke-opacity:1"
           id="rect3911"
           width="14.287492"
           height="10.05417"
           x="87.841675"
           y="149.3625"
           rx="7.6293945e-06"
           ry="3.0182423e-06" />
        <rect
           style="opacity:1;fill:#7a8e9e;fill-opacity:1;stroke:none;stroke-width:0.5291667;stroke-linejoin:bevel;stroke-miterlimit:4;stroke-dasharray:none;stroke-opacity:1"
           id="rect3930"
           width="1.5874974"
           height="1.587499"
           x="89.429169"
           y="150.42084"
           ry="2.0076563e-06" />
        <rect
           style="opacity:1;fill:#7a8e9e;fill-opacity:1;stroke:none;stroke-width:0.5291667;stroke-linejoin:bevel;stroke-miterlimit:4;stroke-dasharray:none;stroke-opacity:1"
           id="rect3936"
           width="1.5874974"
           height="0.52916366"
           x="89.429169"
           y="152.53751"
           ry="2.0076557e-06" />
        <rect
           style="opacity:1;fill:#7a8e9e;fill-opacity:1;stroke:none;stroke-width:0.5291667;stroke-linejoin:bevel;stroke-miterlimit:4;stroke-dasharray:none;stroke-opacity:1"
           id="rect3930-3"
           width="1.5874974"
           height="1.587499"
           x="92.074997"
           y="150.42084"
           ry="2.0076563e-06" />
        <rect
           style="opacity:1;fill:#7a8e9e;fill-opacity:1;stroke:none;stroke-width:0.5291667;stroke-linejoin:bevel;stroke-miterlimit:4;stroke-dasharray:none;stroke-opacity:1"
           id="rect3936-6"
           width="1.5874974"
           height="0.52916366"
           x="92.074997"
           y="152.53751"
           ry="2.0076557e-06" />
        <rect
           style="opacity:1;fill:#7a8e9e;fill-opacity:1;stroke:none;stroke-width:0.5291667;stroke-linejoin:bevel;stroke-miterlimit:4;stroke-dasharray:none;stroke-opacity:1"
           id="rect3930-7"
           width="1.5874974"
           height="1.587499"
           x="94.720833"
           y="150.42084"
           ry="2.0076563e-06" />
        <rect
           style="opacity:1;fill:#7a8e9e;fill-opacity:1;stroke:none;stroke-width:0.5291667;stroke-linejoin:bevel;stroke-miterlimit:4;stroke-dasharray:none;stroke-opacity:1"
           id="rect3936-5"
           width="1.5874974"
           height="0.52916366"
           x="94.720833"
           y="152.53751"
           ry="2.0076557e-06" />
      </g>
    </g>
  </g>
</svg>
