<?xml version="1.0" encoding="UTF-8" standalone="no"?>
<svg
   xmlns:dc="http://purl.org/dc/elements/1.1/"
   xmlns:cc="http://creativecommons.org/ns#"
   xmlns:rdf="http://www.w3.org/1999/02/22-rdf-syntax-ns#"
   xmlns:svg="http://www.w3.org/2000/svg"
   xmlns="http://www.w3.org/2000/svg"
   xmlns:sodipodi="http://sodipodi.sourceforge.net/DTD/sodipodi-0.dtd"
   xmlns:inkscape="http://www.inkscape.org/namespaces/inkscape"
   sodipodi:docname="audacity.svg"
   viewBox="0 0 16 16"
   inkscape:version="1.0.1 (3bc2e813f5, 2020-09-07)"
   version="1.1"
   id="svg4159"
   height="16"
   width="16">
  <title
     id="title815">Boston Icons</title>
  <defs
     id="defs4161">
    <inkscape:perspective
       id="perspective4709"
       inkscape:persp3d-origin="8 : 5.3333333 : 1"
       inkscape:vp_z="16 : 8 : 1"
       inkscape:vp_y="0 : 1000 : 0"
       inkscape:vp_x="0 : 8 : 1"
       sodipodi:type="inkscape:persp3d" />
    <clipPath
       id="clipPath5603"
       clipPathUnits="userSpaceOnUse">
      <path
         inkscape:connector-curvature="0"
         id="path5605"
         d="m 61.912499,165.76667 -6.879168,6.87917 6.879168,6.87916 6.879167,-6.87916 z"
         style="fill:#00ffff;fill-opacity:1;stroke:none;stroke-width:0.26458335px;stroke-linecap:butt;stroke-linejoin:miter;stroke-opacity:1" />
    </clipPath>
  </defs>
  <sodipodi:namedview
     inkscape:document-rotation="0"
     inkscape:guide-bbox="true"
     showguides="false"
     inkscape:window-maximized="1"
     inkscape:window-y="0"
     inkscape:window-x="0"
     inkscape:window-height="1016"
     inkscape:window-width="1920"
     inkscape:document-units="px"
     inkscape:grid-bbox="true"
     showgrid="false"
     inkscape:current-layer="g846"
     inkscape:cy="8.3138107"
     inkscape:cx="9.9868413"
     inkscape:zoom="31.392433"
     inkscape:pageshadow="2"
     inkscape:pageopacity="0"
     borderopacity="1"
     bordercolor="#00fff6"
     pagecolor="#ffffff"
     id="base">
    <inkscape:grid
       id="grid4707"
       type="xygrid" />
    <sodipodi:guide
       inkscape:locked="false"
       id="guide3096"
       orientation="1,0"
       position="8,9" />
    <sodipodi:guide
       inkscape:locked="false"
       id="guide3098"
       orientation="0,1"
       position="12,8" />
  </sodipodi:namedview>
  <metadata
     id="metadata4164">
    <rdf:RDF>
      <cc:Work
         rdf:about="">
        <dc:format>image/svg+xml</dc:format>
        <dc:type
           rdf:resource="http://purl.org/dc/dcmitype/StillImage" />
        <dc:title>Boston Icons</dc:title>
        <cc:license
           rdf:resource="dribbble.com/chrisdiaz" />
        <dc:creator>
          <cc:Agent>
            <dc:title>Christian Díaz</dc:title>
          </cc:Agent>
        </dc:creator>
        <dc:description>dribbble.com/chrisdiaz | diazchris.deviantart.com</dc:description>
        <dc:date>2020</dc:date>
        <dc:publisher>
          <cc:Agent>
            <dc:title>Christian Díaz</dc:title>
          </cc:Agent>
        </dc:publisher>
        <dc:identifier>christiandiaz.design [at] gmail [dot] com</dc:identifier>
        <dc:subject>
          <rdf:Bag>
            <rdf:li>GNOME icon Theme</rdf:li>
          </rdf:Bag>
        </dc:subject>
      </cc:Work>
    </rdf:RDF>
  </metadata>
  <g
     inkscape:groupmode="layer"
     inkscape:label="Layer 1"
     id="layer1">
    <g
       id="g843">
      <g
         id="g846">
        <g
           id="g914">
          <path
             id="path844"
             style="fill:#2d8cff;stroke-width:2;stroke-linejoin:round"
             d="M 7.90625,0 C 4.0769179,0.05129028 0.99965652,3.1703244 1,7 0.99979073,7.03125 0.99979073,7.0625 1,7.09375 V 10 H 0 v 4 h 1 v 1 h 2 1 c 0.554,0 1,-0.446 1,-1 V 10 C 5,9.446 4.554,9 4,9 H 3 V 7 C 3,4.2385763 5.2385763,2 8,2 c 2.761424,0 5,2.2385763 5,5 v 2 h -1 c -0.554,0 -1,0.446 -1,1 v 4 c 0,0.554 0.446,1 1,1 h 1 2 v -1 h 1 L 15.980995,9.9350015 15,10 V 7 C 15,3.1340068 11.865993,0 8,0 7.96875,-2.0926574e-4 7.9375,-2.0926574e-4 7.90625,0 Z"
             sodipodi:nodetypes="cccccccccsssscssscssssccccccscc" />
          <path
             id="path875"
             style="fill:#6fb7ff;stroke-width:2;stroke-linejoin:round"
             d="M 8,1 A 6,6 0 0 0 2,7 v 3 1 H 1 v 2 h 1 v 1 H 3 4 V 10 H 3 V 7 a 5,5 0 0 1 5,-5 5,5 0 0 1 5,5 v 3 h -1 v 4 h 1 1 v -1 h 1 V 11 H 14 V 7 A 6,6 0 0 0 8,1 Z" />
          <path
             style="fill:none;stroke:#ffa803;stroke-width:1px;stroke-linecap:butt;stroke-linejoin:miter;stroke-opacity:1"
             d="m 6,12 1,-2 2,4 1,-2"
             id="path909" />
        </g>
      </g>
    </g>
  </g>
</svg>
