<?xml version="1.0" encoding="UTF-8" standalone="no"?>
<svg
   xmlns:dc="http://purl.org/dc/elements/1.1/"
   xmlns:cc="http://creativecommons.org/ns#"
   xmlns:rdf="http://www.w3.org/1999/02/22-rdf-syntax-ns#"
   xmlns:svg="http://www.w3.org/2000/svg"
   xmlns="http://www.w3.org/2000/svg"
   xmlns:sodipodi="http://sodipodi.sourceforge.net/DTD/sodipodi-0.dtd"
   xmlns:inkscape="http://www.inkscape.org/namespaces/inkscape"
   width="16"
   height="16"
   id="svg4159"
   version="1.1"
   inkscape:version="1.0.1 (3bc2e813f5, 2020-09-07)"
   viewBox="0 0 16 16"
   sodipodi:docname="epsxe.svg">
  <title
     id="title4518">Boston Icons</title>
  <defs
     id="defs4161">
    <inkscape:perspective
       sodipodi:type="inkscape:persp3d"
       inkscape:vp_x="0 : 8 : 1"
       inkscape:vp_y="0 : 1000 : 0"
       inkscape:vp_z="16 : 8 : 1"
       inkscape:persp3d-origin="8 : 5.3333333 : 1"
       id="perspective4709" />
  </defs>
  <sodipodi:namedview
     id="base"
     pagecolor="#ffffff"
     bordercolor="#00fff6"
     borderopacity="1"
     inkscape:pageopacity="0"
     inkscape:pageshadow="2"
     inkscape:zoom="31.392433"
     inkscape:cx="9.8773278"
     inkscape:cy="5.9499925"
     inkscape:current-layer="layer1"
     showgrid="false"
     inkscape:grid-bbox="true"
     inkscape:document-units="px"
     inkscape:window-width="1920"
     inkscape:window-height="1016"
     inkscape:window-x="0"
     inkscape:window-y="0"
     inkscape:window-maximized="1"
     showguides="true"
     inkscape:guide-bbox="true"
     inkscape:document-rotation="0"
     inkscape:lockguides="true">
    <inkscape:grid
       type="xygrid"
       id="grid4707" />
  </sodipodi:namedview>
  <metadata
     id="metadata4164">
    <rdf:RDF>
      <cc:Work
         rdf:about="">
        <dc:format>image/svg+xml</dc:format>
        <dc:type
           rdf:resource="http://purl.org/dc/dcmitype/StillImage" />
        <dc:title>Boston Icons</dc:title>
        <cc:license
           rdf:resource="dribbble.com/chrisdiaz" />
        <dc:creator>
          <cc:Agent>
            <dc:title>Christian Díaz</dc:title>
          </cc:Agent>
        </dc:creator>
        <dc:description>dribbble.com/chrisdiaz | diazchris.deviantart.com</dc:description>
        <dc:date>2020</dc:date>
        <dc:publisher>
          <cc:Agent>
            <dc:title>Christian Díaz</dc:title>
          </cc:Agent>
        </dc:publisher>
        <dc:subject>
          <rdf:Bag>
            <rdf:li>GNOME icon Theme</rdf:li>
          </rdf:Bag>
        </dc:subject>
        <dc:identifier>christiandiaz.design [at] gmail [dot] com</dc:identifier>
      </cc:Work>
    </rdf:RDF>
  </metadata>
  <g
     id="layer1"
     inkscape:label="Layer 1"
     inkscape:groupmode="layer">
    <g
       id="g838">
      <rect
         style="fill:#cdd5d9;stroke-width:2;stroke-linejoin:round"
         id="rect834"
         width="15.999999"
         height="14"
         x="0"
         y="2" />
      <path
         id="rect4136"
         style="opacity:1;fill:#556e81;fill-opacity:1;fill-rule:nonzero;stroke:none;stroke-width:0.5;stroke-linecap:square;stroke-linejoin:miter;stroke-miterlimit:4;stroke-dasharray:none;stroke-dashoffset:0;stroke-opacity:1"
         d="M 0,2 V 16 H 2 16 V 14 2 H 14 2 Z M 2,4 H 5 6 V 5.5117188 C 4.7621661,6.2263825 3.9997348,7.547235 4,8.9765625 3.9997349,10.40589 4.7621661,11.726742 6,12.441406 V 14 H 2 Z m 8,0 h 1 3 V 14 H 10 V 12.439453 C 11.23723,11.725138 11.999567,10.405192 12,8.9765625 11.999567,7.5479328 11.23723,6.2279867 10,5.5136719 Z M 7.9492188,7 h 0.00195 C 7.9674473,6.9998013 7.9837246,6.9998013 8,7 9.1045695,7 10,7.8954305 10,9 10,10.104569 9.1045695,11 8,11 6.8954305,11 6,10.104569 6,9 5.9996502,7.9149617 6.8645302,7.0275497 7.9492188,7 Z M 7,12.847656 c 0.3265618,0.08498 0.6625638,0.128289 1,0.128906 0.3373532,2.1e-5 0.6733538,-0.04264 1,-0.126953 V 14 H 7 Z"
         sodipodi:nodetypes="ccccccccccccccccccccccccccccccsscccccccc" />
    </g>
  </g>
</svg>
