<?xml version="1.0" encoding="UTF-8" standalone="no"?>
<!-- Created with Inkscape (http://www.inkscape.org/) -->

<svg
   width="16"
   height="16"
   id="svg4159"
   version="1.1"
   inkscape:version="1.1.2 (0a00cf5339, 2022-02-04, custom)"
   viewBox="0 0 16 16"
   sodipodi:docname="folder-brown.svg"
   xmlns:inkscape="http://www.inkscape.org/namespaces/inkscape"
   xmlns:sodipodi="http://sodipodi.sourceforge.net/DTD/sodipodi-0.dtd"
   xmlns="http://www.w3.org/2000/svg"
   xmlns:svg="http://www.w3.org/2000/svg"
   xmlns:rdf="http://www.w3.org/1999/02/22-rdf-syntax-ns#"
   xmlns:cc="http://creativecommons.org/ns#"
   xmlns:dc="http://purl.org/dc/elements/1.1/">
  <title
     id="title815">Boston Icons</title>
  <defs
     id="defs4161">
    <inkscape:perspective
       sodipodi:type="inkscape:persp3d"
       inkscape:vp_x="0 : 8 : 1"
       inkscape:vp_y="0 : 1000 : 0"
       inkscape:vp_z="16 : 8 : 1"
       inkscape:persp3d-origin="8 : 5.3333333 : 1"
       id="perspective4709" />
  </defs>
  <sodipodi:namedview
     id="base"
     pagecolor="#ffffff"
     bordercolor="#00fff6"
     borderopacity="1"
     inkscape:pageopacity="0"
     inkscape:pageshadow="2"
     inkscape:zoom="44.395604"
     inkscape:cx="11.239852"
     inkscape:cy="5.4397278"
     inkscape:current-layer="layer1"
     showgrid="false"
     inkscape:grid-bbox="true"
     inkscape:document-units="px"
     inkscape:window-width="1920"
     inkscape:window-height="1011"
     inkscape:window-x="0"
     inkscape:window-y="0"
     inkscape:window-maximized="1"
     showguides="true"
     inkscape:guide-bbox="true"
     inkscape:pagecheckerboard="0">
    <inkscape:grid
       type="xygrid"
       id="grid4707" />
  </sodipodi:namedview>
  <metadata
     id="metadata4164">
    <rdf:RDF>
      <cc:Work
         rdf:about="">
        <dc:format>image/svg+xml</dc:format>
        <dc:type
           rdf:resource="http://purl.org/dc/dcmitype/StillImage" />
        <dc:title>Boston Icons</dc:title>
        <cc:license
           rdf:resource="dribbble.com/chrisdiaz" />
        <dc:creator>
          <cc:Agent>
            <dc:title>Christian Díaz</dc:title>
          </cc:Agent>
        </dc:creator>
        <dc:date>2022</dc:date>
        <dc:publisher>
          <cc:Agent>
            <dc:title>Christian Díaz</dc:title>
          </cc:Agent>
        </dc:publisher>
        <dc:identifier>christiandiaz.design [at] gmail [dot] com</dc:identifier>
        <dc:subject>
          <rdf:Bag>
            <rdf:li>GNOME icon Theme</rdf:li>
          </rdf:Bag>
        </dc:subject>
        <dc:description>dribbble.com/chrisdiaz | diazchris.deviantart.com</dc:description>
      </cc:Work>
    </rdf:RDF>
  </metadata>
  <g
     id="layer1"
     inkscape:label="Layer 1"
     inkscape:groupmode="layer">
    <g
       id="g2284">
      <path
         id="rect4136"
         style="fill:#a57b50;fill-opacity:1;fill-rule:nonzero;stroke:none;stroke-width:0.5;stroke-linecap:round;stroke-linejoin:miter;stroke-miterlimit:4;stroke-dasharray:none;stroke-dashoffset:0;stroke-opacity:1"
         d="M 2 1 A 2 2 0 0 0 1.4824219 1.0683594 A 2 2 0 0 0 1 1.2675781 A 2 2 0 0 0 0.5859375 1.5859375 A 2 2 0 0 0 0.26757812 2 A 2 2 0 0 0 0.068359375 2.4824219 A 2 2 0 0 0 0 3 L 0 16 L 2 16 L 14 16 L 16 16 L 16 5 L 16 4.0390625 A 1 1 0 0 0 16 4 A 1 1 0 0 0 16 3.9941406 A 1 1 0 0 0 16 3.984375 A 1 1 0 0 0 16 3.9785156 A 1 1 0 0 0 16 3.96875 A 1 1 0 0 0 16 3.9589844 A 1 1 0 0 0 15.998047 3.9492188 A 1 1 0 0 0 15.998047 3.9433594 A 1 1 0 0 0 15.998047 3.9335938 A 1 1 0 0 0 15.998047 3.9238281 A 1 1 0 0 0 15.996094 3.9140625 A 1 1 0 0 0 15.996094 3.9082031 A 1 1 0 0 0 15.996094 3.8984375 A 1 1 0 0 0 15.994141 3.8886719 A 1 1 0 0 0 15.994141 3.8828125 A 1 1 0 0 0 15.992188 3.8730469 A 1 1 0 0 0 15.992188 3.8691406 A 1 1 0 0 0 15.966797 3.7402344 A 1 1 0 0 0 15.923828 3.6171875 A 1 1 0 0 0 15.865234 3.5 A 1 1 0 0 0 15.792969 3.390625 A 1 1 0 0 0 15.707031 3.2929688 A 1 1 0 0 0 15.609375 3.2070312 A 1 1 0 0 0 15.5 3.1347656 A 1 1 0 0 0 15.382812 3.0761719 A 1 1 0 0 0 15.259766 3.0332031 A 1 1 0 0 0 15.130859 3.0078125 A 1 1 0 0 0 15 3 L 9 3 L 7 1 L 2 1 z M 15.990234 4.1367188 A 1 1 0 0 1 15.988281 4.15625 A 1 1 0 0 0 15.990234 4.1367188 z M 15.970703 4.2421875 A 1 1 0 0 1 15.964844 4.2617188 A 1 1 0 0 0 15.970703 4.2421875 z " />
      <path
         id="path821"
         style="fill:#ebb16d;fill-opacity:1;stroke:none;stroke-width:1px;stroke-linecap:butt;stroke-linejoin:miter;stroke-opacity:1"
         d="M 9.5996094 4 L 7.0996094 7 L 1 7 L 1 15 L 15 15 L 15 4.5292969 A 0.5 0.5 0 0 1 14.998047 4.5410156 A 0.5 0.5 0 0 0 15 4.5292969 A 0.5 0.5 0 0 0 15 4.5273438 A 0.5 0.5 0 0 0 15 4.5 A 0.5 0.5 0 0 0 14.992188 4.4140625 A 0.5 0.5 0 0 0 14.970703 4.328125 A 0.5 0.5 0 0 0 14.933594 4.25 A 0.5 0.5 0 0 0 14.882812 4.1777344 A 0.5 0.5 0 0 0 14.822266 4.1171875 A 0.5 0.5 0 0 0 14.75 4.0664062 A 0.5 0.5 0 0 0 14.671875 4.0292969 A 0.5 0.5 0 0 0 14.585938 4.0078125 A 0.5 0.5 0 0 0 14.5 4 L 9.5996094 4 z " />
      <path
         id="path2406"
         style="fill:#ebb16d;fill-opacity:1;stroke:none;stroke-width:1px;stroke-linecap:butt;stroke-linejoin:miter;stroke-opacity:1"
         d="M 2 2 A 1 1 0 0 0 1.7773438 2.0253906 A 1 1 0 0 0 1.5664062 2.0996094 A 1 1 0 0 0 1.3769531 2.21875 A 1 1 0 0 0 1.21875 2.3769531 A 1 1 0 0 0 1.0996094 2.5664062 A 1 1 0 0 0 1.0253906 2.7773438 A 1 1 0 0 0 1 3 L 1 6 L 6.5 6 L 8.2734375 3.8730469 L 6.4003906 2 L 2 2 z " />
    </g>
  </g>
</svg>
