<?xml version="1.0" encoding="UTF-8" standalone="no"?>
<!-- Created with Inkscape (http://www.inkscape.org/) -->

<svg
   width="16"
   height="16"
   id="svg4159"
   version="1.1"
   inkscape:version="1.1.2 (0a00cf5339, 2022-02-04, custom)"
   viewBox="0 0 16 16"
   sodipodi:docname="folder-publicshare.svg"
   xmlns:inkscape="http://www.inkscape.org/namespaces/inkscape"
   xmlns:sodipodi="http://sodipodi.sourceforge.net/DTD/sodipodi-0.dtd"
   xmlns="http://www.w3.org/2000/svg"
   xmlns:svg="http://www.w3.org/2000/svg"
   xmlns:rdf="http://www.w3.org/1999/02/22-rdf-syntax-ns#"
   xmlns:cc="http://creativecommons.org/ns#"
   xmlns:dc="http://purl.org/dc/elements/1.1/">
  <title
     id="title815">Boston Icons</title>
  <defs
     id="defs4161">
    <inkscape:perspective
       sodipodi:type="inkscape:persp3d"
       inkscape:vp_x="0 : 8 : 1"
       inkscape:vp_y="0 : 1000 : 0"
       inkscape:vp_z="16 : 8 : 1"
       inkscape:persp3d-origin="8 : 5.3333333 : 1"
       id="perspective4709" />
  </defs>
  <sodipodi:namedview
     id="base"
     pagecolor="#ffffff"
     bordercolor="#00fff6"
     borderopacity="1"
     inkscape:pageopacity="0"
     inkscape:pageshadow="2"
     inkscape:zoom="22.197802"
     inkscape:cx="-6.7349011"
     inkscape:cy="7.1403466"
     inkscape:current-layer="layer1"
     showgrid="false"
     inkscape:grid-bbox="true"
     inkscape:document-units="px"
     inkscape:window-width="1920"
     inkscape:window-height="1011"
     inkscape:window-x="0"
     inkscape:window-y="0"
     inkscape:window-maximized="1"
     inkscape:pagecheckerboard="0">
    <inkscape:grid
       type="xygrid"
       id="grid4707" />
  </sodipodi:namedview>
  <metadata
     id="metadata4164">
    <rdf:RDF>
      <cc:Work
         rdf:about="">
        <dc:format>image/svg+xml</dc:format>
        <dc:type
           rdf:resource="http://purl.org/dc/dcmitype/StillImage" />
        <dc:title>Boston Icons</dc:title>
        <cc:license
           rdf:resource="dribbble.com/chrisdiaz" />
        <dc:creator>
          <cc:Agent>
            <dc:title>Christian Díaz</dc:title>
          </cc:Agent>
        </dc:creator>
        <dc:date>2022</dc:date>
        <dc:publisher>
          <cc:Agent>
            <dc:title>Christian Díaz</dc:title>
          </cc:Agent>
        </dc:publisher>
        <dc:identifier>christiandiaz.design [at] gmail [dot] com</dc:identifier>
        <dc:subject>
          <rdf:Bag>
            <rdf:li>GNOME icon Theme</rdf:li>
          </rdf:Bag>
        </dc:subject>
        <dc:description>dribbble.com/chrisdiaz | diazchris.deviantart.com</dc:description>
      </cc:Work>
    </rdf:RDF>
  </metadata>
  <g
     id="layer1"
     inkscape:label="Layer 1"
     inkscape:groupmode="layer">
    <path
       id="path822"
       style="opacity:1;fill:#ffffff;fill-opacity:1;fill-rule:nonzero;stroke:none;stroke-width:6;stroke-linecap:square;stroke-linejoin:bevel;stroke-miterlimit:4;stroke-dasharray:none;stroke-dashoffset:35;stroke-opacity:1"
       d="M 13 1 A 2 2 0 0 0 11 3 A 2 2 0 0 0 13 5 A 2 2 0 0 0 15 3 A 2 2 0 0 0 13 1 z M 3 6 A 2 2 0 0 0 1 8 A 2 2 0 0 0 3 10 A 2 2 0 0 0 5 8 A 2 2 0 0 0 3 6 z M 13 11 A 2 2 0 0 0 11 13 A 2 2 0 0 0 13 15 A 2 2 0 0 0 15 13 A 2 2 0 0 0 13 11 z " />
    <path
       style="fill:#2d8cff;fill-opacity:1;stroke:none;stroke-opacity:1"
       d="m 13,0 a 3,3 0 0 0 -3,3 3,3 0 0 0 0.03711,0.4394531 L 5.5527344,6.4296875 A 3,3 0 0 0 3,5 3,3 0 0 0 0,8 3,3 0 0 0 3,11 3,3 0 0 0 5.5527344,9.5703125 L 10.035156,12.558594 A 3,3 0 0 0 10,13 a 3,3 0 0 0 3,3 3,3 0 0 0 3,-3 3,3 0 0 0 -3,-3 3,3 0 0 0 -2.019531,0.785156 L 6.8027344,8 10.980469,5.2148438 A 3,3 0 0 0 13,6 3,3 0 0 0 16,3 3,3 0 0 0 13,0 Z m 0,2 A 1,1 0 0 1 14,3 1,1 0 0 1 13,4 1,1 0 0 1 12,3 1,1 0 0 1 13,2 Z M 3,7 A 1,1 0 0 1 4,8 1,1 0 0 1 3,9 1,1 0 0 1 2,8 1,1 0 0 1 3,7 Z m 10,5 a 1,1 0 0 1 1,1 1,1 0 0 1 -1,1 1,1 0 0 1 -1,-1 1,1 0 0 1 1,-1 z"
       id="path819"
       inkscape:connector-curvature="0" />
  </g>
</svg>
