<?xml version="1.0" encoding="UTF-8" standalone="no"?>
<svg
   xmlns:dc="http://purl.org/dc/elements/1.1/"
   xmlns:cc="http://creativecommons.org/ns#"
   xmlns:rdf="http://www.w3.org/1999/02/22-rdf-syntax-ns#"
   xmlns:svg="http://www.w3.org/2000/svg"
   xmlns="http://www.w3.org/2000/svg"
   xmlns:sodipodi="http://sodipodi.sourceforge.net/DTD/sodipodi-0.dtd"
   xmlns:inkscape="http://www.inkscape.org/namespaces/inkscape"
   sodipodi:docname="application-x-audacity-project.svg"
   inkscape:version="1.0 (4035a4fb49, 2020-05-01)"
   id="svg2634"
   version="1.1"
   viewBox="0 0 12.7 12.7"
   height="48"
   width="48">
  <title
     id="title3250">Boston Icons</title>
  <defs
     id="defs2628" />
  <sodipodi:namedview
     inkscape:document-rotation="0"
     units="px"
     inkscape:window-maximized="1"
     inkscape:window-y="27"
     inkscape:window-x="0"
     inkscape:window-height="1016"
     inkscape:window-width="1920"
     fit-margin-bottom="0"
     fit-margin-right="0"
     fit-margin-left="0"
     fit-margin-top="0"
     inkscape:guide-bbox="true"
     showguides="false"
     showgrid="false"
     inkscape:current-layer="layer1"
     inkscape:document-units="px"
     inkscape:cy="22.738671"
     inkscape:cx="13.698659"
     inkscape:zoom="15.839192"
     inkscape:pageshadow="2"
     inkscape:pageopacity="1"
     borderopacity="1"
     bordercolor="#00ffed"
     pagecolor="#ffffff"
     id="base">
    <inkscape:grid
       dotted="false"
       originy="-127.00001"
       originx="-82.550004"
       empspacing="4"
       spacingy="0.26458333"
       spacingx="0.26458333"
       id="grid3182"
       type="xygrid" />
    <sodipodi:guide
       inkscape:locked="false"
       id="guide3216"
       orientation="1,0"
       position="-4.268358e-06,27.516666" />
    <sodipodi:guide
       inkscape:locked="false"
       id="guide3222"
       orientation="0,1"
       position="32.279157,-4.1479283e-06" />
    <sodipodi:guide
       inkscape:locked="false"
       id="guide3226"
       orientation="0,1"
       position="13.229163,0.52915746" />
    <sodipodi:guide
       inkscape:locked="false"
       id="guide3228"
       orientation="1,0"
       position="0.52916318,6.8791574" />
    <sodipodi:guide
       inkscape:locked="false"
       id="guide3234"
       orientation="1,0"
       position="1.0583298,6.8791574" />
    <sodipodi:guide
       inkscape:locked="false"
       id="guide3236"
       orientation="1,0"
       position="1.5874965,6.8791574" />
    <sodipodi:guide
       inkscape:locked="false"
       id="guide3238"
       orientation="1,0"
       position="6.3499965,7.9374908" />
    <sodipodi:guide
       inkscape:locked="false"
       id="guide3246"
       orientation="0,1"
       position="13.75833,1.0583241" />
    <sodipodi:guide
       inkscape:locked="false"
       id="guide864"
       orientation="0,1"
       position="5.8208298,12.170824" />
    <sodipodi:guide
       inkscape:locked="false"
       id="guide868"
       orientation="1,0"
       position="12.17083,8.4666574" />
    <sodipodi:guide
       inkscape:locked="false"
       id="guide870"
       orientation="1,0"
       position="11.641663,8.4666574" />
    <sodipodi:guide
       inkscape:locked="false"
       id="guide872"
       orientation="1,0"
       position="11.112496,8.4666574" />
    <sodipodi:guide
       inkscape:locked="false"
       id="guide1119"
       orientation="1,0"
       position="2.1166616,12.170822" />
    <sodipodi:guide
       inkscape:locked="false"
       id="guide1121"
       orientation="1,0"
       position="10.583328,11.112488" />
    <sodipodi:guide
       inkscape:locked="false"
       id="guide1123"
       orientation="0.70710678,0.70710678"
       position="13.493745,6.879155" />
    <sodipodi:guide
       inkscape:locked="false"
       id="guide1129"
       orientation="1,0"
       position="7.9374949,9.7895716" />
    <sodipodi:guide
       inkscape:locked="false"
       id="guide1131"
       orientation="0,1"
       position="8.4666615,9.5249883" />
    <sodipodi:guide
       inkscape:locked="false"
       id="guide1138"
       orientation="1,0"
       position="3.4395782,8.2020716" />
    <sodipodi:guide
       inkscape:locked="false"
       id="guide1140"
       orientation="1,0"
       position="9.2604115,7.1437383" />
    <sodipodi:guide
       inkscape:locked="false"
       id="guide1142"
       orientation="0,1"
       position="4.2333282,10.318738" />
    <sodipodi:guide
       inkscape:locked="false"
       id="guide1152"
       orientation="0,1"
       position="4.7624949,8.466655" />
    <sodipodi:guide
       inkscape:locked="false"
       id="guide849"
       orientation="0,1"
       position="5.2916616,3.704155" />
    <sodipodi:guide
       inkscape:locked="false"
       id="guide873"
       orientation="0,1"
       position="5.8208282,3.1749884" />
  </sodipodi:namedview>
  <metadata
     id="metadata2631">
    <rdf:RDF>
      <cc:Work
         rdf:about="">
        <dc:format>image/svg+xml</dc:format>
        <dc:type
           rdf:resource="http://purl.org/dc/dcmitype/StillImage" />
        <dc:title>Boston Icons</dc:title>
        <cc:license
           rdf:resource="dribbble.com/chrisdiaz" />
        <dc:creator>
          <cc:Agent>
            <dc:title>Christian Díaz</dc:title>
          </cc:Agent>
        </dc:creator>
        <dc:date>2020</dc:date>
        <dc:publisher>
          <cc:Agent>
            <dc:title>Christian Díaz</dc:title>
          </cc:Agent>
        </dc:publisher>
        <dc:identifier>christiandiaz.design [at] gmail [dot] com</dc:identifier>
        <dc:subject>
          <rdf:Bag>
            <rdf:li>GNOME icon Theme</rdf:li>
          </rdf:Bag>
        </dc:subject>
        <dc:description>dribbble.com/chrisdiaz | diazchris.deviantart.com</dc:description>
      </cc:Work>
    </rdf:RDF>
  </metadata>
  <g
     transform="translate(-82.550003,-157.3)"
     id="layer1"
     inkscape:groupmode="layer"
     inkscape:label="Capa 1">
    <g
       id="g895">
      <path
         style="fill:#96a5af;fill-opacity:1;stroke:none;stroke-width:0.264583px;stroke-linecap:butt;stroke-linejoin:miter;stroke-opacity:1"
         d="m 84.666665,157.82918 h 6.085416 l 2.38125,2.38125 v 9.26041 h -8.466666 z"
         id="path1125"
         inkscape:connector-curvature="0" />
      <path
         style="fill:#ffffff;stroke:none;stroke-width:0.264583px;stroke-linecap:butt;stroke-linejoin:miter;stroke-opacity:1"
         d="m 84.931248,158.09376 h 5.688547 l 2.248958,2.24895 -5e-6,8.86355 h -7.9375 z"
         id="path1127"
         inkscape:connector-curvature="0"
         sodipodi:nodetypes="cccccc" />
      <path
         inkscape:connector-curvature="0"
         style="fill:#96a5af;fill-opacity:1;fill-rule:nonzero;stroke:none;stroke-width:0.529167;stroke-linecap:square;stroke-linejoin:bevel;stroke-miterlimit:4;stroke-dasharray:none;stroke-dashoffset:35;stroke-opacity:1"
         d="m 90.487503,157.82917 v 2.38125 0.26458 h 0.264583 2.38125 v -0.26458 h -2.38125 v -2.38125 z"
         id="rect1133" />
      <path
         style="fill:#96a5af;fill-opacity:1;fill-rule:nonzero;stroke:none;stroke-width:0.529167;stroke-linecap:square;stroke-linejoin:round;stroke-miterlimit:4;stroke-dasharray:none;stroke-dashoffset:0;stroke-opacity:1"
         d="m 85.989586,161.53333 v 0.52917 h 0.264584 v -0.26458 h 5.291666 v 0.26458 h 0.264584 v -0.26458 -0.26459 h -5.55625 z m 0,3.43959 v 2.11666 h 0.264584 5.55625 V 166.825 164.97292 H 91.545836 V 166.825 H 86.25417 v -1.85208 z"
         id="rect875"
         inkscape:connector-curvature="0" />
      <path
         style="fill:#96a5af;fill-opacity:1;fill-rule:nonzero;stroke:none;stroke-width:0.529167;stroke-linecap:square;stroke-linejoin:round;stroke-miterlimit:4;stroke-dasharray:none;stroke-dashoffset:0;stroke-opacity:1"
         d="m 87.312503,162.32708 a 1.3229166,1.3229166 0 0 0 -1.322917,1.32292 1.3229166,1.3229166 0 0 0 1.322917,1.32292 1.3229166,1.3229166 0 0 0 1.322917,-1.32292 1.3229166,1.3229166 0 0 0 -1.322917,-1.32292 z m 0,0.26459 a 1.0583333,1.0583333 0 0 1 1.058333,1.05833 1.0583333,1.0583333 0 0 1 -1.058333,1.05833 1.0583333,1.0583333 0 0 1 -1.058333,-1.05833 1.0583333,1.0583333 0 0 1 1.058333,-1.05833 z"
         id="path881"
         inkscape:connector-curvature="0" />
      <path
         style="fill:#96a5af;fill-opacity:1;fill-rule:nonzero;stroke:none;stroke-width:0.529167;stroke-linecap:square;stroke-linejoin:round;stroke-miterlimit:4;stroke-dasharray:none;stroke-dashoffset:0;stroke-opacity:1"
         d="m 90.487503,162.32708 a 1.3229166,1.3229166 0 0 0 -1.322917,1.32292 1.3229166,1.3229166 0 0 0 1.322917,1.32292 1.3229166,1.3229166 0 0 0 1.322917,-1.32292 1.3229166,1.3229166 0 0 0 -1.322917,-1.32292 z m 0,0.26459 a 1.0583333,1.0583333 0 0 1 1.058333,1.05833 1.0583333,1.0583333 0 0 1 -1.058333,1.05833 1.0583333,1.0583333 0 0 1 -1.058333,-1.05833 1.0583333,1.0583333 0 0 1 1.058333,-1.05833 z"
         id="path883"
         inkscape:connector-curvature="0" />
      <path
         id="rect894"
         style="fill:#96a5af;fill-opacity:1;fill-rule:nonzero;stroke:none;stroke-width:2;stroke-linecap:square;stroke-linejoin:round;stroke-miterlimit:4;stroke-dasharray:none;stroke-dashoffset:0;stroke-opacity:1"
         d="m 23,27 v 1 h -5 v 1 h 3 v 3 h 6 v -3 h 3 v -1 h -5 v -1 z"
         transform="matrix(0.26458333,0,0,0.26458333,82.550003,157.3)" />
      <path
         id="path909"
         style="fill:#96a5af;fill-opacity:1;fill-rule:nonzero;stroke:none;stroke-width:2;stroke-linecap:square;stroke-linejoin:round;stroke-miterlimit:4;stroke-dasharray:none;stroke-dashoffset:0;stroke-opacity:1"
         d="m 17,21 v 1 h 2 v -1 z m 1,2 a 0.99999995,0.99999995 0 0 0 -1,1 0.99999995,0.99999995 0 0 0 1,1 0.99999995,0.99999995 0 0 0 1,-1 0.99999995,0.99999995 0 0 0 -1,-1 z m -2.232422,1.134766 -0.865234,0.5 1,1.730468 0.865234,-0.5 z m 4.464844,0 -1,1.730468 0.865234,0.5 1,-1.730468 z"
         transform="matrix(0.26458333,0,0,0.26458333,82.550003,157.3)" />
      <path
         id="path911"
         style="fill:#96a5af;fill-opacity:1;fill-rule:nonzero;stroke:none;stroke-width:2;stroke-linecap:square;stroke-linejoin:round;stroke-miterlimit:4;stroke-dasharray:none;stroke-dashoffset:0;stroke-opacity:1"
         d="m 32.09375,21.630859 -0.865234,0.5 1,1.732422 0.865234,-0.5 z m -4.197266,0.002 -0.998046,1.730469 0.865234,0.5 1,-1.732422 z M 30,23 a 0.99999995,0.99999995 0 0 0 -1,1 0.99999995,0.99999995 0 0 0 1,1 0.99999995,0.99999995 0 0 0 1,-1 0.99999995,0.99999995 0 0 0 -1,-1 z m -1.003906,2.998047 v 0.998047 l 1.998047,0.002 0.002,-1 z"
         transform="matrix(0.26458333,0,0,0.26458333,82.550003,157.3)" />
    </g>
  </g>
</svg>
