<?xml version="1.0" encoding="UTF-8" standalone="no"?>
<!-- Created with Inkscape (http://www.inkscape.org/) -->

<svg
   width="48"
   height="48"
   viewBox="0 0 12.7 12.7"
   version="1.1"
   id="svg2634"
   inkscape:version="1.1 (c4e8f9ed74, 2021-05-24)"
   sodipodi:docname="x-office-document-template.svg"
   xmlns:inkscape="http://www.inkscape.org/namespaces/inkscape"
   xmlns:sodipodi="http://sodipodi.sourceforge.net/DTD/sodipodi-0.dtd"
   xmlns="http://www.w3.org/2000/svg"
   xmlns:svg="http://www.w3.org/2000/svg"
   xmlns:rdf="http://www.w3.org/1999/02/22-rdf-syntax-ns#"
   xmlns:cc="http://creativecommons.org/ns#"
   xmlns:dc="http://purl.org/dc/elements/1.1/">
  <title
     id="title3250">Boston Icons</title>
  <defs
     id="defs2628" />
  <sodipodi:namedview
     id="base"
     pagecolor="#ffffff"
     bordercolor="#00ffed"
     borderopacity="1"
     inkscape:pageopacity="1"
     inkscape:pageshadow="2"
     inkscape:zoom="15.839192"
     inkscape:cx="21.497309"
     inkscape:cy="24.085825"
     inkscape:document-units="px"
     inkscape:current-layer="layer1"
     showgrid="false"
     showguides="false"
     inkscape:guide-bbox="true"
     fit-margin-top="0"
     fit-margin-left="0"
     fit-margin-right="0"
     fit-margin-bottom="0"
     inkscape:window-width="1920"
     inkscape:window-height="1011"
     inkscape:window-x="0"
     inkscape:window-y="32"
     inkscape:window-maximized="1"
     units="px"
     inkscape:pagecheckerboard="0">
    <inkscape:grid
       type="xygrid"
       id="grid3182"
       spacingx="0.26458333"
       spacingy="0.26458333"
       empspacing="4"
       originx="-82.550004"
       originy="-127.00001"
       dotted="false" />
    <sodipodi:guide
       position="-4.268358e-06,27.516666"
       orientation="1,0"
       id="guide3216"
       inkscape:locked="false" />
    <sodipodi:guide
       position="32.279157,-4.1479283e-06"
       orientation="0,1"
       id="guide3222"
       inkscape:locked="false" />
    <sodipodi:guide
       position="13.229163,0.52915746"
       orientation="0,1"
       id="guide3226"
       inkscape:locked="false" />
    <sodipodi:guide
       position="6.3499965,7.9374908"
       orientation="1,0"
       id="guide3238"
       inkscape:locked="false" />
    <sodipodi:guide
       position="13.75833,1.0583241"
       orientation="0,1"
       id="guide3246"
       inkscape:locked="false" />
    <sodipodi:guide
       position="5.8208298,12.170824"
       orientation="0,1"
       id="guide864"
       inkscape:locked="false" />
    <sodipodi:guide
       position="12.699995,7.1437383"
       orientation="1,0"
       id="guide868"
       inkscape:locked="false" />
    <sodipodi:guide
       position="2.1166616,10.847905"
       orientation="1,0"
       id="guide1119"
       inkscape:locked="false" />
    <sodipodi:guide
       position="10.583328,11.112488"
       orientation="1,0"
       id="guide1121"
       inkscape:locked="false" />
    <sodipodi:guide
       position="13.493745,6.879155"
       orientation="0.70710678,0.70710678"
       id="guide1123"
       inkscape:locked="false" />
    <sodipodi:guide
       position="7.9374949,9.7895716"
       orientation="1,0"
       id="guide1129"
       inkscape:locked="false" />
    <sodipodi:guide
       position="8.4666615,9.5249883"
       orientation="0,1"
       id="guide1131"
       inkscape:locked="false" />
    <sodipodi:guide
       position="3.4395782,8.2020716"
       orientation="1,0"
       id="guide1138"
       inkscape:locked="false" />
    <sodipodi:guide
       position="9.2604115,7.1437383"
       orientation="1,0"
       id="guide1140"
       inkscape:locked="false" />
    <sodipodi:guide
       position="4.2333282,10.318738"
       orientation="0,1"
       id="guide1142"
       inkscape:locked="false" />
    <sodipodi:guide
       position="4.7624949,8.466655"
       orientation="0,1"
       id="guide1152"
       inkscape:locked="false" />
  </sodipodi:namedview>
  <metadata
     id="metadata2631">
    <rdf:RDF>
      <cc:Work
         rdf:about="">
        <dc:format>image/svg+xml</dc:format>
        <dc:type
           rdf:resource="http://purl.org/dc/dcmitype/StillImage" />
        <dc:title>Boston Icons</dc:title>
        <cc:license
           rdf:resource="dribbble.com/chrisdiaz" />
        <dc:creator>
          <cc:Agent>
            <dc:title>Christian Díaz</dc:title>
          </cc:Agent>
        </dc:creator>
        <dc:date>2021</dc:date>
        <dc:publisher>
          <cc:Agent>
            <dc:title>Christian Díaz</dc:title>
          </cc:Agent>
        </dc:publisher>
        <dc:identifier>christiandiaz.design [at] gmail [dot] com</dc:identifier>
        <dc:subject>
          <rdf:Bag>
            <rdf:li>GNOME icon Theme</rdf:li>
          </rdf:Bag>
        </dc:subject>
        <dc:description>dribbble.com/chrisdiaz | diazchris.deviantart.com</dc:description>
      </cc:Work>
    </rdf:RDF>
  </metadata>
  <g
     inkscape:label="Capa 1"
     inkscape:groupmode="layer"
     id="layer1"
     transform="translate(-82.550003,-157.3)">
    <g
       id="g1154">
      <g
         id="g1387">
        <path
           inkscape:connector-curvature="0"
           id="path1125"
           d="m 84.666665,157.82918 h 6.085416 l 2.38125,2.38125 v 9.26041 h -8.466666 z"
           style="fill:#96a5af;fill-opacity:1;stroke:none;stroke-width:0.264583px;stroke-linecap:butt;stroke-linejoin:miter;stroke-opacity:1" />
        <path
           sodipodi:nodetypes="cccccc"
           inkscape:connector-curvature="0"
           id="path1127"
           d="m 84.931248,158.09376 h 5.688547 l 2.248958,2.24895 -5e-6,8.86355 h -7.9375 z"
           style="fill:#ffffff;stroke:none;stroke-width:0.264583px;stroke-linecap:butt;stroke-linejoin:miter;stroke-opacity:1" />
        <path
           id="rect1133"
           d="m 90.487503,157.82917 v 2.38125 0.26458 h 0.264583 2.38125 v -0.26458 h -2.38125 v -2.38125 z"
           style="fill:#96a5af;fill-opacity:1;fill-rule:nonzero;stroke:none;stroke-width:0.529167;stroke-linecap:square;stroke-linejoin:bevel;stroke-miterlimit:4;stroke-dasharray:none;stroke-dashoffset:35;stroke-opacity:1"
           inkscape:connector-curvature="0" />
        <path
           id="rect1148"
           style="fill:#96a5af;fill-opacity:1;fill-rule:nonzero;stroke:none;stroke-width:2;stroke-linecap:square;stroke-linejoin:bevel;stroke-miterlimit:4;stroke-dasharray:none;stroke-dashoffset:35;stroke-opacity:1"
           d="M 13 8 L 13 9 L 19 9 L 19 8 L 13 8 z M 13 11 L 13 12 L 15 12 L 15 11 L 13 11 z M 17 11 L 17 12 L 19 12 L 19 11 L 17 11 z M 13 16 L 13 17 L 23 17 L 23 16 L 13 16 z M 25 16 L 25 23 L 35 23 L 35 16 L 25 16 z M 13 19 L 13 20 L 23 20 L 23 19 L 13 19 z M 13 22 L 13 23 L 19 23 L 19 22 L 13 22 z M 13 27 L 13 28 L 23 28 L 23 27 L 13 27 z M 25 27 L 25 28 L 35 28 L 35 27 L 25 27 z M 13 30 L 13 31 L 23 31 L 23 30 L 13 30 z M 25 30 L 25 31 L 35 31 L 35 30 L 25 30 z M 13 33 L 13 34 L 19 34 L 19 33 L 13 33 z M 25 33 L 25 34 L 31 34 L 31 33 L 25 33 z M 31 41 L 31 43 L 35 43 L 35 41 L 31 41 z "
           transform="matrix(0.26458333,0,0,0.26458333,82.550003,157.3)" />
      </g>
      <g
         id="g911"
         transform="translate(-5.04e-6,1.176e-5)">
        <path
           style="fill:#079f87;fill-opacity:1;stroke:none;stroke-width:1px;stroke-linecap:butt;stroke-linejoin:miter;stroke-opacity:1"
           d="M 40,24 8,46 H 40 Z M 34,35.3 V 40 h -6.6 z"
           transform="matrix(0.26458333,0,0,0.26458333,82.550003,157.3)"
           id="path850"
           inkscape:connector-curvature="0"
           sodipodi:nodetypes="cccccccc" />
        <path
           style="fill:#00c28e;fill-opacity:1;stroke:none;stroke-width:1px;stroke-linecap:butt;stroke-linejoin:miter;stroke-opacity:1"
           d="M 39,26.099609 11.5,45 H 39 Z M 35,33.2 V 41 H 24.2 Z"
           transform="matrix(0.26458333,0,0,0.26458333,82.550003,157.3)"
           id="path852"
           inkscape:connector-curvature="0"
           sodipodi:nodetypes="cccccccc" />
        <path
           style="fill:none;stroke:none;stroke-width:0.264583px;stroke-linecap:butt;stroke-linejoin:miter;stroke-opacity:1"
           d="m 91.810414,168.14793 v -2.11667 l -3.174999,2.11667 z"
           id="path857"
           inkscape:connector-curvature="0" />
        <path
           style="opacity:1;fill:#079f87;fill-opacity:1;fill-rule:nonzero;stroke:none;stroke-width:6;stroke-linecap:square;stroke-linejoin:bevel;stroke-miterlimit:4;stroke-dasharray:none;stroke-dashoffset:35;stroke-opacity:1"
           d="m 16,43 v 2 h 1 v -2 z m 3,0 v 2 h 1 v -2 z m 3,0 v 2 h 1 v -2 z m 3,0 v 2 h 1 v -2 z m 3,0 v 2 h 1 v -2 z m 3,0 v 2 h 1 v -2 z m 3,0 v 2 h 1 v -2 z m 3,0 v 2 h 1 v -2 z"
           transform="matrix(0.26458333,0,0,0.26458333,82.550008,157.29999)"
           id="rect865"
           inkscape:connector-curvature="0" />
      </g>
    </g>
  </g>
</svg>
