<?xml version="1.0" encoding="UTF-8" standalone="no"?>
<!-- Created with Inkscape (http://www.inkscape.org/) -->

<svg
   width="48"
   height="48"
   viewBox="0 0 12.7 12.7"
   version="1.1"
   id="svg2634"
   inkscape:version="1.1.2 (0a00cf5339, 2022-02-04, custom)"
   sodipodi:docname="inode-directory.svg"
   xmlns:inkscape="http://www.inkscape.org/namespaces/inkscape"
   xmlns:sodipodi="http://sodipodi.sourceforge.net/DTD/sodipodi-0.dtd"
   xmlns="http://www.w3.org/2000/svg"
   xmlns:svg="http://www.w3.org/2000/svg"
   xmlns:rdf="http://www.w3.org/1999/02/22-rdf-syntax-ns#"
   xmlns:cc="http://creativecommons.org/ns#"
   xmlns:dc="http://purl.org/dc/elements/1.1/">
  <title
     id="title3250">Boston Icons</title>
  <defs
     id="defs2628" />
  <sodipodi:namedview
     id="base"
     pagecolor="#ffffff"
     bordercolor="#00ffed"
     borderopacity="1"
     inkscape:pageopacity="1"
     inkscape:pageshadow="2"
     inkscape:zoom="44.8"
     inkscape:cx="38.59375"
     inkscape:cy="8.9620536"
     inkscape:document-units="px"
     inkscape:current-layer="g2609"
     showgrid="false"
     showguides="false"
     inkscape:guide-bbox="true"
     fit-margin-top="0"
     fit-margin-left="0"
     fit-margin-right="0"
     fit-margin-bottom="0"
     inkscape:window-width="1920"
     inkscape:window-height="1011"
     inkscape:window-x="0"
     inkscape:window-y="0"
     inkscape:window-maximized="1"
     units="px"
     inkscape:pagecheckerboard="0">
    <inkscape:grid
       type="xygrid"
       id="grid3182"
       spacingx="0.26458333"
       spacingy="0.26458333"
       empspacing="4"
       originx="-82.550004"
       originy="-127.00001"
       dotted="false" />
    <sodipodi:guide
       position="-4.268358e-06,27.516666"
       orientation="1,0"
       id="guide3216"
       inkscape:locked="false" />
    <sodipodi:guide
       position="32.279157,-4.1479283e-06"
       orientation="0,1"
       id="guide3222"
       inkscape:locked="false" />
    <sodipodi:guide
       position="13.229163,0.52915746"
       orientation="0,1"
       id="guide3226"
       inkscape:locked="false" />
    <sodipodi:guide
       position="0.52916318,6.8791574"
       orientation="1,0"
       id="guide3228"
       inkscape:locked="false" />
    <sodipodi:guide
       position="1.0583298,6.8791574"
       orientation="1,0"
       id="guide3234"
       inkscape:locked="false" />
    <sodipodi:guide
       position="1.5874965,6.8791574"
       orientation="1,0"
       id="guide3236"
       inkscape:locked="false" />
    <sodipodi:guide
       position="6.3499965,7.9374908"
       orientation="1,0"
       id="guide3238"
       inkscape:locked="false" />
    <sodipodi:guide
       position="13.75833,1.0583241"
       orientation="0,1"
       id="guide3246"
       inkscape:locked="false" />
    <sodipodi:guide
       position="16.404162,3.1749959"
       orientation="0,1"
       id="guide3248"
       inkscape:locked="false" />
    <sodipodi:guide
       position="5.2916632,10.054157"
       orientation="0,1"
       id="guide862"
       inkscape:locked="false" />
    <sodipodi:guide
       position="5.8208298,12.170824"
       orientation="0,1"
       id="guide864"
       inkscape:locked="false" />
    <sodipodi:guide
       position="6.8791632,11.641657"
       orientation="0,1"
       id="guide866"
       inkscape:locked="false" />
    <sodipodi:guide
       position="12.17083,8.4666574"
       orientation="1,0"
       id="guide868"
       inkscape:locked="false" />
    <sodipodi:guide
       position="11.641663,8.4666574"
       orientation="1,0"
       id="guide870"
       inkscape:locked="false" />
    <sodipodi:guide
       position="11.112496,8.4666574"
       orientation="1,0"
       id="guide872"
       inkscape:locked="false" />
    <sodipodi:guide
       position="2.3812449,11.112512"
       orientation="0,-1"
       id="guide844" />
  </sodipodi:namedview>
  <metadata
     id="metadata2631">
    <rdf:RDF>
      <cc:Work
         rdf:about="">
        <dc:format>image/svg+xml</dc:format>
        <dc:type
           rdf:resource="http://purl.org/dc/dcmitype/StillImage" />
        <dc:title>Boston Icons</dc:title>
        <cc:license
           rdf:resource="dribbble.com/chrisdiaz" />
        <dc:creator>
          <cc:Agent>
            <dc:title>Christian Díaz</dc:title>
          </cc:Agent>
        </dc:creator>
        <dc:date>2022</dc:date>
        <dc:publisher>
          <cc:Agent>
            <dc:title>Christian Díaz</dc:title>
          </cc:Agent>
        </dc:publisher>
        <dc:identifier>christiandiaz.design [at] gmail [dot] com</dc:identifier>
        <dc:subject>
          <rdf:Bag>
            <rdf:li>GNOME icon Theme</rdf:li>
          </rdf:Bag>
        </dc:subject>
        <dc:description>dribbble.com/chrisdiaz | diazchris.deviantart.com</dc:description>
      </cc:Work>
    </rdf:RDF>
  </metadata>
  <g
     inkscape:label="Capa 1"
     inkscape:groupmode="layer"
     id="layer1"
     transform="translate(-82.550003,-157.3)">
    <g
       id="g2609">
      <path
         id="path1163"
         style="fill:#2d8cff;stroke:none;stroke-width:0.999999px;stroke-linecap:butt;stroke-linejoin:miter;stroke-opacity:1"
         d="M 6 6 C 5.900279 6.00018 5.8006004 6.0040898 5.7011719 6.0117188 C 5.6018349 6.0190886 5.5028073 6.0301619 5.4042969 6.0449219 C 5.3053409 6.0594579 5.206964 6.0776994 5.109375 6.0996094 C 5.012079 6.1220344 4.9156578 6.1480944 4.8203125 6.1777344 C 4.7253565 6.2074284 4.6315411 6.2406548 4.5390625 6.2773438 C 4.4458079 6.3135997 4.3539464 6.3533406 4.2636719 6.3964844 C 4.1740898 6.4394182 4.0861382 6.4856744 4 6.5351562 C 3.9133904 6.5853458 3.8286952 6.6387688 3.7460938 6.6953125 C 3.6638298 6.7515443 3.5836958 6.8108305 3.5058594 6.8730469 C 3.4279298 6.9353035 3.3523562 7.0004532 3.2792969 7.0683594 C 3.2063861 7.1360247 3.1360247 7.2063861 3.0683594 7.2792969 C 3.0004532 7.3523562 2.9353035 7.4279298 2.8730469 7.5058594 C 2.8108305 7.5836958 2.7515443 7.6638298 2.6953125 7.7460938 C 2.6387688 7.8286952 2.5853458 7.9133904 2.5351562 8 C 2.4856744 8.086138 2.4394182 8.1740898 2.3964844 8.2636719 C 2.3533404 8.3539459 2.3135992 8.4458079 2.2773438 8.5390625 C 2.2406548 8.6315415 2.2074274 8.7253563 2.1777344 8.8203125 C 2.1480944 8.9156575 2.1220344 9.0120795 2.0996094 9.109375 C 2.0776994 9.206964 2.0594569 9.3053405 2.0449219 9.4042969 C 2.0301619 9.5028069 2.0190856 9.6018347 2.0117188 9.7011719 C 2.004088 9.8006004 2.00018 9.9002794 2 10 L 2 46 L 46 46 L 46 12 L 46 11.949219 A 1.9999999 1.9999999 0 0 0 45.998047 11.896484 A 1.9999999 1.9999999 0 0 0 45.994141 11.845703 A 1.9999999 1.9999999 0 0 0 45.990234 11.794922 A 1.9999999 1.9999999 0 0 0 45.984375 11.744141 A 1.9999999 1.9999999 0 0 0 45.976562 11.691406 A 1.9999999 1.9999999 0 0 0 45.966797 11.640625 A 1.9999999 1.9999999 0 0 0 45.957031 11.591797 A 1.9999999 1.9999999 0 0 0 45.947266 11.541016 A 1.9999999 1.9999999 0 0 0 45.933594 11.490234 A 1.9999999 1.9999999 0 0 0 45.919922 11.441406 A 1.9999999 1.9999999 0 0 0 45.904297 11.392578 A 1.9999999 1.9999999 0 0 0 45.888672 11.34375 A 1.9999999 1.9999999 0 0 0 45.871094 11.294922 A 1.9999999 1.9999999 0 0 0 45.853516 11.246094 A 1.9999999 1.9999999 0 0 0 45.832031 11.199219 A 1.9999999 1.9999999 0 0 0 45.810547 11.152344 A 1.9999999 1.9999999 0 0 0 45.789062 11.105469 A 1.9999999 1.9999999 0 0 0 45.765625 11.060547 A 1.9999999 1.9999999 0 0 0 45.740234 11.015625 A 1.9999999 1.9999999 0 0 0 45.714844 10.970703 A 1.9999999 1.9999999 0 0 0 45.6875 10.925781 A 1.9999999 1.9999999 0 0 0 45.660156 10.882812 A 1.9999999 1.9999999 0 0 0 45.630859 10.841797 A 1.9999999 1.9999999 0 0 0 45.599609 10.798828 A 1.9999999 1.9999999 0 0 0 45.568359 10.757812 A 1.9999999 1.9999999 0 0 0 45.535156 10.71875 A 1.9999999 1.9999999 0 0 0 45.501953 10.679688 A 1.9999999 1.9999999 0 0 0 45.466797 10.640625 A 1.9999999 1.9999999 0 0 0 45.431641 10.603516 A 1.9999999 1.9999999 0 0 0 45.396484 10.568359 A 1.9999999 1.9999999 0 0 0 45.359375 10.53125 A 1.9999999 1.9999999 0 0 0 45.320312 10.498047 A 1.9999999 1.9999999 0 0 0 45.28125 10.464844 A 1.9999999 1.9999999 0 0 0 45.240234 10.431641 A 1.9999999 1.9999999 0 0 0 45.201172 10.400391 A 1.9999999 1.9999999 0 0 0 45.158203 10.369141 A 1.9999999 1.9999999 0 0 0 45.117188 10.339844 A 1.9999999 1.9999999 0 0 0 45.074219 10.3125 A 1.9999999 1.9999999 0 0 0 45.029297 10.285156 A 1.9999999 1.9999999 0 0 0 44.984375 10.259766 A 1.9999999 1.9999999 0 0 0 44.939453 10.234375 A 1.9999999 1.9999999 0 0 0 44.894531 10.210938 A 1.9999999 1.9999999 0 0 0 44.847656 10.189453 A 1.9999999 1.9999999 0 0 0 44.800781 10.167969 A 1.9999999 1.9999999 0 0 0 44.753906 10.146484 A 1.9999999 1.9999999 0 0 0 44.705078 10.128906 A 1.9999999 1.9999999 0 0 0 44.65625 10.111328 A 1.9999999 1.9999999 0 0 0 44.607422 10.09375 A 1.9999999 1.9999999 0 0 0 44.558594 10.080078 A 1.9999999 1.9999999 0 0 0 44.509766 10.066406 A 1.9999999 1.9999999 0 0 0 44.458984 10.052734 A 1.9999999 1.9999999 0 0 0 44.408203 10.042969 A 1.9999999 1.9999999 0 0 0 44.359375 10.033203 A 1.9999999 1.9999999 0 0 0 44.308594 10.023438 A 1.9999999 1.9999999 0 0 0 44.255859 10.015625 A 1.9999999 1.9999999 0 0 0 44.205078 10.009766 A 1.9999999 1.9999999 0 0 0 44.154297 10.005859 A 1.9999999 1.9999999 0 0 0 44.103516 10.001953 A 1.9999999 1.9999999 0 0 0 44.050781 10 L 44 10 L 42 10 L 24 10 L 20 6 L 6 6 z "
         transform="matrix(0.26458333,0,0,0.26458333,82.550003,157.3)" />
      <path
         id="path906"
         style="fill:#6fb7ff;stroke:none;stroke-width:0.999999px;stroke-linecap:butt;stroke-linejoin:miter;stroke-opacity:1"
         d="M 6 7 A 3 3 0 0 0 5.6640625 7.0195312 A 3 3 0 0 0 5.3320312 7.0742188 A 3 3 0 0 0 5.0097656 7.1679688 A 3 3 0 0 0 4.6992188 7.296875 A 3 3 0 0 0 4.4042969 7.4589844 A 3 3 0 0 0 4.1289062 7.6542969 A 3 3 0 0 0 3.8789062 7.8789062 A 3 3 0 0 0 3.6542969 8.1289062 A 3 3 0 0 0 3.4589844 8.4042969 A 3 3 0 0 0 3.296875 8.6992188 A 3 3 0 0 0 3.1679688 9.0097656 A 3 3 0 0 0 3.0742188 9.3320312 A 3 3 0 0 0 3.0195312 9.6640625 A 3 3 0 0 0 3 10 A 3 3 0 0 0 3.0195312 10.335938 A 3 3 0 0 0 3.0742188 10.667969 A 3 3 0 0 0 3.1679688 10.990234 A 3 3 0 0 0 3.296875 11.300781 A 3 3 0 0 0 3.4589844 11.595703 A 3 3 0 0 0 3.6542969 11.871094 A 3 3 0 0 0 3.8789062 12.121094 A 3 3 0 0 0 4.1289062 12.345703 A 3 3 0 0 0 4.4042969 12.541016 A 3 3 0 0 0 4.6992188 12.703125 A 3 3 0 0 0 5.0097656 12.832031 A 3 3 0 0 0 5.3320312 12.923828 A 3 3 0 0 0 5.6640625 12.980469 A 3 3 0 0 0 6 13 L 20 13 L 22.5 10 L 19.5 7 L 6 7 z M 6 13 A 3 3 0 0 1 5.6640625 12.980469 A 3 3 0 0 1 5.3320312 12.923828 A 3 3 0 0 1 5.0097656 12.832031 A 3 3 0 0 1 4.6992188 12.703125 A 3 3 0 0 1 4.4042969 12.541016 A 3 3 0 0 1 4.1289062 12.345703 A 3 3 0 0 1 3.8789062 12.121094 A 3 3 0 0 1 3.6542969 11.871094 A 3 3 0 0 1 3.4589844 11.595703 A 3 3 0 0 1 3.296875 11.300781 A 3 3 0 0 1 3.1679688 10.990234 A 3 3 0 0 1 3.0742188 10.667969 A 3 3 0 0 1 3.0195312 10.335938 A 3 3 0 0 1 3 10 L 3 13 L 6 13 z "
         transform="matrix(0.26458333,0,0,0.26458333,82.550003,157.3)" />
      <path
         id="path910"
         style="fill:#6fb7ff;fill-opacity:1;stroke:none;stroke-width:0.999999px;stroke-linecap:butt;stroke-linejoin:miter;stroke-opacity:1"
         d="M 23.050781 11 L 20.550781 14 L 3 14 L 3 45 L 45 45 L 45 12 A 0.99999994 0.99999994 0 0 0 44.980469 11.804688 A 0.99999994 0.99999994 0 0 0 44.923828 11.617188 A 0.99999994 0.99999994 0 0 0 44.832031 11.445312 A 0.99999994 0.99999994 0 0 0 44.707031 11.292969 A 0.99999994 0.99999994 0 0 0 44.554688 11.167969 A 0.99999994 0.99999994 0 0 0 44.382812 11.076172 A 0.99999994 0.99999994 0 0 0 44.195312 11.019531 A 0.99999994 0.99999994 0 0 0 44 11 L 23.050781 11 z "
         transform="matrix(0.26458333,0,0,0.26458333,82.550003,157.3)" />
    </g>
  </g>
</svg>
