<?xml version="1.0" encoding="UTF-8" standalone="no"?>
<svg
   width="48"
   height="48"
   viewBox="0 0 12.7 12.7"
   version="1.1"
   id="svg2634"
   inkscape:version="1.1.2 (0a00cf5339, 2022-02-04, custom)"
   sodipodi:docname="text-x-changelog.svg"
   xmlns:inkscape="http://www.inkscape.org/namespaces/inkscape"
   xmlns:sodipodi="http://sodipodi.sourceforge.net/DTD/sodipodi-0.dtd"
   xmlns="http://www.w3.org/2000/svg"
   xmlns:svg="http://www.w3.org/2000/svg"
   xmlns:rdf="http://www.w3.org/1999/02/22-rdf-syntax-ns#"
   xmlns:cc="http://creativecommons.org/ns#"
   xmlns:dc="http://purl.org/dc/elements/1.1/">
  <title
     id="title3250">Boston Icons</title>
  <defs
     id="defs2628" />
  <sodipodi:namedview
     id="base"
     pagecolor="#ffffff"
     bordercolor="#00ffed"
     borderopacity="1"
     inkscape:pageopacity="1"
     inkscape:pageshadow="2"
     inkscape:zoom="11.2"
     inkscape:cx="10.089286"
     inkscape:cy="32.1875"
     inkscape:document-units="px"
     inkscape:current-layer="layer1"
     showgrid="false"
     showguides="false"
     inkscape:guide-bbox="true"
     fit-margin-top="0"
     fit-margin-left="0"
     fit-margin-right="0"
     fit-margin-bottom="0"
     inkscape:window-width="1920"
     inkscape:window-height="1011"
     inkscape:window-x="0"
     inkscape:window-y="0"
     inkscape:window-maximized="1"
     units="px"
     inkscape:document-rotation="0"
     inkscape:pagecheckerboard="0">
    <inkscape:grid
       type="xygrid"
       id="grid3182"
       spacingx="0.26458333"
       spacingy="0.26458333"
       empspacing="4"
       originx="-82.550004"
       originy="-127.00001"
       dotted="false" />
    <sodipodi:guide
       position="-4.268358e-06,27.516666"
       orientation="1,0"
       id="guide3216"
       inkscape:locked="false" />
    <sodipodi:guide
       position="32.279157,-4.1479283e-06"
       orientation="0,1"
       id="guide3222"
       inkscape:locked="false" />
    <sodipodi:guide
       position="13.229163,0.52915746"
       orientation="0,1"
       id="guide3226"
       inkscape:locked="false" />
    <sodipodi:guide
       position="5.8208298,12.170824"
       orientation="0,1"
       id="guide864"
       inkscape:locked="false" />
    <sodipodi:guide
       position="2.1166616,12.170822"
       orientation="1,0"
       id="guide1119"
       inkscape:locked="false" />
    <sodipodi:guide
       position="13.493745,6.879155"
       orientation="0.70710678,0.70710678"
       id="guide1123"
       inkscape:locked="false" />
    <sodipodi:guide
       position="7.9374949,9.7895716"
       orientation="1,0"
       id="guide1129"
       inkscape:locked="false" />
    <sodipodi:guide
       position="8.4666615,9.5249883"
       orientation="0,1"
       id="guide1131"
       inkscape:locked="false" />
    <sodipodi:guide
       position="3.4395782,8.2020716"
       orientation="1,0"
       id="guide1138"
       inkscape:locked="false" />
    <sodipodi:guide
       position="9.2604115,7.1437383"
       orientation="1,0"
       id="guide1140"
       inkscape:locked="false" />
    <sodipodi:guide
       position="4.2333282,10.318738"
       orientation="0,1"
       id="guide1142"
       inkscape:locked="false" />
    <sodipodi:guide
       position="4.7624949,8.466655"
       orientation="0,1"
       id="guide1152"
       inkscape:locked="false" />
    <sodipodi:guide
       position="5.2916616,3.704155"
       orientation="0,1"
       id="guide849"
       inkscape:locked="false" />
    <sodipodi:guide
       position="3.9687449,6.3499883"
       orientation="1,0"
       id="guide890"
       inkscape:locked="false" />
    <sodipodi:guide
       position="8.7312449,6.879155"
       orientation="1,0"
       id="guide892"
       inkscape:locked="false" />
    <sodipodi:guide
       position="2.9104116,6.3499883"
       orientation="0,1"
       id="guide937"
       inkscape:locked="false" />
  </sodipodi:namedview>
  <metadata
     id="metadata2631">
    <rdf:RDF>
      <cc:Work
         rdf:about="">
        <dc:format>image/svg+xml</dc:format>
        <dc:type
           rdf:resource="http://purl.org/dc/dcmitype/StillImage" />
        <dc:title>Boston Icons</dc:title>
        <cc:license
           rdf:resource="dribbble.com/chrisdiaz" />
        <dc:creator>
          <cc:Agent>
            <dc:title>Christian Díaz</dc:title>
          </cc:Agent>
        </dc:creator>
        <dc:date>2021</dc:date>
        <dc:publisher>
          <cc:Agent>
            <dc:title>Christian Díaz</dc:title>
          </cc:Agent>
        </dc:publisher>
        <dc:identifier>christiandiaz.design [at] gmail [dot] com</dc:identifier>
        <dc:subject>
          <rdf:Bag>
            <rdf:li>GNOME icon Theme</rdf:li>
          </rdf:Bag>
        </dc:subject>
        <dc:description>dribbble.com/chrisdiaz | diazchris.deviantart.com</dc:description>
      </cc:Work>
    </rdf:RDF>
  </metadata>
  <g
     inkscape:label="Capa 1"
     inkscape:groupmode="layer"
     id="layer1"
     transform="translate(-82.550003,-157.3)">
    <g
       id="g881">
      <path
         sodipodi:nodetypes="ccccccccccccccccccc"
         style="fill:#96a5af;fill-opacity:1;stroke:none;stroke-width:0.264583px;stroke-linecap:butt;stroke-linejoin:miter;stroke-opacity:1"
         d="m 84.666665,157.82918 h 8.466666 v 2.38125 9.26039 l -0.264583,-2e-5 -0.661453,-0.79375 -0.661464,0.79377 -0.661453,-0.79377 -0.661463,0.79377 -0.661453,-0.79377 -0.661464,0.79377 -0.661453,-0.79377 -0.661464,0.79377 -0.661453,-0.79377 -0.661463,0.79377 -0.661453,-0.79377 -0.661464,0.79377 h -0.264583 z"
         id="path1125"
         inkscape:connector-curvature="0" />
      <path
         id="path1127"
         style="fill:#ffffff;stroke:none;stroke-width:0.999999px;stroke-linecap:butt;stroke-linejoin:miter;stroke-opacity:1"
         d="m 9,3 v 41 l 2.5,-3 2.5,3 2.5,-3 2.5,3 2.5,-3 2.5,3 2.5,-3 2.5,3 2.5,-3 2.5,3 2.5,-3 2.5,3 V 3 Z"
         transform="matrix(0.26458333,0,0,0.26458333,82.550003,157.3)" />
      <path
         id="path864"
         style="fill:#96a5af;stroke-width:0.500001;stroke-linejoin:round"
         d="m 12,7 a 0.99999982,0.99999994 0 0 0 -1,1 0.99999982,0.99999994 0 0 0 1,1 0.99999982,0.99999994 0 0 0 1,-1 0.99999982,0.99999994 0 0 0 -1,-1 z m 24,0 a 0.99999984,0.99999995 0 0 0 -1,1 0.99999984,0.99999995 0 0 0 1,1 0.99999984,0.99999995 0 0 0 1,-1 0.99999984,0.99999995 0 0 0 -1,-1 z m -24,4 a 0.99999982,0.99999994 0 0 0 -1,1 0.99999982,0.99999994 0 0 0 1,1 0.99999982,0.99999994 0 0 0 1,-1 0.99999982,0.99999994 0 0 0 -1,-1 z m 24,0 a 0.99999984,0.99999995 0 0 0 -1,1 0.99999984,0.99999995 0 0 0 1,1 0.99999984,0.99999995 0 0 0 1,-1 0.99999984,0.99999995 0 0 0 -1,-1 z m -24,4 a 0.99999982,0.99999994 0 0 0 -1,1 0.99999982,0.99999994 0 0 0 1,1 0.99999982,0.99999994 0 0 0 1,-1 0.99999982,0.99999994 0 0 0 -1,-1 z m 24,0 a 0.99999984,0.99999995 0 0 0 -1,1 0.99999984,0.99999995 0 0 0 1,1 0.99999984,0.99999995 0 0 0 1,-1 0.99999984,0.99999995 0 0 0 -1,-1 z m -24,4 a 0.99999982,0.99999994 0 0 0 -1,1 0.99999982,0.99999994 0 0 0 1,1 0.99999982,0.99999994 0 0 0 1,-1 0.99999982,0.99999994 0 0 0 -1,-1 z m 24,0 a 0.99999984,0.99999995 0 0 0 -1,1 0.99999984,0.99999995 0 0 0 1,1 0.99999984,0.99999995 0 0 0 1,-1 0.99999984,0.99999995 0 0 0 -1,-1 z m -24,4 a 0.99999982,0.99999994 0 0 0 -1,1 0.99999982,0.99999994 0 0 0 1,1 0.99999982,0.99999994 0 0 0 1,-1 0.99999982,0.99999994 0 0 0 -1,-1 z m 24,0 a 0.99999984,0.99999995 0 0 0 -1,1 0.99999984,0.99999995 0 0 0 1,1 0.99999984,0.99999995 0 0 0 1,-1 0.99999984,0.99999995 0 0 0 -1,-1 z m -24,4 a 0.99999982,0.99999994 0 0 0 -1,1 0.99999982,0.99999994 0 0 0 1,1 0.99999982,0.99999994 0 0 0 1,-1 0.99999982,0.99999994 0 0 0 -1,-1 z m 24,0 a 0.99999984,0.99999995 0 0 0 -1,1 0.99999984,0.99999995 0 0 0 1,1 0.99999984,0.99999995 0 0 0 1,-1 0.99999984,0.99999995 0 0 0 -1,-1 z m -24,4 a 0.99999982,0.99999994 0 0 0 -1,1 0.99999982,0.99999994 0 0 0 1,1 0.99999982,0.99999994 0 0 0 1,-1 0.99999982,0.99999994 0 0 0 -1,-1 z m 24,0 a 0.99999984,0.99999995 0 0 0 -1,1 0.99999984,0.99999995 0 0 0 1,1 0.99999984,0.99999995 0 0 0 1,-1 0.99999984,0.99999995 0 0 0 -1,-1 z m -24,4 a 0.99999982,0.99999994 0 0 0 -1,1 0.99999982,0.99999994 0 0 0 1,1 0.99999982,0.99999994 0 0 0 1,-1 0.99999982,0.99999994 0 0 0 -1,-1 z m 24,0 a 0.99999984,0.99999995 0 0 0 -1,1 0.99999984,0.99999995 0 0 0 1,1 0.99999984,0.99999995 0 0 0 1,-1 0.99999984,0.99999995 0 0 0 -1,-1 z"
         transform="matrix(0.26458333,0,0,0.26458333,82.550003,157.3)" />
      <path
         id="rect908"
         style="fill:#96a5af;stroke-width:0.500001;stroke-linejoin:round"
         d="m 15,9 v 1 h 6 V 9 Z m 0,3 v 1 h 18 v -1 z m 6,5 v 1 h 8 v -1 z m 0,3 v 1 h 10 v -1 z m 0,3 v 1 h 6 v -1 z m 0,3 v 1 h 4 v -1 z m 6,0 v 1 h 4 v -1 z m -6,5 v 1 h 8 v -1 z"
         transform="matrix(0.26458333,0,0,0.26458333,82.550003,157.3)" />
      <path
         id="rect912"
         style="fill:#f866a7;stroke-width:0.500001;stroke-linejoin:round"
         d="m 15,17 v 1 h 4 v -1 z m 0,3 v 1 h 4 v -1 z m 0,3 v 1 h 4 v -1 z m 0,3 v 1 h 4 v -1 z m 0,5 v 1 h 4 v -1 z"
         transform="matrix(0.26458333,0,0,0.26458333,82.550003,157.3)" />
    </g>
  </g>
</svg>
