<?xml version="1.0" encoding="UTF-8" standalone="no"?>
<!-- Created with Inkscape (http://www.inkscape.org/) -->

<svg
   width="48"
   height="48"
   viewBox="0 0 12.7 12.7"
   version="1.1"
   id="svg2634"
   inkscape:version="1.1.2 (0a00cf5339, 2022-02-04, custom)"
   sodipodi:docname="video-x-generic.svg"
   xmlns:inkscape="http://www.inkscape.org/namespaces/inkscape"
   xmlns:sodipodi="http://sodipodi.sourceforge.net/DTD/sodipodi-0.dtd"
   xmlns="http://www.w3.org/2000/svg"
   xmlns:svg="http://www.w3.org/2000/svg"
   xmlns:rdf="http://www.w3.org/1999/02/22-rdf-syntax-ns#"
   xmlns:cc="http://creativecommons.org/ns#"
   xmlns:dc="http://purl.org/dc/elements/1.1/">
  <title
     id="title3250">Boston Icons</title>
  <defs
     id="defs2628" />
  <sodipodi:namedview
     id="base"
     pagecolor="#ffffff"
     bordercolor="#00ffed"
     borderopacity="1"
     inkscape:pageopacity="1"
     inkscape:pageshadow="2"
     inkscape:zoom="15.839192"
     inkscape:cx="19.035062"
     inkscape:cy="23.138807"
     inkscape:document-units="px"
     inkscape:current-layer="layer1"
     showgrid="false"
     showguides="false"
     inkscape:guide-bbox="true"
     fit-margin-top="0"
     fit-margin-left="0"
     fit-margin-right="0"
     fit-margin-bottom="0"
     inkscape:window-width="1920"
     inkscape:window-height="1011"
     inkscape:window-x="0"
     inkscape:window-y="0"
     inkscape:window-maximized="1"
     units="px"
     inkscape:pagecheckerboard="0">
    <inkscape:grid
       type="xygrid"
       id="grid3182"
       spacingx="0.26458333"
       spacingy="0.26458333"
       empspacing="4"
       originx="-82.550004"
       originy="-127.00001"
       dotted="false" />
    <sodipodi:guide
       position="-4.268358e-06,27.516666"
       orientation="1,0"
       id="guide3216"
       inkscape:locked="false" />
    <sodipodi:guide
       position="32.279157,-4.1479283e-06"
       orientation="0,1"
       id="guide3222"
       inkscape:locked="false" />
    <sodipodi:guide
       position="13.229163,0.52915746"
       orientation="0,1"
       id="guide3226"
       inkscape:locked="false" />
    <sodipodi:guide
       position="6.3499965,7.9374908"
       orientation="1,0"
       id="guide3238"
       inkscape:locked="false" />
    <sodipodi:guide
       position="13.75833,1.0583241"
       orientation="0,1"
       id="guide3246"
       inkscape:locked="false" />
    <sodipodi:guide
       position="5.8208298,12.170824"
       orientation="0,1"
       id="guide864"
       inkscape:locked="false" />
    <sodipodi:guide
       position="12.699995,10.847905"
       orientation="1,0"
       id="guide868"
       inkscape:locked="false" />
    <sodipodi:guide
       position="2.1166616,12.170822"
       orientation="1,0"
       id="guide1119"
       inkscape:locked="false" />
    <sodipodi:guide
       position="10.583328,11.112488"
       orientation="1,0"
       id="guide1121"
       inkscape:locked="false" />
    <sodipodi:guide
       position="7.9374949,9.7895716"
       orientation="1,0"
       id="guide1129"
       inkscape:locked="false" />
    <sodipodi:guide
       position="8.4666615,9.5249883"
       orientation="0,1"
       id="guide1131"
       inkscape:locked="false" />
    <sodipodi:guide
       position="3.4395782,8.2020716"
       orientation="1,0"
       id="guide1138"
       inkscape:locked="false" />
    <sodipodi:guide
       position="9.2604115,7.1437383"
       orientation="1,0"
       id="guide1140"
       inkscape:locked="false" />
    <sodipodi:guide
       position="4.2333282,10.318738"
       orientation="0,1"
       id="guide1142"
       inkscape:locked="false" />
    <sodipodi:guide
       position="4.7624949,8.466655"
       orientation="0,1"
       id="guide1152"
       inkscape:locked="false" />
    <sodipodi:guide
       position="5.2916616,3.704155"
       orientation="0,1"
       id="guide849"
       inkscape:locked="false" />
  </sodipodi:namedview>
  <metadata
     id="metadata2631">
    <rdf:RDF>
      <cc:Work
         rdf:about="">
        <dc:format>image/svg+xml</dc:format>
        <dc:type
           rdf:resource="http://purl.org/dc/dcmitype/StillImage" />
        <dc:title>Boston Icons</dc:title>
        <cc:license
           rdf:resource="dribbble.com/chrisdiaz" />
        <dc:creator>
          <cc:Agent>
            <dc:title>Christian Díaz</dc:title>
          </cc:Agent>
        </dc:creator>
        <dc:date>2022</dc:date>
        <dc:publisher>
          <cc:Agent>
            <dc:title>Christian Díaz</dc:title>
          </cc:Agent>
        </dc:publisher>
        <dc:identifier>christiandiaz.design [at] gmail [dot] com</dc:identifier>
        <dc:subject>
          <rdf:Bag>
            <rdf:li>GNOME icon Theme</rdf:li>
          </rdf:Bag>
        </dc:subject>
        <dc:description>dribbble.com/chrisdiaz | diazchris.deviantart.com</dc:description>
      </cc:Work>
    </rdf:RDF>
  </metadata>
  <g
     inkscape:label="Capa 1"
     inkscape:groupmode="layer"
     id="layer1"
     transform="translate(-82.550003,-157.3)">
    <g
       id="g1504">
      <rect
         style="fill:#252627;stroke-width:1.32292;stroke-linejoin:round"
         id="rect891"
         width="8.4666662"
         height="11.641645"
         x="84.666664"
         y="157.82918" />
      <rect
         style="fill:#373b43;stroke-width:1.32292;stroke-linejoin:round"
         id="rect1097"
         width="7.9375"
         height="11.1125"
         x="84.931252"
         y="158.09373" />
      <path
         id="rect1121"
         style="fill:#ffffff;stroke-width:5.00001;stroke-linejoin:round"
         d="M 11 5 L 11 7 L 13 7 L 13 5 L 11 5 z M 35 5 L 35 7 L 37 7 L 37 5 L 35 5 z M 11 9 L 11 11 L 13 11 L 13 9 L 11 9 z M 35 9 L 35 11 L 37 11 L 37 9 L 35 9 z M 11 13 L 11 15 L 13 15 L 13 13 L 11 13 z M 35 13 L 35 15 L 37 15 L 37 13 L 35 13 z M 11 17 L 11 19 L 13 19 L 13 17 L 11 17 z M 35 17 L 35 19 L 37 19 L 37 17 L 35 17 z M 11 21 L 11 23 L 13 23 L 13 21 L 11 21 z M 35 21 L 35 23 L 37 23 L 37 21 L 35 21 z M 11 25 L 11 27 L 13 27 L 13 25 L 11 25 z M 35 25 L 35 27 L 37 27 L 37 25 L 35 25 z M 11 29 L 11 31 L 13 31 L 13 29 L 11 29 z M 35 29 L 35 31 L 37 31 L 37 29 L 35 29 z M 11 33 L 11 35 L 13 35 L 13 33 L 11 33 z M 35 33 L 35 35 L 37 35 L 37 33 L 35 33 z M 11 37 L 11 39 L 13 39 L 13 37 L 11 37 z M 35 37 L 35 39 L 37 39 L 37 37 L 35 37 z M 11 41 L 11 43 L 13 43 L 13 41 L 11 41 z M 35 41 L 35 43 L 37 43 L 37 41 L 35 41 z "
         transform="matrix(0.26458333,0,0,0.26458333,82.550003,157.3)" />
      <path
         style="fill:#ffffff;fill-opacity:1;stroke:none;stroke-width:0.264583px;stroke-linecap:butt;stroke-linejoin:miter;stroke-opacity:1"
         d="m 87.577081,161.79791 v 3.70415 l 3.175,-1.85209 -3.175,-1.85206"
         id="path1266" />
    </g>
  </g>
</svg>
