<?xml version="1.0" encoding="UTF-8" standalone="no"?>
<!-- Created with Inkscape (http://www.inkscape.org/) -->

<svg
   xmlns:dc="http://purl.org/dc/elements/1.1/"
   xmlns:cc="http://creativecommons.org/ns#"
   xmlns:rdf="http://www.w3.org/1999/02/22-rdf-syntax-ns#"
   xmlns:svg="http://www.w3.org/2000/svg"
   xmlns="http://www.w3.org/2000/svg"
   xmlns:sodipodi="http://sodipodi.sourceforge.net/DTD/sodipodi-0.dtd"
   xmlns:inkscape="http://www.inkscape.org/namespaces/inkscape"
   width="48"
   height="48"
   viewBox="0 0 12.7 12.7"
   version="1.1"
   id="svg2634"
   inkscape:version="0.92.4 5da689c313, 2019-01-14"
   sodipodi:docname="application-x-qemu-disk.svg">
  <title
     id="title3250">Boston Icons</title>
  <defs
     id="defs2628" />
  <sodipodi:namedview
     id="base"
     pagecolor="#ffffff"
     bordercolor="#00ffed"
     borderopacity="1"
     inkscape:pageopacity="1"
     inkscape:pageshadow="2"
     inkscape:zoom="7.919596"
     inkscape:cx="18.885062"
     inkscape:cy="17.863811"
     inkscape:document-units="px"
     inkscape:current-layer="layer1"
     showgrid="false"
     showguides="false"
     inkscape:guide-bbox="true"
     fit-margin-top="0"
     fit-margin-left="0"
     fit-margin-right="0"
     fit-margin-bottom="0"
     inkscape:window-width="1920"
     inkscape:window-height="1016"
     inkscape:window-x="0"
     inkscape:window-y="27"
     inkscape:window-maximized="1"
     units="px">
    <inkscape:grid
       type="xygrid"
       id="grid3182"
       spacingx="0.26458333"
       spacingy="0.26458333"
       empspacing="4"
       originx="-82.550004"
       originy="-127.00001"
       dotted="false" />
    <sodipodi:guide
       position="-4.268358e-06,27.516666"
       orientation="1,0"
       id="guide3216"
       inkscape:locked="false" />
    <sodipodi:guide
       position="32.279157,-4.1479283e-06"
       orientation="0,1"
       id="guide3222"
       inkscape:locked="false" />
    <sodipodi:guide
       position="13.229163,0.52915746"
       orientation="0,1"
       id="guide3226"
       inkscape:locked="false" />
    <sodipodi:guide
       position="6.3499965,7.9374908"
       orientation="1,0"
       id="guide3238"
       inkscape:locked="false" />
    <sodipodi:guide
       position="13.75833,1.0583241"
       orientation="0,1"
       id="guide3246"
       inkscape:locked="false" />
    <sodipodi:guide
       position="5.8208298,12.170824"
       orientation="0,1"
       id="guide864"
       inkscape:locked="false" />
    <sodipodi:guide
       position="2.1166616,12.170822"
       orientation="1,0"
       id="guide1119"
       inkscape:locked="false" />
    <sodipodi:guide
       position="10.583328,11.112488"
       orientation="1,0"
       id="guide1121"
       inkscape:locked="false" />
    <sodipodi:guide
       position="13.493745,6.879155"
       orientation="0.70710678,0.70710678"
       id="guide1123"
       inkscape:locked="false" />
    <sodipodi:guide
       position="8.4666615,9.5249883"
       orientation="0,1"
       id="guide1131"
       inkscape:locked="false" />
    <sodipodi:guide
       position="3.4395782,8.2020716"
       orientation="1,0"
       id="guide1138"
       inkscape:locked="false" />
    <sodipodi:guide
       position="9.2604115,7.1437383"
       orientation="1,0"
       id="guide1140"
       inkscape:locked="false" />
    <sodipodi:guide
       position="4.2333282,10.318738"
       orientation="0,1"
       id="guide1142"
       inkscape:locked="false" />
    <sodipodi:guide
       position="4.7624949,8.466655"
       orientation="0,1"
       id="guide1152"
       inkscape:locked="false" />
    <sodipodi:guide
       position="5.2916616,3.704155"
       orientation="0,1"
       id="guide849"
       inkscape:locked="false" />
  </sodipodi:namedview>
  <metadata
     id="metadata2631">
    <rdf:RDF>
      <cc:Work
         rdf:about="">
        <dc:format>image/svg+xml</dc:format>
        <dc:type
           rdf:resource="http://purl.org/dc/dcmitype/StillImage" />
        <dc:title>Boston Icons</dc:title>
        <cc:license
           rdf:resource="dribbble.com/chrisdiaz" />
        <dc:creator>
          <cc:Agent>
            <dc:title>Christian Díaz</dc:title>
          </cc:Agent>
        </dc:creator>
        <dc:date>2019</dc:date>
        <dc:publisher>
          <cc:Agent>
            <dc:title>Christian Díaz</dc:title>
          </cc:Agent>
        </dc:publisher>
        <dc:identifier>christiandiaz.design [at] gmail [dot] com</dc:identifier>
        <dc:subject>
          <rdf:Bag>
            <rdf:li>GNOME icon Theme</rdf:li>
          </rdf:Bag>
        </dc:subject>
        <dc:description>dribbble.com/chrisdiaz</dc:description>
      </cc:Work>
    </rdf:RDF>
  </metadata>
  <g
     inkscape:label="Capa 1"
     inkscape:groupmode="layer"
     id="layer1"
     transform="translate(-82.550003,-157.3)">
    <g
       id="g4810">
      <path
         inkscape:connector-curvature="0"
         id="path1125"
         d="m 84.666665,157.82918 h 6.085416 l 2.38125,2.38125 v 9.26041 h -8.466666 z"
         style="fill:#96a5af;fill-opacity:1;stroke:none;stroke-width:0.26458332px;stroke-linecap:butt;stroke-linejoin:miter;stroke-opacity:1" />
      <path
         sodipodi:nodetypes="cccccc"
         inkscape:connector-curvature="0"
         id="path1127"
         d="m 84.931248,158.09376 h 5.688547 l 2.248958,2.24895 -5e-6,8.86355 h -7.9375 z"
         style="fill:#ffffff;stroke:none;stroke-width:0.26458332px;stroke-linecap:butt;stroke-linejoin:miter;stroke-opacity:1" />
      <path
         id="rect1133"
         d="m 90.487503,157.82917 v 2.38125 0.26458 h 0.264583 2.38125 v -0.26458 h -2.38125 v -2.38125 z"
         style="opacity:1;fill:#96a5af;fill-opacity:1;fill-rule:nonzero;stroke:none;stroke-width:0.52916664;stroke-linecap:square;stroke-linejoin:bevel;stroke-miterlimit:4;stroke-dasharray:none;stroke-dashoffset:35;stroke-opacity:1"
         inkscape:connector-curvature="0" />
      <path
         inkscape:connector-curvature="0"
         id="rect4787"
         transform="matrix(0.26458333,0,0,0.26458333,82.550003,157.3)"
         d="m 17,15 c -0.554011,0 -1.003957,0.445997 -1,1 v 16 1 2 c 0,0.554003 0.445989,1 1,1 h 14 c 0.554011,0 1,-0.445997 1,-1 V 33 32 16 c 0,-0.554003 -0.445989,-1 -1,-1 z m 0,1 H 31 V 32 H 17 Z m 1.5,1 c -0.276132,0 -0.499996,0.223754 -0.5,0.5 -1.5e-5,0.276283 0.22386,0.5 0.5,0.5 0.27617,0 0.500019,-0.223717 0.5,-0.5 -4e-6,-0.276283 -0.22386,-0.5 -0.5,-0.5 z m 11,0 c -0.276132,0 -0.499996,0.223754 -0.5,0.5 -1.9e-5,0.276283 0.22386,0.5 0.5,0.5 0.27617,0 0.500015,-0.223717 0.5,-0.5 -4e-6,-0.276283 -0.22386,-0.5 -0.5,-0.5 z m -7.820312,4.349609 C 20.128225,21.349609 19,22.456176 19,24 c 0,1.543786 1.128225,2.650391 2.679688,2.650391 1.543778,0 2.673828,-1.106605 2.673828,-2.650391 0,-1.543824 -1.13005,-2.650391 -2.673828,-2.650391 z m 5.201171,0.0078 c -1.205835,0 -1.943359,0.708037 -1.943359,1.560547 0,1.927823 2.949219,1.304364 2.949219,2.195312 0,0.299339 -0.283871,0.56836 -0.890625,0.56836 -0.706609,0 -1.267924,-0.323081 -1.628906,-0.699219 l -0.59961,0.853516 c 0.48387,0.483892 1.190856,0.814453 2.181641,0.814453 1.374807,0 2.050781,-0.707473 2.050781,-1.644532 0,-1.912441 -2.941406,-1.367428 -2.941406,-2.173828 0,-0.306897 0.261848,-0.505859 0.722656,-0.505859 0.522297,0 1.073535,0.176736 1.488281,0.560547 l 0.607422,-0.814453 c -0.506895,-0.468624 -1.181961,-0.714844 -1.996094,-0.714844 z m -5.201171,0.960937 c 0.944696,0 1.552734,0.721565 1.552734,1.681641 0,0.952365 -0.608038,1.681641 -1.552734,1.681641 -0.952385,0 -1.558594,-0.729276 -1.558594,-1.681641 0,-0.960076 0.606209,-1.681641 1.558594,-1.681641 z M 18.5,30 c -0.276132,0 -0.499996,0.223754 -0.5,0.5 4e-6,0.276283 0.22386,0.5 0.5,0.5 0.276132,0 0.499996,-0.223754 0.5,-0.5 -4e-6,-0.276283 -0.22386,-0.5 -0.5,-0.5 z m 11,0 c -0.276132,0 -0.499996,0.223754 -0.5,0.5 4e-6,0.276283 0.22386,0.5 0.5,0.5 0.276132,0 0.499996,-0.223754 0.5,-0.5 -4e-6,-0.276283 -0.22386,-0.5 -0.5,-0.5 z M 17,33 h 14 v 2 h -1 v -1 h -5 v 1 h -1 v -1 h -1 v 1 h -6 z"
         style="opacity:1;fill:#96a5af;fill-opacity:1;fill-rule:nonzero;stroke:none;stroke-width:1.99999988;stroke-linecap:square;stroke-linejoin:round;stroke-miterlimit:4;stroke-dasharray:none;stroke-dashoffset:0;stroke-opacity:1" />
    </g>
  </g>
</svg>
