<?xml version="1.0" encoding="UTF-8" standalone="no"?>
<!-- Created with Inkscape (http://www.inkscape.org/) -->

<svg
   width="48"
   height="48"
   viewBox="0 0 12.7 12.7"
   version="1.1"
   id="svg2634"
   inkscape:version="1.1.2 (0a00cf5339, 2022-02-04, custom)"
   sodipodi:docname="document-open.svg"
   xmlns:inkscape="http://www.inkscape.org/namespaces/inkscape"
   xmlns:sodipodi="http://sodipodi.sourceforge.net/DTD/sodipodi-0.dtd"
   xmlns:xlink="http://www.w3.org/1999/xlink"
   xmlns="http://www.w3.org/2000/svg"
   xmlns:svg="http://www.w3.org/2000/svg"
   xmlns:rdf="http://www.w3.org/1999/02/22-rdf-syntax-ns#"
   xmlns:cc="http://creativecommons.org/ns#"
   xmlns:dc="http://purl.org/dc/elements/1.1/">
  <title
     id="title3250">Boston Icons</title>
  <defs
     id="defs2628">
    <linearGradient
       inkscape:collect="always"
       id="linearGradient1563">
      <stop
         style="stop-color:#6fb7ff;stop-opacity:1;"
         offset="0"
         id="stop1559" />
      <stop
         style="stop-color:#2d8cff;stop-opacity:1"
         offset="1"
         id="stop1561" />
    </linearGradient>
    <linearGradient
       inkscape:collect="always"
       xlink:href="#linearGradient1563"
       id="linearGradient2049"
       gradientUnits="userSpaceOnUse"
       gradientTransform="translate(1.3941667e-6)"
       x1="88.900002"
       y1="160.73958"
       x2="88.900002"
       y2="166.56041" />
  </defs>
  <sodipodi:namedview
     id="base"
     pagecolor="#ffffff"
     bordercolor="#00ffed"
     borderopacity="1"
     inkscape:pageopacity="1"
     inkscape:pageshadow="2"
     inkscape:zoom="11.2"
     inkscape:cx="36.651785"
     inkscape:cy="25.044643"
     inkscape:document-units="px"
     inkscape:current-layer="layer1"
     showgrid="false"
     showguides="false"
     inkscape:guide-bbox="true"
     fit-margin-top="0"
     fit-margin-left="0"
     fit-margin-right="0"
     fit-margin-bottom="0"
     inkscape:window-width="1920"
     inkscape:window-height="1011"
     inkscape:window-x="0"
     inkscape:window-y="0"
     inkscape:window-maximized="1"
     units="px"
     inkscape:pagecheckerboard="0">
    <inkscape:grid
       type="xygrid"
       id="grid3182"
       spacingx="0.26458333"
       spacingy="0.26458333"
       empspacing="4"
       originx="-82.550004"
       originy="-127.00001"
       dotted="false" />
    <sodipodi:guide
       position="-4.268358e-06,27.516666"
       orientation="1,0"
       id="guide3216"
       inkscape:locked="false" />
    <sodipodi:guide
       position="32.279157,-4.1479283e-06"
       orientation="0,1"
       id="guide3222"
       inkscape:locked="false" />
    <sodipodi:guide
       position="13.229163,0.52915746"
       orientation="0,1"
       id="guide3226"
       inkscape:locked="false" />
    <sodipodi:guide
       position="0.52916318,6.8791574"
       orientation="1,0"
       id="guide3228"
       inkscape:locked="false" />
    <sodipodi:guide
       position="1.0583298,6.8791574"
       orientation="1,0"
       id="guide3234"
       inkscape:locked="false" />
    <sodipodi:guide
       position="1.5874965,6.8791574"
       orientation="1,0"
       id="guide3236"
       inkscape:locked="false" />
    <sodipodi:guide
       position="6.3499965,7.9374908"
       orientation="1,0"
       id="guide3238"
       inkscape:locked="false" />
    <sodipodi:guide
       position="13.75833,1.0583241"
       orientation="0,1"
       id="guide3246"
       inkscape:locked="false" />
    <sodipodi:guide
       position="16.404162,3.1749959"
       orientation="0,1"
       id="guide3248"
       inkscape:locked="false" />
    <sodipodi:guide
       position="5.2916632,10.054157"
       orientation="0,1"
       id="guide862"
       inkscape:locked="false" />
    <sodipodi:guide
       position="5.8208298,12.170824"
       orientation="0,1"
       id="guide864"
       inkscape:locked="false" />
    <sodipodi:guide
       position="6.8791632,11.641657"
       orientation="0,1"
       id="guide866"
       inkscape:locked="false" />
    <sodipodi:guide
       position="12.17083,8.4666574"
       orientation="1,0"
       id="guide868"
       inkscape:locked="false" />
    <sodipodi:guide
       position="11.641663,8.4666574"
       orientation="1,0"
       id="guide870"
       inkscape:locked="false" />
    <sodipodi:guide
       position="11.112496,8.4666574"
       orientation="1,0"
       id="guide872"
       inkscape:locked="false" />
    <sodipodi:guide
       position="2.3812449,11.112512"
       orientation="0,-1"
       id="guide844" />
  </sodipodi:namedview>
  <metadata
     id="metadata2631">
    <rdf:RDF>
      <cc:Work
         rdf:about="">
        <dc:format>image/svg+xml</dc:format>
        <dc:type
           rdf:resource="http://purl.org/dc/dcmitype/StillImage" />
        <dc:title>Boston Icons</dc:title>
        <cc:license
           rdf:resource="dribbble.com/chrisdiaz" />
        <dc:creator>
          <cc:Agent>
            <dc:title>Christian Díaz</dc:title>
          </cc:Agent>
        </dc:creator>
        <dc:date>2022</dc:date>
        <dc:publisher>
          <cc:Agent>
            <dc:title>Christian Díaz</dc:title>
          </cc:Agent>
        </dc:publisher>
        <dc:identifier>christiandiaz.design [at] gmail [dot] com</dc:identifier>
        <dc:subject>
          <rdf:Bag>
            <rdf:li>GNOME icon Theme</rdf:li>
          </rdf:Bag>
        </dc:subject>
        <dc:description>dribbble.com/chrisdiaz | diazchris.deviantart.com</dc:description>
      </cc:Work>
    </rdf:RDF>
  </metadata>
  <g
     inkscape:label="Capa 1"
     inkscape:groupmode="layer"
     id="layer1"
     transform="translate(-82.550003,-157.3)">
    <g
       id="g2881">
      <path
         id="path881"
         style="fill:#2d8cff;stroke:none;stroke-width:0.264583px;stroke-linecap:butt;stroke-linejoin:miter;stroke-opacity:1"
         d="m 84.114249,158.8875 c -0.05393,0.001 -0.107568,0.007 -0.160714,0.016 -0.06054,0.0108 -0.12002,0.0269 -0.177767,0.0481 -0.05796,0.0209 -0.113984,0.0469 -0.167432,0.0775 -0.05328,0.0309 -0.103774,0.0663 -0.150895,0.10594 -0.04731,0.0397 -0.09106,0.0834 -0.130741,0.13074 -0.03964,0.0471 -0.07508,0.0976 -0.105937,0.1509 -0.03066,0.0534 -0.0566,0.10947 -0.07752,0.16743 -0.02115,0.0577 -0.03723,0.11723 -0.04806,0.17777 -0.01069,0.0607 -0.01605,0.12229 -0.01602,0.18396 v 9.525 h 11.641666 v -8.97981 a 0.52916663,0.52916663 0 0 0 0,-0.016 0.52916663,0.52916663 0 0 0 -0.0067,-0.0827 0.52916663,0.52916663 0 0 0 -0.01912,-0.0806 0.52916663,0.52916663 0 0 0 -0.03204,-0.077 0.52916663,0.52916663 0 0 0 -0.04341,-0.0708 0.52916663,0.52916663 0 0 0 -0.05374,-0.063 0.52916663,0.52916663 0 0 0 -0.06305,-0.0537 0.52916663,0.52916663 0 0 0 -0.0708,-0.0434 0.52916663,0.52916663 0 0 0 -0.077,-0.032 0.52916663,0.52916663 0 0 0 -0.08062,-0.0191 0.52916663,0.52916663 0 0 0 -0.08268,-0.007 H 88.900003 L 87.84167,158.8875 h -3.704167 c -0.0077,0 -0.01555,-1.6e-4 -0.02325,0 z" />
      <path
         id="path1966"
         style="fill:url(#linearGradient2049);fill-opacity:1;stroke:none;stroke-width:0.264583px;stroke-linecap:butt;stroke-linejoin:miter;stroke-opacity:1"
         d="m 84.137503,159.15208 a 0.79374999,0.79374999 0 0 0 -0.155029,0.015 0.79374999,0.79374999 0 0 0 -0.148828,0.0455 0.79374999,0.79374999 0 0 0 -0.136943,0.0734 0.79374999,0.79374999 0 0 0 -0.120406,0.0987 0.79374999,0.79374999 0 0 0 -0.0987,0.1204 0.79374999,0.79374999 0 0 0 -0.07338,0.13695 0.79374999,0.79374999 0 0 0 -0.04496,0.14882 0.79374999,0.79374999 0 0 0 -0.0155,0.15503 v 9.26042 h 11.1125 v -8.71678 a 0.26458331,0.26458331 0 0 0 0,-5.3e-4 0.26458331,0.26458331 0 0 0 0,-5.3e-4 0.26458331,0.26458331 0 0 0 0,-5.3e-4 0.26458331,0.26458331 0 0 0 0,-5.3e-4 0.26458331,0.26458331 0 0 0 0,-5.3e-4 0.26458331,0.26458331 0 0 0 0,-5.3e-4 0.26458331,0.26458331 0 0 0 0,-5.2e-4 0.26458331,0.26458331 0 0 0 0,-5.3e-4 0.26458331,0.26458331 0 0 0 0,-5.3e-4 0.26458331,0.26458331 0 0 0 0,-5.3e-4 0.26458331,0.26458331 0 0 0 0,-5.3e-4 0.26458331,0.26458331 0 0 0 0,-5.3e-4 0.26458331,0.26458331 0 0 0 0,-5.3e-4 0.26458331,0.26458331 0 0 0 0,-5.3e-4 0.26458331,0.26458331 0 0 0 0,-5.3e-4 0.26458331,0.26458331 0 0 0 0,-5.3e-4 0.26458331,0.26458331 0 0 0 0,-5.3e-4 0.26458331,0.26458331 0 0 0 0,-5.3e-4 0.26458331,0.26458331 0 0 0 0,-5.2e-4 0.26458331,0.26458331 0 0 0 0,-5.3e-4 0.26458331,0.26458331 0 0 0 0,-5.3e-4 0.26458331,0.26458331 0 0 0 0,-5.3e-4 0.26458331,0.26458331 0 0 0 0,-5.3e-4 0.26458331,0.26458331 0 0 0 0,-5.3e-4 0.26458331,0.26458331 0 0 0 0,-5.3e-4 0.26458331,0.26458331 0 0 0 0,-5.3e-4 0.26458331,0.26458331 0 0 0 0,-5.3e-4 0.26458331,0.26458331 0 0 0 0,-1.8e-4 v -0.007 a 0.26458331,0.26458331 0 0 0 -5.29e-4,-0.007 0.26458331,0.26458331 0 0 0 -5.29e-4,-0.007 0.26458331,0.26458331 0 0 0 -5.3e-4,-0.007 0.26458331,0.26458331 0 0 0 -5.29e-4,-0.007 0.26458331,0.26458331 0 0 0 -10e-4,-0.007 0.26458331,0.26458331 0 0 0 -0.001,-0.007 0.26458331,0.26458331 0 0 0 -0.0016,-0.007 0.26458331,0.26458331 0 0 0 -0.0016,-0.007 0.26458331,0.26458331 0 0 0 -0.0016,-0.006 0.26458331,0.26458331 0 0 0 -0.0016,-0.007 0.26458331,0.26458331 0 0 0 -0.0021,-0.007 0.26458331,0.26458331 0 0 0 -0.0021,-0.006 0.26458331,0.26458331 0 0 0 -0.0026,-0.007 0.26458331,0.26458331 0 0 0 -0.0026,-0.006 0.26458331,0.26458331 0 0 0 -0.0026,-0.006 0.26458331,0.26458331 0 0 0 -0.0026,-0.006 0.26458331,0.26458331 0 0 0 -0.0031,-0.006 0.26458331,0.26458331 0 0 0 -0.0031,-0.006 0.26458331,0.26458331 0 0 0 -0.0031,-0.006 0.26458331,0.26458331 0 0 0 -0.0036,-0.006 0.26458331,0.26458331 0 0 0 -0.0036,-0.006 0.26458331,0.26458331 0 0 0 -0.0036,-0.006 0.26458331,0.26458331 0 0 0 -0.0041,-0.006 0.26458331,0.26458331 0 0 0 -0.0036,-0.005 0.26458331,0.26458331 0 0 0 -0.0047,-0.006 0.26458331,0.26458331 0 0 0 -0.0041,-0.005 0.26458331,0.26458331 0 0 0 -0.0041,-0.005 0.26458331,0.26458331 0 0 0 -0.0047,-0.005 0.26458331,0.26458331 0 0 0 -0.0047,-0.005 0.26458331,0.26458331 0 0 0 -0.0052,-0.005 0.26458331,0.26458331 0 0 0 -0.0047,-0.005 0.26458331,0.26458331 0 0 0 -0.0052,-0.005 0.26458331,0.26458331 0 0 0 -0.0052,-0.004 0.26458331,0.26458331 0 0 0 -0.0052,-0.004 0.26458331,0.26458331 0 0 0 -0.0057,-0.005 0.26458331,0.26458331 0 0 0 -0.0052,-0.004 0.26458331,0.26458331 0 0 0 -0.0057,-0.004 0.26458331,0.26458331 0 0 0 -0.0057,-0.004 0.26458331,0.26458331 0 0 0 -0.0057,-0.004 0.26458331,0.26458331 0 0 0 -0.0062,-0.004 0.26458331,0.26458331 0 0 0 -0.0057,-0.003 0.26458331,0.26458331 0 0 0 -0.0062,-0.003 0.26458331,0.26458331 0 0 0 -0.0062,-0.003 0.26458331,0.26458331 0 0 0 -0.0062,-0.003 0.26458331,0.26458331 0 0 0 -0.0062,-0.003 0.26458331,0.26458331 0 0 0 -0.0062,-0.003 0.26458331,0.26458331 0 0 0 -0.0067,-0.003 0.26458331,0.26458331 0 0 0 -0.0062,-0.002 0.26458331,0.26458331 0 0 0 -0.0067,-0.002 0.26458331,0.26458331 0 0 0 -0.0067,-0.002 0.26458331,0.26458331 0 0 0 -0.0062,-0.002 0.26458331,0.26458331 0 0 0 -0.0067,-0.002 0.26458331,0.26458331 0 0 0 -0.0067,-0.002 0.26458331,0.26458331 0 0 0 -0.0067,-0.001 0.26458331,0.26458331 0 0 0 -0.0067,-0.001 0.26458331,0.26458331 0 0 0 -0.0067,-5.3e-4 0.26458331,0.26458331 0 0 0 -0.0067,-5.3e-4 0.26458331,0.26458331 0 0 0 -0.0072,-5.3e-4 0.26458331,0.26458331 0 0 0 -0.0066,-4e-4 h -0.0067 -5.423959 l -0.264583,-0.26459 -0.79375,-0.79375 z" />
      <g
         id="g953"
         transform="translate(9.3551727e-6,-0.79378005)">
        <rect
           style="opacity:1;fill:#96a5af;fill-opacity:1;fill-rule:nonzero;stroke:none;stroke-width:1.5875;stroke-linecap:square;stroke-linejoin:bevel;stroke-miterlimit:4;stroke-dasharray:none;stroke-dashoffset:35;stroke-opacity:1"
           id="rect947"
           width="8.4666672"
           height="6.8791623"
           x="84.666664"
           y="162.59167" />
        <rect
           style="opacity:1;fill:#ffffff;fill-opacity:1;fill-rule:nonzero;stroke:none;stroke-width:1.5875;stroke-linecap:square;stroke-linejoin:bevel;stroke-miterlimit:4;stroke-dasharray:none;stroke-dashoffset:35;stroke-opacity:1"
           id="rect949"
           width="7.9375"
           height="6.3499999"
           x="84.931252"
           y="162.85626" />
      </g>
      <path
         id="path908"
         style="fill:#2d8cff;fill-opacity:1;stroke:none;stroke-width:0.264583px;stroke-linecap:butt;stroke-linejoin:miter;stroke-opacity:1"
         d="m 88.900003,163.65 -1.058333,1.05833 h -4.7625 v 4.7625 h 11.641666 v -5.29166 a 0.52916663,0.52916663 0 0 0 -0.0016,-0.0398 0.52916663,0.52916663 0 0 0 -0.0041,-0.0393 0.52916663,0.52916663 0 0 0 -0.0078,-0.0388 0.52916663,0.52916663 0 0 0 -0.0098,-0.0382 0.52916663,0.52916663 0 0 0 -0.01344,-0.0372 0.52916663,0.52916663 0 0 0 -0.0155,-0.0362 0.52916663,0.52916663 0 0 0 -0.01859,-0.0351 0.52916663,0.52916663 0 0 0 -0.02119,-0.0336 0.52916663,0.52916663 0 0 0 -0.02325,-0.0315 0.52916663,0.52916663 0 0 0 -0.02584,-0.0305 0.52916663,0.52916663 0 0 0 -0.02791,-0.0279 0.52916663,0.52916663 0 0 0 -0.03049,-0.0258 0.52916663,0.52916663 0 0 0 -0.03152,-0.0233 0.52916663,0.52916663 0 0 0 -0.03359,-0.0212 0.52916663,0.52916663 0 0 0 -0.03514,-0.0186 0.52916663,0.52916663 0 0 0 -0.03617,-0.0155 0.52916663,0.52916663 0 0 0 -0.03721,-0.0134 0.52916663,0.52916663 0 0 0 -0.03824,-0.01 0.52916663,0.52916663 0 0 0 -0.03876,-0.008 0.52916663,0.52916663 0 0 0 -0.03927,-0.004 0.52916663,0.52916663 0 0 0 -0.03979,-0.002 z" />
      <path
         id="path910-3"
         style="fill:#6fb7ff;fill-opacity:1;stroke:none;stroke-width:0.264583px;stroke-linecap:butt;stroke-linejoin:miter;stroke-opacity:1"
         d="m 89.032295,163.91458 -1.058334,1.05834 h -4.630208 v 4.23333 h 11.1125 v -5.0152 a 0.26458331,0.26458331 0 0 0 0,-0.002 0.26458331,0.26458331 0 0 0 0,-0.0103 0.26458331,0.26458331 0 0 0 0,-5.3e-4 0.26458331,0.26458331 0 0 0 0,-5.3e-4 0.26458331,0.26458331 0 0 0 0,-0.002 0.26458331,0.26458331 0 0 0 0,-5.3e-4 0.26458331,0.26458331 0 0 0 0,-5.3e-4 0.26458331,0.26458331 0 0 0 0,-5.3e-4 0.26458331,0.26458331 0 0 0 0,-0.002 0.26458331,0.26458331 0 0 0 0,-5.3e-4 0.26458331,0.26458331 0 0 0 0,-5.3e-4 0.26458331,0.26458331 0 0 0 0,-5.3e-4 0.26458331,0.26458331 0 0 0 0,-5.3e-4 0.26458331,0.26458331 0 0 0 0,-0.002 0.26458331,0.26458331 0 0 0 0,-5.3e-4 0.26458331,0.26458331 0 0 0 0,-5.3e-4 0.26458331,0.26458331 0 0 0 0,-5.3e-4 0.26458331,0.26458331 0 0 0 0,-0.002 0.26458331,0.26458331 0 0 0 0,-5.3e-4 0.26458331,0.26458331 0 0 0 0,-5.3e-4 0.26458331,0.26458331 0 0 0 0,-5.3e-4 0.26458331,0.26458331 0 0 0 -5.29e-4,-0.002 0.26458331,0.26458331 0 0 0 0,-5.3e-4 0.26458331,0.26458331 0 0 0 0,-5.2e-4 0.26458331,0.26458331 0 0 0 0,-5.3e-4 0.26458331,0.26458331 0 0 0 0,-0.002 0.26458331,0.26458331 0 0 0 0,-5.3e-4 0.26458331,0.26458331 0 0 0 0,-5.3e-4 0.26458331,0.26458331 0 0 0 0,-5.3e-4 0.26458331,0.26458331 0 0 0 0,-5.3e-4 0.26458331,0.26458331 0 0 0 0,-0.002 0.26458331,0.26458331 0 0 0 -5.29e-4,-5.3e-4 0.26458331,0.26458331 0 0 0 0,-5.3e-4 0.26458331,0.26458331 0 0 0 0,-5.3e-4 0.26458331,0.26458331 0 0 0 0,-0.002 0.26458331,0.26458331 0 0 0 0,-5.3e-4 0.26458331,0.26458331 0 0 0 -0.0041,-0.0258 0.26458331,0.26458331 0 0 0 -0.0062,-0.0253 0.26458331,0.26458331 0 0 0 -0.0088,-0.0243 0.26458331,0.26458331 0 0 0 -0.01085,-0.0233 0.26458331,0.26458331 0 0 0 -0.01344,-0.0222 0.26458331,0.26458331 0 0 0 -0.0155,-0.0212 0.26458331,0.26458331 0 0 0 -0.01757,-0.0191 0.26458331,0.26458331 0 0 0 -0.01912,-0.0176 0.26458331,0.26458331 0 0 0 -0.02119,-0.0155 0.26458331,0.26458331 0 0 0 -0.02222,-0.0134 0.26458331,0.26458331 0 0 0 -0.02325,-0.0109 0.26458331,0.26458331 0 0 0 -0.02429,-0.009 0.26458331,0.26458331 0 0 0 -0.02532,-0.006 0.26458331,0.26458331 0 0 0 -0.02584,-0.004 0.26458331,0.26458331 0 0 0 -0.02581,-6.3e-4 z" />
    </g>
  </g>
</svg>
