<?xml version="1.0" encoding="UTF-8" standalone="no"?>
<!-- Created with Inkscape (http://www.inkscape.org/) -->

<svg
   width="128"
   height="128"
   viewBox="0 0 33.866667 33.866667"
   version="1.1"
   id="svg2634"
   inkscape:version="1.1.2 (0a00cf5339, 2022-02-04, custom)"
   sodipodi:docname="audio-card.svg"
   xmlns:inkscape="http://www.inkscape.org/namespaces/inkscape"
   xmlns:sodipodi="http://sodipodi.sourceforge.net/DTD/sodipodi-0.dtd"
   xmlns="http://www.w3.org/2000/svg"
   xmlns:svg="http://www.w3.org/2000/svg"
   xmlns:rdf="http://www.w3.org/1999/02/22-rdf-syntax-ns#"
   xmlns:cc="http://creativecommons.org/ns#"
   xmlns:dc="http://purl.org/dc/elements/1.1/">
  <title
     id="title3250">Boston Icons</title>
  <defs
     id="defs2628" />
  <sodipodi:namedview
     id="base"
     pagecolor="#ffffff"
     bordercolor="#00ffed"
     borderopacity="1"
     inkscape:pageopacity="1"
     inkscape:pageshadow="2"
     inkscape:zoom="5.6"
     inkscape:cx="35.178571"
     inkscape:cy="72.410714"
     inkscape:document-units="px"
     inkscape:current-layer="layer1"
     showgrid="false"
     showguides="false"
     inkscape:guide-bbox="true"
     fit-margin-top="0"
     fit-margin-left="0"
     fit-margin-right="0"
     fit-margin-bottom="0"
     inkscape:window-width="1920"
     inkscape:window-height="1011"
     inkscape:window-x="0"
     inkscape:window-y="0"
     inkscape:window-maximized="1"
     units="px"
     inkscape:pagecheckerboard="0">
    <inkscape:grid
       type="xygrid"
       id="grid3182"
       spacingx="0.52916667"
       spacingy="0.52916667"
       empspacing="4"
       originx="-82.550004"
       originy="-127.00001"
       dotted="false" />
    <sodipodi:guide
       position="-4.268358e-06,27.516666"
       orientation="1,0"
       id="guide3216"
       inkscape:locked="false" />
    <sodipodi:guide
       position="3.7041618,33.866666"
       orientation="0,1"
       id="guide3218"
       inkscape:locked="false" />
    <sodipodi:guide
       position="33.866657,24.870836"
       orientation="1,0"
       id="guide3220"
       inkscape:locked="false" />
    <sodipodi:guide
       position="32.279157,-4.1479283e-06"
       orientation="0,1"
       id="guide3222"
       inkscape:locked="false" />
    <sodipodi:guide
       position="15.345829,32.808336"
       orientation="0,1"
       id="guide3224"
       inkscape:locked="false" />
    <sodipodi:guide
       position="-4.7625023,1.0583259"
       orientation="0,1"
       id="guide3226"
       inkscape:locked="false" />
    <sodipodi:guide
       position="1.0583287,17.462496"
       orientation="1,0"
       id="guide3228"
       inkscape:locked="false" />
    <sodipodi:guide
       position="32.808327,20.108336"
       orientation="1,0"
       id="guide3230"
       inkscape:locked="false" />
    <sodipodi:guide
       position="15.874995,31.750006"
       orientation="0,1"
       id="guide3232"
       inkscape:locked="false" />
    <sodipodi:guide
       position="2.1166617,24.870836"
       orientation="1,0"
       id="guide3234"
       inkscape:locked="false" />
    <sodipodi:guide
       position="3.1749958,25.400006"
       orientation="1,0"
       id="guide3236"
       inkscape:locked="false" />
    <sodipodi:guide
       position="30.691657,24.341666"
       orientation="1,0"
       id="guide3242"
       inkscape:locked="false" />
    <sodipodi:guide
       position="31.749997,21.695836"
       orientation="1,0"
       id="guide3244"
       inkscape:locked="false" />
    <sodipodi:guide
       position="21.695827,2.1166659"
       orientation="0,1"
       id="guide3246"
       inkscape:locked="false" />
    <sodipodi:guide
       position="16.404162,3.1749959"
       orientation="0,1"
       id="guide3248"
       inkscape:locked="false" />
    <sodipodi:guide
       position="26.987497,30.162491"
       orientation="0,1"
       id="guide843"
       inkscape:locked="false" />
    <sodipodi:guide
       position="30.162497,26.458325"
       orientation="0,1"
       id="guide845"
       inkscape:locked="false" />
    <sodipodi:guide
       position="18.52083,14.816658"
       orientation="0,1"
       id="guide858"
       inkscape:locked="false" />
    <sodipodi:guide
       position="7.9374966,24.870824"
       orientation="1,0"
       id="guide4922"
       inkscape:locked="false" />
  </sodipodi:namedview>
  <metadata
     id="metadata2631">
    <rdf:RDF>
      <cc:Work
         rdf:about="">
        <dc:format>image/svg+xml</dc:format>
        <dc:type
           rdf:resource="http://purl.org/dc/dcmitype/StillImage" />
        <dc:title>Boston Icons</dc:title>
        <cc:license
           rdf:resource="dribbble.com/chrisdiaz" />
        <dc:creator>
          <cc:Agent>
            <dc:title>Christian Díaz</dc:title>
          </cc:Agent>
        </dc:creator>
        <dc:date>2022</dc:date>
        <dc:publisher>
          <cc:Agent>
            <dc:title>Christian Díaz</dc:title>
          </cc:Agent>
        </dc:publisher>
        <dc:identifier>christiandiaz.design [at] gmail [dot] com</dc:identifier>
        <dc:subject>
          <rdf:Bag>
            <rdf:li>GNOME icon Theme</rdf:li>
          </rdf:Bag>
        </dc:subject>
        <dc:description>dribbble.com/chrisdiaz | diazchris.deviantart.com</dc:description>
      </cc:Work>
    </rdf:RDF>
  </metadata>
  <g
     inkscape:label="Capa 1"
     inkscape:groupmode="layer"
     id="layer1"
     transform="translate(-82.550003,-136.13333)">
    <g
       id="g916">
      <rect
         style="fill:#96a5af;stroke-width:0.264583;stroke-linejoin:round"
         id="rect1226"
         width="2.1166682"
         height="27.516676"
         x="84.666664"
         y="139.30832" />
      <rect
         style="fill:#556e81;stroke-width:0.264583;stroke-linejoin:round"
         id="rect1228"
         width="27.51667"
         height="21.166641"
         x="86.783333"
         y="143.54167"
         rx="8.5529211e-07" />
      <rect
         style="fill:#cdd5d9;stroke-width:0.264583;stroke-linejoin:round"
         id="rect1274"
         width="1.0583328"
         height="26.458332"
         x="85.195831"
         y="139.83751" />
      <rect
         style="fill:#373b43;stroke-width:0.264583;stroke-linejoin:round"
         id="rect1386"
         width="26.458334"
         height="20.108337"
         x="87.3125"
         y="144.07082"
         rx="8.5529211e-07" />
      <path
         id="rect1388"
         style="fill:#ffa803;stroke-width:0.264583;stroke-linejoin:round"
         d="m 94.191668,164.70833 v 2.11667 h 4.233334 4.233328 4.23334 v -2.11667 h -4.23334 -4.233328 z m 13.758332,0 v 2.11667 h 4.23334 v -2.11667 z" />
      <rect
         style="fill:#cdd5d9;stroke-width:0.264583;stroke-linejoin:round"
         id="rect1762"
         width="3.1750002"
         height="2.1166668"
         x="87.3125"
         y="146.71666"
         rx="8.5529211e-07" />
      <rect
         style="fill:#96a5af;stroke-width:0.264583;stroke-linejoin:round"
         id="rect1890"
         width="3.1750002"
         height="2.1166668"
         x="87.3125"
         y="149.36249"
         rx="8.5529211e-07" />
      <rect
         style="fill:#7a8e9e;stroke-width:0.264583;stroke-linejoin:round"
         id="rect1894"
         width="3.1750002"
         height="2.1166668"
         x="87.3125"
         y="152.00832"
         rx="8.5529211e-07" />
      <rect
         style="fill:#2d8cff;stroke-width:0.264583;stroke-linejoin:round"
         id="rect1898"
         width="3.1750002"
         height="2.1166668"
         x="87.3125"
         y="154.65416"
         rx="8.5529211e-07" />
      <path
         id="rect2095"
         style="fill:#ffffff;stroke-width:0.999999;stroke-linejoin:round"
         d="M 94 34 L 94 38 L 114 38 L 114 34 L 94 34 z M 106 42 L 106 44 L 114 44 L 114 42 L 106 42 z "
         transform="matrix(0.26458334,0,0,0.26458334,82.550003,136.13333)" />
      <path
         id="path2569"
         style="fill:#ffffff;stroke-width:0.999999;stroke-linejoin:round"
         d="M 36 42 A 2.0000001 2.0000001 0 0 0 34 44 A 2.0000001 2.0000001 0 0 0 36 46 A 2.0000001 2.0000001 0 0 0 38 44 A 2.0000001 2.0000001 0 0 0 36 42 z M 36 52 A 2.0000001 2.0000001 0 0 0 34 54 A 2.0000001 2.0000001 0 0 0 36 56 A 2.0000001 2.0000001 0 0 0 38 54 A 2.0000001 2.0000001 0 0 0 36 52 z M 36 62 A 2.0000001 2.0000001 0 0 0 34 64 A 2.0000001 2.0000001 0 0 0 36 66 A 2.0000001 2.0000001 0 0 0 38 64 A 2.0000001 2.0000001 0 0 0 36 62 z M 36 72 A 2.0000001 1.9999659 0 0 0 34 74 A 2.0000001 1.9999659 0 0 0 36 76 A 2.0000001 1.9999659 0 0 0 38 74 A 2.0000001 1.9999659 0 0 0 36 72 z "
         transform="matrix(0.26458334,0,0,0.26458334,82.550003,136.13333)" />
      <path
         id="rect2887"
         style="fill:#cdd5d9;stroke-width:0.999999;stroke-linejoin:round"
         d="M 68 64 L 68 68 L 66 68 L 66 70 L 62 70 L 62 72 L 66 72 L 66 74 L 62 74 L 62 76 L 66 76 L 66 78 L 62 78 L 62 80 L 66 80 L 66 82 L 62 82 L 62 84 L 66 84 L 66 86 L 62 86 L 62 88 L 66 88 L 66 90 L 68 90 L 68 94 L 70 94 L 70 90 L 72 90 L 72 94 L 74 94 L 74 90 L 76 90 L 76 94 L 78 94 L 78 90 L 80 90 L 80 94 L 82 94 L 82 90 L 84 90 L 84 94 L 86 94 L 86 90 L 88 90 L 88 94 L 90 94 L 90 90 L 92 90 L 92 88 L 96 88 L 96 86 L 92 86 L 92 84 L 96 84 L 96 82 L 92 82 L 92 80 L 96 80 L 96 78 L 92 78 L 92 76 L 96 76 L 96 74 L 92 74 L 92 72 L 96 72 L 96 70 L 92 70 L 92 68 L 90 68 L 90 64 L 88 64 L 88 68 L 86 68 L 86 64 L 84 64 L 84 68 L 82 68 L 82 64 L 80 64 L 80 68 L 78 68 L 78 64 L 76 64 L 76 68 L 74 68 L 74 64 L 72 64 L 72 68 L 70 68 L 70 64 L 68 64 z M 68 70 L 90 70 L 90 88 L 68 88 L 68 70 z "
         transform="matrix(0.26458334,0,0,0.26458334,82.550003,136.13333)" />
      <path
         id="rect5425"
         style="fill:#ffc61b;stroke-width:0.999999;stroke-linejoin:round"
         d="M 46 110 L 46 114 L 48 114 L 48 110 L 46 110 z M 50 110 L 50 114 L 52 114 L 52 110 L 50 110 z M 54 110 L 54 114 L 56 114 L 56 110 L 54 110 z M 58 110 L 58 114 L 60 114 L 60 110 L 58 110 z M 62 110 L 62 114 L 64 114 L 64 110 L 62 110 z M 66 110 L 66 114 L 68 114 L 68 110 L 66 110 z M 70 110 L 70 114 L 72 114 L 72 110 L 70 110 z M 74 110 L 74 114 L 76 114 L 76 110 L 74 110 z M 78 110 L 78 114 L 80 114 L 80 110 L 78 110 z M 82 110 L 82 114 L 84 114 L 84 110 L 82 110 z M 86 110 L 86 114 L 88 114 L 88 110 L 86 110 z M 98 110 L 98 114 L 100 114 L 100 110 L 98 110 z M 102 110 L 102 114 L 104 114 L 104 110 L 102 110 z M 106 110 L 106 114 L 108 114 L 108 110 L 106 110 z "
         transform="matrix(0.26458334,0,0,0.26458334,82.550003,136.13333)" />
    </g>
  </g>
</svg>
