<?xml version="1.0" encoding="UTF-8" standalone="no"?>
<!-- Created with Inkscape (http://www.inkscape.org/) -->

<svg
   width="128"
   height="128"
   viewBox="0 0 33.866667 33.866667"
   version="1.1"
   id="svg2634"
   inkscape:version="1.1.2 (0a00cf5339, 2022-02-04, custom)"
   sodipodi:docname="drive-harddisk-system.svg"
   xmlns:inkscape="http://www.inkscape.org/namespaces/inkscape"
   xmlns:sodipodi="http://sodipodi.sourceforge.net/DTD/sodipodi-0.dtd"
   xmlns="http://www.w3.org/2000/svg"
   xmlns:svg="http://www.w3.org/2000/svg"
   xmlns:rdf="http://www.w3.org/1999/02/22-rdf-syntax-ns#"
   xmlns:cc="http://creativecommons.org/ns#"
   xmlns:dc="http://purl.org/dc/elements/1.1/">
  <title
     id="title3250">Boston Icons</title>
  <defs
     id="defs2628" />
  <sodipodi:namedview
     id="base"
     pagecolor="#ffffff"
     bordercolor="#00ffed"
     borderopacity="1"
     inkscape:pageopacity="1"
     inkscape:pageshadow="2"
     inkscape:zoom="5.6"
     inkscape:cx="32.232143"
     inkscape:cy="57.410714"
     inkscape:document-units="px"
     inkscape:current-layer="g860"
     showgrid="false"
     showguides="false"
     inkscape:guide-bbox="true"
     fit-margin-top="0"
     fit-margin-left="0"
     fit-margin-right="0"
     fit-margin-bottom="0"
     inkscape:window-width="1920"
     inkscape:window-height="1011"
     inkscape:window-x="0"
     inkscape:window-y="0"
     inkscape:window-maximized="1"
     units="px"
     inkscape:pagecheckerboard="0">
    <inkscape:grid
       type="xygrid"
       id="grid3182"
       spacingx="0.52916667"
       spacingy="0.52916667"
       empspacing="4"
       originx="-82.550004"
       originy="-127.00001"
       dotted="false" />
    <sodipodi:guide
       position="-4.268358e-06,27.516666"
       orientation="1,0"
       id="guide3216"
       inkscape:locked="false" />
    <sodipodi:guide
       position="3.7041618,33.866666"
       orientation="0,1"
       id="guide3218"
       inkscape:locked="false" />
    <sodipodi:guide
       position="33.866657,24.870836"
       orientation="1,0"
       id="guide3220"
       inkscape:locked="false" />
    <sodipodi:guide
       position="32.279157,-4.1479283e-06"
       orientation="0,1"
       id="guide3222"
       inkscape:locked="false" />
    <sodipodi:guide
       position="15.345829,32.808336"
       orientation="0,1"
       id="guide3224"
       inkscape:locked="false" />
    <sodipodi:guide
       position="-4.7625023,1.0583259"
       orientation="0,1"
       id="guide3226"
       inkscape:locked="false" />
    <sodipodi:guide
       position="1.0583287,17.462496"
       orientation="1,0"
       id="guide3228"
       inkscape:locked="false" />
    <sodipodi:guide
       position="32.808327,20.108336"
       orientation="1,0"
       id="guide3230"
       inkscape:locked="false" />
    <sodipodi:guide
       position="15.874995,31.750006"
       orientation="0,1"
       id="guide3232"
       inkscape:locked="false" />
    <sodipodi:guide
       position="2.1166617,24.870836"
       orientation="1,0"
       id="guide3234"
       inkscape:locked="false" />
    <sodipodi:guide
       position="3.1749958,25.400006"
       orientation="1,0"
       id="guide3236"
       inkscape:locked="false" />
    <sodipodi:guide
       position="5.2916632,15.875009"
       orientation="1,0"
       id="guide3238"
       inkscape:locked="false" />
    <sodipodi:guide
       position="28.574997,25.400006"
       orientation="1,0"
       id="guide3240"
       inkscape:locked="false" />
    <sodipodi:guide
       position="30.691657,24.341666"
       orientation="1,0"
       id="guide3242"
       inkscape:locked="false" />
    <sodipodi:guide
       position="31.749997,21.695836"
       orientation="1,0"
       id="guide3244"
       inkscape:locked="false" />
    <sodipodi:guide
       position="21.695827,2.1166659"
       orientation="0,1"
       id="guide3246"
       inkscape:locked="false" />
    <sodipodi:guide
       position="16.404162,3.1749959"
       orientation="0,1"
       id="guide3248"
       inkscape:locked="false" />
    <sodipodi:guide
       position="26.987497,30.162491"
       orientation="0,1"
       id="guide843"
       inkscape:locked="false" />
    <sodipodi:guide
       position="30.162497,26.458325"
       orientation="0,1"
       id="guide845"
       inkscape:locked="false" />
  </sodipodi:namedview>
  <metadata
     id="metadata2631">
    <rdf:RDF>
      <cc:Work
         rdf:about="">
        <dc:format>image/svg+xml</dc:format>
        <dc:type
           rdf:resource="http://purl.org/dc/dcmitype/StillImage" />
        <dc:title>Boston Icons</dc:title>
        <cc:license
           rdf:resource="dribbble.com/chrisdiaz" />
        <dc:creator>
          <cc:Agent>
            <dc:title>Christian Díaz</dc:title>
          </cc:Agent>
        </dc:creator>
        <dc:date>2022</dc:date>
        <dc:publisher>
          <cc:Agent>
            <dc:title>Christian Díaz</dc:title>
          </cc:Agent>
        </dc:publisher>
        <dc:identifier>christiandiaz.design [at] gmail [dot] com</dc:identifier>
        <dc:subject>
          <rdf:Bag>
            <rdf:li>GNOME icon Theme</rdf:li>
          </rdf:Bag>
        </dc:subject>
        <dc:description>dribbble.com/chrisdiaz | diazchris.deviantart.com</dc:description>
      </cc:Work>
    </rdf:RDF>
  </metadata>
  <g
     inkscape:label="Capa 1"
     inkscape:groupmode="layer"
     id="layer1"
     transform="translate(-82.550003,-136.13333)">
    <g
       id="g869">
      <g
         id="g860">
        <g
           id="g867">
          <rect
             style="fill:#373b43;fill-opacity:1;stroke:none;stroke-width:0.529167;stroke-linecap:square;stroke-linejoin:bevel;stroke-miterlimit:4;stroke-dasharray:none;stroke-opacity:1"
             id="rect910"
             width="23.283333"
             height="31.750008"
             x="87.841667"
             y="137.19167"
             ry="1.0583218"
             rx="1.0583336" />
          <rect
             style="fill:#96a5af;stroke-width:1.32292;stroke-linejoin:round"
             id="rect1679"
             width="22.224998"
             height="30.691662"
             x="88.370834"
             y="137.72083"
             ry="0.52916229"
             rx="0.52916646" />
          <rect
             style="fill:#373b43;stroke-width:1.32292;stroke-linejoin:round"
             id="rect1903"
             width="12.699999"
             height="2.1166728"
             x="95.779167"
             y="166.82498"
             rx="0.5291667"
             ry="0.52916139" />
          <path
             id="rect1007"
             style="fill:#ffffff;fill-opacity:1;stroke:none;stroke-width:0.529167;stroke-linecap:square;stroke-linejoin:bevel;stroke-miterlimit:4;stroke-dasharray:none;stroke-opacity:1"
             d="m 96.308337,167.35416 v 1.05834 h 3.175 v -1.05834 z m 4.233333,0 v 1.05834 H 107.95 v -1.05834 z" />
          <g
             id="g1923">
            <rect
               style="opacity:1;fill:#373b43;fill-opacity:1;stroke:none;stroke-width:0.529167;stroke-linecap:square;stroke-linejoin:bevel;stroke-miterlimit:4;stroke-dasharray:none;stroke-opacity:1"
               id="rect1593"
               width="23.283333"
               height="28.574989"
               x="87.841667"
               y="137.19167"
               ry="1.0583218"
               rx="1.0583336" />
            <rect
               style="fill:#96a5af;stroke-width:1.32292;stroke-linejoin:round"
               id="rect1817"
               width="22.224998"
               height="27.516663"
               x="88.370834"
               y="137.72083"
               ry="0.52916229"
               rx="0.52916646" />
          </g>
          <path
             id="path851"
             style="fill:#373b43;fill-opacity:1;fill-rule:evenodd;stroke:none;stroke-width:2.11667;stroke-linecap:round;stroke-linejoin:bevel;stroke-miterlimit:4;stroke-dasharray:none;stroke-opacity:1"
             d="m 89.958337,138.77916 c -0.292252,0 -0.529169,0.23692 -0.529167,0.52917 -2e-6,0.29225 0.236915,0.52917 0.529167,0.52917 0.292252,0 0.529168,-0.23692 0.529166,-0.52917 2e-6,-0.29225 -0.236914,-0.52917 -0.529166,-0.52917 z m 19.050003,0 c -0.29225,0 -0.52917,0.23692 -0.52917,0.52917 0,0.29225 0.23692,0.52917 0.52917,0.52917 0.29225,0 0.52916,-0.23692 0.52916,-0.52917 0,-0.29225 -0.23691,-0.52917 -0.52916,-0.52917 z m -19.050003,24.34167 c -0.292252,0 -0.529169,0.23691 -0.529167,0.52917 4e-6,0.29224 0.236919,0.52916 0.529167,0.52916 0.292248,-1e-5 0.529162,-0.23692 0.529166,-0.52916 2e-6,-0.29226 -0.236914,-0.52917 -0.529166,-0.52917 z m 19.050003,0 c -0.29225,-1e-5 -0.52917,0.23691 -0.52917,0.52917 0,0.29224 0.23692,0.52916 0.52917,0.52916 0.29225,-1e-5 0.52916,-0.23692 0.52916,-0.52916 0,-0.29225 -0.23691,-0.52917 -0.52916,-0.52917 z"
             sodipodi:nodetypes="scscssssssssssssssss" />
          <g
             aria-label="OS"
             id="text3065"
             style="font-size:11.2889px;line-height:1.25;font-family:'Proxima Nova';-inkscape-font-specification:'Proxima Nova';letter-spacing:0px;word-spacing:0px;fill:#ffffff;stroke-width:0.264583"
             transform="translate(-1.0912354e-5,-1.3969932)">
            <path
               d="m 96.141835,156.96133 c 2.223914,0 3.747915,-1.67075 3.747915,-3.89467 0,-2.22391 -1.524001,-3.89467 -3.747915,-3.89467 -2.223913,0 -3.736626,1.67076 -3.736626,3.89467 0,2.22392 1.512713,3.89467 3.736626,3.89467 z m 0,-0.83538 c -1.693335,0 -2.76578,-1.30951 -2.76578,-3.05929 0,-1.76107 1.072445,-3.05929 2.76578,-3.05929 1.682047,0 2.77707,1.29822 2.77707,3.05929 0,1.74978 -1.095023,3.05929 -2.77707,3.05929 z"
               id="path1053" />
            <path
               d="m 103.78441,156.96133 c 2.03201,0 2.77707,-1.12889 2.77707,-2.21262 0,-2.81094 -4.45911,-1.84009 -4.45911,-3.53343 0,-0.7112 0.65475,-1.19662 1.54658,-1.19662 0.82409,0 1.61431,0.27093 2.17875,0.90311 l 0.56445,-0.68862 c -0.63218,-0.66605 -1.524,-1.06116 -2.66418,-1.06116 -1.49014,0 -2.59645,0.85796 -2.59645,2.09974 0,2.68676 4.45912,1.60302 4.45912,3.54471 0,0.58703 -0.42898,1.30951 -1.77236,1.30951 -1.06116,0 -1.87396,-0.51928 -2.35938,-1.08373 l -0.56444,0.72249 c 0.62088,0.69991 1.59173,1.19662 2.88995,1.19662 z"
               id="path1055" />
          </g>
        </g>
      </g>
    </g>
  </g>
</svg>
