<?xml version="1.0" encoding="UTF-8" standalone="no"?>
<!-- Created with Inkscape (http://www.inkscape.org/) -->

<svg
   width="16"
   height="16"
   id="svg4159"
   version="1.1"
   inkscape:version="1.1.2 (0a00cf5339, 2022-02-04, custom)"
   viewBox="0 0 16 16"
   sodipodi:docname="folder-remote.svg"
   xmlns:inkscape="http://www.inkscape.org/namespaces/inkscape"
   xmlns:sodipodi="http://sodipodi.sourceforge.net/DTD/sodipodi-0.dtd"
   xmlns="http://www.w3.org/2000/svg"
   xmlns:svg="http://www.w3.org/2000/svg"
   xmlns:rdf="http://www.w3.org/1999/02/22-rdf-syntax-ns#"
   xmlns:cc="http://creativecommons.org/ns#"
   xmlns:dc="http://purl.org/dc/elements/1.1/">
  <title
     id="title815">Boston Icons</title>
  <defs
     id="defs4161">
    <inkscape:perspective
       sodipodi:type="inkscape:persp3d"
       inkscape:vp_x="0 : 8 : 1"
       inkscape:vp_y="0 : 1000 : 0"
       inkscape:vp_z="16 : 8 : 1"
       inkscape:persp3d-origin="8 : 5.3333333 : 1"
       id="perspective4709" />
  </defs>
  <sodipodi:namedview
     id="base"
     pagecolor="#ffffff"
     bordercolor="#00fff6"
     borderopacity="1"
     inkscape:pageopacity="0"
     inkscape:pageshadow="2"
     inkscape:zoom="31.392433"
     inkscape:cx="13.37902"
     inkscape:cy="8.9989839"
     inkscape:current-layer="g889"
     showgrid="false"
     inkscape:grid-bbox="true"
     inkscape:document-units="px"
     inkscape:window-width="1920"
     inkscape:window-height="1011"
     inkscape:window-x="0"
     inkscape:window-y="0"
     inkscape:window-maximized="1"
     showguides="true"
     inkscape:guide-bbox="true"
     inkscape:pagecheckerboard="0">
    <inkscape:grid
       type="xygrid"
       id="grid4707" />
  </sodipodi:namedview>
  <metadata
     id="metadata4164">
    <rdf:RDF>
      <cc:Work
         rdf:about="">
        <dc:format>image/svg+xml</dc:format>
        <dc:type
           rdf:resource="http://purl.org/dc/dcmitype/StillImage" />
        <dc:title>Boston Icons</dc:title>
        <cc:license
           rdf:resource="dribbble.com/chrisdiaz" />
        <dc:creator>
          <cc:Agent>
            <dc:title>Christian Díaz</dc:title>
          </cc:Agent>
        </dc:creator>
        <dc:date>2022</dc:date>
        <dc:publisher>
          <cc:Agent>
            <dc:title>Christian Díaz</dc:title>
          </cc:Agent>
        </dc:publisher>
        <dc:identifier>christiandiaz.design [at] gmail [dot] com</dc:identifier>
        <dc:subject>
          <rdf:Bag>
            <rdf:li>GNOME icon Theme</rdf:li>
          </rdf:Bag>
        </dc:subject>
        <dc:description>dribbble.com/chrisdiaz | diazchris.deviantart.com</dc:description>
      </cc:Work>
    </rdf:RDF>
  </metadata>
  <g
     id="layer1"
     inkscape:label="Layer 1"
     inkscape:groupmode="layer">
    <g
       id="g889">
      <g
         id="g2839">
        <path
           id="rect4137"
           style="fill:#2d8cff;fill-opacity:1;fill-rule:nonzero;stroke:none;stroke-width:1;stroke-linecap:butt;stroke-linejoin:round;stroke-miterlimit:4;stroke-dasharray:none;stroke-dashoffset:0;stroke-opacity:1"
           d="M 9 3 L 14 3 L 14 11 L 2 11 L 2 5 L 6 5 L 7.0996094 5 L 9 3 z " />
        <path
           id="path1770"
           style="fill:#a57b50;fill-opacity:1;fill-rule:nonzero;stroke:none;stroke-width:1;stroke-linecap:butt;stroke-linejoin:round;stroke-miterlimit:4;stroke-dasharray:none;stroke-dashoffset:0;stroke-opacity:1"
           d="M 3,0 C 2.8252282,7.4066879e-5 2.65122,0.02305628 2.4824219,0.06835937 2.3136028,0.1134076 2.1514147,0.18038403 2,0.26757812 1.8486563,0.35514202 1.7094487,0.46217428 1.5859375,0.5859375 1.4621743,0.7094487 1.355142,0.8486563 1.2675781,1 1.180384,1.1514147 1.1134076,1.3136028 1.0683594,1.4824219 1.0230563,1.65122 1.0000741,1.8252282 1,2 v 10 h 2 4 v 2 H 1 v 2 H 15 V 14 H 9 v -2 h 6 V 10 3.0390625 c 2.54e-4,-0.01302 2.54e-4,-0.026043 0,-0.039063 6e-6,-0.00195 6e-6,-0.00391 0,-0.00586 1.6e-5,-0.00326 1.6e-5,-0.00651 0,-0.00977 6e-6,-0.00195 6e-6,-0.00391 0,-0.00586 1.6e-5,-0.00326 1.6e-5,-0.00651 0,-0.00977 1.6e-5,-0.00326 1.6e-5,-0.00651 0,-0.00977 -6.35e-4,-0.00326 -0.0013,-0.00651 -0.002,-0.00977 6e-6,-0.00195 6e-6,-0.00391 0,-0.00586 1.6e-5,-0.00326 1.6e-5,-0.00651 0,-0.00977 1.6e-5,-0.00326 1.6e-5,-0.00651 0,-0.00977 -6.35e-4,-0.00326 -0.0013,-0.00651 -0.002,-0.00977 6e-6,-0.00195 6e-6,-0.00391 0,-0.00586 1.6e-5,-0.00326 1.6e-5,-0.00651 0,-0.00977 -6.35e-4,-0.00326 -0.0013,-0.00651 -0.002,-0.00977 6e-6,-0.00195 6e-6,-0.00391 0,-0.00586 -6.35e-4,-0.00326 -0.0013,-0.00651 -0.002,-0.00977 3e-6,-0.0013 3e-6,-0.0026 0,-0.00391 -0.0056,-0.043479 -0.01411,-0.086541 -0.02539,-0.1289062 -0.01163,-0.041906 -0.02599,-0.083009 -0.04297,-0.1230469 -0.01695,-0.040301 -0.03652,-0.079448 -0.05859,-0.1171875 -0.02167,-0.038 -0.04581,-0.074536 -0.07226,-0.109375 -0.0265,-0.034383 -0.0552,-0.067004 -0.08594,-0.097656 C 14.6762,2.2621829 14.64358,2.2334759 14.60919,2.2069799 14.574537,2.1805763 14.538,2.1564359 14.5,2.1347656 14.46226,2.1126936 14.423114,2.0931204 14.382812,2.0761719 14.342775,2.0591885 14.301672,2.0448351 14.259766,2.0332031 14.2174,2.021923 14.174338,2.0134411 14.130859,2.0078125 14.087457,2.002349 14.043744,1.9997392 14,2 H 13 9 L 7,0 H 6 Z m 11.990234,3.1367188 c -5.87e-4,0.00652 -0.0012,0.013027 -0.002,0.019531 7.15e-4,-0.0065 0.0014,-0.013015 0.002,-0.019531 z m -0.01953,0.1054687 c -0.0019,0.00653 -0.0038,0.013041 -0.0059,0.019531 0.002,-0.00649 0.004,-0.013001 0.0059,-0.019531 z"
           sodipodi:nodetypes="ccccccccccccccccccccccccccccccccccccccccccccccccccccccccccc" />
        <path
           id="path1631"
           style="fill:#ebb16d;fill-opacity:1;fill-rule:nonzero;stroke:none;stroke-width:1;stroke-linecap:butt;stroke-linejoin:round;stroke-miterlimit:4;stroke-dasharray:none;stroke-dashoffset:0;stroke-opacity:1"
           d="M 9,3 7.0996094,5 H 6 2 v 6 H 14 V 3.5292969 c -6.19e-4,0.00326 -0.0013,0.00652 -0.002,0.00977 6.83e-4,-0.00325 0.0013,-0.0065 0.002,-0.00977 2.86e-4,-0.00976 2.86e-4,-0.019533 0,-0.029297 10e-7,-6.51e-4 10e-7,-0.0013 0,-0.00195 10e-7,-6.51e-4 10e-7,-0.0013 0,-0.00195 10e-7,-6.511e-4 10e-7,-0.0013 0,-0.00195 10e-7,-6.51e-4 10e-7,-0.0013 0,-0.00195 10e-7,-6.51e-4 10e-7,-0.0013 0,-0.00195 10e-7,-6.511e-4 10e-7,-0.0013 0,-0.00195 10e-7,-6.51e-4 10e-7,-0.0013 0,-0.00195 10e-7,-6.51e-4 10e-7,-0.0013 0,-0.00195 10e-7,-6.51e-4 10e-7,-0.0013 0,-0.00195 10e-7,-6.51e-4 10e-7,-0.0013 0,-0.00195 10e-7,-6.511e-4 10e-7,-0.0013 0,-0.00195 10e-7,-6.51e-4 10e-7,-0.0013 0,-0.00195 10e-7,-6.51e-4 10e-7,-0.0013 0,-0.00195 10e-7,-6.511e-4 10e-7,-0.0013 0,-0.00195 10e-7,-6.51e-4 10e-7,-0.0013 0,-0.00195 10e-7,-6.51e-4 10e-7,-0.0013 0,-0.00195 10e-7,-6.51e-4 10e-7,-0.0013 0,-0.00195 -6.49e-4,-6.528e-4 -0.0013,-0.0013 -0.002,-0.00195 1e-6,-6.511e-4 1e-6,-0.0013 0,-0.00195 1e-6,-6.51e-4 1e-6,-0.0013 0,-0.00195 1e-6,-6.51e-4 1e-6,-0.0013 0,-0.00195 1e-6,-6.511e-4 1e-6,-0.0013 0,-0.00195 1e-6,-6.51e-4 1e-6,-0.0013 0,-0.00195 1e-6,-6.51e-4 1e-6,-0.0013 0,-0.00195 1e-6,-6.51e-4 1e-6,-0.0013 0,-0.00195 1e-6,-6.51e-4 1e-6,-0.0013 0,-0.00195 1e-6,-6.511e-4 1e-6,-0.0013 0,-0.00195 1e-6,-6.51e-4 1e-6,-0.0013 0,-0.00195 -6.49e-4,-6.528e-4 -0.0013,-0.0013 -0.002,-0.00195 1e-6,-6.511e-4 1e-6,-0.0013 0,-0.00195 1e-6,-6.51e-4 1e-6,-0.0013 0,-0.00195 1e-6,-6.51e-4 1e-6,-0.0013 0,-0.00195 1e-6,-6.51e-4 1e-6,-0.0013 0,-0.00195 1e-6,-6.51e-4 1e-6,-0.0013 0,-0.00195 1e-6,-6.511e-4 1e-6,-0.0013 0,-0.00195 1e-6,-6.51e-4 1e-6,-0.0013 0,-0.00195 -6.49e-4,-6.528e-4 -0.0013,-0.0013 -0.002,-0.00195 10e-7,-6.511e-4 10e-7,-0.0013 0,-0.00195 10e-7,-6.51e-4 10e-7,-0.0013 0,-0.00195 10e-7,-6.51e-4 10e-7,-0.0013 0,-0.00195 -0.0045,-0.025864 -0.01103,-0.051333 -0.01953,-0.076172 -0.0079,-0.024815 -0.01766,-0.048977 -0.0293,-0.072266 -0.01192,-0.02317 -0.02563,-0.045373 -0.04101,-0.066406 -0.0153,-0.02149 -0.03228,-0.041736 -0.05078,-0.060547 -0.01881,-0.018498 -0.03906,-0.035478 -0.06055,-0.050781 -0.02103,-0.015381 -0.04324,-0.029095 -0.06641,-0.041016 -0.02329,-0.011632 -0.04745,-0.021427 -0.07226,-0.029297 -0.02484,-0.0085 -0.05031,-0.015031 -0.07617,-0.019531 C 13.552277,3.0018659 13.526155,2.9999068 13.5,3 Z m 4.990234,0.6054688 c -6.39e-4,0.00196 -0.0013,0.00391 -0.002,0.00586 6.63e-4,-0.00195 0.0013,-0.0039 0.002,-0.00586 z"
           sodipodi:nodetypes="ccccccccccssssssssssssssssccsssssssssccssssssccsscccccccccccccc" />
        <path
           id="path1629"
           style="fill:#ebb16d;fill-opacity:1;fill-rule:nonzero;stroke:none;stroke-width:1;stroke-linecap:butt;stroke-linejoin:round;stroke-miterlimit:4;stroke-dasharray:none;stroke-dashoffset:0;stroke-opacity:1"
           d="m 3,1 c -0.047698,-1.4934e-4 -0.095346,0.00311 -0.1425781,0.00977 -0.046907,0.00711 -0.093248,0.017557 -0.1386719,0.03125 -0.046032,0.013031 -0.09107,0.029349 -0.1347656,0.048828 -0.043239,0.019786 -0.085012,0.04263 -0.125,0.068359 -0.039752,0.025922 -0.077608,0.05464 -0.1132813,0.085937 -0.036245,0.031376 -0.070187,0.065318 -0.1015625,0.1015625 -0.031297,0.035673 -0.060016,0.07353 -0.085937,0.1132813 -0.025729,0.039988 -0.048574,0.081761 -0.068359,0.125 C 2.070365,1.6276804 2.054047,1.672718 2.0410156,1.71875 2.0273226,1.7641741 2.0168796,1.8105152 2.0097656,1.8574219 2.0031142,1.9046542 1.9998507,1.9523019 2,2 V 4 H 6.6992188 L 8.0996094,2.5 6.6992188,1 Z"
           sodipodi:nodetypes="ccccccccccccccccc" />
      </g>
    </g>
  </g>
</svg>
