<?xml version="1.0" encoding="UTF-8" standalone="no"?>
<!-- Created with Inkscape (http://www.inkscape.org/) -->

<svg
   width="48"
   height="48"
   viewBox="0 0 12.7 12.7"
   version="1.1"
   id="svg2634"
   inkscape:version="1.1.2 (0a00cf5339, 2022-02-04, custom)"
   sodipodi:docname="folder-drag-accept.svg"
   xmlns:inkscape="http://www.inkscape.org/namespaces/inkscape"
   xmlns:sodipodi="http://sodipodi.sourceforge.net/DTD/sodipodi-0.dtd"
   xmlns:xlink="http://www.w3.org/1999/xlink"
   xmlns="http://www.w3.org/2000/svg"
   xmlns:svg="http://www.w3.org/2000/svg"
   xmlns:rdf="http://www.w3.org/1999/02/22-rdf-syntax-ns#"
   xmlns:cc="http://creativecommons.org/ns#"
   xmlns:dc="http://purl.org/dc/elements/1.1/">
  <title
     id="title3250">Boston Icons</title>
  <defs
     id="defs2628">
    <linearGradient
       inkscape:collect="always"
       id="linearGradient1563">
      <stop
         style="stop-color:#6fb7ff;stop-opacity:1;"
         offset="0"
         id="stop1559" />
      <stop
         style="stop-color:#2d8cff;stop-opacity:1"
         offset="1"
         id="stop1561" />
    </linearGradient>
    <linearGradient
       inkscape:collect="always"
       xlink:href="#linearGradient1563"
       id="linearGradient2049"
       gradientUnits="userSpaceOnUse"
       gradientTransform="matrix(3.7795276,0,0,3.7795276,-312.00001,-594.51966)"
       x1="88.900002"
       y1="160.73958"
       x2="88.900002"
       y2="166.56041" />
  </defs>
  <sodipodi:namedview
     id="base"
     pagecolor="#ffffff"
     bordercolor="#00ffed"
     borderopacity="1"
     inkscape:pageopacity="1"
     inkscape:pageshadow="2"
     inkscape:zoom="11.2"
     inkscape:cx="39.642857"
     inkscape:cy="25.044643"
     inkscape:document-units="px"
     inkscape:current-layer="g2018"
     showgrid="false"
     showguides="false"
     inkscape:guide-bbox="true"
     fit-margin-top="0"
     fit-margin-left="0"
     fit-margin-right="0"
     fit-margin-bottom="0"
     inkscape:window-width="1920"
     inkscape:window-height="1011"
     inkscape:window-x="0"
     inkscape:window-y="0"
     inkscape:window-maximized="1"
     units="px"
     inkscape:pagecheckerboard="0">
    <inkscape:grid
       type="xygrid"
       id="grid3182"
       spacingx="0.26458333"
       spacingy="0.26458333"
       empspacing="4"
       originx="-82.550004"
       originy="-127.00001"
       dotted="false" />
    <sodipodi:guide
       position="-4.268358e-06,27.516666"
       orientation="1,0"
       id="guide3216"
       inkscape:locked="false" />
    <sodipodi:guide
       position="32.279157,-4.1479283e-06"
       orientation="0,1"
       id="guide3222"
       inkscape:locked="false" />
    <sodipodi:guide
       position="13.229163,0.52915746"
       orientation="0,1"
       id="guide3226"
       inkscape:locked="false" />
    <sodipodi:guide
       position="0.52916318,6.8791574"
       orientation="1,0"
       id="guide3228"
       inkscape:locked="false" />
    <sodipodi:guide
       position="1.0583298,6.8791574"
       orientation="1,0"
       id="guide3234"
       inkscape:locked="false" />
    <sodipodi:guide
       position="1.5874965,6.8791574"
       orientation="1,0"
       id="guide3236"
       inkscape:locked="false" />
    <sodipodi:guide
       position="6.3499965,7.9374908"
       orientation="1,0"
       id="guide3238"
       inkscape:locked="false" />
    <sodipodi:guide
       position="13.75833,1.0583241"
       orientation="0,1"
       id="guide3246"
       inkscape:locked="false" />
    <sodipodi:guide
       position="16.404162,3.1749959"
       orientation="0,1"
       id="guide3248"
       inkscape:locked="false" />
    <sodipodi:guide
       position="5.2916632,10.054157"
       orientation="0,1"
       id="guide862"
       inkscape:locked="false" />
    <sodipodi:guide
       position="5.8208298,12.170824"
       orientation="0,1"
       id="guide864"
       inkscape:locked="false" />
    <sodipodi:guide
       position="6.8791632,11.641657"
       orientation="0,1"
       id="guide866"
       inkscape:locked="false" />
    <sodipodi:guide
       position="12.17083,8.4666574"
       orientation="1,0"
       id="guide868"
       inkscape:locked="false" />
    <sodipodi:guide
       position="11.641663,8.4666574"
       orientation="1,0"
       id="guide870"
       inkscape:locked="false" />
    <sodipodi:guide
       position="11.112496,8.4666574"
       orientation="1,0"
       id="guide872"
       inkscape:locked="false" />
    <sodipodi:guide
       position="2.3812449,11.112512"
       orientation="0,-1"
       id="guide844" />
  </sodipodi:namedview>
  <metadata
     id="metadata2631">
    <rdf:RDF>
      <cc:Work
         rdf:about="">
        <dc:format>image/svg+xml</dc:format>
        <dc:type
           rdf:resource="http://purl.org/dc/dcmitype/StillImage" />
        <dc:title>Boston Icons</dc:title>
        <cc:license
           rdf:resource="dribbble.com/chrisdiaz" />
        <dc:creator>
          <cc:Agent>
            <dc:title>Christian Díaz</dc:title>
          </cc:Agent>
        </dc:creator>
        <dc:date>2022</dc:date>
        <dc:publisher>
          <cc:Agent>
            <dc:title>Christian Díaz</dc:title>
          </cc:Agent>
        </dc:publisher>
        <dc:identifier>christiandiaz.design [at] gmail [dot] com</dc:identifier>
        <dc:subject>
          <rdf:Bag>
            <rdf:li>GNOME icon Theme</rdf:li>
          </rdf:Bag>
        </dc:subject>
        <dc:description>dribbble.com/chrisdiaz | diazchris.deviantart.com</dc:description>
      </cc:Work>
    </rdf:RDF>
  </metadata>
  <g
     inkscape:label="Capa 1"
     inkscape:groupmode="layer"
     id="layer1"
     transform="translate(-82.550003,-157.3)">
    <g
       id="g2018">
      <g
         id="g2814">
        <path
           id="path881"
           style="fill:#2d8cff;stroke:none;stroke-width:0.999999px;stroke-linecap:butt;stroke-linejoin:miter;stroke-opacity:1"
           d="M 5.9121094 6 C 5.7082853 6.0043529 5.505556 6.0251945 5.3046875 6.0605469 C 5.075877 6.1014575 4.8510679 6.1622344 4.6328125 6.2421875 C 4.4137485 6.3212356 4.2020066 6.4192644 4 6.5351562 C 3.7986105 6.6517754 3.6077824 6.7857472 3.4296875 6.9355469 C 3.2508737 7.0855293 3.0855293 7.2508737 2.9355469 7.4296875 C 2.7857472 7.6077824 2.6517754 7.7986105 2.5351562 8 C 2.4192644 8.2020066 2.3212356 8.4137485 2.2421875 8.6328125 C 2.1622344 8.8510679 2.1014575 9.075877 2.0605469 9.3046875 C 2.0201442 9.5342515 1.9998847 9.7669077 2 10 L 2 46 L 46 46 L 46 12.060547 A 1.9999999 1.9999999 0 0 0 46 12 A 1.9999999 1.9999999 0 0 0 45.974609 11.6875 A 1.9999999 1.9999999 0 0 0 45.902344 11.382812 A 1.9999999 1.9999999 0 0 0 45.78125 11.091797 A 1.9999999 1.9999999 0 0 0 45.617188 10.824219 A 1.9999999 1.9999999 0 0 0 45.414062 10.585938 A 1.9999999 1.9999999 0 0 0 45.175781 10.382812 A 1.9999999 1.9999999 0 0 0 44.908203 10.21875 A 1.9999999 1.9999999 0 0 0 44.617188 10.097656 A 1.9999999 1.9999999 0 0 0 44.3125 10.025391 A 1.9999999 1.9999999 0 0 0 44 10 L 24 10 L 20 6 L 6 6 C 5.9708635 5.9999856 5.9412271 5.9993782 5.9121094 6 z "
           transform="matrix(0.26458333,0,0,0.26458333,82.550003,157.3)" />
        <path
           id="path1966"
           style="fill:url(#linearGradient2049);fill-opacity:1;stroke:none;stroke-width:0.999999px;stroke-linecap:butt;stroke-linejoin:miter;stroke-opacity:1"
           d="M 6 7 A 3 3 0 0 0 5.4140625 7.0566406 A 3 3 0 0 0 4.8515625 7.2285156 A 3 3 0 0 0 4.3339844 7.5058594 A 3 3 0 0 0 3.8789062 7.8789062 A 3 3 0 0 0 3.5058594 8.3339844 A 3 3 0 0 0 3.2285156 8.8515625 A 3 3 0 0 0 3.0585938 9.4140625 A 3 3 0 0 0 3 10 L 3 45 L 45 45 L 45 12.054688 A 0.99999994 0.99999994 0 0 0 45 12.052734 A 0.99999994 0.99999994 0 0 0 45 12.050781 A 0.99999994 0.99999994 0 0 0 45 12.048828 A 0.99999994 0.99999994 0 0 0 45 12.046875 A 0.99999994 0.99999994 0 0 0 45 12.044922 A 0.99999994 0.99999994 0 0 0 45 12.042969 A 0.99999994 0.99999994 0 0 0 45 12.041016 A 0.99999994 0.99999994 0 0 0 45 12.039062 A 0.99999994 0.99999994 0 0 0 45 12.037109 A 0.99999994 0.99999994 0 0 0 45 12.035156 A 0.99999994 0.99999994 0 0 0 45 12.033203 A 0.99999994 0.99999994 0 0 0 45 12.03125 A 0.99999994 0.99999994 0 0 0 45 12.029297 A 0.99999994 0.99999994 0 0 0 45 12.027344 A 0.99999994 0.99999994 0 0 0 45 12.025391 A 0.99999994 0.99999994 0 0 0 45 12.023438 A 0.99999994 0.99999994 0 0 0 45 12.021484 A 0.99999994 0.99999994 0 0 0 45 12.019531 A 0.99999994 0.99999994 0 0 0 45 12.017578 A 0.99999994 0.99999994 0 0 0 45 12.015625 A 0.99999994 0.99999994 0 0 0 45 12.013672 A 0.99999994 0.99999994 0 0 0 45 12.011719 A 0.99999994 0.99999994 0 0 0 45 12.009766 A 0.99999994 0.99999994 0 0 0 45 12.007812 A 0.99999994 0.99999994 0 0 0 45 12.005859 A 0.99999994 0.99999994 0 0 0 45 12.003906 A 0.99999994 0.99999994 0 0 0 45 12.001953 A 0.99999994 0.99999994 0 0 0 45 12 L 45 11.974609 A 0.99999994 0.99999994 0 0 0 44.998047 11.949219 A 0.99999994 0.99999994 0 0 0 44.996094 11.921875 A 0.99999994 0.99999994 0 0 0 44.994141 11.896484 A 0.99999994 0.99999994 0 0 0 44.992188 11.871094 A 0.99999994 0.99999994 0 0 0 44.988281 11.845703 A 0.99999994 0.99999994 0 0 0 44.984375 11.820312 A 0.99999994 0.99999994 0 0 0 44.978516 11.794922 A 0.99999994 0.99999994 0 0 0 44.972656 11.769531 A 0.99999994 0.99999994 0 0 0 44.966797 11.746094 A 0.99999994 0.99999994 0 0 0 44.960938 11.720703 A 0.99999994 0.99999994 0 0 0 44.953125 11.695312 A 0.99999994 0.99999994 0 0 0 44.945312 11.671875 A 0.99999994 0.99999994 0 0 0 44.935547 11.646484 A 0.99999994 0.99999994 0 0 0 44.925781 11.623047 A 0.99999994 0.99999994 0 0 0 44.916016 11.599609 A 0.99999994 0.99999994 0 0 0 44.90625 11.576172 A 0.99999994 0.99999994 0 0 0 44.894531 11.552734 A 0.99999994 0.99999994 0 0 0 44.882812 11.529297 A 0.99999994 0.99999994 0 0 0 44.871094 11.507812 A 0.99999994 0.99999994 0 0 0 44.857422 11.484375 A 0.99999994 0.99999994 0 0 0 44.84375 11.462891 A 0.99999994 0.99999994 0 0 0 44.830078 11.441406 A 0.99999994 0.99999994 0 0 0 44.814453 11.419922 A 0.99999994 0.99999994 0 0 0 44.800781 11.400391 A 0.99999994 0.99999994 0 0 0 44.783203 11.378906 A 0.99999994 0.99999994 0 0 0 44.767578 11.359375 A 0.99999994 0.99999994 0 0 0 44.751953 11.339844 A 0.99999994 0.99999994 0 0 0 44.734375 11.320312 A 0.99999994 0.99999994 0 0 0 44.716797 11.302734 A 0.99999994 0.99999994 0 0 0 44.697266 11.283203 A 0.99999994 0.99999994 0 0 0 44.679688 11.265625 A 0.99999994 0.99999994 0 0 0 44.660156 11.248047 A 0.99999994 0.99999994 0 0 0 44.640625 11.232422 A 0.99999994 0.99999994 0 0 0 44.621094 11.216797 A 0.99999994 0.99999994 0 0 0 44.599609 11.199219 A 0.99999994 0.99999994 0 0 0 44.580078 11.185547 A 0.99999994 0.99999994 0 0 0 44.558594 11.169922 A 0.99999994 0.99999994 0 0 0 44.537109 11.15625 A 0.99999994 0.99999994 0 0 0 44.515625 11.142578 A 0.99999994 0.99999994 0 0 0 44.492188 11.128906 A 0.99999994 0.99999994 0 0 0 44.470703 11.117188 A 0.99999994 0.99999994 0 0 0 44.447266 11.105469 A 0.99999994 0.99999994 0 0 0 44.423828 11.09375 A 0.99999994 0.99999994 0 0 0 44.400391 11.083984 A 0.99999994 0.99999994 0 0 0 44.376953 11.074219 A 0.99999994 0.99999994 0 0 0 44.353516 11.064453 A 0.99999994 0.99999994 0 0 0 44.328125 11.054688 A 0.99999994 0.99999994 0 0 0 44.304688 11.046875 A 0.99999994 0.99999994 0 0 0 44.279297 11.039062 A 0.99999994 0.99999994 0 0 0 44.253906 11.033203 A 0.99999994 0.99999994 0 0 0 44.230469 11.027344 A 0.99999994 0.99999994 0 0 0 44.205078 11.021484 A 0.99999994 0.99999994 0 0 0 44.179688 11.015625 A 0.99999994 0.99999994 0 0 0 44.154297 11.011719 A 0.99999994 0.99999994 0 0 0 44.128906 11.007812 A 0.99999994 0.99999994 0 0 0 44.103516 11.005859 A 0.99999994 0.99999994 0 0 0 44.078125 11.003906 A 0.99999994 0.99999994 0 0 0 44.050781 11.001953 A 0.99999994 0.99999994 0 0 0 44.025391 11 L 44 11 L 23.5 11 L 22.5 10 L 19.5 7 L 6 7 z "
           transform="matrix(0.26458333,0,0,0.26458333,82.550003,157.3)" />
        <path
           id="path908"
           style="fill:#2d8cff;fill-opacity:1;stroke:none;stroke-width:0.999999px;stroke-linecap:butt;stroke-linejoin:miter;stroke-opacity:1"
           d="M 24 24 L 20 28 L 2 28 L 2 46 L 46 46 L 46 26 A 1.9999999 1.9999999 0 0 0 45.994141 25.849609 A 1.9999999 1.9999999 0 0 0 45.978516 25.701172 A 1.9999999 1.9999999 0 0 0 45.949219 25.554688 A 1.9999999 1.9999999 0 0 0 45.912109 25.410156 A 1.9999999 1.9999999 0 0 0 45.861328 25.269531 A 1.9999999 1.9999999 0 0 0 45.802734 25.132812 A 1.9999999 1.9999999 0 0 0 45.732422 25 A 1.9999999 1.9999999 0 0 0 45.652344 24.873047 A 1.9999999 1.9999999 0 0 0 45.564453 24.753906 A 1.9999999 1.9999999 0 0 0 45.466797 24.638672 A 1.9999999 1.9999999 0 0 0 45.361328 24.533203 A 1.9999999 1.9999999 0 0 0 45.246094 24.435547 A 1.9999999 1.9999999 0 0 0 45.126953 24.347656 A 1.9999999 1.9999999 0 0 0 45 24.267578 A 1.9999999 1.9999999 0 0 0 44.867188 24.197266 A 1.9999999 1.9999999 0 0 0 44.730469 24.138672 A 1.9999999 1.9999999 0 0 0 44.589844 24.087891 A 1.9999999 1.9999999 0 0 0 44.445312 24.050781 A 1.9999999 1.9999999 0 0 0 44.298828 24.021484 A 1.9999999 1.9999999 0 0 0 44.150391 24.005859 A 1.9999999 1.9999999 0 0 0 44 24 L 24 24 z "
           transform="matrix(0.26458333,0,0,0.26458333,82.550003,157.3)" />
        <path
           id="path910-3"
           style="fill:#6fb7ff;fill-opacity:1;stroke:none;stroke-width:0.999999px;stroke-linecap:butt;stroke-linejoin:miter;stroke-opacity:1"
           d="M 24.5 25 L 20.5 29 L 3 29 L 3 45 L 45 45 L 45 26.044922 A 0.99999994 0.99999994 0 0 0 45 26.039062 A 0.99999994 0.99999994 0 0 0 45 26 A 0.99999994 0.99999994 0 0 0 45 25.998047 A 0.99999994 0.99999994 0 0 0 45 25.996094 A 0.99999994 0.99999994 0 0 0 45 25.990234 A 0.99999994 0.99999994 0 0 0 45 25.988281 A 0.99999994 0.99999994 0 0 0 45 25.986328 A 0.99999994 0.99999994 0 0 0 45 25.984375 A 0.99999994 0.99999994 0 0 0 45 25.978516 A 0.99999994 0.99999994 0 0 0 45 25.976562 A 0.99999994 0.99999994 0 0 0 45 25.974609 A 0.99999994 0.99999994 0 0 0 45 25.972656 A 0.99999994 0.99999994 0 0 0 45 25.970703 A 0.99999994 0.99999994 0 0 0 45 25.964844 A 0.99999994 0.99999994 0 0 0 45 25.962891 A 0.99999994 0.99999994 0 0 0 45 25.960938 A 0.99999994 0.99999994 0 0 0 45 25.958984 A 0.99999994 0.99999994 0 0 0 45 25.953125 A 0.99999994 0.99999994 0 0 0 45 25.951172 A 0.99999994 0.99999994 0 0 0 45 25.949219 A 0.99999994 0.99999994 0 0 0 45 25.947266 A 0.99999994 0.99999994 0 0 0 44.998047 25.941406 A 0.99999994 0.99999994 0 0 0 44.998047 25.939453 A 0.99999994 0.99999994 0 0 0 44.998047 25.9375 A 0.99999994 0.99999994 0 0 0 44.998047 25.935547 A 0.99999994 0.99999994 0 0 0 44.998047 25.929688 A 0.99999994 0.99999994 0 0 0 44.998047 25.927734 A 0.99999994 0.99999994 0 0 0 44.998047 25.925781 A 0.99999994 0.99999994 0 0 0 44.998047 25.923828 A 0.99999994 0.99999994 0 0 0 44.998047 25.921875 A 0.99999994 0.99999994 0 0 0 44.998047 25.916016 A 0.99999994 0.99999994 0 0 0 44.996094 25.914062 A 0.99999994 0.99999994 0 0 0 44.996094 25.912109 A 0.99999994 0.99999994 0 0 0 44.996094 25.910156 A 0.99999994 0.99999994 0 0 0 44.996094 25.904297 A 0.99999994 0.99999994 0 0 0 44.996094 25.902344 A 0.99999994 0.99999994 0 0 0 44.980469 25.804688 A 0.99999994 0.99999994 0 0 0 44.957031 25.708984 A 0.99999994 0.99999994 0 0 0 44.923828 25.617188 A 0.99999994 0.99999994 0 0 0 44.882812 25.529297 A 0.99999994 0.99999994 0 0 0 44.832031 25.445312 A 0.99999994 0.99999994 0 0 0 44.773438 25.365234 A 0.99999994 0.99999994 0 0 0 44.707031 25.292969 A 0.99999994 0.99999994 0 0 0 44.634766 25.226562 A 0.99999994 0.99999994 0 0 0 44.554688 25.167969 A 0.99999994 0.99999994 0 0 0 44.470703 25.117188 A 0.99999994 0.99999994 0 0 0 44.382812 25.076172 A 0.99999994 0.99999994 0 0 0 44.291016 25.042969 A 0.99999994 0.99999994 0 0 0 44.195312 25.019531 A 0.99999994 0.99999994 0 0 0 44.097656 25.003906 A 0.99999994 0.99999994 0 0 0 44 25 L 24.5 25 z "
           transform="matrix(0.26458333,0,0,0.26458333,82.550003,157.3)" />
      </g>
    </g>
  </g>
</svg>
