<?xml version="1.0" encoding="UTF-8" standalone="no"?>
<!-- Created with Inkscape (http://www.inkscape.org/) -->

<svg
   width="48"
   height="48"
   viewBox="0 0 12.7 12.7"
   version="1.1"
   id="svg2634"
   inkscape:version="1.1.2 (0a00cf5339, 2022-02-04, custom)"
   sodipodi:docname="folder-saved-search.svg"
   xmlns:inkscape="http://www.inkscape.org/namespaces/inkscape"
   xmlns:sodipodi="http://sodipodi.sourceforge.net/DTD/sodipodi-0.dtd"
   xmlns="http://www.w3.org/2000/svg"
   xmlns:svg="http://www.w3.org/2000/svg"
   xmlns:rdf="http://www.w3.org/1999/02/22-rdf-syntax-ns#"
   xmlns:cc="http://creativecommons.org/ns#"
   xmlns:dc="http://purl.org/dc/elements/1.1/">
  <title
     id="title3250">Boston Icons</title>
  <defs
     id="defs2628" />
  <sodipodi:namedview
     id="base"
     pagecolor="#ffffff"
     bordercolor="#00ffed"
     borderopacity="1"
     inkscape:pageopacity="1"
     inkscape:pageshadow="2"
     inkscape:zoom="15.839192"
     inkscape:cx="25.253814"
     inkscape:cy="26.484937"
     inkscape:document-units="px"
     inkscape:current-layer="g2609"
     showgrid="false"
     showguides="false"
     inkscape:guide-bbox="true"
     fit-margin-top="0"
     fit-margin-left="0"
     fit-margin-right="0"
     fit-margin-bottom="0"
     inkscape:window-width="1920"
     inkscape:window-height="1011"
     inkscape:window-x="0"
     inkscape:window-y="0"
     inkscape:window-maximized="1"
     units="px"
     inkscape:pagecheckerboard="0">
    <inkscape:grid
       type="xygrid"
       id="grid3182"
       spacingx="0.26458333"
       spacingy="0.26458333"
       empspacing="4"
       originx="-82.550004"
       originy="-127.00001"
       dotted="false" />
    <sodipodi:guide
       position="-4.268358e-06,27.516666"
       orientation="1,0"
       id="guide3216"
       inkscape:locked="false" />
    <sodipodi:guide
       position="32.279157,-4.1479283e-06"
       orientation="0,1"
       id="guide3222"
       inkscape:locked="false" />
    <sodipodi:guide
       position="13.229163,0.52915746"
       orientation="0,1"
       id="guide3226"
       inkscape:locked="false" />
    <sodipodi:guide
       position="0.52916318,6.8791574"
       orientation="1,0"
       id="guide3228"
       inkscape:locked="false" />
    <sodipodi:guide
       position="1.0583298,6.8791574"
       orientation="1,0"
       id="guide3234"
       inkscape:locked="false" />
    <sodipodi:guide
       position="1.5874965,6.8791574"
       orientation="1,0"
       id="guide3236"
       inkscape:locked="false" />
    <sodipodi:guide
       position="6.3499965,7.9374908"
       orientation="1,0"
       id="guide3238"
       inkscape:locked="false" />
    <sodipodi:guide
       position="13.75833,1.0583241"
       orientation="0,1"
       id="guide3246"
       inkscape:locked="false" />
    <sodipodi:guide
       position="16.404162,3.1749959"
       orientation="0,1"
       id="guide3248"
       inkscape:locked="false" />
    <sodipodi:guide
       position="5.2916632,10.054157"
       orientation="0,1"
       id="guide862"
       inkscape:locked="false" />
    <sodipodi:guide
       position="5.8208298,12.170824"
       orientation="0,1"
       id="guide864"
       inkscape:locked="false" />
    <sodipodi:guide
       position="6.8791632,11.641657"
       orientation="0,1"
       id="guide866"
       inkscape:locked="false" />
    <sodipodi:guide
       position="12.17083,8.4666574"
       orientation="1,0"
       id="guide868"
       inkscape:locked="false" />
    <sodipodi:guide
       position="11.641663,8.4666574"
       orientation="1,0"
       id="guide870"
       inkscape:locked="false" />
    <sodipodi:guide
       position="11.112496,8.4666574"
       orientation="1,0"
       id="guide872"
       inkscape:locked="false" />
    <sodipodi:guide
       position="2.3812449,11.112512"
       orientation="0,-1"
       id="guide844" />
  </sodipodi:namedview>
  <metadata
     id="metadata2631">
    <rdf:RDF>
      <cc:Work
         rdf:about="">
        <dc:format>image/svg+xml</dc:format>
        <dc:type
           rdf:resource="http://purl.org/dc/dcmitype/StillImage" />
        <dc:title>Boston Icons</dc:title>
        <cc:license
           rdf:resource="dribbble.com/chrisdiaz" />
        <dc:creator>
          <cc:Agent>
            <dc:title>Christian Díaz</dc:title>
          </cc:Agent>
        </dc:creator>
        <dc:date>2022</dc:date>
        <dc:publisher>
          <cc:Agent>
            <dc:title>Christian Díaz</dc:title>
          </cc:Agent>
        </dc:publisher>
        <dc:identifier>christiandiaz.design [at] gmail [dot] com</dc:identifier>
        <dc:subject>
          <rdf:Bag>
            <rdf:li>GNOME icon Theme</rdf:li>
          </rdf:Bag>
        </dc:subject>
        <dc:description>dribbble.com/chrisdiaz | diazchris.deviantart.com</dc:description>
      </cc:Work>
    </rdf:RDF>
  </metadata>
  <g
     inkscape:label="Capa 1"
     inkscape:groupmode="layer"
     id="layer1"
     transform="translate(-82.550003,-157.3)">
    <g
       id="g2609">
      <g
         id="g4450">
        <g
           id="g1418">
          <path
             id="path1163"
             style="fill:#2d8cff;stroke:none;stroke-width:0.264583px;stroke-linecap:butt;stroke-linejoin:miter;stroke-opacity:1"
             d="m 84.137503,158.8875 c -0.02638,5e-5 -0.05276,0.001 -0.07906,0.003 -0.02628,0.002 -0.05248,0.005 -0.07855,0.009 -0.02618,0.004 -0.05221,0.009 -0.07803,0.0145 -0.02574,0.006 -0.05125,0.0128 -0.07648,0.0207 -0.02512,0.008 -0.04995,0.0166 -0.07441,0.0264 -0.02467,0.01 -0.04898,0.0201 -0.07286,0.0315 -0.0237,0.0114 -0.04697,0.0236 -0.06976,0.0367 -0.02291,0.0133 -0.04532,0.0274 -0.06718,0.0424 -0.02177,0.0149 -0.04297,0.0306 -0.06356,0.047 -0.02062,0.0165 -0.04061,0.0337 -0.05994,0.0517 -0.01929,0.0179 -0.03791,0.0365 -0.05581,0.0558 -0.01797,0.0193 -0.03521,0.0393 -0.05168,0.06 -0.01646,0.0206 -0.03215,0.0418 -0.04703,0.0636 -0.01496,0.0219 -0.0291,0.0443 -0.04237,0.0672 -0.01309,0.0228 -0.02533,0.0461 -0.03669,0.0698 -0.01141,0.0239 -0.02193,0.0482 -0.03152,0.0729 -0.0097,0.0245 -0.0185,0.0493 -0.02636,0.0744 -0.0078,0.0252 -0.01474,0.0507 -0.02067,0.0765 -0.0058,0.0258 -0.01062,0.0519 -0.01447,0.078 -0.0039,0.0261 -0.0068,0.0523 -0.0088,0.0786 -0.002,0.0263 -0.0031,0.0527 -0.0031,0.0791 v 9.525 h 11.641666 v -8.99583 -0.0134 a 0.52916663,0.52916663 0 0 0 -5.29e-4,-0.0139 0.52916663,0.52916663 0 0 0 -0.001,-0.0134 0.52916663,0.52916663 0 0 0 -10e-4,-0.0134 0.52916663,0.52916663 0 0 0 -0.0016,-0.0134 0.52916663,0.52916663 0 0 0 -0.0021,-0.0139 0.52916663,0.52916663 0 0 0 -0.0026,-0.0134 0.52916663,0.52916663 0 0 0 -0.0026,-0.0129 0.52916663,0.52916663 0 0 0 -0.0026,-0.0134 0.52916663,0.52916663 0 0 0 -0.0036,-0.0134 0.52916663,0.52916663 0 0 0 -0.0036,-0.0129 0.52916663,0.52916663 0 0 0 -0.0041,-0.0129 0.52916663,0.52916663 0 0 0 -0.0041,-0.0129 0.52916663,0.52916663 0 0 0 -0.0047,-0.0129 0.52916663,0.52916663 0 0 0 -0.0047,-0.0129 0.52916663,0.52916663 0 0 0 -0.0057,-0.0124 0.52916663,0.52916663 0 0 0 -0.0057,-0.0124 0.52916663,0.52916663 0 0 0 -0.0057,-0.0124 0.52916663,0.52916663 0 0 0 -0.0062,-0.0119 0.52916663,0.52916663 0 0 0 -0.0067,-0.0119 0.52916663,0.52916663 0 0 0 -0.0067,-0.0119 0.52916663,0.52916663 0 0 0 -0.0072,-0.0119 0.52916663,0.52916663 0 0 0 -0.0072,-0.0114 0.52916663,0.52916663 0 0 0 -0.0078,-0.0108 0.52916663,0.52916663 0 0 0 -0.0083,-0.0114 0.52916663,0.52916663 0 0 0 -0.0083,-0.0109 0.52916663,0.52916663 0 0 0 -0.0088,-0.0103 0.52916663,0.52916663 0 0 0 -0.0088,-0.0103 0.52916663,0.52916663 0 0 0 -0.0093,-0.0103 0.52916663,0.52916663 0 0 0 -0.0093,-0.01 0.52916663,0.52916663 0 0 0 -0.0093,-0.009 0.52916663,0.52916663 0 0 0 -0.0098,-0.01 0.52916663,0.52916663 0 0 0 -0.01033,-0.009 0.52916663,0.52916663 0 0 0 -0.01033,-0.009 0.52916663,0.52916663 0 0 0 -0.01085,-0.009 0.52916663,0.52916663 0 0 0 -0.01033,-0.008 0.52916663,0.52916663 0 0 0 -0.01137,-0.008 0.52916663,0.52916663 0 0 0 -0.01085,-0.008 0.52916663,0.52916663 0 0 0 -0.01137,-0.007 0.52916663,0.52916663 0 0 0 -0.01189,-0.007 0.52916663,0.52916663 0 0 0 -0.01189,-0.007 0.52916663,0.52916663 0 0 0 -0.01188,-0.007 0.52916663,0.52916663 0 0 0 -0.01189,-0.006 0.52916663,0.52916663 0 0 0 -0.0124,-0.006 0.52916663,0.52916663 0 0 0 -0.0124,-0.006 0.52916663,0.52916663 0 0 0 -0.0124,-0.006 0.52916663,0.52916663 0 0 0 -0.01292,-0.005 0.52916663,0.52916663 0 0 0 -0.01292,-0.005 0.52916663,0.52916663 0 0 0 -0.01292,-0.005 0.52916663,0.52916663 0 0 0 -0.01292,-0.004 0.52916663,0.52916663 0 0 0 -0.01292,-0.004 0.52916663,0.52916663 0 0 0 -0.01344,-0.004 0.52916663,0.52916663 0 0 0 -0.01344,-0.003 0.52916663,0.52916663 0 0 0 -0.01292,-0.003 0.52916663,0.52916663 0 0 0 -0.01344,-0.003 0.52916663,0.52916663 0 0 0 -0.01395,-0.002 0.52916663,0.52916663 0 0 0 -0.01344,-0.002 0.52916663,0.52916663 0 0 0 -0.01344,-10e-4 0.52916663,0.52916663 0 0 0 -0.01344,-0.001 0.52916663,0.52916663 0 0 0 -0.01391,-4.9e-4 h -0.01344 -0.529167 -4.7625 L 87.84167,158.8875 Z" />
          <path
             id="path906"
             style="fill:#6fb7ff;stroke:none;stroke-width:0.264583px;stroke-linecap:butt;stroke-linejoin:miter;stroke-opacity:1"
             d="m 84.137503,159.15208 a 0.79374999,0.79374999 0 0 0 -0.08888,0.005 0.79374999,0.79374999 0 0 0 -0.08785,0.0145 0.79374999,0.79374999 0 0 0 -0.08527,0.0248 0.79374999,0.79374999 0 0 0 -0.08216,0.0341 0.79374999,0.79374999 0 0 0 -0.07803,0.0429 0.79374999,0.79374999 0 0 0 -0.07286,0.0517 0.79374999,0.79374999 0 0 0 -0.06615,0.0594 0.79374999,0.79374999 0 0 0 -0.05943,0.0661 0.79374999,0.79374999 0 0 0 -0.05168,0.0729 0.79374999,0.79374999 0 0 0 -0.04289,0.078 0.79374999,0.79374999 0 0 0 -0.03411,0.0822 0.79374999,0.79374999 0 0 0 -0.02481,0.0853 0.79374999,0.79374999 0 0 0 -0.01447,0.0879 0.79374999,0.79374999 0 0 0 -0.0052,0.0889 0.79374999,0.79374999 0 0 0 0.0052,0.0889 0.79374999,0.79374999 0 0 0 0.01447,0.0879 0.79374999,0.79374999 0 0 0 0.02481,0.0853 0.79374999,0.79374999 0 0 0 0.03411,0.0822 0.79374999,0.79374999 0 0 0 0.04289,0.078 0.79374999,0.79374999 0 0 0 0.05168,0.0729 0.79374999,0.79374999 0 0 0 0.05943,0.0661 0.79374999,0.79374999 0 0 0 0.06615,0.0594 0.79374999,0.79374999 0 0 0 0.07286,0.0517 0.79374999,0.79374999 0 0 0 0.07803,0.0429 0.79374999,0.79374999 0 0 0 0.08217,0.0341 0.79374999,0.79374999 0 0 0 0.08527,0.0243 0.79374999,0.79374999 0 0 0 0.08785,0.015 0.79374999,0.79374999 0 0 0 0.08888,0.005 h 3.704167 l 0.661458,-0.79375 -0.79375,-0.79375 z m 0,1.5875 a 0.79374999,0.79374999 0 0 1 -0.08888,-0.005 0.79374999,0.79374999 0 0 1 -0.08785,-0.015 0.79374999,0.79374999 0 0 1 -0.08527,-0.0243 0.79374999,0.79374999 0 0 1 -0.08216,-0.0341 0.79374999,0.79374999 0 0 1 -0.07803,-0.0429 0.79374999,0.79374999 0 0 1 -0.07286,-0.0517 0.79374999,0.79374999 0 0 1 -0.06615,-0.0594 0.79374999,0.79374999 0 0 1 -0.05943,-0.0661 0.79374999,0.79374999 0 0 1 -0.05168,-0.0729 0.79374999,0.79374999 0 0 1 -0.04289,-0.078 0.79374999,0.79374999 0 0 1 -0.03411,-0.0822 0.79374999,0.79374999 0 0 1 -0.02481,-0.0853 0.79374999,0.79374999 0 0 1 -0.01447,-0.0879 0.79374999,0.79374999 0 0 1 -0.0052,-0.0889 v 0.79375 z" />
          <path
             id="path910"
             style="fill:#6fb7ff;fill-opacity:1;stroke:none;stroke-width:0.264583px;stroke-linecap:butt;stroke-linejoin:miter;stroke-opacity:1"
             d="m 88.648855,160.21042 -0.661458,0.79375 h -4.643644 v 8.20208 h 11.1125 V 160.475 a 0.26458331,0.26458331 0 0 0 -0.0052,-0.0517 0.26458331,0.26458331 0 0 0 -0.01499,-0.0496 0.26458331,0.26458331 0 0 0 -0.02429,-0.0455 0.26458331,0.26458331 0 0 0 -0.03307,-0.0403 0.26458331,0.26458331 0 0 0 -0.04031,-0.0331 0.26458331,0.26458331 0 0 0 -0.04547,-0.0243 0.26458331,0.26458331 0 0 0 -0.04961,-0.015 0.26458331,0.26458331 0 0 0 -0.05168,-0.005 z" />
        </g>
        <g
           transform="translate(0.26458704,-0.7937066)"
           id="g929">
          <path
             style="opacity:1;fill:#2d8cff;fill-opacity:1;fill-rule:nonzero;stroke:none;stroke-width:1;stroke-linecap:round;stroke-linejoin:bevel;stroke-miterlimit:4;stroke-dasharray:none;stroke-dashoffset:35;stroke-opacity:1"
             d="m 20.5,20 a 7.4999999,7.4999999 0 0 0 -7.5,7.5 7.4999999,7.4999999 0 0 0 7.5,7.5 7.4999999,7.4999999 0 0 0 4.933594,-1.857422 l 8.216797,8.210938 0.701171,-0.708985 -8.214843,-8.21289 A 7.4999999,7.4999999 0 0 0 28,27.5 7.4999999,7.4999999 0 0 0 20.5,20 Z m 0,1 A 6.4999998,6.4999998 0 0 1 27,27.5 6.4999998,6.4999998 0 0 1 20.5,34 6.4999998,6.4999998 0 0 1 14,27.5 6.4999998,6.4999998 0 0 1 20.5,21 Z m 0,1 a 5.4999996,5.4999996 0 0 0 -3.517578,1.275391 l 0.708984,0.708984 A 4.4999995,4.4999995 0 0 1 20.5,23 a 4.4999995,4.4999995 0 0 1 2.806641,0.988281 l 0.708984,-0.710937 A 5.4999996,5.4999996 0 0 0 20.5,22 Z"
             transform="matrix(0.26458333,0,0,0.26458333,82.550003,157.56455)"
             id="path879"
             inkscape:connector-curvature="0" />
        </g>
      </g>
    </g>
  </g>
</svg>
