<?xml version="1.0" encoding="UTF-8" standalone="no"?>
<!-- Created with Inkscape (http://www.inkscape.org/) -->

<svg
   xmlns:dc="http://purl.org/dc/elements/1.1/"
   xmlns:cc="http://creativecommons.org/ns#"
   xmlns:rdf="http://www.w3.org/1999/02/22-rdf-syntax-ns#"
   xmlns:svg="http://www.w3.org/2000/svg"
   xmlns="http://www.w3.org/2000/svg"
   xmlns:sodipodi="http://sodipodi.sourceforge.net/DTD/sodipodi-0.dtd"
   xmlns:inkscape="http://www.inkscape.org/namespaces/inkscape"
   width="48"
   height="48"
   viewBox="0 0 12.7 12.7"
   version="1.1"
   id="svg2634"
   inkscape:version="0.92.4 5da689c313, 2019-01-14"
   sodipodi:docname="network-server.svg">
  <title
     id="title3250">Boston Icons</title>
  <defs
     id="defs2628" />
  <sodipodi:namedview
     id="base"
     pagecolor="#ffffff"
     bordercolor="#00ffed"
     borderopacity="1"
     inkscape:pageopacity="1"
     inkscape:pageshadow="2"
     inkscape:zoom="15.839192"
     inkscape:cx="26.08167"
     inkscape:cy="23.623986"
     inkscape:document-units="px"
     inkscape:current-layer="layer1"
     showgrid="false"
     showguides="false"
     inkscape:guide-bbox="true"
     fit-margin-top="0"
     fit-margin-left="0"
     fit-margin-right="0"
     fit-margin-bottom="0"
     inkscape:window-width="1920"
     inkscape:window-height="1016"
     inkscape:window-x="0"
     inkscape:window-y="27"
     inkscape:window-maximized="1"
     units="px">
    <inkscape:grid
       type="xygrid"
       id="grid3182"
       spacingx="0.26458333"
       spacingy="0.26458333"
       empspacing="4"
       originx="-82.550004"
       originy="-127.00001"
       dotted="false" />
    <sodipodi:guide
       position="-4.268358e-06,27.516666"
       orientation="1,0"
       id="guide3216"
       inkscape:locked="false" />
    <sodipodi:guide
       position="32.279157,-4.1479283e-06"
       orientation="0,1"
       id="guide3222"
       inkscape:locked="false" />
    <sodipodi:guide
       position="13.229163,0.52915746"
       orientation="0,1"
       id="guide3226"
       inkscape:locked="false" />
    <sodipodi:guide
       position="0.52916318,6.8791574"
       orientation="1,0"
       id="guide3228"
       inkscape:locked="false" />
    <sodipodi:guide
       position="3.1749949,11.112488"
       orientation="1,0"
       id="guide3236"
       inkscape:locked="false" />
    <sodipodi:guide
       position="13.75833,1.0583241"
       orientation="0,1"
       id="guide3246"
       inkscape:locked="false" />
    <sodipodi:guide
       position="5.8208298,12.170824"
       orientation="0,1"
       id="guide864"
       inkscape:locked="false" />
    <sodipodi:guide
       position="12.17083,8.4666574"
       orientation="1,0"
       id="guide868"
       inkscape:locked="false" />
    <sodipodi:guide
       position="9.5249948,10.847905"
       orientation="1,0"
       id="guide872"
       inkscape:locked="false" />
    <sodipodi:guide
       position="11.112495,2.6458217"
       orientation="0,1"
       id="guide7468"
       inkscape:locked="false" />
    <sodipodi:guide
       position="6.0854116,6.3499883"
       orientation="0,1"
       id="guide1893"
       inkscape:locked="false" />
  </sodipodi:namedview>
  <metadata
     id="metadata2631">
    <rdf:RDF>
      <cc:Work
         rdf:about="">
        <dc:format>image/svg+xml</dc:format>
        <dc:type
           rdf:resource="http://purl.org/dc/dcmitype/StillImage" />
        <dc:title>Boston Icons</dc:title>
        <cc:license
           rdf:resource="dribbble.com/chrisdiaz" />
        <dc:creator>
          <cc:Agent>
            <dc:title>Christian Díaz</dc:title>
          </cc:Agent>
        </dc:creator>
        <dc:date>2019</dc:date>
        <dc:publisher>
          <cc:Agent>
            <dc:title>Christian Díaz</dc:title>
          </cc:Agent>
        </dc:publisher>
        <dc:identifier>christiandiaz.design [at] gmail [dot] com</dc:identifier>
        <dc:subject>
          <rdf:Bag>
            <rdf:li>GNOME icon Theme</rdf:li>
          </rdf:Bag>
        </dc:subject>
        <dc:description>diazchris.deviantart.com | dribbble.com/chrisdiaz</dc:description>
      </cc:Work>
    </rdf:RDF>
  </metadata>
  <g
     inkscape:label="Capa 1"
     inkscape:groupmode="layer"
     id="layer1"
     transform="translate(-82.550003,-157.3)">
    <g
       id="g1241">
      <rect
         y="163.12085"
         x="91.810417"
         height="1.0583287"
         width="2.6458306"
         id="rect2089"
         style="opacity:1;fill:#6fb7ff;fill-opacity:1;fill-rule:nonzero;stroke:none;stroke-width:0.26458332;stroke-linecap:round;stroke-linejoin:bevel;stroke-miterlimit:4;stroke-dasharray:none;stroke-dashoffset:35;stroke-opacity:1" />
      <rect
         y="163.12085"
         x="83.34375"
         height="1.0583287"
         width="2.6458313"
         id="rect2087"
         style="opacity:1;fill:#6fb7ff;fill-opacity:1;fill-rule:nonzero;stroke:none;stroke-width:0.26458332;stroke-linecap:round;stroke-linejoin:bevel;stroke-miterlimit:4;stroke-dasharray:none;stroke-dashoffset:35;stroke-opacity:1" />
      <rect
         y="163.12085"
         x="83.079163"
         height="0.26457873"
         width="2.9104187"
         id="rect2091"
         style="opacity:1;fill:#2d8cff;fill-opacity:1;fill-rule:nonzero;stroke:none;stroke-width:0.26458332;stroke-linecap:round;stroke-linejoin:bevel;stroke-miterlimit:4;stroke-dasharray:none;stroke-dashoffset:35;stroke-opacity:1" />
      <rect
         y="163.9146"
         x="83.079163"
         height="0.26458332"
         width="2.9104152"
         id="rect2093"
         style="opacity:1;fill:#2d8cff;fill-opacity:1;fill-rule:nonzero;stroke:none;stroke-width:0.26458332;stroke-linecap:round;stroke-linejoin:bevel;stroke-miterlimit:4;stroke-dasharray:none;stroke-dashoffset:35;stroke-opacity:1" />
      <rect
         y="163.12085"
         x="91.810417"
         height="0.26458332"
         width="2.9104185"
         id="rect2095"
         style="opacity:1;fill:#2d8cff;fill-opacity:1;fill-rule:nonzero;stroke:none;stroke-width:0.26458332;stroke-linecap:round;stroke-linejoin:bevel;stroke-miterlimit:4;stroke-dasharray:none;stroke-dashoffset:35;stroke-opacity:1" />
      <rect
         y="163.9146"
         x="91.810417"
         height="0.26458332"
         width="2.9104166"
         id="rect2097"
         style="opacity:1;fill:#2d8cff;fill-opacity:1;fill-rule:nonzero;stroke:none;stroke-width:0.26458332;stroke-linecap:round;stroke-linejoin:bevel;stroke-miterlimit:4;stroke-dasharray:none;stroke-dashoffset:35;stroke-opacity:1" />
      <rect
         y="157.82918"
         x="85.724998"
         height="11.641668"
         width="6.3499999"
         id="rect1496"
         style="opacity:1;fill:#252627;fill-opacity:1;fill-rule:nonzero;stroke:none;stroke-width:0.26458332;stroke-linecap:round;stroke-linejoin:bevel;stroke-miterlimit:4;stroke-dasharray:none;stroke-dashoffset:35;stroke-opacity:1" />
      <rect
         y="158.09377"
         x="85.989578"
         height="10.847911"
         width="5.8208361"
         id="rect1891"
         style="opacity:1;fill:#373b43;fill-opacity:1;fill-rule:nonzero;stroke:none;stroke-width:0.26458332;stroke-linecap:round;stroke-linejoin:bevel;stroke-miterlimit:4;stroke-dasharray:none;stroke-dashoffset:35;stroke-opacity:1" />
      <rect
         y="158.62292"
         x="86.518745"
         height="1.5875036"
         width="4.7625022"
         id="rect1897"
         style="opacity:1;fill:#252627;fill-opacity:1;fill-rule:nonzero;stroke:none;stroke-width:0.26458332;stroke-linecap:round;stroke-linejoin:bevel;stroke-miterlimit:4;stroke-dasharray:none;stroke-dashoffset:35;stroke-opacity:1" />
      <rect
         y="160.73958"
         x="86.518745"
         height="1.5875036"
         width="4.7625022"
         id="rect1897-3"
         style="opacity:1;fill:#252627;fill-opacity:1;fill-rule:nonzero;stroke:none;stroke-width:0.26458332;stroke-linecap:round;stroke-linejoin:bevel;stroke-miterlimit:4;stroke-dasharray:none;stroke-dashoffset:35;stroke-opacity:1" />
      <rect
         y="162.85626"
         x="86.518745"
         height="1.5875036"
         width="4.7625022"
         id="rect1897-6"
         style="opacity:1;fill:#252627;fill-opacity:1;fill-rule:nonzero;stroke:none;stroke-width:0.26458332;stroke-linecap:round;stroke-linejoin:bevel;stroke-miterlimit:4;stroke-dasharray:none;stroke-dashoffset:35;stroke-opacity:1" />
      <rect
         y="164.97292"
         x="86.518745"
         height="1.5875036"
         width="4.7625022"
         id="rect1897-7"
         style="opacity:1;fill:#252627;fill-opacity:1;fill-rule:nonzero;stroke:none;stroke-width:0.26458332;stroke-linecap:round;stroke-linejoin:bevel;stroke-miterlimit:4;stroke-dasharray:none;stroke-dashoffset:35;stroke-opacity:1" />
      <rect
         y="158.88751"
         x="86.783333"
         height="1.0583328"
         width="0.26458174"
         id="rect1934"
         style="opacity:1;fill:#cdd5d9;fill-opacity:1;fill-rule:nonzero;stroke:none;stroke-width:0.26458332;stroke-linecap:round;stroke-linejoin:bevel;stroke-miterlimit:4;stroke-dasharray:none;stroke-dashoffset:35;stroke-opacity:1" />
      <rect
         y="158.88751"
         x="87.3125"
         height="1.0583328"
         width="0.26458123"
         id="rect1936"
         style="opacity:1;fill:#cdd5d9;fill-opacity:1;fill-rule:nonzero;stroke:none;stroke-width:0.26458332;stroke-linecap:round;stroke-linejoin:bevel;stroke-miterlimit:4;stroke-dasharray:none;stroke-dashoffset:35;stroke-opacity:1" />
      <rect
         y="158.88751"
         x="87.841667"
         height="1.0583328"
         width="0.26458073"
         id="rect1938"
         style="opacity:1;fill:#cdd5d9;fill-opacity:1;fill-rule:nonzero;stroke:none;stroke-width:0.26458332;stroke-linecap:round;stroke-linejoin:bevel;stroke-miterlimit:4;stroke-dasharray:none;stroke-dashoffset:35;stroke-opacity:1" />
      <rect
         y="158.88751"
         x="90.222916"
         height="0.26458332"
         width="0.26458332"
         id="rect1940"
         style="opacity:1;fill:#cdd5d9;fill-opacity:1;fill-rule:nonzero;stroke:none;stroke-width:0.26458332;stroke-linecap:round;stroke-linejoin:bevel;stroke-miterlimit:4;stroke-dasharray:none;stroke-dashoffset:35;stroke-opacity:1" />
      <rect
         y="158.88751"
         x="89.693748"
         height="0.26458332"
         width="0.26458332"
         id="rect1942"
         style="opacity:1;fill:#cdd5d9;fill-opacity:1;fill-rule:nonzero;stroke:none;stroke-width:0.26458332;stroke-linecap:round;stroke-linejoin:bevel;stroke-miterlimit:4;stroke-dasharray:none;stroke-dashoffset:35;stroke-opacity:1" />
      <rect
         y="158.88751"
         x="89.164581"
         height="0.26458332"
         width="0.26458332"
         id="rect1944"
         style="opacity:1;fill:#cdd5d9;fill-opacity:1;fill-rule:nonzero;stroke:none;stroke-width:0.26458332;stroke-linecap:round;stroke-linejoin:bevel;stroke-miterlimit:4;stroke-dasharray:none;stroke-dashoffset:35;stroke-opacity:1" />
      <path
         inkscape:connector-curvature="0"
         id="path2008"
         transform="matrix(0.26458333,0,0,0.26458333,82.550003,157.3)"
         d="M 15.5,37 A 0.49999997,0.49999997 0 0 0 15,37.5 0.49999997,0.49999997 0 0 0 15.5,38 0.49999997,0.49999997 0 0 0 16,37.5 0.49999997,0.49999997 0 0 0 15.5,37 Z m 2,0 A 0.49999997,0.49999997 0 0 0 17,37.5 0.49999997,0.49999997 0 0 0 17.5,38 0.49999997,0.49999997 0 0 0 18,37.5 0.49999997,0.49999997 0 0 0 17.5,37 Z m 2,0 A 0.49999997,0.49999997 0 0 0 19,37.5 0.49999997,0.49999997 0 0 0 19.5,38 0.49999997,0.49999997 0 0 0 20,37.5 0.49999997,0.49999997 0 0 0 19.5,37 Z m 2,0 A 0.49999997,0.49999997 0 0 0 21,37.5 0.49999997,0.49999997 0 0 0 21.5,38 0.49999997,0.49999997 0 0 0 22,37.5 0.49999997,0.49999997 0 0 0 21.5,37 Z m 2,0 A 0.49999997,0.49999997 0 0 0 23,37.5 0.49999997,0.49999997 0 0 0 23.5,38 0.49999997,0.49999997 0 0 0 24,37.5 0.49999997,0.49999997 0 0 0 23.5,37 Z m 2,0 A 0.49999997,0.49999997 0 0 0 25,37.5 0.49999997,0.49999997 0 0 0 25.5,38 0.49999997,0.49999997 0 0 0 26,37.5 0.49999997,0.49999997 0 0 0 25.5,37 Z m 2,0 A 0.49999997,0.49999997 0 0 0 27,37.5 0.49999997,0.49999997 0 0 0 27.5,38 0.49999997,0.49999997 0 0 0 28,37.5 0.49999997,0.49999997 0 0 0 27.5,37 Z m 2,0 A 0.49999997,0.49999997 0 0 0 29,37.5 0.49999997,0.49999997 0 0 0 29.5,38 0.49999997,0.49999997 0 0 0 30,37.5 0.49999997,0.49999997 0 0 0 29.5,37 Z m 2,0 A 0.49999997,0.49999997 0 0 0 31,37.5 0.49999997,0.49999997 0 0 0 31.5,38 0.49999997,0.49999997 0 0 0 32,37.5 0.49999997,0.49999997 0 0 0 31.5,37 Z m -15,1 A 0.49999997,0.49999997 0 0 0 16,38.5 0.49999997,0.49999997 0 0 0 16.5,39 0.49999997,0.49999997 0 0 0 17,38.5 0.49999997,0.49999997 0 0 0 16.5,38 Z m 2,0 A 0.49999997,0.49999997 0 0 0 18,38.5 0.49999997,0.49999997 0 0 0 18.5,39 0.49999997,0.49999997 0 0 0 19,38.5 0.49999997,0.49999997 0 0 0 18.5,38 Z m 2,0 A 0.49999997,0.49999997 0 0 0 20,38.5 0.49999997,0.49999997 0 0 0 20.5,39 0.49999997,0.49999997 0 0 0 21,38.5 0.49999997,0.49999997 0 0 0 20.5,38 Z m 2,0 A 0.49999997,0.49999997 0 0 0 22,38.5 0.49999997,0.49999997 0 0 0 22.5,39 0.49999997,0.49999997 0 0 0 23,38.5 0.49999997,0.49999997 0 0 0 22.5,38 Z m 2,0 A 0.49999997,0.49999997 0 0 0 24,38.5 0.49999997,0.49999997 0 0 0 24.5,39 0.49999997,0.49999997 0 0 0 25,38.5 0.49999997,0.49999997 0 0 0 24.5,38 Z m 2,0 A 0.49999997,0.49999997 0 0 0 26,38.5 0.49999997,0.49999997 0 0 0 26.5,39 0.49999997,0.49999997 0 0 0 27,38.5 0.49999997,0.49999997 0 0 0 26.5,38 Z m 2,0 A 0.49999997,0.49999997 0 0 0 28,38.5 0.49999997,0.49999997 0 0 0 28.5,39 0.49999997,0.49999997 0 0 0 29,38.5 0.49999997,0.49999997 0 0 0 28.5,38 Z m 2,0 A 0.49999997,0.49999997 0 0 0 30,38.5 0.49999997,0.49999997 0 0 0 30.5,39 0.49999997,0.49999997 0 0 0 31,38.5 0.49999997,0.49999997 0 0 0 30.5,38 Z m 2,0 A 0.49999997,0.49999997 0 0 0 32,38.5 0.49999997,0.49999997 0 0 0 32.5,39 0.49999997,0.49999997 0 0 0 33,38.5 0.49999997,0.49999997 0 0 0 32.5,38 Z m -17,1 A 0.49999997,0.49999997 0 0 0 15,39.5 0.49999997,0.49999997 0 0 0 15.5,40 0.49999997,0.49999997 0 0 0 16,39.5 0.49999997,0.49999997 0 0 0 15.5,39 Z m 2,0 A 0.49999997,0.49999997 0 0 0 17,39.5 0.49999997,0.49999997 0 0 0 17.5,40 0.49999997,0.49999997 0 0 0 18,39.5 0.49999997,0.49999997 0 0 0 17.5,39 Z m 2,0 A 0.49999997,0.49999997 0 0 0 19,39.5 0.49999997,0.49999997 0 0 0 19.5,40 0.49999997,0.49999997 0 0 0 20,39.5 0.49999997,0.49999997 0 0 0 19.5,39 Z m 2,0 A 0.49999997,0.49999997 0 0 0 21,39.5 0.49999997,0.49999997 0 0 0 21.5,40 0.49999997,0.49999997 0 0 0 22,39.5 0.49999997,0.49999997 0 0 0 21.5,39 Z m 2,0 A 0.49999997,0.49999997 0 0 0 23,39.5 0.49999997,0.49999997 0 0 0 23.5,40 0.49999997,0.49999997 0 0 0 24,39.5 0.49999997,0.49999997 0 0 0 23.5,39 Z m 2,0 A 0.49999997,0.49999997 0 0 0 25,39.5 0.49999997,0.49999997 0 0 0 25.5,40 0.49999997,0.49999997 0 0 0 26,39.5 0.49999997,0.49999997 0 0 0 25.5,39 Z m 2,0 A 0.49999997,0.49999997 0 0 0 27,39.5 0.49999997,0.49999997 0 0 0 27.5,40 0.49999997,0.49999997 0 0 0 28,39.5 0.49999997,0.49999997 0 0 0 27.5,39 Z m 2,0 A 0.49999997,0.49999997 0 0 0 29,39.5 0.49999997,0.49999997 0 0 0 29.5,40 0.49999997,0.49999997 0 0 0 30,39.5 0.49999997,0.49999997 0 0 0 29.5,39 Z m 2,0 A 0.49999997,0.49999997 0 0 0 31,39.5 0.49999997,0.49999997 0 0 0 31.5,40 0.49999997,0.49999997 0 0 0 32,39.5 0.49999997,0.49999997 0 0 0 31.5,39 Z m -15,1 A 0.49999997,0.49999997 0 0 0 16,40.5 0.49999997,0.49999997 0 0 0 16.5,41 0.49999997,0.49999997 0 0 0 17,40.5 0.49999997,0.49999997 0 0 0 16.5,40 Z m 2,0 A 0.49999997,0.49999997 0 0 0 18,40.5 0.49999997,0.49999997 0 0 0 18.5,41 0.49999997,0.49999997 0 0 0 19,40.5 0.49999997,0.49999997 0 0 0 18.5,40 Z m 2,0 A 0.49999997,0.49999997 0 0 0 20,40.5 0.49999997,0.49999997 0 0 0 20.5,41 0.49999997,0.49999997 0 0 0 21,40.5 0.49999997,0.49999997 0 0 0 20.5,40 Z m 2,0 A 0.49999997,0.49999997 0 0 0 22,40.5 0.49999997,0.49999997 0 0 0 22.5,41 0.49999997,0.49999997 0 0 0 23,40.5 0.49999997,0.49999997 0 0 0 22.5,40 Z m 2,0 A 0.49999997,0.49999997 0 0 0 24,40.5 0.49999997,0.49999997 0 0 0 24.5,41 0.49999997,0.49999997 0 0 0 25,40.5 0.49999997,0.49999997 0 0 0 24.5,40 Z m 2,0 A 0.49999997,0.49999997 0 0 0 26,40.5 0.49999997,0.49999997 0 0 0 26.5,41 0.49999997,0.49999997 0 0 0 27,40.5 0.49999997,0.49999997 0 0 0 26.5,40 Z m 2,0 A 0.49999997,0.49999997 0 0 0 28,40.5 0.49999997,0.49999997 0 0 0 28.5,41 0.49999997,0.49999997 0 0 0 29,40.5 0.49999997,0.49999997 0 0 0 28.5,40 Z m 2,0 A 0.49999997,0.49999997 0 0 0 30,40.5 0.49999997,0.49999997 0 0 0 30.5,41 0.49999997,0.49999997 0 0 0 31,40.5 0.49999997,0.49999997 0 0 0 30.5,40 Z m 2,0 A 0.49999997,0.49999997 0 0 0 32,40.5 0.49999997,0.49999997 0 0 0 32.5,41 0.49999997,0.49999997 0 0 0 33,40.5 0.49999997,0.49999997 0 0 0 32.5,40 Z m -17,1 A 0.49999997,0.49999997 0 0 0 15,41.5 0.49999997,0.49999997 0 0 0 15.5,42 0.49999997,0.49999997 0 0 0 16,41.5 0.49999997,0.49999997 0 0 0 15.5,41 Z m 2,0 A 0.49999997,0.49999997 0 0 0 17,41.5 0.49999997,0.49999997 0 0 0 17.5,42 0.49999997,0.49999997 0 0 0 18,41.5 0.49999997,0.49999997 0 0 0 17.5,41 Z m 2,0 A 0.49999997,0.49999997 0 0 0 19,41.5 0.49999997,0.49999997 0 0 0 19.5,42 0.49999997,0.49999997 0 0 0 20,41.5 0.49999997,0.49999997 0 0 0 19.5,41 Z m 2,0 A 0.49999997,0.49999997 0 0 0 21,41.5 0.49999997,0.49999997 0 0 0 21.5,42 0.49999997,0.49999997 0 0 0 22,41.5 0.49999997,0.49999997 0 0 0 21.5,41 Z m 2,0 A 0.49999997,0.49999997 0 0 0 23,41.5 0.49999997,0.49999997 0 0 0 23.5,42 0.49999997,0.49999997 0 0 0 24,41.5 0.49999997,0.49999997 0 0 0 23.5,41 Z m 2,0 A 0.49999997,0.49999997 0 0 0 25,41.5 0.49999997,0.49999997 0 0 0 25.5,42 0.49999997,0.49999997 0 0 0 26,41.5 0.49999997,0.49999997 0 0 0 25.5,41 Z m 2,0 A 0.49999997,0.49999997 0 0 0 27,41.5 0.49999997,0.49999997 0 0 0 27.5,42 0.49999997,0.49999997 0 0 0 28,41.5 0.49999997,0.49999997 0 0 0 27.5,41 Z m 2,0 A 0.49999997,0.49999997 0 0 0 29,41.5 0.49999997,0.49999997 0 0 0 29.5,42 0.49999997,0.49999997 0 0 0 30,41.5 0.49999997,0.49999997 0 0 0 29.5,41 Z m 2,0 A 0.49999997,0.49999997 0 0 0 31,41.5 0.49999997,0.49999997 0 0 0 31.5,42 0.49999997,0.49999997 0 0 0 32,41.5 0.49999997,0.49999997 0 0 0 31.5,41 Z"
         style="opacity:1;fill:#252627;fill-opacity:1;fill-rule:nonzero;stroke:none;stroke-width:0.99999994;stroke-linecap:round;stroke-linejoin:bevel;stroke-miterlimit:4;stroke-dasharray:none;stroke-dashoffset:35;stroke-opacity:1" />
      <rect
         y="158.88751"
         x="90.752083"
         height="0.26458332"
         width="0.26458332"
         id="rect1064"
         style="opacity:1;fill:#cdd5d9;fill-opacity:1;fill-rule:nonzero;stroke:none;stroke-width:0.52916664;stroke-linecap:square;stroke-linejoin:bevel;stroke-miterlimit:4;stroke-dasharray:none;stroke-dashoffset:35;stroke-opacity:1" />
      <rect
         y="158.88751"
         x="88.370834"
         height="1.0583333"
         width="0.26458332"
         id="rect1066"
         style="opacity:1;fill:#cdd5d9;fill-opacity:1;fill-rule:nonzero;stroke:none;stroke-width:0.52916664;stroke-linecap:square;stroke-linejoin:bevel;stroke-miterlimit:4;stroke-dasharray:none;stroke-dashoffset:35;stroke-opacity:1" />
      <rect
         y="161.00418"
         x="86.783333"
         height="1.0583328"
         width="0.26458174"
         id="rect1934-9"
         style="opacity:1;fill:#cdd5d9;fill-opacity:1;fill-rule:nonzero;stroke:none;stroke-width:0.26458332;stroke-linecap:round;stroke-linejoin:bevel;stroke-miterlimit:4;stroke-dasharray:none;stroke-dashoffset:35;stroke-opacity:1" />
      <rect
         y="161.00418"
         x="87.3125"
         height="1.0583328"
         width="0.26458123"
         id="rect1936-1"
         style="opacity:1;fill:#cdd5d9;fill-opacity:1;fill-rule:nonzero;stroke:none;stroke-width:0.26458332;stroke-linecap:round;stroke-linejoin:bevel;stroke-miterlimit:4;stroke-dasharray:none;stroke-dashoffset:35;stroke-opacity:1" />
      <rect
         y="161.00418"
         x="87.841667"
         height="1.0583328"
         width="0.26458073"
         id="rect1938-2"
         style="opacity:1;fill:#cdd5d9;fill-opacity:1;fill-rule:nonzero;stroke:none;stroke-width:0.26458332;stroke-linecap:round;stroke-linejoin:bevel;stroke-miterlimit:4;stroke-dasharray:none;stroke-dashoffset:35;stroke-opacity:1" />
      <rect
         y="161.00418"
         x="90.222916"
         height="0.26458332"
         width="0.26458332"
         id="rect1940-7"
         style="opacity:1;fill:#cdd5d9;fill-opacity:1;fill-rule:nonzero;stroke:none;stroke-width:0.26458332;stroke-linecap:round;stroke-linejoin:bevel;stroke-miterlimit:4;stroke-dasharray:none;stroke-dashoffset:35;stroke-opacity:1" />
      <rect
         y="161.00418"
         x="89.693748"
         height="0.26458332"
         width="0.26458332"
         id="rect1942-0"
         style="opacity:1;fill:#cdd5d9;fill-opacity:1;fill-rule:nonzero;stroke:none;stroke-width:0.26458332;stroke-linecap:round;stroke-linejoin:bevel;stroke-miterlimit:4;stroke-dasharray:none;stroke-dashoffset:35;stroke-opacity:1" />
      <rect
         y="161.00418"
         x="89.164581"
         height="0.26458332"
         width="0.26458332"
         id="rect1944-9"
         style="opacity:1;fill:#cdd5d9;fill-opacity:1;fill-rule:nonzero;stroke:none;stroke-width:0.26458332;stroke-linecap:round;stroke-linejoin:bevel;stroke-miterlimit:4;stroke-dasharray:none;stroke-dashoffset:35;stroke-opacity:1" />
      <rect
         y="161.00418"
         x="90.752083"
         height="0.26458332"
         width="0.26458332"
         id="rect1064-3"
         style="opacity:1;fill:#cdd5d9;fill-opacity:1;fill-rule:nonzero;stroke:none;stroke-width:0.52916664;stroke-linecap:square;stroke-linejoin:bevel;stroke-miterlimit:4;stroke-dasharray:none;stroke-dashoffset:35;stroke-opacity:1" />
      <rect
         y="161.00418"
         x="88.370834"
         height="1.0583333"
         width="0.26458332"
         id="rect1066-6"
         style="opacity:1;fill:#cdd5d9;fill-opacity:1;fill-rule:nonzero;stroke:none;stroke-width:0.52916664;stroke-linecap:square;stroke-linejoin:bevel;stroke-miterlimit:4;stroke-dasharray:none;stroke-dashoffset:35;stroke-opacity:1" />
      <rect
         y="163.12085"
         x="86.783333"
         height="1.0583328"
         width="0.26458174"
         id="rect1934-0"
         style="opacity:1;fill:#cdd5d9;fill-opacity:1;fill-rule:nonzero;stroke:none;stroke-width:0.26458332;stroke-linecap:round;stroke-linejoin:bevel;stroke-miterlimit:4;stroke-dasharray:none;stroke-dashoffset:35;stroke-opacity:1" />
      <rect
         y="163.12085"
         x="87.3125"
         height="1.0583328"
         width="0.26458123"
         id="rect1936-6"
         style="opacity:1;fill:#cdd5d9;fill-opacity:1;fill-rule:nonzero;stroke:none;stroke-width:0.26458332;stroke-linecap:round;stroke-linejoin:bevel;stroke-miterlimit:4;stroke-dasharray:none;stroke-dashoffset:35;stroke-opacity:1" />
      <rect
         y="163.12085"
         x="87.841667"
         height="1.0583328"
         width="0.26458073"
         id="rect1938-26"
         style="opacity:1;fill:#cdd5d9;fill-opacity:1;fill-rule:nonzero;stroke:none;stroke-width:0.26458332;stroke-linecap:round;stroke-linejoin:bevel;stroke-miterlimit:4;stroke-dasharray:none;stroke-dashoffset:35;stroke-opacity:1" />
      <rect
         y="163.12085"
         x="90.222916"
         height="0.26458332"
         width="0.26458332"
         id="rect1940-1"
         style="opacity:1;fill:#cdd5d9;fill-opacity:1;fill-rule:nonzero;stroke:none;stroke-width:0.26458332;stroke-linecap:round;stroke-linejoin:bevel;stroke-miterlimit:4;stroke-dasharray:none;stroke-dashoffset:35;stroke-opacity:1" />
      <rect
         y="163.12085"
         x="89.693748"
         height="0.26458332"
         width="0.26458332"
         id="rect1942-8"
         style="opacity:1;fill:#cdd5d9;fill-opacity:1;fill-rule:nonzero;stroke:none;stroke-width:0.26458332;stroke-linecap:round;stroke-linejoin:bevel;stroke-miterlimit:4;stroke-dasharray:none;stroke-dashoffset:35;stroke-opacity:1" />
      <rect
         y="163.12085"
         x="89.164581"
         height="0.26458332"
         width="0.26458332"
         id="rect1944-7"
         style="opacity:1;fill:#cdd5d9;fill-opacity:1;fill-rule:nonzero;stroke:none;stroke-width:0.26458332;stroke-linecap:round;stroke-linejoin:bevel;stroke-miterlimit:4;stroke-dasharray:none;stroke-dashoffset:35;stroke-opacity:1" />
      <rect
         y="163.12085"
         x="90.752083"
         height="0.26458332"
         width="0.26458332"
         id="rect1064-9"
         style="opacity:1;fill:#cdd5d9;fill-opacity:1;fill-rule:nonzero;stroke:none;stroke-width:0.52916664;stroke-linecap:square;stroke-linejoin:bevel;stroke-miterlimit:4;stroke-dasharray:none;stroke-dashoffset:35;stroke-opacity:1" />
      <rect
         y="163.12085"
         x="88.370834"
         height="1.0583333"
         width="0.26458332"
         id="rect1066-2"
         style="opacity:1;fill:#cdd5d9;fill-opacity:1;fill-rule:nonzero;stroke:none;stroke-width:0.52916664;stroke-linecap:square;stroke-linejoin:bevel;stroke-miterlimit:4;stroke-dasharray:none;stroke-dashoffset:35;stroke-opacity:1" />
      <rect
         y="165.23752"
         x="86.783333"
         height="1.0583328"
         width="0.26458174"
         id="rect1934-02"
         style="opacity:1;fill:#cdd5d9;fill-opacity:1;fill-rule:nonzero;stroke:none;stroke-width:0.26458332;stroke-linecap:round;stroke-linejoin:bevel;stroke-miterlimit:4;stroke-dasharray:none;stroke-dashoffset:35;stroke-opacity:1" />
      <rect
         y="165.23752"
         x="87.3125"
         height="1.0583328"
         width="0.26458123"
         id="rect1936-3"
         style="opacity:1;fill:#cdd5d9;fill-opacity:1;fill-rule:nonzero;stroke:none;stroke-width:0.26458332;stroke-linecap:round;stroke-linejoin:bevel;stroke-miterlimit:4;stroke-dasharray:none;stroke-dashoffset:35;stroke-opacity:1" />
      <rect
         y="165.23752"
         x="87.841667"
         height="1.0583328"
         width="0.26458073"
         id="rect1938-7"
         style="opacity:1;fill:#cdd5d9;fill-opacity:1;fill-rule:nonzero;stroke:none;stroke-width:0.26458332;stroke-linecap:round;stroke-linejoin:bevel;stroke-miterlimit:4;stroke-dasharray:none;stroke-dashoffset:35;stroke-opacity:1" />
      <rect
         y="165.23752"
         x="90.222916"
         height="0.26458332"
         width="0.26458332"
         id="rect1940-5"
         style="opacity:1;fill:#cdd5d9;fill-opacity:1;fill-rule:nonzero;stroke:none;stroke-width:0.26458332;stroke-linecap:round;stroke-linejoin:bevel;stroke-miterlimit:4;stroke-dasharray:none;stroke-dashoffset:35;stroke-opacity:1" />
      <rect
         y="165.23752"
         x="89.693748"
         height="0.26458332"
         width="0.26458332"
         id="rect1942-9"
         style="opacity:1;fill:#cdd5d9;fill-opacity:1;fill-rule:nonzero;stroke:none;stroke-width:0.26458332;stroke-linecap:round;stroke-linejoin:bevel;stroke-miterlimit:4;stroke-dasharray:none;stroke-dashoffset:35;stroke-opacity:1" />
      <rect
         y="165.23752"
         x="89.164581"
         height="0.26458332"
         width="0.26458332"
         id="rect1944-2"
         style="opacity:1;fill:#cdd5d9;fill-opacity:1;fill-rule:nonzero;stroke:none;stroke-width:0.26458332;stroke-linecap:round;stroke-linejoin:bevel;stroke-miterlimit:4;stroke-dasharray:none;stroke-dashoffset:35;stroke-opacity:1" />
      <rect
         y="165.23752"
         x="90.752083"
         height="0.26458332"
         width="0.26458332"
         id="rect1064-2"
         style="opacity:1;fill:#cdd5d9;fill-opacity:1;fill-rule:nonzero;stroke:none;stroke-width:0.52916664;stroke-linecap:square;stroke-linejoin:bevel;stroke-miterlimit:4;stroke-dasharray:none;stroke-dashoffset:35;stroke-opacity:1" />
      <rect
         y="165.23752"
         x="88.370834"
         height="1.0583333"
         width="0.26458332"
         id="rect1066-8"
         style="opacity:1;fill:#cdd5d9;fill-opacity:1;fill-rule:nonzero;stroke:none;stroke-width:0.52916664;stroke-linecap:square;stroke-linejoin:bevel;stroke-miterlimit:4;stroke-dasharray:none;stroke-dashoffset:35;stroke-opacity:1" />
    </g>
  </g>
</svg>
