<?xml version="1.0" encoding="UTF-8" standalone="no"?>
<!-- Created with Inkscape (http://www.inkscape.org/) -->

<svg
   width="48"
   height="48"
   viewBox="0 0 12.7 12.7"
   version="1.1"
   id="svg2634"
   inkscape:version="1.1.2 (0a00cf5339, 2022-02-04, custom)"
   sodipodi:docname="user-desktop.svg"
   xmlns:inkscape="http://www.inkscape.org/namespaces/inkscape"
   xmlns:sodipodi="http://sodipodi.sourceforge.net/DTD/sodipodi-0.dtd"
   xmlns="http://www.w3.org/2000/svg"
   xmlns:svg="http://www.w3.org/2000/svg"
   xmlns:rdf="http://www.w3.org/1999/02/22-rdf-syntax-ns#"
   xmlns:cc="http://creativecommons.org/ns#"
   xmlns:dc="http://purl.org/dc/elements/1.1/">
  <title
     id="title3250">Boston Icons</title>
  <defs
     id="defs2628" />
  <sodipodi:namedview
     id="base"
     pagecolor="#ffffff"
     bordercolor="#00ffed"
     borderopacity="1"
     inkscape:pageopacity="1"
     inkscape:pageshadow="2"
     inkscape:zoom="22.4"
     inkscape:cx="36.830357"
     inkscape:cy="21.852678"
     inkscape:document-units="px"
     inkscape:current-layer="layer1"
     showgrid="false"
     showguides="false"
     inkscape:guide-bbox="true"
     fit-margin-top="0"
     fit-margin-left="0"
     fit-margin-right="0"
     fit-margin-bottom="0"
     inkscape:window-width="1920"
     inkscape:window-height="1011"
     inkscape:window-x="0"
     inkscape:window-y="0"
     inkscape:window-maximized="1"
     units="px"
     inkscape:pagecheckerboard="0">
    <inkscape:grid
       type="xygrid"
       id="grid3182"
       spacingx="0.26458333"
       spacingy="0.26458333"
       empspacing="4"
       originx="-82.550004"
       originy="-127.00001"
       dotted="false" />
    <sodipodi:guide
       position="-4.268358e-06,27.516666"
       orientation="1,0"
       id="guide3216"
       inkscape:locked="false" />
    <sodipodi:guide
       position="32.279157,-4.1479283e-06"
       orientation="0,1"
       id="guide3222"
       inkscape:locked="false" />
    <sodipodi:guide
       position="13.229163,0.52915746"
       orientation="0,1"
       id="guide3226"
       inkscape:locked="false" />
    <sodipodi:guide
       position="0.52916318,6.8791574"
       orientation="1,0"
       id="guide3228"
       inkscape:locked="false" />
    <sodipodi:guide
       position="2.1166616,10.318738"
       orientation="1,0"
       id="guide3236"
       inkscape:locked="false" />
    <sodipodi:guide
       position="13.75833,1.0583241"
       orientation="0,1"
       id="guide3246"
       inkscape:locked="false" />
    <sodipodi:guide
       position="5.2916632,10.054157"
       orientation="0,1"
       id="guide862"
       inkscape:locked="false" />
    <sodipodi:guide
       position="5.8208298,12.170824"
       orientation="0,1"
       id="guide864"
       inkscape:locked="false" />
    <sodipodi:guide
       position="2.9104116,8.466655"
       orientation="0,1"
       id="guide866"
       inkscape:locked="false" />
    <sodipodi:guide
       position="12.17083,8.4666574"
       orientation="1,0"
       id="guide868"
       inkscape:locked="false" />
    <sodipodi:guide
       position="10.583328,9.5249883"
       orientation="1,0"
       id="guide872"
       inkscape:locked="false" />
    <sodipodi:guide
       position="11.112495,2.6458217"
       orientation="0,1"
       id="guide7468"
       inkscape:locked="false" />
    <sodipodi:guide
       position="7.6729115,6.3499883"
       orientation="1,0"
       id="guide1491"
       inkscape:locked="false" />
    <sodipodi:guide
       position="6.8791615,4.497905"
       orientation="0,1"
       id="guide1493"
       inkscape:locked="false" />
    <sodipodi:guide
       position="9.5249948,6.6145716"
       orientation="0,1"
       id="guide1495"
       inkscape:locked="false" />
    <sodipodi:guide
       position="4.2333282,11.641678"
       orientation="0,-1"
       id="guide854" />
    <sodipodi:guide
       position="3.4395782,11.112512"
       orientation="0,-1"
       id="guide856" />
  </sodipodi:namedview>
  <metadata
     id="metadata2631">
    <rdf:RDF>
      <cc:Work
         rdf:about="">
        <dc:format>image/svg+xml</dc:format>
        <dc:type
           rdf:resource="http://purl.org/dc/dcmitype/StillImage" />
        <dc:title>Boston Icons</dc:title>
        <cc:license
           rdf:resource="dribbble.com/chrisdiaz" />
        <dc:creator>
          <cc:Agent>
            <dc:title>Christian Díaz</dc:title>
          </cc:Agent>
        </dc:creator>
        <dc:date>2021</dc:date>
        <dc:publisher>
          <cc:Agent>
            <dc:title>Christian Díaz</dc:title>
          </cc:Agent>
        </dc:publisher>
        <dc:identifier>christiandiaz.design [at] gmail [dot] com</dc:identifier>
        <dc:subject>
          <rdf:Bag>
            <rdf:li>GNOME icon Theme</rdf:li>
          </rdf:Bag>
        </dc:subject>
        <dc:description>dribbble.com/chrisdiaz | diazchris.deviantart.com</dc:description>
      </cc:Work>
    </rdf:RDF>
  </metadata>
  <g
     inkscape:label="Capa 1"
     inkscape:groupmode="layer"
     id="layer1"
     transform="translate(-82.550003,-157.3)">
    <g
       id="g3564">
      <rect
         rx="8.5529206e-07"
         y="159.41666"
         x="83.079163"
         height="9.5250263"
         width="11.641659"
         id="rect3220"
         style="fill:#7a8e9e;fill-opacity:1;fill-rule:nonzero;stroke:none;stroke-width:0.264583;stroke-linecap:round;stroke-linejoin:bevel;stroke-miterlimit:4;stroke-dasharray:none;stroke-dashoffset:35;stroke-opacity:1" />
      <rect
         rx="8.5529206e-07"
         y="159.41666"
         x="83.34375"
         height="9.2604389"
         width="11.112497"
         id="rect3222"
         style="fill:#96a5af;fill-opacity:1;fill-rule:nonzero;stroke:none;stroke-width:0.264583;stroke-linecap:round;stroke-linejoin:bevel;stroke-miterlimit:4;stroke-dasharray:none;stroke-dashoffset:35;stroke-opacity:1" />
      <path
         id="rect5574"
         style="fill:#cdd5d9;fill-opacity:1;fill-rule:nonzero;stroke:none;stroke-width:0.264583;stroke-linecap:round;stroke-linejoin:bevel;stroke-miterlimit:4;stroke-dasharray:none;stroke-dashoffset:35;stroke-opacity:1"
         d="m 83.608336,158.8875 v 0.26458 h 0.264584 v -0.26458 z m 0.264584,0.26458 v 0.26459 h 0.264583 v -0.26459 z m 0.264583,0 h 0.264583 v -0.26458 h -0.264583 z m 0.264583,0 v 0.26459 h 0.264584 v -0.26459 z m 0.264584,0 h 0.264583 V 158.8875 H 84.66667 Z m 0.264583,0 v 0.26459 h 0.264583 v -0.26459 z m 0.264583,0 h 0.264584 v -0.26458 h -0.264584 z m 0.264584,0 v 0.26459 h 0.264583 v -0.26459 z m 0.264583,0 h 0.264583 v -0.26458 h -0.264583 z m 0.264583,0 v 0.26459 h 0.264584 v -0.26459 z m 0.264584,0 h 0.264583 V 158.8875 H 86.25417 Z m 0.264583,0 v 0.26459 h 0.264583 v -0.26459 z m 0.264583,0 h 0.264584 v -0.26458 h -0.264584 z m 0.264584,0 v 0.26459 h 0.264583 v -0.26459 z m 0.264583,0 h 0.264583 v -0.26458 h -0.264583 z m 0.264583,0 v 0.26459 h 0.264584 v -0.26459 z m 0.264584,0 h 0.264583 V 158.8875 H 87.84167 Z m 0.264583,0 v 0.26459 h 0.264583 v -0.26459 z m 0.264583,0 h 0.264584 v -0.26458 h -0.264584 z m 0.264584,0 v 0.26459 h 0.264583 v -0.26459 z m 0.264583,0 h 0.264583 v -0.26458 h -0.264583 z m 0.264583,0 v 0.26459 h 0.264584 v -0.26459 z m 0.264584,0 h 0.264583 V 158.8875 H 89.42917 Z m 0.264583,0 v 0.26459 h 0.264583 v -0.26459 z m 0.264583,0 h 0.264584 v -0.26458 h -0.264584 z m 0.264584,0 v 0.26459 h 0.264583 v -0.26459 z m 0.264583,0 h 0.264583 v -0.26458 h -0.264583 z m 0.264583,0 v 0.26459 h 0.264584 v -0.26459 z m 0.264584,0 h 0.264583 V 158.8875 H 91.01667 Z m 0.264583,0 v 0.26459 h 0.264583 v -0.26459 z m 0.264583,0 h 0.264584 v -0.26458 h -0.264584 z m 0.264584,0 v 0.26459 h 0.264583 v -0.26459 z m 0.264583,0 h 0.264583 v -0.26458 h -0.264583 z m 0.264583,0 v 0.26459 h 0.264584 v -0.26459 z m 0.264584,0 h 0.264583 V 158.8875 H 92.60417 Z m 0.264583,0 v 0.26459 h 0.264583 v -0.26459 z m 0.264583,0 h 0.264584 v -0.26458 h -0.264584 z m 0.264584,0 v 0.26459 h 0.264583 v -0.26459 z m 0.264583,0 h 0.264583 v -0.26458 h -0.264583 z m 0.264583,0 v 0.26459 h 0.264584 v -0.26459 z m 0.264584,0 h 0.264583 V 158.8875 H 94.19167 Z m 0,0.26459 v 0.26458 h 0.264583 v -0.26458 z m 0,0.26458 h -0.264584 v 0.26458 h 0.264584 z m 0,0.26458 v 0.26459 h 0.264583 v -0.26459 z m 0,0.26459 h -0.264584 v 0.26458 h 0.264584 z m 0,0.26458 v 0.26458 h 0.264583 V 160.475 Z m 0,0.26458 h -0.264584 v 0.26459 h 0.264584 z m 0,0.26459 v 0.26458 h 0.264583 v -0.26458 z m 0,0.26458 h -0.264584 v 0.26458 h 0.264584 z m 0,0.26458 v 0.26459 h 0.264583 v -0.26459 z m 0,0.26459 h -0.264584 v 0.26458 h 0.264584 z m 0,0.26458 v 0.26458 h 0.264583 v -0.26458 z m 0,0.26458 h -0.264584 v 0.26459 h 0.264584 z m 0,0.26459 v 0.26458 h 0.264583 v -0.26458 z m 0,0.26458 h -0.264584 v 0.26458 h 0.264584 z m 0,0.26458 v 0.26459 h 0.264583 v -0.26459 z m 0,0.26459 H 93.927086 V 163.65 h 0.264584 z m 0,0.26458 v 0.26458 h 0.264583 V 163.65 Z m 0,0.26458 h -0.264584 v 0.26459 h 0.264584 z m 0,0.26459 v 0.26458 h 0.264583 v -0.26458 z m 0,0.26458 h -0.264584 v 0.26458 h 0.264584 z m 0,0.26458 v 0.26459 h 0.264583 v -0.26459 z m 0,0.26459 h -0.264584 v 0.26458 h 0.264584 z m 0,0.26458 v 0.26458 h 0.264583 v -0.26458 z m 0,0.26458 h -0.264584 v 0.26459 h 0.264584 z m 0,0.26459 v 0.26458 h 0.264583 v -0.26458 z m 0,0.26458 h -0.264584 v 0.26458 h 0.264584 z m 0,0.26458 v 0.26459 h 0.264583 v -0.26459 z m 0,0.26459 h -0.264584 v 0.26458 h 0.264584 z m 0,0.26458 v 0.26458 h 0.264583 V 166.825 Z m 0,0.26458 h -0.264584 v 0.26459 h 0.264584 z m 0,0.26459 v 0.26458 h 0.264583 v -0.26458 z m 0,0.26458 h -0.264584 v 0.26458 h 0.264584 z m 0,0.26458 v 0.26459 h 0.264583 v -0.26459 z m 0,0.26459 h -0.264584 v 0.26458 h 0.264584 z m 0,0.26458 v 0.26458 h 0.264583 v -0.26458 z m -0.264584,0 h -0.264583 v 0.26458 h 0.264583 z m -0.264583,0 v -0.26458 H 93.39792 v 0.26458 z m -0.264583,0 h -0.264584 v 0.26458 h 0.264584 z m -0.264584,0 v -0.26458 h -0.264583 v 0.26458 z m -0.264583,0 H 92.60417 v 0.26458 h 0.264583 z m -0.264583,0 v -0.26458 h -0.264584 v 0.26458 z m -0.264584,0 h -0.264583 v 0.26458 h 0.264583 z m -0.264583,0 v -0.26458 H 91.81042 v 0.26458 z m -0.264583,0 h -0.264584 v 0.26458 h 0.264584 z m -0.264584,0 v -0.26458 h -0.264583 v 0.26458 z m -0.264583,0 H 91.01667 v 0.26458 h 0.264583 z m -0.264583,0 v -0.26458 h -0.264584 v 0.26458 z m -0.264584,0 h -0.264583 v 0.26458 h 0.264583 z m -0.264583,0 v -0.26458 H 90.22292 v 0.26458 z m -0.264583,0 h -0.264584 v 0.26458 h 0.264584 z m -0.264584,0 v -0.26458 h -0.264583 v 0.26458 z m -0.264583,0 H 89.42917 v 0.26458 h 0.264583 z m -0.264583,0 v -0.26458 h -0.264584 v 0.26458 z m -0.264584,0 h -0.264583 v 0.26458 h 0.264583 z m -0.264583,0 v -0.26458 H 88.63542 v 0.26458 z m -0.264583,0 h -0.264584 v 0.26458 h 0.264584 z m -0.264584,0 v -0.26458 h -0.264583 v 0.26458 z m -0.264583,0 H 87.84167 v 0.26458 h 0.264583 z m -0.264583,0 v -0.26458 h -0.264584 v 0.26458 z m -0.264584,0 h -0.264583 v 0.26458 h 0.264583 z m -0.264583,0 v -0.26458 H 87.04792 v 0.26458 z m -0.264583,0 h -0.264584 v 0.26458 h 0.264584 z m -0.264584,0 v -0.26458 h -0.264583 v 0.26458 z m -0.264583,0 H 86.25417 v 0.26458 h 0.264583 z m -0.264583,0 v -0.26458 h -0.264584 v 0.26458 z m -0.264584,0 h -0.264583 v 0.26458 h 0.264583 z m -0.264583,0 v -0.26458 H 85.46042 v 0.26458 z m -0.264583,0 h -0.264584 v 0.26458 h 0.264584 z m -0.264584,0 v -0.26458 h -0.264583 v 0.26458 z m -0.264583,0 H 84.66667 v 0.26458 h 0.264583 z m -0.264583,0 v -0.26458 h -0.264584 v 0.26458 z m -0.264584,0 h -0.264583 v 0.26458 h 0.264583 z m -0.264583,0 v -0.26458 H 83.87292 v 0.26458 z m -0.264583,0 h -0.264584 v 0.26458 h 0.264584 z m -0.264584,0 v -0.26458 h -0.264583 v 0.26458 z m 0,-0.26458 h 0.264584 v -0.26459 h -0.264584 z m 0,-0.26459 v -0.26458 h -0.264583 v 0.26458 z m 0,-0.26458 h 0.264584 v -0.26458 h -0.264584 z m 0,-0.26458 v -0.26459 h -0.264583 v 0.26459 z m 0,-0.26459 H 83.87292 V 166.825 h -0.264584 z m 0,-0.26458 v -0.26458 h -0.264583 v 0.26458 z m 0,-0.26458 h 0.264584 v -0.26459 h -0.264584 z m 0,-0.26459 v -0.26458 h -0.264583 v 0.26458 z m 0,-0.26458 h 0.264584 v -0.26458 h -0.264584 z m 0,-0.26458 v -0.26459 h -0.264583 v 0.26459 z m 0,-0.26459 h 0.264584 v -0.26458 h -0.264584 z m 0,-0.26458 v -0.26458 h -0.264583 v 0.26458 z m 0,-0.26458 h 0.264584 v -0.26459 h -0.264584 z m 0,-0.26459 v -0.26458 h -0.264583 v 0.26458 z m 0,-0.26458 h 0.264584 v -0.26458 h -0.264584 z m 0,-0.26458 v -0.26459 h -0.264583 v 0.26459 z m 0,-0.26459 H 83.87292 V 163.65 h -0.264584 z m 0,-0.26458 v -0.26458 H 83.343753 V 163.65 Z m 0,-0.26458 h 0.264584 v -0.26459 h -0.264584 z m 0,-0.26459 v -0.26458 h -0.264583 v 0.26458 z m 0,-0.26458 h 0.264584 v -0.26458 h -0.264584 z m 0,-0.26458 v -0.26459 h -0.264583 v 0.26459 z m 0,-0.26459 h 0.264584 v -0.26458 h -0.264584 z m 0,-0.26458 v -0.26458 h -0.264583 v 0.26458 z m 0,-0.26458 h 0.264584 v -0.26459 h -0.264584 z m 0,-0.26459 v -0.26458 h -0.264583 v 0.26458 z m 0,-0.26458 h 0.264584 v -0.26458 h -0.264584 z m 0,-0.26458 v -0.26459 h -0.264583 v 0.26459 z m 0,-0.26459 H 83.87292 V 160.475 h -0.264584 z m 0,-0.26458 v -0.26458 h -0.264583 v 0.26458 z m 0,-0.26458 h 0.264584 v -0.26459 h -0.264584 z m 0,-0.26459 v -0.26458 h -0.264583 v 0.26458 z m 0,-0.26458 h 0.264584 v -0.26458 h -0.264584 z m 0,-0.26458 v -0.26459 h -0.264583 v 0.26459 z m 0.264584,0.26458 v 0.26458 h 0.264583 v -0.26458 z m 0.264583,0 h 0.264583 v -0.26458 h -0.264583 z m 0.264583,0 v 0.26458 h 0.264584 v -0.26458 z m 0.264584,0 h 0.264583 v -0.26458 H 84.66667 Z m 0.264583,0 v 0.26458 h 0.264583 v -0.26458 z m 0.264583,0 h 0.264584 v -0.26458 h -0.264584 z m 0.264584,0 v 0.26458 h 0.264583 v -0.26458 z m 0.264583,0 h 0.264583 v -0.26458 h -0.264583 z m 0.264583,0 v 0.26458 h 0.264584 v -0.26458 z m 0.264584,0 h 0.264583 v -0.26458 H 86.25417 Z m 0.264583,0 v 0.26458 h 0.264583 v -0.26458 z m 0.264583,0 h 0.264584 v -0.26458 h -0.264584 z m 0.264584,0 v 0.26458 h 0.264583 v -0.26458 z m 0.264583,0 h 0.264583 v -0.26458 h -0.264583 z m 0.264583,0 v 0.26458 h 0.264584 v -0.26458 z m 0.264584,0 h 0.264583 v -0.26458 H 87.84167 Z m 0.264583,0 v 0.26458 h 0.264583 v -0.26458 z m 0.264583,0 h 0.264584 v -0.26458 h -0.264584 z m 0.264584,0 v 0.26458 h 0.264583 v -0.26458 z m 0.264583,0 h 0.264583 v -0.26458 h -0.264583 z m 0.264583,0 v 0.26458 h 0.264584 v -0.26458 z m 0.264584,0 h 0.264583 v -0.26458 H 89.42917 Z m 0.264583,0 v 0.26458 h 0.264583 v -0.26458 z m 0.264583,0 h 0.264584 v -0.26458 h -0.264584 z m 0.264584,0 v 0.26458 h 0.264583 v -0.26458 z m 0.264583,0 h 0.264583 v -0.26458 h -0.264583 z m 0.264583,0 v 0.26458 h 0.264584 v -0.26458 z m 0.264584,0 h 0.264583 v -0.26458 H 91.01667 Z m 0.264583,0 v 0.26458 h 0.264583 v -0.26458 z m 0.264583,0 h 0.264584 v -0.26458 h -0.264584 z m 0.264584,0 v 0.26458 h 0.264583 v -0.26458 z m 0.264583,0 h 0.264583 v -0.26458 h -0.264583 z m 0.264583,0 v 0.26458 h 0.264584 v -0.26458 z m 0.264584,0 h 0.264583 v -0.26458 H 92.60417 Z m 0.264583,0 v 0.26458 h 0.264583 v -0.26458 z m 0.264583,0 h 0.264584 v -0.26458 h -0.264584 z m 0.264584,0 v 0.26458 h 0.264583 v -0.26458 z m 0.264583,0 h 0.264583 v -0.26458 h -0.264583 z m 0,0.26458 v 0.26459 h 0.264583 v -0.26459 z m 0,0.26459 H 93.39792 v 0.26458 h 0.264583 z m 0,0.26458 v 0.26458 h 0.264583 V 160.475 Z m 0,0.26458 H 93.39792 v 0.26459 h 0.264583 z m 0,0.26459 v 0.26458 h 0.264583 v -0.26458 z m 0,0.26458 H 93.39792 v 0.26458 h 0.264583 z m 0,0.26458 v 0.26459 h 0.264583 v -0.26459 z m 0,0.26459 H 93.39792 v 0.26458 h 0.264583 z m 0,0.26458 v 0.26458 h 0.264583 v -0.26458 z m 0,0.26458 H 93.39792 v 0.26459 h 0.264583 z m 0,0.26459 v 0.26458 h 0.264583 v -0.26458 z m 0,0.26458 H 93.39792 v 0.26458 h 0.264583 z m 0,0.26458 v 0.26459 h 0.264583 v -0.26459 z m 0,0.26459 H 93.39792 V 163.65 h 0.264583 z m 0,0.26458 v 0.26458 h 0.264583 V 163.65 Z m 0,0.26458 H 93.39792 v 0.26459 h 0.264583 z m 0,0.26459 v 0.26458 h 0.264583 v -0.26458 z m 0,0.26458 H 93.39792 v 0.26458 h 0.264583 z m 0,0.26458 v 0.26459 h 0.264583 v -0.26459 z m 0,0.26459 H 93.39792 v 0.26458 h 0.264583 z m 0,0.26458 v 0.26458 h 0.264583 v -0.26458 z m 0,0.26458 H 93.39792 v 0.26459 h 0.264583 z m 0,0.26459 v 0.26458 h 0.264583 v -0.26458 z m 0,0.26458 H 93.39792 v 0.26458 h 0.264583 z m 0,0.26458 v 0.26459 h 0.264583 v -0.26459 z m 0,0.26459 H 93.39792 v 0.26458 h 0.264583 z m 0,0.26458 v 0.26458 h 0.264583 V 166.825 Z m 0,0.26458 H 93.39792 v 0.26459 h 0.264583 z m 0,0.26459 v 0.26458 h 0.264583 v -0.26458 z m 0,0.26458 H 93.39792 v 0.26458 h 0.264583 z m 0,0.26458 v 0.26459 h 0.264583 v -0.26459 z m -0.264583,0 h -0.264584 v 0.26459 h 0.264584 z m -0.264584,0 v -0.26458 h -0.264583 v 0.26458 z m -0.264583,0 H 92.60417 v 0.26459 h 0.264583 z m -0.264583,0 v -0.26458 h -0.264584 v 0.26458 z m -0.264584,0 h -0.264583 v 0.26459 h 0.264583 z m -0.264583,0 v -0.26458 H 91.81042 v 0.26458 z m -0.264583,0 h -0.264584 v 0.26459 h 0.264584 z m -0.264584,0 v -0.26458 h -0.264583 v 0.26458 z m -0.264583,0 H 91.01667 v 0.26459 h 0.264583 z m -0.264583,0 v -0.26458 h -0.264584 v 0.26458 z m -0.264584,0 h -0.264583 v 0.26459 h 0.264583 z m -0.264583,0 v -0.26458 H 90.22292 v 0.26458 z m -0.264583,0 h -0.264584 v 0.26459 h 0.264584 z m -0.264584,0 v -0.26458 h -0.264583 v 0.26458 z m -0.264583,0 H 89.42917 v 0.26459 h 0.264583 z m -0.264583,0 v -0.26458 h -0.264584 v 0.26458 z m -0.264584,0 h -0.264583 v 0.26459 h 0.264583 z m -0.264583,0 v -0.26458 H 88.63542 v 0.26458 z m -0.264583,0 h -0.264584 v 0.26459 h 0.264584 z m -0.264584,0 v -0.26458 h -0.264583 v 0.26458 z m -0.264583,0 H 87.84167 v 0.26459 h 0.264583 z m -0.264583,0 v -0.26458 h -0.264584 v 0.26458 z m -0.264584,0 h -0.264583 v 0.26459 h 0.264583 z m -0.264583,0 v -0.26458 H 87.04792 v 0.26458 z m -0.264583,0 h -0.264584 v 0.26459 h 0.264584 z m -0.264584,0 v -0.26458 h -0.264583 v 0.26458 z m -0.264583,0 H 86.25417 v 0.26459 h 0.264583 z m -0.264583,0 v -0.26458 h -0.264584 v 0.26458 z m -0.264584,0 h -0.264583 v 0.26459 h 0.264583 z m -0.264583,0 v -0.26458 H 85.46042 v 0.26458 z m -0.264583,0 h -0.264584 v 0.26459 h 0.264584 z m -0.264584,0 v -0.26458 h -0.264583 v 0.26458 z m -0.264583,0 H 84.66667 v 0.26459 h 0.264583 z m -0.264583,0 v -0.26458 h -0.264584 v 0.26458 z m -0.264584,0 h -0.264583 v 0.26459 h 0.264583 z m -0.264583,0 v -0.26458 H 83.87292 v 0.26458 z m 0,-0.26458 h 0.264583 v -0.26458 h -0.264583 z m 0,-0.26458 v -0.26459 H 83.87292 v 0.26459 z m 0,-0.26459 h 0.264583 V 166.825 h -0.264583 z m 0,-0.26458 v -0.26458 H 83.87292 v 0.26458 z m 0,-0.26458 h 0.264583 v -0.26459 h -0.264583 z m 0,-0.26459 v -0.26458 H 83.87292 v 0.26458 z m 0,-0.26458 h 0.264583 v -0.26458 h -0.264583 z m 0,-0.26458 v -0.26459 H 83.87292 v 0.26459 z m 0,-0.26459 h 0.264583 v -0.26458 h -0.264583 z m 0,-0.26458 v -0.26458 H 83.87292 v 0.26458 z m 0,-0.26458 h 0.264583 v -0.26459 h -0.264583 z m 0,-0.26459 v -0.26458 H 83.87292 v 0.26458 z m 0,-0.26458 h 0.264583 v -0.26458 h -0.264583 z m 0,-0.26458 v -0.26459 H 83.87292 v 0.26459 z m 0,-0.26459 h 0.264583 V 163.65 h -0.264583 z m 0,-0.26458 v -0.26458 H 83.87292 V 163.65 Z m 0,-0.26458 h 0.264583 v -0.26459 h -0.264583 z m 0,-0.26459 v -0.26458 H 83.87292 v 0.26458 z m 0,-0.26458 h 0.264583 v -0.26458 h -0.264583 z m 0,-0.26458 v -0.26459 H 83.87292 v 0.26459 z m 0,-0.26459 h 0.264583 v -0.26458 h -0.264583 z m 0,-0.26458 v -0.26458 H 83.87292 v 0.26458 z m 0,-0.26458 h 0.264583 v -0.26459 h -0.264583 z m 0,-0.26459 v -0.26458 H 83.87292 v 0.26458 z m 0,-0.26458 h 0.264583 v -0.26458 h -0.264583 z m 0,-0.26458 v -0.26459 H 83.87292 v 0.26459 z m 0,-0.26459 h 0.264583 V 160.475 h -0.264583 z m 0,-0.26458 v -0.26458 H 83.87292 v 0.26458 z m 0,-0.26458 h 0.264583 v -0.26459 h -0.264583 z m 0.264583,0 v 0.26458 h 0.264584 v -0.26458 z m 0.264584,0 h 0.264583 v -0.26459 H 84.66667 Z m 0.264583,0 v 0.26458 h 0.264583 v -0.26458 z m 0.264583,0 h 0.264584 v -0.26459 h -0.264584 z m 0.264584,0 v 0.26458 h 0.264583 v -0.26458 z m 0.264583,0 h 0.264583 v -0.26459 h -0.264583 z m 0.264583,0 v 0.26458 h 0.264584 v -0.26458 z m 0.264584,0 h 0.264583 v -0.26459 H 86.25417 Z m 0.264583,0 v 0.26458 h 0.264583 v -0.26458 z m 0.264583,0 h 0.264584 v -0.26459 h -0.264584 z m 0.264584,0 v 0.26458 h 0.264583 v -0.26458 z m 0.264583,0 h 0.264583 v -0.26459 h -0.264583 z m 0.264583,0 v 0.26458 h 0.264584 v -0.26458 z m 0.264584,0 h 0.264583 v -0.26459 H 87.84167 Z m 0.264583,0 v 0.26458 h 0.264583 v -0.26458 z m 0.264583,0 h 0.264584 v -0.26459 h -0.264584 z m 0.264584,0 v 0.26458 h 0.264583 v -0.26458 z m 0.264583,0 h 0.264583 v -0.26459 h -0.264583 z m 0.264583,0 v 0.26458 h 0.264584 v -0.26458 z m 0.264584,0 h 0.264583 v -0.26459 H 89.42917 Z m 0.264583,0 v 0.26458 h 0.264583 v -0.26458 z m 0.264583,0 h 0.264584 v -0.26459 h -0.264584 z m 0.264584,0 v 0.26458 h 0.264583 v -0.26458 z m 0.264583,0 h 0.264583 v -0.26459 h -0.264583 z m 0.264583,0 v 0.26458 h 0.264584 v -0.26458 z m 0.264584,0 h 0.264583 v -0.26459 H 91.01667 Z m 0.264583,0 v 0.26458 h 0.264583 v -0.26458 z m 0.264583,0 h 0.264584 v -0.26459 h -0.264584 z m 0.264584,0 v 0.26458 h 0.264583 v -0.26458 z m 0.264583,0 h 0.264583 v -0.26459 h -0.264583 z m 0.264583,0 v 0.26458 h 0.264584 v -0.26458 z m 0.264584,0 h 0.264583 v -0.26459 H 92.60417 Z m 0.264583,0 v 0.26458 h 0.264583 v -0.26458 z m 0.264583,0 h 0.264584 v -0.26459 h -0.264584 z m 0,0.26458 v 0.26458 H 93.39792 V 160.475 Z m 0,0.26458 h -0.264583 v 0.26459 h 0.264583 z m 0,0.26459 v 0.26458 h 0.264584 v -0.26458 z m 0,0.26458 h -0.264583 v 0.26458 h 0.264583 z m 0,0.26458 v 0.26459 h 0.264584 v -0.26459 z m 0,0.26459 h -0.264583 v 0.26458 h 0.264583 z m 0,0.26458 v 0.26458 h 0.264584 v -0.26458 z m 0,0.26458 h -0.264583 v 0.26459 h 0.264583 z m 0,0.26459 v 0.26458 h 0.264584 v -0.26458 z m 0,0.26458 h -0.264583 v 0.26458 h 0.264583 z m 0,0.26458 v 0.26459 h 0.264584 v -0.26459 z m 0,0.26459 H 92.868753 V 163.65 h 0.264583 z m 0,0.26458 v 0.26458 H 93.39792 V 163.65 Z m 0,0.26458 h -0.264583 v 0.26459 h 0.264583 z m 0,0.26459 v 0.26458 h 0.264584 v -0.26458 z m 0,0.26458 h -0.264583 v 0.26458 h 0.264583 z m 0,0.26458 v 0.26459 h 0.264584 v -0.26459 z m 0,0.26459 h -0.264583 v 0.26458 h 0.264583 z m 0,0.26458 v 0.26458 h 0.264584 v -0.26458 z m 0,0.26458 h -0.264583 v 0.26459 h 0.264583 z m 0,0.26459 v 0.26458 h 0.264584 v -0.26458 z m 0,0.26458 h -0.264583 v 0.26458 h 0.264583 z m 0,0.26458 v 0.26459 h 0.264584 v -0.26459 z m 0,0.26459 h -0.264583 v 0.26458 h 0.264583 z m 0,0.26458 v 0.26458 H 93.39792 V 166.825 Z m 0,0.26458 h -0.264583 v 0.26459 h 0.264583 z m 0,0.26459 v 0.26458 h 0.264584 v -0.26458 z m -0.264583,0 H 92.60417 v 0.26458 h 0.264583 z m -0.264583,0 v -0.26459 h -0.264584 v 0.26459 z m -0.264584,0 h -0.264583 v 0.26458 h 0.264583 z m -0.264583,0 v -0.26459 H 91.81042 v 0.26459 z m -0.264583,0 h -0.264584 v 0.26458 h 0.264584 z m -0.264584,0 v -0.26459 h -0.264583 v 0.26459 z m -0.264583,0 H 91.01667 v 0.26458 h 0.264583 z m -0.264583,0 v -0.26459 h -0.264584 v 0.26459 z m -0.264584,0 h -0.264583 v 0.26458 h 0.264583 z m -0.264583,0 v -0.26459 H 90.22292 v 0.26459 z m -0.264583,0 h -0.264584 v 0.26458 h 0.264584 z m -0.264584,0 v -0.26459 h -0.264583 v 0.26459 z m -0.264583,0 H 89.42917 v 0.26458 h 0.264583 z m -0.264583,0 v -0.26459 h -0.264584 v 0.26459 z m -0.264584,0 h -0.264583 v 0.26458 h 0.264583 z m -0.264583,0 v -0.26459 H 88.63542 v 0.26459 z m -0.264583,0 h -0.264584 v 0.26458 h 0.264584 z m -0.264584,0 v -0.26459 h -0.264583 v 0.26459 z m -0.264583,0 H 87.84167 v 0.26458 h 0.264583 z m -0.264583,0 v -0.26459 h -0.264584 v 0.26459 z m -0.264584,0 h -0.264583 v 0.26458 h 0.264583 z m -0.264583,0 v -0.26459 H 87.04792 v 0.26459 z m -0.264583,0 h -0.264584 v 0.26458 h 0.264584 z m -0.264584,0 v -0.26459 h -0.264583 v 0.26459 z m -0.264583,0 H 86.25417 v 0.26458 h 0.264583 z m -0.264583,0 v -0.26459 h -0.264584 v 0.26459 z m -0.264584,0 h -0.264583 v 0.26458 h 0.264583 z m -0.264583,0 v -0.26459 H 85.46042 v 0.26459 z m -0.264583,0 h -0.264584 v 0.26458 h 0.264584 z m -0.264584,0 v -0.26459 h -0.264583 v 0.26459 z m -0.264583,0 H 84.66667 v 0.26458 h 0.264583 z m -0.264583,0 v -0.26459 h -0.264584 v 0.26459 z m 0,-0.26459 h 0.264583 V 166.825 H 84.66667 Z m 0,-0.26458 v -0.26458 h -0.264584 v 0.26458 z m 0,-0.26458 h 0.264583 v -0.26459 H 84.66667 Z m 0,-0.26459 v -0.26458 h -0.264584 v 0.26458 z m 0,-0.26458 h 0.264583 v -0.26458 H 84.66667 Z m 0,-0.26458 v -0.26459 h -0.264584 v 0.26459 z m 0.264583,0.26458 v 0.26458 h 0.264583 v -0.26458 z m 0.264583,0 h 0.264584 v -0.26458 h -0.264584 z m 0.264584,0 v 0.26458 h 0.264583 v -0.26458 z m 0.264583,0 h 0.264583 v -0.26458 h -0.264583 z m 0.264583,0 v 0.26458 h 0.264584 v -0.26458 z m 0.264584,0 h 0.264583 v -0.26458 H 86.25417 Z m 0.264583,0 v 0.26458 h 0.264583 v -0.26458 z m 0.264583,0 h 0.264584 v -0.26458 h -0.264584 z m 0.264584,0 v 0.26458 h 0.264583 v -0.26458 z m 0.264583,0 h 0.264583 v -0.26458 h -0.264583 z m 0.264583,0 v 0.26458 h 0.264584 v -0.26458 z m 0.264584,0 h 0.264583 v -0.26458 H 87.84167 Z m 0.264583,0 v 0.26458 h 0.264583 v -0.26458 z m 0.264583,0 h 0.264584 v -0.26458 h -0.264584 z m 0.264584,0 v 0.26458 h 0.264583 v -0.26458 z m 0.264583,0 h 0.264583 v -0.26458 h -0.264583 z m 0.264583,0 v 0.26458 h 0.264584 v -0.26458 z m 0.264584,0 h 0.264583 v -0.26458 H 89.42917 Z m 0.264583,0 v 0.26458 h 0.264583 v -0.26458 z m 0.264583,0 h 0.264584 v -0.26458 h -0.264584 z m 0.264584,0 v 0.26458 h 0.264583 v -0.26458 z m 0.264583,0 h 0.264583 v -0.26458 h -0.264583 z m 0.264583,-0.26458 h 0.264584 v -0.26459 h -0.264584 z m 0.264584,-0.26459 h 0.264583 V 165.2375 H 91.01667 Z m 0,-0.26458 v -0.26458 h -0.264584 v 0.26458 z m 0,-0.26458 h 0.264583 v -0.26459 H 91.01667 Z m 0,-0.26459 v -0.26458 h -0.264584 v 0.26458 z m 0,-0.26458 h 0.264583 v -0.26458 H 91.01667 Z m 0,-0.26458 v -0.26459 h -0.264584 v 0.26459 z m 0,-0.26459 h 0.264583 V 163.65 H 91.01667 Z m 0,-0.26458 v -0.26458 H 90.752086 V 163.65 Z m 0,-0.26458 h 0.264583 v -0.26459 H 91.01667 Z m 0,-0.26459 v -0.26458 h -0.264584 v 0.26458 z m -0.264584,-0.26458 v -0.26458 h -0.264583 v 0.26458 z m 0,-0.26458 h 0.264584 v -0.26459 h -0.264584 z m 0,-0.26459 v -0.26458 h -0.264583 v 0.26458 z m 0,-0.26458 h 0.264584 v -0.26458 h -0.264584 z m 0,-0.26458 v -0.26459 h -0.264583 v 0.26459 z m -0.264583,-0.26459 v -0.26458 H 90.22292 v 0.26458 z m -0.264583,-0.26458 v -0.26458 h -0.264584 v 0.26458 z m -0.264584,0 h -0.264583 v 0.26458 h 0.264583 z m -0.264583,0.26458 H 89.42917 v 0.26459 h 0.264583 z m 0,0.26459 v 0.26458 h 0.264583 v -0.26458 z m 0,0.26458 H 89.42917 v 0.26458 h 0.264583 z m 0,0.26458 v 0.26459 h 0.264583 v -0.26459 z m 0,0.26459 H 89.42917 v 0.26458 h 0.264583 z m 0,0.26458 v 0.26458 h 0.264583 v -0.26458 z m 0,0.26458 H 89.42917 v 0.26459 h 0.264583 z m 0,0.26459 V 163.65 h 0.264583 v -0.26458 z m 0,0.26458 H 89.42917 v 0.26458 h 0.264583 z m 0,0.26458 v 0.26459 h 0.264583 v -0.26459 z m 0,0.26459 H 89.42917 v 0.26458 h 0.264583 z m 0,0.26458 v 0.26458 h 0.264583 v -0.26458 z m 0,0.26458 H 89.42917 v 0.26459 h 0.264583 z m -0.264583,0 v -0.26458 h -0.264584 v 0.26458 z m -0.264584,0 h -0.264583 v 0.26459 h 0.264583 z m -0.264583,0 v -0.26458 H 88.63542 v 0.26458 z m -0.264583,0 h -0.264584 v 0.26459 h 0.264584 z m -0.264584,0 v -0.26458 h -0.264583 v 0.26458 z m -0.264583,0 H 87.84167 v 0.26459 h 0.264583 z m -0.264583,0 v -0.26458 h -0.264584 v 0.26458 z m -0.264584,0 h -0.264583 v 0.26459 h 0.264583 z m -0.264583,0 v -0.26458 H 87.04792 v 0.26458 z m -0.264583,0 h -0.264584 v 0.26459 h 0.264584 z m -0.264584,0 v -0.26458 h -0.264583 v 0.26458 z m -0.264583,0 H 86.25417 v 0.26459 h 0.264583 z m -0.264583,0 v -0.26458 h -0.264584 v 0.26458 z m -0.264584,0 h -0.264583 v 0.26459 h 0.264583 z m -0.264583,0 v -0.26458 H 85.46042 v 0.26458 z m -0.264583,0 h -0.264584 v 0.26459 h 0.264584 z m -0.264584,0 v -0.26458 h -0.264583 v 0.26458 z m -0.264583,0 H 84.66667 v 0.26459 h 0.264583 z m -0.264583,0.26459 h -0.264584 v 0.26458 h 0.264584 z m 0,-0.26459 v -0.26458 h -0.264584 v 0.26458 z m 0,-0.26458 h 0.264583 v -0.26458 H 84.66667 Z m 0,-0.26458 v -0.26459 h -0.264584 v 0.26459 z m 0,-0.26459 h 0.264583 V 163.65 H 84.66667 Z m 0,-0.26458 v -0.26458 H 84.402086 V 163.65 Z m 0,-0.26458 h 0.264583 v -0.26459 H 84.66667 Z m 0,-0.26459 v -0.26458 h -0.264584 v 0.26458 z m 0,-0.26458 h 0.264583 v -0.26458 H 84.66667 Z m 0,-0.26458 v -0.26459 h -0.264584 v 0.26459 z m 0,-0.26459 h 0.264583 V 162.0625 H 84.66667 Z m 0,-0.26458 v -0.26458 h -0.264584 v 0.26458 z m 0,-0.26458 h 0.264583 v -0.26459 H 84.66667 Z m 0,-0.26459 v -0.26458 h -0.264584 v 0.26458 z m 0,-0.26458 h 0.264583 v -0.26458 H 84.66667 Z m 0,-0.26458 v -0.26459 h -0.264584 v 0.26459 z m 0,-0.26459 h 0.264583 V 160.475 H 84.66667 Z m 0.264583,0 v 0.26459 h 0.264583 v -0.26459 z m 0.264583,0 H 85.46042 V 160.475 h -0.264584 z m 0.264584,0 v 0.26459 h 0.264583 v -0.26459 z m 0.264583,0 h 0.264583 V 160.475 h -0.264583 z m 0.264583,0 v 0.26459 h 0.264584 v -0.26459 z m 0.264584,0 h 0.264583 V 160.475 H 86.25417 Z m 0.264583,0 v 0.26459 h 0.264583 v -0.26459 z m 0.264583,0 H 87.04792 V 160.475 h -0.264584 z m 0.264584,0 v 0.26459 h 0.264583 v -0.26459 z m 0.264583,0 h 0.264583 V 160.475 h -0.264583 z m 0.264583,0 v 0.26459 h 0.264584 v -0.26459 z m 0.264584,0 h 0.264583 V 160.475 H 87.84167 Z m 0.264583,0 v 0.26459 h 0.264583 v -0.26459 z m 0.264583,0 H 88.63542 V 160.475 h -0.264584 z m 0.264584,0 v 0.26459 h 0.264583 v -0.26459 z m 0.264583,0 h 0.264583 V 160.475 h -0.264583 z m 0.264583,0 v 0.26459 h 0.264584 v -0.26459 z m 0.264584,0 h 0.264583 V 160.475 H 89.42917 Z m 0.264583,0 v 0.26459 h 0.264583 v -0.26459 z m 0.264583,0 H 90.22292 V 160.475 h -0.264584 z m 0.264584,0 v 0.26459 h 0.264583 v -0.26459 z m 0.264583,0 h 0.264583 V 160.475 h -0.264583 z m 0.264583,0 v 0.26459 h 0.264584 v -0.26459 z m 0.264584,0 h 0.264583 V 160.475 H 91.01667 Z m 0.264583,0 v 0.26459 h 0.264583 v -0.26459 z m 0.264583,0 H 91.81042 V 160.475 h -0.264584 z m 0.264584,0 v 0.26459 h 0.264583 v -0.26459 z m 0.264583,0 h 0.264583 V 160.475 h -0.264583 z m 0.264583,0 v 0.26459 h 0.264584 v -0.26459 z m 0.264584,0 h 0.264583 V 160.475 H 92.60417 Z m 0,0.26459 v 0.26458 h 0.264583 v -0.26458 z m 0,0.26458 h -0.264584 v 0.26458 h 0.264584 z m 0,0.26458 v 0.26459 h 0.264583 v -0.26459 z m 0,0.26459 h -0.264584 v 0.26458 h 0.264584 z m 0,0.26458 v 0.26458 h 0.264583 v -0.26458 z m 0,0.26458 h -0.264584 v 0.26459 h 0.264584 z m 0,0.26459 v 0.26458 h 0.264583 v -0.26458 z m 0,0.26458 h -0.264584 v 0.26458 h 0.264584 z m 0,0.26458 v 0.26459 h 0.264583 v -0.26459 z m 0,0.26459 H 92.339586 V 163.65 h 0.264584 z m 0,0.26458 v 0.26458 h 0.264583 V 163.65 Z m 0,0.26458 h -0.264584 v 0.26459 h 0.264584 z m 0,0.26459 v 0.26458 h 0.264583 v -0.26458 z m 0,0.26458 h -0.264584 v 0.26458 h 0.264584 z m 0,0.26458 v 0.26459 h 0.264583 v -0.26459 z m 0,0.26459 h -0.264584 v 0.26458 h 0.264584 z m 0,0.26458 v 0.26458 h 0.264583 v -0.26458 z m 0,0.26458 h -0.264584 v 0.26459 h 0.264584 z m 0,0.26459 v 0.26458 h 0.264583 v -0.26458 z m 0,0.26458 h -0.264584 v 0.26458 h 0.264584 z m 0,0.26458 v 0.26459 h 0.264583 v -0.26459 z m 0,0.26459 h -0.264584 v 0.26458 h 0.264584 z m 0,0.26458 v 0.26458 h 0.264583 V 166.825 Z m -0.264584,0 h -0.264583 v 0.26458 h 0.264583 z m -0.264583,0 v -0.26458 H 91.81042 v 0.26458 z m -0.264583,0 h -0.264584 v 0.26458 h 0.264584 z m -0.264584,0 v -0.26458 h -0.264583 v 0.26458 z m -0.264583,0 H 91.01667 v 0.26458 h 0.264583 z m -0.264583,0 v -0.26458 h -0.264584 v 0.26458 z m -0.264584,0 h -0.264583 v 0.26458 h 0.264583 z m -0.264583,0 v -0.26458 H 90.22292 v 0.26458 z m -0.264583,0 h -0.264584 v 0.26458 h 0.264584 z m -0.264584,0 v -0.26458 h -0.264583 v 0.26458 z m -0.264583,0 H 89.42917 v 0.26458 h 0.264583 z m -0.264583,0 v -0.26458 h -0.264584 v 0.26458 z m -0.264584,0 h -0.264583 v 0.26458 h 0.264583 z m -0.264583,0 v -0.26458 H 88.63542 v 0.26458 z m -0.264583,0 h -0.264584 v 0.26458 h 0.264584 z m -0.264584,0 v -0.26458 h -0.264583 v 0.26458 z m -0.264583,0 H 87.84167 v 0.26458 h 0.264583 z m -0.264583,0 v -0.26458 h -0.264584 v 0.26458 z m -0.264584,0 h -0.264583 v 0.26458 h 0.264583 z m -0.264583,0 v -0.26458 H 87.04792 v 0.26458 z m -0.264583,0 h -0.264584 v 0.26458 h 0.264584 z m -0.264584,0 v -0.26458 h -0.264583 v 0.26458 z m -0.264583,0 H 86.25417 v 0.26458 h 0.264583 z m -0.264583,0 v -0.26458 h -0.264584 v 0.26458 z m -0.264584,0 h -0.264583 v 0.26458 h 0.264583 z m -0.264583,0 v -0.26458 H 85.46042 v 0.26458 z m -0.264583,0 h -0.264584 v 0.26458 h 0.264584 z m -0.264584,0 v -0.26458 h -0.264583 v 0.26458 z m 0,-0.26458 h 0.264584 v -0.26459 h -0.264584 z m 0.529167,0 h 0.264583 v -0.26459 h -0.264583 z m 0.529167,0 h 0.264583 v -0.26459 H 86.25417 Z m 0.529166,0 h 0.264584 v -0.26459 h -0.264584 z m 0.529167,0 h 0.264583 v -0.26459 h -0.264583 z m 0.529167,0 h 0.264583 v -0.26459 H 87.84167 Z m 0.529166,0 h 0.264584 v -0.26459 h -0.264584 z m 0.529167,0 h 0.264583 v -0.26459 h -0.264583 z m 0.529167,0 h 0.264583 v -0.26459 H 89.42917 Z m 0.529166,0 h 0.264584 v -0.26459 h -0.264584 z m 0.529167,0 h 0.264583 v -0.26459 h -0.264583 z m 0.264583,-0.26459 h 0.264584 v -0.26458 h -0.264584 z m 0.264584,-0.26458 h 0.264583 v -0.26458 H 91.01667 Z m 0.264583,-0.26458 h 0.264583 v -0.26459 h -0.264583 z m 0.264583,-0.26459 h 0.264584 v -0.26458 h -0.264584 z m 0,-0.26458 v -0.26458 h -0.264583 v 0.26458 z m 0,-0.26458 h 0.264584 v -0.26459 h -0.264584 z m 0,-0.26459 v -0.26458 h -0.264583 v 0.26458 z m 0,-0.26458 h 0.264584 v -0.26458 h -0.264584 z m 0,-0.26458 v -0.26459 h -0.264583 v 0.26459 z m 0,-0.26459 H 91.81042 V 163.65 h -0.264584 z m 0,-0.26458 v -0.26458 H 91.281253 V 163.65 Z m 0,-0.26458 h 0.264584 v -0.26459 h -0.264584 z m 0,-0.26459 v -0.26458 h -0.264583 v 0.26458 z m -0.264583,-0.26458 v -0.26458 H 91.01667 v 0.26458 z m 0,-0.26458 h 0.264583 v -0.26459 h -0.264583 z m 0,-0.26459 V 162.0625 H 91.01667 v 0.26458 z m 0,-0.26458 h 0.264583 v -0.26458 h -0.264583 z m 0,-0.26458 v -0.26459 H 91.01667 v 0.26459 z m -0.264583,-0.26459 v -0.26458 h -0.264584 v 0.26458 z m -0.264584,-0.26458 v -0.26458 h -0.264583 v 0.26458 z m 0.264584,0 h 0.264583 v -0.26458 H 91.01667 Z m 0.264583,0 v 0.26458 h 0.264583 v -0.26458 z m 0.264583,0 h 0.264584 v -0.26458 h -0.264584 z m 0.264584,0 v 0.26458 h 0.264583 v -0.26458 z m 0.264583,0 h 0.264583 v -0.26458 h -0.264583 z m 0,0.26458 v 0.26459 h 0.264583 v -0.26459 z m 0,0.26459 H 91.81042 v 0.26458 h 0.264583 z m 0,0.26458 v 0.26458 h 0.264583 v -0.26458 z m 0,0.26458 H 91.81042 v 0.26459 h 0.264583 z m 0,0.26459 v 0.26458 h 0.264583 v -0.26458 z m 0,0.26458 H 91.81042 v 0.26458 h 0.264583 z m 0,0.26458 v 0.26459 h 0.264583 v -0.26459 z m 0,0.26459 H 91.81042 V 163.65 h 0.264583 z m 0,0.26458 v 0.26458 h 0.264583 V 163.65 Z m 0,0.26458 H 91.81042 v 0.26459 h 0.264583 z m 0,0.26459 v 0.26458 h 0.264583 v -0.26458 z m 0,0.26458 H 91.81042 v 0.26458 h 0.264583 z m 0,0.26458 v 0.26459 h 0.264583 v -0.26459 z m 0,0.26459 H 91.81042 v 0.26458 h 0.264583 z m 0,0.26458 v 0.26458 h 0.264583 v -0.26458 z m 0,0.26458 H 91.81042 v 0.26459 h 0.264583 z m 0,0.26459 v 0.26458 h 0.264583 v -0.26458 z m 0,0.26458 H 91.81042 v 0.26458 h 0.264583 z m 0,0.26458 v 0.26459 h 0.264583 v -0.26459 z m -0.264583,0 h -0.264584 v 0.26459 h 0.264584 z m -0.264584,0 v -0.26458 h -0.264583 v 0.26458 z m -0.264583,0 H 91.01667 v 0.26459 h 0.264583 z m 0.264583,-0.26458 h 0.264584 v -0.26458 h -0.264584 z m 0.264584,-3.175 v -0.26458 h -0.264584 v 0.26458 z m 0,-0.52917 v -0.26458 h -0.264584 v 0.26458 z m 0,-0.52916 v -0.26459 h -0.264584 v 0.26459 z m -2.116667,-0.79375 H 89.42917 v 0.26458 h 0.264583 z m -0.264583,0.26458 h -0.264584 v 0.26458 h 0.264584 z m -0.264584,0.26458 h -0.264583 v 0.26459 h 0.264583 z m 0,0.26459 v 0.26458 h 0.264584 v -0.26458 z m 0,0.26458 h -0.264583 v 0.26458 h 0.264583 z m 0,0.26458 v 0.26459 h 0.264584 v -0.26459 z m 0,0.26459 h -0.264583 v 0.26458 h 0.264583 z m 0,0.26458 v 0.26458 h 0.264584 v -0.26458 z m 0,0.26458 h -0.264583 v 0.26459 h 0.264583 z m 0,0.26459 V 163.65 h 0.264584 v -0.26458 z m 0,0.26458 h -0.264583 v 0.26458 h 0.264583 z m 0,0.26458 v 0.26459 h 0.264584 v -0.26459 z m 0,0.26459 h -0.264583 v 0.26458 h 0.264583 z m -0.264583,0 v -0.26459 H 88.63542 v 0.26459 z m -0.264583,0 h -0.264584 v 0.26458 h 0.264584 z m -0.264584,0 v -0.26459 h -0.264583 v 0.26459 z m -0.264583,0 H 87.84167 v 0.26458 h 0.264583 z m -0.264583,0 v -0.26459 h -0.264584 v 0.26459 z m -0.264584,0 h -0.264583 v 0.26458 h 0.264583 z m -0.264583,0 v -0.26459 H 87.04792 v 0.26459 z m -0.264583,0 h -0.264584 v 0.26458 h 0.264584 z m -0.264584,0 v -0.26459 h -0.264583 v 0.26459 z m -0.264583,0 H 86.25417 v 0.26458 h 0.264583 z m -0.264583,0 v -0.26459 h -0.264584 v 0.26459 z m -0.264584,0 h -0.264583 v 0.26458 h 0.264583 z m -0.264583,0 v -0.26459 H 85.46042 v 0.26459 z m -0.264583,0 h -0.264584 v 0.26458 h 0.264584 z m -0.264584,0 v -0.26459 h -0.264583 v 0.26459 z m 0,-0.26459 H 85.46042 V 163.65 h -0.264584 z m 0,-0.26458 v -0.26458 H 84.931253 V 163.65 Z m 0,-0.26458 h 0.264584 v -0.26459 h -0.264584 z m 0,-0.26459 v -0.26458 h -0.264583 v 0.26458 z m 0,-0.26458 h 0.264584 v -0.26458 h -0.264584 z m 0,-0.26458 v -0.26459 h -0.264583 v 0.26459 z m 0,-0.26459 h 0.264584 v -0.26458 h -0.264584 z m 0,-0.26458 v -0.26458 h -0.264583 v 0.26458 z m 0,-0.26458 h 0.264584 v -0.26459 h -0.264584 z m 0,-0.26459 v -0.26458 h -0.264583 v 0.26458 z m 0,-0.26458 h 0.264584 v -0.26458 h -0.264584 z m 0.264584,0 v 0.26458 h 0.264583 v -0.26458 z m 0.264583,0 h 0.264583 v -0.26458 h -0.264583 z m 0.264583,0 v 0.26458 h 0.264584 v -0.26458 z m 0.264584,0 h 0.264583 v -0.26458 H 86.25417 Z m 0.264583,0 v 0.26458 h 0.264583 v -0.26458 z m 0.264583,0 h 0.264584 v -0.26458 h -0.264584 z m 0.264584,0 v 0.26458 h 0.264583 v -0.26458 z m 0.264583,0 h 0.264583 v -0.26458 h -0.264583 z m 0.264583,0 v 0.26458 h 0.264584 v -0.26458 z m 0.264584,0 h 0.264583 v -0.26458 H 87.84167 Z m 0.264583,0 v 0.26458 h 0.264583 v -0.26458 z m 0.264583,0 h 0.264584 v -0.26458 h -0.264584 z m 0.264584,0 v 0.26458 h 0.264583 v -0.26458 z m 0.264583,0 h 0.264583 v -0.26458 h -0.264583 z m -0.264583,0.26458 h -0.264584 v 0.26459 h 0.264584 z m 0,0.26459 v 0.26458 h 0.264583 v -0.26458 z m 0,0.26458 h -0.264584 v 0.26458 h 0.264584 z m 0,0.26458 v 0.26459 h 0.264583 v -0.26459 z m 0,0.26459 h -0.264584 v 0.26458 h 0.264584 z m 0,0.26458 v 0.26458 h 0.264583 v -0.26458 z m 0,0.26458 h -0.264584 v 0.26459 h 0.264584 z m 0,0.26459 V 163.65 h 0.264583 v -0.26458 z m 0,0.26458 h -0.264584 v 0.26458 h 0.264584 z m -0.264584,0 v -0.26458 H 88.106253 V 163.65 Z m -0.264583,0 H 87.84167 v 0.26458 h 0.264583 z m -0.264583,0 v -0.26458 H 87.577086 V 163.65 Z m -0.264584,0 h -0.264583 v 0.26458 h 0.264583 z m -0.264583,0 v -0.26458 H 87.04792 V 163.65 Z m -0.264583,0 h -0.264584 v 0.26458 h 0.264584 z m -0.264584,0 v -0.26458 H 86.518753 V 163.65 Z m -0.264583,0 H 86.25417 v 0.26458 h 0.264583 z m -0.264583,0 v -0.26458 H 85.989586 V 163.65 Z m -0.264584,0 h -0.264583 v 0.26458 h 0.264583 z m -0.264583,0 v -0.26458 H 85.46042 V 163.65 Z m 0,-0.26458 h 0.264583 v -0.26459 h -0.264583 z m 0,-0.26459 v -0.26458 H 85.46042 v 0.26458 z m 0,-0.26458 h 0.264583 v -0.26458 h -0.264583 z m 0,-0.26458 v -0.26459 H 85.46042 v 0.26459 z m 0,-0.26459 h 0.264583 v -0.26458 h -0.264583 z m 0,-0.26458 v -0.26458 H 85.46042 v 0.26458 z m 0,-0.26458 h 0.264583 v -0.26459 h -0.264583 z m 0.264583,0 v 0.26458 h 0.264584 v -0.26458 z m 0.264584,0 h 0.264583 v -0.26459 H 86.25417 Z m 0.264583,0 v 0.26458 h 0.264583 v -0.26458 z m 0.264583,0 h 0.264584 v -0.26459 h -0.264584 z m 0.264584,0 v 0.26458 h 0.264583 v -0.26458 z m 0.264583,0 h 0.264583 v -0.26459 h -0.264583 z m 0.264583,0 v 0.26458 h 0.264584 v -0.26458 z m 0.264584,0 h 0.264583 v -0.26459 H 87.84167 Z m 0.264583,0 v 0.26458 h 0.264583 v -0.26458 z m 0,0.26458 H 87.84167 v 0.26458 h 0.264583 z m 0,0.26458 v 0.26459 h 0.264583 v -0.26459 z m 0,0.26459 H 87.84167 v 0.26458 h 0.264583 z m 0,0.26458 v 0.26458 h 0.264583 v -0.26458 z m 0,0.26458 H 87.84167 v 0.26459 h 0.264583 z m -0.264583,0 v -0.26458 h -0.264584 v 0.26458 z m -0.264584,0 h -0.264583 v 0.26459 h 0.264583 z m -0.264583,0 v -0.26458 H 87.04792 v 0.26458 z m -0.264583,0 h -0.264584 v 0.26459 h 0.264584 z m -0.264584,0 v -0.26458 h -0.264583 v 0.26458 z m -0.264583,0 H 86.25417 v 0.26459 h 0.264583 z m -0.264583,0 v -0.26458 h -0.264584 v 0.26458 z m 0,-0.26458 h 0.264583 v -0.26458 H 86.25417 Z m 0,-0.26458 v -0.26459 h -0.264584 v 0.26459 z m 0,-0.26459 h 0.264583 V 162.0625 H 86.25417 Z m 0.264583,0 v 0.26459 h 0.264583 v -0.26459 z m 0.264583,0 h 0.264584 v -0.26458 h -0.264584 z m 0.264584,0 v 0.26459 h 0.264583 v -0.26459 z m 0.264583,0 h 0.264583 v -0.26458 h -0.264583 z m 0.264583,0 v 0.26459 h 0.264584 v -0.26459 z m 0,0.26459 h -0.264583 v 0.26458 h 0.264583 z m -0.529166,0 h -0.264584 v 0.26458 h 0.264584 z" />
      <g
         id="g2055"
         transform="translate(-5.04e-6,-0.52917826)">
        <path
           inkscape:connector-curvature="0"
           id="rect5600-9-0"
           d="m 89.958336,162.0625 v 0.26458 h 0.264584 v -0.26458 z m 0.264584,0.26458 v 0.26459 h 0.264583 v -0.26459 z m 0,0.26459 h -0.264584 v 0.26458 h 0.264584 z m 0,0.26458 v 0.26458 h 0.264583 v -0.26458 z m 0,0.26458 h -0.264584 v 0.26459 h 0.264584 z m 0,0.26459 V 163.65 h 0.264583 v -0.26458 z m 0,0.26458 h -0.264584 v 0.26458 h 0.264584 z m 0,0.26458 v 0.26459 h 0.264583 v -0.26459 z m 0,0.26459 h -0.264584 v 0.26458 h 0.264584 z m 0,0.26458 v 0.26458 h 0.264583 v -0.26458 z m 0,0.26458 h -0.264584 v 0.26459 h 0.264584 z m 0,0.26459 v 0.26458 h 0.264583 v -0.26458 z m 0,0.26458 h -0.264584 v 0.26458 h 0.264584 z m 0,0.26458 v 0.26459 h 0.264583 v -0.26459 z m 0,0.26459 h -0.264584 v 0.26458 h 0.264584 z m 0,0.26458 v 0.26458 h 0.264583 v -0.26458 z m -0.264584,0 h -0.264583 v 0.26458 h 0.264583 z m -0.264583,0 v -0.26458 H 89.42917 v 0.26458 z m -0.264583,0 h -0.264584 v 0.26458 h 0.264584 z m -0.264584,0 v -0.26458 h -0.264583 v 0.26458 z m -0.264583,0 H 88.63542 v 0.26458 h 0.264583 z m -0.264583,0 v -0.26458 h -0.264584 v 0.26458 z m -0.264584,0 h -0.264583 v 0.26458 h 0.264583 z m -0.264583,0 v -0.26458 H 87.84167 v 0.26458 z m -0.264583,0 h -0.264584 v 0.26458 h 0.264584 z m -0.264584,0 v -0.26458 h -0.264583 v 0.26458 z m -0.264583,0 H 87.04792 v 0.26458 h 0.264583 z m -0.264583,0 v -0.26458 h -0.264584 v 0.26458 z m -0.264584,0 h -0.264583 v 0.26458 h 0.264583 z m -0.264583,0 v -0.26458 H 86.25417 v 0.26458 z m -0.264583,0 h -0.264584 v 0.26458 h 0.264584 z m -0.264584,0 v -0.26458 h -0.264583 v 0.26458 z m -0.264583,0 H 85.46042 v 0.26458 h 0.264583 z m -0.264583,0 v -0.26458 h -0.264584 v 0.26458 z m -0.264584,0 h -0.264583 v 0.26458 h 0.264583 z m -0.264583,0 v -0.26458 H 84.66667 v 0.26458 z"
           style="opacity:0.5;fill:#7a8e9e;fill-opacity:1;fill-rule:nonzero;stroke:none;stroke-width:0.264583;stroke-linecap:round;stroke-linejoin:bevel;stroke-miterlimit:4;stroke-dasharray:none;stroke-dashoffset:35;stroke-opacity:1" />
        <g
           id="g1567"
           transform="translate(0.26457329,0.26461176)">
          <path
             inkscape:connector-curvature="0"
             style="opacity:1;fill:#7a8e9e;fill-opacity:1;fill-rule:nonzero;stroke:none;stroke-width:1;stroke-linecap:round;stroke-linejoin:bevel;stroke-miterlimit:4;stroke-dasharray:none;stroke-dashoffset:35;stroke-opacity:1"
             d="m 29.044662,22.062437 -0.04464,10.9375 L 19,33 v 4 1 h 21 v -1 l 0.04464,-13.9375 c 0.0018,-0.554 -0.445993,-1 -1,-1 z"
             id="path7526"
             transform="matrix(0.26458333,0,0,0.26458333,82.550003,157.3)"
             sodipodi:nodetypes="cccccccssc" />
          <path
             style="opacity:1;fill:#ffffff;fill-opacity:1;fill-rule:nonzero;stroke:none;stroke-width:1;stroke-linecap:round;stroke-linejoin:bevel;stroke-miterlimit:4;stroke-dasharray:none;stroke-dashoffset:35;stroke-opacity:1"
             d="m 29,24 v 1 h 10 v -1 z m -1.9e-5,2.000063 L 29,34 h -9 v 4 h 11 8 l -1.9e-5,-11.999937 z"
             transform="matrix(0.26458333,0,0,0.26458333,82.550008,157.0354)"
             id="rect7528"
             inkscape:connector-curvature="0"
             sodipodi:nodetypes="ccccccccccccc" />
        </g>
        <g
           id="g4810">
          <path
             style="opacity:1;fill:#7a8e9e;fill-opacity:1;fill-rule:nonzero;stroke:none;stroke-width:0.264583;stroke-linecap:round;stroke-linejoin:bevel;stroke-miterlimit:4;stroke-dasharray:none;stroke-dashoffset:35;stroke-opacity:1"
             d="m 84.666673,161.53334 h 5.027075 c 0.146581,0 0.264587,0.11801 0.264587,0.26459 l 1.2e-5,3.70416 10e-7,0.26459 h -5.55625 l -10e-7,-0.26459 -1.2e-5,-3.70416 c 0,-0.14658 0.118006,-0.26459 0.264588,-0.26459 z"
             id="rect7464"
             inkscape:connector-curvature="0"
             sodipodi:nodetypes="sssccccss" />
          <rect
             style="opacity:1;fill:#ffffff;fill-opacity:1;fill-rule:nonzero;stroke:none;stroke-width:0.264583;stroke-linecap:round;stroke-linejoin:bevel;stroke-miterlimit:4;stroke-dasharray:none;stroke-dashoffset:35;stroke-opacity:1"
             id="rect7471"
             width="5.0270948"
             height="3.4395797"
             x="84.666672"
             y="162.06252"
             rx="7.6293945e-06"
             ry="5.1355471e-07" />
          <path
             id="rect7473"
             style="opacity:1;fill:#7a8e9e;fill-opacity:1;fill-rule:nonzero;stroke:none;stroke-width:1;stroke-linecap:round;stroke-linejoin:bevel;stroke-miterlimit:4;stroke-dasharray:none;stroke-dashoffset:35;stroke-opacity:1"
             d="m 11,20 v 2 h 2 v -2 z m 4,0 v 2 h 2 v -2 z m 4,0 v 2 h 2 v -2 z"
             transform="matrix(0.26458333,0,0,0.26458333,82.550003,157.3)" />
          <path
             id="rect7479"
             style="opacity:1;fill:#96a5af;fill-opacity:1;fill-rule:nonzero;stroke:none;stroke-width:1;stroke-linecap:round;stroke-linejoin:bevel;stroke-miterlimit:4;stroke-dasharray:none;stroke-dashoffset:35;stroke-opacity:1"
             d="m 11,23 v 1 h 2 v -1 z m 4,0 v 1 h 2 v -1 z m 4,0 v 1 h 2 v -1 z"
             transform="matrix(0.26458333,0,0,0.26458333,82.550003,157.3)" />
        </g>
      </g>
      <path
         id="rect978"
         style="fill:#2f3744;stroke-width:0.264583;stroke-linejoin:round"
         d="m 83.608336,158.8875 c -0.293155,0 -0.529171,0.26457 -0.52917,0.52916 v 0 l 0,0.26458 h 11.641667 l 3e-6,-0.26457 c 0,-0.26459 -0.236012,-0.52917 -0.529166,-0.52917 z"
         sodipodi:nodetypes="scccccss" />
    </g>
  </g>
</svg>
