<?xml version="1.0" encoding="UTF-8" standalone="no"?>
<!-- Created with Inkscape (http://www.inkscape.org/) -->

<svg
   xmlns:dc="http://purl.org/dc/elements/1.1/"
   xmlns:cc="http://creativecommons.org/ns#"
   xmlns:rdf="http://www.w3.org/1999/02/22-rdf-syntax-ns#"
   xmlns:svg="http://www.w3.org/2000/svg"
   xmlns="http://www.w3.org/2000/svg"
   xmlns:sodipodi="http://sodipodi.sourceforge.net/DTD/sodipodi-0.dtd"
   xmlns:inkscape="http://www.inkscape.org/namespaces/inkscape"
   width="48"
   height="48"
   viewBox="0 0 12.7 12.7"
   version="1.1"
   id="svg2634"
   inkscape:version="0.92.4 5da689c313, 2019-01-14"
   sodipodi:docname="user-desktopB.svg">
  <title
     id="title3250">Boston Icons</title>
  <defs
     id="defs2628" />
  <sodipodi:namedview
     id="base"
     pagecolor="#ffffff"
     bordercolor="#00ffed"
     borderopacity="1"
     inkscape:pageopacity="1"
     inkscape:pageshadow="2"
     inkscape:zoom="5.6"
     inkscape:cx="20.666709"
     inkscape:cy="23.930963"
     inkscape:document-units="px"
     inkscape:current-layer="g2154"
     showgrid="false"
     showguides="false"
     inkscape:guide-bbox="true"
     fit-margin-top="0"
     fit-margin-left="0"
     fit-margin-right="0"
     fit-margin-bottom="0"
     inkscape:window-width="1920"
     inkscape:window-height="1016"
     inkscape:window-x="0"
     inkscape:window-y="27"
     inkscape:window-maximized="1"
     units="px">
    <inkscape:grid
       type="xygrid"
       id="grid3182"
       spacingx="0.26458333"
       spacingy="0.26458333"
       empspacing="4"
       originx="-82.550004"
       originy="-127.00001"
       dotted="false" />
    <sodipodi:guide
       position="-4.268358e-06,27.516666"
       orientation="1,0"
       id="guide3216"
       inkscape:locked="false" />
    <sodipodi:guide
       position="32.279157,-4.1479283e-06"
       orientation="0,1"
       id="guide3222"
       inkscape:locked="false" />
    <sodipodi:guide
       position="13.229163,0.52915746"
       orientation="0,1"
       id="guide3226"
       inkscape:locked="false" />
    <sodipodi:guide
       position="0.52916318,6.8791574"
       orientation="1,0"
       id="guide3228"
       inkscape:locked="false" />
    <sodipodi:guide
       position="2.1166616,10.318738"
       orientation="1,0"
       id="guide3236"
       inkscape:locked="false" />
    <sodipodi:guide
       position="13.75833,1.0583241"
       orientation="0,1"
       id="guide3246"
       inkscape:locked="false" />
    <sodipodi:guide
       position="5.2916632,10.054157"
       orientation="0,1"
       id="guide862"
       inkscape:locked="false" />
    <sodipodi:guide
       position="5.8208298,12.170824"
       orientation="0,1"
       id="guide864"
       inkscape:locked="false" />
    <sodipodi:guide
       position="2.9104116,8.466655"
       orientation="0,1"
       id="guide866"
       inkscape:locked="false" />
    <sodipodi:guide
       position="12.17083,8.4666574"
       orientation="1,0"
       id="guide868"
       inkscape:locked="false" />
    <sodipodi:guide
       position="10.583328,9.5249883"
       orientation="1,0"
       id="guide872"
       inkscape:locked="false" />
    <sodipodi:guide
       position="11.112495,2.6458217"
       orientation="0,1"
       id="guide7468"
       inkscape:locked="false" />
    <sodipodi:guide
       position="7.6729115,6.3499883"
       orientation="1,0"
       id="guide1491"
       inkscape:locked="false" />
    <sodipodi:guide
       position="6.8791615,4.497905"
       orientation="0,1"
       id="guide1493"
       inkscape:locked="false" />
    <sodipodi:guide
       position="9.5249948,6.6145716"
       orientation="0,1"
       id="guide1495"
       inkscape:locked="false" />
  </sodipodi:namedview>
  <metadata
     id="metadata2631">
    <rdf:RDF>
      <cc:Work
         rdf:about="">
        <dc:format>image/svg+xml</dc:format>
        <dc:type
           rdf:resource="http://purl.org/dc/dcmitype/StillImage" />
        <dc:title>Boston Icons</dc:title>
        <cc:license
           rdf:resource="dribbble.com/chrisdiaz" />
        <dc:creator>
          <cc:Agent>
            <dc:title>Christian Díaz</dc:title>
          </cc:Agent>
        </dc:creator>
        <dc:date>2019</dc:date>
        <dc:publisher>
          <cc:Agent>
            <dc:title>Christian Díaz</dc:title>
          </cc:Agent>
        </dc:publisher>
        <dc:identifier>christiandiaz.design [at] gmail [dot] com</dc:identifier>
        <dc:subject>
          <rdf:Bag>
            <rdf:li>GNOME icon Theme</rdf:li>
          </rdf:Bag>
        </dc:subject>
        <dc:description>diazchris.deviantart.com | dribbble.com/chrisdiaz</dc:description>
      </cc:Work>
    </rdf:RDF>
  </metadata>
  <g
     inkscape:label="Capa 1"
     inkscape:groupmode="layer"
     id="layer1"
     transform="translate(-82.550003,-157.3)">
    <g
       id="g2154">
      <rect
         rx="8.5529206e-07"
         y="159.94585"
         x="83.079163"
         height="8.9958353"
         width="11.641668"
         id="rect3220"
         style="opacity:1;fill:#8698a6;fill-opacity:1;fill-rule:nonzero;stroke:none;stroke-width:0.26458332;stroke-linecap:round;stroke-linejoin:bevel;stroke-miterlimit:4;stroke-dasharray:none;stroke-dashoffset:35;stroke-opacity:1" />
      <rect
         rx="8.5529206e-07"
         y="160.47501"
         x="83.34375"
         height="8.2020893"
         width="11.112498"
         id="rect3222"
         style="opacity:1;fill:#a8b4bd;fill-opacity:1;fill-rule:nonzero;stroke:none;stroke-width:0.26458332;stroke-linecap:round;stroke-linejoin:bevel;stroke-miterlimit:4;stroke-dasharray:none;stroke-dashoffset:35;stroke-opacity:1" />
      <path
         style="opacity:0.5;fill:#ffffff;fill-opacity:1;fill-rule:nonzero;stroke:none;stroke-width:0.99999994;stroke-linecap:round;stroke-linejoin:bevel;stroke-miterlimit:4;stroke-dasharray:none;stroke-dashoffset:35;stroke-opacity:1"
         d="m 4,12 v 1 h 1 v -1 z m 1,1 v 1 h 1 v -1 z m 1,0 H 7 V 12 H 6 Z m 1,0 v 1 h 1 v -1 z m 1,0 H 9 V 12 H 8 Z m 1,0 v 1 h 1 v -1 z m 1,0 h 1 v -1 h -1 z m 1,0 v 1 h 1 v -1 z m 1,0 h 1 v -1 h -1 z m 1,0 v 1 h 1 v -1 z m 1,0 h 1 v -1 h -1 z m 1,0 v 1 h 1 v -1 z m 1,0 h 1 v -1 h -1 z m 1,0 v 1 h 1 v -1 z m 1,0 h 1 v -1 h -1 z m 1,0 v 1 h 1 v -1 z m 1,0 h 1 v -1 h -1 z m 1,0 v 1 h 1 v -1 z m 1,0 h 1 v -1 h -1 z m 1,0 v 1 h 1 v -1 z m 1,0 h 1 v -1 h -1 z m 1,0 v 1 h 1 v -1 z m 1,0 h 1 v -1 h -1 z m 1,0 v 1 h 1 v -1 z m 1,0 h 1 v -1 h -1 z m 1,0 v 1 h 1 v -1 z m 1,0 h 1 v -1 h -1 z m 1,0 v 1 h 1 v -1 z m 1,0 h 1 v -1 h -1 z m 1,0 v 1 h 1 v -1 z m 1,0 h 1 v -1 h -1 z m 1,0 v 1 h 1 v -1 z m 1,0 h 1 v -1 h -1 z m 1,0 v 1 h 1 v -1 z m 1,0 h 1 v -1 h -1 z m 1,0 v 1 h 1 v -1 z m 1,0 h 1 v -1 h -1 z m 1,0 v 1 h 1 v -1 z m 1,0 h 1 v -1 h -1 z m 1,0 v 1 h 1 v -1 z m 1,0 h 1 v -1 h -1 z m 0,1 v 1 h 1 v -1 z m 0,1 h -1 v 1 h 1 z m 0,1 v 1 h 1 v -1 z m 0,1 h -1 v 1 h 1 z m 0,1 v 1 h 1 v -1 z m 0,1 h -1 v 1 h 1 z m 0,1 v 1 h 1 v -1 z m 0,1 h -1 v 1 h 1 z m 0,1 v 1 h 1 v -1 z m 0,1 h -1 v 1 h 1 z m 0,1 v 1 h 1 v -1 z m 0,1 h -1 v 1 h 1 z m 0,1 v 1 h 1 v -1 z m 0,1 h -1 v 1 h 1 z m 0,1 v 1 h 1 v -1 z m 0,1 h -1 v 1 h 1 z m 0,1 v 1 h 1 v -1 z m 0,1 h -1 v 1 h 1 z m 0,1 v 1 h 1 v -1 z m 0,1 h -1 v 1 h 1 z m 0,1 v 1 h 1 v -1 z m 0,1 h -1 v 1 h 1 z m 0,1 v 1 h 1 v -1 z m 0,1 h -1 v 1 h 1 z m 0,1 v 1 h 1 v -1 z m 0,1 h -1 v 1 h 1 z m 0,1 v 1 h 1 v -1 z m 0,1 h -1 v 1 h 1 z m 0,1 v 1 h 1 v -1 z m -1,0 h -1 v 1 h 1 z m -1,0 v -1 h -1 v 1 z m -1,0 h -1 v 1 h 1 z m -1,0 v -1 h -1 v 1 z m -1,0 h -1 v 1 h 1 z m -1,0 v -1 h -1 v 1 z m -1,0 h -1 v 1 h 1 z m -1,0 v -1 h -1 v 1 z m -1,0 h -1 v 1 h 1 z m -1,0 v -1 h -1 v 1 z m -1,0 h -1 v 1 h 1 z m -1,0 v -1 h -1 v 1 z m -1,0 h -1 v 1 h 1 z m -1,0 v -1 h -1 v 1 z m -1,0 h -1 v 1 h 1 z m -1,0 v -1 h -1 v 1 z m -1,0 h -1 v 1 h 1 z m -1,0 v -1 h -1 v 1 z m -1,0 h -1 v 1 h 1 z m -1,0 v -1 h -1 v 1 z m -1,0 h -1 v 1 h 1 z m -1,0 v -1 h -1 v 1 z m -1,0 h -1 v 1 h 1 z m -1,0 v -1 h -1 v 1 z m -1,0 h -1 v 1 h 1 z m -1,0 v -1 h -1 v 1 z m -1,0 h -1 v 1 h 1 z m -1,0 v -1 h -1 v 1 z m -1,0 h -1 v 1 h 1 z m -1,0 v -1 h -1 v 1 z m -1,0 h -1 v 1 h 1 z m -1,0 v -1 h -1 v 1 z m -1,0 h -1 v 1 h 1 z m -1,0 V 41 H 9 v 1 z M 9,42 H 8 v 1 H 9 Z M 8,42 V 41 H 7 v 1 z M 7,42 H 6 v 1 H 7 Z M 6,42 V 41 H 5 v 1 z M 5,42 H 4 v 1 H 5 Z M 4,42 V 41 H 3 v 1 z M 4,41 H 5 V 40 H 4 Z M 4,40 V 39 H 3 v 1 z M 4,39 H 5 V 38 H 4 Z M 4,38 V 37 H 3 v 1 z M 4,37 H 5 V 36 H 4 Z M 4,36 V 35 H 3 v 1 z M 4,35 H 5 V 34 H 4 Z M 4,34 V 33 H 3 v 1 z M 4,33 H 5 V 32 H 4 Z M 4,32 V 31 H 3 v 1 z M 4,31 H 5 V 30 H 4 Z M 4,30 V 29 H 3 v 1 z M 4,29 H 5 V 28 H 4 Z M 4,28 V 27 H 3 v 1 z M 4,27 H 5 V 26 H 4 Z M 4,26 V 25 H 3 v 1 z M 4,25 H 5 V 24 H 4 Z M 4,24 V 23 H 3 v 1 z M 4,23 H 5 V 22 H 4 Z M 4,22 V 21 H 3 v 1 z M 4,21 H 5 V 20 H 4 Z M 4,20 V 19 H 3 v 1 z M 4,19 H 5 V 18 H 4 Z M 4,18 V 17 H 3 v 1 z M 4,17 H 5 V 16 H 4 Z M 4,16 V 15 H 3 v 1 z M 4,15 H 5 V 14 H 4 Z M 4,14 V 13 H 3 v 1 z m 1,1 v 1 h 1 v -1 z m 1,0 H 7 V 14 H 6 Z m 1,0 v 1 h 1 v -1 z m 1,0 H 9 V 14 H 8 Z m 1,0 v 1 h 1 v -1 z m 1,0 h 1 v -1 h -1 z m 1,0 v 1 h 1 v -1 z m 1,0 h 1 v -1 h -1 z m 1,0 v 1 h 1 v -1 z m 1,0 h 1 v -1 h -1 z m 1,0 v 1 h 1 v -1 z m 1,0 h 1 v -1 h -1 z m 1,0 v 1 h 1 v -1 z m 1,0 h 1 v -1 h -1 z m 1,0 v 1 h 1 v -1 z m 1,0 h 1 v -1 h -1 z m 1,0 v 1 h 1 v -1 z m 1,0 h 1 v -1 h -1 z m 1,0 v 1 h 1 v -1 z m 1,0 h 1 v -1 h -1 z m 1,0 v 1 h 1 v -1 z m 1,0 h 1 v -1 h -1 z m 1,0 v 1 h 1 v -1 z m 1,0 h 1 v -1 h -1 z m 1,0 v 1 h 1 v -1 z m 1,0 h 1 v -1 h -1 z m 1,0 v 1 h 1 v -1 z m 1,0 h 1 v -1 h -1 z m 1,0 v 1 h 1 v -1 z m 1,0 h 1 v -1 h -1 z m 1,0 v 1 h 1 v -1 z m 1,0 h 1 v -1 h -1 z m 1,0 v 1 h 1 v -1 z m 1,0 h 1 v -1 h -1 z m 1,0 v 1 h 1 v -1 z m 1,0 h 1 v -1 h -1 z m 1,0 v 1 h 1 v -1 z m 1,0 h 1 v -1 h -1 z m 0,1 v 1 h 1 v -1 z m 0,1 h -1 v 1 h 1 z m 0,1 v 1 h 1 v -1 z m 0,1 h -1 v 1 h 1 z m 0,1 v 1 h 1 v -1 z m 0,1 h -1 v 1 h 1 z m 0,1 v 1 h 1 v -1 z m 0,1 h -1 v 1 h 1 z m 0,1 v 1 h 1 v -1 z m 0,1 h -1 v 1 h 1 z m 0,1 v 1 h 1 v -1 z m 0,1 h -1 v 1 h 1 z m 0,1 v 1 h 1 v -1 z m 0,1 h -1 v 1 h 1 z m 0,1 v 1 h 1 v -1 z m 0,1 h -1 v 1 h 1 z m 0,1 v 1 h 1 v -1 z m 0,1 h -1 v 1 h 1 z m 0,1 v 1 h 1 v -1 z m 0,1 h -1 v 1 h 1 z m 0,1 v 1 h 1 v -1 z m 0,1 h -1 v 1 h 1 z m 0,1 v 1 h 1 v -1 z m 0,1 h -1 v 1 h 1 z m 0,1 v 1 h 1 v -1 z m -1,0 h -1 v 1 h 1 z m -1,0 v -1 h -1 v 1 z m -1,0 h -1 v 1 h 1 z m -1,0 v -1 h -1 v 1 z m -1,0 h -1 v 1 h 1 z m -1,0 v -1 h -1 v 1 z m -1,0 h -1 v 1 h 1 z m -1,0 v -1 h -1 v 1 z m -1,0 h -1 v 1 h 1 z m -1,0 v -1 h -1 v 1 z m -1,0 h -1 v 1 h 1 z m -1,0 v -1 h -1 v 1 z m -1,0 h -1 v 1 h 1 z m -1,0 v -1 h -1 v 1 z m -1,0 h -1 v 1 h 1 z m -1,0 v -1 h -1 v 1 z m -1,0 h -1 v 1 h 1 z m -1,0 v -1 h -1 v 1 z m -1,0 h -1 v 1 h 1 z m -1,0 v -1 h -1 v 1 z m -1,0 h -1 v 1 h 1 z m -1,0 v -1 h -1 v 1 z m -1,0 h -1 v 1 h 1 z m -1,0 v -1 h -1 v 1 z m -1,0 h -1 v 1 h 1 z m -1,0 v -1 h -1 v 1 z m -1,0 h -1 v 1 h 1 z m -1,0 v -1 h -1 v 1 z m -1,0 h -1 v 1 h 1 z m -1,0 v -1 h -1 v 1 z m -1,0 h -1 v 1 h 1 z m -1,0 V 39 H 9 v 1 z M 9,40 H 8 v 1 H 9 Z M 8,40 V 39 H 7 v 1 z M 7,40 H 6 v 1 H 7 Z M 6,40 V 39 H 5 v 1 z M 6,39 H 7 V 38 H 6 Z M 6,38 V 37 H 5 v 1 z M 6,37 H 7 V 36 H 6 Z M 6,36 V 35 H 5 v 1 z M 6,35 H 7 V 34 H 6 Z M 6,34 V 33 H 5 v 1 z M 6,33 H 7 V 32 H 6 Z M 6,32 V 31 H 5 v 1 z M 6,31 H 7 V 30 H 6 Z M 6,30 V 29 H 5 v 1 z M 6,29 H 7 V 28 H 6 Z M 6,28 V 27 H 5 v 1 z M 6,27 H 7 V 26 H 6 Z M 6,26 V 25 H 5 v 1 z M 6,25 H 7 V 24 H 6 Z M 6,24 V 23 H 5 v 1 z M 6,23 H 7 V 22 H 6 Z M 6,22 V 21 H 5 v 1 z M 6,21 H 7 V 20 H 6 Z M 6,20 V 19 H 5 v 1 z M 6,19 H 7 V 18 H 6 Z M 6,18 V 17 H 5 v 1 z M 6,17 H 7 V 16 H 6 Z m 1,0 v 1 h 1 v -1 z m 1,0 H 9 V 16 H 8 Z m 1,0 v 1 h 1 v -1 z m 1,0 h 1 v -1 h -1 z m 1,0 v 1 h 1 v -1 z m 1,0 h 1 v -1 h -1 z m 1,0 v 1 h 1 v -1 z m 1,0 h 1 v -1 h -1 z m 1,0 v 1 h 1 v -1 z m 1,0 h 1 v -1 h -1 z m 1,0 v 1 h 1 v -1 z m 1,0 h 1 v -1 h -1 z m 1,0 v 1 h 1 v -1 z m 1,0 h 1 v -1 h -1 z m 1,0 v 1 h 1 v -1 z m 1,0 h 1 v -1 h -1 z m 1,0 v 1 h 1 v -1 z m 1,0 h 1 v -1 h -1 z m 1,0 v 1 h 1 v -1 z m 1,0 h 1 v -1 h -1 z m 1,0 v 1 h 1 v -1 z m 1,0 h 1 v -1 h -1 z m 1,0 v 1 h 1 v -1 z m 1,0 h 1 v -1 h -1 z m 1,0 v 1 h 1 v -1 z m 1,0 h 1 v -1 h -1 z m 1,0 v 1 h 1 v -1 z m 1,0 h 1 v -1 h -1 z m 1,0 v 1 h 1 v -1 z m 1,0 h 1 v -1 h -1 z m 1,0 v 1 h 1 v -1 z m 1,0 h 1 v -1 h -1 z m 1,0 v 1 h 1 v -1 z m 1,0 h 1 v -1 h -1 z m 0,1 v 1 h 1 v -1 z m 0,1 h -1 v 1 h 1 z m 0,1 v 1 h 1 v -1 z m 0,1 h -1 v 1 h 1 z m 0,1 v 1 h 1 v -1 z m 0,1 h -1 v 1 h 1 z m 0,1 v 1 h 1 v -1 z m 0,1 h -1 v 1 h 1 z m 0,1 v 1 h 1 v -1 z m 0,1 h -1 v 1 h 1 z m 0,1 v 1 h 1 v -1 z m 0,1 h -1 v 1 h 1 z m 0,1 v 1 h 1 v -1 z m 0,1 h -1 v 1 h 1 z m 0,1 v 1 h 1 v -1 z m 0,1 h -1 v 1 h 1 z m 0,1 v 1 h 1 v -1 z m 0,1 h -1 v 1 h 1 z m 0,1 v 1 h 1 v -1 z m 0,1 h -1 v 1 h 1 z m 0,1 v 1 h 1 v -1 z m -1,0 h -1 v 1 h 1 z m -1,0 v -1 h -1 v 1 z m -1,0 h -1 v 1 h 1 z m -1,0 v -1 h -1 v 1 z m -1,0 h -1 v 1 h 1 z m -1,0 v -1 h -1 v 1 z m -1,0 h -1 v 1 h 1 z m -1,0 v -1 h -1 v 1 z m -1,0 h -1 v 1 h 1 z m -1,0 v -1 h -1 v 1 z m -1,0 h -1 v 1 h 1 z m -1,0 v -1 h -1 v 1 z m -1,0 h -1 v 1 h 1 z m -1,0 v -1 h -1 v 1 z m -1,0 h -1 v 1 h 1 z m -1,0 v -1 h -1 v 1 z m -1,0 h -1 v 1 h 1 z m -1,0 v -1 h -1 v 1 z m -1,0 h -1 v 1 h 1 z m -1,0 v -1 h -1 v 1 z m -1,0 h -1 v 1 h 1 z m -1,0 v -1 h -1 v 1 z m -1,0 h -1 v 1 h 1 z m -1,0 v -1 h -1 v 1 z m -1,0 h -1 v 1 h 1 z m -1,0 v -1 h -1 v 1 z m -1,0 h -1 v 1 h 1 z m -1,0 v -1 h -1 v 1 z m -1,0 h -1 v 1 h 1 z m -1,0 V 37 H 9 v 1 z M 9,38 H 8 v 1 H 9 Z M 8,38 V 37 H 7 v 1 z M 8,37 H 9 V 36 H 8 Z M 8,36 V 35 H 7 v 1 z M 8,35 H 9 V 34 H 8 Z M 8,34 V 33 H 7 v 1 z M 8,33 H 9 V 32 H 8 Z M 8,32 V 31 H 7 v 1 z M 8,31 H 9 V 30 H 8 Z M 8,30 V 29 H 7 v 1 z M 8,29 H 9 V 28 H 8 Z M 8,28 V 27 H 7 v 1 z M 8,27 H 9 V 26 H 8 Z M 8,26 V 25 H 7 v 1 z M 8,25 H 9 V 24 H 8 Z M 8,24 V 23 H 7 v 1 z M 8,23 H 9 V 22 H 8 Z M 8,22 V 21 H 7 v 1 z M 8,21 H 9 V 20 H 8 Z M 8,20 V 19 H 7 v 1 z M 8,19 H 9 V 18 H 8 Z m 1,0 v 1 h 1 v -1 z m 1,0 h 1 v -1 h -1 z m 1,0 v 1 h 1 v -1 z m 1,0 h 1 v -1 h -1 z m 1,0 v 1 h 1 v -1 z m 1,0 h 1 v -1 h -1 z m 1,0 v 1 h 1 v -1 z m 1,0 h 1 v -1 h -1 z m 1,0 v 1 h 1 v -1 z m 1,0 h 1 v -1 h -1 z m 1,0 v 1 h 1 v -1 z m 1,0 h 1 v -1 h -1 z m 1,0 v 1 h 1 v -1 z m 1,0 h 1 v -1 h -1 z m 1,0 v 1 h 1 v -1 z m 1,0 h 1 v -1 h -1 z m 1,0 v 1 h 1 v -1 z m 1,0 h 1 v -1 h -1 z m 1,0 v 1 h 1 v -1 z m 1,0 h 1 v -1 h -1 z m 0,1 v 1 h 1 v -1 z m 0,1 h -1 v 1 h 1 z m 0,1 v 1 h 1 v -1 z m 0,1 h -1 v 1 h 1 z m 0,1 v 1 h 1 v -1 z m 0,1 h -1 v 1 h 1 z m 0,1 v 1 h 1 v -1 z m 0,1 h -1 v 1 h 1 z m 0,1 v 1 h 1 v -1 z m 0,1 h -1 v 1 h 1 z m 0,1 v 1 h 1 v -1 z m -1,0 h -1 v 1 h 1 z m -1,0 v -1 h -1 v 1 z m -1,0 h -1 v 1 h 1 z m -1,0 v -1 h -1 v 1 z m -1,0 h -1 v 1 h 1 z m -1,0 v -1 h -1 v 1 z m -1,0 h -1 v 1 h 1 z m -1,0 v -1 h -1 v 1 z m -1,0 h -1 v 1 h 1 z m -1,0 v -1 h -1 v 1 z m -1,0 h -1 v 1 h 1 z m -1,0 v -1 h -1 v 1 z m -1,0 h -1 v 1 h 1 z m -1,0 v -1 h -1 v 1 z m -1,0 h -1 v 1 h 1 z m -1,0 v -1 h -1 v 1 z m -1,0 h -1 v 1 h 1 z m -1,0 V 29 H 9 v 1 z m 0,-1 h 1 v -1 h -1 z m 0,-1 V 27 H 9 v 1 z m 0,-1 h 1 v -1 h -1 z m 0,-1 V 25 H 9 v 1 z m 0,-1 h 1 v -1 h -1 z m 0,-1 V 23 H 9 v 1 z m 0,-1 h 1 v -1 h -1 z m 0,-1 V 21 H 9 v 1 z m 0,-1 h 1 v -1 h -1 z m 1,0 v 1 h 1 v -1 z m 1,0 h 1 v -1 h -1 z m 1,0 v 1 h 1 v -1 z m 1,0 h 1 v -1 h -1 z m 1,0 v 1 h 1 v -1 z m 1,0 h 1 v -1 h -1 z m 1,0 v 1 h 1 v -1 z m 1,0 h 1 v -1 h -1 z m 1,0 v 1 h 1 v -1 z m 1,0 h 1 v -1 h -1 z m 1,0 v 1 h 1 v -1 z m 1,0 h 1 v -1 h -1 z m 1,0 v 1 h 1 v -1 z m 1,0 h 1 v -1 h -1 z m 1,0 v 1 h 1 v -1 z m 1,0 h 1 v -1 h -1 z m 0,1 v 1 h 1 v -1 z m 0,1 h -1 v 1 h 1 z m 0,1 v 1 h 1 v -1 z m 0,1 h -1 v 1 h 1 z m 0,1 v 1 h 1 v -1 z m 0,1 h -1 v 1 h 1 z m 0,1 v 1 h 1 v -1 z m -1,0 h -1 v 1 h 1 z m -1,0 v -1 h -1 v 1 z m -1,0 h -1 v 1 h 1 z m -1,0 v -1 h -1 v 1 z m -1,0 h -1 v 1 h 1 z m -1,0 v -1 h -1 v 1 z m -1,0 h -1 v 1 h 1 z m -1,0 v -1 h -1 v 1 z m -1,0 h -1 v 1 h 1 z m -1,0 v -1 h -1 v 1 z m -1,0 h -1 v 1 h 1 z m -1,0 v -1 h -1 v 1 z m -1,0 h -1 v 1 h 1 z m -1,0 v -1 h -1 v 1 z m 0,-1 h 1 v -1 h -1 z m 0,-1 v -1 h -1 v 1 z m 0,-1 h 1 v -1 h -1 z m 0,-1 v -1 h -1 v 1 z m 0,-1 h 1 v -1 h -1 z m 1,0 v 1 h 1 v -1 z m 1,0 h 1 v -1 h -1 z m 1,0 v 1 h 1 v -1 z m 1,0 h 1 v -1 h -1 z m 1,0 v 1 h 1 v -1 z m 1,0 h 1 v -1 h -1 z m 1,0 v 1 h 1 v -1 z m 1,0 h 1 v -1 h -1 z m 1,0 v 1 h 1 v -1 z m 1,0 h 1 v -1 h -1 z m 1,0 v 1 h 1 v -1 z m 1,0 h 1 v -1 h -1 z m 0,1 v 1 h 1 v -1 z m 0,1 h -1 v 1 h 1 z m 0,1 v 1 h 1 v -1 z m -1,0 h -1 v 1 h 1 z m -1,0 v -1 h -1 v 1 z m -1,0 h -1 v 1 h 1 z m -1,0 v -1 h -1 v 1 z m -1,0 h -1 v 1 h 1 z m -1,0 v -1 h -1 v 1 z m -1,0 h -1 v 1 h 1 z m -1,0 v -1 h -1 v 1 z m -1,0 h -1 v 1 h 1 z m -1,0 v -1 h -1 v 1 z m 0,-1 h 1 v -1 h -1 z m 2,0 h 1 v -1 h -1 z m 2,0 h 1 v -1 h -1 z m 2,0 h 1 v -1 h -1 z m 2,0 h 1 V 24 H 22 Z M 9,33 v 1 h 1 v -1 z m 1,1 v 1 h 1 v -1 z m 1,0 h 1 v -1 h -1 z m 1,0 v 1 h 1 v -1 z m 1,0 h 1 v -1 h -1 z m 1,0 v 1 h 1 v -1 z m 1,0 h 1 v -1 h -1 z m 1,0 v 1 h 1 v -1 z m 1,0 h 1 v -1 h -1 z m 1,0 v 1 h 1 v -1 z m 1,0 h 1 v -1 h -1 z m 1,0 v 1 h 1 v -1 z m 1,0 h 1 v -1 h -1 z m 1,0 v 1 h 1 v -1 z m 1,0 h 1 v -1 h -1 z m 1,0 v 1 h 1 v -1 z m 1,0 h 1 v -1 h -1 z m 1,0 v 1 h 1 v -1 z m 1,0 h 1 v -1 h -1 z m 1,0 v 1 h 1 v -1 z m 1,0 h 1 v -1 h -1 z m 1,0 v 1 h 1 v -1 z m 1,0 h 1 v -1 h -1 z m 1,-1 h 1 v -1 h -1 z m 0,-1 v -1 h -1 v 1 z m 0,-1 h 1 v -1 h -1 z m 0,-1 v -1 h -1 v 1 z m 0,-1 h 1 v -1 h -1 z m 0,-1 v -1 h -1 v 1 z m 0,-1 h 1 v -1 h -1 z m 0,-1 v -1 h -1 v 1 z m 0,-1 h 1 v -1 h -1 z m 0,-1 v -1 h -1 v 1 z m 0,-1 h 1 v -1 h -1 z m 0,-1 v -1 h -1 v 1 z m 0,-1 h 1 v -1 h -1 z m 0,-1 v -1 h -1 v 1 z m -1,-1 v -1 h -1 v 1 z m 1,0 h 1 v -1 h -1 z m 1,0 v 1 h 1 v -1 z m 1,0 h 1 v -1 h -1 z m 1,0 v 1 h 1 v -1 z m 1,0 h 1 v -1 h -1 z m 1,0 v 1 h 1 v -1 z m 1,0 h 1 v -1 h -1 z m 0,1 v 1 h 1 v -1 z m 0,1 h -1 v 1 h 1 z m 0,1 v 1 h 1 v -1 z m 0,1 h -1 v 1 h 1 z m 0,1 v 1 h 1 v -1 z m 0,1 h -1 v 1 h 1 z m 0,1 v 1 h 1 v -1 z m 0,1 h -1 v 1 h 1 z m 0,1 v 1 h 1 v -1 z m 0,1 h -1 v 1 h 1 z m 0,1 v 1 h 1 v -1 z m 0,1 h -1 v 1 h 1 z m 0,1 v 1 h 1 v -1 z m 0,1 h -1 v 1 h 1 z m 0,1 v 1 h 1 v -1 z m 0,1 h -1 v 1 h 1 z m 0,1 v 1 h 1 v -1 z m -1,0 h -1 v 1 h 1 z m -1,0 v -1 h -1 v 1 z m -1,0 h -1 v 1 h 1 z m -1,0 v -1 h -1 v 1 z m -1,0 h -1 v 1 h 1 z m -1,0 v -1 h -1 v 1 z m -1,0 h -1 v 1 h 1 z m -1,0 v -1 h -1 v 1 z m -1,0 h -1 v 1 h 1 z m -1,0 v -1 h -1 v 1 z m -1,0 h -1 v 1 h 1 z m -1,0 v -1 h -1 v 1 z m -1,0 h -1 v 1 h 1 z m -1,0 v -1 h -1 v 1 z m -1,0 h -1 v 1 h 1 z m -1,0 v -1 h -1 v 1 z m -1,0 h -1 v 1 h 1 z m -1,0 v -1 h -1 v 1 z m -1,0 h -1 v 1 h 1 z m -1,0 v -1 h -1 v 1 z m -1,0 h -1 v 1 h 1 z m -1,0 v -1 h -1 v 1 z m -1,0 h -1 v 1 h 1 z m -1,0 v -1 h -1 v 1 z m -1,0 h -1 v 1 h 1 z m -1,0 v -1 h -1 v 1 z m -1,0 h -1 v 1 h 1 z m -1,0 V 35 H 9 v 1 z m 22,-1 h 1 v -1 h -1 z m 1,-1 h 1 v -1 h -1 z m 1,-1 h 1 v -1 h -1 z m 0,-1 v -1 h -1 v 1 z m 0,-1 h 1 v -1 h -1 z m 0,-1 v -1 h -1 v 1 z m 0,-1 h 1 v -1 h -1 z m 0,-1 v -1 h -1 v 1 z m 0,-1 h 1 v -1 h -1 z m 0,-1 v -1 h -1 v 1 z m 0,-1 h 1 v -1 h -1 z m 0,-1 v -1 h -1 v 1 z m 0,-1 h 1 v -1 h -1 z m 0,-1 v -1 h -1 v 1 z m 0,-1 h 1 v -1 h -1 z m 1,0 v 1 h 1 v -1 z m 1,0 h 1 v -1 h -1 z m 0,1 v 1 h 1 v -1 z m 0,1 h -1 v 1 h 1 z m 0,1 v 1 h 1 v -1 z m 0,1 h -1 v 1 h 1 z m 0,1 v 1 h 1 v -1 z m 0,1 h -1 v 1 h 1 z m 0,1 v 1 h 1 v -1 z m 0,1 h -1 v 1 h 1 z m 0,1 v 1 h 1 v -1 z m 0,1 h -1 v 1 h 1 z m 0,1 v 1 h 1 v -1 z m 0,1 h -1 v 1 h 1 z m 0,1 v 1 h 1 v -1 z m -1,0 h -1 v 1 h 1 z"
         transform="matrix(0.26458333,0,0,0.26458333,82.550003,157.3)"
         id="rect5574"
         inkscape:connector-curvature="0" />
      <path
         style="opacity:0.5;fill:#8698a6;fill-opacity:1;fill-rule:nonzero;stroke:none;stroke-width:0.99999994;stroke-linecap:round;stroke-linejoin:bevel;stroke-miterlimit:4;stroke-dasharray:none;stroke-dashoffset:35;stroke-opacity:1"
         d="m 29,19 v 1 h 1 v -1 z m 1,1 v 1 h 1 v -1 z m 0,1 h -1 v 1 h 1 z m 0,1 v 1 h 1 v -1 z m 0,1 h -1 v 1 h 1 z m 0,1 v 1 h 1 v -1 z m 0,1 h -1 v 1 h 1 z m 0,1 v 1 h 1 v -1 z m 0,1 h -1 v 1 h 1 z m 0,1 v 1 h 1 v -1 z m 0,1 h -1 v 1 h 1 z m 0,1 v 1 h 1 v -1 z m 0,1 h -1 v 1 h 1 z m 0,1 v 1 h 1 v -1 z m -1,0 h -1 v 1 h 1 z m -1,0 v -1 h -1 v 1 z m -1,0 h -1 v 1 h 1 z m -1,0 v -1 h -1 v 1 z m -1,0 h -1 v 1 h 1 z m -1,0 v -1 h -1 v 1 z m -1,0 h -1 v 1 h 1 z m -1,0 v -1 h -1 v 1 z m -1,0 h -1 v 1 h 1 z m -1,0 v -1 h -1 v 1 z m -1,0 h -1 v 1 h 1 z m -1,0 v -1 h -1 v 1 z m -1,0 h -1 v 1 h 1 z m -1,0 v -1 h -1 v 1 z m -1,0 h -1 v 1 h 1 z m -1,0 v -1 h -1 v 1 z m -1,0 h -1 v 1 h 1 z m -1,0 v -1 h -1 v 1 z m -1,0 h -1 v 1 h 1 z m -1,0 V 31 H 9 v 1 z"
         id="rect5600-9-0"
         inkscape:connector-curvature="0"
         transform="matrix(0.26458333,0,0,0.26458333,82.550003,157.3)" />
      <g
         id="g1505"
         transform="translate(-1.2305859e-5,-3.558789e-6)">
        <path
           style="opacity:1;fill:#8698a6;fill-opacity:1;fill-rule:nonzero;stroke:none;stroke-width:0.26458332;stroke-linecap:round;stroke-linejoin:bevel;stroke-miterlimit:4;stroke-dasharray:none;stroke-dashoffset:35;stroke-opacity:1"
           d="m 84.931252,161.53334 h 5.027075 c 0.146581,0 0.264587,0.11801 0.264587,0.26459 v 3.43957 l 10e-7,0.26459 h -5.55625 l -10e-7,-0.26459 v -3.43957 c 0,-0.14658 0.118006,-0.26459 0.264588,-0.26459 z"
           id="rect7464"
           inkscape:connector-curvature="0"
           sodipodi:nodetypes="sssccccss" />
        <rect
           style="opacity:1;fill:#ffffff;fill-opacity:1;fill-rule:nonzero;stroke:none;stroke-width:0.26458332;stroke-linecap:round;stroke-linejoin:bevel;stroke-miterlimit:4;stroke-dasharray:none;stroke-dashoffset:35;stroke-opacity:1"
           id="rect7471"
           width="5.0270958"
           height="3.1750066"
           x="84.931252"
           y="162.06252"
           rx="7.6293945e-06"
           ry="5.1355471e-07" />
        <rect
           style="opacity:1;fill:#8698a6;fill-opacity:1;fill-rule:nonzero;stroke:none;stroke-width:0.26458332;stroke-linecap:round;stroke-linejoin:bevel;stroke-miterlimit:4;stroke-dasharray:none;stroke-dashoffset:35;stroke-opacity:1"
           id="rect7473"
           width="0.7937535"
           height="0.79375356"
           x="85.460411"
           y="162.59167"
           rx="7.6293927e-06"
           ry="5.1355357e-07" />
        <rect
           style="opacity:1;fill:#8698a6;fill-opacity:1;fill-rule:nonzero;stroke:none;stroke-width:0.26458332;stroke-linecap:round;stroke-linejoin:bevel;stroke-miterlimit:4;stroke-dasharray:none;stroke-dashoffset:35;stroke-opacity:1"
           id="rect7475"
           width="0.79374838"
           height="0.79375356"
           x="86.783333"
           y="162.59167"
           rx="7.6293927e-06"
           ry="5.1355357e-07" />
        <rect
           style="opacity:1;fill:#8698a6;fill-opacity:1;fill-rule:nonzero;stroke:none;stroke-width:0.26458332;stroke-linecap:round;stroke-linejoin:bevel;stroke-miterlimit:4;stroke-dasharray:none;stroke-dashoffset:35;stroke-opacity:1"
           id="rect7477"
           width="0.79374999"
           height="0.79374999"
           x="88.106247"
           y="162.59167"
           rx="7.6293927e-06"
           ry="5.1355357e-07" />
        <rect
           style="opacity:1;fill:#8698a6;fill-opacity:1;fill-rule:nonzero;stroke:none;stroke-width:0.26458332;stroke-linecap:round;stroke-linejoin:bevel;stroke-miterlimit:4;stroke-dasharray:none;stroke-dashoffset:35;stroke-opacity:1"
           id="rect7479"
           width="0.79374999"
           height="0.26458332"
           x="85.460411"
           y="163.65001"
           rx="7.6293927e-06"
           ry="5.1355357e-07" />
        <rect
           style="opacity:1;fill:#8698a6;fill-opacity:1;fill-rule:nonzero;stroke:none;stroke-width:0.26458332;stroke-linecap:round;stroke-linejoin:bevel;stroke-miterlimit:4;stroke-dasharray:none;stroke-dashoffset:35;stroke-opacity:1"
           id="rect7481"
           width="0.79374999"
           height="0.26458332"
           x="86.783333"
           y="163.65001"
           rx="7.6293927e-06"
           ry="5.1355357e-07" />
        <rect
           style="opacity:1;fill:#8698a6;fill-opacity:1;fill-rule:nonzero;stroke:none;stroke-width:0.26458332;stroke-linecap:round;stroke-linejoin:bevel;stroke-miterlimit:4;stroke-dasharray:none;stroke-dashoffset:35;stroke-opacity:1"
           id="rect7483"
           width="0.79374999"
           height="0.26458332"
           x="88.106247"
           y="163.65001"
           rx="7.6293927e-06"
           ry="5.1355357e-07" />
      </g>
      <g
         id="g1567"
         transform="translate(-5.04e-6,1.176e-5)">
        <path
           inkscape:connector-curvature="0"
           style="opacity:1;fill:#8698a6;fill-opacity:1;fill-rule:nonzero;stroke:none;stroke-width:0.99999994;stroke-linecap:round;stroke-linejoin:bevel;stroke-miterlimit:4;stroke-dasharray:none;stroke-dashoffset:35;stroke-opacity:1"
           d="M 31,23 V 33 H 19 v 4 1 H 40 V 37 24 c 0,-0.554003 -0.445993,-1 -1,-1 z"
           id="path7526"
           transform="matrix(0.26458333,0,0,0.26458333,82.550003,157.3)" />
        <rect
           style="opacity:1;fill:#ffffff;fill-opacity:1;fill-rule:nonzero;stroke:none;stroke-width:0.26458332;stroke-linecap:round;stroke-linejoin:bevel;stroke-miterlimit:4;stroke-dasharray:none;stroke-dashoffset:35;stroke-opacity:1"
           id="rect7528"
           width="2.1166666"
           height="0.26458332"
           x="90.752083"
           y="163.65001"
           rx="7.6293927e-06"
           ry="5.1355357e-07" />
        <path
           inkscape:connector-curvature="0"
           style="opacity:1;fill:#ffffff;fill-opacity:1;fill-rule:nonzero;stroke:none;stroke-width:0.99999994;stroke-linecap:round;stroke-linejoin:bevel;stroke-miterlimit:4;stroke-dasharray:none;stroke-dashoffset:35;stroke-opacity:1"
           d="m 31,26 v 7 H 20 v 4 h 11 8 V 26 Z"
           transform="matrix(0.26458333,0,0,0.26458333,82.550003,157.3)"
           id="rect7530" />
      </g>
    </g>
  </g>
</svg>
