<?xml version="1.0" encoding="UTF-8" standalone="no"?>
<svg
   width="128"
   height="128"
   viewBox="0 0 33.866667 33.866667"
   version="1.1"
   id="svg2634"
   inkscape:version="1.1 (c4e8f9ed74, 2021-05-24)"
   sodipodi:docname="folder-visiting.svg"
   xmlns:inkscape="http://www.inkscape.org/namespaces/inkscape"
   xmlns:sodipodi="http://sodipodi.sourceforge.net/DTD/sodipodi-0.dtd"
   xmlns:xlink="http://www.w3.org/1999/xlink"
   xmlns="http://www.w3.org/2000/svg"
   xmlns:svg="http://www.w3.org/2000/svg"
   xmlns:rdf="http://www.w3.org/1999/02/22-rdf-syntax-ns#"
   xmlns:cc="http://creativecommons.org/ns#"
   xmlns:dc="http://purl.org/dc/elements/1.1/">
  <title
     id="title3250">Boston Icons</title>
  <defs
     id="defs2628">
    <linearGradient
       inkscape:collect="always"
       id="linearGradient1027">
      <stop
         style="stop-color:#7fb9ec;stop-opacity:1;"
         offset="0"
         id="stop1023" />
      <stop
         style="stop-color:#7fb9ec;stop-opacity:0;"
         offset="1"
         id="stop1025" />
    </linearGradient>
    <linearGradient
       inkscape:collect="always"
       xlink:href="#linearGradient1027"
       id="linearGradient1029"
       x1="99.48333"
       y1="166.29582"
       x2="99.48333"
       y2="155.18333"
       gradientUnits="userSpaceOnUse"
       gradientTransform="translate(0,1.687875e-5)" />
  </defs>
  <sodipodi:namedview
     id="base"
     pagecolor="#ffffff"
     bordercolor="#00ffed"
     borderopacity="1"
     inkscape:pageopacity="1"
     inkscape:pageshadow="2"
     inkscape:zoom="2.8"
     inkscape:cx="67.142858"
     inkscape:cy="50.535715"
     inkscape:document-units="px"
     inkscape:current-layer="layer1"
     showgrid="false"
     showguides="false"
     inkscape:guide-bbox="true"
     fit-margin-top="0"
     fit-margin-left="0"
     fit-margin-right="0"
     fit-margin-bottom="0"
     inkscape:window-width="1920"
     inkscape:window-height="1011"
     inkscape:window-x="0"
     inkscape:window-y="32"
     inkscape:window-maximized="1"
     units="px"
     inkscape:document-rotation="0"
     inkscape:pagecheckerboard="0">
    <inkscape:grid
       type="xygrid"
       id="grid3182"
       spacingx="0.52916667"
       spacingy="0.52916667"
       empspacing="4"
       originx="-82.550004"
       originy="-127.00001"
       dotted="false" />
    <sodipodi:guide
       position="-4.268358e-06,27.516666"
       orientation="1,0"
       id="guide3216"
       inkscape:locked="false" />
    <sodipodi:guide
       position="3.7041618,33.866666"
       orientation="0,1"
       id="guide3218"
       inkscape:locked="false" />
    <sodipodi:guide
       position="33.866657,24.870836"
       orientation="1,0"
       id="guide3220"
       inkscape:locked="false" />
    <sodipodi:guide
       position="32.279157,-4.1479283e-06"
       orientation="0,1"
       id="guide3222"
       inkscape:locked="false" />
    <sodipodi:guide
       position="15.345829,32.808336"
       orientation="0,1"
       id="guide3224"
       inkscape:locked="false" />
    <sodipodi:guide
       position="-4.7625023,1.0583259"
       orientation="0,1"
       id="guide3226"
       inkscape:locked="false" />
    <sodipodi:guide
       position="1.0583287,17.462496"
       orientation="1,0"
       id="guide3228"
       inkscape:locked="false" />
    <sodipodi:guide
       position="32.808327,20.108336"
       orientation="1,0"
       id="guide3230"
       inkscape:locked="false" />
    <sodipodi:guide
       position="15.874995,31.750006"
       orientation="0,1"
       id="guide3232"
       inkscape:locked="false" />
    <sodipodi:guide
       position="21.695827,2.1166659"
       orientation="0,1"
       id="guide3246"
       inkscape:locked="false" />
    <sodipodi:guide
       position="16.404162,3.1749959"
       orientation="0,1"
       id="guide3248"
       inkscape:locked="false" />
    <sodipodi:guide
       position="26.987497,30.162491"
       orientation="0,1"
       id="guide843"
       inkscape:locked="false" />
    <sodipodi:guide
       position="30.162497,26.458325"
       orientation="0,1"
       id="guide845"
       inkscape:locked="false" />
    <sodipodi:guide
       position="1.5874965,14.816658"
       orientation="0,1"
       id="guide866"
       inkscape:locked="false" />
    <sodipodi:guide
       position="17.462497,19.049991"
       orientation="0,1"
       id="guide906"
       inkscape:locked="false" />
  </sodipodi:namedview>
  <metadata
     id="metadata2631">
    <rdf:RDF>
      <cc:Work
         rdf:about="">
        <dc:format>image/svg+xml</dc:format>
        <dc:type
           rdf:resource="http://purl.org/dc/dcmitype/StillImage" />
        <dc:title>Boston Icons</dc:title>
        <cc:license
           rdf:resource="dribbble.com/chrisdiaz" />
        <dc:creator>
          <cc:Agent>
            <dc:title>Christian Díaz</dc:title>
          </cc:Agent>
        </dc:creator>
        <dc:date>2021</dc:date>
        <dc:publisher>
          <cc:Agent>
            <dc:title>Christian Díaz</dc:title>
          </cc:Agent>
        </dc:publisher>
        <dc:identifier>christiandiaz.design [at] gmail [dot] com</dc:identifier>
        <dc:subject>
          <rdf:Bag>
            <rdf:li>GNOME icon Theme</rdf:li>
          </rdf:Bag>
        </dc:subject>
        <dc:description>dribbble.com/chrisdiaz | diazchris.deviantart.com</dc:description>
      </cc:Work>
    </rdf:RDF>
  </metadata>
  <g
     inkscape:label="Capa 1"
     inkscape:groupmode="layer"
     id="layer1"
     transform="translate(-82.550003,-136.13333)">
    <path
       id="rect2862-3-6"
       style="fill:#2d8cff;stroke-width:0.500001;stroke-linejoin:round"
       d="M 8 20 L 8 22 L 10 22 L 10 20 L 8 20 z M 10 22 L 10 24 L 12 24 L 12 22 L 10 22 z M 12 22 L 14 22 L 14 20 L 12 20 L 12 22 z M 14 22 L 14 24 L 16 24 L 16 22 L 14 22 z M 16 22 L 18 22 L 18 20 L 16 20 L 16 22 z M 18 22 L 18 24 L 20 24 L 20 22 L 18 22 z M 20 22 L 22 22 L 22 20 L 20 20 L 20 22 z M 22 22 L 22 24 L 24 24 L 24 22 L 22 22 z M 24 22 L 26 22 L 26 20 L 24 20 L 24 22 z M 26 22 L 26 24 L 28 24 L 28 22 L 26 22 z M 28 22 L 30 22 L 30 20 L 28 20 L 28 22 z M 30 22 L 30 24 L 32 24 L 32 22 L 30 22 z M 32 22 L 34 22 L 34 20 L 32 20 L 32 22 z M 34 22 L 34 24 L 36 24 L 36 22 L 34 22 z M 36 22 L 38 22 L 38 20 L 36 20 L 36 22 z M 38 22 L 38 24 L 40 24 L 40 22 L 38 22 z M 40 22 L 42 22 L 42 20 L 40 20 L 40 22 z M 42 22 L 42 24 L 44 24 L 44 22 L 42 22 z M 44 22 L 46 22 L 46 20 L 44 20 L 44 22 z M 46 22 L 46 24 L 48 24 L 48 22 L 46 22 z M 48 22 L 50 22 L 50 20 L 48 20 L 48 22 z M 50 22 L 50 24 L 52 24 L 52 22 L 50 22 z M 52 22 L 54 22 L 54 20 L 52 20 L 52 22 z M 54 22 L 54 24 L 56 24 L 56 22 L 54 22 z M 56 24 L 56 26 L 58 26 L 58 24 L 56 24 z M 58 26 L 58 28 L 60 28 L 60 26 L 58 26 z M 60 28 L 60 30 L 62 30 L 62 28 L 60 28 z M 62 30 L 62 32 L 64 32 L 64 30 L 62 30 z M 64 32 L 64 34 L 66 34 L 66 32 L 64 32 z M 66 32 L 68 32 L 68 30 L 66 30 L 66 32 z M 68 32 L 68 34 L 70 34 L 70 32 L 68 32 z M 70 32 L 72 32 L 72 30 L 70 30 L 70 32 z M 72 32 L 72 34 L 74 34 L 74 32 L 72 32 z M 74 32 L 76 32 L 76 30 L 74 30 L 74 32 z M 76 32 L 76 34 L 78 34 L 78 32 L 76 32 z M 78 32 L 80 32 L 80 30 L 78 30 L 78 32 z M 80 32 L 80 34 L 82 34 L 82 32 L 80 32 z M 82 32 L 84 32 L 84 30 L 82 30 L 82 32 z M 84 32 L 84 34 L 86 34 L 86 32 L 84 32 z M 86 32 L 88 32 L 88 30 L 86 30 L 86 32 z M 88 32 L 88 34 L 90 34 L 90 32 L 88 32 z M 90 32 L 92 32 L 92 30 L 90 30 L 90 32 z M 92 32 L 92 34 L 94 34 L 94 32 L 92 32 z M 94 32 L 96 32 L 96 30 L 94 30 L 94 32 z M 96 32 L 96 34 L 98 34 L 98 32 L 96 32 z M 98 32 L 100 32 L 100 30 L 98 30 L 98 32 z M 100 32 L 100 34 L 102 34 L 102 32 L 100 32 z M 102 32 L 104 32 L 104 30 L 102 30 L 102 32 z M 104 32 L 104 34 L 106 34 L 106 32 L 104 32 z M 106 32 L 108 32 L 108 30 L 106 30 L 106 32 z M 108 32 L 108 34 L 110 34 L 110 32 L 108 32 z M 110 32 L 112 32 L 112 30 L 110 30 L 110 32 z M 112 32 L 112 34 L 114 34 L 114 32 L 112 32 z M 114 32 L 116 32 L 116 30 L 114 30 L 114 32 z M 116 32 L 116 34 L 118 34 L 118 32 L 116 32 z M 118 32 L 120 32 L 120 30 L 118 30 L 118 32 z M 120 32 L 120 34 L 122 34 L 122 32 L 120 32 z M 120 34 L 118 34 L 118 36 L 120 36 L 120 34 z M 120 36 L 120 38 L 122 38 L 122 36 L 120 36 z M 120 38 L 118 38 L 118 40 L 120 40 L 120 38 z M 120 40 L 120 42 L 122 42 L 122 40 L 120 40 z M 120 42 L 118 42 L 118 44 L 120 44 L 120 42 z M 120 44 L 120 46 L 122 46 L 122 44 L 120 44 z M 120 46 L 118 46 L 118 48 L 120 48 L 120 46 z M 120 48 L 120 50 L 122 50 L 122 48 L 120 48 z M 120 50 L 118 50 L 118 52 L 120 52 L 120 50 z M 120 52 L 120 54 L 122 54 L 122 52 L 120 52 z M 120 54 L 118 54 L 118 56 L 120 56 L 120 54 z M 118 54 L 118 52 L 116 52 L 116 54 L 118 54 z M 116 54 L 114 54 L 114 56 L 116 56 L 116 54 z M 114 54 L 114 52 L 112 52 L 112 54 L 114 54 z M 112 54 L 110 54 L 110 56 L 112 56 L 112 54 z M 110 54 L 110 52 L 108 52 L 108 54 L 110 54 z M 108 54 L 106 54 L 106 56 L 108 56 L 108 54 z M 106 54 L 106 52 L 104 52 L 104 54 L 106 54 z M 104 54 L 102 54 L 102 56 L 104 56 L 104 54 z M 102 54 L 102 52 L 100 52 L 100 54 L 102 54 z M 100 54 L 98 54 L 98 56 L 100 56 L 100 54 z M 98 54 L 98 52 L 96 52 L 96 54 L 98 54 z M 96 54 L 94 54 L 94 56 L 96 56 L 96 54 z M 94 54 L 94 52 L 92 52 L 92 54 L 94 54 z M 92 54 L 90 54 L 90 56 L 92 56 L 92 54 z M 90 54 L 90 52 L 88 52 L 88 54 L 90 54 z M 88 54 L 86 54 L 86 56 L 88 56 L 88 54 z M 86 54 L 86 52 L 84 52 L 84 54 L 86 54 z M 84 54 L 82 54 L 82 56 L 84 56 L 84 54 z M 82 54 L 82 52 L 80 52 L 80 54 L 82 54 z M 80 54 L 78 54 L 78 56 L 80 56 L 80 54 z M 78 54 L 78 52 L 76 52 L 76 54 L 78 54 z M 76 54 L 74 54 L 74 56 L 76 56 L 76 54 z M 74 54 L 74 52 L 72 52 L 72 54 L 74 54 z M 72 54 L 70 54 L 70 56 L 72 56 L 72 54 z M 70 54 L 70 52 L 68 52 L 68 54 L 70 54 z M 68 54 L 66 54 L 66 56 L 68 56 L 68 54 z M 66 54 L 66 52 L 64 52 L 64 54 L 66 54 z M 64 54 L 62 54 L 62 56 L 64 56 L 64 54 z M 62 54 L 62 52 L 60 52 L 60 54 L 62 54 z M 60 54 L 58 54 L 58 56 L 60 56 L 60 54 z M 58 56 L 56 56 L 56 58 L 58 58 L 58 56 z M 56 58 L 54 58 L 54 60 L 56 60 L 56 58 z M 54 60 L 52 60 L 52 62 L 54 62 L 54 60 z M 52 62 L 50 62 L 50 64 L 52 64 L 52 62 z M 50 62 L 50 60 L 48 60 L 48 62 L 50 62 z M 48 62 L 46 62 L 46 64 L 48 64 L 48 62 z M 46 62 L 46 60 L 44 60 L 44 62 L 46 62 z M 44 62 L 42 62 L 42 64 L 44 64 L 44 62 z M 42 62 L 42 60 L 40 60 L 40 62 L 42 62 z M 40 62 L 38 62 L 38 64 L 40 64 L 40 62 z M 38 62 L 38 60 L 36 60 L 36 62 L 38 62 z M 36 62 L 34 62 L 34 64 L 36 64 L 36 62 z M 34 62 L 34 60 L 32 60 L 32 62 L 34 62 z M 32 62 L 30 62 L 30 64 L 32 64 L 32 62 z M 30 62 L 30 60 L 28 60 L 28 62 L 30 62 z M 28 62 L 26 62 L 26 64 L 28 64 L 28 62 z M 26 62 L 26 60 L 24 60 L 24 62 L 26 62 z M 24 62 L 22 62 L 22 64 L 24 64 L 24 62 z M 22 62 L 22 60 L 20 60 L 20 62 L 22 62 z M 20 62 L 18 62 L 18 64 L 20 64 L 20 62 z M 18 62 L 18 60 L 16 60 L 16 62 L 18 62 z M 16 62 L 14 62 L 14 64 L 16 64 L 16 62 z M 14 62 L 14 60 L 12 60 L 12 62 L 14 62 z M 12 62 L 10 62 L 10 64 L 12 64 L 12 62 z M 10 62 L 10 60 L 8 60 L 8 62 L 10 62 z M 8 62 L 6 62 L 6 64 L 8 64 L 8 62 z M 8 60 L 8 58 L 6 58 L 6 60 L 8 60 z M 8 58 L 10 58 L 10 56 L 8 56 L 8 58 z M 8 56 L 8 54 L 6 54 L 6 56 L 8 56 z M 8 54 L 10 54 L 10 52 L 8 52 L 8 54 z M 8 52 L 8 50 L 6 50 L 6 52 L 8 52 z M 8 50 L 10 50 L 10 48 L 8 48 L 8 50 z M 8 48 L 8 46 L 6 46 L 6 48 L 8 48 z M 8 46 L 10 46 L 10 44 L 8 44 L 8 46 z M 8 44 L 8 42 L 6 42 L 6 44 L 8 44 z M 8 42 L 10 42 L 10 40 L 8 40 L 8 42 z M 8 40 L 8 38 L 6 38 L 6 40 L 8 40 z M 8 38 L 10 38 L 10 36 L 8 36 L 8 38 z M 8 36 L 8 34 L 6 34 L 6 36 L 8 36 z M 8 34 L 10 34 L 10 32 L 8 32 L 8 34 z M 8 32 L 8 30 L 6 30 L 6 32 L 8 32 z M 8 30 L 10 30 L 10 28 L 8 28 L 8 30 z M 8 28 L 8 26 L 6 26 L 6 28 L 8 28 z M 8 26 L 10 26 L 10 24 L 8 24 L 8 26 z M 8 24 L 8 22 L 6 22 L 6 24 L 8 24 z M 10 26 L 10 28 L 12 28 L 12 26 L 10 26 z M 12 26 L 14 26 L 14 24 L 12 24 L 12 26 z M 14 26 L 14 28 L 16 28 L 16 26 L 14 26 z M 16 26 L 18 26 L 18 24 L 16 24 L 16 26 z M 18 26 L 18 28 L 20 28 L 20 26 L 18 26 z M 20 26 L 22 26 L 22 24 L 20 24 L 20 26 z M 22 26 L 22 28 L 24 28 L 24 26 L 22 26 z M 24 26 L 26 26 L 26 24 L 24 24 L 24 26 z M 26 26 L 26 28 L 28 28 L 28 26 L 26 26 z M 28 26 L 30 26 L 30 24 L 28 24 L 28 26 z M 30 26 L 30 28 L 32 28 L 32 26 L 30 26 z M 32 26 L 34 26 L 34 24 L 32 24 L 32 26 z M 34 26 L 34 28 L 36 28 L 36 26 L 34 26 z M 36 26 L 38 26 L 38 24 L 36 24 L 36 26 z M 38 26 L 38 28 L 40 28 L 40 26 L 38 26 z M 40 26 L 42 26 L 42 24 L 40 24 L 40 26 z M 42 26 L 42 28 L 44 28 L 44 26 L 42 26 z M 44 26 L 46 26 L 46 24 L 44 24 L 44 26 z M 46 26 L 46 28 L 48 28 L 48 26 L 46 26 z M 48 26 L 50 26 L 50 24 L 48 24 L 48 26 z M 50 26 L 50 28 L 52 28 L 52 26 L 50 26 z M 52 26 L 54 26 L 54 24 L 52 24 L 52 26 z M 54 26 L 54 28 L 56 28 L 56 26 L 54 26 z M 56 28 L 56 30 L 58 30 L 58 28 L 56 28 z M 58 30 L 58 32 L 60 32 L 60 30 L 58 30 z M 60 32 L 60 34 L 62 34 L 62 32 L 60 32 z M 62 34 L 62 36 L 64 36 L 64 34 L 62 34 z M 64 36 L 64 38 L 66 38 L 66 36 L 64 36 z M 66 36 L 68 36 L 68 34 L 66 34 L 66 36 z M 68 36 L 68 38 L 70 38 L 70 36 L 68 36 z M 70 36 L 72 36 L 72 34 L 70 34 L 70 36 z M 72 36 L 72 38 L 74 38 L 74 36 L 72 36 z M 74 36 L 76 36 L 76 34 L 74 34 L 74 36 z M 76 36 L 76 38 L 78 38 L 78 36 L 76 36 z M 78 36 L 80 36 L 80 34 L 78 34 L 78 36 z M 80 36 L 80 38 L 82 38 L 82 36 L 80 36 z M 82 36 L 84 36 L 84 34 L 82 34 L 82 36 z M 84 36 L 84 38 L 86 38 L 86 36 L 84 36 z M 86 36 L 88 36 L 88 34 L 86 34 L 86 36 z M 88 36 L 88 38 L 90 38 L 90 36 L 88 36 z M 90 36 L 92 36 L 92 34 L 90 34 L 90 36 z M 92 36 L 92 38 L 94 38 L 94 36 L 92 36 z M 94 36 L 96 36 L 96 34 L 94 34 L 94 36 z M 96 36 L 96 38 L 98 38 L 98 36 L 96 36 z M 98 36 L 100 36 L 100 34 L 98 34 L 98 36 z M 100 36 L 100 38 L 102 38 L 102 36 L 100 36 z M 102 36 L 104 36 L 104 34 L 102 34 L 102 36 z M 104 36 L 104 38 L 106 38 L 106 36 L 104 36 z M 106 36 L 108 36 L 108 34 L 106 34 L 106 36 z M 108 36 L 108 38 L 110 38 L 110 36 L 108 36 z M 110 36 L 112 36 L 112 34 L 110 34 L 110 36 z M 112 36 L 112 38 L 114 38 L 114 36 L 112 36 z M 114 36 L 116 36 L 116 34 L 114 34 L 114 36 z M 116 36 L 116 38 L 118 38 L 118 36 L 116 36 z M 116 38 L 114 38 L 114 40 L 116 40 L 116 38 z M 116 40 L 116 42 L 118 42 L 118 40 L 116 40 z M 116 42 L 114 42 L 114 44 L 116 44 L 116 42 z M 116 44 L 116 46 L 118 46 L 118 44 L 116 44 z M 116 46 L 114 46 L 114 48 L 116 48 L 116 46 z M 116 48 L 116 50 L 118 50 L 118 48 L 116 48 z M 116 50 L 114 50 L 114 52 L 116 52 L 116 50 z M 114 50 L 114 48 L 112 48 L 112 50 L 114 50 z M 112 50 L 110 50 L 110 52 L 112 52 L 112 50 z M 110 50 L 110 48 L 108 48 L 108 50 L 110 50 z M 108 50 L 106 50 L 106 52 L 108 52 L 108 50 z M 106 50 L 106 48 L 104 48 L 104 50 L 106 50 z M 104 50 L 102 50 L 102 52 L 104 52 L 104 50 z M 102 50 L 102 48 L 100 48 L 100 50 L 102 50 z M 100 50 L 98 50 L 98 52 L 100 52 L 100 50 z M 98 50 L 98 48 L 96 48 L 96 50 L 98 50 z M 96 50 L 94 50 L 94 52 L 96 52 L 96 50 z M 94 50 L 94 48 L 92 48 L 92 50 L 94 50 z M 92 50 L 90 50 L 90 52 L 92 52 L 92 50 z M 90 50 L 90 48 L 88 48 L 88 50 L 90 50 z M 88 50 L 86 50 L 86 52 L 88 52 L 88 50 z M 86 50 L 86 48 L 84 48 L 84 50 L 86 50 z M 84 50 L 82 50 L 82 52 L 84 52 L 84 50 z M 82 50 L 82 48 L 80 48 L 80 50 L 82 50 z M 80 50 L 78 50 L 78 52 L 80 52 L 80 50 z M 78 50 L 78 48 L 76 48 L 76 50 L 78 50 z M 76 50 L 74 50 L 74 52 L 76 52 L 76 50 z M 74 50 L 74 48 L 72 48 L 72 50 L 74 50 z M 72 50 L 70 50 L 70 52 L 72 52 L 72 50 z M 70 50 L 70 48 L 68 48 L 68 50 L 70 50 z M 68 50 L 66 50 L 66 52 L 68 52 L 68 50 z M 66 50 L 66 48 L 64 48 L 64 50 L 66 50 z M 64 50 L 62 50 L 62 52 L 64 52 L 64 50 z M 62 50 L 62 48 L 60 48 L 60 50 L 62 50 z M 60 50 L 58 50 L 58 52 L 60 52 L 60 50 z M 58 52 L 56 52 L 56 54 L 58 54 L 58 52 z M 56 54 L 54 54 L 54 56 L 56 56 L 56 54 z M 54 56 L 52 56 L 52 58 L 54 58 L 54 56 z M 52 58 L 50 58 L 50 60 L 52 60 L 52 58 z M 50 58 L 50 56 L 48 56 L 48 58 L 50 58 z M 48 58 L 46 58 L 46 60 L 48 60 L 48 58 z M 46 58 L 46 56 L 44 56 L 44 58 L 46 58 z M 44 58 L 42 58 L 42 60 L 44 60 L 44 58 z M 42 58 L 42 56 L 40 56 L 40 58 L 42 58 z M 40 58 L 38 58 L 38 60 L 40 60 L 40 58 z M 38 58 L 38 56 L 36 56 L 36 58 L 38 58 z M 36 58 L 34 58 L 34 60 L 36 60 L 36 58 z M 34 58 L 34 56 L 32 56 L 32 58 L 34 58 z M 32 58 L 30 58 L 30 60 L 32 60 L 32 58 z M 30 58 L 30 56 L 28 56 L 28 58 L 30 58 z M 28 58 L 26 58 L 26 60 L 28 60 L 28 58 z M 26 58 L 26 56 L 24 56 L 24 58 L 26 58 z M 24 58 L 22 58 L 22 60 L 24 60 L 24 58 z M 22 58 L 22 56 L 20 56 L 20 58 L 22 58 z M 20 58 L 18 58 L 18 60 L 20 60 L 20 58 z M 18 58 L 18 56 L 16 56 L 16 58 L 18 58 z M 16 58 L 14 58 L 14 60 L 16 60 L 16 58 z M 14 58 L 14 56 L 12 56 L 12 58 L 14 58 z M 12 58 L 10 58 L 10 60 L 12 60 L 12 58 z M 12 56 L 12 54 L 10 54 L 10 56 L 12 56 z M 12 54 L 14 54 L 14 52 L 12 52 L 12 54 z M 12 52 L 12 50 L 10 50 L 10 52 L 12 52 z M 12 50 L 14 50 L 14 48 L 12 48 L 12 50 z M 12 48 L 12 46 L 10 46 L 10 48 L 12 48 z M 12 46 L 14 46 L 14 44 L 12 44 L 12 46 z M 12 44 L 12 42 L 10 42 L 10 44 L 12 44 z M 12 42 L 14 42 L 14 40 L 12 40 L 12 42 z M 12 40 L 12 38 L 10 38 L 10 40 L 12 40 z M 12 38 L 14 38 L 14 36 L 12 36 L 12 38 z M 12 36 L 12 34 L 10 34 L 10 36 L 12 36 z M 12 34 L 14 34 L 14 32 L 12 32 L 12 34 z M 12 32 L 12 30 L 10 30 L 10 32 L 12 32 z M 12 30 L 14 30 L 14 28 L 12 28 L 12 30 z M 14 30 L 14 32 L 16 32 L 16 30 L 14 30 z M 16 30 L 18 30 L 18 28 L 16 28 L 16 30 z M 18 30 L 18 32 L 20 32 L 20 30 L 18 30 z M 20 30 L 22 30 L 22 28 L 20 28 L 20 30 z M 22 30 L 22 32 L 24 32 L 24 30 L 22 30 z M 24 30 L 26 30 L 26 28 L 24 28 L 24 30 z M 26 30 L 26 32 L 28 32 L 28 30 L 26 30 z M 28 30 L 30 30 L 30 28 L 28 28 L 28 30 z M 30 30 L 30 32 L 32 32 L 32 30 L 30 30 z M 32 30 L 34 30 L 34 28 L 32 28 L 32 30 z M 34 30 L 34 32 L 36 32 L 36 30 L 34 30 z M 36 30 L 38 30 L 38 28 L 36 28 L 36 30 z M 38 30 L 38 32 L 40 32 L 40 30 L 38 30 z M 40 30 L 42 30 L 42 28 L 40 28 L 40 30 z M 42 30 L 42 32 L 44 32 L 44 30 L 42 30 z M 44 30 L 46 30 L 46 28 L 44 28 L 44 30 z M 46 30 L 46 32 L 48 32 L 48 30 L 46 30 z M 48 30 L 50 30 L 50 28 L 48 28 L 48 30 z M 50 30 L 50 32 L 52 32 L 52 30 L 50 30 z M 52 30 L 54 30 L 54 28 L 52 28 L 52 30 z M 54 30 L 54 32 L 56 32 L 56 30 L 54 30 z M 56 32 L 56 34 L 58 34 L 58 32 L 56 32 z M 58 34 L 58 36 L 60 36 L 60 34 L 58 34 z M 60 36 L 60 38 L 62 38 L 62 36 L 60 36 z M 62 38 L 62 40 L 64 40 L 64 38 L 62 38 z M 64 40 L 64 42 L 66 42 L 66 40 L 64 40 z M 66 40 L 68 40 L 68 38 L 66 38 L 66 40 z M 68 40 L 68 42 L 70 42 L 70 40 L 68 40 z M 70 40 L 72 40 L 72 38 L 70 38 L 70 40 z M 72 40 L 72 42 L 74 42 L 74 40 L 72 40 z M 74 40 L 76 40 L 76 38 L 74 38 L 74 40 z M 76 40 L 76 42 L 78 42 L 78 40 L 76 40 z M 78 40 L 80 40 L 80 38 L 78 38 L 78 40 z M 80 40 L 80 42 L 82 42 L 82 40 L 80 40 z M 82 40 L 84 40 L 84 38 L 82 38 L 82 40 z M 84 40 L 84 42 L 86 42 L 86 40 L 84 40 z M 86 40 L 88 40 L 88 38 L 86 38 L 86 40 z M 88 40 L 88 42 L 90 42 L 90 40 L 88 40 z M 90 40 L 92 40 L 92 38 L 90 38 L 90 40 z M 92 40 L 92 42 L 94 42 L 94 40 L 92 40 z M 94 40 L 96 40 L 96 38 L 94 38 L 94 40 z M 96 40 L 96 42 L 98 42 L 98 40 L 96 40 z M 98 40 L 100 40 L 100 38 L 98 38 L 98 40 z M 100 40 L 100 42 L 102 42 L 102 40 L 100 40 z M 102 40 L 104 40 L 104 38 L 102 38 L 102 40 z M 104 40 L 104 42 L 106 42 L 106 40 L 104 40 z M 106 40 L 108 40 L 108 38 L 106 38 L 106 40 z M 108 40 L 108 42 L 110 42 L 110 40 L 108 40 z M 110 40 L 112 40 L 112 38 L 110 38 L 110 40 z M 112 40 L 112 42 L 114 42 L 114 40 L 112 40 z M 112 42 L 110 42 L 110 44 L 112 44 L 112 42 z M 112 44 L 112 46 L 114 46 L 114 44 L 112 44 z M 112 46 L 110 46 L 110 48 L 112 48 L 112 46 z M 110 46 L 110 44 L 108 44 L 108 46 L 110 46 z M 108 46 L 106 46 L 106 48 L 108 48 L 108 46 z M 106 46 L 106 44 L 104 44 L 104 46 L 106 46 z M 104 46 L 102 46 L 102 48 L 104 48 L 104 46 z M 102 46 L 102 44 L 100 44 L 100 46 L 102 46 z M 100 46 L 98 46 L 98 48 L 100 48 L 100 46 z M 98 46 L 98 44 L 96 44 L 96 46 L 98 46 z M 96 46 L 94 46 L 94 48 L 96 48 L 96 46 z M 94 46 L 94 44 L 92 44 L 92 46 L 94 46 z M 92 46 L 90 46 L 90 48 L 92 48 L 92 46 z M 90 46 L 90 44 L 88 44 L 88 46 L 90 46 z M 88 46 L 86 46 L 86 48 L 88 48 L 88 46 z M 86 46 L 86 44 L 84 44 L 84 46 L 86 46 z M 84 46 L 82 46 L 82 48 L 84 48 L 84 46 z M 82 46 L 82 44 L 80 44 L 80 46 L 82 46 z M 80 46 L 78 46 L 78 48 L 80 48 L 80 46 z M 78 46 L 78 44 L 76 44 L 76 46 L 78 46 z M 76 46 L 74 46 L 74 48 L 76 48 L 76 46 z M 74 46 L 74 44 L 72 44 L 72 46 L 74 46 z M 72 46 L 70 46 L 70 48 L 72 48 L 72 46 z M 70 46 L 70 44 L 68 44 L 68 46 L 70 46 z M 68 46 L 66 46 L 66 48 L 68 48 L 68 46 z M 66 46 L 66 44 L 64 44 L 64 46 L 66 46 z M 64 46 L 62 46 L 62 48 L 64 48 L 64 46 z M 62 46 L 62 44 L 60 44 L 60 46 L 62 46 z M 60 46 L 58 46 L 58 48 L 60 48 L 60 46 z M 58 48 L 56 48 L 56 50 L 58 50 L 58 48 z M 56 50 L 54 50 L 54 52 L 56 52 L 56 50 z M 54 52 L 52 52 L 52 54 L 54 54 L 54 52 z M 52 54 L 50 54 L 50 56 L 52 56 L 52 54 z M 50 54 L 50 52 L 48 52 L 48 54 L 50 54 z M 48 54 L 46 54 L 46 56 L 48 56 L 48 54 z M 46 54 L 46 52 L 44 52 L 44 54 L 46 54 z M 44 54 L 42 54 L 42 56 L 44 56 L 44 54 z M 42 54 L 42 52 L 40 52 L 40 54 L 42 54 z M 40 54 L 38 54 L 38 56 L 40 56 L 40 54 z M 38 54 L 38 52 L 36 52 L 36 54 L 38 54 z M 36 54 L 34 54 L 34 56 L 36 56 L 36 54 z M 34 54 L 34 52 L 32 52 L 32 54 L 34 54 z M 32 54 L 30 54 L 30 56 L 32 56 L 32 54 z M 30 54 L 30 52 L 28 52 L 28 54 L 30 54 z M 28 54 L 26 54 L 26 56 L 28 56 L 28 54 z M 26 54 L 26 52 L 24 52 L 24 54 L 26 54 z M 24 54 L 22 54 L 22 56 L 24 56 L 24 54 z M 22 54 L 22 52 L 20 52 L 20 54 L 22 54 z M 20 54 L 18 54 L 18 56 L 20 56 L 20 54 z M 18 54 L 18 52 L 16 52 L 16 54 L 18 54 z M 16 54 L 14 54 L 14 56 L 16 56 L 16 54 z M 16 52 L 16 50 L 14 50 L 14 52 L 16 52 z M 16 50 L 18 50 L 18 48 L 16 48 L 16 50 z M 16 48 L 16 46 L 14 46 L 14 48 L 16 48 z M 16 46 L 18 46 L 18 44 L 16 44 L 16 46 z M 16 44 L 16 42 L 14 42 L 14 44 L 16 44 z M 16 42 L 18 42 L 18 40 L 16 40 L 16 42 z M 16 40 L 16 38 L 14 38 L 14 40 L 16 40 z M 16 38 L 18 38 L 18 36 L 16 36 L 16 38 z M 16 36 L 16 34 L 14 34 L 14 36 L 16 36 z M 16 34 L 18 34 L 18 32 L 16 32 L 16 34 z M 18 34 L 18 36 L 20 36 L 20 34 L 18 34 z M 20 34 L 22 34 L 22 32 L 20 32 L 20 34 z M 22 34 L 22 36 L 24 36 L 24 34 L 22 34 z M 24 34 L 26 34 L 26 32 L 24 32 L 24 34 z M 26 34 L 26 36 L 28 36 L 28 34 L 26 34 z M 28 34 L 30 34 L 30 32 L 28 32 L 28 34 z M 30 34 L 30 36 L 32 36 L 32 34 L 30 34 z M 32 34 L 34 34 L 34 32 L 32 32 L 32 34 z M 34 34 L 34 36 L 36 36 L 36 34 L 34 34 z M 36 34 L 38 34 L 38 32 L 36 32 L 36 34 z M 38 34 L 38 36 L 40 36 L 40 34 L 38 34 z M 40 34 L 42 34 L 42 32 L 40 32 L 40 34 z M 42 34 L 42 36 L 44 36 L 44 34 L 42 34 z M 44 34 L 46 34 L 46 32 L 44 32 L 44 34 z M 46 34 L 46 36 L 48 36 L 48 34 L 46 34 z M 48 34 L 50 34 L 50 32 L 48 32 L 48 34 z M 50 34 L 50 36 L 52 36 L 52 34 L 50 34 z M 52 34 L 54 34 L 54 32 L 52 32 L 52 34 z M 54 34 L 54 36 L 56 36 L 56 34 L 54 34 z M 56 36 L 56 38 L 58 38 L 58 36 L 56 36 z M 58 38 L 58 40 L 60 40 L 60 38 L 58 38 z M 60 40 L 60 42 L 62 42 L 62 40 L 60 40 z M 62 42 L 62 44 L 64 44 L 64 42 L 62 42 z M 60 42 L 58 42 L 58 44 L 60 44 L 60 42 z M 58 44 L 56 44 L 56 46 L 58 46 L 58 44 z M 56 46 L 54 46 L 54 48 L 56 48 L 56 46 z M 54 48 L 52 48 L 52 50 L 54 50 L 54 48 z M 52 50 L 50 50 L 50 52 L 52 52 L 52 50 z M 50 50 L 50 48 L 48 48 L 48 50 L 50 50 z M 48 50 L 46 50 L 46 52 L 48 52 L 48 50 z M 46 50 L 46 48 L 44 48 L 44 50 L 46 50 z M 44 50 L 42 50 L 42 52 L 44 52 L 44 50 z M 42 50 L 42 48 L 40 48 L 40 50 L 42 50 z M 40 50 L 38 50 L 38 52 L 40 52 L 40 50 z M 38 50 L 38 48 L 36 48 L 36 50 L 38 50 z M 36 50 L 34 50 L 34 52 L 36 52 L 36 50 z M 34 50 L 34 48 L 32 48 L 32 50 L 34 50 z M 32 50 L 30 50 L 30 52 L 32 52 L 32 50 z M 30 50 L 30 48 L 28 48 L 28 50 L 30 50 z M 28 50 L 26 50 L 26 52 L 28 52 L 28 50 z M 26 50 L 26 48 L 24 48 L 24 50 L 26 50 z M 24 50 L 22 50 L 22 52 L 24 52 L 24 50 z M 22 50 L 22 48 L 20 48 L 20 50 L 22 50 z M 20 50 L 18 50 L 18 52 L 20 52 L 20 50 z M 20 48 L 20 46 L 18 46 L 18 48 L 20 48 z M 20 46 L 22 46 L 22 44 L 20 44 L 20 46 z M 20 44 L 20 42 L 18 42 L 18 44 L 20 44 z M 20 42 L 22 42 L 22 40 L 20 40 L 20 42 z M 20 40 L 20 38 L 18 38 L 18 40 L 20 40 z M 20 38 L 22 38 L 22 36 L 20 36 L 20 38 z M 22 38 L 22 40 L 24 40 L 24 38 L 22 38 z M 24 38 L 26 38 L 26 36 L 24 36 L 24 38 z M 26 38 L 26 40 L 28 40 L 28 38 L 26 38 z M 28 38 L 30 38 L 30 36 L 28 36 L 28 38 z M 30 38 L 30 40 L 32 40 L 32 38 L 30 38 z M 32 38 L 34 38 L 34 36 L 32 36 L 32 38 z M 34 38 L 34 40 L 36 40 L 36 38 L 34 38 z M 36 38 L 38 38 L 38 36 L 36 36 L 36 38 z M 38 38 L 38 40 L 40 40 L 40 38 L 38 38 z M 40 38 L 42 38 L 42 36 L 40 36 L 40 38 z M 42 38 L 42 40 L 44 40 L 44 38 L 42 38 z M 44 38 L 46 38 L 46 36 L 44 36 L 44 38 z M 46 38 L 46 40 L 48 40 L 48 38 L 46 38 z M 48 38 L 50 38 L 50 36 L 48 36 L 48 38 z M 50 38 L 50 40 L 52 40 L 52 38 L 50 38 z M 52 38 L 54 38 L 54 36 L 52 36 L 52 38 z M 54 38 L 54 40 L 56 40 L 56 38 L 54 38 z M 56 40 L 56 42 L 58 42 L 58 40 L 56 40 z M 56 42 L 54 42 L 54 44 L 56 44 L 56 42 z M 54 44 L 52 44 L 52 46 L 54 46 L 54 44 z M 52 46 L 50 46 L 50 48 L 52 48 L 52 46 z M 50 46 L 50 44 L 48 44 L 48 46 L 50 46 z M 48 46 L 46 46 L 46 48 L 48 48 L 48 46 z M 46 46 L 46 44 L 44 44 L 44 46 L 46 46 z M 44 46 L 42 46 L 42 48 L 44 48 L 44 46 z M 42 46 L 42 44 L 40 44 L 40 46 L 42 46 z M 40 46 L 38 46 L 38 48 L 40 48 L 40 46 z M 38 46 L 38 44 L 36 44 L 36 46 L 38 46 z M 36 46 L 34 46 L 34 48 L 36 48 L 36 46 z M 34 46 L 34 44 L 32 44 L 32 46 L 34 46 z M 32 46 L 30 46 L 30 48 L 32 48 L 32 46 z M 30 46 L 30 44 L 28 44 L 28 46 L 30 46 z M 28 46 L 26 46 L 26 48 L 28 48 L 28 46 z M 26 46 L 26 44 L 24 44 L 24 46 L 26 46 z M 24 46 L 22 46 L 22 48 L 24 48 L 24 46 z M 24 44 L 24 42 L 22 42 L 22 44 L 24 44 z M 24 42 L 26 42 L 26 40 L 24 40 L 24 42 z M 26 42 L 26 44 L 28 44 L 28 42 L 26 42 z M 28 42 L 30 42 L 30 40 L 28 40 L 28 42 z M 30 42 L 30 44 L 32 44 L 32 42 L 30 42 z M 32 42 L 34 42 L 34 40 L 32 40 L 32 42 z M 34 42 L 34 44 L 36 44 L 36 42 L 34 42 z M 36 42 L 38 42 L 38 40 L 36 40 L 36 42 z M 38 42 L 38 44 L 40 44 L 40 42 L 38 42 z M 40 42 L 42 42 L 42 40 L 40 40 L 40 42 z M 42 42 L 42 44 L 44 44 L 44 42 L 42 42 z M 44 42 L 46 42 L 46 40 L 44 40 L 44 42 z M 46 42 L 46 44 L 48 44 L 48 42 L 46 42 z M 48 42 L 50 42 L 50 40 L 48 40 L 48 42 z M 50 42 L 50 44 L 52 44 L 52 42 L 50 42 z M 52 42 L 54 42 L 54 40 L 52 40 L 52 42 z M 66 44 L 68 44 L 68 42 L 66 42 L 66 44 z M 70 44 L 72 44 L 72 42 L 70 42 L 70 44 z M 74 44 L 76 44 L 76 42 L 74 42 L 74 44 z M 78 44 L 80 44 L 80 42 L 78 42 L 78 44 z M 82 44 L 84 44 L 84 42 L 82 42 L 82 44 z M 86 44 L 88 44 L 88 42 L 86 42 L 86 44 z M 90 44 L 92 44 L 92 42 L 90 42 L 90 44 z M 94 44 L 96 44 L 96 42 L 94 42 L 94 44 z M 98 44 L 100 44 L 100 42 L 98 42 L 98 44 z M 102 44 L 104 44 L 104 42 L 102 42 L 102 44 z M 106 44 L 108 44 L 108 42 L 106 42 L 106 44 z M 60 58 L 60 60 L 62 60 L 62 58 L 60 58 z M 62 60 L 62 62 L 64 62 L 64 60 L 62 60 z M 64 60 L 66 60 L 66 58 L 64 58 L 64 60 z M 66 60 L 66 62 L 68 62 L 68 60 L 66 60 z M 68 60 L 70 60 L 70 58 L 68 58 L 68 60 z M 70 60 L 70 62 L 72 62 L 72 60 L 70 60 z M 72 60 L 74 60 L 74 58 L 72 58 L 72 60 z M 74 60 L 74 62 L 76 62 L 76 60 L 74 60 z M 76 60 L 78 60 L 78 58 L 76 58 L 76 60 z M 78 60 L 78 62 L 80 62 L 80 60 L 78 60 z M 80 60 L 82 60 L 82 58 L 80 58 L 80 60 z M 82 60 L 82 62 L 84 62 L 84 60 L 82 60 z M 84 60 L 86 60 L 86 58 L 84 58 L 84 60 z M 86 60 L 86 62 L 88 62 L 88 60 L 86 60 z M 88 60 L 90 60 L 90 58 L 88 58 L 88 60 z M 90 60 L 90 62 L 92 62 L 92 60 L 90 60 z M 92 60 L 94 60 L 94 58 L 92 58 L 92 60 z M 94 60 L 94 62 L 96 62 L 96 60 L 94 60 z M 96 60 L 98 60 L 98 58 L 96 58 L 96 60 z M 98 60 L 98 62 L 100 62 L 100 60 L 98 60 z M 100 60 L 102 60 L 102 58 L 100 58 L 100 60 z M 102 60 L 102 62 L 104 62 L 104 60 L 102 60 z M 104 60 L 106 60 L 106 58 L 104 58 L 104 60 z M 106 60 L 106 62 L 108 62 L 108 60 L 106 60 z M 108 60 L 110 60 L 110 58 L 108 58 L 108 60 z M 110 60 L 110 62 L 112 62 L 112 60 L 110 60 z M 112 60 L 114 60 L 114 58 L 112 58 L 112 60 z M 114 60 L 114 62 L 116 62 L 116 60 L 114 60 z M 116 60 L 118 60 L 118 58 L 116 58 L 116 60 z M 118 60 L 118 62 L 120 62 L 120 60 L 118 60 z M 120 60 L 122 60 L 122 58 L 120 58 L 120 60 z M 120 62 L 120 64 L 122 64 L 122 62 L 120 62 z M 120 64 L 118 64 L 118 66 L 120 66 L 120 64 z M 120 66 L 120 68 L 122 68 L 122 66 L 120 66 z M 120 68 L 118 68 L 118 70 L 120 70 L 120 68 z M 120 70 L 120 72 L 122 72 L 122 70 L 120 70 z M 120 72 L 118 72 L 118 74 L 120 74 L 120 72 z M 120 74 L 120 76 L 122 76 L 122 74 L 120 74 z M 120 76 L 118 76 L 118 78 L 120 78 L 120 76 z M 120 78 L 120 80 L 122 80 L 122 78 L 120 78 z M 120 80 L 118 80 L 118 82 L 120 82 L 120 80 z M 120 82 L 120 84 L 122 84 L 122 82 L 120 82 z M 120 84 L 118 84 L 118 86 L 120 86 L 120 84 z M 120 86 L 120 88 L 122 88 L 122 86 L 120 86 z M 120 88 L 118 88 L 118 90 L 120 90 L 120 88 z M 120 90 L 120 92 L 122 92 L 122 90 L 120 90 z M 120 92 L 118 92 L 118 94 L 120 94 L 120 92 z M 120 94 L 120 96 L 122 96 L 122 94 L 120 94 z M 120 96 L 118 96 L 118 98 L 120 98 L 120 96 z M 120 98 L 120 100 L 122 100 L 122 98 L 120 98 z M 120 100 L 118 100 L 118 102 L 120 102 L 120 100 z M 120 102 L 120 104 L 122 104 L 122 102 L 120 102 z M 120 104 L 118 104 L 118 106 L 120 106 L 120 104 z M 120 106 L 120 108 L 122 108 L 122 106 L 120 106 z M 120 108 L 118 108 L 118 110 L 120 110 L 120 108 z M 120 110 L 120 112 L 122 112 L 122 110 L 120 110 z M 120 112 L 118 112 L 118 114 L 120 114 L 120 112 z M 118 112 L 118 110 L 116 110 L 116 112 L 118 112 z M 116 112 L 114 112 L 114 114 L 116 114 L 116 112 z M 114 112 L 114 110 L 112 110 L 112 112 L 114 112 z M 112 112 L 110 112 L 110 114 L 112 114 L 112 112 z M 110 112 L 110 110 L 108 110 L 108 112 L 110 112 z M 108 112 L 106 112 L 106 114 L 108 114 L 108 112 z M 106 112 L 106 110 L 104 110 L 104 112 L 106 112 z M 104 112 L 102 112 L 102 114 L 104 114 L 104 112 z M 102 112 L 102 110 L 100 110 L 100 112 L 102 112 z M 100 112 L 98 112 L 98 114 L 100 114 L 100 112 z M 98 112 L 98 110 L 96 110 L 96 112 L 98 112 z M 96 112 L 94 112 L 94 114 L 96 114 L 96 112 z M 94 112 L 94 110 L 92 110 L 92 112 L 94 112 z M 92 112 L 90 112 L 90 114 L 92 114 L 92 112 z M 90 112 L 90 110 L 88 110 L 88 112 L 90 112 z M 88 112 L 86 112 L 86 114 L 88 114 L 88 112 z M 86 112 L 86 110 L 84 110 L 84 112 L 86 112 z M 84 112 L 82 112 L 82 114 L 84 114 L 84 112 z M 82 112 L 82 110 L 80 110 L 80 112 L 82 112 z M 80 112 L 78 112 L 78 114 L 80 114 L 80 112 z M 78 112 L 78 110 L 76 110 L 76 112 L 78 112 z M 76 112 L 74 112 L 74 114 L 76 114 L 76 112 z M 74 112 L 74 110 L 72 110 L 72 112 L 74 112 z M 72 112 L 70 112 L 70 114 L 72 114 L 72 112 z M 70 112 L 70 110 L 68 110 L 68 112 L 70 112 z M 68 112 L 66 112 L 66 114 L 68 114 L 68 112 z M 66 112 L 66 110 L 64 110 L 64 112 L 66 112 z M 64 112 L 62 112 L 62 114 L 64 114 L 64 112 z M 62 112 L 62 110 L 60 110 L 60 112 L 62 112 z M 60 112 L 58 112 L 58 114 L 60 114 L 60 112 z M 58 112 L 58 110 L 56 110 L 56 112 L 58 112 z M 56 112 L 54 112 L 54 114 L 56 114 L 56 112 z M 54 112 L 54 110 L 52 110 L 52 112 L 54 112 z M 52 112 L 50 112 L 50 114 L 52 114 L 52 112 z M 50 112 L 50 110 L 48 110 L 48 112 L 50 112 z M 48 112 L 46 112 L 46 114 L 48 114 L 48 112 z M 46 112 L 46 110 L 44 110 L 44 112 L 46 112 z M 44 112 L 42 112 L 42 114 L 44 114 L 44 112 z M 42 112 L 42 110 L 40 110 L 40 112 L 42 112 z M 40 112 L 38 112 L 38 114 L 40 114 L 40 112 z M 38 112 L 38 110 L 36 110 L 36 112 L 38 112 z M 36 112 L 34 112 L 34 114 L 36 114 L 36 112 z M 34 112 L 34 110 L 32 110 L 32 112 L 34 112 z M 32 112 L 30 112 L 30 114 L 32 114 L 32 112 z M 30 112 L 30 110 L 28 110 L 28 112 L 30 112 z M 28 112 L 26 112 L 26 114 L 28 114 L 28 112 z M 26 112 L 26 110 L 24 110 L 24 112 L 26 112 z M 24 112 L 22 112 L 22 114 L 24 114 L 24 112 z M 22 112 L 22 110 L 20 110 L 20 112 L 22 112 z M 20 112 L 18 112 L 18 114 L 20 114 L 20 112 z M 18 112 L 18 110 L 16 110 L 16 112 L 18 112 z M 16 112 L 14 112 L 14 114 L 16 114 L 16 112 z M 14 112 L 14 110 L 12 110 L 12 112 L 14 112 z M 12 112 L 10 112 L 10 114 L 12 114 L 12 112 z M 10 112 L 10 110 L 8 110 L 8 112 L 10 112 z M 8 112 L 6 112 L 6 114 L 8 114 L 8 112 z M 8 110 L 8 108 L 6 108 L 6 110 L 8 110 z M 8 108 L 10 108 L 10 106 L 8 106 L 8 108 z M 8 106 L 8 104 L 6 104 L 6 106 L 8 106 z M 8 104 L 10 104 L 10 102 L 8 102 L 8 104 z M 8 102 L 8 100 L 6 100 L 6 102 L 8 102 z M 8 100 L 10 100 L 10 98 L 8 98 L 8 100 z M 8 98 L 8 96 L 6 96 L 6 98 L 8 98 z M 8 96 L 10 96 L 10 94 L 8 94 L 8 96 z M 8 94 L 8 92 L 6 92 L 6 94 L 8 94 z M 8 92 L 10 92 L 10 90 L 8 90 L 8 92 z M 8 90 L 8 88 L 6 88 L 6 90 L 8 90 z M 8 88 L 10 88 L 10 86 L 8 86 L 8 88 z M 8 86 L 8 84 L 6 84 L 6 86 L 8 86 z M 8 84 L 10 84 L 10 82 L 8 82 L 8 84 z M 8 82 L 8 80 L 6 80 L 6 82 L 8 82 z M 8 80 L 10 80 L 10 78 L 8 78 L 8 80 z M 8 78 L 8 76 L 6 76 L 6 78 L 8 78 z M 8 76 L 10 76 L 10 74 L 8 74 L 8 76 z M 8 74 L 8 72 L 6 72 L 6 74 L 8 74 z M 8 72 L 10 72 L 10 70 L 8 70 L 8 72 z M 8 70 L 8 68 L 6 68 L 6 70 L 8 70 z M 8 68 L 10 68 L 10 66 L 8 66 L 8 68 z M 10 68 L 10 70 L 12 70 L 12 68 L 10 68 z M 12 68 L 14 68 L 14 66 L 12 66 L 12 68 z M 14 68 L 14 70 L 16 70 L 16 68 L 14 68 z M 16 68 L 18 68 L 18 66 L 16 66 L 16 68 z M 18 68 L 18 70 L 20 70 L 20 68 L 18 68 z M 20 68 L 22 68 L 22 66 L 20 66 L 20 68 z M 22 68 L 22 70 L 24 70 L 24 68 L 22 68 z M 24 68 L 26 68 L 26 66 L 24 66 L 24 68 z M 26 68 L 26 70 L 28 70 L 28 68 L 26 68 z M 28 68 L 30 68 L 30 66 L 28 66 L 28 68 z M 30 68 L 30 70 L 32 70 L 32 68 L 30 68 z M 32 68 L 34 68 L 34 66 L 32 66 L 32 68 z M 34 68 L 34 70 L 36 70 L 36 68 L 34 68 z M 36 68 L 38 68 L 38 66 L 36 66 L 36 68 z M 38 68 L 38 70 L 40 70 L 40 68 L 38 68 z M 40 68 L 42 68 L 42 66 L 40 66 L 40 68 z M 42 68 L 42 70 L 44 70 L 44 68 L 42 68 z M 44 68 L 46 68 L 46 66 L 44 66 L 44 68 z M 46 68 L 46 70 L 48 70 L 48 68 L 46 68 z M 48 68 L 50 68 L 50 66 L 48 66 L 48 68 z M 50 68 L 50 70 L 52 70 L 52 68 L 50 68 z M 52 68 L 54 68 L 54 66 L 52 66 L 52 68 z M 54 66 L 56 66 L 56 64 L 54 64 L 54 66 z M 56 64 L 58 64 L 58 62 L 56 62 L 56 64 z M 58 62 L 60 62 L 60 60 L 58 60 L 58 62 z M 60 62 L 60 64 L 62 64 L 62 62 L 60 62 z M 62 64 L 62 66 L 64 66 L 64 64 L 62 64 z M 64 64 L 66 64 L 66 62 L 64 62 L 64 64 z M 66 64 L 66 66 L 68 66 L 68 64 L 66 64 z M 68 64 L 70 64 L 70 62 L 68 62 L 68 64 z M 70 64 L 70 66 L 72 66 L 72 64 L 70 64 z M 72 64 L 74 64 L 74 62 L 72 62 L 72 64 z M 74 64 L 74 66 L 76 66 L 76 64 L 74 64 z M 76 64 L 78 64 L 78 62 L 76 62 L 76 64 z M 78 64 L 78 66 L 80 66 L 80 64 L 78 64 z M 80 64 L 82 64 L 82 62 L 80 62 L 80 64 z M 82 64 L 82 66 L 84 66 L 84 64 L 82 64 z M 84 64 L 86 64 L 86 62 L 84 62 L 84 64 z M 86 64 L 86 66 L 88 66 L 88 64 L 86 64 z M 88 64 L 90 64 L 90 62 L 88 62 L 88 64 z M 90 64 L 90 66 L 92 66 L 92 64 L 90 64 z M 92 64 L 94 64 L 94 62 L 92 62 L 92 64 z M 94 64 L 94 66 L 96 66 L 96 64 L 94 64 z M 96 64 L 98 64 L 98 62 L 96 62 L 96 64 z M 98 64 L 98 66 L 100 66 L 100 64 L 98 64 z M 100 64 L 102 64 L 102 62 L 100 62 L 100 64 z M 102 64 L 102 66 L 104 66 L 104 64 L 102 64 z M 104 64 L 106 64 L 106 62 L 104 62 L 104 64 z M 106 64 L 106 66 L 108 66 L 108 64 L 106 64 z M 108 64 L 110 64 L 110 62 L 108 62 L 108 64 z M 110 64 L 110 66 L 112 66 L 112 64 L 110 64 z M 112 64 L 114 64 L 114 62 L 112 62 L 112 64 z M 114 64 L 114 66 L 116 66 L 116 64 L 114 64 z M 116 64 L 118 64 L 118 62 L 116 62 L 116 64 z M 116 66 L 116 68 L 118 68 L 118 66 L 116 66 z M 116 68 L 114 68 L 114 70 L 116 70 L 116 68 z M 116 70 L 116 72 L 118 72 L 118 70 L 116 70 z M 116 72 L 114 72 L 114 74 L 116 74 L 116 72 z M 116 74 L 116 76 L 118 76 L 118 74 L 116 74 z M 116 76 L 114 76 L 114 78 L 116 78 L 116 76 z M 116 78 L 116 80 L 118 80 L 118 78 L 116 78 z M 116 80 L 114 80 L 114 82 L 116 82 L 116 80 z M 116 82 L 116 84 L 118 84 L 118 82 L 116 82 z M 116 84 L 114 84 L 114 86 L 116 86 L 116 84 z M 116 86 L 116 88 L 118 88 L 118 86 L 116 86 z M 116 88 L 114 88 L 114 90 L 116 90 L 116 88 z M 116 90 L 116 92 L 118 92 L 118 90 L 116 90 z M 116 92 L 114 92 L 114 94 L 116 94 L 116 92 z M 116 94 L 116 96 L 118 96 L 118 94 L 116 94 z M 116 96 L 114 96 L 114 98 L 116 98 L 116 96 z M 116 98 L 116 100 L 118 100 L 118 98 L 116 98 z M 116 100 L 114 100 L 114 102 L 116 102 L 116 100 z M 116 102 L 116 104 L 118 104 L 118 102 L 116 102 z M 116 104 L 114 104 L 114 106 L 116 106 L 116 104 z M 116 106 L 116 108 L 118 108 L 118 106 L 116 106 z M 116 108 L 114 108 L 114 110 L 116 110 L 116 108 z M 114 108 L 114 106 L 112 106 L 112 108 L 114 108 z M 112 108 L 110 108 L 110 110 L 112 110 L 112 108 z M 110 108 L 110 106 L 108 106 L 108 108 L 110 108 z M 108 108 L 106 108 L 106 110 L 108 110 L 108 108 z M 106 108 L 106 106 L 104 106 L 104 108 L 106 108 z M 104 108 L 102 108 L 102 110 L 104 110 L 104 108 z M 102 108 L 102 106 L 100 106 L 100 108 L 102 108 z M 100 108 L 98 108 L 98 110 L 100 110 L 100 108 z M 98 108 L 98 106 L 96 106 L 96 108 L 98 108 z M 96 108 L 94 108 L 94 110 L 96 110 L 96 108 z M 94 108 L 94 106 L 92 106 L 92 108 L 94 108 z M 92 108 L 90 108 L 90 110 L 92 110 L 92 108 z M 90 108 L 90 106 L 88 106 L 88 108 L 90 108 z M 88 108 L 86 108 L 86 110 L 88 110 L 88 108 z M 86 108 L 86 106 L 84 106 L 84 108 L 86 108 z M 84 108 L 82 108 L 82 110 L 84 110 L 84 108 z M 82 108 L 82 106 L 80 106 L 80 108 L 82 108 z M 80 108 L 78 108 L 78 110 L 80 110 L 80 108 z M 78 108 L 78 106 L 76 106 L 76 108 L 78 108 z M 76 108 L 74 108 L 74 110 L 76 110 L 76 108 z M 74 108 L 74 106 L 72 106 L 72 108 L 74 108 z M 72 108 L 70 108 L 70 110 L 72 110 L 72 108 z M 70 108 L 70 106 L 68 106 L 68 108 L 70 108 z M 68 108 L 66 108 L 66 110 L 68 110 L 68 108 z M 66 108 L 66 106 L 64 106 L 64 108 L 66 108 z M 64 108 L 62 108 L 62 110 L 64 110 L 64 108 z M 62 108 L 62 106 L 60 106 L 60 108 L 62 108 z M 60 108 L 58 108 L 58 110 L 60 110 L 60 108 z M 58 108 L 58 106 L 56 106 L 56 108 L 58 108 z M 56 108 L 54 108 L 54 110 L 56 110 L 56 108 z M 54 108 L 54 106 L 52 106 L 52 108 L 54 108 z M 52 108 L 50 108 L 50 110 L 52 110 L 52 108 z M 50 108 L 50 106 L 48 106 L 48 108 L 50 108 z M 48 108 L 46 108 L 46 110 L 48 110 L 48 108 z M 46 108 L 46 106 L 44 106 L 44 108 L 46 108 z M 44 108 L 42 108 L 42 110 L 44 110 L 44 108 z M 42 108 L 42 106 L 40 106 L 40 108 L 42 108 z M 40 108 L 38 108 L 38 110 L 40 110 L 40 108 z M 38 108 L 38 106 L 36 106 L 36 108 L 38 108 z M 36 108 L 34 108 L 34 110 L 36 110 L 36 108 z M 34 108 L 34 106 L 32 106 L 32 108 L 34 108 z M 32 108 L 30 108 L 30 110 L 32 110 L 32 108 z M 30 108 L 30 106 L 28 106 L 28 108 L 30 108 z M 28 108 L 26 108 L 26 110 L 28 110 L 28 108 z M 26 108 L 26 106 L 24 106 L 24 108 L 26 108 z M 24 108 L 22 108 L 22 110 L 24 110 L 24 108 z M 22 108 L 22 106 L 20 106 L 20 108 L 22 108 z M 20 108 L 18 108 L 18 110 L 20 110 L 20 108 z M 18 108 L 18 106 L 16 106 L 16 108 L 18 108 z M 16 108 L 14 108 L 14 110 L 16 110 L 16 108 z M 14 108 L 14 106 L 12 106 L 12 108 L 14 108 z M 12 108 L 10 108 L 10 110 L 12 110 L 12 108 z M 12 106 L 12 104 L 10 104 L 10 106 L 12 106 z M 12 104 L 14 104 L 14 102 L 12 102 L 12 104 z M 12 102 L 12 100 L 10 100 L 10 102 L 12 102 z M 12 100 L 14 100 L 14 98 L 12 98 L 12 100 z M 12 98 L 12 96 L 10 96 L 10 98 L 12 98 z M 12 96 L 14 96 L 14 94 L 12 94 L 12 96 z M 12 94 L 12 92 L 10 92 L 10 94 L 12 94 z M 12 92 L 14 92 L 14 90 L 12 90 L 12 92 z M 12 90 L 12 88 L 10 88 L 10 90 L 12 90 z M 12 88 L 14 88 L 14 86 L 12 86 L 12 88 z M 12 86 L 12 84 L 10 84 L 10 86 L 12 86 z M 12 84 L 14 84 L 14 82 L 12 82 L 12 84 z M 12 82 L 12 80 L 10 80 L 10 82 L 12 82 z M 12 80 L 14 80 L 14 78 L 12 78 L 12 80 z M 12 78 L 12 76 L 10 76 L 10 78 L 12 78 z M 12 76 L 14 76 L 14 74 L 12 74 L 12 76 z M 12 74 L 12 72 L 10 72 L 10 74 L 12 74 z M 12 72 L 14 72 L 14 70 L 12 70 L 12 72 z M 14 72 L 14 74 L 16 74 L 16 72 L 14 72 z M 16 72 L 18 72 L 18 70 L 16 70 L 16 72 z M 18 72 L 18 74 L 20 74 L 20 72 L 18 72 z M 20 72 L 22 72 L 22 70 L 20 70 L 20 72 z M 22 72 L 22 74 L 24 74 L 24 72 L 22 72 z M 24 72 L 26 72 L 26 70 L 24 70 L 24 72 z M 26 72 L 26 74 L 28 74 L 28 72 L 26 72 z M 28 72 L 30 72 L 30 70 L 28 70 L 28 72 z M 30 72 L 30 74 L 32 74 L 32 72 L 30 72 z M 32 72 L 34 72 L 34 70 L 32 70 L 32 72 z M 34 72 L 34 74 L 36 74 L 36 72 L 34 72 z M 36 72 L 38 72 L 38 70 L 36 70 L 36 72 z M 38 72 L 38 74 L 40 74 L 40 72 L 38 72 z M 40 72 L 42 72 L 42 70 L 40 70 L 40 72 z M 42 72 L 42 74 L 44 74 L 44 72 L 42 72 z M 44 72 L 46 72 L 46 70 L 44 70 L 44 72 z M 46 72 L 46 74 L 48 74 L 48 72 L 46 72 z M 48 72 L 50 72 L 50 70 L 48 70 L 48 72 z M 50 72 L 50 74 L 52 74 L 52 72 L 50 72 z M 52 72 L 54 72 L 54 70 L 52 70 L 52 72 z M 54 70 L 56 70 L 56 68 L 54 68 L 54 70 z M 56 68 L 58 68 L 58 66 L 56 66 L 56 68 z M 58 66 L 60 66 L 60 64 L 58 64 L 58 66 z M 60 66 L 60 68 L 62 68 L 62 66 L 60 66 z M 62 68 L 62 70 L 64 70 L 64 68 L 62 68 z M 64 68 L 66 68 L 66 66 L 64 66 L 64 68 z M 66 68 L 66 70 L 68 70 L 68 68 L 66 68 z M 68 68 L 70 68 L 70 66 L 68 66 L 68 68 z M 70 68 L 70 70 L 72 70 L 72 68 L 70 68 z M 72 68 L 74 68 L 74 66 L 72 66 L 72 68 z M 74 68 L 74 70 L 76 70 L 76 68 L 74 68 z M 76 68 L 78 68 L 78 66 L 76 66 L 76 68 z M 78 68 L 78 70 L 80 70 L 80 68 L 78 68 z M 80 68 L 82 68 L 82 66 L 80 66 L 80 68 z M 82 68 L 82 70 L 84 70 L 84 68 L 82 68 z M 84 68 L 86 68 L 86 66 L 84 66 L 84 68 z M 86 68 L 86 70 L 88 70 L 88 68 L 86 68 z M 88 68 L 90 68 L 90 66 L 88 66 L 88 68 z M 90 68 L 90 70 L 92 70 L 92 68 L 90 68 z M 92 68 L 94 68 L 94 66 L 92 66 L 92 68 z M 94 68 L 94 70 L 96 70 L 96 68 L 94 68 z M 96 68 L 98 68 L 98 66 L 96 66 L 96 68 z M 98 68 L 98 70 L 100 70 L 100 68 L 98 68 z M 100 68 L 102 68 L 102 66 L 100 66 L 100 68 z M 102 68 L 102 70 L 104 70 L 104 68 L 102 68 z M 104 68 L 106 68 L 106 66 L 104 66 L 104 68 z M 106 68 L 106 70 L 108 70 L 108 68 L 106 68 z M 108 68 L 110 68 L 110 66 L 108 66 L 108 68 z M 110 68 L 110 70 L 112 70 L 112 68 L 110 68 z M 112 68 L 114 68 L 114 66 L 112 66 L 112 68 z M 112 70 L 112 72 L 114 72 L 114 70 L 112 70 z M 112 72 L 110 72 L 110 74 L 112 74 L 112 72 z M 112 74 L 112 76 L 114 76 L 114 74 L 112 74 z M 112 76 L 110 76 L 110 78 L 112 78 L 112 76 z M 112 78 L 112 80 L 114 80 L 114 78 L 112 78 z M 112 80 L 110 80 L 110 82 L 112 82 L 112 80 z M 112 82 L 112 84 L 114 84 L 114 82 L 112 82 z M 112 84 L 110 84 L 110 86 L 112 86 L 112 84 z M 112 86 L 112 88 L 114 88 L 114 86 L 112 86 z M 112 88 L 110 88 L 110 90 L 112 90 L 112 88 z M 112 90 L 112 92 L 114 92 L 114 90 L 112 90 z M 112 92 L 110 92 L 110 94 L 112 94 L 112 92 z M 112 94 L 112 96 L 114 96 L 114 94 L 112 94 z M 112 96 L 110 96 L 110 98 L 112 98 L 112 96 z M 112 98 L 112 100 L 114 100 L 114 98 L 112 98 z M 112 100 L 110 100 L 110 102 L 112 102 L 112 100 z M 112 102 L 112 104 L 114 104 L 114 102 L 112 102 z M 112 104 L 110 104 L 110 106 L 112 106 L 112 104 z M 110 104 L 110 102 L 108 102 L 108 104 L 110 104 z M 108 104 L 106 104 L 106 106 L 108 106 L 108 104 z M 106 104 L 106 102 L 104 102 L 104 104 L 106 104 z M 104 104 L 102 104 L 102 106 L 104 106 L 104 104 z M 102 104 L 102 102 L 100 102 L 100 104 L 102 104 z M 100 104 L 98 104 L 98 106 L 100 106 L 100 104 z M 98 104 L 98 102 L 96 102 L 96 104 L 98 104 z M 96 104 L 94 104 L 94 106 L 96 106 L 96 104 z M 94 104 L 94 102 L 92 102 L 92 104 L 94 104 z M 92 104 L 90 104 L 90 106 L 92 106 L 92 104 z M 90 104 L 90 102 L 88 102 L 88 104 L 90 104 z M 88 104 L 86 104 L 86 106 L 88 106 L 88 104 z M 86 104 L 86 102 L 84 102 L 84 104 L 86 104 z M 84 104 L 82 104 L 82 106 L 84 106 L 84 104 z M 82 104 L 82 102 L 80 102 L 80 104 L 82 104 z M 80 104 L 78 104 L 78 106 L 80 106 L 80 104 z M 78 104 L 78 102 L 76 102 L 76 104 L 78 104 z M 76 104 L 74 104 L 74 106 L 76 106 L 76 104 z M 74 104 L 74 102 L 72 102 L 72 104 L 74 104 z M 72 104 L 70 104 L 70 106 L 72 106 L 72 104 z M 70 104 L 70 102 L 68 102 L 68 104 L 70 104 z M 68 104 L 66 104 L 66 106 L 68 106 L 68 104 z M 66 104 L 66 102 L 64 102 L 64 104 L 66 104 z M 64 104 L 62 104 L 62 106 L 64 106 L 64 104 z M 62 104 L 62 102 L 60 102 L 60 104 L 62 104 z M 60 104 L 58 104 L 58 106 L 60 106 L 60 104 z M 58 104 L 58 102 L 56 102 L 56 104 L 58 104 z M 56 104 L 54 104 L 54 106 L 56 106 L 56 104 z M 54 104 L 54 102 L 52 102 L 52 104 L 54 104 z M 52 104 L 50 104 L 50 106 L 52 106 L 52 104 z M 50 104 L 50 102 L 48 102 L 48 104 L 50 104 z M 48 104 L 46 104 L 46 106 L 48 106 L 48 104 z M 46 104 L 46 102 L 44 102 L 44 104 L 46 104 z M 44 104 L 42 104 L 42 106 L 44 106 L 44 104 z M 42 104 L 42 102 L 40 102 L 40 104 L 42 104 z M 40 104 L 38 104 L 38 106 L 40 106 L 40 104 z M 38 104 L 38 102 L 36 102 L 36 104 L 38 104 z M 36 104 L 34 104 L 34 106 L 36 106 L 36 104 z M 34 104 L 34 102 L 32 102 L 32 104 L 34 104 z M 32 104 L 30 104 L 30 106 L 32 106 L 32 104 z M 30 104 L 30 102 L 28 102 L 28 104 L 30 104 z M 28 104 L 26 104 L 26 106 L 28 106 L 28 104 z M 26 104 L 26 102 L 24 102 L 24 104 L 26 104 z M 24 104 L 22 104 L 22 106 L 24 106 L 24 104 z M 22 104 L 22 102 L 20 102 L 20 104 L 22 104 z M 20 104 L 18 104 L 18 106 L 20 106 L 20 104 z M 18 104 L 18 102 L 16 102 L 16 104 L 18 104 z M 16 104 L 14 104 L 14 106 L 16 106 L 16 104 z M 16 102 L 16 100 L 14 100 L 14 102 L 16 102 z M 16 100 L 18 100 L 18 98 L 16 98 L 16 100 z M 16 98 L 16 96 L 14 96 L 14 98 L 16 98 z M 16 96 L 18 96 L 18 94 L 16 94 L 16 96 z M 16 94 L 16 92 L 14 92 L 14 94 L 16 94 z M 16 92 L 18 92 L 18 90 L 16 90 L 16 92 z M 16 90 L 16 88 L 14 88 L 14 90 L 16 90 z M 16 88 L 18 88 L 18 86 L 16 86 L 16 88 z M 16 86 L 16 84 L 14 84 L 14 86 L 16 86 z M 16 84 L 18 84 L 18 82 L 16 82 L 16 84 z M 16 82 L 16 80 L 14 80 L 14 82 L 16 82 z M 16 80 L 18 80 L 18 78 L 16 78 L 16 80 z M 16 78 L 16 76 L 14 76 L 14 78 L 16 78 z M 16 76 L 18 76 L 18 74 L 16 74 L 16 76 z M 18 76 L 18 78 L 20 78 L 20 76 L 18 76 z M 20 76 L 22 76 L 22 74 L 20 74 L 20 76 z M 22 76 L 22 78 L 24 78 L 24 76 L 22 76 z M 24 76 L 26 76 L 26 74 L 24 74 L 24 76 z M 26 76 L 26 78 L 28 78 L 28 76 L 26 76 z M 28 76 L 30 76 L 30 74 L 28 74 L 28 76 z M 30 76 L 30 78 L 32 78 L 32 76 L 30 76 z M 32 76 L 34 76 L 34 74 L 32 74 L 32 76 z M 34 76 L 34 78 L 36 78 L 36 76 L 34 76 z M 36 76 L 38 76 L 38 74 L 36 74 L 36 76 z M 38 76 L 38 78 L 40 78 L 40 76 L 38 76 z M 40 76 L 42 76 L 42 74 L 40 74 L 40 76 z M 42 76 L 42 78 L 44 78 L 44 76 L 42 76 z M 44 76 L 46 76 L 46 74 L 44 74 L 44 76 z M 46 76 L 46 78 L 48 78 L 48 76 L 46 76 z M 48 76 L 50 76 L 50 74 L 48 74 L 48 76 z M 50 76 L 50 78 L 52 78 L 52 76 L 50 76 z M 52 76 L 54 76 L 54 74 L 52 74 L 52 76 z M 54 74 L 56 74 L 56 72 L 54 72 L 54 74 z M 56 72 L 58 72 L 58 70 L 56 70 L 56 72 z M 58 70 L 60 70 L 60 68 L 58 68 L 58 70 z M 60 70 L 60 72 L 62 72 L 62 70 L 60 70 z M 62 72 L 62 74 L 64 74 L 64 72 L 62 72 z M 64 72 L 66 72 L 66 70 L 64 70 L 64 72 z M 66 72 L 66 74 L 68 74 L 68 72 L 66 72 z M 68 72 L 70 72 L 70 70 L 68 70 L 68 72 z M 70 72 L 70 74 L 72 74 L 72 72 L 70 72 z M 72 72 L 74 72 L 74 70 L 72 70 L 72 72 z M 74 72 L 74 74 L 76 74 L 76 72 L 74 72 z M 76 72 L 78 72 L 78 70 L 76 70 L 76 72 z M 78 72 L 78 74 L 80 74 L 80 72 L 78 72 z M 80 72 L 82 72 L 82 70 L 80 70 L 80 72 z M 82 72 L 82 74 L 84 74 L 84 72 L 82 72 z M 84 72 L 86 72 L 86 70 L 84 70 L 84 72 z M 86 72 L 86 74 L 88 74 L 88 72 L 86 72 z M 88 72 L 90 72 L 90 70 L 88 70 L 88 72 z M 90 72 L 90 74 L 92 74 L 92 72 L 90 72 z M 92 72 L 94 72 L 94 70 L 92 70 L 92 72 z M 94 72 L 94 74 L 96 74 L 96 72 L 94 72 z M 96 72 L 98 72 L 98 70 L 96 70 L 96 72 z M 98 72 L 98 74 L 100 74 L 100 72 L 98 72 z M 100 72 L 102 72 L 102 70 L 100 70 L 100 72 z M 102 72 L 102 74 L 104 74 L 104 72 L 102 72 z M 104 72 L 106 72 L 106 70 L 104 70 L 104 72 z M 106 72 L 106 74 L 108 74 L 108 72 L 106 72 z M 108 72 L 110 72 L 110 70 L 108 70 L 108 72 z M 108 74 L 108 76 L 110 76 L 110 74 L 108 74 z M 108 76 L 106 76 L 106 78 L 108 78 L 108 76 z M 108 78 L 108 80 L 110 80 L 110 78 L 108 78 z M 108 80 L 106 80 L 106 82 L 108 82 L 108 80 z M 108 82 L 108 84 L 110 84 L 110 82 L 108 82 z M 108 84 L 106 84 L 106 86 L 108 86 L 108 84 z M 108 86 L 108 88 L 110 88 L 110 86 L 108 86 z M 108 88 L 106 88 L 106 90 L 108 90 L 108 88 z M 108 90 L 108 92 L 110 92 L 110 90 L 108 90 z M 108 92 L 106 92 L 106 94 L 108 94 L 108 92 z M 108 94 L 108 96 L 110 96 L 110 94 L 108 94 z M 108 96 L 106 96 L 106 98 L 108 98 L 108 96 z M 108 98 L 108 100 L 110 100 L 110 98 L 108 98 z M 108 100 L 106 100 L 106 102 L 108 102 L 108 100 z M 106 100 L 106 98 L 104 98 L 104 100 L 106 100 z M 104 100 L 102 100 L 102 102 L 104 102 L 104 100 z M 102 100 L 102 98 L 100 98 L 100 100 L 102 100 z M 100 100 L 98 100 L 98 102 L 100 102 L 100 100 z M 98 100 L 98 98 L 96 98 L 96 100 L 98 100 z M 96 100 L 94 100 L 94 102 L 96 102 L 96 100 z M 94 100 L 94 98 L 92 98 L 92 100 L 94 100 z M 92 100 L 90 100 L 90 102 L 92 102 L 92 100 z M 90 100 L 90 98 L 88 98 L 88 100 L 90 100 z M 88 100 L 86 100 L 86 102 L 88 102 L 88 100 z M 86 100 L 86 98 L 84 98 L 84 100 L 86 100 z M 84 100 L 82 100 L 82 102 L 84 102 L 84 100 z M 82 100 L 82 98 L 80 98 L 80 100 L 82 100 z M 80 100 L 78 100 L 78 102 L 80 102 L 80 100 z M 78 100 L 78 98 L 76 98 L 76 100 L 78 100 z M 76 100 L 74 100 L 74 102 L 76 102 L 76 100 z M 74 100 L 74 98 L 72 98 L 72 100 L 74 100 z M 72 100 L 70 100 L 70 102 L 72 102 L 72 100 z M 70 100 L 70 98 L 68 98 L 68 100 L 70 100 z M 68 100 L 66 100 L 66 102 L 68 102 L 68 100 z M 66 100 L 66 98 L 64 98 L 64 100 L 66 100 z M 64 100 L 62 100 L 62 102 L 64 102 L 64 100 z M 62 100 L 62 98 L 60 98 L 60 100 L 62 100 z M 60 100 L 58 100 L 58 102 L 60 102 L 60 100 z M 58 100 L 58 98 L 56 98 L 56 100 L 58 100 z M 56 100 L 54 100 L 54 102 L 56 102 L 56 100 z M 54 100 L 54 98 L 52 98 L 52 100 L 54 100 z M 52 100 L 50 100 L 50 102 L 52 102 L 52 100 z M 50 100 L 50 98 L 48 98 L 48 100 L 50 100 z M 48 100 L 46 100 L 46 102 L 48 102 L 48 100 z M 46 100 L 46 98 L 44 98 L 44 100 L 46 100 z M 44 100 L 42 100 L 42 102 L 44 102 L 44 100 z M 42 100 L 42 98 L 40 98 L 40 100 L 42 100 z M 40 100 L 38 100 L 38 102 L 40 102 L 40 100 z M 38 100 L 38 98 L 36 98 L 36 100 L 38 100 z M 36 100 L 34 100 L 34 102 L 36 102 L 36 100 z M 34 100 L 34 98 L 32 98 L 32 100 L 34 100 z M 32 100 L 30 100 L 30 102 L 32 102 L 32 100 z M 30 100 L 30 98 L 28 98 L 28 100 L 30 100 z M 28 100 L 26 100 L 26 102 L 28 102 L 28 100 z M 26 100 L 26 98 L 24 98 L 24 100 L 26 100 z M 24 100 L 22 100 L 22 102 L 24 102 L 24 100 z M 22 100 L 22 98 L 20 98 L 20 100 L 22 100 z M 20 100 L 18 100 L 18 102 L 20 102 L 20 100 z M 20 98 L 20 96 L 18 96 L 18 98 L 20 98 z M 20 96 L 22 96 L 22 94 L 20 94 L 20 96 z M 20 94 L 20 92 L 18 92 L 18 94 L 20 94 z M 20 92 L 22 92 L 22 90 L 20 90 L 20 92 z M 20 90 L 20 88 L 18 88 L 18 90 L 20 90 z M 20 88 L 22 88 L 22 86 L 20 86 L 20 88 z M 20 86 L 20 84 L 18 84 L 18 86 L 20 86 z M 20 84 L 22 84 L 22 82 L 20 82 L 20 84 z M 20 82 L 20 80 L 18 80 L 18 82 L 20 82 z M 20 80 L 22 80 L 22 78 L 20 78 L 20 80 z M 22 80 L 22 82 L 24 82 L 24 80 L 22 80 z M 24 80 L 26 80 L 26 78 L 24 78 L 24 80 z M 26 80 L 26 82 L 28 82 L 28 80 L 26 80 z M 28 80 L 30 80 L 30 78 L 28 78 L 28 80 z M 30 80 L 30 82 L 32 82 L 32 80 L 30 80 z M 32 80 L 34 80 L 34 78 L 32 78 L 32 80 z M 34 80 L 34 82 L 36 82 L 36 80 L 34 80 z M 36 80 L 38 80 L 38 78 L 36 78 L 36 80 z M 38 80 L 38 82 L 40 82 L 40 80 L 38 80 z M 40 80 L 42 80 L 42 78 L 40 78 L 40 80 z M 42 80 L 42 82 L 44 82 L 44 80 L 42 80 z M 44 80 L 46 80 L 46 78 L 44 78 L 44 80 z M 46 80 L 46 82 L 48 82 L 48 80 L 46 80 z M 48 80 L 50 80 L 50 78 L 48 78 L 48 80 z M 50 80 L 50 82 L 52 82 L 52 80 L 50 80 z M 52 80 L 54 80 L 54 78 L 52 78 L 52 80 z M 54 78 L 56 78 L 56 76 L 54 76 L 54 78 z M 56 76 L 58 76 L 58 74 L 56 74 L 56 76 z M 58 74 L 60 74 L 60 72 L 58 72 L 58 74 z M 60 74 L 60 76 L 62 76 L 62 74 L 60 74 z M 62 76 L 62 78 L 64 78 L 64 76 L 62 76 z M 64 76 L 66 76 L 66 74 L 64 74 L 64 76 z M 66 76 L 66 78 L 68 78 L 68 76 L 66 76 z M 68 76 L 70 76 L 70 74 L 68 74 L 68 76 z M 70 76 L 70 78 L 72 78 L 72 76 L 70 76 z M 72 76 L 74 76 L 74 74 L 72 74 L 72 76 z M 74 76 L 74 78 L 76 78 L 76 76 L 74 76 z M 76 76 L 78 76 L 78 74 L 76 74 L 76 76 z M 78 76 L 78 78 L 80 78 L 80 76 L 78 76 z M 80 76 L 82 76 L 82 74 L 80 74 L 80 76 z M 82 76 L 82 78 L 84 78 L 84 76 L 82 76 z M 84 76 L 86 76 L 86 74 L 84 74 L 84 76 z M 86 76 L 86 78 L 88 78 L 88 76 L 86 76 z M 88 76 L 90 76 L 90 74 L 88 74 L 88 76 z M 90 76 L 90 78 L 92 78 L 92 76 L 90 76 z M 92 76 L 94 76 L 94 74 L 92 74 L 92 76 z M 94 76 L 94 78 L 96 78 L 96 76 L 94 76 z M 96 76 L 98 76 L 98 74 L 96 74 L 96 76 z M 98 76 L 98 78 L 100 78 L 100 76 L 98 76 z M 100 76 L 102 76 L 102 74 L 100 74 L 100 76 z M 102 76 L 102 78 L 104 78 L 104 76 L 102 76 z M 104 76 L 106 76 L 106 74 L 104 74 L 104 76 z M 104 78 L 104 80 L 106 80 L 106 78 L 104 78 z M 104 80 L 102 80 L 102 82 L 104 82 L 104 80 z M 104 82 L 104 84 L 106 84 L 106 82 L 104 82 z M 104 84 L 102 84 L 102 86 L 104 86 L 104 84 z M 104 86 L 104 88 L 106 88 L 106 86 L 104 86 z M 104 88 L 102 88 L 102 90 L 104 90 L 104 88 z M 104 90 L 104 92 L 106 92 L 106 90 L 104 90 z M 104 92 L 102 92 L 102 94 L 104 94 L 104 92 z M 104 94 L 104 96 L 106 96 L 106 94 L 104 94 z M 104 96 L 102 96 L 102 98 L 104 98 L 104 96 z M 102 96 L 102 94 L 100 94 L 100 96 L 102 96 z M 100 96 L 98 96 L 98 98 L 100 98 L 100 96 z M 98 96 L 98 94 L 96 94 L 96 96 L 98 96 z M 96 96 L 94 96 L 94 98 L 96 98 L 96 96 z M 94 96 L 94 94 L 92 94 L 92 96 L 94 96 z M 92 96 L 90 96 L 90 98 L 92 98 L 92 96 z M 90 96 L 90 94 L 88 94 L 88 96 L 90 96 z M 88 96 L 86 96 L 86 98 L 88 98 L 88 96 z M 86 96 L 86 94 L 84 94 L 84 96 L 86 96 z M 84 96 L 82 96 L 82 98 L 84 98 L 84 96 z M 82 96 L 82 94 L 80 94 L 80 96 L 82 96 z M 80 96 L 78 96 L 78 98 L 80 98 L 80 96 z M 78 96 L 78 94 L 76 94 L 76 96 L 78 96 z M 76 96 L 74 96 L 74 98 L 76 98 L 76 96 z M 74 96 L 74 94 L 72 94 L 72 96 L 74 96 z M 72 96 L 70 96 L 70 98 L 72 98 L 72 96 z M 70 96 L 70 94 L 68 94 L 68 96 L 70 96 z M 68 96 L 66 96 L 66 98 L 68 98 L 68 96 z M 66 96 L 66 94 L 64 94 L 64 96 L 66 96 z M 64 96 L 62 96 L 62 98 L 64 98 L 64 96 z M 62 96 L 62 94 L 60 94 L 60 96 L 62 96 z M 60 96 L 58 96 L 58 98 L 60 98 L 60 96 z M 58 96 L 58 94 L 56 94 L 56 96 L 58 96 z M 56 96 L 54 96 L 54 98 L 56 98 L 56 96 z M 54 96 L 54 94 L 52 94 L 52 96 L 54 96 z M 52 96 L 50 96 L 50 98 L 52 98 L 52 96 z M 50 96 L 50 94 L 48 94 L 48 96 L 50 96 z M 48 96 L 46 96 L 46 98 L 48 98 L 48 96 z M 46 96 L 46 94 L 44 94 L 44 96 L 46 96 z M 44 96 L 42 96 L 42 98 L 44 98 L 44 96 z M 42 96 L 42 94 L 40 94 L 40 96 L 42 96 z M 40 96 L 38 96 L 38 98 L 40 98 L 40 96 z M 38 96 L 38 94 L 36 94 L 36 96 L 38 96 z M 36 96 L 34 96 L 34 98 L 36 98 L 36 96 z M 34 96 L 34 94 L 32 94 L 32 96 L 34 96 z M 32 96 L 30 96 L 30 98 L 32 98 L 32 96 z M 30 96 L 30 94 L 28 94 L 28 96 L 30 96 z M 28 96 L 26 96 L 26 98 L 28 98 L 28 96 z M 26 96 L 26 94 L 24 94 L 24 96 L 26 96 z M 24 96 L 22 96 L 22 98 L 24 98 L 24 96 z M 24 94 L 24 92 L 22 92 L 22 94 L 24 94 z M 24 92 L 26 92 L 26 90 L 24 90 L 24 92 z M 24 90 L 24 88 L 22 88 L 22 90 L 24 90 z M 24 88 L 26 88 L 26 86 L 24 86 L 24 88 z M 24 86 L 24 84 L 22 84 L 22 86 L 24 86 z M 24 84 L 26 84 L 26 82 L 24 82 L 24 84 z M 26 84 L 26 86 L 28 86 L 28 84 L 26 84 z M 28 84 L 30 84 L 30 82 L 28 82 L 28 84 z M 30 84 L 30 86 L 32 86 L 32 84 L 30 84 z M 32 84 L 34 84 L 34 82 L 32 82 L 32 84 z M 34 84 L 34 86 L 36 86 L 36 84 L 34 84 z M 36 84 L 38 84 L 38 82 L 36 82 L 36 84 z M 38 84 L 38 86 L 40 86 L 40 84 L 38 84 z M 40 84 L 42 84 L 42 82 L 40 82 L 40 84 z M 42 84 L 42 86 L 44 86 L 44 84 L 42 84 z M 44 84 L 46 84 L 46 82 L 44 82 L 44 84 z M 46 84 L 46 86 L 48 86 L 48 84 L 46 84 z M 48 84 L 50 84 L 50 82 L 48 82 L 48 84 z M 50 84 L 50 86 L 52 86 L 52 84 L 50 84 z M 52 84 L 54 84 L 54 82 L 52 82 L 52 84 z M 54 82 L 56 82 L 56 80 L 54 80 L 54 82 z M 56 80 L 58 80 L 58 78 L 56 78 L 56 80 z M 58 78 L 60 78 L 60 76 L 58 76 L 58 78 z M 60 78 L 60 80 L 62 80 L 62 78 L 60 78 z M 62 80 L 62 82 L 64 82 L 64 80 L 62 80 z M 64 80 L 66 80 L 66 78 L 64 78 L 64 80 z M 66 80 L 66 82 L 68 82 L 68 80 L 66 80 z M 68 80 L 70 80 L 70 78 L 68 78 L 68 80 z M 70 80 L 70 82 L 72 82 L 72 80 L 70 80 z M 72 80 L 74 80 L 74 78 L 72 78 L 72 80 z M 74 80 L 74 82 L 76 82 L 76 80 L 74 80 z M 76 80 L 78 80 L 78 78 L 76 78 L 76 80 z M 78 80 L 78 82 L 80 82 L 80 80 L 78 80 z M 80 80 L 82 80 L 82 78 L 80 78 L 80 80 z M 82 80 L 82 82 L 84 82 L 84 80 L 82 80 z M 84 80 L 86 80 L 86 78 L 84 78 L 84 80 z M 86 80 L 86 82 L 88 82 L 88 80 L 86 80 z M 88 80 L 90 80 L 90 78 L 88 78 L 88 80 z M 90 80 L 90 82 L 92 82 L 92 80 L 90 80 z M 92 80 L 94 80 L 94 78 L 92 78 L 92 80 z M 94 80 L 94 82 L 96 82 L 96 80 L 94 80 z M 96 80 L 98 80 L 98 78 L 96 78 L 96 80 z M 98 80 L 98 82 L 100 82 L 100 80 L 98 80 z M 100 80 L 102 80 L 102 78 L 100 78 L 100 80 z M 100 82 L 100 84 L 102 84 L 102 82 L 100 82 z M 100 84 L 98 84 L 98 86 L 100 86 L 100 84 z M 100 86 L 100 88 L 102 88 L 102 86 L 100 86 z M 100 88 L 98 88 L 98 90 L 100 90 L 100 88 z M 100 90 L 100 92 L 102 92 L 102 90 L 100 90 z M 100 92 L 98 92 L 98 94 L 100 94 L 100 92 z M 98 92 L 98 90 L 96 90 L 96 92 L 98 92 z M 96 92 L 94 92 L 94 94 L 96 94 L 96 92 z M 94 92 L 94 90 L 92 90 L 92 92 L 94 92 z M 92 92 L 90 92 L 90 94 L 92 94 L 92 92 z M 90 92 L 90 90 L 88 90 L 88 92 L 90 92 z M 88 92 L 86 92 L 86 94 L 88 94 L 88 92 z M 86 92 L 86 90 L 84 90 L 84 92 L 86 92 z M 84 92 L 82 92 L 82 94 L 84 94 L 84 92 z M 82 92 L 82 90 L 80 90 L 80 92 L 82 92 z M 80 92 L 78 92 L 78 94 L 80 94 L 80 92 z M 78 92 L 78 90 L 76 90 L 76 92 L 78 92 z M 76 92 L 74 92 L 74 94 L 76 94 L 76 92 z M 74 92 L 74 90 L 72 90 L 72 92 L 74 92 z M 72 92 L 70 92 L 70 94 L 72 94 L 72 92 z M 70 92 L 70 90 L 68 90 L 68 92 L 70 92 z M 68 92 L 66 92 L 66 94 L 68 94 L 68 92 z M 66 92 L 66 90 L 64 90 L 64 92 L 66 92 z M 64 92 L 62 92 L 62 94 L 64 94 L 64 92 z M 62 92 L 62 90 L 60 90 L 60 92 L 62 92 z M 60 92 L 58 92 L 58 94 L 60 94 L 60 92 z M 58 92 L 58 90 L 56 90 L 56 92 L 58 92 z M 56 92 L 54 92 L 54 94 L 56 94 L 56 92 z M 54 92 L 54 90 L 52 90 L 52 92 L 54 92 z M 52 92 L 50 92 L 50 94 L 52 94 L 52 92 z M 50 92 L 50 90 L 48 90 L 48 92 L 50 92 z M 48 92 L 46 92 L 46 94 L 48 94 L 48 92 z M 46 92 L 46 90 L 44 90 L 44 92 L 46 92 z M 44 92 L 42 92 L 42 94 L 44 94 L 44 92 z M 42 92 L 42 90 L 40 90 L 40 92 L 42 92 z M 40 92 L 38 92 L 38 94 L 40 94 L 40 92 z M 38 92 L 38 90 L 36 90 L 36 92 L 38 92 z M 36 92 L 34 92 L 34 94 L 36 94 L 36 92 z M 34 92 L 34 90 L 32 90 L 32 92 L 34 92 z M 32 92 L 30 92 L 30 94 L 32 94 L 32 92 z M 30 92 L 30 90 L 28 90 L 28 92 L 30 92 z M 28 92 L 26 92 L 26 94 L 28 94 L 28 92 z M 28 90 L 28 88 L 26 88 L 26 90 L 28 90 z M 28 88 L 30 88 L 30 86 L 28 86 L 28 88 z M 30 88 L 30 90 L 32 90 L 32 88 L 30 88 z M 32 88 L 34 88 L 34 86 L 32 86 L 32 88 z M 34 88 L 34 90 L 36 90 L 36 88 L 34 88 z M 36 88 L 38 88 L 38 86 L 36 86 L 36 88 z M 38 88 L 38 90 L 40 90 L 40 88 L 38 88 z M 40 88 L 42 88 L 42 86 L 40 86 L 40 88 z M 42 88 L 42 90 L 44 90 L 44 88 L 42 88 z M 44 88 L 46 88 L 46 86 L 44 86 L 44 88 z M 46 88 L 46 90 L 48 90 L 48 88 L 46 88 z M 48 88 L 50 88 L 50 86 L 48 86 L 48 88 z M 50 88 L 50 90 L 52 90 L 52 88 L 50 88 z M 52 88 L 54 88 L 54 86 L 52 86 L 52 88 z M 54 86 L 56 86 L 56 84 L 54 84 L 54 86 z M 56 84 L 58 84 L 58 82 L 56 82 L 56 84 z M 58 82 L 60 82 L 60 80 L 58 80 L 58 82 z M 60 82 L 60 84 L 62 84 L 62 82 L 60 82 z M 62 84 L 62 86 L 64 86 L 64 84 L 62 84 z M 64 84 L 66 84 L 66 82 L 64 82 L 64 84 z M 66 84 L 66 86 L 68 86 L 68 84 L 66 84 z M 68 84 L 70 84 L 70 82 L 68 82 L 68 84 z M 70 84 L 70 86 L 72 86 L 72 84 L 70 84 z M 72 84 L 74 84 L 74 82 L 72 82 L 72 84 z M 74 84 L 74 86 L 76 86 L 76 84 L 74 84 z M 76 84 L 78 84 L 78 82 L 76 82 L 76 84 z M 78 84 L 78 86 L 80 86 L 80 84 L 78 84 z M 80 84 L 82 84 L 82 82 L 80 82 L 80 84 z M 82 84 L 82 86 L 84 86 L 84 84 L 82 84 z M 84 84 L 86 84 L 86 82 L 84 82 L 84 84 z M 86 84 L 86 86 L 88 86 L 88 84 L 86 84 z M 88 84 L 90 84 L 90 82 L 88 82 L 88 84 z M 90 84 L 90 86 L 92 86 L 92 84 L 90 84 z M 92 84 L 94 84 L 94 82 L 92 82 L 92 84 z M 94 84 L 94 86 L 96 86 L 96 84 L 94 84 z M 96 84 L 98 84 L 98 82 L 96 82 L 96 84 z M 96 86 L 96 88 L 98 88 L 98 86 L 96 86 z M 96 88 L 94 88 L 94 90 L 96 90 L 96 88 z M 94 88 L 94 86 L 92 86 L 92 88 L 94 88 z M 92 88 L 90 88 L 90 90 L 92 90 L 92 88 z M 90 88 L 90 86 L 88 86 L 88 88 L 90 88 z M 88 88 L 86 88 L 86 90 L 88 90 L 88 88 z M 86 88 L 86 86 L 84 86 L 84 88 L 86 88 z M 84 88 L 82 88 L 82 90 L 84 90 L 84 88 z M 82 88 L 82 86 L 80 86 L 80 88 L 82 88 z M 80 88 L 78 88 L 78 90 L 80 90 L 80 88 z M 78 88 L 78 86 L 76 86 L 76 88 L 78 88 z M 76 88 L 74 88 L 74 90 L 76 90 L 76 88 z M 74 88 L 74 86 L 72 86 L 72 88 L 74 88 z M 72 88 L 70 88 L 70 90 L 72 90 L 72 88 z M 70 88 L 70 86 L 68 86 L 68 88 L 70 88 z M 68 88 L 66 88 L 66 90 L 68 90 L 68 88 z M 66 88 L 66 86 L 64 86 L 64 88 L 66 88 z M 64 88 L 62 88 L 62 90 L 64 90 L 64 88 z M 62 88 L 62 86 L 60 86 L 60 88 L 62 88 z M 60 88 L 58 88 L 58 90 L 60 90 L 60 88 z M 58 88 L 58 86 L 56 86 L 56 88 L 58 88 z M 56 88 L 54 88 L 54 90 L 56 90 L 56 88 z M 58 86 L 60 86 L 60 84 L 58 84 L 58 86 z "
       transform="matrix(0.26458334,0,0,0.26458334,82.550003,136.13333)" />
  </g>
</svg>
