<?xml version="1.0" encoding="UTF-8" standalone="no"?>
<svg
   width="128"
   height="128"
   viewBox="0 0 33.866667 33.866667"
   version="1.1"
   id="svg2634"
   inkscape:version="1.1.2 (0a00cf5339, 2022-02-04, custom)"
   sodipodi:docname="audacity.svg"
   xmlns:inkscape="http://www.inkscape.org/namespaces/inkscape"
   xmlns:sodipodi="http://sodipodi.sourceforge.net/DTD/sodipodi-0.dtd"
   xmlns:xlink="http://www.w3.org/1999/xlink"
   xmlns="http://www.w3.org/2000/svg"
   xmlns:svg="http://www.w3.org/2000/svg"
   xmlns:rdf="http://www.w3.org/1999/02/22-rdf-syntax-ns#"
   xmlns:cc="http://creativecommons.org/ns#"
   xmlns:dc="http://purl.org/dc/elements/1.1/">
  <title
     id="title3250">Boston Icons</title>
  <defs
     id="defs2628">
    <linearGradient
       inkscape:collect="always"
       id="linearGradient2518">
      <stop
         style="stop-color:#ffc61b;stop-opacity:1;"
         offset="0"
         id="stop2514" />
      <stop
         style="stop-color:#ffa803;stop-opacity:1"
         offset="1"
         id="stop2516" />
    </linearGradient>
    <linearGradient
       inkscape:collect="always"
       id="linearGradient1531">
      <stop
         style="stop-color:#2d8cff;stop-opacity:1;"
         offset="0"
         id="stop1527" />
      <stop
         style="stop-color:#6fb7ff;stop-opacity:1"
         offset="1"
         id="stop1529" />
    </linearGradient>
    <linearGradient
       inkscape:collect="always"
       xlink:href="#linearGradient1531"
       id="linearGradient899"
       gradientUnits="userSpaceOnUse"
       gradientTransform="translate(-1.7258334e-6)"
       x1="88.900002"
       y1="166.82498"
       x2="88.900002"
       y2="156.24165" />
    <linearGradient
       inkscape:collect="always"
       xlink:href="#linearGradient1531"
       id="linearGradient902"
       gradientUnits="userSpaceOnUse"
       x1="103.99998"
       y1="115.99996"
       x2="103.99998"
       y2="75.999962"
       gradientTransform="matrix(0.26458334,0,0,0.26458334,82.550003,136.13333)" />
    <linearGradient
       inkscape:collect="always"
       xlink:href="#linearGradient1531"
       id="linearGradient1533"
       x1="67.999985"
       y1="81.999962"
       x2="67.999985"
       y2="11.999965"
       gradientUnits="userSpaceOnUse"
       gradientTransform="matrix(0.26458334,0,0,0.26458334,82.550003,136.13333)" />
    <linearGradient
       inkscape:collect="always"
       xlink:href="#linearGradient2518"
       id="linearGradient2520"
       x1="100.0125"
       y1="156.24165"
       x2="100.0125"
       y2="166.825"
       gradientUnits="userSpaceOnUse" />
  </defs>
  <sodipodi:namedview
     id="base"
     pagecolor="#ffffff"
     bordercolor="#00ffed"
     borderopacity="1"
     inkscape:pageopacity="1"
     inkscape:pageshadow="2"
     inkscape:zoom="5.6831688"
     inkscape:cx="56.83449"
     inkscape:cy="70.999123"
     inkscape:document-units="px"
     inkscape:current-layer="g4770"
     showgrid="false"
     showguides="false"
     inkscape:guide-bbox="true"
     fit-margin-top="0"
     fit-margin-left="0"
     fit-margin-right="0"
     fit-margin-bottom="0"
     inkscape:window-width="1920"
     inkscape:window-height="1011"
     inkscape:window-x="0"
     inkscape:window-y="0"
     inkscape:window-maximized="1"
     units="px"
     inkscape:document-rotation="0"
     inkscape:pagecheckerboard="0">
    <inkscape:grid
       type="xygrid"
       id="grid3182"
       spacingx="0.52916667"
       spacingy="0.52916667"
       empspacing="4"
       originx="-82.550004"
       originy="-127.00001"
       dotted="false" />
    <sodipodi:guide
       position="-4.268358e-06,27.516666"
       orientation="1,0"
       id="guide3216"
       inkscape:locked="false" />
    <sodipodi:guide
       position="3.7041618,33.866666"
       orientation="0,1"
       id="guide3218"
       inkscape:locked="false" />
    <sodipodi:guide
       position="32.279157,-4.1479283e-06"
       orientation="0,1"
       id="guide3222"
       inkscape:locked="false" />
    <sodipodi:guide
       position="15.345829,32.808336"
       orientation="0,1"
       id="guide3224"
       inkscape:locked="false" />
    <sodipodi:guide
       position="-4.7625023,1.0583259"
       orientation="0,1"
       id="guide3226"
       inkscape:locked="false" />
    <sodipodi:guide
       position="1.0583287,17.462496"
       orientation="1,0"
       id="guide3228"
       inkscape:locked="false" />
    <sodipodi:guide
       position="32.808327,20.108336"
       orientation="1,0"
       id="guide3230"
       inkscape:locked="false" />
    <sodipodi:guide
       position="15.874995,31.750006"
       orientation="0,1"
       id="guide3232"
       inkscape:locked="false" />
    <sodipodi:guide
       position="2.1166617,24.870836"
       orientation="1,0"
       id="guide3234"
       inkscape:locked="false" />
    <sodipodi:guide
       position="3.1749958,25.400006"
       orientation="1,0"
       id="guide3236"
       inkscape:locked="false" />
    <sodipodi:guide
       position="16.93333,19.579158"
       orientation="-1,-1.5118114e-08"
       id="guide3238"
       inkscape:locked="false" />
    <sodipodi:guide
       position="30.691657,24.341666"
       orientation="1,0"
       id="guide3242"
       inkscape:locked="false" />
    <sodipodi:guide
       position="31.749997,21.695836"
       orientation="1,0"
       id="guide3244"
       inkscape:locked="false" />
    <sodipodi:guide
       position="21.695827,2.1166659"
       orientation="0,1"
       id="guide3246"
       inkscape:locked="false" />
    <sodipodi:guide
       position="16.404162,3.1749959"
       orientation="0,1"
       id="guide3248"
       inkscape:locked="false" />
    <sodipodi:guide
       position="26.987497,30.162491"
       orientation="0,1"
       id="guide843"
       inkscape:locked="false" />
    <sodipodi:guide
       position="13.75833,16.933324"
       orientation="0,1"
       id="guide845"
       inkscape:locked="false" />
    <sodipodi:guide
       position="18.52083,7.4083242"
       orientation="0,1"
       id="guide4768"
       inkscape:locked="false" />
    <sodipodi:guide
       position="7.4083299,7.9374908"
       orientation="1,0"
       id="guide4770"
       inkscape:locked="false" />
    <sodipodi:guide
       position="26.45833,22.754158"
       orientation="1,0"
       id="guide4772"
       inkscape:locked="false" />
    <sodipodi:guide
       position="17.462497,26.458324"
       orientation="0,1"
       id="guide4774"
       inkscape:locked="false" />
  </sodipodi:namedview>
  <metadata
     id="metadata2631">
    <rdf:RDF>
      <cc:Work
         rdf:about="">
        <dc:format>image/svg+xml</dc:format>
        <dc:type
           rdf:resource="http://purl.org/dc/dcmitype/StillImage" />
        <dc:title>Boston Icons</dc:title>
        <cc:license
           rdf:resource="dribbble.com/chrisdiaz" />
        <dc:creator>
          <cc:Agent>
            <dc:title>Christian Díaz</dc:title>
          </cc:Agent>
        </dc:creator>
        <dc:date>2022</dc:date>
        <dc:publisher>
          <cc:Agent>
            <dc:title>Christian Díaz</dc:title>
          </cc:Agent>
        </dc:publisher>
        <dc:identifier>christiandiaz.design [at] gmail [dot] com</dc:identifier>
        <dc:subject>
          <rdf:Bag>
            <rdf:li>GNOME icon Theme</rdf:li>
          </rdf:Bag>
        </dc:subject>
        <dc:description>dribbble.com/chrisdiaz | diazchris.deviantart.com</dc:description>
      </cc:Work>
    </rdf:RDF>
  </metadata>
  <g
     inkscape:label="Capa 1"
     inkscape:groupmode="layer"
     id="layer1"
     transform="translate(-82.550003,-136.13333)">
    <g
       id="g4770">
      <g
         id="g889">
        <path
           id="path999"
           style="fill:url(#linearGradient1533);fill-opacity:1;stroke-width:0.264583;stroke-linecap:round;stroke-linejoin:round;stroke-dasharray:2.11666, 2.11666"
           d="m 99.483337,139.30833 a 13.758333,13.758333 0 0 0 -13.758334,13.75833 v 3.70417 c -0.586321,0 -1.058333,0.47202 -1.058333,1.05833 h 7.408333 V 157.3 c 0,-0.58632 -0.472017,-1.05834 -1.058333,-1.05834 h -2.116667 v -3.14244 a 10.583334,10.59216 0 0 1 0,-0.0238 10.583334,10.59216 0 0 1 0,-0.009 10.583334,10.59216 0 0 1 10.559563,-10.58333 10.583334,10.59216 0 0 1 0.02377,0 10.583334,10.59216 0 0 1 10.583334,10.58333 v 0.009 3.16621 H 107.95 c -0.58632,0 -1.05833,0.47202 -1.05833,1.05834 v 0.52916 H 114.3 c 0,-0.58631 -0.47201,-1.05833 -1.05833,-1.05833 v -3.70417 a 13.758333,13.758333 0 0 0 -13.758333,-13.7583 z" />
        <path
           id="path1985"
           style="fill:url(#linearGradient902);fill-opacity:1;stroke-width:1.32292;stroke-linejoin:round"
           d="m 107.95,156.24166 c -0.0366,0 -0.0729,0.002 -0.10852,0.006 -0.0357,0.004 -0.0709,0.008 -0.10542,0.0155 -0.0345,0.007 -0.0681,0.0161 -0.10128,0.0264 -0.0332,0.0103 -0.066,0.0218 -0.0977,0.0351 -0.0317,0.0134 -0.0625,0.0282 -0.0925,0.0444 -0.03,0.0163 -0.0592,0.0342 -0.0873,0.0532 -0.0281,0.019 -0.055,0.0394 -0.0811,0.061 -0.0261,0.0215 -0.051,0.0443 -0.0749,0.0682 -0.0239,0.0239 -0.0467,0.0488 -0.0682,0.0749 -0.0215,0.0261 -0.042,0.053 -0.061,0.0811 -0.019,0.0281 -0.037,0.0573 -0.0532,0.0873 -0.0162,0.03 -0.0311,0.0608 -0.0444,0.0925 -0.0134,0.0317 -0.0249,0.0645 -0.0351,0.0977 -0.0103,0.0332 -0.0193,0.0668 -0.0264,0.10128 -0.007,0.0345 -0.0119,0.0698 -0.0155,0.10542 -0.004,0.0357 -0.006,0.0719 -0.006,0.10853 v 8.46666 c 0,0.0486 0.004,0.0963 0.01,0.14315 1.1e-4,7.9e-4 -1.2e-4,0.002 0,0.003 0.006,0.0468 0.0161,0.0924 0.0284,0.13695 1.5e-4,5.3e-4 3.7e-4,0.001 5.3e-4,0.002 0.0124,0.0447 0.0271,0.0882 0.045,0.13022 0.018,0.0422 0.0389,0.0833 0.062,0.12247 0,0 0,5.3e-4 0,5.3e-4 0.0232,0.0393 0.0491,0.0768 0.077,0.11266 0.0279,0.0358 0.0582,0.0699 0.0904,0.1018 0.0322,0.0319 0.0662,0.0618 0.10232,0.0894 0.0361,0.0276 0.0741,0.0526 0.11369,0.0754 v 5.3e-4 c 0.008,0.005 0.0157,0.01 0.0238,0.0139 0.015,0.008 0.0306,0.0159 0.046,0.0233 0.0154,0.007 0.0307,0.0145 0.0465,0.0212 0.0158,0.007 0.0318,0.0127 0.0481,0.0186 0.0162,0.006 0.033,0.0114 0.0496,0.0165 0.0166,0.005 0.0332,0.0101 0.0501,0.0145 0.0169,0.004 0.0339,0.008 0.0511,0.0119 0.0173,0.004 0.0346,0.006 0.0522,0.009 0.0175,0.003 0.0354,0.005 0.0532,0.007 0.0178,0.002 0.0357,0.003 0.0538,0.004 0.0181,8e-4 0.0364,0.001 0.0548,0.001 h 3.70417 c 0.0183,0 0.0367,-5.3e-4 0.0548,-0.002 0.0181,-7.9e-4 0.0359,-0.002 0.0537,-0.004 0.0178,-0.002 0.0357,-0.004 0.0532,-0.007 0.0175,-0.003 0.0349,-0.005 0.0522,-0.009 0.0173,-0.004 0.0342,-0.008 0.0512,-0.0119 0.0169,-0.004 0.0335,-0.009 0.0501,-0.0145 0.0166,-0.005 0.0334,-0.0106 0.0496,-0.0165 0.0162,-0.006 0.0322,-0.0119 0.0481,-0.0186 0.0158,-0.007 0.0311,-0.0138 0.0465,-0.0212 0.0154,-0.007 0.031,-0.0151 0.046,-0.0233 0.008,-0.004 0.0159,-0.009 0.0238,-0.0139 v -5.3e-4 c 0.161,-0.0928 0.29474,-0.22658 0.38757,-0.38758 h 5.3e-4 0.67024 c 0.58632,0 1.05833,-0.47201 1.05833,-1.05833 v -7.4083 c 0,-0.58632 -0.47201,-1.05833 -1.05833,-1.05833 h -0.67024 -5.3e-4 c -0.0228,-0.0396 -0.0479,-0.0776 -0.0754,-0.11369 -0.0276,-0.0361 -0.0575,-0.0701 -0.0894,-0.10232 -0.0319,-0.0322 -0.066,-0.0625 -0.1018,-0.0904 -0.0358,-0.0279 -0.0733,-0.0538 -0.11266,-0.077 0,0 -5.2e-4,0 -5.2e-4,0 -0.0392,-0.0231 -0.0802,-0.044 -0.12248,-0.062 -0.042,-0.0179 -0.0856,-0.0326 -0.13022,-0.045 -5.3e-4,-1.5e-4 -0.001,-3.7e-4 -0.002,-5.3e-4 -0.0446,-0.0123 -0.0902,-0.022 -0.13694,-0.0284 -8e-4,-1.2e-4 -0.002,1.1e-4 -0.003,0 -0.0467,-0.006 -0.0944,-0.01 -0.14302,-0.01 z" />
        <path
           id="path2639"
           style="fill:url(#linearGradient899);fill-opacity:1;stroke-width:1.32292;stroke-linejoin:round"
           d="m 87.312503,156.24166 c -0.02161,0 -0.04281,8e-4 -0.06408,0.002 -0.008,4.7e-4 -0.01583,0.001 -0.02377,0.002 -0.01729,0.001 -0.03463,0.003 -0.05168,0.005 -0.0022,2.9e-4 -0.0045,2.1e-4 -0.0067,5.3e-4 -0.02313,0.003 -0.04611,0.007 -0.06873,0.0119 -0.02275,0.005 -0.045,0.01 -0.06718,0.016 -0.0012,3.5e-4 -0.0024,6.9e-4 -0.0036,0.001 -0.01924,0.005 -0.03808,0.0117 -0.05684,0.0181 -0.0036,0.001 -0.0073,0.002 -0.01085,0.004 -0.02061,0.007 -0.04099,0.0147 -0.06098,0.0232 -0.04217,0.0179 -0.08335,0.0385 -0.122473,0.0615 -3.97e-4,2.4e-4 -6.35e-4,7.9e-4 -0.001,0.001 -0.03908,0.0231 -0.07652,0.0487 -0.112137,0.0765 -0.0179,0.014 -0.03524,0.0283 -0.05219,0.0434 -0.01695,0.0151 -0.03366,0.0309 -0.04961,0.047 -0.01595,0.0161 -0.0311,0.0325 -0.04599,0.0496 -0.01489,0.0171 -0.02963,0.0347 -0.04341,0.0527 -0.02757,0.0361 -0.05263,0.0741 -0.07545,0.11369 h -5.29e-4 -0.670231 c -0.58632,0 -1.058333,0.47201 -1.058333,1.05833 v 7.40834 c 0,0.58632 0.472013,1.05833 1.058333,1.05833 h 0.670243 5.3e-4 c 0.03481,0.0604 0.07532,0.11699 0.120923,0.16898 0.0304,0.0347 0.06301,0.0673 0.09767,0.0977 0.05199,0.0456 0.108607,0.0861 0.168982,0.12092 v 5.3e-4 c 0.0079,0.005 0.01573,0.01 0.02377,0.0139 0.015,0.008 0.03056,0.0158 0.04599,0.0232 0.01543,0.007 0.03067,0.0145 0.04651,0.0212 0.01584,0.007 0.03183,0.0127 0.04806,0.0186 0.01622,0.006 0.03302,0.0114 0.04961,0.0165 0.01659,0.005 0.03319,0.0101 0.05013,0.0145 0.01693,0.004 0.0339,0.008 0.05116,0.0119 0.01725,0.004 0.03464,0.006 0.05219,0.009 0.01756,0.003 0.03539,0.005 0.05323,0.007 0.01783,0.002 0.03566,0.003 0.05374,0.004 0.01808,9.1e-4 0.03644,0.002 0.05477,0.002 h 3.704167 c 0.01832,0 0.03669,-5.3e-4 0.05478,-0.002 0.01809,-7.9e-4 0.03591,-0.002 0.05374,-0.004 0.01783,-0.002 0.03567,-0.004 0.05323,-0.007 0.01756,-0.003 0.03494,-0.005 0.05219,-0.009 0.01725,-0.004 0.03423,-0.008 0.05116,-0.0119 0.01693,-0.004 0.03354,-0.009 0.05013,-0.0145 0.01659,-0.005 0.03338,-0.0106 0.04961,-0.0165 0.01622,-0.006 0.03222,-0.0119 0.04806,-0.0186 0.01584,-0.007 0.03108,-0.0138 0.04651,-0.0212 0.01543,-0.007 0.03099,-0.0151 0.04599,-0.0233 0.008,-0.004 0.01586,-0.009 0.02377,-0.0139 v -5.3e-4 c 0.03957,-0.0228 0.07758,-0.0479 0.113688,-0.0754 0.01805,-0.0138 0.0356,-0.0285 0.05271,-0.0434 0.01711,-0.0149 0.0335,-0.03 0.04961,-0.046 0.01611,-0.016 0.03196,-0.0327 0.04703,-0.0496 0.01506,-0.017 0.02945,-0.0343 0.04341,-0.0522 0.02777,-0.0356 0.0534,-0.0731 0.07648,-0.11214 2.4e-4,-5.3e-4 7.94e-4,-5.3e-4 0.001,-0.001 0.02304,-0.0391 0.04357,-0.0803 0.0615,-0.12247 0.0085,-0.02 0.01597,-0.0404 0.02325,-0.061 0.0013,-0.004 0.0024,-0.007 0.0036,-0.0109 0.0064,-0.0188 0.01272,-0.0376 0.01809,-0.0568 3.44e-4,-0.001 7.14e-4,-0.002 10e-4,-0.004 0.0061,-0.0222 0.01135,-0.0444 0.01602,-0.0672 0.0036,-0.0175 0.0066,-0.0354 0.0093,-0.0532 3.7e-4,-0.002 6.88e-4,-0.005 10e-4,-0.007 0.0013,-0.009 0.002,-0.0179 0.0031,-0.0269 0.0016,-0.0132 0.003,-0.0265 0.0041,-0.0398 6.35e-4,-0.008 0.0016,-0.0158 0.0021,-0.0238 0.0013,-0.0212 0.0021,-0.0424 0.0021,-0.064 V 157.3 c 0,-0.51303 -0.361261,-0.93879 -0.844393,-1.03715 -0.03451,-0.007 -0.06976,-0.0119 -0.10542,-0.0155 -0.03566,-0.004 -0.07188,-0.006 -0.10852,-0.006 z" />
        <path
           id="path1006"
           style="fill:#556e81;fill-opacity:1;stroke-width:5.00001;stroke-linejoin:round"
           d="M 24 76 L 24 116.00195 L 32 116.00195 C 32.069241 116.00195 32.13866 116.00165 32.207031 115.99609 C 32.275403 115.99311 32.342767 115.98803 32.410156 115.98047 C 32.477545 115.97291 32.54496 115.96446 32.611328 115.95312 C 32.677697 115.94179 32.743397 115.93504 32.808594 115.91992 C 32.873791 115.9048 32.937966 115.88974 33.001953 115.875 C 33.065941 115.85988 33.128704 115.8411 33.191406 115.82031 C 33.254109 115.80141 33.317565 115.78011 33.378906 115.75781 C 33.44021 115.73514 33.500679 115.71282 33.560547 115.6875 C 33.620415 115.66104 33.67801 115.63539 33.736328 115.60742 C 33.794646 115.58097 33.853463 115.55052 33.910156 115.51953 C 33.940392 115.50441 33.970104 115.48532 34 115.4668 L 34 115.46484 C 34.149556 115.37867 34.293216 115.28362 34.429688 115.17969 C 34.497908 115.12753 34.564239 115.07194 34.628906 115.01562 C 34.693574 114.95931 34.755518 114.90227 34.816406 114.8418 C 34.877294 114.78132 34.937183 114.71817 34.994141 114.6543 C 35.05106 114.59004 35.105441 114.52468 35.158203 114.45703 C 35.263161 114.32248 35.360034 114.18076 35.447266 114.0332 C 35.448173 114.0312 35.450393 114.03107 35.451172 114.0293 C 35.538252 113.88152 35.615827 113.72579 35.683594 113.56641 C 35.71572 113.49082 35.743969 113.4138 35.771484 113.33594 C 35.776398 113.32082 35.780621 113.30966 35.785156 113.29492 C 35.809345 113.22387 35.83322 113.15265 35.853516 113.08008 C 35.854816 113.0763 35.856341 113.07201 35.857422 113.06445 C 35.880477 112.98055 35.900318 112.89672 35.917969 112.81055 C 35.931575 112.74441 35.94292 112.67665 35.953125 112.60938 C 35.954523 112.60182 35.955852 112.59154 35.957031 112.58398 C 35.961945 112.54997 35.964593 112.51644 35.96875 112.48242 C 35.974797 112.43253 35.980218 112.3823 35.984375 112.33203 C 35.986775 112.3018 35.990298 112.27047 35.992188 112.24023 C 35.997101 112.16011 36 112.08164 36 112 L 36 80 C 36 78.060989 34.634604 76.451832 32.808594 76.080078 C 32.678162 76.053621 32.544934 76.035091 32.410156 76.021484 C 32.275378 76.006366 32.138482 75.998047 32 75.998047 L 24 76 z "
           transform="matrix(0.26458334,0,0,0.26458334,82.550003,136.13333)" />
        <path
           style="fill:url(#linearGradient2520);fill-opacity:1;stroke:none;stroke-width:0.264583px;stroke-linecap:butt;stroke-linejoin:miter;stroke-opacity:1"
           d="m 93.133325,161.53332 1.058333,-1.05833 h 1.587497 l 2.11667,-4.23334 3.175005,6.35002 1.05834,-2.11668 h 2.64583 l 1.05833,1.05833 v 0 l -1.05833,1.05835 h -1.5875 l -2.11667,4.23332 -3.175005,-6.35 -1.05833,2.11668 h -2.645837 z"
           id="path995"
           sodipodi:nodetypes="ccccccccccccccccc" />
        <path
           id="path1107"
           style="fill:#556e81;fill-opacity:1;stroke-width:1.32292;stroke-linejoin:round"
           d="m 110.06667,156.24166 v 10.58385 H 107.95 c -0.0183,0 -0.0367,-8e-5 -0.0548,-0.002 -0.0181,-7.9e-4 -0.0359,-0.002 -0.0537,-0.004 -0.0178,-0.002 -0.0357,-0.004 -0.0532,-0.007 -0.0176,-0.003 -0.0349,-0.005 -0.0522,-0.009 -0.0173,-0.004 -0.0342,-0.008 -0.0512,-0.0119 -0.0169,-0.004 -0.0335,-0.009 -0.0501,-0.0145 -0.0166,-0.005 -0.0334,-0.0106 -0.0496,-0.0165 -0.0162,-0.006 -0.0322,-0.0119 -0.048,-0.0186 -0.0158,-0.007 -0.0311,-0.0138 -0.0465,-0.0212 -0.0154,-0.007 -0.031,-0.0151 -0.046,-0.0233 -0.008,-0.004 -0.0159,-0.009 -0.0238,-0.0139 v -5.2e-4 c -0.0396,-0.0228 -0.0776,-0.0479 -0.11368,-0.0754 -0.0181,-0.0138 -0.0356,-0.0285 -0.0527,-0.0434 -0.0171,-0.0149 -0.0335,-0.03 -0.0496,-0.046 -0.0161,-0.016 -0.032,-0.0327 -0.047,-0.0496 -0.0151,-0.017 -0.0294,-0.0343 -0.0434,-0.0522 -0.0278,-0.0356 -0.0534,-0.0731 -0.0765,-0.11214 -2.4e-4,-5.2e-4 -8.3e-4,-5.6e-4 -0.001,-0.001 -0.023,-0.0391 -0.0436,-0.0803 -0.0615,-0.12247 -0.009,-0.02 -0.016,-0.0404 -0.0233,-0.061 -10e-4,-0.004 -0.002,-0.007 -0.004,-0.0108 -0.006,-0.0188 -0.0127,-0.0376 -0.0181,-0.0568 -3.4e-4,-0.001 -7.4e-4,-0.002 -0.001,-0.004 -0.006,-0.0222 -0.0114,-0.0444 -0.016,-0.0672 -0.004,-0.0175 -0.007,-0.0354 -0.009,-0.0532 -3.7e-4,-0.002 -7.2e-4,-0.005 -0.001,-0.007 -0.001,-0.009 -0.002,-0.0179 -0.003,-0.0269 -0.002,-0.0132 -0.003,-0.0265 -0.004,-0.0398 -6.3e-4,-0.008 -0.002,-0.0163 -0.002,-0.0243 -0.001,-0.0212 -0.002,-0.042 -0.002,-0.0636 V 157.3 c 0,-0.51303 0.36126,-0.93879 0.84439,-1.03715 0.0345,-0.007 0.0698,-0.0119 0.10542,-0.0155 0.0357,-0.004 0.0719,-0.006 0.10852,-0.006 z" />
        <path
           id="rect981"
           style="fill:#2f3744;fill-opacity:1;stroke-width:0.264583;stroke-linecap:round;stroke-linejoin:round;stroke-dasharray:2.11666, 2.11666"
           d="m 99.469384,139.8375 c -7.300821,0.008 -13.215224,5.92834 -13.215214,13.22916 v 0.014 l -4e-6,12.68603 H 87.3125 l 3e-6,-12.69999 c 2e-6,-6.72176 5.449068,-12.17083 12.170834,-12.17083 6.721763,0 12.170833,5.44907 12.170833,12.17083 v 12.69999 h 1.05833 V 153.0667 c 10e-6,-7.30626 -5.92289,-13.22916 -13.229163,-13.22916 z m -10.569385,16.93332 v 0 l 1e-6,9.525 c 0,0 -4e-6,-1e-5 0,0 l 2.11667,1e-5 c 0.293157,0 0.529167,-0.236 0.529167,-0.52917 V 157.3 c 0,-0.29316 -0.23601,-0.52917 -0.529167,-0.52917 z m 19.050001,1e-5 c -0.29315,0 -0.52916,0.23601 -0.52916,0.52917 v 8.46666 c 0,0.29315 0.23601,0.52917 0.52916,0.52917 l 2.11667,-1e-5 v 0 -9.525 0 z"
           sodipodi:nodetypes="cscccssscccscccccsssscssssccccs" />
        <path
           id="path1067"
           style="fill:none;fill-opacity:1;stroke-width:0.264583;stroke-linecap:round;stroke-linejoin:round;stroke-dasharray:2.11666, 2.11666"
           d="m 114.3,157.82916 c 0,-0.58631 -0.47201,-1.05833 -1.05833,-1.05833 v -3.70417 A 13.758334,13.758334 0 0 0 99.483337,139.30833 v 0 a 13.758334,13.758334 0 0 0 -13.758334,13.75833 v 3.70417 c -0.586321,0 -1.058333,0.47202 -1.058333,1.05833 v 0" />
        <path
           id="path1190"
           style="fill:none;fill-opacity:1;stroke-width:0.264583;stroke-linecap:round;stroke-linejoin:round;stroke-dasharray:2.11666, 2.11666"
           d="M 106.89167,157.82916 H 114.3 c 0,0 0,0 0,0" />
        <path
           id="path1188"
           style="fill:none;fill-opacity:1;stroke-width:0.264583;stroke-linecap:round;stroke-linejoin:round;stroke-dasharray:2.11666, 2.11666"
           d="m 92.075004,157.82916 v 0 V 157.3 c 0,-0.58632 -0.472018,-1.05834 -1.058334,-1.05834 h -2.116667 v -3.14244 a 10.583335,10.592161 0 0 1 0,-0.0238 10.583335,10.592161 0 0 1 0,-0.009 10.583335,10.592161 0 0 1 10.559563,-10.58334 10.583335,10.592161 0 0 1 0.02377,0 10.583335,10.592161 0 0 1 10.583334,10.58333 v 0.009 3.16621 H 107.95 c -0.58632,0 -1.05833,0.47202 -1.05833,1.05834 v 0.52916 0" />
        <path
           id="path1186"
           style="fill:none;fill-opacity:1;stroke-width:0.264583;stroke-linecap:round;stroke-linejoin:round;stroke-dasharray:2.11666, 2.11666"
           d="m 84.66667,157.82916 h 7.408334" />
      </g>
    </g>
  </g>
</svg>
