<?xml version="1.0" encoding="UTF-8" standalone="no"?>
<!-- Created with Inkscape (http://www.inkscape.org/) -->

<svg
   width="128"
   height="128"
   viewBox="0 0 33.866667 33.866667"
   version="1.1"
   id="svg2634"
   inkscape:version="1.1.2 (0a00cf5339, 2022-02-04, custom)"
   sodipodi:docname="bleachbit.svg"
   xmlns:inkscape="http://www.inkscape.org/namespaces/inkscape"
   xmlns:sodipodi="http://sodipodi.sourceforge.net/DTD/sodipodi-0.dtd"
   xmlns="http://www.w3.org/2000/svg"
   xmlns:svg="http://www.w3.org/2000/svg"
   xmlns:rdf="http://www.w3.org/1999/02/22-rdf-syntax-ns#"
   xmlns:cc="http://creativecommons.org/ns#"
   xmlns:dc="http://purl.org/dc/elements/1.1/">
  <title
     id="title3250">Boston Icons</title>
  <defs
     id="defs2628" />
  <sodipodi:namedview
     id="base"
     pagecolor="#ffffff"
     bordercolor="#00ffed"
     borderopacity="1"
     inkscape:pageopacity="1"
     inkscape:pageshadow="2"
     inkscape:zoom="5.6"
     inkscape:cx="50.714286"
     inkscape:cy="75.982143"
     inkscape:document-units="px"
     inkscape:current-layer="g860"
     showgrid="false"
     showguides="false"
     inkscape:guide-bbox="true"
     fit-margin-top="0"
     fit-margin-left="0"
     fit-margin-right="0"
     fit-margin-bottom="0"
     inkscape:window-width="1920"
     inkscape:window-height="1011"
     inkscape:window-x="0"
     inkscape:window-y="0"
     inkscape:window-maximized="1"
     units="px"
     inkscape:pagecheckerboard="0">
    <inkscape:grid
       type="xygrid"
       id="grid3182"
       spacingx="0.52916667"
       spacingy="0.52916667"
       empspacing="4"
       originx="-82.550004"
       originy="-127.00001"
       dotted="false" />
    <sodipodi:guide
       position="-4.268358e-06,27.516666"
       orientation="1,0"
       id="guide3216"
       inkscape:locked="false" />
    <sodipodi:guide
       position="3.7041618,33.866666"
       orientation="0,1"
       id="guide3218"
       inkscape:locked="false" />
    <sodipodi:guide
       position="33.866657,24.870836"
       orientation="1,0"
       id="guide3220"
       inkscape:locked="false" />
    <sodipodi:guide
       position="32.279157,-4.1479283e-06"
       orientation="0,1"
       id="guide3222"
       inkscape:locked="false" />
    <sodipodi:guide
       position="15.345829,32.808336"
       orientation="0,1"
       id="guide3224"
       inkscape:locked="false" />
    <sodipodi:guide
       position="-4.7625023,1.0583259"
       orientation="0,1"
       id="guide3226"
       inkscape:locked="false" />
    <sodipodi:guide
       position="1.0583287,17.462496"
       orientation="1,0"
       id="guide3228"
       inkscape:locked="false" />
    <sodipodi:guide
       position="32.808327,20.108336"
       orientation="1,0"
       id="guide3230"
       inkscape:locked="false" />
    <sodipodi:guide
       position="15.874995,31.750006"
       orientation="0,1"
       id="guide3232"
       inkscape:locked="false" />
    <sodipodi:guide
       position="2.1166617,24.870836"
       orientation="1,0"
       id="guide3234"
       inkscape:locked="false" />
    <sodipodi:guide
       position="3.1749958,25.400006"
       orientation="1,0"
       id="guide3236"
       inkscape:locked="false" />
    <sodipodi:guide
       position="5.2916632,15.875009"
       orientation="1,0"
       id="guide3238"
       inkscape:locked="false" />
    <sodipodi:guide
       position="28.574997,25.400006"
       orientation="1,0"
       id="guide3240"
       inkscape:locked="false" />
    <sodipodi:guide
       position="30.691657,24.341666"
       orientation="1,0"
       id="guide3242"
       inkscape:locked="false" />
    <sodipodi:guide
       position="31.749997,21.695836"
       orientation="1,0"
       id="guide3244"
       inkscape:locked="false" />
    <sodipodi:guide
       position="21.695827,2.1166659"
       orientation="0,1"
       id="guide3246"
       inkscape:locked="false" />
    <sodipodi:guide
       position="16.404162,3.1749959"
       orientation="0,1"
       id="guide3248"
       inkscape:locked="false" />
    <sodipodi:guide
       position="26.987497,30.162491"
       orientation="0,1"
       id="guide843"
       inkscape:locked="false" />
    <sodipodi:guide
       position="30.162497,26.458325"
       orientation="0,1"
       id="guide845"
       inkscape:locked="false" />
  </sodipodi:namedview>
  <metadata
     id="metadata2631">
    <rdf:RDF>
      <cc:Work
         rdf:about="">
        <dc:format>image/svg+xml</dc:format>
        <dc:type
           rdf:resource="http://purl.org/dc/dcmitype/StillImage" />
        <dc:title>Boston Icons</dc:title>
        <cc:license
           rdf:resource="dribbble.com/chrisdiaz" />
        <dc:creator>
          <cc:Agent>
            <dc:title>Christian Díaz</dc:title>
          </cc:Agent>
        </dc:creator>
        <dc:date>2022</dc:date>
        <dc:publisher>
          <cc:Agent>
            <dc:title>Christian Díaz</dc:title>
          </cc:Agent>
        </dc:publisher>
        <dc:identifier>christiandiaz.design [at] gmail [dot] com</dc:identifier>
        <dc:subject>
          <rdf:Bag>
            <rdf:li>GNOME icon Theme</rdf:li>
          </rdf:Bag>
        </dc:subject>
        <dc:description>dribbble.com/chrisdiaz | diazchris.deviantart.com</dc:description>
      </cc:Work>
    </rdf:RDF>
  </metadata>
  <g
     inkscape:label="Capa 1"
     inkscape:groupmode="layer"
     id="layer1"
     transform="translate(-82.550003,-136.13333)">
    <g
       id="g869">
      <g
         id="g860">
        <g
           id="g1498">
          <rect
             style="fill:#373b43;fill-opacity:1;stroke:none;stroke-width:0.529167;stroke-linecap:square;stroke-linejoin:bevel;stroke-miterlimit:4;stroke-dasharray:none;stroke-opacity:1"
             id="rect910"
             width="23.283333"
             height="31.750008"
             x="87.841667"
             y="137.19167"
             ry="1.0583218"
             rx="1.0583336" />
          <rect
             style="fill:#96a5af;stroke-width:1.32292;stroke-linejoin:round"
             id="rect1679"
             width="22.224998"
             height="30.691662"
             x="88.370834"
             y="137.72083"
             ry="0.52916229"
             rx="0.52916646" />
          <rect
             style="fill:#373b43;stroke-width:1.32292;stroke-linejoin:round"
             id="rect1903"
             width="12.699999"
             height="2.1166728"
             x="95.779167"
             y="166.82498"
             rx="0.5291667"
             ry="0.52916139" />
          <path
             id="rect1007"
             style="fill:#ffffff;fill-opacity:1;stroke:none;stroke-width:0.529167;stroke-linecap:square;stroke-linejoin:bevel;stroke-miterlimit:4;stroke-dasharray:none;stroke-opacity:1"
             d="m 96.308337,167.35416 v 1.05834 h 3.175 v -1.05834 z m 4.233333,0 v 1.05834 H 107.95 v -1.05834 z" />
          <g
             id="g1923">
            <rect
               style="opacity:1;fill:#373b43;fill-opacity:1;stroke:none;stroke-width:0.529167;stroke-linecap:square;stroke-linejoin:bevel;stroke-miterlimit:4;stroke-dasharray:none;stroke-opacity:1"
               id="rect1593"
               width="23.283333"
               height="28.574989"
               x="87.841667"
               y="137.19167"
               ry="1.0583218"
               rx="1.0583336" />
            <rect
               style="fill:#96a5af;stroke-width:1.32292;stroke-linejoin:round"
               id="rect1817"
               width="22.224998"
               height="27.516663"
               x="88.370834"
               y="137.72083"
               ry="0.52916229"
               rx="0.52916646" />
          </g>
          <path
             id="path851"
             style="fill:#373b43;fill-opacity:1;fill-rule:evenodd;stroke:none;stroke-width:2.11667;stroke-linecap:round;stroke-linejoin:bevel;stroke-miterlimit:4;stroke-dasharray:none;stroke-opacity:1"
             d="m 89.958337,138.77916 c -0.292252,0 -0.529169,0.23692 -0.529167,0.52917 -2e-6,0.29225 0.236915,0.52917 0.529167,0.52917 0.292252,0 0.529168,-0.23692 0.529166,-0.52917 2e-6,-0.29225 -0.236914,-0.52917 -0.529166,-0.52917 z m 19.050003,0 c -0.29225,0 -0.52917,0.23692 -0.52917,0.52917 0,0.29225 0.23692,0.52917 0.52917,0.52917 0.29225,0 0.52916,-0.23692 0.52916,-0.52917 0,-0.29225 -0.23691,-0.52917 -0.52916,-0.52917 z m -19.050003,24.34167 c -0.292252,0 -0.529169,0.23691 -0.529167,0.52917 4e-6,0.29224 0.236919,0.52916 0.529167,0.52916 0.292248,-1e-5 0.529162,-0.23692 0.529166,-0.52916 2e-6,-0.29226 -0.236914,-0.52917 -0.529166,-0.52917 z m 19.050003,0 c -0.29225,-1e-5 -0.52917,0.23691 -0.52917,0.52917 0,0.29224 0.23692,0.52916 0.52917,0.52916 0.29225,-1e-5 0.52916,-0.23692 0.52916,-0.52916 0,-0.29225 -0.23691,-0.52917 -0.52916,-0.52917 z"
             sodipodi:nodetypes="scscssssssssssssssss" />
          <path
             id="rect848"
             style="fill:#ffffff;fill-opacity:1;fill-rule:evenodd;stroke:none;stroke-width:2;stroke-linecap:square;stroke-linejoin:bevel;stroke-miterlimit:4;stroke-dasharray:none;stroke-opacity:1"
             d="M 56 62 L 56 64 L 58 64 L 58 62 L 56 62 z "
             transform="matrix(0.26458334,0,0,0.26458334,82.550003,136.13333)" />
          <path
             id="path1154"
             style="fill:#ffffff;fill-opacity:1;fill-rule:evenodd;stroke:none;stroke-width:2;stroke-linecap:square;stroke-linejoin:bevel;stroke-miterlimit:4;stroke-dasharray:none;stroke-opacity:1"
             d="M 66 58 L 66 60 L 70 60 L 70 58 L 66 58 z "
             transform="matrix(0.26458334,0,0,0.26458334,82.550003,136.13333)" />
          <path
             id="path1152"
             style="fill:#ffffff;fill-opacity:1;fill-rule:evenodd;stroke:none;stroke-width:2;stroke-linecap:square;stroke-linejoin:bevel;stroke-miterlimit:4;stroke-dasharray:none;stroke-opacity:1"
             d="M 62 58 L 62 60 L 64 60 L 64 58 L 62 58 z "
             transform="matrix(0.26458334,0,0,0.26458334,82.550003,136.13333)" />
          <path
             id="path1150"
             style="fill:#ffffff;fill-opacity:1;fill-rule:evenodd;stroke:none;stroke-width:2;stroke-linecap:square;stroke-linejoin:bevel;stroke-miterlimit:4;stroke-dasharray:none;stroke-opacity:1"
             d="M 56 58 L 56 60 L 60 60 L 60 58 L 56 58 z "
             transform="matrix(0.26458334,0,0,0.26458334,82.550003,136.13333)" />
          <path
             id="path1148"
             style="fill:#ffffff;fill-opacity:1;fill-rule:evenodd;stroke:none;stroke-width:2;stroke-linecap:square;stroke-linejoin:bevel;stroke-miterlimit:4;stroke-dasharray:none;stroke-opacity:1"
             d="M 56 52 L 56 56 L 64 56 L 64 52 L 56 52 z "
             transform="matrix(0.26458334,0,0,0.26458334,82.550003,136.13333)" />
          <path
             id="path1142"
             style="fill:#ffffff;fill-opacity:1;fill-rule:evenodd;stroke:none;stroke-width:2;stroke-linecap:square;stroke-linejoin:bevel;stroke-miterlimit:4;stroke-dasharray:none;stroke-opacity:1"
             d="M 62 64 L 62 62 L 60 62 L 60 64 L 62 64 z "
             transform="matrix(0.26458334,0,0,0.26458334,82.550003,136.13333)" />
          <path
             id="path1138"
             style="fill:#ffffff;fill-opacity:1;fill-rule:evenodd;stroke:none;stroke-width:2;stroke-linecap:square;stroke-linejoin:bevel;stroke-miterlimit:4;stroke-dasharray:none;stroke-opacity:1"
             d="M 62 72 L 62 70 L 54 70 L 54 50 L 74 50 L 74 62 L 76 62 L 76 48 L 52 48 L 52 72 L 62 72 z "
             transform="matrix(0.26458334,0,0,0.26458334,82.550003,136.13333)" />
          <path
             id="path1134"
             style="fill:#ffffff;fill-opacity:1;fill-rule:evenodd;stroke:none;stroke-width:2;stroke-linecap:square;stroke-linejoin:bevel;stroke-miterlimit:4;stroke-dasharray:none;stroke-opacity:1"
             d="M 50 34 L 50 42 L 46 42 L 46 46 L 38 46 L 38 50 L 46 50 L 46 54 L 38 54 L 38 58 L 46 58 L 46 62 L 38 62 L 38 66 L 46 66 L 46 70 L 38 70 L 38 74 L 46 74 L 46 78 L 50 78 L 50 86 L 54 86 L 54 78 L 58 78 L 58 86 L 62 86 L 62 78 L 62 76 L 48 76 L 48 44 L 80 44 L 80 62 L 82 62 L 82 58 L 90 58 L 90 54 L 82 54 L 82 50 L 90 50 L 90 46 L 82 46 L 82 42 L 78 42 L 78 34 L 74 34 L 74 42 L 70 42 L 70 34 L 66 34 L 66 42 L 62 42 L 62 34 L 58 34 L 58 42 L 54 42 L 54 34 L 50 34 z "
             transform="matrix(0.26458334,0,0,0.26458334,82.550003,136.13333)" />
          <g
             id="g870">
            <path
               id="rect1248"
               style="fill:#a57b50;stroke-width:0.529167;stroke-linejoin:round"
               d="m 106.89167,143.54166 c -1.17263,0 -2.11667,0.94405 -2.11667,2.11667 v 7.40833 h -4.7625 c -0.293153,0 -0.529163,0.23601 -0.529163,0.52917 V 157.3 H 114.3 v -3.70417 c 0,-0.29316 -0.23601,-0.52917 -0.52916,-0.52917 h -4.7625 v -7.40833 c 0,-1.17262 -0.94404,-2.11667 -2.11667,-2.11667 z" />
            <rect
               style="fill:#ffa803;stroke-width:0.529167;stroke-linejoin:round"
               id="rect1891"
               width="14.81667"
               height="11.641663"
               x="99.48333"
               y="157.29999"
               rx="5.4029242e-06"
               ry="0" />
            <path
               id="rect1888"
               style="fill:#ffc61b;stroke-width:0.529167;stroke-linejoin:round"
               d="m 100.0125,157.82916 v 10.58334 h 1.05834 v -6.35 H 101.6 v 6.35 h 1.05834 v -7.40834 h 0.52916 v 7.40834 h 1.05834 v -6.35 h 0.52916 v 6.35 h 1.05834 v -8.46667 h 0.52916 v 8.46667 h 1.05834 v -7.40834 H 107.95 v 7.40834 h 1.05834 v -6.35 h 0.52916 v 6.35 h 1.05834 v -7.40834 h 0.52916 v 7.40834 h 1.05834 v -6.35 h 0.52916 v 6.35 h 1.05834 v -10.58334 z" />
            <path
               id="rect1874"
               style="fill:#ebb16d;stroke-width:0.529167;stroke-linejoin:round"
               d="m 106.89167,144.07083 c -0.87947,0 -1.5875,0.70802 -1.5875,1.5875 v 7.9375 h -5.29167 v 3.175 h 13.75834 v -3.175 h -5.29167 v -7.9375 c 0,-0.87948 -0.70802,-1.5875 -1.5875,-1.5875 z m 0,1.05833 a 0.52916671,0.52916671 0 0 1 0.52917,0.52917 0.52916671,0.52916671 0 0 1 -0.52917,0.52917 0.52916671,0.52916671 0 0 1 -0.52917,-0.52917 0.52916671,0.52916671 0 0 1 0.52917,-0.52917 z" />
          </g>
        </g>
      </g>
    </g>
  </g>
</svg>
