<?xml version="1.0" encoding="UTF-8" standalone="no"?>
<!-- Created with Inkscape (http://www.inkscape.org/) -->

<svg
   width="128"
   height="128"
   viewBox="0 0 33.866667 33.866667"
   version="1.1"
   id="svg2634"
   inkscape:version="1.1.2 (0a00cf5339, 2022-02-04, custom)"
   sodipodi:docname="soundconverter.svg"
   xmlns:inkscape="http://www.inkscape.org/namespaces/inkscape"
   xmlns:sodipodi="http://sodipodi.sourceforge.net/DTD/sodipodi-0.dtd"
   xmlns="http://www.w3.org/2000/svg"
   xmlns:svg="http://www.w3.org/2000/svg"
   xmlns:rdf="http://www.w3.org/1999/02/22-rdf-syntax-ns#"
   xmlns:cc="http://creativecommons.org/ns#"
   xmlns:dc="http://purl.org/dc/elements/1.1/">
  <title
     id="title3250">Boston Icons</title>
  <defs
     id="defs2628" />
  <sodipodi:namedview
     id="base"
     pagecolor="#ffffff"
     bordercolor="#00ffed"
     borderopacity="1"
     inkscape:pageopacity="1"
     inkscape:pageshadow="2"
     inkscape:zoom="5.6"
     inkscape:cx="112.41071"
     inkscape:cy="64.017857"
     inkscape:document-units="px"
     inkscape:current-layer="layer1"
     showgrid="false"
     showguides="false"
     inkscape:guide-bbox="true"
     fit-margin-top="0"
     fit-margin-left="0"
     fit-margin-right="0"
     fit-margin-bottom="0"
     inkscape:window-width="1920"
     inkscape:window-height="1011"
     inkscape:window-x="0"
     inkscape:window-y="0"
     inkscape:window-maximized="1"
     units="px"
     inkscape:pagecheckerboard="0">
    <inkscape:grid
       type="xygrid"
       id="grid3182"
       spacingx="0.52916667"
       spacingy="0.52916667"
       empspacing="4"
       originx="-82.550004"
       originy="-127.00001"
       dotted="false" />
    <sodipodi:guide
       position="-4.268358e-06,27.516666"
       orientation="1,0"
       id="guide3216"
       inkscape:locked="false" />
    <sodipodi:guide
       position="3.7041618,33.866666"
       orientation="0,1"
       id="guide3218"
       inkscape:locked="false" />
    <sodipodi:guide
       position="33.866657,24.870836"
       orientation="1,0"
       id="guide3220"
       inkscape:locked="false" />
    <sodipodi:guide
       position="32.279157,-4.1479283e-06"
       orientation="0,1"
       id="guide3222"
       inkscape:locked="false" />
    <sodipodi:guide
       position="15.345829,32.808336"
       orientation="0,1"
       id="guide3224"
       inkscape:locked="false" />
    <sodipodi:guide
       position="-4.7625023,1.0583259"
       orientation="0,1"
       id="guide3226"
       inkscape:locked="false" />
    <sodipodi:guide
       position="1.0583287,17.462496"
       orientation="1,0"
       id="guide3228"
       inkscape:locked="false" />
    <sodipodi:guide
       position="32.808327,20.108336"
       orientation="1,0"
       id="guide3230"
       inkscape:locked="false" />
    <sodipodi:guide
       position="15.874995,31.750006"
       orientation="0,1"
       id="guide3232"
       inkscape:locked="false" />
    <sodipodi:guide
       position="2.1166617,24.870836"
       orientation="1,0"
       id="guide3234"
       inkscape:locked="false" />
    <sodipodi:guide
       position="3.1749958,25.400006"
       orientation="1,0"
       id="guide3236"
       inkscape:locked="false" />
    <sodipodi:guide
       position="30.691657,24.341666"
       orientation="1,0"
       id="guide3242"
       inkscape:locked="false" />
    <sodipodi:guide
       position="31.749997,21.695836"
       orientation="1,0"
       id="guide3244"
       inkscape:locked="false" />
    <sodipodi:guide
       position="21.695827,2.1166659"
       orientation="0,1"
       id="guide3246"
       inkscape:locked="false" />
    <sodipodi:guide
       position="16.404162,3.1749959"
       orientation="0,1"
       id="guide3248"
       inkscape:locked="false" />
    <sodipodi:guide
       position="26.987497,30.162491"
       orientation="0,1"
       id="guide843"
       inkscape:locked="false" />
    <sodipodi:guide
       position="18.52083,26.458343"
       orientation="0,1"
       id="guide845"
       inkscape:locked="false" />
    <sodipodi:guide
       position="18.52083,14.816658"
       orientation="0,1"
       id="guide858"
       inkscape:locked="false" />
    <sodipodi:guide
       position="16.93333,26.987509"
       orientation="1,0"
       id="guide4922"
       inkscape:locked="false" />
    <sodipodi:guide
       position="7.9374966,21.695843"
       orientation="0,-1"
       id="guide2886" />
    <sodipodi:guide
       position="7.9374966,7.9375094"
       orientation="0,-1"
       id="guide2888" />
    <sodipodi:guide
       position="6.3499966,17.462509"
       orientation="0,-1"
       id="guide2912" />
    <sodipodi:guide
       position="6.3499966,12.170843"
       orientation="0,-1"
       id="guide2914" />
    <sodipodi:guide
       position="18.52083,16.404176"
       orientation="0.70710678,-0.70710678"
       id="guide3533" />
  </sodipodi:namedview>
  <metadata
     id="metadata2631">
    <rdf:RDF>
      <cc:Work
         rdf:about="">
        <dc:format>image/svg+xml</dc:format>
        <dc:type
           rdf:resource="http://purl.org/dc/dcmitype/StillImage" />
        <dc:title>Boston Icons</dc:title>
        <cc:license
           rdf:resource="dribbble.com/chrisdiaz" />
        <dc:creator>
          <cc:Agent>
            <dc:title>Christian Díaz</dc:title>
          </cc:Agent>
        </dc:creator>
        <dc:date>2022</dc:date>
        <dc:publisher>
          <cc:Agent>
            <dc:title>Christian Díaz</dc:title>
          </cc:Agent>
        </dc:publisher>
        <dc:identifier>christiandiaz.design [at] gmail [dot] com</dc:identifier>
        <dc:subject>
          <rdf:Bag>
            <rdf:li>GNOME icon Theme</rdf:li>
          </rdf:Bag>
        </dc:subject>
        <dc:description>dribbble.com/chrisdiaz | diazchris.deviantart.com</dc:description>
      </cc:Work>
    </rdf:RDF>
  </metadata>
  <g
     inkscape:label="Capa 1"
     inkscape:groupmode="layer"
     id="layer1"
     transform="translate(-82.550003,-136.13333)">
    <g
       id="g868">
      <rect
         rx="1.058329"
         y="143.54167"
         x="84.666664"
         height="23.283335"
         width="29.633333"
         id="rect858"
         style="fill:#556e81;fill-opacity:1;fill-rule:evenodd;stroke:none;stroke-width:0.529167;stroke-linecap:square;stroke-linejoin:bevel;stroke-miterlimit:4;stroke-dasharray:none;stroke-opacity:1"
         ry="1.0583158" />
      <rect
         style="fill:#2d8cff;stroke-width:0.264583;stroke-linejoin:round"
         id="rect1230"
         width="28.575001"
         height="22.225"
         x="85.195831"
         y="144.07082"
         rx="0.52916187"
         ry="0.52917147" />
      <path
         id="rect1356"
         style="fill:#7a8e9e;stroke-width:0.264583;stroke-linejoin:round"
         d="m 85.724999,144.07082 c -0.293156,0 -0.529167,0.236 -0.529167,0.52916 v 21.16667 c 0,0.29316 0.236011,0.52917 0.529167,0.52917 h 13.758334 l 0,-11.1125 0,-11.1125 z"
         sodipodi:nodetypes="sssscccs" />
      <path
         id="rect2560"
         style="fill:#ffffff;stroke-width:0.999999;stroke-linejoin:round"
         d="M 28 46 C 26.892011 46 26 46.891989 26 48 L 26 96 C 26 97.108011 26.892011 98 28 98 C 29.107989 98 30 97.108011 30 96 L 30 48 C 30 46.891989 29.107989 46 28 46 z M 75.8125 46 C 74.807947 46 74 46.891989 74 48 L 74 96 C 74 97.108011 74.807947 98 75.8125 98 L 76.1875 98 C 77.192053 98 78 97.108011 78 96 L 78 48 C 78 46.891989 77.192053 46 76.1875 46 L 75.8125 46 z M 100 46 C 98.892011 46 98 46.891989 98 48 L 98 96 C 98 97.108011 98.892011 98 100 98 C 101.10799 98 102 97.108011 102 96 L 102 48 C 102 46.891989 101.10799 46 100 46 z M 52 50 C 50.892001 50 50 50.891989 50 52 L 50 92 C 50 93.108011 50.892001 94 52 94 C 53.107999 94 54 93.108011 54 92 L 54 52 C 54 50.891989 53.107999 50 52 50 z M 43.9375 54 C 42.864475 54 42 54.891989 42 56 L 42 88 C 42 89.108011 42.864475 90 43.9375 90 L 44.0625 90 C 45.135525 90 46 89.108011 46 88 L 46 56 C 46 54.891989 45.135525 54 44.0625 54 L 43.9375 54 z M 83.9375 54 C 82.864475 54 82 54.891989 82 56 L 82 88 C 82 89.108011 82.864475 90 83.9375 90 L 84.0625 90 C 85.135525 90 86 89.108011 86 88 L 86 56 C 86 54.891989 85.135525 54 84.0625 54 L 83.9375 54 z M 60 58 C 58.892008 58 58 58.891989 58 60 L 58 84 C 58 85.108011 58.892008 86 60 86 C 61.107992 86 62 85.108011 62 84 L 62 60 C 62 58.891989 61.107992 58 60 58 z M 36 62 C 34.892004 62 34 62.891989 34 64 L 34 80 C 34 81.108011 34.892004 82 36 82 C 37.107996 82 38 81.108011 38 80 L 38 64 C 38 62.891989 37.107996 62 36 62 z M 67.777344 62 C 66.793001 62 66 62.891989 66 64 L 66 80 C 66 81.108011 66.793001 82 67.777344 82 L 68.222656 82 C 69.206999 82 70 81.108011 70 80 L 70 64 C 70 62.891989 69.206999 62 68.222656 62 L 67.777344 62 z M 92 62 C 90.892004 62 90 62.891989 90 64 L 90 80 C 90 81.108011 90.892004 82 92 82 C 93.107996 82 94 81.108011 94 80 L 94 64 C 94 62.891989 93.107996 62 92 62 z M 19.947266 68 C 18.863386 68.027277 18 68.909302 18 70 L 18 74 C 18 75.108011 18.892 76 20 76 C 21.108 76 22 75.108011 22 74 L 22 70 C 22 68.891989 21.108 68 20 68 C 19.982688 68 19.96447 67.999567 19.947266 68 z M 107.94727 68 C 106.86339 68.027277 106 68.909302 106 70 L 106 74 C 106 75.108011 106.892 76 108 76 C 109.108 76 110 75.108011 110 74 L 110 70 C 110 68.891989 109.108 68 108 68 C 107.98269 68 107.96447 67.999567 107.94727 68 z "
         transform="matrix(0.26458334,0,0,0.26458334,82.550003,136.13333)" />
    </g>
  </g>
</svg>
