<?xml version="1.0" encoding="UTF-8" standalone="no"?>
<!-- Created with Inkscape (http://www.inkscape.org/) -->

<svg
   xmlns:dc="http://purl.org/dc/elements/1.1/"
   xmlns:cc="http://creativecommons.org/ns#"
   xmlns:rdf="http://www.w3.org/1999/02/22-rdf-syntax-ns#"
   xmlns:svg="http://www.w3.org/2000/svg"
   xmlns="http://www.w3.org/2000/svg"
   xmlns:sodipodi="http://sodipodi.sourceforge.net/DTD/sodipodi-0.dtd"
   xmlns:inkscape="http://www.inkscape.org/namespaces/inkscape"
   width="128"
   height="128"
   viewBox="0 0 33.866667 33.866667"
   version="1.1"
   id="svg2634"
   inkscape:version="0.92.4 5da689c313, 2019-01-14"
   sodipodi:docname="system-software-install.svg">
  <title
     id="title3250">Boston Icons</title>
  <defs
     id="defs2628" />
  <sodipodi:namedview
     id="base"
     pagecolor="#ffffff"
     bordercolor="#00ffed"
     borderopacity="1"
     inkscape:pageopacity="1"
     inkscape:pageshadow="2"
     inkscape:zoom="3.959798"
     inkscape:cx="81.033143"
     inkscape:cy="46.039591"
     inkscape:document-units="px"
     inkscape:current-layer="layer1"
     showgrid="false"
     showguides="false"
     inkscape:guide-bbox="true"
     fit-margin-top="0"
     fit-margin-left="0"
     fit-margin-right="0"
     fit-margin-bottom="0"
     inkscape:window-width="1920"
     inkscape:window-height="1016"
     inkscape:window-x="0"
     inkscape:window-y="27"
     inkscape:window-maximized="1"
     units="px">
    <inkscape:grid
       type="xygrid"
       id="grid3182"
       spacingx="0.52916667"
       spacingy="0.52916667"
       empspacing="4"
       originx="-82.550004"
       originy="-127.00001"
       dotted="false" />
    <sodipodi:guide
       position="-4.268358e-06,27.516666"
       orientation="1,0"
       id="guide3216"
       inkscape:locked="false" />
    <sodipodi:guide
       position="3.7041618,33.866666"
       orientation="0,1"
       id="guide3218"
       inkscape:locked="false" />
    <sodipodi:guide
       position="33.866657,24.870836"
       orientation="1,0"
       id="guide3220"
       inkscape:locked="false" />
    <sodipodi:guide
       position="32.279157,-4.1479283e-06"
       orientation="0,1"
       id="guide3222"
       inkscape:locked="false" />
    <sodipodi:guide
       position="15.345829,32.808336"
       orientation="0,1"
       id="guide3224"
       inkscape:locked="false" />
    <sodipodi:guide
       position="-4.7625023,1.0583259"
       orientation="0,1"
       id="guide3226"
       inkscape:locked="false" />
    <sodipodi:guide
       position="15.874995,31.750006"
       orientation="0,1"
       id="guide3232"
       inkscape:locked="false" />
    <sodipodi:guide
       position="2.1166617,24.870836"
       orientation="1,0"
       id="guide3234"
       inkscape:locked="false" />
    <sodipodi:guide
       position="9.5249966,22.224991"
       orientation="1,0"
       id="guide3238"
       inkscape:locked="false" />
    <sodipodi:guide
       position="24.341663,17.462491"
       orientation="1,0"
       id="guide3240"
       inkscape:locked="false" />
    <sodipodi:guide
       position="31.749997,21.695836"
       orientation="1,0"
       id="guide3244"
       inkscape:locked="false" />
    <sodipodi:guide
       position="21.695827,2.1166659"
       orientation="0,1"
       id="guide3246"
       inkscape:locked="false" />
    <sodipodi:guide
       position="16.404162,3.1749959"
       orientation="0,1"
       id="guide3248"
       inkscape:locked="false" />
    <sodipodi:guide
       position="30.162497,30.691658"
       orientation="0,1"
       id="guide843"
       inkscape:locked="false" />
    <sodipodi:guide
       position="30.162497,26.458325"
       orientation="0,1"
       id="guide845"
       inkscape:locked="false" />
    <sodipodi:guide
       position="16.93333,10.583324"
       orientation="1,0"
       id="guide868"
       inkscape:locked="false" />
    <sodipodi:guide
       position="17.991663,20.108324"
       orientation="0,1"
       id="guide848"
       inkscape:locked="false" />
    <sodipodi:guide
       position="19.049997,7.4083242"
       orientation="0,1"
       id="guide850"
       inkscape:locked="false" />
  </sodipodi:namedview>
  <metadata
     id="metadata2631">
    <rdf:RDF>
      <cc:Work
         rdf:about="">
        <dc:format>image/svg+xml</dc:format>
        <dc:type
           rdf:resource="http://purl.org/dc/dcmitype/StillImage" />
        <dc:title>Boston Icons</dc:title>
        <cc:license
           rdf:resource="dribbble.com/chrisdiaz" />
        <dc:creator>
          <cc:Agent>
            <dc:title>Christian Díaz</dc:title>
          </cc:Agent>
        </dc:creator>
        <dc:date>2019</dc:date>
        <dc:publisher>
          <cc:Agent>
            <dc:title>Christian Díaz</dc:title>
          </cc:Agent>
        </dc:publisher>
        <dc:identifier>christiandiaz.design [at] gmail [dot] com</dc:identifier>
        <dc:subject>
          <rdf:Bag>
            <rdf:li>GNOME icon Theme</rdf:li>
          </rdf:Bag>
        </dc:subject>
        <dc:description>dribbble.com/chrisdiaz</dc:description>
      </cc:Work>
    </rdf:RDF>
  </metadata>
  <g
     inkscape:label="Capa 1"
     inkscape:groupmode="layer"
     id="layer1"
     transform="translate(-82.550003,-136.13333)">
    <g
       id="g888">
      <g
         id="g922">
        <rect
           style="opacity:1;fill:#a57b50;fill-opacity:1;fill-rule:nonzero;stroke:none;stroke-width:0.5291667;stroke-linecap:square;stroke-linejoin:bevel;stroke-miterlimit:4;stroke-dasharray:none;stroke-dashoffset:35;stroke-opacity:1"
           id="rect871"
           width="29.633337"
           height="23.283335"
           x="84.666664"
           y="144.60001" />
        <rect
           style="fill:#ebb16d;fill-opacity:1;stroke:none;stroke-width:0.5291667;stroke-linejoin:bevel;stroke-miterlimit:4;stroke-dasharray:none;stroke-opacity:1"
           id="rect862"
           width="28.575003"
           height="22.225008"
           x="85.195831"
           y="145.12917" />
        <rect
           style="opacity:1;fill:#a57b50;fill-opacity:1;fill-rule:nonzero;stroke:none;stroke-width:0.5291667;stroke-linecap:square;stroke-linejoin:bevel;stroke-miterlimit:4;stroke-dasharray:none;stroke-dashoffset:35;stroke-opacity:1"
           id="rect905"
           width="3.1750004"
           height="4.7624931"
           x="92.074997"
           y="140.36667" />
        <rect
           style="opacity:1;fill:#a57b50;fill-opacity:1;fill-rule:nonzero;stroke:none;stroke-width:0.5291667;stroke-linecap:square;stroke-linejoin:bevel;stroke-miterlimit:4;stroke-dasharray:none;stroke-dashoffset:35;stroke-opacity:1"
           id="rect905-7"
           width="3.1749964"
           height="4.7624931"
           x="103.71667"
           y="140.36667" />
        <path
           style="fill:#a57b50;fill-opacity:1;stroke:none;stroke-width:0.26458335px;stroke-linecap:butt;stroke-linejoin:miter;stroke-opacity:1"
           d="m 92.075,140.36667 3.175,-3.175 8.46667,-10e-6 3.175,3.17501 z"
           id="path924"
           inkscape:connector-curvature="0" />
        <path
           style="fill:#ebb16d;stroke:none;stroke-width:0.26458335px;stroke-linecap:butt;stroke-linejoin:miter;stroke-opacity:1"
           d="m 95.62042,137.72084 h 7.72583 l 2.11667,2.11667 H 93.503753 Z"
           id="path926"
           inkscape:connector-curvature="0"
           sodipodi:nodetypes="ccccc" />
        <rect
           style="opacity:1;fill:#ebb16d;fill-opacity:1;fill-rule:nonzero;stroke:none;stroke-width:0.5291667;stroke-linecap:square;stroke-linejoin:bevel;stroke-miterlimit:4;stroke-dasharray:none;stroke-dashoffset:35;stroke-opacity:1"
           id="rect928"
           width="2.1166668"
           height="4.2333336"
           x="104.24583"
           y="140.36667" />
        <rect
           style="opacity:1;fill:#ebb16d;fill-opacity:1;fill-rule:nonzero;stroke:none;stroke-width:0.5291667;stroke-linecap:square;stroke-linejoin:bevel;stroke-miterlimit:4;stroke-dasharray:none;stroke-dashoffset:35;stroke-opacity:1"
           id="rect930"
           width="2.1166668"
           height="4.2333336"
           x="92.604164"
           y="140.36667" />
        <rect
           style="opacity:1;fill:#a57b50;fill-opacity:1;fill-rule:nonzero;stroke:none;stroke-width:0.5291667;stroke-linecap:square;stroke-linejoin:bevel;stroke-miterlimit:4;stroke-dasharray:none;stroke-dashoffset:35;stroke-opacity:1"
           width="3.1750026"
           height="0.52917063"
           x="92.074997"
           y="140.36667"
           id="rect951" />
        <rect
           style="opacity:1;fill:#a57b50;fill-opacity:1;fill-rule:nonzero;stroke:none;stroke-width:0.5291667;stroke-linecap:square;stroke-linejoin:bevel;stroke-miterlimit:4;stroke-dasharray:none;stroke-dashoffset:35;stroke-opacity:1"
           width="3.1749992"
           height="0.52917063"
           x="103.71667"
           y="140.36667"
           id="rect953" />
        <g
           id="g900"
           transform="translate(2.1166709,1.0583261)">
          <path
             style="opacity:1;fill:#a57b50;fill-opacity:1;fill-rule:nonzero;stroke:none;stroke-width:2;stroke-linecap:square;stroke-linejoin:bevel;stroke-miterlimit:4;stroke-dasharray:none;stroke-dashoffset:35;stroke-opacity:1"
             d="m 52,60 a 4.0000002,4.0000002 0 0 0 -4,4 4.0000002,4.0000002 0 0 0 4,4 4.0000002,4.0000002 0 0 0 4,-4 4.0000002,4.0000002 0 0 0 -4,-4 z m 12,0 a 4.0000002,4.0000002 0 0 0 -4,4 4.0000002,4.0000002 0 0 0 4,4 4.0000002,4.0000002 0 0 0 4,-4 4.0000002,4.0000002 0 0 0 -4,-4 z m 12,0 a 4.0000002,4.0000002 0 0 0 -4,4 4.0000002,4.0000002 0 0 0 4,4 4.0000002,4.0000002 0 0 0 4,-4 4.0000002,4.0000002 0 0 0 -4,-4 z M 52,72 a 4.0000002,4.0000002 0 0 0 -4,4 4.0000002,4.0000002 0 0 0 4,4 4.0000002,4.0000002 0 0 0 4,-4 4.0000002,4.0000002 0 0 0 -4,-4 z m 12,0 a 4.0000002,4.0000002 0 0 0 -4,4 4.0000002,4.0000002 0 0 0 4,4 4.0000002,4.0000002 0 0 0 4,-4 4.0000002,4.0000002 0 0 0 -4,-4 z m 12,0 a 4.0000002,4.0000002 0 0 0 -4,4 4.0000002,4.0000002 0 0 0 4,4 4.0000002,4.0000002 0 0 0 4,-4 4.0000002,4.0000002 0 0 0 -4,-4 z M 52,84 a 4.0000002,4.0000002 0 0 0 -4,4 4.0000002,4.0000002 0 0 0 4,4 4.0000002,4.0000002 0 0 0 4,-4 4.0000002,4.0000002 0 0 0 -4,-4 z m 12,0 a 4.0000002,4.0000002 0 0 0 -4,4 4.0000002,4.0000002 0 0 0 4,4 4.0000002,4.0000002 0 0 0 4,-4 4.0000002,4.0000002 0 0 0 -4,-4 z m 12,0 a 4.0000002,4.0000002 0 0 0 -4,4 4.0000002,4.0000002 0 0 0 4,4 4.0000002,4.0000002 0 0 0 4,-4 4.0000002,4.0000002 0 0 0 -4,-4 z"
             transform="matrix(0.26458334,0,0,0.26458334,80.433332,135.075)"
             id="path873"
             inkscape:connector-curvature="0" />
        </g>
      </g>
    </g>
  </g>
</svg>
