<?xml version="1.0" encoding="UTF-8" standalone="no"?>
<!-- Created with Inkscape (http://www.inkscape.org/) -->

<svg
   width="128"
   height="128"
   viewBox="0 0 33.866667 33.866667"
   version="1.1"
   id="svg2634"
   inkscape:version="1.1.2 (0a00cf5339, 2022-02-04, custom)"
   sodipodi:docname="system-software-install.svg"
   xmlns:inkscape="http://www.inkscape.org/namespaces/inkscape"
   xmlns:sodipodi="http://sodipodi.sourceforge.net/DTD/sodipodi-0.dtd"
   xmlns="http://www.w3.org/2000/svg"
   xmlns:svg="http://www.w3.org/2000/svg"
   xmlns:rdf="http://www.w3.org/1999/02/22-rdf-syntax-ns#"
   xmlns:cc="http://creativecommons.org/ns#"
   xmlns:dc="http://purl.org/dc/elements/1.1/">
  <title
     id="title3250">Boston Icons</title>
  <defs
     id="defs2628" />
  <sodipodi:namedview
     id="base"
     pagecolor="#ffffff"
     bordercolor="#00ffed"
     borderopacity="1"
     inkscape:pageopacity="1"
     inkscape:pageshadow="2"
     inkscape:zoom="7.919596"
     inkscape:cx="57.641829"
     inkscape:cy="73.172924"
     inkscape:document-units="px"
     inkscape:current-layer="layer1"
     showgrid="false"
     showguides="false"
     inkscape:guide-bbox="true"
     fit-margin-top="0"
     fit-margin-left="0"
     fit-margin-right="0"
     fit-margin-bottom="0"
     inkscape:window-width="1920"
     inkscape:window-height="1011"
     inkscape:window-x="0"
     inkscape:window-y="0"
     inkscape:window-maximized="1"
     units="px"
     inkscape:pagecheckerboard="0">
    <inkscape:grid
       type="xygrid"
       id="grid3182"
       spacingx="0.52916667"
       spacingy="0.52916667"
       empspacing="4"
       originx="-82.550004"
       originy="-127.00001"
       dotted="false" />
    <sodipodi:guide
       position="-4.268358e-06,27.516666"
       orientation="1,0"
       id="guide3216"
       inkscape:locked="false" />
    <sodipodi:guide
       position="3.7041618,33.866666"
       orientation="0,1"
       id="guide3218"
       inkscape:locked="false" />
    <sodipodi:guide
       position="33.866657,24.870836"
       orientation="1,0"
       id="guide3220"
       inkscape:locked="false" />
    <sodipodi:guide
       position="32.279157,-4.1479283e-06"
       orientation="0,1"
       id="guide3222"
       inkscape:locked="false" />
    <sodipodi:guide
       position="15.345829,32.808336"
       orientation="0,1"
       id="guide3224"
       inkscape:locked="false" />
    <sodipodi:guide
       position="-4.7625023,1.0583259"
       orientation="0,1"
       id="guide3226"
       inkscape:locked="false" />
    <sodipodi:guide
       position="15.874995,31.750006"
       orientation="0,1"
       id="guide3232"
       inkscape:locked="false" />
    <sodipodi:guide
       position="2.1166617,24.870836"
       orientation="1,0"
       id="guide3234"
       inkscape:locked="false" />
    <sodipodi:guide
       position="9.5249966,22.224991"
       orientation="1,0"
       id="guide3238"
       inkscape:locked="false" />
    <sodipodi:guide
       position="24.341663,17.462491"
       orientation="1,0"
       id="guide3240"
       inkscape:locked="false" />
    <sodipodi:guide
       position="31.749997,21.695836"
       orientation="1,0"
       id="guide3244"
       inkscape:locked="false" />
    <sodipodi:guide
       position="21.695827,2.1166659"
       orientation="0,1"
       id="guide3246"
       inkscape:locked="false" />
    <sodipodi:guide
       position="16.404162,3.1749959"
       orientation="0,1"
       id="guide3248"
       inkscape:locked="false" />
    <sodipodi:guide
       position="30.162497,30.691658"
       orientation="0,1"
       id="guide843"
       inkscape:locked="false" />
    <sodipodi:guide
       position="30.162497,26.458325"
       orientation="0,1"
       id="guide845"
       inkscape:locked="false" />
    <sodipodi:guide
       position="16.93333,10.583324"
       orientation="1,0"
       id="guide868"
       inkscape:locked="false" />
    <sodipodi:guide
       position="17.991663,20.108324"
       orientation="0,1"
       id="guide848"
       inkscape:locked="false" />
    <sodipodi:guide
       position="19.049997,7.4083242"
       orientation="0,1"
       id="guide850"
       inkscape:locked="false" />
  </sodipodi:namedview>
  <metadata
     id="metadata2631">
    <rdf:RDF>
      <cc:Work
         rdf:about="">
        <dc:format>image/svg+xml</dc:format>
        <dc:type
           rdf:resource="http://purl.org/dc/dcmitype/StillImage" />
        <dc:title>Boston Icons</dc:title>
        <cc:license
           rdf:resource="dribbble.com/chrisdiaz" />
        <dc:creator>
          <cc:Agent>
            <dc:title>Christian Díaz</dc:title>
          </cc:Agent>
        </dc:creator>
        <dc:date>2022</dc:date>
        <dc:publisher>
          <cc:Agent>
            <dc:title>Christian Díaz</dc:title>
          </cc:Agent>
        </dc:publisher>
        <dc:identifier>christiandiaz.design [at] gmail [dot] com</dc:identifier>
        <dc:subject>
          <rdf:Bag>
            <rdf:li>GNOME icon Theme</rdf:li>
          </rdf:Bag>
        </dc:subject>
        <dc:description>dribbble.com/chrisdiaz | diazchris.deviantart.com</dc:description>
      </cc:Work>
    </rdf:RDF>
  </metadata>
  <g
     inkscape:label="Capa 1"
     inkscape:groupmode="layer"
     id="layer1"
     transform="translate(-82.550003,-136.13333)">
    <g
       id="g2076">
      <path
         id="rect871"
         style="fill:#96a5af;stroke-width:2;stroke-linecap:square;stroke-linejoin:bevel;stroke-dashoffset:35"
         d="M 8 32 L 8 116 C 8.0000004 118.21594 9.7840101 120 12 120 L 116 120 C 118.21597 120 120 118.21594 120 116 L 120 32 L 8 32 z "
         transform="matrix(0.26458334,0,0,0.26458334,82.550003,136.13333)" />
      <path
         id="rect905"
         style="fill:#96a5af;fill-opacity:1;fill-rule:nonzero;stroke:none;stroke-width:0.529167;stroke-linecap:square;stroke-linejoin:bevel;stroke-miterlimit:4;stroke-dasharray:none;stroke-dashoffset:35;stroke-opacity:1"
         d="m 92.075003,140.36666 v 4.7625 h 3.175 v -4.7625 z m 11.641667,0 v 4.7625 h 3.175 v -4.7625 z" />
      <path
         style="fill:#96a5af;fill-opacity:1;stroke:none;stroke-width:0.264583px;stroke-linecap:butt;stroke-linejoin:miter;stroke-opacity:1"
         d="m 92.075,140.36667 3.175,-3.175 8.46667,-10e-6 3.175,3.17501 z"
         id="path924"
         inkscape:connector-curvature="0" />
      <path
         id="path926"
         style="fill:#ffffff;stroke:none;stroke-width:0.264583px;stroke-linecap:butt;stroke-linejoin:miter;stroke-opacity:1"
         d="m 95.620523,137.72083 -2.116666,2.11667 h 11.958963 l -2.11667,-2.11667 z m -3.016353,3.175 V 144.6 h 2.116667 v -3.70417 z m 11.64167,0 V 144.6 h 2.11666 v -3.70417 z" />
      <g
         id="g900"
         transform="translate(2.1166709,1.0583261)" />
      <path
         id="rect1177"
         style="fill:#ffffff;stroke-width:5.00001;stroke-linejoin:round"
         d="M 10 34 L 10 116 C 10 117.10801 10.892009 118 12 118 L 116 118 C 117.10801 118 118 117.10801 118 116 L 118 34 L 10 34 z "
         transform="matrix(0.26458334,0,0,0.26458334,82.550003,136.13333)" />
      <path
         id="path1105"
         style="fill:#2d8cff;stroke-width:1.32292;stroke-linejoin:round"
         d="m 96.308337,152.00833 a 1.0583334,1.0583334 0 0 0 -1.058334,1.05833 1.0583334,1.0583334 0 0 0 1.058334,1.05834 1.0583334,1.0583334 0 0 0 1.058333,-1.05834 1.0583334,1.0583334 0 0 0 -1.058333,-1.05833 z m 3.175,0 a 1.0583334,1.0583334 0 0 0 -1.058334,1.05833 1.0583334,1.0583334 0 0 0 1.058334,1.05834 1.0583334,1.0583334 0 0 0 1.058333,-1.05834 1.0583334,1.0583334 0 0 0 -1.058333,-1.05833 z m 3.175003,0 a 1.0583334,1.0583334 0 0 0 -1.05834,1.05833 1.0583334,1.0583334 0 0 0 1.05834,1.05834 1.0583334,1.0583334 0 0 0 1.05833,-1.05834 1.0583334,1.0583334 0 0 0 -1.05833,-1.05833 z m -6.350003,3.175 a 1.0583334,1.0583334 0 0 0 -1.058334,1.05833 1.0583334,1.0583334 0 0 0 1.058334,1.05834 1.0583334,1.0583334 0 0 0 1.058333,-1.05834 1.0583334,1.0583334 0 0 0 -1.058333,-1.05833 z m 3.175,0 a 1.0583334,1.0583334 0 0 0 -1.058334,1.05833 1.0583334,1.0583334 0 0 0 1.058334,1.05834 1.0583334,1.0583334 0 0 0 1.058333,-1.05834 1.0583334,1.0583334 0 0 0 -1.058333,-1.05833 z m 3.175003,0 a 1.0583334,1.0583334 0 0 0 -1.05834,1.05833 1.0583334,1.0583334 0 0 0 1.05834,1.05834 1.0583334,1.0583334 0 0 0 1.05833,-1.05834 1.0583334,1.0583334 0 0 0 -1.05833,-1.05833 z m -6.350003,3.175 a 1.0583334,1.0583334 0 0 0 -1.058334,1.05833 1.0583334,1.0583334 0 0 0 1.058334,1.05834 1.0583334,1.0583334 0 0 0 1.058333,-1.05834 1.0583334,1.0583334 0 0 0 -1.058333,-1.05833 z m 3.175,0 a 1.0583334,1.0583334 0 0 0 -1.058334,1.05833 1.0583334,1.0583334 0 0 0 1.058334,1.05834 1.0583334,1.0583334 0 0 0 1.058333,-1.05834 1.0583334,1.0583334 0 0 0 -1.058333,-1.05833 z m 3.175003,0 a 1.0583334,1.0583334 0 0 0 -1.05834,1.05833 1.0583334,1.0583334 0 0 0 1.05834,1.05834 1.0583334,1.0583334 0 0 0 1.05833,-1.05834 1.0583334,1.0583334 0 0 0 -1.05833,-1.05833 z" />
    </g>
  </g>
</svg>
