<?xml version="1.0" encoding="UTF-8" standalone="no"?>
<!-- Created with Inkscape (http://www.inkscape.org/) -->

<svg
   width="128"
   height="128"
   viewBox="0 0 33.866667 33.866667"
   version="1.1"
   id="svg2634"
   inkscape:version="1.1.2 (0a00cf5339, 2022-02-04, custom)"
   sodipodi:docname="document-open.svg"
   xmlns:inkscape="http://www.inkscape.org/namespaces/inkscape"
   xmlns:sodipodi="http://sodipodi.sourceforge.net/DTD/sodipodi-0.dtd"
   xmlns:xlink="http://www.w3.org/1999/xlink"
   xmlns="http://www.w3.org/2000/svg"
   xmlns:svg="http://www.w3.org/2000/svg"
   xmlns:rdf="http://www.w3.org/1999/02/22-rdf-syntax-ns#"
   xmlns:cc="http://creativecommons.org/ns#"
   xmlns:dc="http://purl.org/dc/elements/1.1/">
  <title
     id="title3250">Boston Icons</title>
  <defs
     id="defs2628">
    <linearGradient
       inkscape:collect="always"
       id="linearGradient2772">
      <stop
         style="stop-color:#6fb7ff;stop-opacity:1;"
         offset="0"
         id="stop2768" />
      <stop
         style="stop-color:#2d8cff;stop-opacity:1"
         offset="1"
         id="stop2770" />
    </linearGradient>
    <linearGradient
       inkscape:collect="always"
       xlink:href="#linearGradient2772"
       id="linearGradient3650"
       gradientUnits="userSpaceOnUse"
       x1="71.999985"
       y1="31.999964"
       x2="71.999985"
       y2="81.999962"
       gradientTransform="matrix(0.26458334,0,0,0.26458334,82.550003,136.13333)" />
  </defs>
  <sodipodi:namedview
     id="base"
     pagecolor="#ffffff"
     bordercolor="#00ffed"
     borderopacity="1"
     inkscape:pageopacity="1"
     inkscape:pageshadow="2"
     inkscape:zoom="5.6"
     inkscape:cx="43.303571"
     inkscape:cy="59.553571"
     inkscape:document-units="px"
     inkscape:current-layer="layer1"
     showgrid="false"
     showguides="false"
     inkscape:guide-bbox="true"
     fit-margin-top="0"
     fit-margin-left="0"
     fit-margin-right="0"
     fit-margin-bottom="0"
     inkscape:window-width="1920"
     inkscape:window-height="1011"
     inkscape:window-x="0"
     inkscape:window-y="0"
     inkscape:window-maximized="1"
     units="px"
     inkscape:pagecheckerboard="0">
    <inkscape:grid
       type="xygrid"
       id="grid3182"
       spacingx="0.52916667"
       spacingy="0.52916667"
       empspacing="4"
       originx="-82.550004"
       originy="-127.00001"
       dotted="false" />
    <sodipodi:guide
       position="-4.268358e-06,27.516666"
       orientation="1,0"
       id="guide3216"
       inkscape:locked="false" />
    <sodipodi:guide
       position="3.7041618,33.866666"
       orientation="0,1"
       id="guide3218"
       inkscape:locked="false" />
    <sodipodi:guide
       position="33.866657,24.870836"
       orientation="1,0"
       id="guide3220"
       inkscape:locked="false" />
    <sodipodi:guide
       position="32.279157,-4.1479283e-06"
       orientation="0,1"
       id="guide3222"
       inkscape:locked="false" />
    <sodipodi:guide
       position="15.345829,32.808336"
       orientation="0,1"
       id="guide3224"
       inkscape:locked="false" />
    <sodipodi:guide
       position="-4.7625023,1.0583259"
       orientation="0,1"
       id="guide3226"
       inkscape:locked="false" />
    <sodipodi:guide
       position="1.0583287,17.462496"
       orientation="1,0"
       id="guide3228"
       inkscape:locked="false" />
    <sodipodi:guide
       position="32.808327,20.108336"
       orientation="1,0"
       id="guide3230"
       inkscape:locked="false" />
    <sodipodi:guide
       position="15.874995,31.750006"
       orientation="0,1"
       id="guide3232"
       inkscape:locked="false" />
    <sodipodi:guide
       position="2.1166617,24.870836"
       orientation="1,0"
       id="guide3234"
       inkscape:locked="false" />
    <sodipodi:guide
       position="3.1749958,25.400006"
       orientation="1,0"
       id="guide3236"
       inkscape:locked="false" />
    <sodipodi:guide
       position="5.2916633,15.345824"
       orientation="1,0"
       id="guide3238"
       inkscape:locked="false" />
    <sodipodi:guide
       position="28.574997,25.400006"
       orientation="1,0"
       id="guide3240"
       inkscape:locked="false" />
    <sodipodi:guide
       position="30.691657,24.341666"
       orientation="1,0"
       id="guide3242"
       inkscape:locked="false" />
    <sodipodi:guide
       position="31.749997,21.695836"
       orientation="1,0"
       id="guide3244"
       inkscape:locked="false" />
    <sodipodi:guide
       position="21.695827,2.1166659"
       orientation="0,1"
       id="guide3246"
       inkscape:locked="false" />
    <sodipodi:guide
       position="16.404162,3.1749959"
       orientation="0,1"
       id="guide3248"
       inkscape:locked="false" />
    <sodipodi:guide
       position="1.5874965,30.691676"
       orientation="0,1"
       id="guide843"
       inkscape:locked="false" />
    <sodipodi:guide
       position="30.162497,26.458325"
       orientation="0,1"
       id="guide845"
       inkscape:locked="false" />
    <sodipodi:guide
       position="51.85833,12.170843"
       orientation="0,-1"
       id="guide1776" />
  </sodipodi:namedview>
  <metadata
     id="metadata2631">
    <rdf:RDF>
      <cc:Work
         rdf:about="">
        <dc:format>image/svg+xml</dc:format>
        <dc:type
           rdf:resource="http://purl.org/dc/dcmitype/StillImage" />
        <dc:title>Boston Icons</dc:title>
        <cc:license
           rdf:resource="dribbble.com/chrisdiaz" />
        <dc:creator>
          <cc:Agent>
            <dc:title>Christian Díaz</dc:title>
          </cc:Agent>
        </dc:creator>
        <dc:date>2022</dc:date>
        <dc:publisher>
          <cc:Agent>
            <dc:title>Christian Díaz</dc:title>
          </cc:Agent>
        </dc:publisher>
        <dc:identifier>christiandiaz.design [at] gmail [dot] com</dc:identifier>
        <dc:subject>
          <rdf:Bag>
            <rdf:li>GNOME icon Theme</rdf:li>
          </rdf:Bag>
        </dc:subject>
        <dc:description>dribbble.com/chrisdiaz | diazchris.deviantart.com</dc:description>
      </cc:Work>
    </rdf:RDF>
  </metadata>
  <g
     inkscape:label="Capa 1"
     inkscape:groupmode="layer"
     id="layer1"
     transform="translate(-82.550003,-136.13333)">
    <g
       id="g933">
      <path
         id="path957"
         style="fill:#2d8cff;fill-opacity:1;stroke:none;stroke-width:0.264583px;stroke-linecap:butt;stroke-linejoin:miter;stroke-opacity:1"
         d="m 85.725003,139.30833 a 2.1166669,2.1166666 0 0 0 -0.15813,0.006 2.1166669,2.1166666 0 0 0 -0.157096,0.0181 2.1166669,2.1166666 0 0 0 -0.155546,0.0295 2.1166669,2.1166666 0 0 0 -0.152962,0.0408 2.1166669,2.1166666 0 0 0 -0.149345,0.0522 2.1166669,2.1166666 0 0 0 -0.145211,0.0636 2.1166669,2.1166666 0 0 0 -0.140043,0.0739 2.1166669,2.1166666 0 0 0 -0.133842,0.0842 2.1166669,2.1166666 0 0 0 -0.127641,0.0941 2.1166669,2.1166666 0 0 0 -0.119889,0.10283 2.1166669,2.1166666 0 0 0 -0.112138,0.11214 2.1166669,2.1166666 0 0 0 -0.102836,0.11989 2.1166669,2.1166666 0 0 0 -0.09405,0.12764 2.1166669,2.1166666 0 0 0 -0.08423,0.13384 2.1166669,2.1166666 0 0 0 -0.0739,0.14005 2.1166669,2.1166666 0 0 0 -0.06356,0.14521 2.1166669,2.1166666 0 0 0 -0.05219,0.14934 2.1166669,2.1166666 0 0 0 -0.04082,0.15296 2.1166669,2.1166666 0 0 0 -0.02945,0.15555 2.1166669,2.1166666 0 0 0 -0.01809,0.1571 2.1166669,2.1166666 0 0 0 -0.0057,0.15813 v 25.4 h 0.520899 31.229107 v -23.8125 c -6e-5,-0.009 -2.1e-4,-0.0183 -5.3e-4,-0.0274 -2.3e-4,-0.009 -5.3e-4,-0.0179 -0.001,-0.0269 -5.3e-4,-0.009 -7.9e-4,-0.0183 -0.002,-0.0274 -7.9e-4,-0.009 -0.002,-0.0183 -0.003,-0.0274 -8e-4,-0.009 -0.002,-0.0179 -0.003,-0.0269 -0.001,-0.009 -0.002,-0.0179 -0.004,-0.0269 -10e-4,-0.009 -0.003,-0.0179 -0.005,-0.0269 -0.002,-0.009 -0.003,-0.0179 -0.005,-0.0269 -0.002,-0.009 -0.004,-0.0176 -0.006,-0.0264 -0.002,-0.009 -0.004,-0.018 -0.007,-0.0269 -0.002,-0.009 -0.005,-0.0173 -0.007,-0.0258 -0.002,-0.009 -0.005,-0.0176 -0.008,-0.0264 -0.003,-0.009 -0.006,-0.0173 -0.009,-0.0258 -0.003,-0.008 -0.006,-0.0169 -0.009,-0.0253 -0.003,-0.009 -0.006,-0.0173 -0.01,-0.0258 -0.003,-0.008 -0.007,-0.0166 -0.0104,-0.0248 -0.004,-0.008 -0.007,-0.0166 -0.0114,-0.0248 -0.004,-0.008 -0.008,-0.0166 -0.0119,-0.0248 -0.004,-0.008 -0.008,-0.0163 -0.0124,-0.0243 -0.004,-0.008 -0.009,-0.0159 -0.0134,-0.0238 -0.004,-0.008 -0.009,-0.0156 -0.0134,-0.0233 -0.005,-0.008 -0.01,-0.0156 -0.0145,-0.0233 -0.005,-0.008 -0.01,-0.0152 -0.015,-0.0227 -0.005,-0.008 -0.0102,-0.0152 -0.0155,-0.0227 -0.005,-0.007 -0.0106,-0.0145 -0.016,-0.0217 -0.005,-0.007 -0.0109,-0.0145 -0.0165,-0.0217 -0.006,-0.007 -0.0113,-0.0142 -0.017,-0.0212 -0.006,-0.007 -0.0119,-0.0139 -0.0181,-0.0207 -0.006,-0.007 -0.012,-0.0135 -0.0181,-0.0202 -0.006,-0.007 -0.0123,-0.0132 -0.0186,-0.0196 -0.006,-0.007 -0.013,-0.0132 -0.0196,-0.0196 -0.006,-0.006 -0.013,-0.0125 -0.0196,-0.0186 -0.007,-0.006 -0.0133,-0.0122 -0.0202,-0.0181 -0.007,-0.006 -0.0137,-0.0122 -0.0207,-0.0181 -0.007,-0.006 -0.014,-0.0115 -0.0212,-0.0171 -0.007,-0.006 -0.0144,-0.0111 -0.0217,-0.0165 -0.007,-0.005 -0.0144,-0.0108 -0.0217,-0.016 -0.008,-0.005 -0.0151,-0.0104 -0.0227,-0.0155 -0.008,-0.005 -0.0151,-0.0101 -0.0227,-0.015 -0.008,-0.005 -0.0155,-0.01 -0.0233,-0.0145 -0.008,-0.005 -0.0155,-0.009 -0.0232,-0.0134 -0.008,-0.005 -0.0158,-0.009 -0.0238,-0.0134 -0.008,-0.004 -0.0161,-0.008 -0.0243,-0.0124 -0.008,-0.004 -0.0165,-0.008 -0.0248,-0.0119 -0.008,-0.004 -0.0165,-0.008 -0.0248,-0.0114 -0.008,-0.004 -0.0165,-0.007 -0.0248,-0.0103 -0.009,-0.003 -0.0172,-0.007 -0.0258,-0.01 -0.008,-0.003 -0.0169,-0.006 -0.0253,-0.009 -0.009,-0.003 -0.0172,-0.006 -0.0258,-0.009 -0.009,-0.003 -0.0175,-0.005 -0.0264,-0.008 -0.009,-0.003 -0.0172,-0.005 -0.0258,-0.008 -0.009,-0.002 -0.0179,-0.004 -0.0269,-0.006 -0.009,-0.002 -0.0175,-0.004 -0.0264,-0.006 -0.009,-0.002 -0.0179,-0.004 -0.0269,-0.005 -0.009,-0.002 -0.0179,-0.003 -0.0269,-0.005 -0.009,-0.001 -0.0179,-0.003 -0.0269,-0.004 -0.009,-0.001 -0.0179,-0.002 -0.0269,-0.003 -0.009,-9.8e-4 -0.0183,-0.002 -0.0274,-0.003 -0.009,-6.3e-4 -0.0183,-0.001 -0.0274,-0.002 -0.009,-4.5e-4 -0.0179,-7.9e-4 -0.0269,-0.001 -0.009,-2.7e-4 -0.0182,-4.2e-4 -0.0273,-5e-4 H 99.483337 l -3.704167,-2.64583 z m 2.11615,2.07378 a 2.1166669,2.1166666 0 0 1 5.29e-4,0.002 2.1166669,2.1166666 0 0 0 -5.29e-4,-0.002 z m -0.0021,0.15244 a 2.1166669,2.1166666 0 0 1 -5.29e-4,0.007 2.1166669,2.1166666 0 0 0 5.29e-4,-0.007 z m -0.001,0.0191 a 2.1166669,2.1166666 0 0 1 -5.29e-4,0.007 2.1166669,2.1166666 0 0 0 5.29e-4,-0.007 z" />
      <path
         id="path3135"
         style="fill:url(#linearGradient3650);fill-opacity:1;stroke:none;stroke-width:0.264583px;stroke-linecap:butt;stroke-linejoin:miter;stroke-opacity:1"
         d="m 85.725003,139.8375 c -0.138725,6e-5 -0.276844,0.0183 -0.410827,0.0543 -0.134026,0.0359 -0.262764,0.0892 -0.382923,0.15864 -0.120099,0.0694 -0.230593,0.15413 -0.328662,0.25218 -0.09806,0.0981 -0.182837,0.20857 -0.252181,0.32867 -0.06939,0.12016 -0.122726,0.24889 -0.158647,0.38292 -0.03596,0.13398 -0.0542,0.2721 -0.05426,0.41083 v 1.05833 1.5875 0.52917 21.69583 H 114.82917 V 143.0125 a 0.52916671,0.5291756 0 0 0 -0.005,-0.0687 0.52916671,0.5291756 0 0 0 -0.0134,-0.0677 0.52916671,0.5291756 0 0 0 -0.0222,-0.0656 0.52916671,0.5291756 0 0 0 -0.0305,-0.062 0.52916671,0.5291756 0 0 0 -0.0388,-0.0574 0.52916671,0.5291756 0 0 0 -0.0455,-0.0522 0.52916671,0.5291756 0 0 0 -0.0522,-0.046 0.52916671,0.5291756 0 0 0 -0.0574,-0.0382 0.52916671,0.5291756 0 0 0 -0.062,-0.0305 0.52916671,0.5291756 0 0 0 -0.0656,-0.0222 0.52916671,0.5291756 0 0 0 -0.0677,-0.0134 0.52916671,0.5291756 0 0 0 -0.0692,-0.005 h -14.9748 l -3.757393,-2.64583 z" />
      <g
         id="g874">
        <g
           id="g872"
           transform="translate(-1.460586e-6,-1.247e-5)">
          <rect
             ry="8.0211612e-06"
             y="145.65834"
             x="87.841667"
             height="20.637501"
             width="23.283335"
             id="rect868"
             style="fill:#96a5af;fill-opacity:1;fill-rule:nonzero;stroke:none;stroke-width:1.32292;stroke-linecap:round;stroke-linejoin:bevel;stroke-miterlimit:4;stroke-dasharray:none;stroke-dashoffset:35;stroke-opacity:1" />
          <rect
             ry="8.0211612e-06"
             y="146.1875"
             x="88.370834"
             height="19.579166"
             width="22.225"
             id="rect870"
             style="fill:#ffffff;fill-opacity:1;fill-rule:nonzero;stroke:none;stroke-width:1.32292;stroke-linecap:round;stroke-linejoin:bevel;stroke-miterlimit:4;stroke-dasharray:none;stroke-dashoffset:35;stroke-opacity:1" />
        </g>
      </g>
      <path
         id="path3430"
         style="fill:#2d8cff;fill-opacity:1;stroke:none;stroke-width:0.264583px;stroke-linecap:butt;stroke-linejoin:miter;stroke-opacity:1"
         d="M 83.608336,153.06666 V 166.825 h 31.750004 v -14.81512 c -6e-5,-0.009 -2e-4,-0.0183 -5.3e-4,-0.0274 -2.3e-4,-0.009 -5.3e-4,-0.0179 -0.001,-0.0269 -5.3e-4,-0.009 -7.9e-4,-0.0183 -0.002,-0.0274 -7.9e-4,-0.009 -0.002,-0.0183 -0.003,-0.0274 -8e-4,-0.009 -0.002,-0.0179 -0.003,-0.0269 -0.001,-0.009 -0.002,-0.0179 -0.004,-0.0269 -10e-4,-0.009 -0.003,-0.0179 -0.005,-0.0269 -0.002,-0.009 -0.003,-0.0179 -0.005,-0.0269 -0.002,-0.009 -0.004,-0.0176 -0.006,-0.0264 -0.002,-0.009 -0.004,-0.018 -0.007,-0.0269 -0.002,-0.009 -0.005,-0.0173 -0.007,-0.0258 -0.002,-0.009 -0.005,-0.0175 -0.008,-0.0264 -0.003,-0.009 -0.006,-0.0173 -0.009,-0.0258 -0.003,-0.008 -0.006,-0.0169 -0.009,-0.0253 -0.003,-0.009 -0.006,-0.0173 -0.01,-0.0258 -0.003,-0.008 -0.007,-0.0166 -0.0103,-0.0248 -0.004,-0.008 -0.007,-0.0166 -0.0114,-0.0248 -0.004,-0.008 -0.008,-0.0166 -0.0119,-0.0248 -0.004,-0.008 -0.008,-0.0163 -0.0124,-0.0243 -0.004,-0.008 -0.009,-0.0159 -0.0134,-0.0238 -0.004,-0.008 -0.009,-0.0155 -0.0134,-0.0232 -0.005,-0.008 -0.01,-0.0156 -0.0145,-0.0233 -0.005,-0.008 -0.01,-0.0152 -0.015,-0.0227 -0.005,-0.008 -0.0102,-0.0152 -0.0155,-0.0227 -0.005,-0.007 -0.0106,-0.0145 -0.016,-0.0217 -0.005,-0.007 -0.0109,-0.0145 -0.0165,-0.0217 -0.006,-0.007 -0.0114,-0.0142 -0.017,-0.0212 -0.006,-0.007 -0.0119,-0.0139 -0.0181,-0.0207 -0.006,-0.007 -0.012,-0.0134 -0.0181,-0.0202 -0.006,-0.007 -0.0123,-0.0132 -0.0186,-0.0196 -0.006,-0.007 -0.013,-0.0132 -0.0196,-0.0196 -0.006,-0.006 -0.013,-0.0125 -0.0196,-0.0186 -0.007,-0.006 -0.0133,-0.0122 -0.0202,-0.0181 -0.007,-0.006 -0.0137,-0.0122 -0.0207,-0.0181 -0.007,-0.006 -0.014,-0.0115 -0.0212,-0.0171 -0.007,-0.006 -0.0144,-0.0111 -0.0217,-0.0165 -0.007,-0.005 -0.0144,-0.0108 -0.0217,-0.016 -0.008,-0.005 -0.0151,-0.0104 -0.0227,-0.0155 -0.008,-0.005 -0.0151,-0.0101 -0.0227,-0.015 -0.008,-0.005 -0.0155,-0.01 -0.0233,-0.0145 -0.008,-0.005 -0.0156,-0.009 -0.0233,-0.0134 -0.008,-0.005 -0.0158,-0.009 -0.0238,-0.0134 -0.008,-0.004 -0.0161,-0.008 -0.0243,-0.0124 -0.008,-0.004 -0.0165,-0.008 -0.0248,-0.0119 -0.008,-0.004 -0.0165,-0.008 -0.0248,-0.0114 -0.008,-0.004 -0.0165,-0.007 -0.0248,-0.0103 -0.009,-0.003 -0.0172,-0.007 -0.0258,-0.0103 -0.008,-0.003 -0.0169,-0.006 -0.0253,-0.009 -0.009,-0.003 -0.0172,-0.006 -0.0259,-0.009 -0.009,-0.003 -0.0175,-0.005 -0.0263,-0.008 -0.009,-0.003 -0.0172,-0.005 -0.0259,-0.008 -0.009,-0.002 -0.0179,-0.004 -0.0269,-0.006 -0.009,-0.002 -0.0175,-0.004 -0.0263,-0.006 -0.009,-0.002 -0.0179,-0.004 -0.0269,-0.005 -0.009,-0.002 -0.0179,-0.003 -0.0269,-0.005 -0.009,-0.001 -0.0179,-0.003 -0.0269,-0.004 -0.009,-0.001 -0.0179,-0.002 -0.0269,-0.003 -0.009,-9.8e-4 -0.0183,-0.002 -0.0274,-0.003 -0.009,-6.3e-4 -0.0183,-0.001 -0.0274,-0.002 -0.009,-4.5e-4 -0.0179,-8.2e-4 -0.0269,-0.001 -0.009,-2.7e-4 -0.0183,-4.5e-4 -0.0274,-5.3e-4 H 99.483337 98.53094 l -3.016353,2.11668 z m 15.160832,-1.5875 15.530832,0.52916 0.52917,14.28751 H 84.137503 v -12.7 H 95.77917 Z"
         sodipodi:nodetypes="ccccccccscsscccccccccccccccccccccccccccccccccccccccccccscccscccccccccccccccc" />
      <path
         id="path3302"
         style="fill:#6fb7ff;fill-opacity:1;stroke:none;stroke-width:0.264583px;stroke-linecap:butt;stroke-linejoin:miter;stroke-opacity:1"
         d="m 98.769168,151.47916 -2.989998,2.11667 H 84.137503 v 12.7 h 30.691667 v -14.28698 a 0.52916671,0.5291756 0 0 0 -0.005,-0.0692 0.52916671,0.5291756 0 0 0 -0.0134,-0.0677 0.52916671,0.5291756 0 0 0 -0.0222,-0.0656 0.52916671,0.5291756 0 0 0 -0.0305,-0.062 0.52916671,0.5291756 0 0 0 -0.0388,-0.0574 0.52916671,0.5291756 0 0 0 -0.0455,-0.0522 0.52916671,0.5291756 0 0 0 -0.0522,-0.046 0.52916671,0.5291756 0 0 0 -0.0574,-0.0382 0.52916671,0.5291756 0 0 0 -0.062,-0.0305 0.52916671,0.5291756 0 0 0 -0.0656,-0.0222 0.52916671,0.5291756 0 0 0 -0.0677,-0.0134 0.52916671,0.5291756 0 0 0 -0.0692,-0.005 z" />
    </g>
  </g>
</svg>
