<?xml version="1.0" encoding="UTF-8" standalone="no"?>
<svg
   xmlns:dc="http://purl.org/dc/elements/1.1/"
   xmlns:cc="http://creativecommons.org/ns#"
   xmlns:rdf="http://www.w3.org/1999/02/22-rdf-syntax-ns#"
   xmlns:svg="http://www.w3.org/2000/svg"
   xmlns="http://www.w3.org/2000/svg"
   xmlns:xlink="http://www.w3.org/1999/xlink"
   xmlns:sodipodi="http://sodipodi.sourceforge.net/DTD/sodipodi-0.dtd"
   xmlns:inkscape="http://www.inkscape.org/namespaces/inkscape"
   width="48"
   height="48"
   viewBox="0 0 12.7 12.7"
   version="1.1"
   id="svg2634"
   inkscape:version="1.0.1 (3bc2e813f5, 2020-09-07)"
   sodipodi:docname="audacity.svg">
  <title
     id="title3250">Boston Icons</title>
  <defs
     id="defs2628">
    <linearGradient
       inkscape:collect="always"
       xlink:href="#linearGradient1007"
       id="linearGradient1009"
       x1="99.48333"
       y1="153.06667"
       x2="99.48333"
       y2="136.13335"
       gradientUnits="userSpaceOnUse" />
    <linearGradient
       inkscape:collect="always"
       id="linearGradient1007">
      <stop
         style="stop-color:#b9d9f7;stop-opacity:1"
         offset="0"
         id="stop1003" />
      <stop
         style="stop-color:#7fb9ec;stop-opacity:1"
         offset="1"
         id="stop1005" />
    </linearGradient>
  </defs>
  <sodipodi:namedview
     id="base"
     pagecolor="#ffffff"
     bordercolor="#00ffed"
     borderopacity="1"
     inkscape:pageopacity="1"
     inkscape:pageshadow="2"
     inkscape:zoom="11.2"
     inkscape:cx="41.28094"
     inkscape:cy="31.064431"
     inkscape:document-units="px"
     inkscape:current-layer="layer1"
     showgrid="false"
     showguides="false"
     inkscape:guide-bbox="true"
     fit-margin-top="0"
     fit-margin-left="0"
     fit-margin-right="0"
     fit-margin-bottom="0"
     inkscape:window-width="1920"
     inkscape:window-height="1016"
     inkscape:window-x="0"
     inkscape:window-y="0"
     inkscape:window-maximized="1"
     units="px"
     inkscape:document-rotation="0">
    <inkscape:grid
       type="xygrid"
       id="grid3182"
       spacingx="0.26458333"
       spacingy="0.26458333"
       empspacing="4"
       originx="-82.550004"
       originy="-127.00001"
       dotted="false" />
    <sodipodi:guide
       position="-4.268358e-06,27.516666"
       orientation="1,0"
       id="guide3216"
       inkscape:locked="false" />
    <sodipodi:guide
       position="32.279157,-4.1479283e-06"
       orientation="0,1"
       id="guide3222"
       inkscape:locked="false" />
    <sodipodi:guide
       position="13.229163,0.52915746"
       orientation="0,1"
       id="guide3226"
       inkscape:locked="false" />
    <sodipodi:guide
       position="0.52916318,6.8791574"
       orientation="1,0"
       id="guide3228"
       inkscape:locked="false" />
    <sodipodi:guide
       position="1.0583298,6.8791574"
       orientation="1,0"
       id="guide3234"
       inkscape:locked="false" />
    <sodipodi:guide
       position="1.5874965,6.8791574"
       orientation="1,0"
       id="guide3236"
       inkscape:locked="false" />
    <sodipodi:guide
       position="6.3499965,7.9374908"
       orientation="1,0"
       id="guide3238"
       inkscape:locked="false" />
    <sodipodi:guide
       position="13.75833,1.0583241"
       orientation="0,1"
       id="guide3246"
       inkscape:locked="false" />
    <sodipodi:guide
       position="5.8208298,12.170824"
       orientation="0,1"
       id="guide864"
       inkscape:locked="false" />
    <sodipodi:guide
       position="6.8791632,11.641657"
       orientation="0,1"
       id="guide866"
       inkscape:locked="false" />
    <sodipodi:guide
       position="12.17083,8.4666574"
       orientation="1,0"
       id="guide868"
       inkscape:locked="false" />
    <sodipodi:guide
       position="11.641663,8.4666574"
       orientation="1,0"
       id="guide870"
       inkscape:locked="false" />
    <sodipodi:guide
       position="11.112496,8.4666574"
       orientation="1,0"
       id="guide872"
       inkscape:locked="false" />
    <sodipodi:guide
       position="0.79374495,11.112488"
       orientation="0,1"
       inkscape:locked="false"
       id="guide863" />
    <sodipodi:guide
       position="2.1166616,9.5249883"
       orientation="0,1"
       id="guide869"
       inkscape:locked="false" />
  </sodipodi:namedview>
  <metadata
     id="metadata2631">
    <rdf:RDF>
      <cc:Work
         rdf:about="">
        <dc:format>image/svg+xml</dc:format>
        <dc:type
           rdf:resource="http://purl.org/dc/dcmitype/StillImage" />
        <dc:title>Boston Icons</dc:title>
        <cc:license
           rdf:resource="dribbble.com/chrisdiaz" />
        <dc:creator>
          <cc:Agent>
            <dc:title>Christian Díaz</dc:title>
          </cc:Agent>
        </dc:creator>
        <dc:date>2020</dc:date>
        <dc:publisher>
          <cc:Agent>
            <dc:title>Christian Díaz</dc:title>
          </cc:Agent>
        </dc:publisher>
        <dc:identifier>christiandiaz.design [at] gmail [dot] com</dc:identifier>
        <dc:subject>
          <rdf:Bag>
            <rdf:li>GNOME icon Theme</rdf:li>
          </rdf:Bag>
        </dc:subject>
        <dc:description>dribbble.com/chrisdiaz | diazchris.deviantart.com</dc:description>
      </cc:Work>
    </rdf:RDF>
  </metadata>
  <g
     inkscape:label="Capa 1"
     inkscape:groupmode="layer"
     id="layer1"
     transform="translate(-82.550003,-157.3)">
    <g
       id="g864">
      <path
         id="path907"
         style="fill:#2d8cff;stroke-width:2;stroke-linejoin:round"
         d="M 23.910156,7 C 14.392081,7.0472737 6.5560144,14.496501 6.0273438,24 H 6 v 1 6 l -1.32e-5,-4.4e-5 h -1 c -0.5539994,0 -1,0.445997 -1,1 v 10 c 0,0.554003 0.4460006,1 1,1 h 1 L 6,43 v 1 h 1 3 2.044844 C 12.999981,44 14,42.999956 14,42.040281 V 32.016811 C 14,30.999956 12.999981,30 12.034116,30 H 10 v -5 -1 h 0.03516 C 10.559745,16.674568 16.655808,10.999685 24,11 c 7.344193,-3.17e-4 13.440259,5.674566 13.964844,13 H 38 v 1 5 H 36.019894 C 34.999981,30 34.0217,30.999957 34.01973,31.994862 L 34,41.959513 C 33.99794,42.999956 34.999981,44 36.052694,44 H 38 h 3 1 v -1 l -1.5e-5,-4.4e-5 h 1 c 0.553999,0 1,-0.445997 1,-1 v -10 c 0,-0.554003 -0.446331,-0.980861 -1,-1 h -1 L 42,31 V 25.105469 C 42.000103,25.070313 42.000103,25.035156 42,25 V 24 H 41.97266 C 41.44195,14.461964 33.552789,6.9997558 24,7 c -0.02995,-7.47e-5 -0.0599,-7.47e-5 -0.08984,0 z"
         sodipodi:nodetypes="ccccccsssscccccsssscccccccccsssscccccssssccccccccc"
         transform="matrix(0.26458333,0,0,0.26458333,82.550003,157.3)" />
      <path
         id="path884"
         style="fill:#7a8e9e;stroke-width:2;stroke-linejoin:round"
         d="M 37.964844,24 A 14,14 0 0 1 38,25 v -1 z"
         transform="matrix(0.26458333,0,0,0.26458333,82.550003,157.3)" />
      <path
         id="path911"
         style="fill:#7a8e9e;stroke-width:2;stroke-linejoin:round"
         d="m 10,25 a 14,14 0 0 1 0.03516,-1 H 10 Z"
         transform="matrix(0.26458333,0,0,0.26458333,82.550003,157.3)" />
      <path
         style="fill:#ffc61b;fill-opacity:1;stroke:none;stroke-width:0.264583px;stroke-linecap:butt;stroke-linejoin:miter;stroke-opacity:1"
         d="m 86.783331,167.08957 0.264584,-0.26458 h 0.529166 l 0.79375,-1.5875 1.058339,2.24897 0.423333,-0.66147 h 0.899578 l 0.264584,0.26458 -0.264584,0.26458 h -0.529166 l -0.79375,1.32292 -1.058334,-2.11667 -0.423328,0.79377 -0.899588,-2e-5 z"
         id="path863"
         sodipodi:nodetypes="ccccccccccccccc" />
      <path
         id="rect873"
         style="fill:#6fb7ff;fill-opacity:1;stroke:none;stroke-width:2;stroke-linejoin:round"
         d="M 23.964844,8 C 14.88839,8.0008218 7.4202999,15.49215 7.0175781,25 H 7 V 25.789062 43 H 8 V 25.605469 C 7.999891,25.570313 7.999891,25.535156 8,25.5 V 25 H 8.00781 C 8.2684957,16.126739 15.290291,9.0566113 23.898438,9 23.932291,8.9998892 23.966146,8.9998892 24,9 c 8.64759,2.581e-4 15.73014,7.086267 15.992188,16 H 40 v 0.394531 c 1.09e-4,0.03516 1.09e-4,0.07031 0,0.105469 V 43 h 1 V 25 C 40.597278,15.49215 33.041298,8.0008218 23.964844,8 Z M 10,31 v 1 10 1 h 2 c 0.553992,0 1,-0.446035 1,-1 V 32 c 0,-0.553965 -0.446008,-1 -1,-1 z m 26,0 c -0.553992,0 -1,0.446035 -1,1 v 10 c 0,0.553965 0.446008,1 1,1 h 2 V 42 32 31 Z"
         transform="matrix(0.26458333,0,0,0.26458333,82.550003,157.3)" />
    </g>
  </g>
</svg>
