<?xml version="1.0" encoding="UTF-8" standalone="no"?>
<!-- Created with Inkscape (http://www.inkscape.org/) -->

<svg
   width="48"
   height="48"
   viewBox="0 0 12.7 12.7"
   version="1.1"
   id="svg2634"
   inkscape:version="1.1 (c4e8f9ed74, 2021-05-24)"
   sodipodi:docname="bleachbit.svg"
   xmlns:inkscape="http://www.inkscape.org/namespaces/inkscape"
   xmlns:sodipodi="http://sodipodi.sourceforge.net/DTD/sodipodi-0.dtd"
   xmlns="http://www.w3.org/2000/svg"
   xmlns:svg="http://www.w3.org/2000/svg"
   xmlns:rdf="http://www.w3.org/1999/02/22-rdf-syntax-ns#"
   xmlns:cc="http://creativecommons.org/ns#"
   xmlns:dc="http://purl.org/dc/elements/1.1/">
  <title
     id="title3250">Boston Icons</title>
  <defs
     id="defs2628" />
  <sodipodi:namedview
     id="base"
     pagecolor="#ffffff"
     bordercolor="#00ffed"
     borderopacity="1"
     inkscape:pageopacity="1"
     inkscape:pageshadow="2"
     inkscape:zoom="15.839192"
     inkscape:cx="20.392454"
     inkscape:cy="29.325991"
     inkscape:document-units="px"
     inkscape:current-layer="layer1"
     showgrid="false"
     showguides="false"
     inkscape:guide-bbox="true"
     fit-margin-top="0"
     fit-margin-left="0"
     fit-margin-right="0"
     fit-margin-bottom="0"
     inkscape:window-width="1920"
     inkscape:window-height="1011"
     inkscape:window-x="0"
     inkscape:window-y="32"
     inkscape:window-maximized="1"
     units="px"
     inkscape:pagecheckerboard="0">
    <inkscape:grid
       type="xygrid"
       id="grid3182"
       spacingx="0.26458333"
       spacingy="0.26458333"
       empspacing="4"
       originx="-82.550004"
       originy="-127.00001"
       dotted="false" />
    <sodipodi:guide
       position="-4.268358e-06,27.516666"
       orientation="1,0"
       id="guide3216"
       inkscape:locked="false" />
    <sodipodi:guide
       position="32.279157,-4.1479283e-06"
       orientation="0,1"
       id="guide3222"
       inkscape:locked="false" />
    <sodipodi:guide
       position="13.229163,0.52915746"
       orientation="0,1"
       id="guide3226"
       inkscape:locked="false" />
    <sodipodi:guide
       position="5.8208298,12.170824"
       orientation="0,1"
       id="guide864"
       inkscape:locked="false" />
    <sodipodi:guide
       position="12.699995,10.847905"
       orientation="1,0"
       id="guide868"
       inkscape:locked="false" />
    <sodipodi:guide
       position="2.1166616,12.170822"
       orientation="1,0"
       id="guide1119"
       inkscape:locked="false" />
    <sodipodi:guide
       position="10.583328,11.112488"
       orientation="1,0"
       id="guide1121"
       inkscape:locked="false" />
    <sodipodi:guide
       position="1.8520783,8.7312383"
       orientation="0,1"
       id="guide1131"
       inkscape:locked="false" />
    <sodipodi:guide
       position="1.8520783,10.318738"
       orientation="0,1"
       id="guide1142"
       inkscape:locked="false" />
    <sodipodi:guide
       position="1.3229116,3.1749884"
       orientation="0,1"
       id="guide1152"
       inkscape:locked="false" />
    <sodipodi:guide
       position="4.2333282,1.5874884"
       orientation="0,1"
       id="guide849"
       inkscape:locked="false" />
    <sodipodi:guide
       position="11.641661,7.6729283"
       orientation="1,0"
       id="guide1046" />
    <sodipodi:guide
       position="6.3499949,5.027095"
       orientation="1,0"
       id="guide1048" />
    <sodipodi:guide
       position="6.6145782,6.3500117"
       orientation="0,-1"
       id="guide1060" />
  </sodipodi:namedview>
  <metadata
     id="metadata2631">
    <rdf:RDF>
      <cc:Work
         rdf:about="">
        <dc:format>image/svg+xml</dc:format>
        <dc:type
           rdf:resource="http://purl.org/dc/dcmitype/StillImage" />
        <dc:title>Boston Icons</dc:title>
        <cc:license
           rdf:resource="dribbble.com/chrisdiaz" />
        <dc:creator>
          <cc:Agent>
            <dc:title>Christian Díaz</dc:title>
          </cc:Agent>
        </dc:creator>
        <dc:date>2021</dc:date>
        <dc:publisher>
          <cc:Agent>
            <dc:title>Christian Díaz</dc:title>
          </cc:Agent>
        </dc:publisher>
        <dc:identifier>christiandiaz.design [at] gmail [dot] com</dc:identifier>
        <dc:subject>
          <rdf:Bag>
            <rdf:li>GNOME icon Theme</rdf:li>
          </rdf:Bag>
        </dc:subject>
        <dc:description>dribbble.com/chrisdiaz | diazchris.deviantart.com</dc:description>
      </cc:Work>
    </rdf:RDF>
  </metadata>
  <g
     inkscape:label="Capa 1"
     inkscape:groupmode="layer"
     id="layer1"
     transform="translate(-82.550003,-157.3)">
    <g
       id="g981">
      <g
         id="g4095">
        <rect
           style="fill:#373b43;fill-opacity:1;fill-rule:nonzero;stroke:none;stroke-width:1.5875;stroke-linecap:square;stroke-linejoin:bevel;stroke-miterlimit:4;stroke-dasharray:none;stroke-dashoffset:35;stroke-opacity:1"
           id="rect846"
           width="8.4666662"
           height="11.641666"
           x="84.666664"
           y="157.82918"
           ry="0.26458389"
           rx="0.26458347" />
        <rect
           style="fill:#96a5af;fill-opacity:1;fill-rule:nonzero;stroke:none;stroke-width:1.5875;stroke-linecap:square;stroke-linejoin:bevel;stroke-miterlimit:4;stroke-dasharray:none;stroke-dashoffset:35;stroke-opacity:1"
           id="rect909"
           width="7.9375"
           height="11.1125"
           x="84.931252"
           y="158.09377"
           rx="3.6958788e-06"
           ry="0" />
        <path
           id="path911"
           style="fill:#373b43;fill-opacity:1;fill-rule:nonzero;stroke:none;stroke-width:6;stroke-linecap:square;stroke-linejoin:bevel;stroke-miterlimit:4;stroke-dasharray:none;stroke-dashoffset:35;stroke-opacity:1"
           d="m 12,5 c -0.552285,0 -1,0.4477152 -1,1 0,0.5522848 0.447715,1 1,1 0.552285,0 1,-0.4477152 1,-1 0,-0.5522848 -0.447715,-1 -1,-1 z m 24,0 c -0.552285,0 -1,0.4477152 -1,1 0,0.5522848 0.447715,1 1,1 0.552285,0 1,-0.4477152 1,-1 C 37,5.4477152 36.552285,5 36,5 Z M 12,38 c -0.552285,0 -1,0.447716 -1,1 0,0.552285 0.447715,1.000001 1,1 0.552285,10e-7 1,-0.447715 1,-1 0,-0.552284 -0.447715,-1 -1,-1 z m 24,0 c -0.552285,0 -1,0.447716 -1,1 0,0.552285 0.447715,1.000001 1,1 0.552285,10e-7 1,-0.447715 1,-1 0,-0.552284 -0.447715,-1 -1,-1 z"
           transform="matrix(0.26458333,0,0,0.26458333,82.550003,157.3)"
           sodipodi:nodetypes="ssssssssssssssssssss" />
        <rect
           style="fill:#373b43;fill-opacity:1;fill-rule:nonzero;stroke:none;stroke-width:1.5875;stroke-linecap:square;stroke-linejoin:bevel;stroke-miterlimit:4;stroke-dasharray:none;stroke-dashoffset:35;stroke-opacity:1"
           id="rect919"
           width="4.7624989"
           height="1.0583289"
           x="87.3125"
           y="168.41251"
           rx="3.6958852e-06" />
        <path
           id="rect921"
           style="fill:#cdd5d9;fill-opacity:1;fill-rule:nonzero;stroke:none;stroke-width:1.5875;stroke-linecap:square;stroke-linejoin:bevel;stroke-miterlimit:4;stroke-dasharray:none;stroke-dashoffset:35;stroke-opacity:1"
           d="m 87.577086,168.67708 v 0.52917 h 1.058334 v -0.52917 z m 1.5875,0 v 0.52917 h 2.645834 v -0.52917 z" />
        <path
           id="path3112"
           style="fill:#ffffff;fill-opacity:1;fill-rule:nonzero;stroke:none;stroke-width:6;stroke-linecap:square;stroke-linejoin:bevel;stroke-miterlimit:4;stroke-dasharray:none;stroke-dashoffset:35;stroke-opacity:1"
           d="M 21 25 L 21 26 L 22 26 L 22 25 L 21 25 z "
           transform="matrix(0.26458333,0,0,0.26458333,82.550003,157.3)" />
        <path
           id="path3108"
           style="fill:#ffffff;fill-opacity:1;fill-rule:nonzero;stroke:none;stroke-width:6;stroke-linecap:square;stroke-linejoin:bevel;stroke-miterlimit:4;stroke-dasharray:none;stroke-dashoffset:35;stroke-opacity:1"
           d="M 23 22 L 24 22 L 24 20 L 21 20 L 21 22 L 23 22 z "
           transform="matrix(0.26458333,0,0,0.26458333,82.550003,157.3)" />
        <path
           id="path3104"
           style="fill:#ffffff;fill-opacity:1;fill-rule:nonzero;stroke:none;stroke-width:6;stroke-linecap:square;stroke-linejoin:bevel;stroke-miterlimit:4;stroke-dasharray:none;stroke-dashoffset:35;stroke-opacity:1"
           d="M 23 24 L 23 23 L 21 23 L 21 24 L 23 24 z "
           transform="matrix(0.26458333,0,0,0.26458333,82.550003,157.3)" />
        <path
           id="path3098"
           style="fill:#ffffff;fill-opacity:1;fill-rule:nonzero;stroke:none;stroke-width:6;stroke-linecap:square;stroke-linejoin:bevel;stroke-miterlimit:4;stroke-dasharray:none;stroke-dashoffset:35;stroke-opacity:1"
           d="M 23 28 L 23 27 L 20 27 L 20 19 L 28 19 L 28 22 L 29 22 L 29 18 L 19 18 L 19 28 L 23 28 z "
           transform="matrix(0.26458333,0,0,0.26458333,82.550003,157.3)" />
        <path
           id="path3094"
           style="fill:#ffffff;fill-opacity:1;fill-rule:nonzero;stroke:none;stroke-width:6;stroke-linecap:square;stroke-linejoin:bevel;stroke-miterlimit:4;stroke-dasharray:none;stroke-dashoffset:35;stroke-opacity:1"
           d="M 30 11 L 29 11 L 29 15 L 27 15 L 27 11 L 25 11 L 25 15 L 23 15 L 23 11 L 21 11 L 21 15 L 19 15 L 19 11 L 17 11 L 17 15 L 16 15 L 16 16 L 12 16 L 12 18 L 16 18 L 16 20 L 12 20 L 12 22 L 16 22 L 16 24 L 12 24 L 12 26 L 16 26 L 16 28 L 12 28 L 12 30 L 16 30 L 16 31 L 17 31 L 17 35 L 19 35 L 19 31 L 21 31 L 21 35 L 23 35 L 23 31 L 23 30 L 17 30 L 17 16 L 30 16 L 30 11 z "
           transform="matrix(0.26458333,0,0,0.26458333,82.550003,157.3)" />
        <rect
           style="fill:#ffa803;stroke-width:0.529167;stroke-linejoin:round"
           id="rect1527"
           width="5.2916679"
           height="4.2333522"
           x="88.900002"
           y="165.23749"
           rx="0"
           ry="4.5793749e-06" />
        <path
           id="path1746"
           style="fill:#a57b50;stroke-width:2;stroke-linejoin:round"
           d="M 34 9 C 32.338002 9 31 10.338044 31 12 L 31 24 L 25 24 C 24.445998 24 24 24.446012 24 25 L 24 30 L 44 30 L 44 25 C 44.000001 24.446012 43.554002 24 43 24 L 37 24 L 37 12 C 37 10.338044 35.661998 9 34 9 z "
           transform="matrix(0.26458333,0,0,0.26458333,82.550003,157.3)" />
        <path
           id="rect1953"
           style="fill:#ebb16d;stroke-width:2;stroke-linejoin:round"
           d="M 34 10 C 32.892002 10 32 10.892 32 12 L 32 25 L 25 25 L 25 29 L 43 29 L 43 25 L 36 25 L 36 12 C 36 10.892 35.107998 10 34 10 z M 34 11 A 0.99999995 0.99999995 0 0 1 35 12 A 0.99999995 0.99999995 0 0 1 34 13 A 0.99999995 0.99999995 0 0 1 33 12 A 0.99999995 0.99999995 0 0 1 34 11 z "
           transform="matrix(0.26458333,0,0,0.26458333,82.550003,157.3)" />
        <path
           id="rect2238"
           style="fill:#ffc61b;stroke-width:2;stroke-linejoin:round"
           d="m 25,31 v 14 h 1 l -1.9e-5,-5.999956 h 1 L 27,45 h 2 l -1.9e-5,-7.999956 h 1 L 30,45 h 2 l -1.9e-5,-5.999956 h 1 L 33,45 h 2 l -1.9e-5,-7.999956 h 1 L 36,45 h 2 l -1.9e-5,-8.999956 h 1 L 39,45 h 2 l -1.9e-5,-5.999956 h 1 L 42,45 h 1 V 31 Z"
           transform="matrix(0.26458333,0,0,0.26458333,82.550003,157.3)"
           sodipodi:nodetypes="ccccccccccccccccccccccccccccc" />
      </g>
    </g>
  </g>
</svg>
