<?xml version="1.0" encoding="UTF-8" standalone="no"?>
<!-- Created with Inkscape (http://www.inkscape.org/) -->

<svg
   width="48"
   height="48"
   viewBox="0 0 12.7 12.7"
   version="1.1"
   id="svg2634"
   inkscape:version="1.1.2 (0a00cf5339, 2022-02-04, custom)"
   sodipodi:docname="bleachbit.svg"
   xmlns:inkscape="http://www.inkscape.org/namespaces/inkscape"
   xmlns:sodipodi="http://sodipodi.sourceforge.net/DTD/sodipodi-0.dtd"
   xmlns="http://www.w3.org/2000/svg"
   xmlns:svg="http://www.w3.org/2000/svg"
   xmlns:rdf="http://www.w3.org/1999/02/22-rdf-syntax-ns#"
   xmlns:cc="http://creativecommons.org/ns#"
   xmlns:dc="http://purl.org/dc/elements/1.1/">
  <title
     id="title3250">Boston Icons</title>
  <defs
     id="defs2628" />
  <sodipodi:namedview
     id="base"
     pagecolor="#ffffff"
     bordercolor="#00ffed"
     borderopacity="1"
     inkscape:pageopacity="1"
     inkscape:pageshadow="2"
     inkscape:zoom="15.839192"
     inkscape:cx="28.158002"
     inkscape:cy="29.641664"
     inkscape:document-units="px"
     inkscape:current-layer="layer1"
     showgrid="false"
     showguides="false"
     inkscape:guide-bbox="true"
     fit-margin-top="0"
     fit-margin-left="0"
     fit-margin-right="0"
     fit-margin-bottom="0"
     inkscape:window-width="1920"
     inkscape:window-height="1011"
     inkscape:window-x="0"
     inkscape:window-y="0"
     inkscape:window-maximized="1"
     units="px"
     inkscape:pagecheckerboard="0">
    <inkscape:grid
       type="xygrid"
       id="grid3182"
       spacingx="0.26458333"
       spacingy="0.26458333"
       empspacing="4"
       originx="-82.550004"
       originy="-127.00001"
       dotted="false" />
    <sodipodi:guide
       position="-4.268358e-06,27.516666"
       orientation="1,0"
       id="guide3216"
       inkscape:locked="false" />
    <sodipodi:guide
       position="32.279157,-4.1479283e-06"
       orientation="0,1"
       id="guide3222"
       inkscape:locked="false" />
    <sodipodi:guide
       position="13.229163,0.52915746"
       orientation="0,1"
       id="guide3226"
       inkscape:locked="false" />
    <sodipodi:guide
       position="5.8208298,12.170824"
       orientation="0,1"
       id="guide864"
       inkscape:locked="false" />
    <sodipodi:guide
       position="12.699995,10.847905"
       orientation="1,0"
       id="guide868"
       inkscape:locked="false" />
    <sodipodi:guide
       position="2.1166616,12.170822"
       orientation="1,0"
       id="guide1119"
       inkscape:locked="false" />
    <sodipodi:guide
       position="10.583328,11.112488"
       orientation="1,0"
       id="guide1121"
       inkscape:locked="false" />
    <sodipodi:guide
       position="1.8520783,8.7312383"
       orientation="0,1"
       id="guide1131"
       inkscape:locked="false" />
    <sodipodi:guide
       position="3.4395782,8.2020716"
       orientation="1,0"
       id="guide1138"
       inkscape:locked="false" />
    <sodipodi:guide
       position="9.2604115,7.1437383"
       orientation="1,0"
       id="guide1140"
       inkscape:locked="false" />
    <sodipodi:guide
       position="1.8520783,10.318738"
       orientation="0,1"
       id="guide1142"
       inkscape:locked="false" />
    <sodipodi:guide
       position="1.3229116,3.1749884"
       orientation="0,1"
       id="guide1152"
       inkscape:locked="false" />
    <sodipodi:guide
       position="4.2333282,1.5874884"
       orientation="0,1"
       id="guide849"
       inkscape:locked="false" />
    <sodipodi:guide
       position="9.5249948,3.1749884"
       orientation="1,0"
       id="guide915"
       inkscape:locked="false" />
    <sodipodi:guide
       position="4.7624949,2.3812384"
       orientation="1,0"
       id="guide917"
       inkscape:locked="false" />
  </sodipodi:namedview>
  <metadata
     id="metadata2631">
    <rdf:RDF>
      <cc:Work
         rdf:about="">
        <dc:format>image/svg+xml</dc:format>
        <dc:type
           rdf:resource="http://purl.org/dc/dcmitype/StillImage" />
        <dc:title>Boston Icons</dc:title>
        <cc:license
           rdf:resource="dribbble.com/chrisdiaz" />
        <dc:creator>
          <cc:Agent>
            <dc:title>Christian Díaz</dc:title>
          </cc:Agent>
        </dc:creator>
        <dc:date>2022</dc:date>
        <dc:publisher>
          <cc:Agent>
            <dc:title>Christian Díaz</dc:title>
          </cc:Agent>
        </dc:publisher>
        <dc:identifier>christiandiaz.design [at] gmail [dot] com</dc:identifier>
        <dc:subject>
          <rdf:Bag>
            <rdf:li>GNOME icon Theme</rdf:li>
          </rdf:Bag>
        </dc:subject>
        <dc:description>dribbble.com/chrisdiaz | diazchris.deviantart.com</dc:description>
      </cc:Work>
    </rdf:RDF>
  </metadata>
  <g
     inkscape:label="Capa 1"
     inkscape:groupmode="layer"
     id="layer1"
     transform="translate(-82.550003,-157.3)">
    <g
       id="g1647">
      <rect
         rx="0.52916682"
         ry="0.52914387"
         y="166.56041"
         x="84.666664"
         height="2.9104507"
         width="8.4666672"
         id="rect846"
         style="fill:#373b43;fill-opacity:1;fill-rule:nonzero;stroke:none;stroke-width:1.5875;stroke-linecap:square;stroke-linejoin:bevel;stroke-miterlimit:4;stroke-dasharray:none;stroke-dashoffset:35;stroke-opacity:1" />
      <rect
         ry="0.26455647"
         rx="0.26458701"
         y="166.82501"
         x="84.931252"
         height="2.3812568"
         width="7.9375114"
         id="rect909"
         style="fill:#96a5af;fill-opacity:1;fill-rule:nonzero;stroke:none;stroke-width:1.5875;stroke-linecap:square;stroke-linejoin:bevel;stroke-miterlimit:4;stroke-dasharray:none;stroke-dashoffset:35;stroke-opacity:1" />
      <g
         id="g1174"
         transform="translate(-8.4666632)">
        <rect
           rx="0.52916682"
           ry="0.52914387"
           y="157.82915"
           x="93.133324"
           height="10.054174"
           width="8.4666739"
           id="rect958"
           style="fill:#373b43;fill-opacity:1;fill-rule:nonzero;stroke:none;stroke-width:1.5875;stroke-linecap:square;stroke-linejoin:bevel;stroke-miterlimit:4;stroke-dasharray:none;stroke-dashoffset:35;stroke-opacity:1" />
        <rect
           ry="0.26455647"
           rx="0.26458701"
           y="158.09373"
           x="93.397911"
           height="9.5250034"
           width="7.9375033"
           id="rect960"
           style="fill:#96a5af;fill-opacity:1;fill-rule:nonzero;stroke:none;stroke-width:1.5875;stroke-linecap:square;stroke-linejoin:bevel;stroke-miterlimit:4;stroke-dasharray:none;stroke-dashoffset:35;stroke-opacity:1" />
      </g>
      <path
         id="path911"
         style="fill:#373b43;fill-opacity:1;fill-rule:nonzero;stroke:none;stroke-width:1.5875;stroke-linecap:square;stroke-linejoin:bevel;stroke-miterlimit:4;stroke-dasharray:none;stroke-dashoffset:35;stroke-opacity:1"
         d="m 85.725003,158.62292 c -0.146125,0 -0.264583,0.11845 -0.264583,0.26458 0,0.14613 0.118458,0.26458 0.264583,0.26458 0.146125,0 0.264583,-0.11845 0.264583,-0.26458 0,-0.14613 -0.118458,-0.26458 -0.264583,-0.26458 z m 6.35,0 c -0.146126,0 -0.264583,0.11845 -0.264583,0.26458 0,0.14613 0.118457,0.26458 0.264583,0.26458 0.146125,0 0.264583,-0.11845 0.264583,-0.26458 0,-0.14613 -0.118458,-0.26458 -0.264583,-0.26458 z m -6.35,7.9375 c -0.146125,0 -0.264583,0.11845 -0.264583,0.26458 0,0.14613 0.118458,0.26458 0.264583,0.26458 0.146125,0 0.264583,-0.11845 0.264583,-0.26458 0,-0.14613 -0.118458,-0.26458 -0.264583,-0.26458 z m 6.35,0 c -0.146126,0 -0.264583,0.11845 -0.264583,0.26458 0,0.14613 0.118457,0.26458 0.264583,0.26458 0.146125,0 0.264583,-0.11845 0.264583,-0.26458 0,-0.14613 -0.118458,-0.26458 -0.264583,-0.26458 z"
         sodipodi:nodetypes="ssssssssssssssssssss" />
      <rect
         rx="3.6958852e-06"
         y="168.41251"
         x="87.3125"
         height="1.0583289"
         width="4.7624989"
         id="rect919"
         style="fill:#373b43;fill-opacity:1;fill-rule:nonzero;stroke:none;stroke-width:1.5875;stroke-linecap:square;stroke-linejoin:bevel;stroke-miterlimit:4;stroke-dasharray:none;stroke-dashoffset:35;stroke-opacity:1" />
      <path
         id="rect921"
         style="fill:#cdd5d9;fill-opacity:1;fill-rule:nonzero;stroke:none;stroke-width:1.5875;stroke-linecap:square;stroke-linejoin:bevel;stroke-miterlimit:4;stroke-dasharray:none;stroke-dashoffset:35;stroke-opacity:1"
         d="m 87.577086,168.67708 v 0.52917 h 1.058334 v -0.52917 z m 1.5875,0 v 0.52917 h 2.645834 v -0.52917 z" />
      <path
         id="rect1035"
         style="fill:#ffffff;fill-opacity:1;fill-rule:nonzero;stroke:none;stroke-width:6;stroke-linecap:square;stroke-linejoin:bevel;stroke-miterlimit:4;stroke-dasharray:none;stroke-dashoffset:35;stroke-opacity:1"
         d="M 17 9 L 17 13 L 16 13 L 16 14 L 12 14 L 12 16 L 16 16 L 16 18 L 12 18 L 12 20 L 16 20 L 16 22 L 12 22 L 12 24 L 16 24 L 16 26 L 12 26 L 12 28 L 16 28 L 16 29 L 17 29 L 17 33 L 19 33 L 19 29 L 21 29 L 21 33 L 23 33 L 23 29 L 23 28 L 17 28 L 17 14 L 30 14 L 30 9 L 29 9 L 29 13 L 27 13 L 27 9 L 25 9 L 25 13 L 23 13 L 23 9 L 21 9 L 21 13 L 19 13 L 19 9 L 17 9 z M 19 16 L 19 26 L 23 26 L 23 25 L 20 25 L 20 17 L 28 17 L 28 23 L 29 23 L 29 16 L 19 16 z M 21 18 L 21 20 L 24 20 L 24 18 L 21 18 z M 21 21 L 21 22 L 24 22 L 24 21 L 21 21 z M 25 21 L 25 22 L 26 22 L 26 21 L 25 21 z M 21 23 L 21 24 L 22 24 L 22 23 L 21 23 z "
         transform="matrix(0.26458333,0,0,0.26458333,82.550003,157.3)" />
      <g
         id="g887">
        <rect
           style="fill:#ffa803;stroke-width:0.529167;stroke-linejoin:round"
           id="rect1527"
           width="5.2916679"
           height="4.2333522"
           x="88.900002"
           y="165.23749"
           rx="0"
           ry="4.5793749e-06" />
        <path
           id="path1746"
           style="fill:#a57b50;stroke-width:0.529167;stroke-linejoin:round"
           d="m 91.545836,159.68125 c -0.439737,0 -0.79375,0.35402 -0.79375,0.79375 v 3.175 h -1.5875 c -0.146579,0 -0.264583,0.11801 -0.264583,0.26458 v 1.32292 h 5.291667 v -1.32292 c 0,-0.14657 -0.118004,-0.26458 -0.264584,-0.26458 h -1.5875 v -3.175 c 0,-0.43973 -0.354013,-0.79375 -0.79375,-0.79375 z" />
        <path
           id="rect1953"
           style="fill:#ebb16d;stroke-width:0.529167;stroke-linejoin:round"
           d="m 91.545836,159.94583 c -0.293158,0 -0.529166,0.23601 -0.529166,0.52917 v 3.43958 h -1.852084 v 1.05834 h 4.7625 v -1.05834 H 92.075003 V 160.475 c 0,-0.29316 -0.236009,-0.52917 -0.529167,-0.52917 z m 0,0.26459 a 0.26458332,0.26458332 0 0 1 0.264584,0.26458 0.26458332,0.26458332 0 0 1 -0.264584,0.26458 0.26458332,0.26458332 0 0 1 -0.264583,-0.26458 0.26458332,0.26458332 0 0 1 0.264583,-0.26458 z" />
        <path
           id="rect2238"
           style="fill:#ffc61b;stroke-width:0.529167;stroke-linejoin:round"
           d="m 89.164586,165.50208 v 3.70417 h 0.264584 l -5e-6,-1.58749 h 0.264583 l 5e-6,1.58749 h 0.529167 l -5e-6,-2.11666 h 0.264583 l 5e-6,2.11666 h 0.529167 l -5e-6,-1.58749 h 0.264583 l 5e-6,1.58749 h 0.529167 l -5e-6,-2.11666 h 0.264583 l 5e-6,2.11666 h 0.529167 l -5e-6,-2.38124 h 0.264583 l 5e-6,2.38124 h 0.529167 l -5e-6,-1.58749 h 0.264583 l 5e-6,1.58749 h 0.264583 v -3.70417 z"
           sodipodi:nodetypes="ccccccccccccccccccccccccccccc" />
      </g>
    </g>
  </g>
</svg>
