<?xml version="1.0" encoding="UTF-8" standalone="no"?>
<svg
   xmlns:dc="http://purl.org/dc/elements/1.1/"
   xmlns:cc="http://creativecommons.org/ns#"
   xmlns:rdf="http://www.w3.org/1999/02/22-rdf-syntax-ns#"
   xmlns:svg="http://www.w3.org/2000/svg"
   xmlns="http://www.w3.org/2000/svg"
   xmlns:xlink="http://www.w3.org/1999/xlink"
   xmlns:sodipodi="http://sodipodi.sourceforge.net/DTD/sodipodi-0.dtd"
   xmlns:inkscape="http://www.inkscape.org/namespaces/inkscape"
   width="48"
   height="48"
   viewBox="0 0 12.7 12.7"
   version="1.1"
   id="svg2634"
   inkscape:version="1.0.1 (3bc2e813f5, 2020-09-07)"
   sodipodi:docname="epsxe.svg">
  <title
     id="title3250">Boston Icons</title>
  <defs
     id="defs2628">
    <linearGradient
       inkscape:collect="always"
       xlink:href="#linearGradient1007"
       id="linearGradient1009"
       x1="99.48333"
       y1="153.06667"
       x2="99.48333"
       y2="136.13335"
       gradientUnits="userSpaceOnUse" />
    <linearGradient
       inkscape:collect="always"
       id="linearGradient1007">
      <stop
         style="stop-color:#b9d9f7;stop-opacity:1"
         offset="0"
         id="stop1003" />
      <stop
         style="stop-color:#7fb9ec;stop-opacity:1"
         offset="1"
         id="stop1005" />
    </linearGradient>
  </defs>
  <sodipodi:namedview
     id="base"
     pagecolor="#ffffff"
     bordercolor="#00ffed"
     borderopacity="1"
     inkscape:pageopacity="1"
     inkscape:pageshadow="2"
     inkscape:zoom="5.6"
     inkscape:cx="43.86646"
     inkscape:cy="16.181908"
     inkscape:document-units="px"
     inkscape:current-layer="layer1"
     showgrid="false"
     showguides="false"
     inkscape:guide-bbox="true"
     fit-margin-top="0"
     fit-margin-left="0"
     fit-margin-right="0"
     fit-margin-bottom="0"
     inkscape:window-width="1920"
     inkscape:window-height="1016"
     inkscape:window-x="0"
     inkscape:window-y="0"
     inkscape:window-maximized="1"
     units="px"
     inkscape:document-rotation="0">
    <inkscape:grid
       type="xygrid"
       id="grid3182"
       spacingx="0.26458333"
       spacingy="0.26458333"
       empspacing="4"
       originx="-82.550004"
       originy="-127.00001"
       dotted="false" />
    <sodipodi:guide
       position="-4.268358e-06,27.516666"
       orientation="1,0"
       id="guide3216"
       inkscape:locked="false" />
    <sodipodi:guide
       position="32.279157,-4.1479283e-06"
       orientation="0,1"
       id="guide3222"
       inkscape:locked="false" />
    <sodipodi:guide
       position="13.229163,0.52915746"
       orientation="0,1"
       id="guide3226"
       inkscape:locked="false" />
    <sodipodi:guide
       position="0.52916318,6.8791574"
       orientation="1,0"
       id="guide3228"
       inkscape:locked="false" />
    <sodipodi:guide
       position="1.0583298,6.8791574"
       orientation="1,0"
       id="guide3234"
       inkscape:locked="false" />
    <sodipodi:guide
       position="1.5874965,6.8791574"
       orientation="1,0"
       id="guide3236"
       inkscape:locked="false" />
    <sodipodi:guide
       position="6.3499965,7.9374908"
       orientation="1,0"
       id="guide3238"
       inkscape:locked="false" />
    <sodipodi:guide
       position="13.75833,1.0583241"
       orientation="0,1"
       id="guide3246"
       inkscape:locked="false" />
    <sodipodi:guide
       position="5.8208298,12.170824"
       orientation="0,1"
       id="guide864"
       inkscape:locked="false" />
    <sodipodi:guide
       position="6.8791632,11.641657"
       orientation="0,1"
       id="guide866"
       inkscape:locked="false" />
    <sodipodi:guide
       position="12.17083,8.4666574"
       orientation="1,0"
       id="guide868"
       inkscape:locked="false" />
    <sodipodi:guide
       position="11.641663,8.4666574"
       orientation="1,0"
       id="guide870"
       inkscape:locked="false" />
    <sodipodi:guide
       position="11.112496,8.4666574"
       orientation="1,0"
       id="guide872"
       inkscape:locked="false" />
    <sodipodi:guide
       position="0.79374495,11.112488"
       orientation="0,1"
       inkscape:locked="false"
       id="guide863" />
    <sodipodi:guide
       position="2.1166616,9.5249883"
       orientation="0,1"
       id="guide869"
       inkscape:locked="false" />
  </sodipodi:namedview>
  <metadata
     id="metadata2631">
    <rdf:RDF>
      <cc:Work
         rdf:about="">
        <dc:format>image/svg+xml</dc:format>
        <dc:type
           rdf:resource="http://purl.org/dc/dcmitype/StillImage" />
        <dc:title>Boston Icons</dc:title>
        <cc:license
           rdf:resource="dribbble.com/chrisdiaz" />
        <dc:creator>
          <cc:Agent>
            <dc:title>Christian Díaz</dc:title>
          </cc:Agent>
        </dc:creator>
        <dc:date>2020</dc:date>
        <dc:publisher>
          <cc:Agent>
            <dc:title>Christian Díaz</dc:title>
          </cc:Agent>
        </dc:publisher>
        <dc:identifier>christiandiaz.design [at] gmail [dot] com</dc:identifier>
        <dc:subject>
          <rdf:Bag>
            <rdf:li>GNOME icon Theme</rdf:li>
          </rdf:Bag>
        </dc:subject>
        <dc:description>dribbble.com/chrisdiaz | diazchris.deviantart.com</dc:description>
      </cc:Work>
    </rdf:RDF>
  </metadata>
  <g
     inkscape:label="Capa 1"
     inkscape:groupmode="layer"
     id="layer1"
     transform="translate(-82.550003,-157.3)">
    <g
       id="g952">
      <rect
         ry="0.52914894"
         y="160.47501"
         x="83.60833"
         height="8.4666662"
         width="10.583333"
         id="rect889"
         style="fill:#7a8e9e;fill-opacity:1;fill-rule:nonzero;stroke:none;stroke-width:0.529167;stroke-linecap:square;stroke-linejoin:bevel;stroke-miterlimit:4;stroke-dasharray:none;stroke-dashoffset:35;stroke-opacity:1"
         rx="0.52916783" />
      <rect
         style="fill:#cdd5d9;stroke-width:0.529167;stroke-linejoin:round"
         id="rect870"
         width="10.054167"
         height="7.9375"
         x="83.872917"
         y="160.73958"
         rx="0.26458332"
         ry="0.26456562" />
      <path
         id="path892"
         style="fill:#7a8e9e;stroke-width:2;stroke-linejoin:round"
         d="m 15,13 v 8.675781 A 11,11 0 0 0 13,28 11,11 0 0 0 15,34.322266 V 43 h 1 V 35.550781 A 11,11 0 0 0 24,39 11,11 0 0 0 32,35.548828 V 43 h 1 V 34.324219 A 11,11 0 0 0 35,28 11,11 0 0 0 33,21.677734 V 13 h -1 v 7.449219 A 11,11 0 0 0 24,17 11,11 0 0 0 16,20.451172 V 13 Z m 8.980469,5 A 9.9999996,9.9999996 0 0 1 24,18 a 9.9999996,9.9999996 0 0 1 8,4 9.9999996,9.9999996 0 0 1 2,6 9.9999996,9.9999996 0 0 1 -2,6 9.9999996,9.9999996 0 0 1 -8,4 9.9999996,9.9999996 0 0 1 -8,-4 9.9999996,9.9999996 0 0 1 -2,-6 9.9999996,9.9999996 0 0 1 2,-6 9.9999996,9.9999996 0 0 1 7.980469,-4 z M 19,22 v 2 H 29 V 22 Z M 8.5,32 A 1.5,1.5 0 0 0 7,33.5 1.5,1.5 0 0 0 8.5,35 1.5,1.5 0 0 0 10,33.5 1.5,1.5 0 0 0 8.5,32 Z m 1,4 A 2.4999999,2.4999999 0 0 0 7,38.5 2.4999999,2.4999999 0 0 0 9.5,41 2.4999999,2.4999999 0 0 0 12,38.5 2.4999999,2.4999999 0 0 0 9.5,36 Z m 29,0 A 2.4999999,2.4999999 0 0 0 36,38.5 2.4999999,2.4999999 0 0 0 38.5,41 2.4999999,2.4999999 0 0 0 41,38.5 2.4999999,2.4999999 0 0 0 38.5,36 Z"
         transform="matrix(0.26458333,0,0,0.26458333,82.550003,157.3)" />
      <rect
         style="fill:#2d8cff;stroke-width:0.529167;stroke-linejoin:round"
         id="rect922"
         width="0.26458332"
         height="0.26458332"
         x="84.931252"
         y="168.41249" />
    </g>
  </g>
</svg>
