<?xml version="1.0" encoding="UTF-8" standalone="no"?>
<!-- Created with Inkscape (http://www.inkscape.org/) -->

<svg
   width="48"
   height="48"
   viewBox="0 0 12.7 12.7"
   version="1.1"
   id="svg2634"
   inkscape:version="1.1.2 (0a00cf5339, 2022-02-04, custom)"
   sodipodi:docname="soundconverter.svg"
   xmlns:inkscape="http://www.inkscape.org/namespaces/inkscape"
   xmlns:sodipodi="http://sodipodi.sourceforge.net/DTD/sodipodi-0.dtd"
   xmlns:xlink="http://www.w3.org/1999/xlink"
   xmlns="http://www.w3.org/2000/svg"
   xmlns:svg="http://www.w3.org/2000/svg"
   xmlns:rdf="http://www.w3.org/1999/02/22-rdf-syntax-ns#"
   xmlns:cc="http://creativecommons.org/ns#"
   xmlns:dc="http://purl.org/dc/elements/1.1/">
  <title
     id="title3250">Boston Icons</title>
  <defs
     id="defs2628">
    <linearGradient
       inkscape:collect="always"
       xlink:href="#linearGradient1007"
       id="linearGradient1009"
       x1="99.48333"
       y1="153.06667"
       x2="99.48333"
       y2="136.13335"
       gradientUnits="userSpaceOnUse" />
    <linearGradient
       inkscape:collect="always"
       id="linearGradient1007">
      <stop
         style="stop-color:#b9d9f7;stop-opacity:1"
         offset="0"
         id="stop1003" />
      <stop
         style="stop-color:#7fb9ec;stop-opacity:1"
         offset="1"
         id="stop1005" />
    </linearGradient>
  </defs>
  <sodipodi:namedview
     id="base"
     pagecolor="#ffffff"
     bordercolor="#00ffed"
     borderopacity="1"
     inkscape:pageopacity="1"
     inkscape:pageshadow="2"
     inkscape:zoom="7.919596"
     inkscape:cx="-10.922274"
     inkscape:cy="17.993342"
     inkscape:document-units="px"
     inkscape:current-layer="layer1"
     showgrid="false"
     showguides="false"
     inkscape:guide-bbox="true"
     fit-margin-top="0"
     fit-margin-left="0"
     fit-margin-right="0"
     fit-margin-bottom="0"
     inkscape:window-width="1920"
     inkscape:window-height="1011"
     inkscape:window-x="0"
     inkscape:window-y="0"
     inkscape:window-maximized="1"
     units="px"
     inkscape:pagecheckerboard="0">
    <inkscape:grid
       type="xygrid"
       id="grid3182"
       spacingx="0.26458333"
       spacingy="0.26458333"
       empspacing="4"
       originx="-82.550004"
       originy="-127.00001"
       dotted="false" />
    <sodipodi:guide
       position="-4.268358e-06,27.516666"
       orientation="1,0"
       id="guide3216"
       inkscape:locked="false" />
    <sodipodi:guide
       position="32.279157,-4.1479283e-06"
       orientation="0,1"
       id="guide3222"
       inkscape:locked="false" />
    <sodipodi:guide
       position="13.229163,0.52915746"
       orientation="0,1"
       id="guide3226"
       inkscape:locked="false" />
    <sodipodi:guide
       position="0.52916318,6.8791574"
       orientation="1,0"
       id="guide3228"
       inkscape:locked="false" />
    <sodipodi:guide
       position="1.0583298,6.8791574"
       orientation="1,0"
       id="guide3234"
       inkscape:locked="false" />
    <sodipodi:guide
       position="1.5874965,6.8791574"
       orientation="1,0"
       id="guide3236"
       inkscape:locked="false" />
    <sodipodi:guide
       position="6.3499965,7.9374908"
       orientation="1,0"
       id="guide3238"
       inkscape:locked="false" />
    <sodipodi:guide
       position="13.75833,1.0583241"
       orientation="0,1"
       id="guide3246"
       inkscape:locked="false" />
    <sodipodi:guide
       position="12.17083,8.4666574"
       orientation="1,0"
       id="guide868"
       inkscape:locked="false" />
    <sodipodi:guide
       position="11.641663,8.4666574"
       orientation="1,0"
       id="guide870"
       inkscape:locked="false" />
    <sodipodi:guide
       position="11.112496,8.4666574"
       orientation="1,0"
       id="guide872"
       inkscape:locked="false" />
    <sodipodi:guide
       position="2.1166616,9.5249883"
       orientation="0,1"
       id="guide869"
       inkscape:locked="false" />
  </sodipodi:namedview>
  <metadata
     id="metadata2631">
    <rdf:RDF>
      <cc:Work
         rdf:about="">
        <dc:format>image/svg+xml</dc:format>
        <dc:type
           rdf:resource="http://purl.org/dc/dcmitype/StillImage" />
        <dc:title>Boston Icons</dc:title>
        <cc:license
           rdf:resource="dribbble.com/chrisdiaz" />
        <dc:creator>
          <cc:Agent>
            <dc:title>Christian Díaz</dc:title>
          </cc:Agent>
        </dc:creator>
        <dc:date>2022</dc:date>
        <dc:publisher>
          <cc:Agent>
            <dc:title>Christian Díaz</dc:title>
          </cc:Agent>
        </dc:publisher>
        <dc:identifier>christiandiaz.design [at] gmail [dot] com</dc:identifier>
        <dc:subject>
          <rdf:Bag>
            <rdf:li>GNOME icon Theme</rdf:li>
          </rdf:Bag>
        </dc:subject>
        <dc:description>dribbble.com/chrisdiaz | diazchris.deviantart.com</dc:description>
      </cc:Work>
    </rdf:RDF>
  </metadata>
  <g
     inkscape:label="Capa 1"
     inkscape:groupmode="layer"
     id="layer1"
     transform="translate(-82.550003,-157.3)">
    <g
       id="g2778">
      <rect
         ry="0.52914894"
         y="160.47501"
         x="83.60833"
         height="8.4666662"
         width="10.583333"
         id="rect889"
         style="fill:#556e81;fill-opacity:1;fill-rule:nonzero;stroke:none;stroke-width:0.529167;stroke-linecap:square;stroke-linejoin:bevel;stroke-miterlimit:4;stroke-dasharray:none;stroke-dashoffset:35;stroke-opacity:1"
         rx="0.52916664" />
      <rect
         style="fill:#7a8e9e;stroke-width:0.529167;stroke-linejoin:round"
         id="rect2171"
         width="10.054167"
         height="7.9375"
         x="83.872917"
         y="160.73958"
         rx="0.26458332"
         ry="0.26456562" />
      <path
         id="path2370"
         style="fill:#2d8cff;stroke-width:2;stroke-linejoin:round"
         d="M 24 13 L 24 43 L 42 43 C 42.554 43 43 42.553963 43 42 L 43 14 C 43 13.446037 42.554 13 42 13 L 24 13 z "
         transform="matrix(0.26458333,0,0,0.26458333,82.550003,157.3)" />
      <path
         id="rect1479"
         style="fill:#ffffff;stroke-width:2;stroke-linejoin:round"
         d="M 11.931641 18 C 11.415808 18 11 18.445997 11 19 L 11 37 C 11 37.554003 11.415808 38 11.931641 38 L 12.068359 38 C 12.584192 38 13 37.554003 13 37 L 13 19 C 13 18.445997 12.584192 18 12.068359 18 L 11.931641 18 z M 36 18 C 35.446006 18 35 18.445997 35 19 L 35 37 C 35 37.554003 35.446006 38 36 38 C 36.553994 38 37 37.554003 37 37 L 37 19 C 37 18.445997 36.553994 18 36 18 z M 24 20 C 23.446 20 23 20.445997 23 21 L 23 35 C 23 35.554003 23.446 36 24 36 C 24.554 36 25 35.554003 25 35 L 25 21 C 25 20.445997 24.554 20 24 20 z M 20 22 C 19.446002 22 19 22.445997 19 23 L 19 33 C 19 33.554003 19.446002 34 20 34 C 20.553998 34 21 33.554003 21 33 L 21 23 C 21 22.445997 20.553998 22 20 22 z M 27.892578 22 C 27.397856 22 27 22.445997 27 23 L 27 33 C 27 33.554003 27.397856 34 27.892578 34 L 28.107422 34 C 28.602144 34 29 33.554003 29 33 L 29 23 C 29 22.445997 28.602144 22 28.107422 22 L 27.892578 22 z M 16 24 C 15.446004 24 15 24.445997 15 25 L 15 31 C 15 31.554003 15.446004 32 16 32 C 16.553996 32 17 31.554003 17 31 L 17 25 C 17 24.445997 16.553996 24 16 24 z M 32 24 C 31.446004 24 31 24.445997 31 25 L 31 31 C 31 31.554003 31.446004 32 32 32 C 32.553996 32 33 31.554003 33 31 L 33 25 C 33 24.445997 32.553996 24 32 24 z M 7.9746094 26 C 7.4326723 26.013639 7 26.454653 7 27 L 7 29 C 7 29.554003 7.4460032 30 8 30 C 8.5539968 30 9 29.554003 9 29 L 9 27 C 9 26.445997 8.5539968 26 8 26 C 7.9913438 26 7.9832116 25.999784 7.9746094 26 z M 39.974609 26 C 39.432672 26.013639 39 26.454653 39 27 L 39 29 C 39 29.554003 39.446003 30 40 30 C 40.553997 30 41 29.554003 41 29 L 41 27 C 41 26.445997 40.553997 26 40 26 C 39.991344 26 39.983212 25.999784 39.974609 26 z "
         transform="matrix(0.26458333,0,0,0.26458333,82.550003,157.3)" />
    </g>
  </g>
</svg>
