<?xml version="1.0" encoding="UTF-8" standalone="no"?>
<!-- Created with Inkscape (http://www.inkscape.org/) -->

<svg
   width="48"
   height="48"
   viewBox="0 0 12.7 12.7"
   version="1.1"
   id="svg2634"
   inkscape:version="1.1.2 (0a00cf5339, 2022-02-04, custom)"
   sodipodi:docname="system-software-install.svg"
   xmlns:inkscape="http://www.inkscape.org/namespaces/inkscape"
   xmlns:sodipodi="http://sodipodi.sourceforge.net/DTD/sodipodi-0.dtd"
   xmlns:xlink="http://www.w3.org/1999/xlink"
   xmlns="http://www.w3.org/2000/svg"
   xmlns:svg="http://www.w3.org/2000/svg"
   xmlns:rdf="http://www.w3.org/1999/02/22-rdf-syntax-ns#"
   xmlns:cc="http://creativecommons.org/ns#"
   xmlns:dc="http://purl.org/dc/elements/1.1/">
  <title
     id="title3250">Boston Icons</title>
  <defs
     id="defs2628">
    <linearGradient
       inkscape:collect="always"
       xlink:href="#linearGradient1007"
       id="linearGradient1009"
       x1="99.48333"
       y1="153.06667"
       x2="99.48333"
       y2="136.13335"
       gradientUnits="userSpaceOnUse" />
    <linearGradient
       inkscape:collect="always"
       id="linearGradient1007">
      <stop
         style="stop-color:#b9d9f7;stop-opacity:1"
         offset="0"
         id="stop1003" />
      <stop
         style="stop-color:#7fb9ec;stop-opacity:1"
         offset="1"
         id="stop1005" />
    </linearGradient>
  </defs>
  <sodipodi:namedview
     id="base"
     pagecolor="#ffffff"
     bordercolor="#00ffed"
     borderopacity="1"
     inkscape:pageopacity="1"
     inkscape:pageshadow="2"
     inkscape:zoom="15.839192"
     inkscape:cx="21.623578"
     inkscape:cy="24.590901"
     inkscape:document-units="px"
     inkscape:current-layer="layer1"
     showgrid="false"
     showguides="false"
     inkscape:guide-bbox="true"
     fit-margin-top="0"
     fit-margin-left="0"
     fit-margin-right="0"
     fit-margin-bottom="0"
     inkscape:window-width="1920"
     inkscape:window-height="1011"
     inkscape:window-x="0"
     inkscape:window-y="0"
     inkscape:window-maximized="1"
     units="px"
     inkscape:pagecheckerboard="0">
    <inkscape:grid
       type="xygrid"
       id="grid3182"
       spacingx="0.26458333"
       spacingy="0.26458333"
       empspacing="4"
       originx="-82.550004"
       originy="-127.00001"
       dotted="false" />
    <sodipodi:guide
       position="-4.268358e-06,27.516666"
       orientation="1,0"
       id="guide3216"
       inkscape:locked="false" />
    <sodipodi:guide
       position="32.279157,-4.1479283e-06"
       orientation="0,1"
       id="guide3222"
       inkscape:locked="false" />
    <sodipodi:guide
       position="13.229163,0.52915746"
       orientation="0,1"
       id="guide3226"
       inkscape:locked="false" />
    <sodipodi:guide
       position="0.52916318,6.8791574"
       orientation="1,0"
       id="guide3228"
       inkscape:locked="false" />
    <sodipodi:guide
       position="1.0583298,6.8791574"
       orientation="1,0"
       id="guide3234"
       inkscape:locked="false" />
    <sodipodi:guide
       position="1.5874965,6.8791574"
       orientation="1,0"
       id="guide3236"
       inkscape:locked="false" />
    <sodipodi:guide
       position="6.3499965,7.9374908"
       orientation="1,0"
       id="guide3238"
       inkscape:locked="false" />
    <sodipodi:guide
       position="13.75833,1.0583241"
       orientation="0,1"
       id="guide3246"
       inkscape:locked="false" />
    <sodipodi:guide
       position="5.8208298,12.170824"
       orientation="0,1"
       id="guide864"
       inkscape:locked="false" />
    <sodipodi:guide
       position="6.8791632,11.641657"
       orientation="0,1"
       id="guide866"
       inkscape:locked="false" />
    <sodipodi:guide
       position="12.17083,8.4666574"
       orientation="1,0"
       id="guide868"
       inkscape:locked="false" />
    <sodipodi:guide
       position="11.641663,8.4666574"
       orientation="1,0"
       id="guide870"
       inkscape:locked="false" />
    <sodipodi:guide
       position="11.112496,8.4666574"
       orientation="1,0"
       id="guide872"
       inkscape:locked="false" />
    <sodipodi:guide
       position="0.79374495,11.112488"
       orientation="0,1"
       inkscape:locked="false"
       id="guide863" />
    <sodipodi:guide
       position="2.1166616,9.5249883"
       orientation="0,1"
       id="guide869"
       inkscape:locked="false" />
    <sodipodi:guide
       position="4.7624949,5.5562383"
       orientation="1,0"
       id="guide891"
       inkscape:locked="false" />
    <sodipodi:guide
       position="6.6145782,6.879155"
       orientation="0,1"
       id="guide893"
       inkscape:locked="false" />
    <sodipodi:guide
       position="7.9374949,5.0270717"
       orientation="1,0"
       id="guide895"
       inkscape:locked="false" />
    <sodipodi:guide
       position="7.1437449,3.704155"
       orientation="0,1"
       id="guide897"
       inkscape:locked="false" />
  </sodipodi:namedview>
  <metadata
     id="metadata2631">
    <rdf:RDF>
      <cc:Work
         rdf:about="">
        <dc:format>image/svg+xml</dc:format>
        <dc:type
           rdf:resource="http://purl.org/dc/dcmitype/StillImage" />
        <dc:title>Boston Icons</dc:title>
        <cc:license
           rdf:resource="dribbble.com/chrisdiaz" />
        <dc:creator>
          <cc:Agent>
            <dc:title>Christian Díaz</dc:title>
          </cc:Agent>
        </dc:creator>
        <dc:date>2022</dc:date>
        <dc:publisher>
          <cc:Agent>
            <dc:title>Christian Díaz</dc:title>
          </cc:Agent>
        </dc:publisher>
        <dc:identifier>christiandiaz.design [at] gmail [dot] com</dc:identifier>
        <dc:subject>
          <rdf:Bag>
            <rdf:li>GNOME icon Theme</rdf:li>
          </rdf:Bag>
        </dc:subject>
        <dc:description>dribbble.com/chrisdiaz | diazchris.deviantart.com</dc:description>
      </cc:Work>
    </rdf:RDF>
  </metadata>
  <g
     inkscape:label="Capa 1"
     inkscape:groupmode="layer"
     id="layer1"
     transform="translate(-82.550003,-157.3)">
    <g
       id="g2035">
      <path
         id="rect875"
         style="fill:#96a5af;stroke-width:2;stroke-linecap:square;stroke-linejoin:round"
         d="M 4 12 L 4 42 C 4.0000007 43.107969 4.8919975 44 6 44 L 42 44 C 43.108003 44 44 43.107969 44 42 L 44 12 L 4 12 z "
         transform="matrix(0.26458333,0,0,0.26458333,82.550003,157.3)" />
      <rect
         ry="5.0894191e-06"
         y="158.88751"
         x="86.254166"
         height="1.5874941"
         width="1.0583354"
         id="rect877"
         style="fill:#96a5af;fill-opacity:1;fill-rule:nonzero;stroke:none;stroke-width:0.529167;stroke-linecap:square;stroke-linejoin:round;stroke-miterlimit:4;stroke-dasharray:none;stroke-dashoffset:0;stroke-opacity:1" />
      <rect
         ry="5.0894191e-06"
         y="158.88751"
         x="90.487495"
         height="1.5875094"
         width="1.058332"
         id="rect879"
         style="fill:#96a5af;fill-opacity:1;fill-rule:nonzero;stroke:none;stroke-width:0.529167;stroke-linecap:square;stroke-linejoin:round;stroke-miterlimit:4;stroke-dasharray:none;stroke-dashoffset:0;stroke-opacity:1" />
      <path
         inkscape:connector-curvature="0"
         id="path881"
         d="m 86.254165,158.88751 1.058333,-1.05833 h 3.175 l 1.058333,1.05833 z"
         style="fill:#96a5af;fill-opacity:1;stroke:none;stroke-width:0.264583px;stroke-linecap:butt;stroke-linejoin:miter;stroke-opacity:1" />
      <rect
         ry="5.0894191e-06"
         y="159.1521"
         x="86.518745"
         height="1.3229166"
         width="0.52916664"
         id="rect885"
         style="fill:#ffffff;fill-opacity:1;fill-rule:nonzero;stroke:none;stroke-width:0.529167;stroke-linecap:square;stroke-linejoin:round;stroke-miterlimit:4;stroke-dasharray:none;stroke-dashoffset:0;stroke-opacity:1" />
      <rect
         ry="5.0894191e-06"
         y="159.1521"
         x="90.752083"
         height="1.3229166"
         width="0.52916664"
         id="rect887"
         style="fill:#ffffff;fill-opacity:1;fill-rule:nonzero;stroke:none;stroke-width:0.529167;stroke-linecap:square;stroke-linejoin:round;stroke-miterlimit:4;stroke-dasharray:none;stroke-dashoffset:0;stroke-opacity:1" />
      <path
         sodipodi:nodetypes="ccccc"
         inkscape:connector-curvature="0"
         id="path889"
         d="m 86.915628,158.62293 0.529167,-0.52917 h 2.910417 l 0.529166,0.52917 z"
         style="fill:#ffffff;fill-opacity:1;stroke:none;stroke-width:0.264583px;stroke-linecap:butt;stroke-linejoin:miter;stroke-opacity:1" />
      <path
         id="rect1080"
         style="fill:#ffffff;stroke-width:5.00001;stroke-linejoin:round"
         d="M 5 13 L 5 42 C 5.0000004 42.554003 5.4459893 43 6 43 L 42 43 C 42.554011 43 43 42.554003 43 42 L 43 13 L 5 13 z "
         transform="matrix(0.26458333,0,0,0.26458333,82.550003,157.3)" />
      <path
         id="path995"
         style="fill:#2d8cff;stroke-width:1.32292;stroke-linejoin:round"
         d="m 87.312503,162.59167 a 0.52916663,0.52916663 0 0 0 -0.529167,0.52916 0.52916663,0.52916663 0 0 0 0.529167,0.52917 0.52916663,0.52916663 0 0 0 0.529167,-0.52917 0.52916663,0.52916663 0 0 0 -0.529167,-0.52916 z m 1.5875,0 a 0.52916663,0.52916663 0 0 0 -0.529167,0.52916 0.52916663,0.52916663 0 0 0 0.529167,0.52917 0.52916663,0.52916663 0 0 0 0.529167,-0.52917 0.52916663,0.52916663 0 0 0 -0.529167,-0.52916 z m 1.5875,0 a 0.52916663,0.52916663 0 0 0 -0.529167,0.52916 0.52916663,0.52916663 0 0 0 0.529167,0.52917 0.52916663,0.52916663 0 0 0 0.529167,-0.52917 0.52916663,0.52916663 0 0 0 -0.529167,-0.52916 z m -3.175,1.5875 a 0.52916663,0.52916663 0 0 0 -0.529167,0.52916 0.52916663,0.52916663 0 0 0 0.529167,0.52917 0.52916663,0.52916663 0 0 0 0.529167,-0.52917 0.52916663,0.52916663 0 0 0 -0.529167,-0.52916 z m 1.5875,0 a 0.52916663,0.52916663 0 0 0 -0.529167,0.52916 0.52916663,0.52916663 0 0 0 0.529167,0.52917 0.52916663,0.52916663 0 0 0 0.529167,-0.52917 0.52916663,0.52916663 0 0 0 -0.529167,-0.52916 z m 1.5875,0 a 0.52916663,0.52916663 0 0 0 -0.529167,0.52916 0.52916663,0.52916663 0 0 0 0.529167,0.52917 0.52916663,0.52916663 0 0 0 0.529167,-0.52917 0.52916663,0.52916663 0 0 0 -0.529167,-0.52916 z m -3.175,1.5875 a 0.52916663,0.52916663 0 0 0 -0.529167,0.52916 0.52916663,0.52916663 0 0 0 0.529167,0.52917 0.52916663,0.52916663 0 0 0 0.529167,-0.52917 0.52916663,0.52916663 0 0 0 -0.529167,-0.52916 z m 1.5875,0 a 0.52916663,0.52916663 0 0 0 -0.529167,0.52916 0.52916663,0.52916663 0 0 0 0.529167,0.52917 0.52916663,0.52916663 0 0 0 0.529167,-0.52917 0.52916663,0.52916663 0 0 0 -0.529167,-0.52916 z m 1.5875,0 a 0.52916663,0.52916663 0 0 0 -0.529167,0.52916 0.52916663,0.52916663 0 0 0 0.529167,0.52917 0.52916663,0.52916663 0 0 0 0.529167,-0.52917 0.52916663,0.52916663 0 0 0 -0.529167,-0.52916 z" />
    </g>
  </g>
</svg>
