<?xml version="1.0" encoding="UTF-8" standalone="no"?>
<!-- Created with Inkscape (http://www.inkscape.org/) -->

<svg
   width="48"
   height="48"
   viewBox="0 0 12.7 12.7"
   version="1.1"
   id="svg2634"
   inkscape:version="1.1 (c4e8f9ed74, 2021-05-24)"
   sodipodi:docname="audio-card.svg"
   xmlns:inkscape="http://www.inkscape.org/namespaces/inkscape"
   xmlns:sodipodi="http://sodipodi.sourceforge.net/DTD/sodipodi-0.dtd"
   xmlns:xlink="http://www.w3.org/1999/xlink"
   xmlns="http://www.w3.org/2000/svg"
   xmlns:svg="http://www.w3.org/2000/svg"
   xmlns:rdf="http://www.w3.org/1999/02/22-rdf-syntax-ns#"
   xmlns:cc="http://creativecommons.org/ns#"
   xmlns:dc="http://purl.org/dc/elements/1.1/">
  <title
     id="title3250">Boston Icons</title>
  <defs
     id="defs2628">
    <linearGradient
       inkscape:collect="always"
       xlink:href="#linearGradient1007"
       id="linearGradient1009"
       x1="99.48333"
       y1="153.06667"
       x2="99.48333"
       y2="136.13335"
       gradientUnits="userSpaceOnUse" />
    <linearGradient
       inkscape:collect="always"
       id="linearGradient1007">
      <stop
         style="stop-color:#b9d9f7;stop-opacity:1"
         offset="0"
         id="stop1003" />
      <stop
         style="stop-color:#7fb9ec;stop-opacity:1"
         offset="1"
         id="stop1005" />
    </linearGradient>
  </defs>
  <sodipodi:namedview
     id="base"
     pagecolor="#ffffff"
     bordercolor="#00ffed"
     borderopacity="1"
     inkscape:pageopacity="1"
     inkscape:pageshadow="2"
     inkscape:zoom="15.839192"
     inkscape:cx="18.498418"
     inkscape:cy="28.631511"
     inkscape:document-units="px"
     inkscape:current-layer="layer1"
     showgrid="false"
     showguides="false"
     inkscape:guide-bbox="true"
     fit-margin-top="0"
     fit-margin-left="0"
     fit-margin-right="0"
     fit-margin-bottom="0"
     inkscape:window-width="1920"
     inkscape:window-height="1011"
     inkscape:window-x="0"
     inkscape:window-y="32"
     inkscape:window-maximized="1"
     units="px"
     inkscape:pagecheckerboard="0">
    <inkscape:grid
       type="xygrid"
       id="grid3182"
       spacingx="0.26458333"
       spacingy="0.26458333"
       empspacing="4"
       originx="-82.550004"
       originy="-127.00001"
       dotted="false" />
    <sodipodi:guide
       position="-4.268358e-06,27.516666"
       orientation="1,0"
       id="guide3216"
       inkscape:locked="false" />
    <sodipodi:guide
       position="32.279157,-4.1479283e-06"
       orientation="0,1"
       id="guide3222"
       inkscape:locked="false" />
    <sodipodi:guide
       position="13.229163,0.52915746"
       orientation="0,1"
       id="guide3226"
       inkscape:locked="false" />
    <sodipodi:guide
       position="0.52916318,6.8791574"
       orientation="1,0"
       id="guide3228"
       inkscape:locked="false" />
    <sodipodi:guide
       position="1.0583298,6.8791574"
       orientation="1,0"
       id="guide3234"
       inkscape:locked="false" />
    <sodipodi:guide
       position="1.5874965,6.8791574"
       orientation="1,0"
       id="guide3236"
       inkscape:locked="false" />
    <sodipodi:guide
       position="6.3499965,7.9374908"
       orientation="1,0"
       id="guide3238"
       inkscape:locked="false" />
    <sodipodi:guide
       position="13.75833,1.0583241"
       orientation="0,1"
       id="guide3246"
       inkscape:locked="false" />
    <sodipodi:guide
       position="5.8208298,12.170824"
       orientation="0,1"
       id="guide864"
       inkscape:locked="false" />
    <sodipodi:guide
       position="6.8791632,11.641657"
       orientation="0,1"
       id="guide866"
       inkscape:locked="false" />
    <sodipodi:guide
       position="12.17083,8.4666574"
       orientation="1,0"
       id="guide868"
       inkscape:locked="false" />
    <sodipodi:guide
       position="11.641663,8.4666574"
       orientation="1,0"
       id="guide870"
       inkscape:locked="false" />
    <sodipodi:guide
       position="11.112496,8.4666574"
       orientation="1,0"
       id="guide872"
       inkscape:locked="false" />
    <sodipodi:guide
       position="0.79374495,11.112488"
       orientation="0,1"
       inkscape:locked="false"
       id="guide863" />
    <sodipodi:guide
       position="2.1166616,9.5249883"
       orientation="0,1"
       id="guide869"
       inkscape:locked="false" />
  </sodipodi:namedview>
  <metadata
     id="metadata2631">
    <rdf:RDF>
      <cc:Work
         rdf:about="">
        <dc:format>image/svg+xml</dc:format>
        <dc:type
           rdf:resource="http://purl.org/dc/dcmitype/StillImage" />
        <dc:title>Boston Icons</dc:title>
        <cc:license
           rdf:resource="dribbble.com/chrisdiaz" />
        <dc:creator>
          <cc:Agent>
            <dc:title>Christian Díaz</dc:title>
          </cc:Agent>
        </dc:creator>
        <dc:date>2021</dc:date>
        <dc:publisher>
          <cc:Agent>
            <dc:title>Christian Díaz</dc:title>
          </cc:Agent>
        </dc:publisher>
        <dc:identifier>christiandiaz.design [at] gmail [dot] com</dc:identifier>
        <dc:subject>
          <rdf:Bag>
            <rdf:li>GNOME icon Theme</rdf:li>
          </rdf:Bag>
        </dc:subject>
        <dc:description>dribbble.com/chrisdiaz | diazchris.deviantart.com</dc:description>
      </cc:Work>
    </rdf:RDF>
  </metadata>
  <g
     inkscape:label="Capa 1"
     inkscape:groupmode="layer"
     id="layer1"
     transform="translate(-82.550003,-157.3)">
    <g
       id="g4074">
      <rect
         ry="5.0894191e-06"
         y="160.47501"
         x="84.666664"
         height="7.408289"
         width="9.5250015"
         id="rect889"
         style="fill:#556e81;fill-opacity:1;fill-rule:nonzero;stroke:none;stroke-width:0.529167;stroke-linecap:square;stroke-linejoin:bevel;stroke-miterlimit:4;stroke-dasharray:none;stroke-dashoffset:35;stroke-opacity:1" />
      <rect
         style="fill:#373b43;stroke-width:0.529167;stroke-linejoin:round"
         id="rect1881"
         width="8.9958334"
         height="6.8791666"
         x="84.931252"
         y="160.73958"
         ry="5.0894191e-06" />
      <rect
         style="fill:#96a5af;stroke-width:0.529167;stroke-linejoin:round"
         id="rect1273"
         width="1.0583348"
         height="10.054194"
         x="83.60833"
         y="158.88748" />
      <path
         id="rect1479"
         style="fill:#ffa803;stroke-width:2;stroke-linejoin:round"
         d="M 17 40 L 17 44 L 33 44 L 33 40 L 17 40 z M 35 40 L 35 44 L 42 44 L 42 40 L 35 40 z "
         transform="matrix(0.26458333,0,0,0.26458333,82.550003,157.3)" />
      <rect
         style="fill:#cdd5d9;stroke-width:0.529167;stroke-linejoin:round"
         id="rect1483"
         width="1.5874964"
         height="1.0583298"
         x="84.931252"
         y="161.26875"
         ry="5.0894191e-06" />
      <path
         id="rect1593"
         style="fill:#cdd5d9;stroke-width:0.529167;stroke-linejoin:round"
         d="m 89.42917,163.12082 v 0.52917 h -0.264584 v 0.26458 H 88.63542 v 0.26458 h 0.529166 v 0.26459 H 88.63542 v 0.26458 h 0.529166 v 0.26458 H 88.63542 v 0.26459 h 0.529166 v 0.26458 H 88.63542 v 0.26458 h 0.529166 v 0.26459 h 0.264584 v 0.52916 h 0.264583 v -0.52916 h 0.264583 v 0.52916 h 0.264584 v -0.52916 h 0.264583 v 0.52916 h 0.264583 v -0.52916 h 0.264584 v 0.52916 h 0.264583 v -0.52916 h 0.264583 v 0.52916 h 0.264584 v -0.52916 h 0.264583 v -0.26459 h 0.529167 v -0.26458 h -0.529167 v -0.26458 h 0.529167 v -0.26459 h -0.529167 v -0.26458 h 0.529167 v -0.26458 h -0.529167 v -0.26459 h 0.529167 v -0.26458 h -0.529167 v -0.26458 H 91.81042 v -0.52917 h -0.264584 v 0.52917 h -0.264583 v -0.52917 H 91.01667 v 0.52917 h -0.264584 v -0.52917 h -0.264583 v 0.52917 H 90.22292 v -0.52917 h -0.264584 v 0.52917 h -0.264583 v -0.52917 z m 0,0.79375 h 2.38125 v 1.85208 h -2.38125 z" />
      <rect
         style="fill:#cdd5d9;stroke-width:0.529167;stroke-linejoin:round"
         id="rect1857"
         width="0.52916664"
         height="9.5249996"
         x="83.872917"
         y="159.15207" />
      <path
         id="rect2288"
         style="fill:#ffc61b;stroke-width:2;stroke-linejoin:round"
         d="M 18 41 L 18 43 L 19 43 L 19 41 L 18 41 z M 20 41 L 20 43 L 21 43 L 21 41 L 20 41 z M 22 41 L 22 43 L 23 43 L 23 41 L 22 41 z M 24 41 L 24 43 L 25 43 L 25 41 L 24 41 z M 26 41 L 26 43 L 27 43 L 27 41 L 26 41 z M 28 41 L 28 43 L 29 43 L 29 41 L 28 41 z M 30 41 L 30 43 L 31 43 L 31 41 L 30 41 z M 36 41 L 36 43 L 37 43 L 37 41 L 36 41 z M 38 41 L 38 43 L 39 43 L 39 41 L 38 41 z M 40 41 L 40 43 L 41 43 L 41 41 L 40 41 z "
         transform="matrix(0.26458333,0,0,0.26458333,82.550003,157.3)" />
      <path
         id="rect2432"
         style="fill:#ffffff;stroke-width:2;stroke-linejoin:round"
         d="M 33 15 L 33 17 L 41 17 L 41 15 L 33 15 z M 37 18 L 37 19 L 41 19 L 41 18 L 37 18 z "
         transform="matrix(0.26458333,0,0,0.26458333,82.550003,157.3)" />
      <path
         id="path2625"
         style="fill:#ffffff;stroke-width:2;stroke-linejoin:round"
         d="M 18 16 A 0.99999995 0.99999995 0 0 0 17 17 A 0.99999995 0.99999995 0 0 0 18 18 A 0.99999995 0.99999995 0 0 0 19 17 A 0.99999995 0.99999995 0 0 0 18 16 z M 18 21 A 0.99999995 0.99999995 0 0 0 17 22 A 0.99999995 0.99999995 0 0 0 18 23 A 0.99999995 0.99999995 0 0 0 19 22 A 0.99999995 0.99999995 0 0 0 18 21 z M 18 26 A 0.99999995 0.99999995 0 0 0 17 27 A 0.99999995 0.99999995 0 0 0 18 28 A 0.99999995 0.99999995 0 0 0 19 27 A 0.99999995 0.99999995 0 0 0 18 26 z M 18 31 A 0.99999995 0.99999995 0 0 0 17 32 A 0.99999995 0.99999995 0 0 0 18 33 A 0.99999995 0.99999995 0 0 0 19 32 A 0.99999995 0.99999995 0 0 0 18 31 z "
         transform="matrix(0.26458333,0,0,0.26458333,82.550003,157.3)" />
      <rect
         style="fill:#96a5af;stroke-width:0.529167;stroke-linejoin:round"
         id="rect3019"
         width="1.5874964"
         height="1.0583298"
         x="84.931252"
         y="162.59166"
         ry="5.0894191e-06" />
      <rect
         style="fill:#7a8e9e;stroke-width:0.529167;stroke-linejoin:round"
         id="rect3023"
         width="1.5874964"
         height="1.0583298"
         x="84.931252"
         y="163.91457"
         ry="5.0894191e-06" />
      <rect
         style="fill:#2d8cff;stroke-width:0.529167;stroke-linejoin:round"
         id="rect3027"
         width="1.5874964"
         height="1.0583298"
         x="84.931252"
         y="165.23749"
         ry="5.0894191e-06" />
    </g>
  </g>
</svg>
