<?xml version="1.0" encoding="UTF-8" standalone="no"?>
<!-- Created with Inkscape (http://www.inkscape.org/) -->

<svg
   width="48"
   height="48"
   viewBox="0 0 12.7 12.7"
   version="1.1"
   id="svg2634"
   inkscape:version="1.1.2 (0a00cf5339, 2022-02-04, custom)"
   sodipodi:docname="drive-harddisk-system.svg"
   xmlns:inkscape="http://www.inkscape.org/namespaces/inkscape"
   xmlns:sodipodi="http://sodipodi.sourceforge.net/DTD/sodipodi-0.dtd"
   xmlns="http://www.w3.org/2000/svg"
   xmlns:svg="http://www.w3.org/2000/svg"
   xmlns:rdf="http://www.w3.org/1999/02/22-rdf-syntax-ns#"
   xmlns:cc="http://creativecommons.org/ns#"
   xmlns:dc="http://purl.org/dc/elements/1.1/">
  <title
     id="title3250">Boston Icons</title>
  <defs
     id="defs2628" />
  <sodipodi:namedview
     id="base"
     pagecolor="#ffffff"
     bordercolor="#00ffed"
     borderopacity="1"
     inkscape:pageopacity="1"
     inkscape:pageshadow="2"
     inkscape:zoom="11.2"
     inkscape:cx="8.9285714"
     inkscape:cy="22.366071"
     inkscape:document-units="px"
     inkscape:current-layer="layer1"
     showgrid="false"
     showguides="false"
     inkscape:guide-bbox="true"
     fit-margin-top="0"
     fit-margin-left="0"
     fit-margin-right="0"
     fit-margin-bottom="0"
     inkscape:window-width="1920"
     inkscape:window-height="1011"
     inkscape:window-x="0"
     inkscape:window-y="0"
     inkscape:window-maximized="1"
     units="px"
     inkscape:pagecheckerboard="0">
    <inkscape:grid
       type="xygrid"
       id="grid3182"
       spacingx="0.26458333"
       spacingy="0.26458333"
       empspacing="4"
       originx="-82.550004"
       originy="-127.00001"
       dotted="false" />
    <sodipodi:guide
       position="-4.268358e-06,27.516666"
       orientation="1,0"
       id="guide3216"
       inkscape:locked="false" />
    <sodipodi:guide
       position="32.279157,-4.1479283e-06"
       orientation="0,1"
       id="guide3222"
       inkscape:locked="false" />
    <sodipodi:guide
       position="13.229163,0.52915746"
       orientation="0,1"
       id="guide3226"
       inkscape:locked="false" />
    <sodipodi:guide
       position="5.8208298,12.170824"
       orientation="0,1"
       id="guide864"
       inkscape:locked="false" />
    <sodipodi:guide
       position="12.699995,10.847905"
       orientation="1,0"
       id="guide868"
       inkscape:locked="false" />
    <sodipodi:guide
       position="2.1166616,12.170822"
       orientation="1,0"
       id="guide1119"
       inkscape:locked="false" />
    <sodipodi:guide
       position="10.583328,11.112488"
       orientation="1,0"
       id="guide1121"
       inkscape:locked="false" />
    <sodipodi:guide
       position="1.8520783,8.7312383"
       orientation="0,1"
       id="guide1131"
       inkscape:locked="false" />
    <sodipodi:guide
       position="3.4395782,8.2020716"
       orientation="1,0"
       id="guide1138"
       inkscape:locked="false" />
    <sodipodi:guide
       position="9.2604115,7.1437383"
       orientation="1,0"
       id="guide1140"
       inkscape:locked="false" />
    <sodipodi:guide
       position="1.8520783,10.318738"
       orientation="0,1"
       id="guide1142"
       inkscape:locked="false" />
    <sodipodi:guide
       position="1.3229116,3.1749884"
       orientation="0,1"
       id="guide1152"
       inkscape:locked="false" />
    <sodipodi:guide
       position="4.2333282,1.5874884"
       orientation="0,1"
       id="guide849"
       inkscape:locked="false" />
    <sodipodi:guide
       position="9.5249948,3.1749884"
       orientation="1,0"
       id="guide915"
       inkscape:locked="false" />
    <sodipodi:guide
       position="4.7624949,2.3812384"
       orientation="1,0"
       id="guide917"
       inkscape:locked="false" />
  </sodipodi:namedview>
  <metadata
     id="metadata2631">
    <rdf:RDF>
      <cc:Work
         rdf:about="">
        <dc:format>image/svg+xml</dc:format>
        <dc:type
           rdf:resource="http://purl.org/dc/dcmitype/StillImage" />
        <dc:title>Boston Icons</dc:title>
        <cc:license
           rdf:resource="dribbble.com/chrisdiaz" />
        <dc:creator>
          <cc:Agent>
            <dc:title>Christian Díaz</dc:title>
          </cc:Agent>
        </dc:creator>
        <dc:date>2022</dc:date>
        <dc:publisher>
          <cc:Agent>
            <dc:title>Christian Díaz</dc:title>
          </cc:Agent>
        </dc:publisher>
        <dc:identifier>christiandiaz.design [at] gmail [dot] com</dc:identifier>
        <dc:subject>
          <rdf:Bag>
            <rdf:li>GNOME icon Theme</rdf:li>
          </rdf:Bag>
        </dc:subject>
        <dc:description>dribbble.com/chrisdiaz | diazchris.deviantart.com</dc:description>
      </cc:Work>
    </rdf:RDF>
  </metadata>
  <g
     inkscape:label="Capa 1"
     inkscape:groupmode="layer"
     id="layer1"
     transform="translate(-82.550003,-157.3)">
    <g
       id="g1221">
      <rect
         rx="0.52916682"
         ry="0.52914387"
         y="166.56041"
         x="84.666664"
         height="2.9104507"
         width="8.4666672"
         id="rect846"
         style="fill:#373b43;fill-opacity:1;fill-rule:nonzero;stroke:none;stroke-width:1.5875;stroke-linecap:square;stroke-linejoin:bevel;stroke-miterlimit:4;stroke-dasharray:none;stroke-dashoffset:35;stroke-opacity:1" />
      <rect
         ry="0.26455647"
         rx="0.26458701"
         y="166.82501"
         x="84.931252"
         height="2.3812568"
         width="7.9375114"
         id="rect909"
         style="fill:#96a5af;fill-opacity:1;fill-rule:nonzero;stroke:none;stroke-width:1.5875;stroke-linecap:square;stroke-linejoin:bevel;stroke-miterlimit:4;stroke-dasharray:none;stroke-dashoffset:35;stroke-opacity:1" />
      <g
         id="g1174"
         transform="translate(-8.4666632)">
        <rect
           rx="0.52916682"
           ry="0.52914387"
           y="157.82915"
           x="93.133324"
           height="10.054174"
           width="8.4666739"
           id="rect958"
           style="fill:#373b43;fill-opacity:1;fill-rule:nonzero;stroke:none;stroke-width:1.5875;stroke-linecap:square;stroke-linejoin:bevel;stroke-miterlimit:4;stroke-dasharray:none;stroke-dashoffset:35;stroke-opacity:1" />
        <rect
           ry="0.26455647"
           rx="0.26458701"
           y="158.09373"
           x="93.397911"
           height="9.5250034"
           width="7.9375033"
           id="rect960"
           style="fill:#96a5af;fill-opacity:1;fill-rule:nonzero;stroke:none;stroke-width:1.5875;stroke-linecap:square;stroke-linejoin:bevel;stroke-miterlimit:4;stroke-dasharray:none;stroke-dashoffset:35;stroke-opacity:1" />
      </g>
      <path
         id="path911"
         style="fill:#373b43;fill-opacity:1;fill-rule:nonzero;stroke:none;stroke-width:1.5875;stroke-linecap:square;stroke-linejoin:bevel;stroke-miterlimit:4;stroke-dasharray:none;stroke-dashoffset:35;stroke-opacity:1"
         d="m 85.725003,158.62292 c -0.146125,0 -0.264583,0.11845 -0.264583,0.26458 0,0.14613 0.118458,0.26458 0.264583,0.26458 0.146125,0 0.264583,-0.11845 0.264583,-0.26458 0,-0.14613 -0.118458,-0.26458 -0.264583,-0.26458 z m 6.35,0 c -0.146126,0 -0.264583,0.11845 -0.264583,0.26458 0,0.14613 0.118457,0.26458 0.264583,0.26458 0.146125,0 0.264583,-0.11845 0.264583,-0.26458 0,-0.14613 -0.118458,-0.26458 -0.264583,-0.26458 z m -6.35,7.9375 c -0.146125,0 -0.264583,0.11845 -0.264583,0.26458 0,0.14613 0.118458,0.26458 0.264583,0.26458 0.146125,0 0.264583,-0.11845 0.264583,-0.26458 0,-0.14613 -0.118458,-0.26458 -0.264583,-0.26458 z m 6.35,0 c -0.146126,0 -0.264583,0.11845 -0.264583,0.26458 0,0.14613 0.118457,0.26458 0.264583,0.26458 0.146125,0 0.264583,-0.11845 0.264583,-0.26458 0,-0.14613 -0.118458,-0.26458 -0.264583,-0.26458 z"
         sodipodi:nodetypes="ssssssssssssssssssss" />
      <rect
         rx="3.6958852e-06"
         y="168.41251"
         x="87.3125"
         height="1.0583289"
         width="4.7624989"
         id="rect919"
         style="fill:#373b43;fill-opacity:1;fill-rule:nonzero;stroke:none;stroke-width:1.5875;stroke-linecap:square;stroke-linejoin:bevel;stroke-miterlimit:4;stroke-dasharray:none;stroke-dashoffset:35;stroke-opacity:1" />
      <path
         id="rect921"
         style="fill:#cdd5d9;fill-opacity:1;fill-rule:nonzero;stroke:none;stroke-width:1.5875;stroke-linecap:square;stroke-linejoin:bevel;stroke-miterlimit:4;stroke-dasharray:none;stroke-dashoffset:35;stroke-opacity:1"
         d="m 87.577086,168.67708 v 0.52917 h 1.058334 v -0.52917 z m 1.5875,0 v 0.52917 h 2.645834 v -0.52917 z" />
      <g
         aria-label="OS"
         id="text1391"
         style="font-size:4.23333px;line-height:1.25;font-family:'Proxima Nova';-inkscape-font-specification:'Proxima Nova';letter-spacing:0px;word-spacing:0px;fill:#ffffff;stroke-width:0.264583"
         transform="translate(-0.03555211,-0.62640045)">
        <path
           d="m 87.682485,164.94313 c 0.833966,0 1.405466,-0.62653 1.405466,-1.46049 0,-0.83397 -0.5715,-1.4605 -1.405466,-1.4605 -0.833966,0 -1.401232,0.62653 -1.401232,1.4605 0,0.83396 0.567266,1.46049 1.401232,1.46049 z m 0,-0.31326 c -0.634999,0 -1.037165,-0.49107 -1.037165,-1.14723 0,-0.6604 0.402166,-1.14724 1.037165,-1.14724 0.630767,0 1.041399,0.48684 1.041399,1.14724 0,0.65616 -0.410632,1.14723 -1.041399,1.14723 z"
           id="path4101" />
        <path
           d="m 90.548447,164.94313 c 0.761999,0 1.041399,-0.42333 1.041399,-0.82973 0,-1.0541 -1.672165,-0.69003 -1.672165,-1.32503 0,-0.2667 0.245533,-0.44873 0.579966,-0.44873 0.309033,0 0.605366,0.1016 0.817033,0.33866 l 0.211666,-0.25823 c -0.237066,-0.24977 -0.571499,-0.39793 -0.999066,-0.39793 -0.558799,0 -0.973666,0.32173 -0.973666,0.7874 0,1.00753 1.672166,0.60113 1.672166,1.32926 0,0.22013 -0.160867,0.49107 -0.664633,0.49107 -0.397933,0 -0.702733,-0.19474 -0.884766,-0.4064 l -0.211666,0.27093 c 0.232833,0.26247 0.596899,0.44873 1.083732,0.44873 z"
           id="path4103" />
      </g>
    </g>
  </g>
</svg>
