<?xml version="1.0" encoding="UTF-8" standalone="no"?>
<!-- Created with Inkscape (http://www.inkscape.org/) -->

<svg
   width="16"
   height="16"
   id="svg4159"
   version="1.1"
   inkscape:version="1.1.2 (0a00cf5339, 2022-02-04, custom)"
   viewBox="0 0 16 16"
   sodipodi:docname="document-open.svg"
   xmlns:inkscape="http://www.inkscape.org/namespaces/inkscape"
   xmlns:sodipodi="http://sodipodi.sourceforge.net/DTD/sodipodi-0.dtd"
   xmlns:xlink="http://www.w3.org/1999/xlink"
   xmlns="http://www.w3.org/2000/svg"
   xmlns:svg="http://www.w3.org/2000/svg"
   xmlns:rdf="http://www.w3.org/1999/02/22-rdf-syntax-ns#"
   xmlns:cc="http://creativecommons.org/ns#"
   xmlns:dc="http://purl.org/dc/elements/1.1/">
  <title
     id="title815">Boston Icons</title>
  <defs
     id="defs4161">
    <linearGradient
       inkscape:collect="always"
       id="linearGradient1629">
      <stop
         style="stop-color:#6fb7ff;stop-opacity:1;"
         offset="0"
         id="stop1625" />
      <stop
         style="stop-color:#2d8cff;stop-opacity:1"
         offset="1"
         id="stop1627" />
    </linearGradient>
    <inkscape:perspective
       sodipodi:type="inkscape:persp3d"
       inkscape:vp_x="0 : 8 : 1"
       inkscape:vp_y="0 : 1000 : 0"
       inkscape:vp_z="16 : 8 : 1"
       inkscape:persp3d-origin="8 : 5.3333333 : 1"
       id="perspective4709" />
    <linearGradient
       inkscape:collect="always"
       xlink:href="#linearGradient1629"
       id="linearGradient2032"
       gradientUnits="userSpaceOnUse"
       x1="8"
       y1="6"
       x2="8"
       y2="14" />
  </defs>
  <sodipodi:namedview
     id="base"
     pagecolor="#ffffff"
     bordercolor="#00fff6"
     borderopacity="1"
     inkscape:pageopacity="0"
     inkscape:pageshadow="2"
     inkscape:zoom="31.392433"
     inkscape:cx="16.75563"
     inkscape:cy="8.8715647"
     inkscape:current-layer="g2107"
     showgrid="false"
     inkscape:grid-bbox="true"
     inkscape:document-units="px"
     inkscape:window-width="1920"
     inkscape:window-height="1011"
     inkscape:window-x="0"
     inkscape:window-y="0"
     inkscape:window-maximized="1"
     showguides="false"
     inkscape:guide-bbox="true"
     inkscape:pagecheckerboard="0">
    <inkscape:grid
       type="xygrid"
       id="grid4707" />
  </sodipodi:namedview>
  <metadata
     id="metadata4164">
    <rdf:RDF>
      <cc:Work
         rdf:about="">
        <dc:format>image/svg+xml</dc:format>
        <dc:type
           rdf:resource="http://purl.org/dc/dcmitype/StillImage" />
        <dc:title>Boston Icons</dc:title>
        <cc:license
           rdf:resource="dribbble.com/chrisdiaz" />
        <dc:creator>
          <cc:Agent>
            <dc:title>Christian Díaz</dc:title>
          </cc:Agent>
        </dc:creator>
        <dc:date>2022</dc:date>
        <dc:publisher>
          <cc:Agent>
            <dc:title>Christian Díaz</dc:title>
          </cc:Agent>
        </dc:publisher>
        <dc:identifier>christiandiaz.design [at] gmail [dot] com</dc:identifier>
        <dc:subject>
          <rdf:Bag>
            <rdf:li>GNOME icon Theme</rdf:li>
          </rdf:Bag>
        </dc:subject>
        <dc:description>dribbble.com/chrisdiaz | diazchris.deviantart.com</dc:description>
      </cc:Work>
    </rdf:RDF>
  </metadata>
  <g
     id="layer1"
     inkscape:label="Layer 1"
     inkscape:groupmode="layer">
    <g
       id="g2107">
      <g
         id="g2084">
        <path
           id="rect4136"
           style="fill:#2d8cff;fill-opacity:1;fill-rule:nonzero;stroke:none;stroke-width:0.5;stroke-linecap:round;stroke-linejoin:miter;stroke-miterlimit:4;stroke-dasharray:none;stroke-dashoffset:0;stroke-opacity:1"
           d="M 2,1 A 2,2 0 0 0 1.4824219,1.0683594 2,2 0 0 0 1,1.2675781 2,2 0 0 0 0.5859375,1.5859375 2,2 0 0 0 0.26757812,2 2,2 0 0 0 0.06835937,2.4824219 2,2 0 0 0 0,3 v 13 h 2 12 2 V 5 4.0390625 A 1,1 0 0 0 16,4 1,1 0 0 0 16,3.99414 1,1 0 0 0 16,3.98437 1,1 0 0 0 16,3.97851 1,1 0 0 0 16,3.96874 1,1 0 0 0 16,3.95897 1,1 0 0 0 15.998,3.9492 a 1,1 0 0 0 0,-0.00586 1,1 0 0 0 0,-0.00977 1,1 0 0 0 0,-0.00977 1,1 0 0 0 -0.002,-0.00977 1,1 0 0 0 0,-0.00586 1,1 0 0 0 0,-0.00977 1,1 0 0 0 -0.002,-0.00977 1,1 0 0 0 0,-0.00586 1,1 0 0 0 -0.002,-0.00977 1,1 0 0 0 0,-0.00391 1,1 0 0 0 -0.0252,-0.1288556 A 1,1 0 0 0 15.923828,3.6171875 1,1 0 0 0 15.865234,3.5 1,1 0 0 0 15.792969,3.390625 1,1 0 0 0 15.707031,3.2929688 1,1 0 0 0 15.609375,3.2070312 1,1 0 0 0 15.5,3.1347656 1,1 0 0 0 15.382812,3.0761719 1,1 0 0 0 15.259766,3.0332031 1,1 0 0 0 15.130859,3.0078125 1,1 0 0 0 15,3 H 9 L 7,1 Z m 13.990234,3.1367188 a 1,1 0 0 1 -0.002,0.019531 1,1 0 0 0 0.002,-0.019531 z m -0.01953,0.1054687 a 1,1 0 0 1 -0.0059,0.019531 1,1 0 0 0 0.0059,-0.019531 z" />
        <path
           id="path2406"
           style="fill:url(#linearGradient2032);fill-opacity:1;stroke:none;stroke-width:1px;stroke-linecap:butt;stroke-linejoin:miter;stroke-opacity:1"
           d="M 2,2 A 1,1 0 0 0 1.6914062,2.0488281 1,1 0 0 0 1.4121094,2.1914062 1,1 0 0 0 1.1914062,2.4121094 1,1 0 0 0 1.0488281,2.6914062 1,1 0 0 0 1,3 V 15 H 15 V 4.5292969 A 0.5,0.5 0 0 1 14.998,4.5410159 0.5,0.5 0 0 0 15,4.5292969 0.5,0.5 0 0 0 15,4.5273438 0.5,0.5 0 0 0 15,4.5 0.5,0.5 0 0 0 14.992188,4.4140625 0.5,0.5 0 0 0 14.970703,4.328125 0.5,0.5 0 0 0 14.933594,4.25 0.5,0.5 0 0 0 14.882812,4.1777344 0.5,0.5 0 0 0 14.822266,4.1171875 0.5,0.5 0 0 0 14.75,4.0664062 0.5,0.5 0 0 0 14.671875,4.0292969 0.5,0.5 0 0 0 14.585938,4.0078125 0.5,0.5 0 0 0 14.5,4 H 8.4003906 L 8.2734375,3.8730469 6.4003906,2 Z" />
        <g
           id="g929">
          <rect
             y="5"
             x="2"
             height="11"
             width="12"
             id="rect830"
             style="fill:#96a5af;fill-opacity:1;fill-rule:nonzero;stroke:none;stroke-width:6;stroke-linecap:square;stroke-linejoin:bevel;stroke-miterlimit:4;stroke-dasharray:none;stroke-dashoffset:35;stroke-opacity:1" />
          <rect
             y="6"
             x="3"
             height="9"
             width="10"
             id="rect832"
             style="fill:#ffffff;fill-opacity:1;fill-rule:nonzero;stroke:none;stroke-width:6;stroke-linecap:square;stroke-linejoin:bevel;stroke-miterlimit:4;stroke-dasharray:none;stroke-dashoffset:35;stroke-opacity:1" />
        </g>
        <path
           sodipodi:nodetypes="ccccccc"
           inkscape:connector-curvature="0"
           id="path829"
           d="M 0,11 H 6.5 L 9,8 h 7 v 8 H 0 Z"
           style="fill:#2d8cff;fill-opacity:1;stroke:none;stroke-width:1px;stroke-linecap:butt;stroke-linejoin:miter;stroke-opacity:1" />
        <path
           sodipodi:nodetypes="ccccccc"
           inkscape:connector-curvature="0"
           id="path831"
           d="M 1,12 H 7.1 L 9.5,9 H 15 v 6 H 1 Z"
           style="fill:#6fb7ff;fill-opacity:1;stroke:none;stroke-width:1px;stroke-linecap:butt;stroke-linejoin:miter;stroke-opacity:1" />
      </g>
    </g>
  </g>
</svg>
