<?xml version="1.0" encoding="UTF-8" standalone="no"?>
<!-- Created with Inkscape (http://www.inkscape.org/) -->

<svg
   width="16"
   height="16"
   id="svg4159"
   version="1.1"
   inkscape:version="1.1 (c4e8f9ed74, 2021-05-24)"
   viewBox="0 0 16 16"
   sodipodi:docname="folder-visiting.svg"
   xmlns:inkscape="http://www.inkscape.org/namespaces/inkscape"
   xmlns:sodipodi="http://sodipodi.sourceforge.net/DTD/sodipodi-0.dtd"
   xmlns="http://www.w3.org/2000/svg"
   xmlns:svg="http://www.w3.org/2000/svg"
   xmlns:rdf="http://www.w3.org/1999/02/22-rdf-syntax-ns#"
   xmlns:cc="http://creativecommons.org/ns#"
   xmlns:dc="http://purl.org/dc/elements/1.1/">
  <title
     id="title815">Boston Icons</title>
  <defs
     id="defs4161">
    <inkscape:perspective
       sodipodi:type="inkscape:persp3d"
       inkscape:vp_x="0 : 8 : 1"
       inkscape:vp_y="0 : 1000 : 0"
       inkscape:vp_z="16 : 8 : 1"
       inkscape:persp3d-origin="8 : 5.3333333 : 1"
       id="perspective4709" />
  </defs>
  <sodipodi:namedview
     id="base"
     pagecolor="#ffffff"
     bordercolor="#00fff6"
     borderopacity="1"
     inkscape:pageopacity="0"
     inkscape:pageshadow="2"
     inkscape:zoom="31.392433"
     inkscape:cx="7.5177352"
     inkscape:cy="8.4574522"
     inkscape:current-layer="layer1"
     showgrid="false"
     inkscape:grid-bbox="true"
     inkscape:document-units="px"
     inkscape:window-width="1920"
     inkscape:window-height="1011"
     inkscape:window-x="0"
     inkscape:window-y="32"
     inkscape:window-maximized="1"
     showguides="false"
     inkscape:guide-bbox="true"
     inkscape:pagecheckerboard="0">
    <inkscape:grid
       type="xygrid"
       id="grid4707" />
    <sodipodi:guide
       position="12,8"
       orientation="0,1"
       id="guide857"
       inkscape:locked="false" />
  </sodipodi:namedview>
  <metadata
     id="metadata4164">
    <rdf:RDF>
      <cc:Work
         rdf:about="">
        <dc:format>image/svg+xml</dc:format>
        <dc:type
           rdf:resource="http://purl.org/dc/dcmitype/StillImage" />
        <dc:title>Boston Icons</dc:title>
        <cc:license
           rdf:resource="dribbble.com/chrisdiaz" />
        <dc:creator>
          <cc:Agent>
            <dc:title>Christian Díaz</dc:title>
          </cc:Agent>
        </dc:creator>
        <dc:date>2021</dc:date>
        <dc:publisher>
          <cc:Agent>
            <dc:title>Christian Díaz</dc:title>
          </cc:Agent>
        </dc:publisher>
        <dc:identifier>christiandiaz.design [at] gmail [dot] com</dc:identifier>
        <dc:subject>
          <rdf:Bag>
            <rdf:li>GNOME icon Theme</rdf:li>
          </rdf:Bag>
        </dc:subject>
        <dc:description>dribbble.com/chrisdiaz | diazchris.deviantart.com</dc:description>
      </cc:Work>
    </rdf:RDF>
  </metadata>
  <g
     id="layer1"
     inkscape:label="Layer 1"
     inkscape:groupmode="layer">
    <path
       id="rect862"
       style="fill:#2d8cff;stroke-width:0.5;stroke-linejoin:round"
       d="M 0 1 L 0 2 L 1 2 L 1 1 L 0 1 z M 1 2 L 1 3 L 2 3 L 2 2 L 1 2 z M 2 2 L 3 2 L 3 1 L 2 1 L 2 2 z M 3 2 L 3 3 L 4 3 L 4 2 L 3 2 z M 4 2 L 5 2 L 5 1 L 4 1 L 4 2 z M 5 2 L 5 3 L 6 3 L 6 2 L 5 2 z M 6 2 L 7 2 L 7 1 L 6 1 L 6 2 z M 7 2 L 7 3 L 8 3 L 8 2 L 7 2 z M 8 3 L 8 4 L 9 4 L 9 3 L 8 3 z M 9 4 L 9 5 L 10 5 L 10 4 L 9 4 z M 10 4 L 11 4 L 11 3 L 10 3 L 10 4 z M 11 4 L 11 5 L 12 5 L 12 4 L 11 4 z M 12 4 L 13 4 L 13 3 L 12 3 L 12 4 z M 13 4 L 13 5 L 14 5 L 14 4 L 13 4 z M 14 4 L 15 4 L 15 3 L 14 3 L 14 4 z M 15 4 L 15 5 L 16 5 L 16 4 L 15 4 z M 15 5 L 14 5 L 14 6 L 15 6 L 15 5 z M 15 6 L 15 7 L 16 7 L 16 6 L 15 6 z M 15 7 L 14 7 L 14 8 L 15 8 L 15 7 z M 14 7 L 14 6 L 13 6 L 13 7 L 14 7 z M 13 7 L 12 7 L 12 8 L 13 8 L 13 7 z M 12 7 L 12 6 L 11 6 L 11 7 L 12 7 z M 11 7 L 10 7 L 10 8 L 11 8 L 11 7 z M 10 7 L 10 6 L 9 6 L 9 7 L 10 7 z M 9 7 L 8 7 L 8 8 L 9 8 L 9 7 z M 8 8 L 7 8 L 7 9 L 8 9 L 8 8 z M 7 9 L 6 9 L 6 10 L 7 10 L 7 9 z M 6 9 L 6 8 L 5 8 L 5 9 L 6 9 z M 5 9 L 4 9 L 4 10 L 5 10 L 5 9 z M 4 9 L 4 8 L 3 8 L 3 9 L 4 9 z M 3 9 L 2 9 L 2 10 L 3 10 L 3 9 z M 2 9 L 2 8 L 1 8 L 1 9 L 2 9 z M 1 9 L 0 9 L 0 10 L 1 10 L 1 9 z M 1 8 L 1 7 L 0 7 L 0 8 L 1 8 z M 1 7 L 2 7 L 2 6 L 1 6 L 1 7 z M 1 6 L 1 5 L 0 5 L 0 6 L 1 6 z M 1 5 L 2 5 L 2 4 L 1 4 L 1 5 z M 1 4 L 1 3 L 0 3 L 0 4 L 1 4 z M 2 4 L 3 4 L 3 3 L 2 3 L 2 4 z M 3 4 L 3 5 L 4 5 L 4 4 L 3 4 z M 4 4 L 5 4 L 5 3 L 4 3 L 4 4 z M 5 4 L 5 5 L 6 5 L 6 4 L 5 4 z M 6 4 L 7 4 L 7 3 L 6 3 L 6 4 z M 7 4 L 7 5 L 8 5 L 8 4 L 7 4 z M 8 5 L 8 6 L 9 6 L 9 5 L 8 5 z M 8 6 L 7 6 L 7 7 L 8 7 L 8 6 z M 7 7 L 6 7 L 6 8 L 7 8 L 7 7 z M 6 7 L 6 6 L 5 6 L 5 7 L 6 7 z M 5 7 L 4 7 L 4 8 L 5 8 L 5 7 z M 4 7 L 4 6 L 3 6 L 3 7 L 4 7 z M 3 7 L 2 7 L 2 8 L 3 8 L 3 7 z M 3 6 L 3 5 L 2 5 L 2 6 L 3 6 z M 4 6 L 5 6 L 5 5 L 4 5 L 4 6 z M 6 6 L 7 6 L 7 5 L 6 5 L 6 6 z M 10 6 L 11 6 L 11 5 L 10 5 L 10 6 z M 12 6 L 13 6 L 13 5 L 12 5 L 12 6 z M 9 9 L 9 10 L 10 10 L 10 9 L 9 9 z M 10 10 L 10 11 L 11 11 L 11 10 L 10 10 z M 11 10 L 12 10 L 12 9 L 11 9 L 11 10 z M 12 10 L 12 11 L 13 11 L 13 10 L 12 10 z M 13 10 L 14 10 L 14 9 L 13 9 L 13 10 z M 14 10 L 14 11 L 15 11 L 15 10 L 14 10 z M 15 10 L 16 10 L 16 9 L 15 9 L 15 10 z M 15 11 L 15 12 L 16 12 L 16 11 L 15 11 z M 15 12 L 14 12 L 14 13 L 15 13 L 15 12 z M 15 13 L 15 14 L 16 14 L 16 13 L 15 13 z M 15 14 L 14 14 L 14 15 L 15 15 L 15 14 z M 15 15 L 15 16 L 16 16 L 16 15 L 15 15 z M 14 15 L 13 15 L 13 16 L 14 16 L 14 15 z M 13 15 L 13 14 L 12 14 L 12 15 L 13 15 z M 12 15 L 11 15 L 11 16 L 12 16 L 12 15 z M 11 15 L 11 14 L 10 14 L 10 15 L 11 15 z M 10 15 L 9 15 L 9 16 L 10 16 L 10 15 z M 9 15 L 9 14 L 8 14 L 8 15 L 9 15 z M 8 15 L 7 15 L 7 16 L 8 16 L 8 15 z M 7 15 L 7 14 L 6 14 L 6 15 L 7 15 z M 6 15 L 5 15 L 5 16 L 6 16 L 6 15 z M 5 15 L 5 14 L 4 14 L 4 15 L 5 15 z M 4 15 L 3 15 L 3 16 L 4 16 L 4 15 z M 3 15 L 3 14 L 2 14 L 2 15 L 3 15 z M 2 15 L 1 15 L 1 16 L 2 16 L 2 15 z M 1 15 L 1 14 L 0 14 L 0 15 L 1 15 z M 1 14 L 2 14 L 2 13 L 1 13 L 1 14 z M 1 13 L 1 12 L 0 12 L 0 13 L 1 13 z M 1 12 L 2 12 L 2 11 L 1 11 L 1 12 z M 2 12 L 2 13 L 3 13 L 3 12 L 2 12 z M 3 12 L 4 12 L 4 11 L 3 11 L 3 12 z M 4 12 L 4 13 L 5 13 L 5 12 L 4 12 z M 5 12 L 6 12 L 6 11 L 5 11 L 5 12 z M 6 12 L 6 13 L 7 13 L 7 12 L 6 12 z M 7 12 L 8 12 L 8 11 L 7 11 L 7 12 z M 8 11 L 9 11 L 9 10 L 8 10 L 8 11 z M 9 11 L 9 12 L 10 12 L 10 11 L 9 11 z M 10 12 L 10 13 L 11 13 L 11 12 L 10 12 z M 11 12 L 12 12 L 12 11 L 11 11 L 11 12 z M 12 12 L 12 13 L 13 13 L 13 12 L 12 12 z M 13 12 L 14 12 L 14 11 L 13 11 L 13 12 z M 13 13 L 13 14 L 14 14 L 14 13 L 13 13 z M 12 13 L 11 13 L 11 14 L 12 14 L 12 13 z M 10 13 L 9 13 L 9 14 L 10 14 L 10 13 z M 9 13 L 9 12 L 8 12 L 8 13 L 9 13 z M 8 13 L 7 13 L 7 14 L 8 14 L 8 13 z M 6 13 L 5 13 L 5 14 L 6 14 L 6 13 z M 4 13 L 3 13 L 3 14 L 4 14 L 4 13 z " />
  </g>
</svg>
