<?xml version="1.0" encoding="UTF-8" standalone="no"?>
<!-- Created with Inkscape (http://www.inkscape.org/) -->

<svg
   xmlns:dc="http://purl.org/dc/elements/1.1/"
   xmlns:cc="http://creativecommons.org/ns#"
   xmlns:rdf="http://www.w3.org/1999/02/22-rdf-syntax-ns#"
   xmlns:svg="http://www.w3.org/2000/svg"
   xmlns="http://www.w3.org/2000/svg"
   xmlns:sodipodi="http://sodipodi.sourceforge.net/DTD/sodipodi-0.dtd"
   xmlns:inkscape="http://www.inkscape.org/namespaces/inkscape"
   width="16"
   height="16"
   id="svg4159"
   version="1.1"
   inkscape:version="0.92.4 5da689c313, 2019-01-14"
   viewBox="0 0 16 16"
   sodipodi:docname="blender-symbolic.svg">
  <title
     id="title815">Boston Icons</title>
  <defs
     id="defs4161">
    <inkscape:perspective
       sodipodi:type="inkscape:persp3d"
       inkscape:vp_x="0 : 8 : 1"
       inkscape:vp_y="0 : 1000 : 0"
       inkscape:vp_z="16 : 8 : 1"
       inkscape:persp3d-origin="8 : 5.3333333 : 1"
       id="perspective4709" />
    <clipPath
       clipPathUnits="userSpaceOnUse"
       id="clipPath5603">
      <path
         style="fill:#00ffff;fill-opacity:1;stroke:none;stroke-width:0.26458335px;stroke-linecap:butt;stroke-linejoin:miter;stroke-opacity:1"
         d="m 61.912499,165.76667 -6.879168,6.87917 6.879168,6.87916 6.879167,-6.87916 z"
         id="path5605"
         inkscape:connector-curvature="0" />
    </clipPath>
  </defs>
  <sodipodi:namedview
     id="base"
     pagecolor="#ffffff"
     bordercolor="#00fff6"
     borderopacity="1"
     inkscape:pageopacity="0"
     inkscape:pageshadow="2"
     inkscape:zoom="22.197802"
     inkscape:cx="9.6755912"
     inkscape:cy="3.3634777"
     inkscape:current-layer="layer1"
     showgrid="false"
     inkscape:grid-bbox="true"
     inkscape:document-units="px"
     inkscape:window-width="1920"
     inkscape:window-height="1016"
     inkscape:window-x="0"
     inkscape:window-y="27"
     inkscape:window-maximized="1"
     showguides="false"
     inkscape:guide-bbox="true">
    <inkscape:grid
       type="xygrid"
       id="grid4707" />
    <sodipodi:guide
       position="8,9"
       orientation="1,0"
       id="guide3096"
       inkscape:locked="false" />
    <sodipodi:guide
       position="12,8"
       orientation="0,1"
       id="guide3098"
       inkscape:locked="false" />
  </sodipodi:namedview>
  <metadata
     id="metadata4164">
    <rdf:RDF>
      <cc:Work
         rdf:about="">
        <dc:format>image/svg+xml</dc:format>
        <dc:type
           rdf:resource="http://purl.org/dc/dcmitype/StillImage" />
        <dc:title>Boston Icons</dc:title>
        <cc:license
           rdf:resource="dribbble.com/chrisdiaz" />
        <dc:creator>
          <cc:Agent>
            <dc:title>Christian Díaz</dc:title>
          </cc:Agent>
        </dc:creator>
        <dc:description>diazchris.deviantart.com | dribbble.com/chrisdiaz</dc:description>
        <dc:date>2019</dc:date>
        <dc:publisher>
          <cc:Agent>
            <dc:title>Christian Díaz</dc:title>
          </cc:Agent>
        </dc:publisher>
        <dc:identifier>christiandiaz.design [at] gmail [dot] com</dc:identifier>
        <dc:subject>
          <rdf:Bag>
            <rdf:li>GNOME icon Theme</rdf:li>
          </rdf:Bag>
        </dc:subject>
      </cc:Work>
    </rdf:RDF>
  </metadata>
  <g
     id="layer1"
     inkscape:label="Layer 1"
     inkscape:groupmode="layer">
    <path
       style="fill:#252627;stroke-width:0.80104023"
       d="M 9.404877,15.943185 C 8.8542519,15.887827 8.8487284,15.885739 8.4719829,15.771815 8.263534,15.708554 8.0142646,15.633752 7.9180574,15.605016 7.7930157,15.567917 7.5934772,15.473302 7.2183623,15.27351 L 6.6935956,14.994082 6.2419765,14.623967 5.790359,14.253979 5.4177187,13.800891 5.0450861,13.34786 4.7737858,12.84417 4.5024867,12.340644 4.3285238,11.776924 4.1545914,11.213309 4.1080306,10.766256 c -0.025726,-0.24581 -0.0469,-0.464348 -0.04726,-0.485512 -3.691e-4,-0.02709 -0.3990729,0.358881 -1.2591802,1.216785 -0.9440178,0.941696 -1.285456,1.270527 -1.3664496,1.315695 -0.5532575,0.309307 -1.26176658,0 -1.4072545,-0.620179 -0.0371808,-0.157729 -0.0371808,-0.285791 0,-0.443345 0.06793001,-0.28822 -0.0805106,-0.128654 2.8546013,-3.0678938 L 5.5851869,5.9753971 H 3.9812405 c -1.357799,0 -1.6209916,0 -1.71506,-0.030236 C 1.6487992,5.784387 1.3533622,5.1219343 1.6434855,4.5490285 1.7044913,4.4284556 1.9119982,4.221023 2.0324696,4.1600275 2.2649822,4.0423494 1.9865775,4.0496642 6.0405089,4.0496642 H 9.7436965 L 8.5964897,2.8980944 C 7.4987158,1.7961939 7.4466141,1.7406634 7.387669,1.6096939 7.3030425,1.4219855 7.2741319,1.2241824 7.3047751,1.0430442 7.4026242,0.46475288 7.9687242,0.10765236 8.5317275,0.26891581 8.7759522,0.33857528 8.67851,0.24774899 11.56165,3.1236449 14.123052,5.67914 14.313586,5.8738616 14.644069,6.2737475 l 0.352262,0.426423 0.274349,0.516237 c 0.259543,0.4885591 0.280173,0.5357391 0.383696,0.8759436 0.06014,0.1976978 0.135809,0.4426579 0.168032,0.5442283 0.04965,0.1562279 0.06778,0.276417 0.118177,0.7774192 l 0.05942,0.5927704 -0.05443,0.573382 -0.05454,0.573385 -0.17294,0.577396 -0.172975,0.577361 -0.276846,0.5167 -0.276835,0.516656 -0.371884,0.452985 -0.371905,0.45315 -0.451065,0.370321 -0.451114,0.370316 -0.527155,0.280962 -0.527183,0.280952 -0.553951,0.167113 -0.553903,0.167138 -0.597444,0.05931 c -0.328586,0.03209 -0.6040968,0.05746 -0.6122253,0.05606 -0.00932,0 -0.2640675,-0.02698 -0.5687311,-0.05942 z m 1.088411,-1.939396 c 0.301348,-0.03209 0.381114,-0.04873 0.699701,-0.147112 0.313305,-0.0964 0.404584,-0.134773 0.70941,-0.297048 0.308852,-0.164392 0.386408,-0.216143 0.661755,-0.442973 0.269032,-0.221304 0.345834,-0.29821 0.558894,-0.558788 0.219097,-0.267951 0.268719,-0.34332 0.439668,-0.667848 0.172173,-0.32676 0.20412,-0.404094 0.29963,-0.725436 0.09767,-0.328052 0.110479,-0.393815 0.146796,-0.75301 l 0.04,-0.393548 -0.04,-0.3937577 C 13.97181,9.2569334 13.961811,9.2058351 13.855357,8.854722 13.752787,8.5169139 13.722074,8.4425913 13.55289,8.1260989 13.387718,7.8171432 13.333388,7.7358895 13.113221,7.4687754 12.898009,7.2075109 12.818207,7.1280015 12.557014,6.9139757 12.292226,6.696891 12.206007,6.6396864 11.902215,6.4772248 11.578604,6.3043441 11.522505,6.2816548 11.153948,6.1728508 10.780682,6.0627212 10.73206,6.0531508 10.384217,6.0217742 10.031057,5.9895612 9.9950177,5.9895612 9.6456385,6.0218326 9.304074,6.0539277 9.2504861,6.0643973 8.8799295,6.1728973 8.5119714,6.2811663 8.4547856,6.3042977 8.131677,6.4761668 7.8236859,6.6402679 7.7449181,6.6926346 7.4733249,6.9164298 7.2087476,7.1344212 7.1294772,7.2137329 6.9165331,7.4732298 6.700519,7.7366338 6.6436303,7.822074 6.4788707,8.1302277 6.3082078,8.4495335 6.2783873,8.5213911 6.1770821,8.8577339 6.0728837,9.2037756 6.0618009,9.2595505 6.0249802,9.6232912 l -0.039725,0.3921998 0.039053,0.39492 c 0.036973,0.373592 0.045354,0.415491 0.1559163,0.777246 0.1051292,0.343947 0.1358196,0.417664 0.3053121,0.73339 0.1638813,0.305328 0.2206773,0.390164 0.435884,0.650881 0.2112338,0.255822 0.2923099,0.336449 0.5539262,0.550566 0.2661517,0.217678 0.3525005,0.27522 0.6563131,0.437403 0.305502,0.163204 0.3954268,0.200768 0.7093953,0.29764 0.3147822,0.09734 0.3994666,0.115125 0.6802452,0.144726 0.4228763,0.04501 0.5660556,0.0457 0.9717926,0 z M 9.7061107,12.444332 C 9.4597789,12.417236 9.1134233,12.304767 8.8675325,12.173657 7.993076,11.707824 7.4826258,10.749253 7.5876501,9.7701586 7.7518032,8.2398219 9.2460203,7.2415737 10.716815,7.6797547 c 1.474073,0.4391224 2.183996,2.1427468 1.454967,3.4916313 -0.482756,0.893144 -1.442232,1.388472 -2.4656713,1.272886 z"
       id="path4283"
       inkscape:connector-curvature="0" />
  </g>
</svg>
