<?xml version="1.0" encoding="UTF-8" standalone="no"?>
<!-- Created with Inkscape (http://www.inkscape.org/) -->

<svg
   xmlns:dc="http://purl.org/dc/elements/1.1/"
   xmlns:cc="http://creativecommons.org/ns#"
   xmlns:rdf="http://www.w3.org/1999/02/22-rdf-syntax-ns#"
   xmlns:svg="http://www.w3.org/2000/svg"
   xmlns="http://www.w3.org/2000/svg"
   xmlns:sodipodi="http://sodipodi.sourceforge.net/DTD/sodipodi-0.dtd"
   xmlns:inkscape="http://www.inkscape.org/namespaces/inkscape"
   width="16"
   height="16"
   id="svg4159"
   version="1.1"
   inkscape:version="0.92.4 5da689c313, 2019-01-14"
   viewBox="0 0 16 16"
   sodipodi:docname="brave-symbolic.svg">
  <title
     id="title4518">Boston Icons</title>
  <defs
     id="defs4161">
    <inkscape:perspective
       sodipodi:type="inkscape:persp3d"
       inkscape:vp_x="0 : 8 : 1"
       inkscape:vp_y="0 : 1000 : 0"
       inkscape:vp_z="16 : 8 : 1"
       inkscape:persp3d-origin="8 : 5.3333333 : 1"
       id="perspective4709" />
  </defs>
  <sodipodi:namedview
     id="base"
     pagecolor="#ffffff"
     bordercolor="#00fff6"
     borderopacity="1"
     inkscape:pageopacity="0"
     inkscape:pageshadow="2"
     inkscape:zoom="31.392433"
     inkscape:cx="-1.3480742"
     inkscape:cy="3.4338315"
     inkscape:current-layer="layer1"
     showgrid="false"
     inkscape:grid-bbox="true"
     inkscape:document-units="px"
     inkscape:window-width="1920"
     inkscape:window-height="1016"
     inkscape:window-x="0"
     inkscape:window-y="27"
     inkscape:window-maximized="1"
     showguides="true"
     inkscape:guide-bbox="true">
    <inkscape:grid
       type="xygrid"
       id="grid4707" />
  </sodipodi:namedview>
  <metadata
     id="metadata4164">
    <rdf:RDF>
      <cc:Work
         rdf:about="">
        <dc:format>image/svg+xml</dc:format>
        <dc:type
           rdf:resource="http://purl.org/dc/dcmitype/StillImage" />
        <dc:title>Boston Icons</dc:title>
        <cc:license
           rdf:resource="dribbble.com/chrisdiaz" />
        <dc:creator>
          <cc:Agent>
            <dc:title>Christian Díaz</dc:title>
          </cc:Agent>
        </dc:creator>
        <dc:description>diazchris.deviantart.com | dribbble.com/chrisdiaz</dc:description>
        <dc:date>2019</dc:date>
        <dc:publisher>
          <cc:Agent>
            <dc:title>Christian Díaz</dc:title>
          </cc:Agent>
        </dc:publisher>
        <dc:subject>
          <rdf:Bag>
            <rdf:li>GNOME icon Theme</rdf:li>
          </rdf:Bag>
        </dc:subject>
        <dc:identifier>christiandiaz.design [at] gmail [dot] com</dc:identifier>
      </cc:Work>
    </rdf:RDF>
  </metadata>
  <g
     id="layer1"
     inkscape:label="Layer 1"
     inkscape:groupmode="layer">
    <path
       inkscape:connector-curvature="0"
       d="m 14.369271,4.0612647 0.412443,1.182906 c 0.02149,0.06163 0.0241,0.128293 0.0075,0.191421 -0.0029,0.01116 -0.0029,0.01116 -0.01689,0.0642 -0.01909,0.07259 -0.01909,0.07259 -0.04772,0.181497 -0.0514,0.19548 -0.108667,0.413353 -0.170342,0.648049 -0.176216,0.6705583 -0.352432,1.3415843 -0.516897,1.9685253 -0.405991,1.547656 -0.672188,2.566639 -0.736263,2.820569 -0.348853,1.382308 -0.625612,1.86217 -1.520255,2.494135 -0.783786,0.553658 -2.4193059,1.664624 -2.7337619,1.861909 -0.03005,0.01885 -0.06329,0.04082 -0.107313,0.07075 -0.01712,0.01164 -0.1001901,0.06859 -0.124019,0.08476 -0.152865,0.103781 -0.2619251,0.170287 -0.379457,0.225159 -0.149046,0.06959 -0.291661,0.10835 -0.436295,0.10835 -0.1446341,0 -0.2872481,-0.03876 -0.4362941,-0.10835 C 7.446174,15.800275 7.337114,15.733767 7.184249,15.629986 7.160419,15.613806 7.0773461,15.556866 7.06023,15.545226 7.01621,15.515296 6.98297,15.493326 6.952917,15.474476 6.638462,15.277191 5.002942,14.166225 4.219154,13.612567 3.324512,12.980602 3.0477541,12.50074 2.698901,11.118436 2.634811,10.864509 2.368614,9.84553 1.965605,8.309224 1.798175,7.670974 1.621958,6.999934 1.445741,6.3293597 1.384061,6.0946577 1.326795,5.8767797 1.275398,5.6812937 c -0.02864,-0.108909 -0.02864,-0.108909 -0.04772,-0.181502 -0.01395,-0.05304 -0.01395,-0.05304 -0.01688,-0.06421 -0.0166,-0.06313 -0.01399,-0.129791 0.0075,-0.191419 l 0.412443,-1.182906 -0.309552,-0.76271 c -0.04791,-0.118046 -0.0231,-0.25324 0.06358,-0.346463 0.03819,-0.0409 0.05809,-0.06212 0.08066,-0.08613 0.06437,-0.06845 0.137345,-0.145543 0.217552,-0.229634 0.22912,-0.240217 0.470458,-0.488609 0.713008,-0.732084 0.232285,-0.233172 0.54471,-0.358726 0.909962,-0.401687 0.285869,-0.03362 0.583676,-0.01506 0.872622,0.0357 0.01597,0.0028 0.03142,0.0056 0.04632,0.0084 L 5.424537,0.18044567 c 0.06197,-0.07057 0.151213,-0.111009 0.244992,-0.111009 h 4.660992 c 0.09378,0 0.183026,0.04044 0.244992,0.111009 l 1.199643,1.36620303 c 0.0149,-0.0028 0.03035,-0.0056 0.04632,-0.0084 0.288947,-0.05077 0.586754,-0.06932 0.872623,-0.0357 0.365252,0.04296 0.677677,0.168515 0.909962,0.401687 0.24255,0.243475 0.483887,0.491867 0.713008,0.732084 0.08021,0.08409 0.153186,0.161184 0.217552,0.229634 0.02257,0.02401 0.04247,0.04523 0.05952,0.06347 0.107816,0.115879 0.132624,0.251073 0.08471,0.369119 z"
       id="use5-3"
       style="opacity:0.3;fill:#252627;stroke-width:0.16282222"
       sodipodi:nodetypes="ccccccccsccccsccccsccccccccsccccccccsscccccccccc" />
    <path
       inkscape:connector-curvature="0"
       d="m 14.369271,4.0612646 0.412443,1.182906 c 0.02149,0.06163 0.0241,0.128293 0.0075,0.191421 -0.0029,0.01116 -0.0029,0.01116 -0.01689,0.0642 -0.01909,0.07259 -0.01909,0.07259 -0.04772,0.181497 -0.0514,0.19548 -0.108667,0.413353 -0.170342,0.648049 -0.176216,0.670558 -0.352432,1.341584 -0.516897,1.968525 -0.405991,1.547656 -0.672188,2.5666394 -0.736263,2.8205694 -0.348853,1.382308 -0.625612,1.86217 -1.520255,2.494135 -0.783786,0.553658 -2.4193059,1.664624 -2.7337619,1.861909 -0.03005,0.01885 -0.06329,0.04082 -0.107313,0.07075 -0.01712,0.01164 -0.10019,0.06859 -0.124019,0.08476 -0.152865,0.103781 -0.261925,0.170287 -0.379457,0.225159 -0.149046,0.06959 -0.291661,0.10835 -0.436295,0.10835 -0.144634,0 -0.287248,-0.03876 -0.436294,-0.10835 -0.117533,-0.05487 -0.226593,-0.121378 -0.379458,-0.225159 -0.02383,-0.01618 -0.106903,-0.07312 -0.124019,-0.08476 -0.04402,-0.02993 -0.07726,-0.0519 -0.107313,-0.07075 -0.314455,-0.197285 -1.949975,-1.308251 -2.733763,-1.861909 -0.894642,-0.631965 -1.1714,-1.111827 -1.520253,-2.494131 -0.06409,-0.253927 -0.330287,-1.2729064 -0.733296,-2.8092124 -0.16743,-0.63825 -0.343647,-1.30929 -0.519864,-1.979864 -0.06168,-0.234702 -0.118946,-0.45258 -0.170343,-0.648066 -0.02864,-0.108909 -0.02864,-0.108909 -0.04772,-0.181502 -0.01395,-0.05304 -0.01395,-0.05304 -0.01688,-0.06421 -0.0166,-0.06313 -0.01399,-0.129791 0.0075,-0.191419 l 0.412443,-1.182906 -0.309552,-0.76271 c -0.04791,-0.118046 -0.0231,-0.25324 0.06358,-0.346463 0.03819,-0.0409 0.05809,-0.06212 0.08066,-0.08613 0.06437,-0.06845 0.137345,-0.145543 0.217552,-0.229634 0.22912,-0.240217 0.470458,-0.488609 0.713008,-0.732084 0.232285,-0.233172 0.54471,-0.358726 0.909962,-0.401687 0.285869,-0.03362 0.583676,-0.01506 0.872622,0.0357 0.01597,0.0028 0.03142,0.0056 0.04632,0.0084 l 1.199644,-1.36620296 c 0.06197,-0.07057 0.151213,-0.111009 0.244992,-0.111009 h 4.6609919 c 0.09378,0 0.183026,0.04044 0.244992,0.111009 l 1.199643,1.36620296 c 0.0149,-0.0028 0.03035,-0.0056 0.04632,-0.0084 0.288947,-0.05077 0.586754,-0.06932 0.872623,-0.0357 0.365252,0.04296 0.677677,0.168515 0.909962,0.401687 0.24255,0.243475 0.483887,0.491867 0.713008,0.732084 0.08021,0.08409 0.153186,0.161184 0.217552,0.229634 0.02257,0.02401 0.04247,0.04523 0.05952,0.06347 0.107816,0.115879 0.132624,0.251073 0.08471,0.369119 z m -0.656944,0.09921 c -0.02623,-0.07524 -0.02418,-0.157489 0.0058,-0.231315 l 0.277041,-0.682604 c -0.04641,-0.04912 -0.09653,-0.101929 -0.149922,-0.157905 -0.226055,-0.237002 -0.464168,-0.482075 -0.703092,-0.721911 -0.115058,-0.115497 -0.2929,-0.186967 -0.524138,-0.214165 -0.214276,-0.0252 -0.452139,-0.01038 -0.683878,0.03034 -0.05299,0.0093 -0.1011,0.01923 -0.143152,0.02904 -0.02395,0.0056 -0.03965,0.0096 -0.04593,0.01138 -0.120593,0.03363 -0.249745,-0.0048 -0.332453,-0.09904 L 10.18298,0.72396064 H 5.8170231 L 4.5874101,2.1242946 c -0.08271,0.09419 -0.21186,0.132667 -0.332453,0.09904 -0.0063,-0.0018 -0.02198,-0.0058 -0.04593,-0.01138 -0.04205,-0.0098 -0.09016,-0.01973 -0.143152,-0.02904 -0.231739,-0.04071 -0.469601,-0.05554 -0.683877,-0.03033 -0.231239,0.0272 -0.40908,0.09867 -0.524138,0.214164 -0.238924,0.239836 -0.477038,0.484909 -0.703092,0.721911 -0.05339,0.05598 -0.103508,0.108782 -0.149923,0.157906 l 0.277041,0.682604 c 0.02996,0.07382 0.03202,0.156076 0.0058,0.231315 l -0.420184,1.205107 c 0.0114,0.04336 0.01556,0.05918 0.03915,0.1489 0.0514,0.195511 0.10868,0.413415 0.170364,0.648144 0.176238,0.670658 0.352478,1.341785 0.51697,1.968836 0.407018,1.551588 0.672918,2.5694184 0.737786,2.8264394 0.313853,1.243622 0.513656,1.590053 1.263394,2.119659 0.774882,0.547368 2.401759,1.652463 2.704061,1.842123 0.03804,0.02387 0.07734,0.04984 0.127409,0.08388 0.01857,0.01262 0.101396,0.06941 0.123654,0.08452 0.126183,0.08566 0.210777,0.137252 0.28901,0.173777 0.06966,0.03252 0.123562,0.04717 0.160715,0.04717 0.03715,0 0.09105,-0.01465 0.160716,-0.04717 0.07823,-0.03653 0.162826,-0.08811 0.28901,-0.173777 0.02226,-0.01511 0.105089,-0.07189 0.123654,-0.08452 0.05007,-0.03404 0.08937,-0.06002 0.127409,-0.08388 0.302302,-0.18966 1.9291789,-1.294755 2.7040609,-1.842123 0.749738,-0.529606 0.949541,-0.876037 1.263391,-2.119648 0.06486,-0.257025 0.330751,-1.2748524 0.734812,-2.8151494 0.167472,-0.638406 0.343711,-1.30952 0.519949,-1.980161 0.06168,-0.234724 0.11896,-0.452623 0.170363,-0.648129 0.02359,-0.08971 0.02775,-0.105534 0.03915,-0.148892 z m -2.426978,-1.293922 c 0,0 1.706959,2.071334 1.706959,2.51403 0,0.442697 -0.21473,0.559537 -0.430624,0.789674 -0.215895,0.230137 -1.158807,1.23523 -1.279896,1.364286 -0.121088,0.129089 -0.37317,0.324785 -0.224893,0.677026 0.148278,0.35224 0.367021,0.800461 0.123776,1.255082 -0.243278,0.454621 -0.660016,0.7580594 -0.927052,0.7078924 -0.2670359,-0.0502 -0.8941659,-0.3791754 -1.1247879,-0.5294494 -0.230622,-0.150273 -0.961556,-0.755395 -0.961556,-0.986929 0,-0.231502 0.755566,-0.647199 0.895137,-0.741652 0.139635,-0.09442 0.776314,-0.459982 0.789358,-0.603464 0.01301,-0.143515 0.0081,-0.185592 -0.179837,-0.540139 -0.187896,-0.35458 -0.526271,-0.827722 -0.469951,-1.142532 0.05632,-0.314778 0.602045,-0.47847 0.9914969,-0.626111 0.389387,-0.147609 1.139192,-0.426419 1.232832,-0.469762 0.09371,-0.04338 0.06949,-0.08467 -0.214276,-0.111674 -0.283705,-0.027 -1.088892,-0.134287 -1.4518989,-0.03272 -0.363007,0.101569 -0.983178,0.256098 -1.033413,0.338042 -0.05023,0.08194 -0.09455,0.08471 -0.04295,0.367381 0.05156,0.282677 0.317174,1.639067 0.342939,1.879992 0.0258,0.240924 0.07623,0.400198 -0.182556,0.459592 -0.258814,0.0594 -0.694455,0.162523 -0.844157,0.162523 -0.149702,0 -0.585376,-0.103128 -0.844158,-0.162523 -0.258814,-0.05939 -0.208385,-0.218668 -0.182588,-0.459592 0.0258,-0.240925 0.291377,-1.597315 0.342972,-1.879992 0.05156,-0.282676 0.0072,-0.285438 -0.04295,-0.367381 -0.05023,-0.08194 -0.670438,-0.236473 -1.033445,-0.338042 -0.363007,-0.101568 -1.168161,0.0057 -1.451899,0.03272 -0.283738,0.027 -0.307949,0.0683 -0.214276,0.111674 0.09367,0.04334 0.843477,0.322153 1.232864,0.469762 0.38942,0.147641 0.935177,0.311333 0.991497,0.626111 0.05632,0.31481 -0.282087,0.787952 -0.469951,1.142532 -0.187896,0.354547 -0.192881,0.396624 -0.179837,0.540139 0.01301,0.143482 0.649723,0.509044 0.789327,0.603464 0.139603,0.09445 0.895136,0.51015 0.895136,0.741652 0,0.231534 -0.730901,0.836656 -0.961523,0.986929 -0.230622,0.150274 -0.857752,0.4792504 -1.124788,0.5294494 -0.267036,0.05017 -0.683774,-0.2532714 -0.927052,-0.7078924 -0.243246,-0.454621 -0.0245,-0.902842 0.123743,-1.255082 0.148277,-0.352241 -0.103772,-0.547937 -0.224893,-0.677026 -0.121056,-0.129056 -1.064001,-1.134149 -1.279896,-1.364286 -0.215894,-0.230137 -0.430591,-0.346977 -0.430591,-0.789674 0,-0.442696 1.706959,-2.51403 1.706959,-2.51403 0,0 1.440376,0.276178 1.634584,0.276178 0.194208,0 0.614992,-0.162458 1.003408,-0.292424 0.388416,-0.129966 0.64736,-0.130908 0.64736,-0.130908 0,0 0.258944,9.44e-4 0.64736,0.130908 0.388416,0.129966 0.8092,0.292424 1.003408,0.292424 0.194208,0 1.6345839,-0.276178 1.6345839,-0.276178 z m -1.279643,7.9232634 c 0.105649,0.06641 0.0412,0.191602 -0.05503,0.259899 -0.09626,0.0683 -1.38972,1.073715 -1.515243,1.184836 -0.125556,0.111153 -0.310021,0.294698 -0.435447,0.294698 -0.125426,0 -0.309923,-0.183545 -0.435446,-0.294698 -0.125556,-0.111121 -1.418981,-1.116539 -1.515244,-1.184836 -0.09626,-0.0683 -0.160674,-0.193487 -0.05502,-0.259899 0.105681,-0.06638 0.436256,-0.233939 0.892418,-0.4709 0.456097,-0.236928 1.024577,-0.4383754 1.113297,-0.4383754 0.08872,0 0.657168,0.2014474 1.11333,0.4383754 0.45613,0.236961 0.786704,0.40452 0.892385,0.4709 z"
       id="use5"
       style="fill:#252627;stroke-width:0.16282222" />
  </g>
</svg>
