<?xml version="1.0" encoding="UTF-8" standalone="no"?>
<!-- Created with Inkscape (http://www.inkscape.org/) -->

<svg
   width="16"
   height="16"
   id="svg4159"
   version="1.1"
   inkscape:version="1.1.2 (0a00cf5339, 2022-02-04, custom)"
   viewBox="0 0 16 16"
   sodipodi:docname="brave-symbolic.svg"
   xmlns:inkscape="http://www.inkscape.org/namespaces/inkscape"
   xmlns:sodipodi="http://sodipodi.sourceforge.net/DTD/sodipodi-0.dtd"
   xmlns="http://www.w3.org/2000/svg"
   xmlns:svg="http://www.w3.org/2000/svg"
   xmlns:rdf="http://www.w3.org/1999/02/22-rdf-syntax-ns#"
   xmlns:cc="http://creativecommons.org/ns#"
   xmlns:dc="http://purl.org/dc/elements/1.1/">
  <title
     id="title4518">Boston Icons</title>
  <defs
     id="defs4161">
    <inkscape:perspective
       sodipodi:type="inkscape:persp3d"
       inkscape:vp_x="0 : 8 : 1"
       inkscape:vp_y="0 : 1000 : 0"
       inkscape:vp_z="16 : 8 : 1"
       inkscape:persp3d-origin="8 : 5.3333333 : 1"
       id="perspective4709" />
  </defs>
  <sodipodi:namedview
     id="base"
     pagecolor="#ffffff"
     bordercolor="#00fff6"
     borderopacity="1"
     inkscape:pageopacity="0"
     inkscape:pageshadow="2"
     inkscape:zoom="31.392434"
     inkscape:cx="6.8169292"
     inkscape:cy="7.7566461"
     inkscape:current-layer="layer1"
     showgrid="false"
     inkscape:grid-bbox="true"
     inkscape:document-units="px"
     inkscape:window-width="1613"
     inkscape:window-height="941"
     inkscape:window-x="26"
     inkscape:window-y="23"
     inkscape:window-maximized="0"
     showguides="true"
     inkscape:guide-bbox="true"
     inkscape:pagecheckerboard="0">
    <inkscape:grid
       type="xygrid"
       id="grid4707" />
  </sodipodi:namedview>
  <metadata
     id="metadata4164">
    <rdf:RDF>
      <cc:Work
         rdf:about="">
        <dc:format>image/svg+xml</dc:format>
        <dc:type
           rdf:resource="http://purl.org/dc/dcmitype/StillImage" />
        <dc:title>Boston Icons</dc:title>
        <cc:license
           rdf:resource="dribbble.com/chrisdiaz" />
        <dc:creator>
          <cc:Agent>
            <dc:title>Christian Díaz</dc:title>
          </cc:Agent>
        </dc:creator>
        <dc:date>2022</dc:date>
        <dc:publisher>
          <cc:Agent>
            <dc:title>Christian Díaz</dc:title>
          </cc:Agent>
        </dc:publisher>
        <dc:subject>
          <rdf:Bag>
            <rdf:li>GNOME icon Theme</rdf:li>
          </rdf:Bag>
        </dc:subject>
        <dc:identifier>christiandiaz.design [at] gmail [dot] com</dc:identifier>
        <dc:description>dribbble.com/chrisdiaz | diazchris.deviantart.com</dc:description>
      </cc:Work>
    </rdf:RDF>
  </metadata>
  <g
     id="layer1"
     inkscape:label="Layer 1"
     inkscape:groupmode="layer">
    <path
       id="path2-3"
       style="stroke-width:0.339383"
       d="M 5.625 0.11523438 C 5.534996 0.11525177 5.4484039 0.15119705 5.3847656 0.21484375 L 3.8613281 1.7382812 L 3.5976562 1.6054688 L 3.5957031 1.6054688 C 2.9435681 1.2793854 2.1541088 1.4083913 1.6386719 1.9238281 C 1.6269589 1.9353971 1.6153808 1.9477925 1.6054688 1.9609375 L 0.6015625 3.3046875 C 0.51538442 3.4198347 0.51002202 3.5776244 0.58984375 3.6972656 L 1.1601562 4.5507812 L 0.5703125 5.7324219 C 0.5303541 5.8125589 0.52271175 5.9052006 0.55078125 5.9902344 L 2.5078125 11.919922 C 2.5084572 11.921922 2.5090856 11.923781 2.5097656 11.925781 C 2.8068979 12.774624 3.3991275 13.487506 4.1796875 13.933594 L 7.8320312 16.021484 C 7.9363629 16.081084 8.0636371 16.081084 8.1679688 16.021484 L 11.820312 13.933594 C 12.601275 13.48749 13.193132 12.77454 13.490234 11.925781 C 13.490919 11.923781 13.491587 11.921922 13.492188 11.919922 L 15.449219 5.9902344 C 15.477289 5.9052004 15.469647 5.8125591 15.429688 5.7324219 L 14.839844 4.5507812 L 15.410156 3.6972656 C 15.489976 3.5776243 15.484617 3.4198346 15.398438 3.3046875 L 14.394531 1.9609375 C 14.384806 1.9480436 14.372788 1.9352081 14.361328 1.9238281 C 13.845891 1.4083912 13.056464 1.2813386 12.404297 1.6074219 L 12.404297 1.6054688 L 12.138672 1.7382812 L 10.615234 0.21289062 C 10.551594 0.14925002 10.465002 0.11524717 10.375 0.11523438 L 5.625 0.11523438 z M 5.765625 0.79296875 L 10.234375 0.79296875 L 11.832031 2.390625 C 11.935315 2.4939275 12.093938 2.5203774 12.224609 2.4550781 L 12.707031 2.2128906 C 13.097558 2.0176247 13.564329 2.0949153 13.875 2.4003906 L 14.710938 3.5195312 L 14.166016 4.3378906 C 14.098446 4.4392243 14.090081 4.5687898 14.144531 4.6777344 L 14.761719 5.9101562 L 12.849609 11.703125 C 12.606249 12.397256 12.121004 12.980929 11.482422 13.345703 L 8 15.335938 L 4.5175781 13.345703 C 3.8792701 12.980913 3.3937207 12.397173 3.1503906 11.703125 L 1.2382812 5.9101562 L 1.8554688 4.6777344 C 1.9099207 4.5687896 1.9015531 4.439224 1.8339844 4.3378906 L 1.2890625 3.5195312 L 2.125 2.3984375 C 2.4356705 2.0929693 2.9024465 2.0176291 3.2929688 2.2128906 L 3.7753906 2.4550781 C 3.9060618 2.5203771 4.0646847 2.4939271 4.1679688 2.390625 L 5.765625 0.79296875 z M 7.9980469 2.6113281 C 7.6282689 2.6113281 7.2584014 2.7110482 6.9277344 2.9101562 C 6.5935124 3.1092672 6.2101719 3.2128906 5.8261719 3.2128906 C 5.6875039 3.2128906 5.5491725 3.2022681 5.4140625 3.1738281 L 4.4433594 2.9785156 L 3.1210938 5.1855469 C 2.8508698 5.5659909 2.8538786 6.0758857 3.1347656 6.4492188 L 4.7988281 8.6679688 L 4.5957031 8.96875 C 4.2899281 9.427418 4.3080039 10.029464 4.6386719 10.466797 C 4.8235599 10.715685 5.0966143 10.913915 5.3632812 11.03125 C 5.5446143 11.11304 5.7230124 11.15625 5.8652344 11.15625 C 6.1795464 11.15625 6.7725141 10.600558 7.6425781 9.9804688 L 7.6425781 9.5800781 L 6.0371094 8.6171875 C 5.9059074 8.5386095 5.8399779 8.383708 5.8730469 8.234375 L 6.3925781 5.9003906 C 6.3307081 5.7560345 6.2343759 5.6348606 6.0917969 5.5566406 L 4.0878906 4.7558594 L 5.1542969 4.4003906 L 5.8652344 4.4003906 L 5.8691406 4.4042969 C 5.9050506 4.4050069 5.9426006 4.4058987 5.9785156 4.4179688 L 7.0449219 4.7734375 C 7.2177189 4.8313975 7.3187679 5.0116751 7.2792969 5.1894531 L 6.6230469 8.1386719 L 7.9980469 8.9628906 L 9.3730469 8.1386719 L 8.71875 5.1894531 C 8.67928 5.0116751 8.78031 4.8329906 8.953125 4.7753906 L 10.019531 4.4179688 C 10.055451 4.4059488 10.091391 4.40698 10.126953 4.40625 L 10.134766 4.4003906 L 10.845703 4.4003906 L 11.912109 4.7558594 L 9.9082031 5.5566406 C 9.7656251 5.6348606 9.6692919 5.7560355 9.6074219 5.9003906 L 10.125 8.234375 C 10.15807 8.383708 10.09214 8.5386075 9.9609375 8.6171875 L 8.3554688 9.5800781 L 8.3554688 9.9726562 C 9.2027577 10.580656 9.8147665 11.15625 10.134766 11.15625 C 10.276989 11.15625 10.453432 11.11303 10.634766 11.03125 C 10.901433 10.913919 11.176439 10.715685 11.361328 10.466797 C 11.535563 10.239242 11.619141 9.964833 11.619141 9.6875 C 11.619141 9.438611 11.548121 9.185639 11.402344 8.96875 L 11.201172 8.6679688 L 12.865234 6.4492188 C 13.146145 6.0758858 13.149126 5.5659909 12.878906 5.1855469 L 11.556641 2.9785156 L 10.585938 3.1738281 C 10.066826 3.2769391 9.5254235 3.1803283 9.0703125 2.9101562 C 8.7396455 2.7110502 8.369779 2.6113281 8 2.6113281 L 7.9980469 2.6113281 z M 7.9980469 10.800781 C 7.6424919 10.800781 5.8652344 11.867188 5.8652344 11.867188 L 7.9980469 14 L 10.132812 11.867188 C 10.132812 11.867188 8.3536019 10.800781 7.9980469 10.800781 z " />
  </g>
</svg>
