<?xml version="1.0" encoding="UTF-8" standalone="no"?>
<!-- Created with Inkscape (http://www.inkscape.org/) -->

<svg
   xmlns:dc="http://purl.org/dc/elements/1.1/"
   xmlns:cc="http://creativecommons.org/ns#"
   xmlns:rdf="http://www.w3.org/1999/02/22-rdf-syntax-ns#"
   xmlns:svg="http://www.w3.org/2000/svg"
   xmlns="http://www.w3.org/2000/svg"
   xmlns:sodipodi="http://sodipodi.sourceforge.net/DTD/sodipodi-0.dtd"
   xmlns:inkscape="http://www.inkscape.org/namespaces/inkscape"
   width="16"
   height="16"
   id="svg4159"
   version="1.1"
   inkscape:version="0.92.4 5da689c313, 2019-01-14"
   viewBox="0 0 16 16"
   sodipodi:docname="firefox-symbolic.svg">
  <title
     id="title4518">Boston Icons</title>
  <defs
     id="defs4161">
    <inkscape:perspective
       sodipodi:type="inkscape:persp3d"
       inkscape:vp_x="0 : 8 : 1"
       inkscape:vp_y="0 : 1000 : 0"
       inkscape:vp_z="16 : 8 : 1"
       inkscape:persp3d-origin="8 : 5.3333333 : 1"
       id="perspective4709" />
  </defs>
  <sodipodi:namedview
     id="base"
     pagecolor="#ffffff"
     bordercolor="#00fff6"
     borderopacity="1"
     inkscape:pageopacity="0"
     inkscape:pageshadow="2"
     inkscape:zoom="22.197802"
     inkscape:cx="-1.3224238"
     inkscape:cy="8.199943"
     inkscape:current-layer="layer1"
     showgrid="false"
     inkscape:grid-bbox="true"
     inkscape:document-units="px"
     inkscape:window-width="1920"
     inkscape:window-height="1016"
     inkscape:window-x="0"
     inkscape:window-y="27"
     inkscape:window-maximized="1"
     showguides="false"
     inkscape:guide-bbox="true">
    <inkscape:grid
       type="xygrid"
       id="grid4707" />
    <sodipodi:guide
       position="5,14"
       orientation="0,1"
       id="guide829"
       inkscape:locked="false" />
  </sodipodi:namedview>
  <metadata
     id="metadata4164">
    <rdf:RDF>
      <cc:Work
         rdf:about="">
        <dc:format>image/svg+xml</dc:format>
        <dc:type
           rdf:resource="http://purl.org/dc/dcmitype/StillImage" />
        <dc:title>Boston Icons</dc:title>
        <cc:license
           rdf:resource="dribbble.com/chrisdiaz" />
        <dc:creator>
          <cc:Agent>
            <dc:title>Christian Díaz</dc:title>
          </cc:Agent>
        </dc:creator>
        <dc:description>diazchris.deviantart.com | dribbble.com/chrisdiaz</dc:description>
        <dc:date>2019</dc:date>
        <dc:publisher>
          <cc:Agent>
            <dc:title>Christian Díaz</dc:title>
          </cc:Agent>
        </dc:publisher>
        <dc:subject>
          <rdf:Bag>
            <rdf:li>GNOME icon Theme</rdf:li>
          </rdf:Bag>
        </dc:subject>
        <dc:identifier>christiandiaz.design [at] gmail [dot] com</dc:identifier>
      </cc:Work>
    </rdf:RDF>
  </metadata>
  <g
     id="layer1"
     inkscape:label="Layer 1"
     inkscape:groupmode="layer">
    <path
       style="fill:#1a1a1a;fill-opacity:1;stroke:none;stroke-width:0.3627702;stroke-miterlimit:4;stroke-dasharray:none;stroke-opacity:1"
       d="M 10,0.00404306 C 6.9860104,4.0057603 11.405047,4.873881 11.749,7.5015409 12.150079,10.565614 8.6190354,13.098786 5.625,10.769117 6.5555481,10.997143 7.5429642,10.834074 8.1152344,10.442946 10.031051,9.4231608 8.8649986,8.2562718 8.0136719,8.8706816 7.4612616,9.015376 6.7773949,9.6263033 5.7324219,9.0074003 4.8409179,8.4792196 4.8457031,8.050264 4.8457031,7.7769316 c 0,-0.2734051 0.2429706,-0.6892726 0.6855469,-0.6210938 0.3963749,0.061227 0.6152344,0 0.6152344,0 C 6.2626688,7.2025551 6.1341075,6.5978523 5.96875,6.2105253 L 7.4355469,5.0874784 C 6.5164147,4.7782312 5.9961613,4.485271 5.4433594,3.7300566 5.3646294,3.2013331 5.4101562,1.6421659 5.4101562,1.6421659 c 0,0 -0.4341953,0.3916063 -1.0410156,1.4082031 -0.1949448,0.025376 -0.4627484,-0.03125 -0.7617187,-0.03125 -0.3747581,0 -0.668915,0.040876 -0.9414063,0.109375 C 2.6223746,3.139369 2.5528531,3.133474 2.4667969,3.112869 2.2270006,2.8644379 1.8658386,2.0344144 1.5175781,1.4585722 c 0,0 -0.4305152,0.963775 -0.83984372,2.8242187 -0.75729631,2.0282645 -1.14539723,5.1371602 0.28515624,7.7324201 1.70276128,2.916586 4.56028338,4.204131 7.52539058,3.953125 0.5186371,-0.0337 1.0412966,-0.110409 1.5624998,-0.236328 C 17.030536,13.70012 17.808552,5.1613352 12.699219,2.0671427 10.82157,1.22311 10,0.00404306 10,0.00404306 Z"
       id="path159"
       inkscape:connector-curvature="0"
       sodipodi:nodetypes="csccccscccccccsccccccccc" />
  </g>
</svg>
