<?xml version="1.0" encoding="UTF-8" standalone="no"?>
<!-- Created with Inkscape (http://www.inkscape.org/) -->

<svg
   xmlns:dc="http://purl.org/dc/elements/1.1/"
   xmlns:cc="http://creativecommons.org/ns#"
   xmlns:rdf="http://www.w3.org/1999/02/22-rdf-syntax-ns#"
   xmlns:svg="http://www.w3.org/2000/svg"
   xmlns="http://www.w3.org/2000/svg"
   xmlns:sodipodi="http://sodipodi.sourceforge.net/DTD/sodipodi-0.dtd"
   xmlns:inkscape="http://www.inkscape.org/namespaces/inkscape"
   width="16"
   height="16"
   id="svg4159"
   version="1.1"
   inkscape:version="0.92.4 5da689c313, 2019-01-14"
   viewBox="0 0 16 16"
   sodipodi:docname="gparted-symbolic.svg">
  <title
     id="title4518">Boston Icons</title>
  <defs
     id="defs4161">
    <inkscape:perspective
       sodipodi:type="inkscape:persp3d"
       inkscape:vp_x="0 : 8 : 1"
       inkscape:vp_y="0 : 1000 : 0"
       inkscape:vp_z="16 : 8 : 1"
       inkscape:persp3d-origin="8 : 5.3333333 : 1"
       id="perspective4709" />
  </defs>
  <sodipodi:namedview
     id="base"
     pagecolor="#ffffff"
     bordercolor="#00fff6"
     borderopacity="1"
     inkscape:pageopacity="0"
     inkscape:pageshadow="2"
     inkscape:zoom="22.197802"
     inkscape:cx="-4.4157603"
     inkscape:cy="8.1580708"
     inkscape:current-layer="layer1"
     showgrid="false"
     inkscape:grid-bbox="true"
     inkscape:document-units="px"
     inkscape:window-width="1920"
     inkscape:window-height="1016"
     inkscape:window-x="0"
     inkscape:window-y="27"
     inkscape:window-maximized="1"
     showguides="true"
     inkscape:guide-bbox="true">
    <inkscape:grid
       type="xygrid"
       id="grid4707" />
  </sodipodi:namedview>
  <metadata
     id="metadata4164">
    <rdf:RDF>
      <cc:Work
         rdf:about="">
        <dc:format>image/svg+xml</dc:format>
        <dc:type
           rdf:resource="http://purl.org/dc/dcmitype/StillImage" />
        <dc:title>Boston Icons</dc:title>
        <cc:license
           rdf:resource="dribbble.com/chrisdiaz" />
        <dc:creator>
          <cc:Agent>
            <dc:title>Christian Díaz</dc:title>
          </cc:Agent>
        </dc:creator>
        <dc:description>diazchris.deviantart.com | dribbble.com/chrisdiaz</dc:description>
        <dc:date>2019</dc:date>
        <dc:publisher>
          <cc:Agent>
            <dc:title>Christian Díaz</dc:title>
          </cc:Agent>
        </dc:publisher>
        <dc:subject>
          <rdf:Bag>
            <rdf:li>GNOME icon Theme</rdf:li>
          </rdf:Bag>
        </dc:subject>
        <dc:identifier>christiandiaz.design [at] gmail [dot] com</dc:identifier>
      </cc:Work>
    </rdf:RDF>
  </metadata>
  <g
     id="layer1"
     inkscape:label="Layer 1"
     inkscape:groupmode="layer">
    <g
       id="g8474">
      <path
         inkscape:connector-curvature="0"
         id="path8469"
         d="m 10.119141,10.119141 3.535156,3.535156 A 8,8 0 0 0 16,8 h -5 a 3,3 0 0 1 -0.01563,0.2988281 3,3 0 0 1 -0.04492,0.296875 3,3 0 0 1 -0.07422,0.2910157 3,3 0 0 1 -0.101562,0.28125 3,3 0 0 1 -0.13086,0.2695312 3,3 0 0 1 -0.15625,0.2558594 3,3 0 0 1 -0.18164,0.2402344 3,3 0 0 1 -0.175781,0.1855472 z"
         style="opacity:0.6;fill:#252627;fill-opacity:1;fill-rule:nonzero;stroke:none;stroke-width:2;stroke-linecap:square;stroke-linejoin:bevel;stroke-miterlimit:4;stroke-dasharray:none;stroke-dashoffset:35;stroke-opacity:1" />
      <path
         inkscape:connector-curvature="0"
         id="path8464"
         d="M 8,0 A 8,8 0 0 0 0,8 8,8 0 0 0 0.6484375,11.150391 8,8 0 0 0 8,16 8,8 0 0 0 13.654297,13.654297 l -3.535156,-3.535156 a 3,3 0 0 1 -0.0293,0.0332 3,3 0 0 1 -0.2246096,0.197265 3,3 0 0 1 -0.2441406,0.173829 3,3 0 0 1 -0.2597657,0.15039 3,3 0 0 1 -0.2734375,0.123047 3,3 0 0 1 -0.2851562,0.09375 3,3 0 0 1 -0.2929688,0.06641 3,3 0 0 1 -0.296875,0.03516 A 3,3 0 0 1 8,11 3,3 0 0 1 7.7011719,10.984375 3,3 0 0 1 7.4042969,10.939453 3,3 0 0 1 7.1132812,10.865234 3,3 0 0 1 6.8320312,10.763672 3,3 0 0 1 6.5625,10.632812 3,3 0 0 1 6.3066406,10.476562 3,3 0 0 1 6.0664062,10.294922 3,3 0 0 1 5.8476562,10.089844 3,3 0 0 1 5.6503906,9.8652344 3,3 0 0 1 5.4765625,9.6210938 3,3 0 0 1 5.3261719,9.3613281 3,3 0 0 1 5.2441406,9.1816406 3,3 0 0 1 5.203125,9.0878906 3,3 0 0 1 5.109375,8.8027344 3,3 0 0 1 5.0429688,8.5097656 3,3 0 0 1 5.0078125,8.2128906 3,3 0 0 1 5,8 3,3 0 0 1 5.015625,7.7011719 3,3 0 0 1 5.0605469,7.4042969 3,3 0 0 1 5.1347656,7.1132812 3,3 0 0 1 5.2363281,6.8320312 3,3 0 0 1 5.3671875,6.5625 3,3 0 0 1 5.5234375,6.3066406 3,3 0 0 1 5.7050781,6.0664062 3,3 0 0 1 5.9101562,5.8476562 3,3 0 0 1 6.1347656,5.6503906 3,3 0 0 1 6.3789062,5.4765625 3,3 0 0 1 6.6386719,5.3261719 3,3 0 0 1 6.9121094,5.203125 3,3 0 0 1 7.1972656,5.109375 3,3 0 0 1 7.4902344,5.0429688 3,3 0 0 1 7.7871094,5.0078125 3,3 0 0 1 8,5 Z"
         style="opacity:1;fill:#252627;fill-opacity:1;fill-rule:nonzero;stroke:none;stroke-width:2;stroke-linecap:square;stroke-linejoin:bevel;stroke-miterlimit:4;stroke-dasharray:none;stroke-dashoffset:35;stroke-opacity:1" />
      <path
         inkscape:connector-curvature="0"
         id="path847"
         d="m 8,0 v 5 a 3,3 0 0 1 0.2988281,0.015625 3,3 0 0 1 0.296875,0.044922 3,3 0 0 1 0.2910157,0.074219 3,3 0 0 1 0.28125,0.1015625 3,3 0 0 1 0.2695312,0.1308594 3,3 0 0 1 0.2558594,0.15625 3,3 0 0 1 0.2402344,0.1816406 3,3 0 0 1 0.2187502,0.2050781 3,3 0 0 1 0.197265,0.2246094 3,3 0 0 1 0.173829,0.2441406 3,3 0 0 1 0.15039,0.2597657 3,3 0 0 1 0.123047,0.2734375 3,3 0 0 1 0.09375,0.2851562 3,3 0 0 1 0.06641,0.2929688 3,3 0 0 1 0.03516,0.296875 A 3,3 0 0 1 11,8 h 5 A 8,8 0 0 0 8,0 Z"
         style="opacity:0.4;fill:#252627;fill-opacity:1;fill-rule:nonzero;stroke:none;stroke-width:2;stroke-linecap:square;stroke-linejoin:bevel;stroke-miterlimit:4;stroke-dasharray:none;stroke-dashoffset:35;stroke-opacity:1" />
    </g>
  </g>
</svg>
