<?xml version="1.0" encoding="UTF-8" standalone="no"?>
<svg
   width="16"
   height="16"
   id="svg4159"
   version="1.1"
   inkscape:version="1.1 (c4e8f9ed74, 2021-05-24)"
   viewBox="0 0 16 16"
   sodipodi:docname="min.svg"
   xmlns:inkscape="http://www.inkscape.org/namespaces/inkscape"
   xmlns:sodipodi="http://sodipodi.sourceforge.net/DTD/sodipodi-0.dtd"
   xmlns="http://www.w3.org/2000/svg"
   xmlns:svg="http://www.w3.org/2000/svg"
   xmlns:rdf="http://www.w3.org/1999/02/22-rdf-syntax-ns#"
   xmlns:cc="http://creativecommons.org/ns#"
   xmlns:dc="http://purl.org/dc/elements/1.1/">
  <title
     id="title4518">Boston Icons</title>
  <defs
     id="defs4161">
    <inkscape:perspective
       sodipodi:type="inkscape:persp3d"
       inkscape:vp_x="0 : 8 : 1"
       inkscape:vp_y="0 : 1000 : 0"
       inkscape:vp_z="16 : 8 : 1"
       inkscape:persp3d-origin="8 : 5.3333333 : 1"
       id="perspective4709" />
  </defs>
  <sodipodi:namedview
     id="base"
     pagecolor="#ffffff"
     bordercolor="#00fff6"
     borderopacity="1"
     inkscape:pageopacity="0"
     inkscape:pageshadow="2"
     inkscape:zoom="31.392433"
     inkscape:cx="4.204835"
     inkscape:cy="7.8203559"
     inkscape:current-layer="layer1"
     showgrid="false"
     inkscape:grid-bbox="true"
     inkscape:document-units="px"
     inkscape:window-width="1920"
     inkscape:window-height="1011"
     inkscape:window-x="0"
     inkscape:window-y="32"
     inkscape:window-maximized="1"
     showguides="true"
     inkscape:guide-bbox="true"
     inkscape:pagecheckerboard="0"
     inkscape:document-rotation="0">
    <inkscape:grid
       type="xygrid"
       id="grid4707" />
  </sodipodi:namedview>
  <metadata
     id="metadata4164">
    <rdf:RDF>
      <cc:Work
         rdf:about="">
        <dc:format>image/svg+xml</dc:format>
        <dc:type
           rdf:resource="http://purl.org/dc/dcmitype/StillImage" />
        <dc:title>Boston Icons</dc:title>
        <cc:license
           rdf:resource="dribbble.com/chrisdiaz" />
        <dc:creator>
          <cc:Agent>
            <dc:title>Christian Díaz</dc:title>
          </cc:Agent>
        </dc:creator>
        <dc:date>2021</dc:date>
        <dc:publisher>
          <cc:Agent>
            <dc:title>Christian Díaz</dc:title>
          </cc:Agent>
        </dc:publisher>
        <dc:subject>
          <rdf:Bag>
            <rdf:li>GNOME icon Theme</rdf:li>
          </rdf:Bag>
        </dc:subject>
        <dc:identifier>christiandiaz.design [at] gmail [dot] com</dc:identifier>
        <dc:description>dribbble.com/chrisdiaz | diazchris.deviantart.com</dc:description>
      </cc:Work>
    </rdf:RDF>
  </metadata>
  <g
     id="layer1"
     inkscape:label="Layer 1"
     inkscape:groupmode="layer">
    <path
       style="fill:#252627;stroke-width:0.0210896"
       d="M 7.5738152,15.95944 C 7.4288447,15.95164 7.1687391,15.91953 6.9957918,15.88901 6.8228445,15.85849 6.6313113,15.83355 6.5700754,15.83355 c -0.061627,0 -0.1380252,-0.01017 -0.1705996,-0.0226 C 6.3671948,15.79853 6.2499077,15.76996 6.1396636,15.74746 5.9326747,15.7052 5.2995781,15.487854 5.1207616,15.397663 c -0.070431,-0.03531 -0.099386,-0.06221 -0.094886,-0.08686 0.01076,-0.05683 0.068475,-0.05429 0.2868108,0.01262 0.2945386,0.09039 0.5671653,0.160876 0.8723664,0.225545 0.2463129,0.05214 0.3550897,0.05556 0.3550897,0.01105 0,-0.02798 -0.1247216,-0.06388 -0.2217599,-0.06388 -0.1630673,0 -0.3018751,-0.03981 -0.5419275,-0.155398 -0.1309822,-0.063 -0.2845609,-0.125524 -0.3413948,-0.138857 -0.056736,-0.0133 -0.1537744,-0.05233 -0.2155972,-0.08677 -0.061627,-0.03443 -0.1576872,-0.06847 -0.2130538,-0.07571 -0.1303952,-0.01702 -0.1874248,-0.04754 -0.290528,-0.155017 -0.056736,-0.05879 -0.1568068,-0.122374 -0.3029512,-0.191817 -0.1866422,-0.08863 -0.2169666,-0.110009 -0.207478,-0.146047 0.00978,-0.03218 -0.01076,-0.05752 -0.08217,-0.106595 -0.051845,-0.03541 -0.1255042,-0.06955 -0.1645347,-0.07591 -0.046954,-0.0078 -0.078257,-0.02807 -0.09293,-0.05977 -0.015651,-0.03482 -0.046954,-0.05243 -0.1129831,-0.06339 -0.1150374,-0.01907 -0.1994568,-0.06192 -0.2282161,-0.11581 -0.024455,-0.04598 -0.020542,-0.04793 0.079235,-0.04246 0.1005598,0.0059 0.084126,-0.02847 -0.047932,-0.09704 -0.063584,-0.03336 -0.1211022,-0.07591 -0.1270693,-0.09459 -0.00978,-0.01868 -0.044019,-0.06397 -0.084126,-0.100687 -0.040106,-0.03668 -0.073366,-0.07522 -0.073366,-0.08559 0,-0.02974 0.04891,-0.03952 0.090973,-0.0181 0.062605,0.03228 0.089995,0.0078 0.042063,-0.03717 -0.2106074,-0.197764 -0.2709629,-0.265319 -0.3158627,-0.353867 -0.044998,-0.08872 -0.058693,-0.100471 -0.1023206,-0.08951 -0.059671,0.01506 -0.1999458,-0.09479 -0.1999458,-0.156934 0,-0.04509 -0.150742,-0.181907 -0.2452369,-0.222571 -0.070431,-0.03013 -0.1645347,-0.155858 -0.1374383,-0.182965 0.032281,-0.03228 0.2492475,0.06212 0.389327,0.169563 0.086082,0.06613 0.1648281,0.10998 0.197109,0.10998 0.049889,0 0.044998,-0.0099 -0.078257,-0.148335 -0.1368514,-0.154323 -0.1500572,-0.20653 -0.035216,-0.137488 0.037172,0.02211 0.1620892,0.08726 0.2781047,0.144687 0.1160156,0.05742 0.2725289,0.13915 0.3479488,0.181614 0.075322,0.04246 0.1703061,0.09019 0.2109018,0.106058 0.041085,0.01585 0.1118092,0.04529 0.1581763,0.06534 0.1087768,0.04705 0.3712302,0.150272 0.5061251,0.199007 0.057714,0.02093 0.1481986,0.04089 0.2003371,0.04441 0.1759798,0.01174 0.3264283,0.0312 0.4113368,0.05322 0.045976,0.01203 0.122276,0.0316 0.1686431,0.04353 0.046954,0.01184 0.098603,0.03424 0.1160156,0.0496 0.075322,0.06632 0.2206838,0.08794 0.6221406,0.09225 0.2203904,0.002 0.4386288,0.0133 0.4850937,0.02426 0.045976,0.01096 0.25991,0.02915 0.4745289,0.0404 0.2145212,0.01125 0.4660186,0.02631 0.5588506,0.03355 0.1088746,0.0088 0.2471933,0.002 0.3901096,-0.01947 0.121787,-0.0179 0.2737028,-0.03248 0.337482,-0.03228 0.1631651,2.94e-4 0.4761919,-0.03805 0.5253958,-0.06437 0.022499,-0.01213 0.066518,-0.02211 0.097821,-0.02211 0.052823,0 0.143112,-0.02436 0.6002288,-0.161287 0.7910771,-0.237001 1.2608131,-0.474412 1.7497221,-0.884242 0.303831,-0.254608 0.750873,-0.749513 1.064291,-1.178145 0.244747,-0.334743 0.507103,-0.837884 0.671344,-1.287743 C 13.09864,9.3878939 13.194896,8.6950483 13.143442,7.9610202 13.112139,7.5110344 12.990352,7.014124 12.809579,6.5963311 12.488433,5.8540078 12.148799,5.322146 11.691291,4.8446824 11.216567,4.3492589 10.592959,3.9205394 10.08292,3.7388469 9.5339496,3.5433421 9.304364,3.4948034 8.5222863,3.4088972 8.3076673,3.3853223 8.1084062,3.3627257 8.0793534,3.3586172 7.6006181,3.2911208 6.85043,3.3664429 6.2120511,3.5462376 5.8981439,3.6345699 5.2714057,3.9571342 5.0727315,4.1325857 c -0.023477,0.021129 -0.059671,0.038444 -0.078257,0.038444 -0.019564,0 -0.070431,0.032672 -0.114646,0.072681 C 4.8358094,4.2837189 4.7282064,4.3809626 4.6398742,4.4598747 4.5047836,4.5805172 4.2995554,4.8067083 4.0777956,5.0793351 4.009321,5.1628741 3.7473567,5.6495622 3.6691,5.8370946 3.5302922,6.1698811 3.340911,7.1086288 3.3193904,7.5706367 c -0.019564,0.4290618 0.053802,0.8888003 0.2113909,1.3244455 0.069453,0.1910637 0.1020272,0.2628349 0.2743875,0.6010603 0.1240369,0.2435348 0.3097987,0.6423015 0.3097987,0.6651225 0,0.01174 0.032281,0.0852 0.071409,0.163166 0.09968,0.199378 0.1945657,0.526638 0.2244989,0.774516 0.021521,0.179755 0.020542,0.236579 -0.00978,0.384847 -0.018586,0.09567 -0.053802,0.21321 -0.078257,0.261191 -0.059671,0.11714 -0.2379003,0.341571 -0.3097008,0.390129 -0.058693,0.03972 -0.2323246,0.112259 -0.4059566,0.169592 -0.051845,0.01722 -0.121787,0.04588 -0.1546548,0.06349 -0.046954,0.02504 -0.1303952,0.03179 -0.3796427,0.03042 -0.413391,-0.002 -0.7471557,-0.06613 -0.9420149,-0.180313 -0.070431,-0.04148 -0.1337211,-0.07552 -0.1398838,-0.07552 -0.024455,0 -0.4544757,-0.387889 -0.5774366,-0.521258 C 1.254979,11.449439 1.0889771,11.232228 0.97393973,11.046123 0.86946705,10.877118 0.65250039,10.495617 0.59615557,10.381802 0.44688094,10.080465 0.31374676,9.5823618 0.22688183,9.0004353 0.16036365,8.5545971 0.16525469,7.7902152 0.23959854,7.1933319 0.2689448,6.9591683 0.29829106,6.7577649 0.30611673,6.7457623 0.31589881,6.7337303 0.3716567,6.5173408 0.43465334,6.2648358 0.51877927,5.931208 0.56680932,5.7783336 0.6121982,5.7054472 0.6464355,5.6502763 0.69436772,5.5410495 0.7177469,5.4627243 0.77252658,5.2824992 0.93686563,4.9617739 0.97462448,4.9617739 c 0.042063,0 0.0273898,0.077376 -0.0557579,0.284287 -0.0401065,0.100149 -0.0870606,0.2479759 -0.10388575,0.3285118 -0.0342373,0.160573 -0.0743439,0.2810687 -0.12599327,0.3784102 -0.0205424,0.037857 -0.0332591,0.1147732 -0.0342373,0.1917093 0,0.070627 -0.0195642,0.2035066 -0.0430412,0.2952527 -0.023477,0.091756 -0.0528233,0.2901954 -0.0645618,0.4409863 -0.0117385,0.1507908 -0.0352155,0.3186514 -0.051845,0.37303 -0.0361937,0.1180013 -0.0401066,0.2619251 -0.009782,0.2824675 0.0166295,0.010076 0.0195642,0.06554 0.0107603,0.1752363 -0.0127167,0.1616783 0,0.2553809 0.0293463,0.2553809 0.0322809,0 0.042063,-0.1792665 0.023477,-0.4323388 C 0.5324742,7.3100126 0.53443061,7.2756872 0.5667115,7.2286256 0.59214492,7.1907689 0.60583984,7.1152806 0.61464372,6.9650082 0.62540401,6.7629885 0.73095272,6.1978774 0.81820892,5.8748241 0.98753683,5.2479782 1.1328008,4.8771883 1.4072861,4.3712686 1.4698915,4.2552726 1.5407138,4.1224123 1.5639951,4.0760159 1.6579032,3.8888356 1.8995207,3.5758089 2.1549309,3.3100198 2.3509639,3.106122 2.4217862,3.018905 2.4132758,2.9919553 c -0.017608,-0.05654 0.071409,-0.1729179 0.194957,-0.2527006 0.060649,-0.039226 0.1101463,-0.087158 0.1101463,-0.1065074 0,-0.052432 0.043041,-0.085691 0.1113201,-0.085691 0.042063,0 0.096843,-0.031303 0.1803817,-0.1025652 C 3.1991686,2.2822748 3.5062283,2.0870537 3.7713228,1.9604539 3.905533,1.8962834 4.1102721,1.7867926 4.2262876,1.7170561 4.7731062,1.3883388 5.910665,0.9020616 6.1328162,0.9020616 c 0.053801,0 0.3806209,-0.0677899 0.4631817,-0.0960601 0.022499,-0.007826 0.023477,-0.0166295 0,-0.0392262 C 6.5813249,0.7495588 6.5774119,0.7136586 6.5862179,0.6803017 6.5999129,0.6236634 6.5999129,0.6232721 6.5079609,0.633739 6.2772994,0.6601506 6.1030804,0.7036809 5.8864072,0.78892201 c -0.1286344,0.0505734 -0.2541386,0.0920494 -0.2789851,0.0920494 -0.024455,0 -0.094886,0.0235748 -0.1564155,0.052432 C 5.19804,1.0526959 4.9441949,1.1372816 4.888437,1.1208575 c -0.081191,-0.023771 -0.096843,-0.021716 -0.099777,0.013206 0,0.017412 0,0.041965 -0.00978,0.054682 0,0.012619 -0.071409,0.049693 -0.1553396,0.082365 -0.101538,0.039422 -0.1776427,0.085887 -0.2266509,0.1382209 -0.041085,0.043335 -0.1320582,0.1121027 -0.2032717,0.1527864 -0.1078965,0.061725 -0.1499594,0.073855 -0.2530626,0.073561 -0.067496,-2.152e-4 -0.1354819,7.141e-4 -0.1500572,0.00196 -0.041085,0.00391 -0.030324,0.038541 0.015651,0.050769 0.053802,0.014184 0.055758,0.092245 0,0.1093148 -0.022499,0.00685 -0.067496,0.00587 -0.1001685,-0.00196 -0.052823,-0.013304 -0.056736,-0.011152 -0.032281,0.019075 0.023477,0.028759 0.022499,0.038835 -0.01076,0.065442 -0.021521,0.017314 -0.080213,0.065344 -0.1301017,0.1066248 -0.050867,0.04128 -0.1144505,0.075126 -0.1423294,0.075126 -0.060649,0 -0.059671,0.00293 -0.016629,-0.082463 0.041085,-0.081387 0.029346,-0.096843 -0.072388,-0.096843 -0.062605,0 -0.078257,-0.0088 -0.083148,-0.044802 0,-0.033161 0.021521,-0.065442 0.1016359,-0.1241738 0.1276546,-0.093711 0.6664519,-0.3678834 0.7271986,-0.3700648 0.023477,-8.314e-4 0.1133744,-0.043432 0.200435,-0.094691 0.08706,-0.051258 0.2008262,-0.1137069 0.2530625,-0.1388371 0.051845,-0.02514 0.1233521,-0.067105 0.1581764,-0.093321 0.034237,-0.0261182 0.1676649,-0.091756 0.2952233,-0.14571393 C 5.0816332,0.81712375 5.2775684,0.73048381 5.3894755,0.67853115 5.6421467,0.56116569 6.1232297,0.44658812 6.7446856,0.35578101 c 0.1562199,-0.0227923 0.2057173,-0.0493017 0.166002,-0.089017 -0.015651,-0.0157492 -0.071409,-0.0189773 -0.1676649,-0.009782 -0.2650946,0.0254334 -0.2690074,0.0253356 -0.2765396,-0.0126189 0,-0.0203467 0.01663,-0.0508668 0.047932,-0.0713114 0.045976,-0.0303245 0.074344,-0.0325743 0.1839032,-0.0149666 0.093908,0.0150644 0.167665,0.0134993 0.269203,-0.005869 0.077279,-0.0146731 0.2533561,-0.0386392 0.392066,-0.05321455 0.13871,-0.01457531 0.278496,-0.03951963 0.3107769,-0.05546443 0.032281,-0.0159448 0.067496,-0.02318354 0.079235,-0.01623826 0.041085,0.02543342 0.018586,0.07620245 -0.044998,0.10319122 -0.096843,0.0407913 -0.051845,0.0520407 0.1564156,0.0390305 0.172556,-0.0107603 0.1848814,-0.0145753 0.1792078,-0.0554644 -0.00978,-0.04675837 0.043041,-0.06935499 0.1030053,-0.04646491 0.025434,0.0097821 0.02739,0.01917289 0.00978,0.04206297 -0.041085,0.0493017 0.00978,0.0591816 0.2167711,0.0435303 0.160524,-0.012032 0.1995545,-0.008804 0.2212707,0.0171187 0.023477,0.0278789 0.034237,0.0279768 0.087061,9.7821e-4 0.047932,-0.0240639 0.088039,-0.0260203 0.1918267,-0.008804 0.072387,0.0116407 0.14634,0.0342373 0.1650238,0.0503778 0.018586,0.0161404 0.1100485,0.0402044 0.2028805,0.053508 0.09293,0.0133036 0.2778112,0.0396174 0.4112388,0.058399 0.2566821,0.0360959 0.3032448,0.0547797 0.284561,0.11380479 -0.00978,0.0277811 0.00978,0.0449976 0.073365,0.0708223 0.114841,0.0459758 0.157883,0.0430412 0.195152,-0.013108 0.02739,-0.0408891 0.03913,-0.0443129 0.09195,-0.0257269 0.04793,0.0168252 0.06065,0.0344329 0.06065,0.0811913 0,0.0548775 0.01565,0.0664204 0.189772,0.14369884 0.104473,0.0462693 0.242008,0.10122503 0.305885,0.12222716 0.200533,0.0660291 0.551808,0.2237651 0.738059,0.3314366 0.0986,0.05703 0.31332,0.2074095 0.47717,0.3342832 0.16385,0.1268834 0.415347,0.3173113 0.55885,0.4231828 0.315766,0.2328919 0.696485,0.5600342 0.88479,0.7602735 0.159644,0.1697877 0.51082,0.6053252 0.60062,0.744945 0.03326,0.052236 0.09,0.13287 0.126287,0.1792665 0.121004,0.1562981 0.528232,0.8720142 0.567067,0.9964815 0.02739,0.088332 -0.04011,0.051649 -0.104961,-0.056834 C 14.664067,4.4733837 14.58943,4.3476057 14.532498,4.2512717 14.291174,3.8427522 13.846383,3.2347369 13.813221,3.267908 c -0.0098,0.00587 0.07923,0.1316571 0.189871,0.2791122 0.110439,0.1474552 0.239172,0.3363081 0.285832,0.4196906 0.04695,0.083343 0.127363,0.2119778 0.17911,0.2857739 0.06456,0.091365 0.09391,0.1557993 0.09391,0.2020196 0,0.081387 0.276051,0.6947531 0.346971,0.7710045 0.02739,0.029053 0.05576,0.076496 0.06456,0.1054508 0.0098,0.028955 0.03815,0.097527 0.06554,0.1521995 0.02739,0.054682 0.04989,0.128879 0.04989,0.1648282 0,0.07229 0.03228,0.1469465 0.06358,0.1469465 0.01174,0 0.02054,-0.014282 0.02054,-0.031596 0,-0.046758 0.02739,-0.038737 0.09,0.026314 0.07337,0.076594 0.11357,0.177721 0.132156,0.3321605 0.0098,0.069551 0.02739,0.1644956 0.04304,0.210892 0.03228,0.098652 0.137243,0.5191842 0.187817,0.7539543 0.05674,0.2639598 0.08315,0.2079965 0.06652,-0.1423489 -0.01565,-0.330341 0,-0.385874 0.0626,-0.1950841 0.02837,0.088234 0.03913,0.258159 0.0538,0.8383149 0.02054,0.7974552 0.01565,0.9376227 -0.04793,1.3286421 -0.07434,0.4568234 -0.273996,1.2747224 -0.345699,1.4139414 -0.01467,0.02954 -0.04304,0.11492 -0.0626,0.189801 -0.01956,0.07493 -0.138514,0.346903 -0.264997,0.604484 -0.187816,0.382822 -0.227531,0.479841 -0.21726,0.531393 0.01565,0.08002 -0.04598,0.185488 -0.16561,0.279914 -0.04793,0.03776 -0.164437,0.173329 -0.259617,0.301327 -0.09489,0.128009 -0.226358,0.299166 -0.291604,0.380367 -0.06554,0.08119 -0.118755,0.154743 -0.118852,0.163439 0,0.0088 0.02348,0.01585 0.05282,0.01585 0.07434,0 0.06652,0.04216 -0.0313,0.16115 -0.07043,0.08599 -0.0986,0.10417 -0.17236,0.113022 -0.04793,0.0059 -0.09195,0.02328 -0.09684,0.03893 -0.0098,0.02299 -4.89e-4,0.02367 0.03717,0.0029 0.128635,-0.06887 0.08315,0.119077 -0.0538,0.223824 -0.139004,0.106077 -0.207772,0.03042 -0.08608,-0.0945 0.04206,-0.04314 0.0763,-0.0852 0.0763,-0.09342 0,-0.05977 -0.115723,0.03101 -0.419358,0.329059 -0.192805,0.189196 -0.424054,0.398053 -0.513951,0.464131 -0.149079,0.109618 -0.213445,0.185713 -0.129809,0.153628 0.145264,-0.05576 0.191827,-0.02084 0.10056,0.07532 -0.102516,0.107916 -0.173045,0.149372 -0.229977,0.1351 -0.02837,-0.0068 -0.05185,-0.0271 -0.05185,-0.04421 0,-0.01722 -0.0098,-0.03101 -0.01565,-0.03081 -0.0098,2.54e-4 -0.120222,0.09596 -0.24778,0.212643 -0.256584,0.234662 -0.451737,0.371689 -0.611674,0.429521 -0.05771,0.02093 -0.242987,0.116358 -0.411239,0.211968 -0.389131,0.221222 -0.572448,0.312782 -0.737373,0.368364 -0.07239,0.02436 -0.153286,0.0585 -0.1796,0.07571 -0.03228,0.02123 -0.07434,0.02719 -0.129514,0.01849 -0.05869,-0.0088 -0.132352,0.0029 -0.2591283,0.04343 -0.1112224,0.03531 -0.2001415,0.05175 -0.2385851,0.04402 -0.075322,-0.01516 -0.3071575,0.05928 -0.3599808,0.115673 -0.030325,0.03228 -0.067496,0.0403 -0.1862509,0.0403 -0.1189502,0 -0.1772514,0.01262 -0.29268,0.06329 -0.130493,0.05732 -0.1657086,0.06339 -0.3725997,0.06398 -0.125602,4.11e-4 -0.2853434,0.01448 -0.3549919,0.0313 -0.1344058,0.03248 -0.1493724,0.03267 -0.5588505,0.0098 z M 7.0571255,15.643743 c -0.00978,-0.01164 -0.026412,-0.02113 -0.043041,-0.02113 -0.01663,0 -0.030324,0.0098 -0.030324,0.02113 0,0.01154 0.019564,0.02113 0.043041,0.02113 0.023477,0 0.037172,-0.0098 0.030324,-0.02113 z m -2.381938,-1.214378 c -0.062605,-0.04568 -0.091952,-0.03424 -0.035216,0.0135 0.02739,0.02309 0.055758,0.03619 0.063584,0.02915 0.00978,-0.0068 -0.00978,-0.02622 -0.028368,-0.04265 z M 7.937611,13.900429 c -0.014673,-0.0059 -0.03815,-0.0059 -0.052823,0 -0.014673,0.0059 0,0.01066 0.026412,0.01066 0.029346,0 0.041085,-0.0049 0.026411,-0.01066 z m 1.0434551,-0.04099 c -0.00978,-0.0068 -0.025433,-0.0078 -0.040107,-0.002 -0.016629,0.0068 -0.011738,0.01174 0.012717,0.01272 0.022499,9.19e-4 0.035216,-0.0039 0.02739,-0.01105 z M 1.7102373,11.572136 c -0.024455,-0.04646 -0.062605,-0.05458 -0.062605,-0.0135 0,0.0361 0.044019,0.07933 0.066518,0.06535 0.00978,-0.0059 0.00978,-0.02935 0,-0.05185 z M 1.48163,11.388643 c -0.01076,-0.02044 -0.041085,-0.05605 -0.067496,-0.07904 -0.05478,-0.04832 -0.036194,-0.0039 0.029346,0.06877 0.050867,0.05703 0.064562,0.06075 0.03815,0.01027 z M 15.369747,9.8018913 c 0.07239,-0.2809708 0.134112,-0.6572681 0.131862,-0.7982279 V 8.8844882 l -0.04011,0.1476312 c -0.02152,0.081191 -0.05967,0.2662586 -0.08315,0.4112487 -0.02348,0.1449901 -0.06163,0.3426665 -0.0851,0.4392744 -0.08608,0.3657815 -0.01859,0.2960545 0.07826,-0.080702 z M 3.2082659,8.3795858 c 0,-0.016727 -0.00978,-0.036291 -0.021521,-0.043432 -0.011738,-0.00685 -0.021521,0.00685 -0.021521,0.030422 0,0.023868 0.00978,0.043432 0.021521,0.043432 0.011739,0 0.021521,-0.013695 0.021521,-0.030422 z M 3.1407696,7.719295 c 0,-0.4706944 0.03815,-0.8838897 0.098212,-1.1019324 0.041085,-0.1492257 0.042063,-0.2319919 0,-0.2319919 -0.033259,0 -0.074344,0.1199968 -0.074344,0.2150102 0,0.031303 -0.020542,0.1878552 -0.044998,0.3479782 -0.053801,0.3492498 -0.066518,0.9945055 -0.022499,1.1400043 0.014673,0.049302 0.030325,0.089604 0.034237,0.089604 0,0 0.00978,-0.2064118 0.00978,-0.4586918 z M 15.363682,6.3906432 C 15.324552,6.2274389 15.206484,5.8692287 15.18555,5.8493026 c -0.03228,-0.031009 -0.0098,0.126766 0.04598,0.2798557 0.02152,0.063388 0.04011,0.1282431 0.04011,0.1441977 0,0.015945 0.01369,0.061921 0.03032,0.1021543 0.03717,0.088234 0.08217,0.099288 0.06163,0.015162 z M 3.3486389,6.2497029 c 0.01663,-0.047345 0.023477,-0.11312 0.015651,-0.1532461 -0.015651,-0.084028 0.023477,-0.1899583 0.0763,-0.2067542 0.02739,-0.0088 0.040106,-0.038541 0.044998,-0.1077692 l 0.00978,-0.095767 -0.055758,0.062018 c -0.030325,0.03414 -0.072388,0.1084148 -0.091952,0.1650629 -0.020542,0.056638 -0.05478,0.1474747 -0.0763,0.201824 -0.041085,0.1015674 -0.050867,0.1886671 -0.025433,0.2147461 0.032281,0.032672 0.077279,-0.00196 0.1045705,-0.080213 z M 3.7239775,5.3659502 C 3.7904955,5.2518715 3.7953865,5.203098 3.7337575,5.259032 3.6868035,5.301291 3.6304587,5.3978593 3.6304587,5.4352954 c 0,0.049008 0.043041,0.017021 0.093908,-0.069355 z M 14.740857,5.0865053 c -0.08413,-0.1822989 -0.12345,-0.2281573 -0.153286,-0.1798828 -0.0098,0.010271 0.0098,0.042552 0.03032,0.071898 0.02348,0.029248 0.04206,0.06329 0.04206,0.075518 0,0.012228 0.03521,0.086669 0.07923,0.1653857 0.114254,0.2075954 0.115917,0.1123277 0,-0.1329385 z M 14.406505,4.4293154 c -1.96e-4,-0.0088 -0.02935,-0.066225 -0.06456,-0.1278616 -0.04402,-0.0763 -0.07532,-0.1098528 -0.09968,-0.1052063 -0.06848,0.013206 -0.05282,0.081093 0.03913,0.1660607 0.08608,0.079724 0.125113,0.1005305 0.124624,0.067007 z M 14.195799,4.058007 c 0,-0.010173 -0.04304,-0.082659 -0.09489,-0.1612283 -0.106328,-0.1600251 -0.180378,-0.2223859 -0.218528,-0.1841869 -0.03913,0.039422 -0.02837,0.074637 0.06358,0.200924 0.143993,0.1982047 0.164339,0.2164189 0.210217,0.187777 0.02152,-0.013695 0.04011,-0.033161 0.04011,-0.043237 z M 9.8619429,3.4960947 c -0.00978,-0.011641 -0.029346,-0.020445 -0.04891,-0.019564 -0.029346,9.782e-4 -0.02739,0.00489 0.00978,0.019564 0.056736,0.024259 0.056736,0.024259 0.042063,0 z m -0.094886,-0.030911 c 0,-0.00587 -0.1542635,-0.058203 -0.3427643,-0.1174242 C 9.2357916,3.2885775 9.0341828,3.222656 8.9761751,3.2012822 8.8551707,3.1566759 8.1684682,3.0525651 7.9955209,3.0525847 c -0.063584,0 -0.15397,-0.013108 -0.2003371,-0.029053 -0.089017,-0.030814 -0.2581492,-0.017901 -0.3099943,0.023575 -0.014673,0.01213 -0.155633,0.03365 -0.3121463,0.047834 -0.1690345,0.01526 -0.3490249,0.045682 -0.4429329,0.074637 -0.08706,0.026901 -0.2423022,0.069551 -0.345112,0.094788 -0.2097279,0.051455 -0.4880282,0.1701507 -0.4309009,0.1837381 0.019564,0.00489 0.1668824,-0.026607 0.3269174,-0.069649 0.5778278,-0.1553395 0.8497698,-0.1958765 1.4297496,-0.2131712 0.4084999,-0.012228 0.5744041,0.00293 0.9849583,0.089213 0.080213,0.016923 0.1796969,0.030716 0.2207816,0.030716 0.091952,0 0.3883488,0.06329 0.6818114,0.1456357 0.1634587,0.045878 0.168741,0.046954 0.168741,0.034334 z M 13.225611,2.9054719 c -0.0851,-0.1069476 -0.154459,-0.1583133 -0.166393,-0.1225011 -0.0098,0.026803 0.176078,0.2069694 0.212467,0.2069694 0.01174,0 -0.0098,-0.038052 -0.04598,-0.084419 z M 8.3905216,2.8295629 c -0.00978,-0.00685 -0.025433,-0.00783 -0.040107,-0.00196 -0.016629,0.00685 -0.011738,0.011738 0.012717,0.012717 0.022499,9.195e-4 0.034237,-0.00391 0.02739,-0.011054 z M 12.442947,2.1434572 c -0.06261,-0.048323 -0.291213,-0.1869161 -0.308625,-0.1869161 -0.01956,0 0.156709,0.1495387 0.255606,0.2173188 0.09489,0.064953 0.141449,0.03815 0.05282,-0.030422 z m 0.106331,-0.1360786 c -0.0626,-0.06642 -0.350883,-0.2620327 -0.385121,-0.2609763 -0.0137,4.109e-4 0,0.024944 0.03913,0.054584 0.06163,0.052628 0.370839,0.25991 0.388544,0.2606534 0.0098,2.152e-4 -0.0137,-0.024162 -0.04206,-0.054193 z M 3.5878109,1.7983648 c 0,-0.017412 -0.00978,-0.031596 -0.018586,-0.031596 -0.00978,0 -0.030324,0.014184 -0.044998,0.031596 -0.021521,0.026412 -0.018586,0.031596 0.018586,0.031596 0.025433,0 0.044998,-0.013499 0.044998,-0.031596 z M 11.758103,1.7224558 C 11.702345,1.6604374 11.45388,1.5186265 11.253836,1.4342951 11.160907,1.3951667 11.066118,1.3463541 11.042935,1.3258509 11.006741,1.2940591 10.771188,1.1972947 10.729712,1.1972947 c -0.0098,0 -0.0137,0.019173 -0.0137,0.04265 0,0.026118 0.02054,0.050476 0.05282,0.062801 0.02935,0.011054 0.09293,0.03815 0.142329,0.060258 0.04891,0.022108 0.113277,0.04715 0.142329,0.055758 0.02935,0.0088 0.199164,0.090386 0.378078,0.1817708 0.178914,0.091365 0.334645,0.1661487 0.345992,0.1661487 0.01174,0 0,-0.019956 -0.01956,-0.044215 z m 0.308136,-0.050182 C 12.038849,1.6435143 11.950614,1.5804199 11.86913,1.5320964 11.787938,1.4836751 11.689433,1.4226348 11.650696,1.3963504 11.349505,1.1919537 10.484671,0.84855359 10.210479,0.82448966 c -0.09,-0.007826 -0.109364,-0.004891 -0.0851,0.0137927 0.06065,0.045878 0.222249,0.11005825 0.379545,0.15050717 0.08706,0.0223032 0.243672,0.082463 0.348047,0.13360377 0.104374,0.05116 0.351079,0.1654053 0.548285,0.2539527 0.197207,0.088528 0.377491,0.1718321 0.400675,0.1850673 0.106722,0.060942 0.296201,0.1621479 0.304223,0.1625783 0.0098,2.641e-4 -0.01272,-0.022988 -0.04011,-0.051747 z M 10.528103,1.1633411 c 0.02348,-0.028759 0.0225,-0.038248 -0.01076,-0.062214 C 10.473324,1.0688461 10.194534,0.98240187 10.013957,0.94501474 9.9249397,0.9265266 9.8829744,0.90598421 9.8583236,0.86822536 9.8299555,0.82547765 9.813326,0.81882583 9.757079,0.82939048 9.7071903,0.83917257 9.6541714,0.82547765 9.5521443,0.77715414 9.4768222,0.74144953 9.3929897,0.71220109 9.3663825,0.71220109 c -0.026412,0 -0.087061,-0.0105646 -0.1349928,-0.023477 -0.1519158,-0.0410848 -0.1546548,-0.0426499 -0.1084834,-0.0597686 0.022499,-0.008804 0.1082877,-0.002935 0.1898703,0.0128145 0.081191,0.0155535 0.1766645,0.0274877 0.2113909,0.0266073 l 0.063584,-0.001956 -0.073366,-0.0323787 C 9.4023805,0.58493616 9.1561654,0.54776423 8.8322806,0.53099774 l -0.2917996,-0.0151622 0.00978,0.0503777 c 0,0.0305201 0.023477,0.0534102 0.04891,0.0580078 0.023477,0.003913 0.061627,0.0257269 0.086082,0.0478344 0.030325,0.0280746 0.097821,0.0463671 0.2213686,0.0608446 0.3546985,0.0410848 0.498006,0.0699419 0.7050928,0.14193806 0.1159177,0.0403022 0.2630403,0.0903865 0.3268196,0.11126145 0.184784,0.0604532 0.384925,0.13762405 0.453498,0.17492315 0.08021,0.043726 0.104081,0.044117 0.138905,0.00196 z m -3.6082202,-0.39871781 0.094886,-0.0313027 -0.1526005,0.005869 c -0.084126,0.002935 -0.1640456,0.0175099 -0.1781318,0.0315961 -0.037172,0.0375632 0.1153308,0.0334547 0.2357483,-0.005869 z m -1.223152,-0.0650509 c 0.045976,-0.0243574 0.046954,-0.0278789 0.01076,-0.0278789 -0.023477,1.956e-5 -0.075322,0.0186838 -0.1160156,0.0413782 -0.073366,0.0412804 -0.073366,0.0412804 -0.01076,0.0278789 0.035216,-0.007826 0.087061,-0.0260203 0.1160156,-0.0413782 z m 1.5482107,0.0366828 c 0.017608,-0.0279768 0.5337106,-0.0546819 0.9140381,-0.0472475 0.2151081,0.003913 0.3426665,-9.7821e-4 0.3426665,-0.0139884 0,-0.0194664 -0.059671,-0.0304223 -0.3321997,-0.0610402 -0.074344,-0.007826 -0.1106354,-0.0221075 -0.1106354,-0.041476 0,-0.016923 0.022499,-0.0290528 0.052823,-0.0290528 0.074344,0 0.06554,-0.0290528 -0.017608,-0.058986 -0.073365,-0.0266072 -0.2827017,-0.0343351 -0.3395356,-0.012521 -0.036194,0.0139884 -0.045976,0.071507 -0.012717,0.071507 0.011739,0 0.021521,0.0138906 0.021521,0.0308136 0,0.0424542 -0.1330363,0.074833 -0.3543071,0.0863758 -0.2038587,0.0105646 -0.359883,0.04803 -0.3159614,0.075909 0.036194,0.0227923 0.137634,0.0225966 0.1517202,-2.739e-4 z M 7.2058132,0.61676706 c 0.1267758,-0.0177056 0.2494431,-0.0381501 0.2726267,-0.0455845 0.03815,-0.0121298 0.036194,-0.0162383 -0.021521,-0.0406935 -0.078257,-0.0337482 -0.2085541,-0.0364872 -0.3058858,-0.006847 -0.040107,0.0125211 -0.1488834,0.0291506 -0.2407372,0.0368785 -0.096843,0.007826 -0.1705017,0.0244552 -0.1751971,0.0387371 -0.017608,0.0543884 0.1574916,0.0607467 0.4703227,0.0171187 z m -1.129831,-0.0330634 c 0.028368,-0.0159448 0.028368,-0.0179012 0,-0.0178034 -0.017608,6.847e-5 -0.055758,0.0143797 -0.084126,0.0318896 l -0.052823,0.0317918 0.052823,-0.0139884 c 0.029346,-0.007826 0.067496,-0.0220097 0.084126,-0.0318896 z M 7.2781028,0.23763298 c 0,-0.0386392 -0.01076,-0.0527254 -0.042063,-0.0527254 -0.041085,0 -0.059671,0.0599642 -0.028368,0.0913647 0.032281,0.0319874 0.070431,0.0109559 0.070431,-0.0386393 z M 4.0829801,14.789366 c -0.250128,-0.101998 -0.3963702,-0.191269 -0.4074239,-0.248631 -0.00978,-0.02876 0.00978,-0.036 0.071409,-0.036 0.055758,0 0.1555352,0.04011 0.3442316,0.138622 0.2609861,0.136216 0.3394384,0.187777 0.3394384,0.223169 0,0.0406 -0.1297105,0.01184 -0.3479488,-0.07718 z m 8.8049539,-0.764695 c 0,-0.02954 0.208554,-0.215871 0.241617,-0.215871 0.05674,0 0.03522,0.03639 -0.08021,0.135452 -0.105845,0.09039 -0.161114,0.118021 -0.161114,0.08041 z M 3.0475463,13.60902 c -0.1373405,-0.07816 -0.3124398,-0.249776 -0.2975711,-0.291614 0.015651,-0.04353 0.102125,-0.01712 0.182925,0.05595 0.043041,0.03854 0.1320582,0.110322 0.1985764,0.159458 0.1153308,0.0852 0.1398838,0.132694 0.074344,0.144139 -0.016629,0.0029 -0.088039,-0.02768 -0.1584698,-0.06789 z M 0.97384191,4.8677779 c -0.0264116,-0.01663 -0.0136949,-0.046758 0.0743438,-0.1665302 0,-0.00391 0.014673,-0.00196 0.026412,0.00587 0.013695,0.0088 0.013695,0.033455 -2.935e-4,0.074735 -0.02739,0.07767 -0.063584,0.1090214 -0.10095106,0.086082 z M 1.213503,4.3266133 C 1.233067,4.2468893 1.268283,4.2055111 1.293716,4.2311403 1.318171,4.2556933 1.269261,4.3639614 1.227198,4.3776564 1.204699,4.3854864 1.201765,4.3737464 1.213503,4.3265944 Z m 0.7499925,-1.033761 c 0,-0.038737 0.1711865,-0.2186688 0.208065,-0.2186688 0.044998,0 0.023477,0.052823 -0.062605,0.1529038 -0.08706,0.1017044 -0.1458509,0.1281649 -0.1458509,0.065736 z M 1.803265,3.1005463 C 1.878587,2.9578452 2.4888913,2.4348655 2.7166183,2.3177544 c 0.044019,-0.022597 0.1074073,-0.070138 0.1411555,-0.1055585 0.033259,-0.035411 0.069453,-0.059475 0.079235,-0.05341 0.019564,0.01213 0.1311778,-0.044606 0.197109,-0.1003055 0.063584,-0.053606 0.1581764,-0.072583 0.1581764,-0.031694 0,0.059866 -0.5006472,0.4556985 -0.6807354,0.5382691 -0.075322,0.034335 -0.1904572,0.114871 -0.269203,0.18764 -0.0763,0.070137 -0.1720669,0.1417033 -0.2135429,0.1590567 C 2.0867498,2.9290663 1.9997871,2.9917695 1.9344427,3.0509217 1.801602,3.1711729 1.7571913,3.1880079 1.8034606,3.1005169 Z m 0.4344224,-0.129554 c 0,-0.04578 0.060649,-0.076789 0.090973,-0.046563 0.031303,0.031107 3.913e-4,0.086474 -0.047932,0.086474 -0.02739,0 -0.043041,-0.013891 -0.043041,-0.039911 z M 3.0852073,2.0183932 c 0.00978,-0.01526 0.021521,-0.03189 0.037172,-0.036878 0.015651,-0.00489 0.023477,0.00293 0.018586,0.018488 -0.00978,0.01526 -0.021521,0.031792 -0.037172,0.036879 -0.015651,0.00489 -0.023477,-0.00293 -0.018586,-0.018489 z m 3.2912806,-1.217136 c -0.063584,-0.0102712 -0.059671,-0.043139 0.00978,-0.0686702 0.059671,-0.0228901 0.09293,-0.0117385 0.09293,0.0313027 0,0.0341395 -0.036194,0.0477366 -0.1001685,0.0373676 z M 6.2121489,0.31004976 c -0.019564,-0.0313027 -0.00978,-0.0406935 0.083148,-0.0549753 0.059671,-0.009782 0.0763,-0.005869 0.0763,0.0197598 0,0.0531167 -0.1301996,0.0819739 -0.1590567,0.0352155 z M 9.0743872,0.14972137 c 0.00978,-0.0464649 0.090973,-0.05272544 0.090973,-0.006847 0,0.0174121 -0.022499,0.0348242 -0.04891,0.0386392 -0.03815,0.005869 -0.047932,-0.001956 -0.042063,-0.0315961 z"
       id="path1108"
       sodipodi:nodetypes="sssssssssssssssssssssssssssssssssssssssssssssssssssssssssssssssssssssssssssssssssssssssssssssssssssscssssssssssssssssssssssssssssssssssssssssssssssssssssssssssssssssssssssssssssssssssssssssssssssssssssssssssssssssssssssssssssssssssssssssssssssssssssssssssssssssssssssssssssssscssssssssssssssssssssssssssssscsssssssssssssssssssssssssssssssssssssssssssssssssssssssssssssscssssssssssssssssssssssssssssssssssssssscsscssssssssscsssssssssssssssssssssssssssssscscssssssssssssssssssssssssssssssssssssssssssssssssssssssssssssssssssss" />
  </g>
</svg>
