<?xml version="1.0" encoding="UTF-8" standalone="no"?>
<!-- Created with Inkscape (http://www.inkscape.org/) -->

<svg
   xmlns:dc="http://purl.org/dc/elements/1.1/"
   xmlns:cc="http://creativecommons.org/ns#"
   xmlns:rdf="http://www.w3.org/1999/02/22-rdf-syntax-ns#"
   xmlns:svg="http://www.w3.org/2000/svg"
   xmlns="http://www.w3.org/2000/svg"
   xmlns:sodipodi="http://sodipodi.sourceforge.net/DTD/sodipodi-0.dtd"
   xmlns:inkscape="http://www.inkscape.org/namespaces/inkscape"
   width="16"
   height="16"
   id="svg4159"
   version="1.1"
   inkscape:version="0.92.4 5da689c313, 2019-01-14"
   viewBox="0 0 16 16"
   sodipodi:docname="opera-symbolic.svg">
  <title
     id="title815">Boston Icons</title>
  <defs
     id="defs4161">
    <inkscape:perspective
       sodipodi:type="inkscape:persp3d"
       inkscape:vp_x="0 : 8 : 1"
       inkscape:vp_y="0 : 1000 : 0"
       inkscape:vp_z="16 : 8 : 1"
       inkscape:persp3d-origin="8 : 5.3333333 : 1"
       id="perspective4709" />
  </defs>
  <sodipodi:namedview
     id="base"
     pagecolor="#ffffff"
     bordercolor="#00fff6"
     borderopacity="1"
     inkscape:pageopacity="0"
     inkscape:pageshadow="2"
     inkscape:zoom="22.197802"
     inkscape:cx="7.5269802"
     inkscape:cy="9.8470297"
     inkscape:current-layer="layer1"
     showgrid="false"
     inkscape:grid-bbox="true"
     inkscape:document-units="px"
     inkscape:window-width="1920"
     inkscape:window-height="1016"
     inkscape:window-x="0"
     inkscape:window-y="27"
     inkscape:window-maximized="1">
    <inkscape:grid
       type="xygrid"
       id="grid4707" />
  </sodipodi:namedview>
  <metadata
     id="metadata4164">
    <rdf:RDF>
      <cc:Work
         rdf:about="">
        <dc:format>image/svg+xml</dc:format>
        <dc:type
           rdf:resource="http://purl.org/dc/dcmitype/StillImage" />
        <dc:title>Boston Icons</dc:title>
        <cc:license
           rdf:resource="dribbble.com/chrisdiaz" />
        <dc:creator>
          <cc:Agent>
            <dc:title>Christian Díaz</dc:title>
          </cc:Agent>
        </dc:creator>
        <dc:description>diazchris.deviantart.com | dribbble.com/chrisdiaz</dc:description>
        <dc:date>2019</dc:date>
        <dc:publisher>
          <cc:Agent>
            <dc:title>Christian Díaz</dc:title>
          </cc:Agent>
        </dc:publisher>
        <dc:identifier>christiandiaz.design [at] gmail [dot] com</dc:identifier>
        <dc:subject>
          <rdf:Bag>
            <rdf:li>GNOME icon Theme</rdf:li>
          </rdf:Bag>
        </dc:subject>
      </cc:Work>
    </rdf:RDF>
  </metadata>
  <g
     id="layer1"
     inkscape:label="Layer 1"
     inkscape:groupmode="layer">
    <path
       style="opacity:1;fill:#252627;fill-opacity:1;fill-rule:nonzero;stroke:none;stroke-width:2.95182467;stroke-linecap:butt;stroke-linejoin:miter;stroke-miterlimit:4;stroke-dasharray:none;stroke-dashoffset:0;stroke-opacity:1"
       d="M 8.4808785,0.0427252 C 3.9081261,0.0427252 0.2,3.6134966 0.2,8.020066 0.20000023,12.426634 3.9081265,16 8.4808785,16 c 2.4241645,0 4.5975405,-1.011599 6.1117555,-2.611567 -1.244981,1.272941 -2.924023,2.07473 -4.809206,2.07473 -3.904738,0 -6.9783284,-3.387735 -6.9783288,-7.443097 2e-7,-4.0553662 3.0735908,-7.4405041 6.9783288,-7.4405041 1.887287,1.2e-7 3.569214,0.8018824 4.814588,2.0773244 C 13.08363,1.0541901 10.90741,0.04272532 8.4808785,0.0427252 Z M 9.783428,1.8451479 c -0.9424073,0 -1.8244552,0.2824746 -2.6131728,0.7417163 C 7.5784201,2.4317953 8.0087471,2.322336 8.4808785,2.322336 c 2.6130015,-10e-8 4.3194065,2.5501806 4.3194065,5.69773 0,3.147549 -1.706405,5.700324 -4.3194065,5.700324 -0.4669159,0 -0.8927616,-0.107555 -1.2971669,-0.259344 0.7854537,0.454371 1.6626555,0.736531 2.5997164,0.736531 3.051938,0 5.616572,-2.712073 5.616572,-6.177511 0,-3.4654432 -2.564634,-6.1749179 -5.616572,-6.1749181 z"
       id="path4221"
       inkscape:connector-curvature="0"
       sodipodi:nodetypes="ssscssscsscssscsss" />
  </g>
</svg>
