<?xml version="1.0" encoding="UTF-8" standalone="no"?>
<!-- Created with Inkscape (http://www.inkscape.org/) -->

<svg
   width="16"
   height="16"
   id="svg4159"
   version="1.1"
   inkscape:version="1.1.2 (0a00cf5339, 2022-02-04, custom)"
   viewBox="0 0 16 16"
   sodipodi:docname="pidgin-symbolic.svg"
   xmlns:inkscape="http://www.inkscape.org/namespaces/inkscape"
   xmlns:sodipodi="http://sodipodi.sourceforge.net/DTD/sodipodi-0.dtd"
   xmlns="http://www.w3.org/2000/svg"
   xmlns:svg="http://www.w3.org/2000/svg"
   xmlns:rdf="http://www.w3.org/1999/02/22-rdf-syntax-ns#"
   xmlns:cc="http://creativecommons.org/ns#"
   xmlns:dc="http://purl.org/dc/elements/1.1/">
  <title
     id="title4518">Boston Icons</title>
  <defs
     id="defs4161">
    <inkscape:perspective
       sodipodi:type="inkscape:persp3d"
       inkscape:vp_x="0 : 8 : 1"
       inkscape:vp_y="0 : 1000 : 0"
       inkscape:vp_z="16 : 8 : 1"
       inkscape:persp3d-origin="8 : 5.3333333 : 1"
       id="perspective4709" />
  </defs>
  <sodipodi:namedview
     id="base"
     pagecolor="#ffffff"
     bordercolor="#00fff6"
     borderopacity="1"
     inkscape:pageopacity="0"
     inkscape:pageshadow="2"
     inkscape:zoom="31.392433"
     inkscape:cx="6.3072525"
     inkscape:cy="8.138904"
     inkscape:current-layer="g4778"
     showgrid="false"
     inkscape:grid-bbox="true"
     inkscape:document-units="px"
     inkscape:window-width="1920"
     inkscape:window-height="1011"
     inkscape:window-x="0"
     inkscape:window-y="0"
     inkscape:window-maximized="1"
     showguides="true"
     inkscape:guide-bbox="true"
     inkscape:pagecheckerboard="0">
    <inkscape:grid
       type="xygrid"
       id="grid4707" />
  </sodipodi:namedview>
  <metadata
     id="metadata4164">
    <rdf:RDF>
      <cc:Work
         rdf:about="">
        <dc:format>image/svg+xml</dc:format>
        <dc:type
           rdf:resource="http://purl.org/dc/dcmitype/StillImage" />
        <dc:title>Boston Icons</dc:title>
        <cc:license
           rdf:resource="dribbble.com/chrisdiaz" />
        <dc:creator>
          <cc:Agent>
            <dc:title>Christian Díaz</dc:title>
          </cc:Agent>
        </dc:creator>
        <dc:date>2022</dc:date>
        <dc:publisher>
          <cc:Agent>
            <dc:title>Christian Díaz</dc:title>
          </cc:Agent>
        </dc:publisher>
        <dc:subject>
          <rdf:Bag>
            <rdf:li>GNOME icon Theme</rdf:li>
          </rdf:Bag>
        </dc:subject>
        <dc:identifier>christiandiaz.design [at] gmail [dot] com</dc:identifier>
        <dc:description>dribbble.com/chrisdiaz | diazchris.deviantart.com</dc:description>
      </cc:Work>
    </rdf:RDF>
  </metadata>
  <g
     id="layer1"
     inkscape:label="Layer 1"
     inkscape:groupmode="layer">
    <g
       id="g4778">
      <path
         id="path1607"
         style="fill:#252627;fill-opacity:1;stroke:none;stroke-width:5;stroke-linejoin:round"
         d="M 2 0 C 1.965375 0 1.9321362 0.0024575195 1.8984375 0.005859375 C 1.8647388 0.0092612305 1.8314355 0.012892578 1.7988281 0.01953125 C 1.7662207 0.026169922 1.7325229 0.035211426 1.7011719 0.044921875 C 1.6698208 0.054632324 1.6393047 0.065507812 1.609375 0.078125 C 1.5794453 0.090742188 1.5517808 0.10573486 1.5234375 0.12109375 C 1.4950942 0.13645264 1.4660449 0.15198632 1.4394531 0.16992188 C 1.4128613 0.18785741 1.3879566 0.20816847 1.3632812 0.22851562 C 1.338606 0.24886279 1.3155624 0.270375 1.2929688 0.29296875 C 1.270375 0.3155625 1.2488628 0.33860596 1.2285156 0.36328125 C 1.2081685 0.38795654 1.1878574 0.41286134 1.1699219 0.43945312 C 1.1519863 0.46604492 1.1364525 0.49509424 1.1210938 0.5234375 C 1.1057349 0.55178076 1.0907422 0.57944531 1.078125 0.609375 C 1.0655078 0.63930469 1.0546323 0.6698208 1.0449219 0.70117188 C 1.0352114 0.73252295 1.0261699 0.7662207 1.0195312 0.79882812 C 1.0128926 0.83143555 1.0092612 0.86473877 1.0058594 0.8984375 C 1.0024575 0.93213623 1 0.965375 1 1 L 1 7 C 1 7.034625 1.0024575 7.0678638 1.0058594 7.1015625 C 1.0092612 7.1352612 1.0128926 7.1685645 1.0195312 7.2011719 C 1.0261699 7.2337793 1.0352114 7.2674771 1.0449219 7.2988281 C 1.0546323 7.3301792 1.0655078 7.3606953 1.078125 7.390625 C 1.0907422 7.4205547 1.1057348 7.4482192 1.1210938 7.4765625 C 1.1364526 7.5049058 1.1519863 7.5339551 1.1699219 7.5605469 C 1.1878574 7.5871387 1.2081685 7.6120435 1.2285156 7.6367188 C 1.2488628 7.6613939 1.2703749 7.6844375 1.2929688 7.7070312 C 1.3155625 7.7296251 1.3386061 7.7511372 1.3632812 7.7714844 C 1.3879565 7.7918315 1.4128613 7.8121426 1.4394531 7.8300781 C 1.4660449 7.8480137 1.4950942 7.8635474 1.5234375 7.8789062 C 1.5517808 7.8942651 1.5794453 7.9092578 1.609375 7.921875 C 1.6393047 7.9344922 1.6698208 7.9453677 1.7011719 7.9550781 C 1.7325229 7.9647886 1.7662207 7.97383 1.7988281 7.9804688 C 1.8314355 7.9871074 1.8647388 7.9907388 1.8984375 7.9941406 C 1.9321362 7.9975425 1.965375 8 2 8 L 4 8 L 4 6 L 3 6 L 3 2 L 5 2 L 9 2 L 9 3 L 11 3 L 11 1 C 11 0.965375 10.997542 0.93213623 10.994141 0.8984375 C 10.990739 0.86473877 10.987107 0.83143555 10.980469 0.79882812 C 10.97383 0.7662207 10.964789 0.73252294 10.955078 0.70117188 C 10.945368 0.6698208 10.934492 0.63930469 10.921875 0.609375 C 10.909258 0.57944531 10.894265 0.55178076 10.878906 0.5234375 C 10.863547 0.49509424 10.848014 0.46604493 10.830078 0.43945312 C 10.812143 0.41286134 10.791832 0.38795654 10.771484 0.36328125 C 10.751137 0.33860596 10.729625 0.3155625 10.707031 0.29296875 C 10.684437 0.270375 10.661394 0.24886279 10.636719 0.22851562 C 10.612043 0.20816846 10.587139 0.18785741 10.560547 0.16992188 C 10.533955 0.15198633 10.504907 0.13645264 10.476562 0.12109375 C 10.44822 0.10573486 10.420555 0.090742188 10.390625 0.078125 C 10.360695 0.065507812 10.330179 0.054632324 10.298828 0.044921875 C 10.267477 0.035211426 10.233779 0.026169922 10.201172 0.01953125 C 10.168564 0.012892578 10.135261 0.0092612305 10.101562 0.005859375 C 10.067865 0.0024575195 10.034625 0 10 0 L 2 0 z M 6 4 C 5.93075 4 5.864043 4.0062539 5.7988281 4.0195312 C 5.7336133 4.0328086 5.6692344 4.0528906 5.609375 4.078125 C 5.5495156 4.1033594 5.4926367 4.1340508 5.4394531 4.1699219 C 5.3862695 4.205793 5.3381561 4.2477812 5.2929688 4.2929688 C 5.2477813 4.3381562 5.205793 4.3862695 5.1699219 4.4394531 C 5.1340508 4.4926367 5.1033594 4.5495156 5.078125 4.609375 C 5.0528906 4.6692344 5.0328086 4.7336133 5.0195312 4.7988281 C 5.0062539 4.864043 5 4.93075 5 5 L 5 11 C 5 11.06925 5.0062539 11.135957 5.0195312 11.201172 C 5.0328086 11.266387 5.0528906 11.330766 5.078125 11.390625 C 5.1033594 11.450484 5.1340508 11.507363 5.1699219 11.560547 C 5.205793 11.61373 5.2477812 11.661844 5.2929688 11.707031 C 5.3381562 11.752219 5.3862695 11.794207 5.4394531 11.830078 C 5.4926367 11.865949 5.5495156 11.896641 5.609375 11.921875 C 5.6692344 11.947109 5.7336133 11.967191 5.7988281 11.980469 C 5.864043 11.993746 5.93075 12 6 12 L 12 12 L 15 16 L 15 11 L 15 10 L 15 5 C 15 4.93075 14.993746 4.864043 14.980469 4.7988281 C 14.967191 4.7336133 14.947109 4.6692344 14.921875 4.609375 C 14.896641 4.5495156 14.865949 4.4926367 14.830078 4.4394531 C 14.794207 4.3862695 14.752219 4.3381561 14.707031 4.2929688 C 14.661844 4.2477813 14.61373 4.205793 14.560547 4.1699219 C 14.507363 4.1340508 14.450484 4.1033594 14.390625 4.078125 C 14.330766 4.0528906 14.266387 4.0328086 14.201172 4.0195312 C 14.135957 4.0062539 14.06925 4 14 4 L 6 4 z M 7 6 L 13 6 L 13 10 L 7 10 L 7 6 z " />
    </g>
  </g>
</svg>
