<?xml version="1.0" encoding="UTF-8" standalone="no"?>
<!-- Created with Inkscape (http://www.inkscape.org/) -->

<svg
   width="16"
   height="16"
   id="svg4159"
   version="1.1"
   inkscape:version="1.1.2 (0a00cf5339, 2022-02-04, custom)"
   viewBox="0 0 16 16"
   sodipodi:docname="system-software-install-symbolic.svg"
   xmlns:inkscape="http://www.inkscape.org/namespaces/inkscape"
   xmlns:sodipodi="http://sodipodi.sourceforge.net/DTD/sodipodi-0.dtd"
   xmlns="http://www.w3.org/2000/svg"
   xmlns:svg="http://www.w3.org/2000/svg"
   xmlns:rdf="http://www.w3.org/1999/02/22-rdf-syntax-ns#"
   xmlns:cc="http://creativecommons.org/ns#"
   xmlns:dc="http://purl.org/dc/elements/1.1/">
  <title
     id="title815">Boston Icons</title>
  <defs
     id="defs4161">
    <inkscape:perspective
       sodipodi:type="inkscape:persp3d"
       inkscape:vp_x="0 : 8 : 1"
       inkscape:vp_y="0 : 1000 : 0"
       inkscape:vp_z="16 : 8 : 1"
       inkscape:persp3d-origin="8 : 5.3333333 : 1"
       id="perspective4709" />
  </defs>
  <sodipodi:namedview
     id="base"
     pagecolor="#ffffff"
     bordercolor="#00fff6"
     borderopacity="1"
     inkscape:pageopacity="0"
     inkscape:pageshadow="2"
     inkscape:zoom="31.392432"
     inkscape:cx="5.9249949"
     inkscape:cy="8.8397102"
     inkscape:current-layer="layer1"
     showgrid="false"
     inkscape:grid-bbox="true"
     inkscape:document-units="px"
     inkscape:window-width="1920"
     inkscape:window-height="1011"
     inkscape:window-x="0"
     inkscape:window-y="0"
     inkscape:window-maximized="1"
     showguides="true"
     inkscape:guide-bbox="true"
     inkscape:pagecheckerboard="0">
    <inkscape:grid
       type="xygrid"
       id="grid4707" />
  </sodipodi:namedview>
  <metadata
     id="metadata4164">
    <rdf:RDF>
      <cc:Work
         rdf:about="">
        <dc:format>image/svg+xml</dc:format>
        <dc:type
           rdf:resource="http://purl.org/dc/dcmitype/StillImage" />
        <dc:title>Boston Icons</dc:title>
        <cc:license
           rdf:resource="https://dribbble.com/chrisdiaz" />
        <dc:creator>
          <cc:Agent>
            <dc:title>Christian Díaz</dc:title>
          </cc:Agent>
        </dc:creator>
        <dc:description>diazchris.deviantart.com | dribbble.com/chrisdiaz</dc:description>
        <dc:date>2019</dc:date>
        <dc:publisher>
          <cc:Agent>
            <dc:title>Christian Díaz</dc:title>
          </cc:Agent>
        </dc:publisher>
        <dc:identifier>christiandiaz.design [at] gmail [dot] com</dc:identifier>
        <dc:subject>
          <rdf:Bag>
            <rdf:li>GNOME icon Theme</rdf:li>
          </rdf:Bag>
        </dc:subject>
      </cc:Work>
    </rdf:RDF>
  </metadata>
  <g
     id="layer1"
     inkscape:label="Layer 1"
     inkscape:groupmode="layer">
    <path
       id="rect4750"
       style="opacity:1;fill:#252627;fill-opacity:1;fill-rule:nonzero;stroke:none;stroke-width:2;stroke-linecap:square;stroke-linejoin:bevel;stroke-miterlimit:4;stroke-dasharray:none;stroke-dashoffset:35;stroke-opacity:1"
       d="M 6 0 L 4 2 L 4 4 L 1 4 L 0 4 L 0 5 L 0 15 C 0 15.06925 0.0062539063 15.135957 0.01953125 15.201172 C 0.032808594 15.266387 0.052890625 15.330766 0.078125 15.390625 C 0.10335938 15.450484 0.13405077 15.507363 0.16992188 15.560547 C 0.20579296 15.61373 0.24778125 15.661844 0.29296875 15.707031 C 0.33815625 15.752219 0.38626954 15.794207 0.43945312 15.830078 C 0.49263672 15.865949 0.54951562 15.896641 0.609375 15.921875 C 0.66923438 15.947109 0.73361329 15.967191 0.79882812 15.980469 C 0.86404297 15.993746 0.93075 16 1 16 L 15 16 C 15.06925 16 15.135957 15.993746 15.201172 15.980469 C 15.266387 15.967191 15.330766 15.947109 15.390625 15.921875 C 15.450484 15.896641 15.507363 15.865949 15.560547 15.830078 C 15.61373 15.794207 15.661844 15.752219 15.707031 15.707031 C 15.752219 15.661844 15.794207 15.61373 15.830078 15.560547 C 15.865949 15.507363 15.896641 15.450484 15.921875 15.390625 C 15.947109 15.330766 15.967191 15.266387 15.980469 15.201172 C 15.993746 15.135957 16 15.06925 16 15 L 16 5 L 16 4 L 15 4 L 12 4 L 12 2 L 10 0 L 6 0 z M 6 2 L 10 2 L 10 4 L 6 4 L 6 2 z M 0.79882812 4.0195312 C 0.73361329 4.0328086 0.66923438 4.0528906 0.609375 4.078125 C 0.54951562 4.1033594 0.49263672 4.1340508 0.43945312 4.1699219 C 0.49263672 4.1340508 0.54951562 4.1033594 0.609375 4.078125 C 0.66923438 4.0528906 0.73361329 4.0328086 0.79882812 4.0195312 z M 15.201172 4.0195312 C 15.266387 4.0328086 15.330766 4.0528906 15.390625 4.078125 C 15.450484 4.1033594 15.507363 4.1340508 15.560547 4.1699219 C 15.507363 4.1340508 15.450484 4.1033594 15.390625 4.078125 C 15.330766 4.0528906 15.266387 4.0328086 15.201172 4.0195312 z M 0.41992188 4.1835938 C 0.40038056 4.1976376 0.38157753 4.2129988 0.36328125 4.2285156 C 0.38152478 4.2130436 0.4004408 4.1976018 0.41992188 4.1835938 z M 15.580078 4.1835938 C 15.599559 4.1976018 15.618475 4.2130436 15.636719 4.2285156 C 15.618422 4.2129988 15.599619 4.1976376 15.580078 4.1835938 z M 0.22851562 4.3632812 C 0.21299884 4.3815775 0.19763761 4.4003806 0.18359375 4.4199219 C 0.1976018 4.4004408 0.21304358 4.3815248 0.22851562 4.3632812 z M 15.771484 4.3632812 C 15.786956 4.3815248 15.802398 4.4004408 15.816406 4.4199219 C 15.802362 4.4003806 15.787001 4.3815775 15.771484 4.3632812 z M 0.16992188 4.4394531 C 0.13405078 4.4926367 0.10335938 4.5495156 0.078125 4.609375 C 0.052890625 4.6692344 0.032808594 4.7336133 0.01953125 4.7988281 C 0.032808594 4.7336133 0.052890625 4.6692344 0.078125 4.609375 C 0.10335938 4.5495156 0.13405077 4.4926367 0.16992188 4.4394531 z M 15.830078 4.4394531 C 15.865949 4.4926367 15.896641 4.5495156 15.921875 4.609375 C 15.947109 4.6692344 15.967191 4.7336133 15.980469 4.7988281 C 15.967191 4.7336133 15.947109 4.6692344 15.921875 4.609375 C 15.896641 4.5495156 15.865949 4.4926367 15.830078 4.4394531 z M 5 6 A 1 1.0000001 0 0 1 6 7 A 1 1.0000001 0 0 1 5 8 A 1 1.0000001 0 0 1 4 7 A 1 1.0000001 0 0 1 5 6 z M 8 6 A 1 1.0000001 0 0 1 9 7 A 1 1.0000001 0 0 1 8 8 A 1 1.0000001 0 0 1 7 7 A 1 1.0000001 0 0 1 8 6 z M 11 6 A 1 1.0000001 0 0 1 12 7 A 1 1.0000001 0 0 1 11 8 A 1 1.0000001 0 0 1 10 7 A 1 1.0000001 0 0 1 11 6 z M 5 9 A 1 1.0000001 0 0 1 6 10 A 1 1.0000001 0 0 1 5 11 A 1 1.0000001 0 0 1 4 10 A 1 1.0000001 0 0 1 5 9 z M 8 9 A 1 1.0000001 0 0 1 9 10 A 1 1.0000001 0 0 1 8 11 A 1 1.0000001 0 0 1 7 10 A 1 1.0000001 0 0 1 8 9 z M 11 9 A 1 1.0000001 0 0 1 12 10 A 1 1.0000001 0 0 1 11 11 A 1 1.0000001 0 0 1 10 10 A 1 1.0000001 0 0 1 11 9 z M 5 12 A 1 1.0000001 0 0 1 6 13 A 1 1.0000001 0 0 1 5 14 A 1 1.0000001 0 0 1 4 13 A 1 1.0000001 0 0 1 5 12 z M 8 12 A 1 1.0000001 0 0 1 9 13 A 1 1.0000001 0 0 1 8 14 A 1 1.0000001 0 0 1 7 13 A 1 1.0000001 0 0 1 8 12 z M 11 12 A 1 1.0000001 0 0 1 12 13 A 1 1.0000001 0 0 1 11 14 A 1 1.0000001 0 0 1 10 13 A 1 1.0000001 0 0 1 11 12 z " />
  </g>
</svg>
