<?xml version="1.0" encoding="UTF-8" standalone="no"?>
<!-- Created with Inkscape (http://www.inkscape.org/) -->

<svg
   width="16"
   height="16"
   id="svg4159"
   version="1.1"
   inkscape:version="1.1.1 (3bf5ae0d25, 2021-09-20, custom)"
   viewBox="0 0 16 16"
   sodipodi:docname="tor-browser-symbolic.svg"
   xmlns:inkscape="http://www.inkscape.org/namespaces/inkscape"
   xmlns:sodipodi="http://sodipodi.sourceforge.net/DTD/sodipodi-0.dtd"
   xmlns="http://www.w3.org/2000/svg"
   xmlns:svg="http://www.w3.org/2000/svg"
   xmlns:rdf="http://www.w3.org/1999/02/22-rdf-syntax-ns#"
   xmlns:cc="http://creativecommons.org/ns#"
   xmlns:dc="http://purl.org/dc/elements/1.1/">
  <title
     id="title4518">Boston Icons</title>
  <defs
     id="defs4161">
    <inkscape:perspective
       sodipodi:type="inkscape:persp3d"
       inkscape:vp_x="0 : 8 : 1"
       inkscape:vp_y="0 : 1000 : 0"
       inkscape:vp_z="16 : 8 : 1"
       inkscape:persp3d-origin="8 : 5.3333333 : 1"
       id="perspective4709" />
  </defs>
  <sodipodi:namedview
     id="base"
     pagecolor="#ffffff"
     bordercolor="#00fff6"
     borderopacity="1"
     inkscape:pageopacity="0"
     inkscape:pageshadow="2"
     inkscape:zoom="22.197802"
     inkscape:cx="6.1492575"
     inkscape:cy="8.1764852"
     inkscape:current-layer="layer1"
     showgrid="false"
     inkscape:grid-bbox="true"
     inkscape:document-units="px"
     inkscape:window-width="1920"
     inkscape:window-height="1011"
     inkscape:window-x="0"
     inkscape:window-y="32"
     inkscape:window-maximized="1"
     showguides="true"
     inkscape:guide-bbox="true"
     inkscape:pagecheckerboard="0">
    <inkscape:grid
       type="xygrid"
       id="grid4707" />
  </sodipodi:namedview>
  <metadata
     id="metadata4164">
    <rdf:RDF>
      <cc:Work
         rdf:about="">
        <dc:format>image/svg+xml</dc:format>
        <dc:type
           rdf:resource="http://purl.org/dc/dcmitype/StillImage" />
        <dc:title>Boston Icons</dc:title>
        <cc:license
           rdf:resource="dribbble.com/chrisdiaz" />
        <dc:creator>
          <cc:Agent>
            <dc:title>Christian Díaz</dc:title>
          </cc:Agent>
        </dc:creator>
        <dc:date>2022</dc:date>
        <dc:publisher>
          <cc:Agent>
            <dc:title>Christian Díaz</dc:title>
          </cc:Agent>
        </dc:publisher>
        <dc:subject>
          <rdf:Bag>
            <rdf:li>GNOME icon Theme</rdf:li>
          </rdf:Bag>
        </dc:subject>
        <dc:identifier>christiandiaz.design [at] gmail [dot] com</dc:identifier>
        <dc:description>dribbble.com/chrisdiaz | diazchris.deviantart.com</dc:description>
      </cc:Work>
    </rdf:RDF>
  </metadata>
  <g
     id="layer1"
     inkscape:label="Layer 1"
     inkscape:groupmode="layer">
    <path
       id="path953"
       style="fill:#252627;stroke-width:5;stroke-linejoin:round"
       d="M 8 0 A 8 8 0 0 0 6.9003906 0.080078125 A 8 8 0 0 0 6.5664062 0.14648438 A 8 8 0 0 0 5.8398438 0.3046875 A 8 8 0 0 0 5.3984375 0.453125 A 8 8 0 0 0 4.8144531 0.671875 A 8 8 0 0 0 4.3691406 0.890625 A 8 8 0 0 0 3.8339844 1.1835938 A 8 8 0 0 0 3.4375 1.4472656 A 8 8 0 0 0 2.9414062 1.8183594 A 8 8 0 0 0 2.5683594 2.1464844 A 8 8 0 0 0 2.1464844 2.5683594 A 8 8 0 0 0 1.8183594 2.9414062 A 8 8 0 0 0 1.4472656 3.4375 A 8 8 0 0 0 1.1835938 3.8339844 A 8 8 0 0 0 0.890625 4.3691406 A 8 8 0 0 0 0.671875 4.8144531 A 8 8 0 0 0 0.453125 5.3984375 A 8 8 0 0 0 0.3046875 5.8398438 A 8 8 0 0 0 0.14648438 6.5664062 A 8 8 0 0 0 0.080078125 6.9003906 A 8 8 0 0 0 0 8 A 8 8 0 0 0 0.080078125 9.0996094 A 8 8 0 0 0 0.14648438 9.4335938 A 8 8 0 0 0 0.3046875 10.160156 A 8 8 0 0 0 0.453125 10.601562 A 8 8 0 0 0 0.671875 11.185547 A 8 8 0 0 0 0.890625 11.630859 A 8 8 0 0 0 1.1835938 12.166016 A 8 8 0 0 0 1.4472656 12.5625 A 8 8 0 0 0 1.8183594 13.058594 A 8 8 0 0 0 2.1464844 13.431641 A 8 8 0 0 0 2.5683594 13.853516 A 8 8 0 0 0 2.9414062 14.181641 A 8 8 0 0 0 3.4375 14.552734 A 8 8 0 0 0 3.8339844 14.816406 A 8 8 0 0 0 4.3691406 15.109375 A 8 8 0 0 0 4.8144531 15.328125 A 8 8 0 0 0 5.3984375 15.546875 A 8 8 0 0 0 5.8398438 15.695312 A 8 8 0 0 0 6.5664062 15.853516 A 8 8 0 0 0 6.9003906 15.919922 A 8 8 0 0 0 8 16 A 8 8 0 0 0 16 8 A 8 8 0 0 0 8 0 z M 8 1 A 7 7 0 0 1 15 8 A 7 7 0 0 1 8 15 L 8 14 A 6 6 0 0 0 14 8 A 6 6 0 0 0 8 2 L 8 1 z M 8 3 A 5 5 0 0 1 13 8 A 5 5 0 0 1 8 13 L 8 12 A 4 4 0 0 0 12 8 A 4 4 0 0 0 8 4 L 8 3 z M 8 5 A 3 3 0 0 1 11 8 A 3 3 0 0 1 8 11 L 8 5 z " />
  </g>
</svg>
