<?xml version="1.0" encoding="UTF-8" standalone="no"?>
<!-- Created with Inkscape (http://www.inkscape.org/) -->

<svg
   width="128"
   height="128"
   viewBox="0 0 33.866667 33.866667"
   version="1.1"
   id="svg2634"
   inkscape:version="1.1 (c4e8f9ed74, 2021-05-24)"
   sodipodi:docname="image-loading.svg"
   xmlns:inkscape="http://www.inkscape.org/namespaces/inkscape"
   xmlns:sodipodi="http://sodipodi.sourceforge.net/DTD/sodipodi-0.dtd"
   xmlns="http://www.w3.org/2000/svg"
   xmlns:svg="http://www.w3.org/2000/svg"
   xmlns:rdf="http://www.w3.org/1999/02/22-rdf-syntax-ns#"
   xmlns:cc="http://creativecommons.org/ns#"
   xmlns:dc="http://purl.org/dc/elements/1.1/">
  <title
     id="title3250">Boston Icons</title>
  <defs
     id="defs2628" />
  <sodipodi:namedview
     id="base"
     pagecolor="#ffffff"
     bordercolor="#00ffed"
     borderopacity="1"
     inkscape:pageopacity="1"
     inkscape:pageshadow="2"
     inkscape:zoom="4.6889393"
     inkscape:cx="84.987238"
     inkscape:cy="54.0634"
     inkscape:document-units="px"
     inkscape:current-layer="layer1"
     showgrid="false"
     showguides="false"
     inkscape:guide-bbox="true"
     fit-margin-top="0"
     fit-margin-left="0"
     fit-margin-right="0"
     fit-margin-bottom="0"
     inkscape:window-width="1920"
     inkscape:window-height="1011"
     inkscape:window-x="0"
     inkscape:window-y="32"
     inkscape:window-maximized="1"
     units="px"
     inkscape:pagecheckerboard="0">
    <inkscape:grid
       type="xygrid"
       id="grid3182"
       spacingx="0.52916667"
       spacingy="0.52916667"
       empspacing="4"
       originx="-82.550004"
       originy="-127.00001"
       dotted="false" />
    <sodipodi:guide
       position="-4.268358e-06,27.516666"
       orientation="1,0"
       id="guide3216"
       inkscape:locked="false" />
    <sodipodi:guide
       position="3.7041618,33.866666"
       orientation="0,1"
       id="guide3218"
       inkscape:locked="false" />
    <sodipodi:guide
       position="33.866657,24.870836"
       orientation="1,0"
       id="guide3220"
       inkscape:locked="false" />
    <sodipodi:guide
       position="32.279157,-4.1479283e-06"
       orientation="0,1"
       id="guide3222"
       inkscape:locked="false" />
    <sodipodi:guide
       position="15.345829,32.808336"
       orientation="0,1"
       id="guide3224"
       inkscape:locked="false" />
    <sodipodi:guide
       position="-4.7625023,1.0583259"
       orientation="0,1"
       id="guide3226"
       inkscape:locked="false" />
    <sodipodi:guide
       position="1.0583287,17.462496"
       orientation="1,0"
       id="guide3228"
       inkscape:locked="false" />
    <sodipodi:guide
       position="32.808327,20.108336"
       orientation="1,0"
       id="guide3230"
       inkscape:locked="false" />
    <sodipodi:guide
       position="15.874995,31.750006"
       orientation="0,1"
       id="guide3232"
       inkscape:locked="false" />
    <sodipodi:guide
       position="2.1166617,24.870836"
       orientation="1,0"
       id="guide3234"
       inkscape:locked="false" />
    <sodipodi:guide
       position="3.1749958,25.400006"
       orientation="1,0"
       id="guide3236"
       inkscape:locked="false" />
    <sodipodi:guide
       position="7.4083299,25.399991"
       orientation="1,0"
       id="guide3238"
       inkscape:locked="false" />
    <sodipodi:guide
       position="26.45833,28.045824"
       orientation="1,0"
       id="guide3240"
       inkscape:locked="false" />
    <sodipodi:guide
       position="30.691657,24.341666"
       orientation="1,0"
       id="guide3242"
       inkscape:locked="false" />
    <sodipodi:guide
       position="31.749997,21.695836"
       orientation="1,0"
       id="guide3244"
       inkscape:locked="false" />
    <sodipodi:guide
       position="21.695827,2.1166659"
       orientation="0,1"
       id="guide3246"
       inkscape:locked="false" />
    <sodipodi:guide
       position="16.404162,3.1749959"
       orientation="0,1"
       id="guide3248"
       inkscape:locked="false" />
    <sodipodi:guide
       position="26.987497,30.162491"
       orientation="0,1"
       id="guide843"
       inkscape:locked="false" />
    <sodipodi:guide
       position="30.162497,26.458325"
       orientation="0,1"
       id="guide845"
       inkscape:locked="false" />
    <sodipodi:guide
       position="13.75833,25.399991"
       orientation="1,0"
       id="guide859"
       inkscape:locked="false" />
    <sodipodi:guide
       position="20.10833,24.341658"
       orientation="1,0"
       id="guide861"
       inkscape:locked="false" />
    <sodipodi:guide
       position="-5.8208369,13.229176"
       orientation="0,1"
       id="guide865"
       inkscape:locked="false" />
    <sodipodi:guide
       position="-3.7041702,19.579176"
       orientation="0,-1"
       id="guide962" />
    <sodipodi:guide
       position="1.0583299,7.4083427"
       orientation="0,-1"
       id="guide964" />
  </sodipodi:namedview>
  <metadata
     id="metadata2631">
    <rdf:RDF>
      <cc:Work
         rdf:about="">
        <dc:format>image/svg+xml</dc:format>
        <dc:type
           rdf:resource="http://purl.org/dc/dcmitype/StillImage" />
        <dc:title>Boston Icons</dc:title>
        <cc:license
           rdf:resource="dribbble.com/chrisdiaz" />
        <dc:creator>
          <cc:Agent>
            <dc:title>Christian Díaz</dc:title>
          </cc:Agent>
        </dc:creator>
        <dc:date>2021</dc:date>
        <dc:publisher>
          <cc:Agent>
            <dc:title>Christian Díaz</dc:title>
          </cc:Agent>
        </dc:publisher>
        <dc:identifier>christiandiaz.design [at] gmail [dot] com</dc:identifier>
        <dc:subject>
          <rdf:Bag>
            <rdf:li>GNOME icon Theme</rdf:li>
          </rdf:Bag>
        </dc:subject>
        <dc:description>dribbble.com/chrisdiaz | diazchris.deviantart.com</dc:description>
      </cc:Work>
    </rdf:RDF>
  </metadata>
  <g
     inkscape:label="Capa 1"
     inkscape:groupmode="layer"
     id="layer1"
     transform="translate(-82.550003,-136.13333)">
    <g
       id="g856">
      <path
         style="opacity:1;fill:#cdd5d9;fill-opacity:1;fill-rule:evenodd;stroke:none;stroke-width:8;stroke-linecap:round;stroke-linejoin:bevel;stroke-miterlimit:4;stroke-dasharray:none;stroke-opacity:1"
         d="M 4,4 V 28 H 6 V 6 H 28 V 4 H 6 Z M 52,4 V 6 H 76 V 4 Z m 48,0 v 2 h 22 v 22 h 2 V 4 h -2 z M 4,54 V 78 H 6 V 54 Z m 118,0 v 24 h 2 V 54 Z M 3.9999867,99.999963 4,124 h 2 l 21.999986,3e-5 v -2 L 6,122 5.9999867,99.999963 Z m 117.9999833,0 L 122,122 l -22.000015,-4e-5 v 2 L 122,124 h 2 l -3e-5,-24.000037 z M 52,122 v 2 h 24 v -2 z"
         transform="matrix(0.26458334,0,0,0.26458334,82.550003,136.13333)"
         id="rect2007"
         inkscape:connector-curvature="0"
         sodipodi:nodetypes="cccccccccccccccccccccccccccccccccccccccccccccccccccc" />
      <path
         id="rect875"
         style="fill:#cdd5d9;stroke-width:0.500001;stroke-linejoin:round"
         d="M 8 8 L 8 10 L 10 10 L 10 8 L 8 8 z M 10 10 L 10 12 L 12 12 L 12 10 L 10 10 z M 12 10 L 14 10 L 14 8 L 12 8 L 12 10 z M 14 10 L 14 12 L 16 12 L 16 10 L 14 10 z M 16 10 L 18 10 L 18 8 L 16 8 L 16 10 z M 18 10 L 18 12 L 20 12 L 20 10 L 18 10 z M 20 10 L 22 10 L 22 8 L 20 8 L 20 10 z M 22 10 L 22 12 L 24 12 L 24 10 L 22 10 z M 24 10 L 26 10 L 26 8 L 24 8 L 24 10 z M 26 10 L 26 12 L 28 12 L 28 10 L 26 10 z M 28 10 L 30 10 L 30 8 L 28 8 L 28 10 z M 30 10 L 30 12 L 32 12 L 32 10 L 30 10 z M 32 10 L 34 10 L 34 8 L 32 8 L 32 10 z M 34 10 L 34 12 L 36 12 L 36 10 L 34 10 z M 36 10 L 38 10 L 38 8 L 36 8 L 36 10 z M 38 10 L 38 12 L 40 12 L 40 10 L 38 10 z M 40 10 L 42 10 L 42 8 L 40 8 L 40 10 z M 42 10 L 42 12 L 44 12 L 44 10 L 42 10 z M 44 10 L 46 10 L 46 8 L 44 8 L 44 10 z M 46 10 L 46 12 L 48 12 L 48 10 L 46 10 z M 48 10 L 50 10 L 50 8 L 48 8 L 48 10 z M 50 10 L 50 12 L 52 12 L 52 10 L 50 10 z M 52 10 L 54 10 L 54 8 L 52 8 L 52 10 z M 54 10 L 54 12 L 56 12 L 56 10 L 54 10 z M 56 10 L 58 10 L 58 8 L 56 8 L 56 10 z M 58 10 L 58 12 L 60 12 L 60 10 L 58 10 z M 60 10 L 62 10 L 62 8 L 60 8 L 60 10 z M 62 10 L 62 12 L 64 12 L 64 10 L 62 10 z M 64 10 L 66 10 L 66 8 L 64 8 L 64 10 z M 66 10 L 66 12 L 68 12 L 68 10 L 66 10 z M 68 10 L 70 10 L 70 8 L 68 8 L 68 10 z M 70 10 L 70 12 L 72 12 L 72 10 L 70 10 z M 72 10 L 74 10 L 74 8 L 72 8 L 72 10 z M 74 10 L 74 12 L 76 12 L 76 10 L 74 10 z M 76 10 L 78 10 L 78 8 L 76 8 L 76 10 z M 78 10 L 78 12 L 80 12 L 80 10 L 78 10 z M 80 10 L 82 10 L 82 8 L 80 8 L 80 10 z M 82 10 L 82 12 L 84 12 L 84 10 L 82 10 z M 84 10 L 86 10 L 86 8 L 84 8 L 84 10 z M 86 10 L 86 12 L 88 12 L 88 10 L 86 10 z M 88 10 L 90 10 L 90 8 L 88 8 L 88 10 z M 90 10 L 90 12 L 92 12 L 92 10 L 90 10 z M 92 10 L 94 10 L 94 8 L 92 8 L 92 10 z M 94 10 L 94 12 L 96 12 L 96 10 L 94 10 z M 96 10 L 98 10 L 98 8 L 96 8 L 96 10 z M 98 10 L 98 12 L 100 12 L 100 10 L 98 10 z M 100 10 L 102 10 L 102 8 L 100 8 L 100 10 z M 102 10 L 102 12 L 104 12 L 104 10 L 102 10 z M 104 10 L 106 10 L 106 8 L 104 8 L 104 10 z M 106 10 L 106 12 L 108 12 L 108 10 L 106 10 z M 108 10 L 110 10 L 110 8 L 108 8 L 108 10 z M 110 10 L 110 12 L 112 12 L 112 10 L 110 10 z M 112 10 L 114 10 L 114 8 L 112 8 L 112 10 z M 114 10 L 114 12 L 116 12 L 116 10 L 114 10 z M 116 10 L 118 10 L 118 8 L 116 8 L 116 10 z M 118 10 L 118 12 L 120 12 L 120 10 L 118 10 z M 118 12 L 116 12 L 116 14 L 118 14 L 118 12 z M 118 14 L 118 16 L 120 16 L 120 14 L 118 14 z M 118 16 L 116 16 L 116 18 L 118 18 L 118 16 z M 118 18 L 118 20 L 120 20 L 120 18 L 118 18 z M 118 20 L 116 20 L 116 22 L 118 22 L 118 20 z M 118 22 L 118 24 L 120 24 L 120 22 L 118 22 z M 118 24 L 116 24 L 116 26 L 118 26 L 118 24 z M 118 26 L 118 28 L 120 28 L 120 26 L 118 26 z M 118 28 L 116 28 L 116 30 L 118 30 L 118 28 z M 118 30 L 118 32 L 120 32 L 120 30 L 118 30 z M 118 32 L 116 32 L 116 34 L 118 34 L 118 32 z M 118 34 L 118 36 L 120 36 L 120 34 L 118 34 z M 118 36 L 116 36 L 116 38 L 118 38 L 118 36 z M 118 38 L 118 40 L 120 40 L 120 38 L 118 38 z M 118 40 L 116 40 L 116 42 L 118 42 L 118 40 z M 118 42 L 118 44 L 120 44 L 120 42 L 118 42 z M 118 44 L 116 44 L 116 46 L 118 46 L 118 44 z M 118 46 L 118 48 L 120 48 L 120 46 L 118 46 z M 118 48 L 116 48 L 116 50 L 118 50 L 118 48 z M 118 50 L 118 52 L 120 52 L 120 50 L 118 50 z M 118 52 L 116 52 L 116 54 L 118 54 L 118 52 z M 118 54 L 118 56 L 120 56 L 120 54 L 118 54 z M 118 56 L 116 56 L 116 58 L 118 58 L 118 56 z M 118 58 L 118 60 L 120 60 L 120 58 L 118 58 z M 118 60 L 116 60 L 116 62 L 118 62 L 118 60 z M 118 62 L 118 64 L 120 64 L 120 62 L 118 62 z M 118 64 L 116 64 L 116 66 L 118 66 L 118 64 z M 118 66 L 118 68 L 120 68 L 120 66 L 118 66 z M 118 68 L 116 68 L 116 70 L 118 70 L 118 68 z M 118 70 L 118 72 L 120 72 L 120 70 L 118 70 z M 118 72 L 116 72 L 116 74 L 118 74 L 118 72 z M 118 74 L 118 76 L 120 76 L 120 74 L 118 74 z M 118 76 L 116 76 L 116 78 L 118 78 L 118 76 z M 118 78 L 118 80 L 120 80 L 120 78 L 118 78 z M 118 80 L 116 80 L 116 82 L 118 82 L 118 80 z M 118 82 L 118 84 L 120 84 L 120 82 L 118 82 z M 118 84 L 116 84 L 116 86 L 118 86 L 118 84 z M 118 86 L 118 88 L 120 88 L 120 86 L 118 86 z M 118 88 L 116 88 L 116 90 L 118 90 L 118 88 z M 118 90 L 118 92 L 120 92 L 120 90 L 118 90 z M 118 92 L 116 92 L 116 94 L 118 94 L 118 92 z M 118 94 L 118 96 L 120 96 L 120 94 L 118 94 z M 118 96 L 116 96 L 116 98 L 118 98 L 118 96 z M 118 98 L 118 100 L 120 100 L 120 98 L 118 98 z M 118 100 L 116 100 L 116 102 L 118 102 L 118 100 z M 118 102 L 118 104 L 120 104 L 120 102 L 118 102 z M 118 104 L 116 104 L 116 106 L 118 106 L 118 104 z M 118 106 L 118 108 L 120 108 L 120 106 L 118 106 z M 118 108 L 116 108 L 116 110 L 118 110 L 118 108 z M 118 110 L 118 112 L 120 112 L 120 110 L 118 110 z M 118 112 L 116 112 L 116 114 L 118 114 L 118 112 z M 118 114 L 118 116 L 120 116 L 120 114 L 118 114 z M 118 116 L 116 116 L 116 118 L 118 118 L 118 116 z M 118 118 L 118 120 L 120 120 L 120 118 L 118 118 z M 116 118 L 114 118 L 114 120 L 116 120 L 116 118 z M 114 118 L 114 116 L 112 116 L 112 118 L 114 118 z M 112 118 L 110 118 L 110 120 L 112 120 L 112 118 z M 110 118 L 110 116 L 108 116 L 108 118 L 110 118 z M 108 118 L 106 118 L 106 120 L 108 120 L 108 118 z M 106 118 L 106 116 L 104 116 L 104 118 L 106 118 z M 104 118 L 102 118 L 102 120 L 104 120 L 104 118 z M 102 118 L 102 116 L 100 116 L 100 118 L 102 118 z M 100 118 L 98 118 L 98 120 L 100 120 L 100 118 z M 98 118 L 98 116 L 96 116 L 96 118 L 98 118 z M 96 118 L 94 118 L 94 120 L 96 120 L 96 118 z M 94 118 L 94 116 L 92 116 L 92 118 L 94 118 z M 92 118 L 90 118 L 90 120 L 92 120 L 92 118 z M 90 118 L 90 116 L 88 116 L 88 118 L 90 118 z M 88 118 L 86 118 L 86 120 L 88 120 L 88 118 z M 86 118 L 86 116 L 84 116 L 84 118 L 86 118 z M 84 118 L 82 118 L 82 120 L 84 120 L 84 118 z M 82 118 L 82 116 L 80 116 L 80 118 L 82 118 z M 80 118 L 78 118 L 78 120 L 80 120 L 80 118 z M 78 118 L 78 116 L 76 116 L 76 118 L 78 118 z M 76 118 L 74 118 L 74 120 L 76 120 L 76 118 z M 74 118 L 74 116 L 72 116 L 72 118 L 74 118 z M 72 118 L 70 118 L 70 120 L 72 120 L 72 118 z M 70 118 L 70 116 L 68 116 L 68 118 L 70 118 z M 68 118 L 66 118 L 66 120 L 68 120 L 68 118 z M 66 118 L 66 116 L 64 116 L 64 118 L 66 118 z M 64 118 L 62 118 L 62 120 L 64 120 L 64 118 z M 62 118 L 62 116 L 60 116 L 60 118 L 62 118 z M 60 118 L 58 118 L 58 120 L 60 120 L 60 118 z M 58 118 L 58 116 L 56 116 L 56 118 L 58 118 z M 56 118 L 54 118 L 54 120 L 56 120 L 56 118 z M 54 118 L 54 116 L 52 116 L 52 118 L 54 118 z M 52 118 L 50 118 L 50 120 L 52 120 L 52 118 z M 50 118 L 50 116 L 48 116 L 48 118 L 50 118 z M 48 118 L 46 118 L 46 120 L 48 120 L 48 118 z M 46 118 L 46 116 L 44 116 L 44 118 L 46 118 z M 44 118 L 42 118 L 42 120 L 44 120 L 44 118 z M 42 118 L 42 116 L 40 116 L 40 118 L 42 118 z M 40 118 L 38 118 L 38 120 L 40 120 L 40 118 z M 38 118 L 38 116 L 36 116 L 36 118 L 38 118 z M 36 118 L 34 118 L 34 120 L 36 120 L 36 118 z M 34 118 L 34 116 L 32 116 L 32 118 L 34 118 z M 32 118 L 30 118 L 30 120 L 32 120 L 32 118 z M 30 118 L 30 116 L 28 116 L 28 118 L 30 118 z M 28 118 L 26 118 L 26 120 L 28 120 L 28 118 z M 26 118 L 26 116 L 24 116 L 24 118 L 26 118 z M 24 118 L 22 118 L 22 120 L 24 120 L 24 118 z M 22 118 L 22 116 L 20 116 L 20 118 L 22 118 z M 20 118 L 18 118 L 18 120 L 20 120 L 20 118 z M 18 118 L 18 116 L 16 116 L 16 118 L 18 118 z M 16 118 L 14 118 L 14 120 L 16 120 L 16 118 z M 14 118 L 14 116 L 12 116 L 12 118 L 14 118 z M 12 118 L 10 118 L 10 120 L 12 120 L 12 118 z M 10 118 L 10 116 L 8 116 L 8 118 L 10 118 z M 10 116 L 12 116 L 12 114 L 10 114 L 10 116 z M 10 114 L 10 112 L 8 112 L 8 114 L 10 114 z M 10 112 L 12 112 L 12 110 L 10 110 L 10 112 z M 10 110 L 10 108 L 8 108 L 8 110 L 10 110 z M 10 108 L 12 108 L 12 106 L 10 106 L 10 108 z M 10 106 L 10 104 L 8 104 L 8 106 L 10 106 z M 10 104 L 12 104 L 12 102 L 10 102 L 10 104 z M 10 102 L 10 100 L 8 100 L 8 102 L 10 102 z M 10 100 L 12 100 L 12 98 L 10 98 L 10 100 z M 10 98 L 10 96 L 8 96 L 8 98 L 10 98 z M 10 96 L 12 96 L 12 94 L 10 94 L 10 96 z M 10 94 L 10 92 L 8 92 L 8 94 L 10 94 z M 10 92 L 12 92 L 12 90 L 10 90 L 10 92 z M 10 90 L 10 88 L 8 88 L 8 90 L 10 90 z M 10 88 L 12 88 L 12 86 L 10 86 L 10 88 z M 10 86 L 10 84 L 8 84 L 8 86 L 10 86 z M 10 84 L 12 84 L 12 82 L 10 82 L 10 84 z M 10 82 L 10 80 L 8 80 L 8 82 L 10 82 z M 10 80 L 12 80 L 12 78 L 10 78 L 10 80 z M 10 78 L 10 76 L 8 76 L 8 78 L 10 78 z M 10 76 L 12 76 L 12 74 L 10 74 L 10 76 z M 10 74 L 10 72 L 8 72 L 8 74 L 10 74 z M 10 72 L 12 72 L 12 70 L 10 70 L 10 72 z M 10 70 L 10 68 L 8 68 L 8 70 L 10 70 z M 10 68 L 12 68 L 12 66 L 10 66 L 10 68 z M 10 66 L 10 64 L 8 64 L 8 66 L 10 66 z M 10 64 L 12 64 L 12 62 L 10 62 L 10 64 z M 10 62 L 10 60 L 8 60 L 8 62 L 10 62 z M 10 60 L 12 60 L 12 58 L 10 58 L 10 60 z M 10 58 L 10 56 L 8 56 L 8 58 L 10 58 z M 10 56 L 12 56 L 12 54 L 10 54 L 10 56 z M 10 54 L 10 52 L 8 52 L 8 54 L 10 54 z M 10 52 L 12 52 L 12 50 L 10 50 L 10 52 z M 10 50 L 10 48 L 8 48 L 8 50 L 10 50 z M 10 48 L 12 48 L 12 46 L 10 46 L 10 48 z M 10 46 L 10 44 L 8 44 L 8 46 L 10 46 z M 10 44 L 12 44 L 12 42 L 10 42 L 10 44 z M 10 42 L 10 40 L 8 40 L 8 42 L 10 42 z M 10 40 L 12 40 L 12 38 L 10 38 L 10 40 z M 10 38 L 10 36 L 8 36 L 8 38 L 10 38 z M 10 36 L 12 36 L 12 34 L 10 34 L 10 36 z M 10 34 L 10 32 L 8 32 L 8 34 L 10 34 z M 10 32 L 12 32 L 12 30 L 10 30 L 10 32 z M 10 30 L 10 28 L 8 28 L 8 30 L 10 30 z M 10 28 L 12 28 L 12 26 L 10 26 L 10 28 z M 10 26 L 10 24 L 8 24 L 8 26 L 10 26 z M 10 24 L 12 24 L 12 22 L 10 22 L 10 24 z M 10 22 L 10 20 L 8 20 L 8 22 L 10 22 z M 10 20 L 12 20 L 12 18 L 10 18 L 10 20 z M 10 18 L 10 16 L 8 16 L 8 18 L 10 18 z M 10 16 L 12 16 L 12 14 L 10 14 L 10 16 z M 10 14 L 10 12 L 8 12 L 8 14 L 10 14 z M 12 14 L 14 14 L 14 12 L 12 12 L 12 14 z M 14 14 L 14 16 L 16 16 L 16 14 L 14 14 z M 16 14 L 18 14 L 18 12 L 16 12 L 16 14 z M 18 14 L 18 16 L 20 16 L 20 14 L 18 14 z M 20 14 L 22 14 L 22 12 L 20 12 L 20 14 z M 22 14 L 22 16 L 24 16 L 24 14 L 22 14 z M 24 14 L 26 14 L 26 12 L 24 12 L 24 14 z M 26 14 L 26 16 L 28 16 L 28 14 L 26 14 z M 28 14 L 30 14 L 30 12 L 28 12 L 28 14 z M 30 14 L 30 16 L 32 16 L 32 14 L 30 14 z M 32 14 L 34 14 L 34 12 L 32 12 L 32 14 z M 34 14 L 34 16 L 36 16 L 36 14 L 34 14 z M 36 14 L 38 14 L 38 12 L 36 12 L 36 14 z M 38 14 L 38 16 L 40 16 L 40 14 L 38 14 z M 40 14 L 42 14 L 42 12 L 40 12 L 40 14 z M 42 14 L 42 16 L 44 16 L 44 14 L 42 14 z M 44 14 L 46 14 L 46 12 L 44 12 L 44 14 z M 46 14 L 46 16 L 48 16 L 48 14 L 46 14 z M 48 14 L 50 14 L 50 12 L 48 12 L 48 14 z M 50 14 L 50 16 L 52 16 L 52 14 L 50 14 z M 52 14 L 54 14 L 54 12 L 52 12 L 52 14 z M 54 14 L 54 16 L 56 16 L 56 14 L 54 14 z M 56 14 L 58 14 L 58 12 L 56 12 L 56 14 z M 58 14 L 58 16 L 60 16 L 60 14 L 58 14 z M 60 14 L 62 14 L 62 12 L 60 12 L 60 14 z M 62 14 L 62 16 L 64 16 L 64 14 L 62 14 z M 64 14 L 66 14 L 66 12 L 64 12 L 64 14 z M 66 14 L 66 16 L 68 16 L 68 14 L 66 14 z M 68 14 L 70 14 L 70 12 L 68 12 L 68 14 z M 70 14 L 70 16 L 72 16 L 72 14 L 70 14 z M 72 14 L 74 14 L 74 12 L 72 12 L 72 14 z M 74 14 L 74 16 L 76 16 L 76 14 L 74 14 z M 76 14 L 78 14 L 78 12 L 76 12 L 76 14 z M 78 14 L 78 16 L 80 16 L 80 14 L 78 14 z M 80 14 L 82 14 L 82 12 L 80 12 L 80 14 z M 82 14 L 82 16 L 84 16 L 84 14 L 82 14 z M 84 14 L 86 14 L 86 12 L 84 12 L 84 14 z M 86 14 L 86 16 L 88 16 L 88 14 L 86 14 z M 88 14 L 90 14 L 90 12 L 88 12 L 88 14 z M 90 14 L 90 16 L 92 16 L 92 14 L 90 14 z M 92 14 L 94 14 L 94 12 L 92 12 L 92 14 z M 94 14 L 94 16 L 96 16 L 96 14 L 94 14 z M 96 14 L 98 14 L 98 12 L 96 12 L 96 14 z M 98 14 L 98 16 L 100 16 L 100 14 L 98 14 z M 100 14 L 102 14 L 102 12 L 100 12 L 100 14 z M 102 14 L 102 16 L 104 16 L 104 14 L 102 14 z M 104 14 L 106 14 L 106 12 L 104 12 L 104 14 z M 106 14 L 106 16 L 108 16 L 108 14 L 106 14 z M 108 14 L 110 14 L 110 12 L 108 12 L 108 14 z M 110 14 L 110 16 L 112 16 L 112 14 L 110 14 z M 112 14 L 114 14 L 114 12 L 112 12 L 112 14 z M 114 14 L 114 16 L 116 16 L 116 14 L 114 14 z M 114 16 L 112 16 L 112 18 L 114 18 L 114 16 z M 114 18 L 114 20 L 116 20 L 116 18 L 114 18 z M 114 20 L 112 20 L 112 22 L 114 22 L 114 20 z M 114 22 L 114 24 L 116 24 L 116 22 L 114 22 z M 114 24 L 112 24 L 112 26 L 114 26 L 114 24 z M 114 26 L 114 28 L 116 28 L 116 26 L 114 26 z M 114 28 L 112 28 L 112 30 L 114 30 L 114 28 z M 114 30 L 114 32 L 116 32 L 116 30 L 114 30 z M 114 32 L 112 32 L 112 34 L 114 34 L 114 32 z M 114 34 L 114 36 L 116 36 L 116 34 L 114 34 z M 114 36 L 112 36 L 112 38 L 114 38 L 114 36 z M 114 38 L 114 40 L 116 40 L 116 38 L 114 38 z M 114 40 L 112 40 L 112 42 L 114 42 L 114 40 z M 114 42 L 114 44 L 116 44 L 116 42 L 114 42 z M 114 44 L 112 44 L 112 46 L 114 46 L 114 44 z M 114 46 L 114 48 L 116 48 L 116 46 L 114 46 z M 114 48 L 112 48 L 112 50 L 114 50 L 114 48 z M 114 50 L 114 52 L 116 52 L 116 50 L 114 50 z M 114 52 L 112 52 L 112 54 L 114 54 L 114 52 z M 114 54 L 114 56 L 116 56 L 116 54 L 114 54 z M 114 56 L 112 56 L 112 58 L 114 58 L 114 56 z M 114 58 L 114 60 L 116 60 L 116 58 L 114 58 z M 114 60 L 112 60 L 112 62 L 114 62 L 114 60 z M 114 62 L 114 64 L 116 64 L 116 62 L 114 62 z M 114 64 L 112 64 L 112 66 L 114 66 L 114 64 z M 114 66 L 114 68 L 116 68 L 116 66 L 114 66 z M 114 68 L 112 68 L 112 70 L 114 70 L 114 68 z M 114 70 L 114 72 L 116 72 L 116 70 L 114 70 z M 114 72 L 112 72 L 112 74 L 114 74 L 114 72 z M 114 74 L 114 76 L 116 76 L 116 74 L 114 74 z M 114 76 L 112 76 L 112 78 L 114 78 L 114 76 z M 114 78 L 114 80 L 116 80 L 116 78 L 114 78 z M 114 80 L 112 80 L 112 82 L 114 82 L 114 80 z M 114 82 L 114 84 L 116 84 L 116 82 L 114 82 z M 114 84 L 112 84 L 112 86 L 114 86 L 114 84 z M 114 86 L 114 88 L 116 88 L 116 86 L 114 86 z M 114 88 L 112 88 L 112 90 L 114 90 L 114 88 z M 114 90 L 114 92 L 116 92 L 116 90 L 114 90 z M 114 92 L 112 92 L 112 94 L 114 94 L 114 92 z M 114 94 L 114 96 L 116 96 L 116 94 L 114 94 z M 114 96 L 112 96 L 112 98 L 114 98 L 114 96 z M 114 98 L 114 100 L 116 100 L 116 98 L 114 98 z M 114 100 L 112 100 L 112 102 L 114 102 L 114 100 z M 114 102 L 114 104 L 116 104 L 116 102 L 114 102 z M 114 104 L 112 104 L 112 106 L 114 106 L 114 104 z M 114 106 L 114 108 L 116 108 L 116 106 L 114 106 z M 114 108 L 112 108 L 112 110 L 114 110 L 114 108 z M 114 110 L 114 112 L 116 112 L 116 110 L 114 110 z M 114 112 L 112 112 L 112 114 L 114 114 L 114 112 z M 114 114 L 114 116 L 116 116 L 116 114 L 114 114 z M 112 114 L 110 114 L 110 116 L 112 116 L 112 114 z M 110 114 L 110 112 L 108 112 L 108 114 L 110 114 z M 108 114 L 106 114 L 106 116 L 108 116 L 108 114 z M 106 114 L 106 112 L 104 112 L 104 114 L 106 114 z M 104 114 L 102 114 L 102 116 L 104 116 L 104 114 z M 102 114 L 102 112 L 100 112 L 100 114 L 102 114 z M 100 114 L 98 114 L 98 116 L 100 116 L 100 114 z M 98 114 L 98 112 L 96 112 L 96 114 L 98 114 z M 96 114 L 94 114 L 94 116 L 96 116 L 96 114 z M 94 114 L 94 112 L 92 112 L 92 114 L 94 114 z M 92 114 L 90 114 L 90 116 L 92 116 L 92 114 z M 90 114 L 90 112 L 88 112 L 88 114 L 90 114 z M 88 114 L 86 114 L 86 116 L 88 116 L 88 114 z M 86 114 L 86 112 L 84 112 L 84 114 L 86 114 z M 84 114 L 82 114 L 82 116 L 84 116 L 84 114 z M 82 114 L 82 112 L 80 112 L 80 114 L 82 114 z M 80 114 L 78 114 L 78 116 L 80 116 L 80 114 z M 78 114 L 78 112 L 76 112 L 76 114 L 78 114 z M 76 114 L 74 114 L 74 116 L 76 116 L 76 114 z M 74 114 L 74 112 L 72 112 L 72 114 L 74 114 z M 72 114 L 70 114 L 70 116 L 72 116 L 72 114 z M 70 114 L 70 112 L 68 112 L 68 114 L 70 114 z M 68 114 L 66 114 L 66 116 L 68 116 L 68 114 z M 66 114 L 66 112 L 64 112 L 64 114 L 66 114 z M 64 114 L 62 114 L 62 116 L 64 116 L 64 114 z M 62 114 L 62 112 L 60 112 L 60 114 L 62 114 z M 60 114 L 58 114 L 58 116 L 60 116 L 60 114 z M 58 114 L 58 112 L 56 112 L 56 114 L 58 114 z M 56 114 L 54 114 L 54 116 L 56 116 L 56 114 z M 54 114 L 54 112 L 52 112 L 52 114 L 54 114 z M 52 114 L 50 114 L 50 116 L 52 116 L 52 114 z M 50 114 L 50 112 L 48 112 L 48 114 L 50 114 z M 48 114 L 46 114 L 46 116 L 48 116 L 48 114 z M 46 114 L 46 112 L 44 112 L 44 114 L 46 114 z M 44 114 L 42 114 L 42 116 L 44 116 L 44 114 z M 42 114 L 42 112 L 40 112 L 40 114 L 42 114 z M 40 114 L 38 114 L 38 116 L 40 116 L 40 114 z M 38 114 L 38 112 L 36 112 L 36 114 L 38 114 z M 36 114 L 34 114 L 34 116 L 36 116 L 36 114 z M 34 114 L 34 112 L 32 112 L 32 114 L 34 114 z M 32 114 L 30 114 L 30 116 L 32 116 L 32 114 z M 30 114 L 30 112 L 28 112 L 28 114 L 30 114 z M 28 114 L 26 114 L 26 116 L 28 116 L 28 114 z M 26 114 L 26 112 L 24 112 L 24 114 L 26 114 z M 24 114 L 22 114 L 22 116 L 24 116 L 24 114 z M 22 114 L 22 112 L 20 112 L 20 114 L 22 114 z M 20 114 L 18 114 L 18 116 L 20 116 L 20 114 z M 18 114 L 18 112 L 16 112 L 16 114 L 18 114 z M 16 114 L 14 114 L 14 116 L 16 116 L 16 114 z M 14 114 L 14 112 L 12 112 L 12 114 L 14 114 z M 14 112 L 16 112 L 16 110 L 14 110 L 14 112 z M 14 110 L 14 108 L 12 108 L 12 110 L 14 110 z M 14 108 L 16 108 L 16 106 L 14 106 L 14 108 z M 14 106 L 14 104 L 12 104 L 12 106 L 14 106 z M 14 104 L 16 104 L 16 102 L 14 102 L 14 104 z M 14 102 L 14 100 L 12 100 L 12 102 L 14 102 z M 14 100 L 16 100 L 16 98 L 14 98 L 14 100 z M 14 98 L 14 96 L 12 96 L 12 98 L 14 98 z M 14 96 L 16 96 L 16 94 L 14 94 L 14 96 z M 14 94 L 14 92 L 12 92 L 12 94 L 14 94 z M 14 92 L 16 92 L 16 90 L 14 90 L 14 92 z M 14 90 L 14 88 L 12 88 L 12 90 L 14 90 z M 14 88 L 16 88 L 16 86 L 14 86 L 14 88 z M 14 86 L 14 84 L 12 84 L 12 86 L 14 86 z M 14 84 L 16 84 L 16 82 L 14 82 L 14 84 z M 14 82 L 14 80 L 12 80 L 12 82 L 14 82 z M 14 80 L 16 80 L 16 78 L 14 78 L 14 80 z M 14 78 L 14 76 L 12 76 L 12 78 L 14 78 z M 14 76 L 16 76 L 16 74 L 14 74 L 14 76 z M 14 74 L 14 72 L 12 72 L 12 74 L 14 74 z M 14 72 L 16 72 L 16 70 L 14 70 L 14 72 z M 14 70 L 14 68 L 12 68 L 12 70 L 14 70 z M 14 68 L 16 68 L 16 66 L 14 66 L 14 68 z M 14 66 L 14 64 L 12 64 L 12 66 L 14 66 z M 14 64 L 16 64 L 16 62 L 14 62 L 14 64 z M 14 62 L 14 60 L 12 60 L 12 62 L 14 62 z M 14 60 L 16 60 L 16 58 L 14 58 L 14 60 z M 14 58 L 14 56 L 12 56 L 12 58 L 14 58 z M 14 56 L 16 56 L 16 54 L 14 54 L 14 56 z M 14 54 L 14 52 L 12 52 L 12 54 L 14 54 z M 14 52 L 16 52 L 16 50 L 14 50 L 14 52 z M 14 50 L 14 48 L 12 48 L 12 50 L 14 50 z M 14 48 L 16 48 L 16 46 L 14 46 L 14 48 z M 14 46 L 14 44 L 12 44 L 12 46 L 14 46 z M 14 44 L 16 44 L 16 42 L 14 42 L 14 44 z M 14 42 L 14 40 L 12 40 L 12 42 L 14 42 z M 14 40 L 16 40 L 16 38 L 14 38 L 14 40 z M 14 38 L 14 36 L 12 36 L 12 38 L 14 38 z M 14 36 L 16 36 L 16 34 L 14 34 L 14 36 z M 14 34 L 14 32 L 12 32 L 12 34 L 14 34 z M 14 32 L 16 32 L 16 30 L 14 30 L 14 32 z M 14 30 L 14 28 L 12 28 L 12 30 L 14 30 z M 14 28 L 16 28 L 16 26 L 14 26 L 14 28 z M 14 26 L 14 24 L 12 24 L 12 26 L 14 26 z M 14 24 L 16 24 L 16 22 L 14 22 L 14 24 z M 14 22 L 14 20 L 12 20 L 12 22 L 14 22 z M 14 20 L 16 20 L 16 18 L 14 18 L 14 20 z M 14 18 L 14 16 L 12 16 L 12 18 L 14 18 z M 16 18 L 18 18 L 18 16 L 16 16 L 16 18 z M 18 18 L 18 20 L 20 20 L 20 18 L 18 18 z M 20 18 L 22 18 L 22 16 L 20 16 L 20 18 z M 22 18 L 22 20 L 24 20 L 24 18 L 22 18 z M 24 18 L 26 18 L 26 16 L 24 16 L 24 18 z M 26 18 L 26 20 L 28 20 L 28 18 L 26 18 z M 28 18 L 30 18 L 30 16 L 28 16 L 28 18 z M 30 18 L 30 20 L 32 20 L 32 18 L 30 18 z M 32 18 L 34 18 L 34 16 L 32 16 L 32 18 z M 34 18 L 34 20 L 36 20 L 36 18 L 34 18 z M 36 18 L 38 18 L 38 16 L 36 16 L 36 18 z M 38 18 L 38 20 L 40 20 L 40 18 L 38 18 z M 40 18 L 42 18 L 42 16 L 40 16 L 40 18 z M 42 18 L 42 20 L 44 20 L 44 18 L 42 18 z M 44 18 L 46 18 L 46 16 L 44 16 L 44 18 z M 46 18 L 46 20 L 48 20 L 48 18 L 46 18 z M 48 18 L 50 18 L 50 16 L 48 16 L 48 18 z M 50 18 L 50 20 L 52 20 L 52 18 L 50 18 z M 52 18 L 54 18 L 54 16 L 52 16 L 52 18 z M 54 18 L 54 20 L 56 20 L 56 18 L 54 18 z M 56 18 L 58 18 L 58 16 L 56 16 L 56 18 z M 58 18 L 58 20 L 60 20 L 60 18 L 58 18 z M 60 18 L 62 18 L 62 16 L 60 16 L 60 18 z M 62 18 L 62 20 L 64 20 L 64 18 L 62 18 z M 64 18 L 66 18 L 66 16 L 64 16 L 64 18 z M 66 18 L 66 20 L 68 20 L 68 18 L 66 18 z M 68 18 L 70 18 L 70 16 L 68 16 L 68 18 z M 70 18 L 70 20 L 72 20 L 72 18 L 70 18 z M 72 18 L 74 18 L 74 16 L 72 16 L 72 18 z M 74 18 L 74 20 L 76 20 L 76 18 L 74 18 z M 76 18 L 78 18 L 78 16 L 76 16 L 76 18 z M 78 18 L 78 20 L 80 20 L 80 18 L 78 18 z M 80 18 L 82 18 L 82 16 L 80 16 L 80 18 z M 82 18 L 82 20 L 84 20 L 84 18 L 82 18 z M 84 18 L 86 18 L 86 16 L 84 16 L 84 18 z M 86 18 L 86 20 L 88 20 L 88 18 L 86 18 z M 88 18 L 90 18 L 90 16 L 88 16 L 88 18 z M 90 18 L 90 20 L 92 20 L 92 18 L 90 18 z M 92 18 L 94 18 L 94 16 L 92 16 L 92 18 z M 94 18 L 94 20 L 96 20 L 96 18 L 94 18 z M 96 18 L 98 18 L 98 16 L 96 16 L 96 18 z M 98 18 L 98 20 L 100 20 L 100 18 L 98 18 z M 100 18 L 102 18 L 102 16 L 100 16 L 100 18 z M 102 18 L 102 20 L 104 20 L 104 18 L 102 18 z M 104 18 L 106 18 L 106 16 L 104 16 L 104 18 z M 106 18 L 106 20 L 108 20 L 108 18 L 106 18 z M 108 18 L 110 18 L 110 16 L 108 16 L 108 18 z M 110 18 L 110 20 L 112 20 L 112 18 L 110 18 z M 110 20 L 108 20 L 108 22 L 110 22 L 110 20 z M 110 22 L 110 24 L 112 24 L 112 22 L 110 22 z M 110 24 L 108 24 L 108 26 L 110 26 L 110 24 z M 110 26 L 110 28 L 112 28 L 112 26 L 110 26 z M 110 28 L 108 28 L 108 30 L 110 30 L 110 28 z M 110 30 L 110 32 L 112 32 L 112 30 L 110 30 z M 110 32 L 108 32 L 108 34 L 110 34 L 110 32 z M 110 34 L 110 36 L 112 36 L 112 34 L 110 34 z M 110 36 L 108 36 L 108 38 L 110 38 L 110 36 z M 110 38 L 110 40 L 112 40 L 112 38 L 110 38 z M 110 40 L 108 40 L 108 42 L 110 42 L 110 40 z M 110 42 L 110 44 L 112 44 L 112 42 L 110 42 z M 110 44 L 108 44 L 108 46 L 110 46 L 110 44 z M 110 46 L 110 48 L 112 48 L 112 46 L 110 46 z M 110 48 L 108 48 L 108 50 L 110 50 L 110 48 z M 110 50 L 110 52 L 112 52 L 112 50 L 110 50 z M 110 52 L 108 52 L 108 54 L 110 54 L 110 52 z M 110 54 L 110 56 L 112 56 L 112 54 L 110 54 z M 110 56 L 108 56 L 108 58 L 110 58 L 110 56 z M 110 58 L 110 60 L 112 60 L 112 58 L 110 58 z M 110 60 L 108 60 L 108 62 L 110 62 L 110 60 z M 110 62 L 110 64 L 112 64 L 112 62 L 110 62 z M 110 64 L 108 64 L 108 66 L 110 66 L 110 64 z M 110 66 L 110 68 L 112 68 L 112 66 L 110 66 z M 110 68 L 108 68 L 108 70 L 110 70 L 110 68 z M 110 70 L 110 72 L 112 72 L 112 70 L 110 70 z M 110 72 L 108 72 L 108 74 L 110 74 L 110 72 z M 110 74 L 110 76 L 112 76 L 112 74 L 110 74 z M 110 76 L 108 76 L 108 78 L 110 78 L 110 76 z M 110 78 L 110 80 L 112 80 L 112 78 L 110 78 z M 110 80 L 108 80 L 108 82 L 110 82 L 110 80 z M 110 82 L 110 84 L 112 84 L 112 82 L 110 82 z M 110 84 L 108 84 L 108 86 L 110 86 L 110 84 z M 110 86 L 110 88 L 112 88 L 112 86 L 110 86 z M 110 88 L 108 88 L 108 90 L 110 90 L 110 88 z M 110 90 L 110 92 L 112 92 L 112 90 L 110 90 z M 110 92 L 108 92 L 108 94 L 110 94 L 110 92 z M 110 94 L 110 96 L 112 96 L 112 94 L 110 94 z M 110 96 L 108 96 L 108 98 L 110 98 L 110 96 z M 110 98 L 110 100 L 112 100 L 112 98 L 110 98 z M 110 100 L 108 100 L 108 102 L 110 102 L 110 100 z M 110 102 L 110 104 L 112 104 L 112 102 L 110 102 z M 110 104 L 108 104 L 108 106 L 110 106 L 110 104 z M 110 106 L 110 108 L 112 108 L 112 106 L 110 106 z M 110 108 L 108 108 L 108 110 L 110 110 L 110 108 z M 110 110 L 110 112 L 112 112 L 112 110 L 110 110 z M 108 110 L 106 110 L 106 112 L 108 112 L 108 110 z M 106 110 L 106 108 L 104 108 L 104 110 L 106 110 z M 104 110 L 102 110 L 102 112 L 104 112 L 104 110 z M 102 110 L 102 108 L 100 108 L 100 110 L 102 110 z M 100 110 L 98 110 L 98 112 L 100 112 L 100 110 z M 98 110 L 98 108 L 96 108 L 96 110 L 98 110 z M 96 110 L 94 110 L 94 112 L 96 112 L 96 110 z M 94 110 L 94 108 L 92 108 L 92 110 L 94 110 z M 92 110 L 90 110 L 90 112 L 92 112 L 92 110 z M 90 110 L 90 108 L 88 108 L 88 110 L 90 110 z M 88 110 L 86 110 L 86 112 L 88 112 L 88 110 z M 86 110 L 86 108 L 84 108 L 84 110 L 86 110 z M 84 110 L 82 110 L 82 112 L 84 112 L 84 110 z M 82 110 L 82 108 L 80 108 L 80 110 L 82 110 z M 80 110 L 78 110 L 78 112 L 80 112 L 80 110 z M 78 110 L 78 108 L 76 108 L 76 110 L 78 110 z M 76 110 L 74 110 L 74 112 L 76 112 L 76 110 z M 74 110 L 74 108 L 72 108 L 72 110 L 74 110 z M 72 110 L 70 110 L 70 112 L 72 112 L 72 110 z M 70 110 L 70 108 L 68 108 L 68 110 L 70 110 z M 68 110 L 66 110 L 66 112 L 68 112 L 68 110 z M 66 110 L 66 108 L 64 108 L 64 110 L 66 110 z M 64 110 L 62 110 L 62 112 L 64 112 L 64 110 z M 62 110 L 62 108 L 60 108 L 60 110 L 62 110 z M 60 110 L 58 110 L 58 112 L 60 112 L 60 110 z M 58 110 L 58 108 L 56 108 L 56 110 L 58 110 z M 56 110 L 54 110 L 54 112 L 56 112 L 56 110 z M 54 110 L 54 108 L 52 108 L 52 110 L 54 110 z M 52 110 L 50 110 L 50 112 L 52 112 L 52 110 z M 50 110 L 50 108 L 48 108 L 48 110 L 50 110 z M 48 110 L 46 110 L 46 112 L 48 112 L 48 110 z M 46 110 L 46 108 L 44 108 L 44 110 L 46 110 z M 44 110 L 42 110 L 42 112 L 44 112 L 44 110 z M 42 110 L 42 108 L 40 108 L 40 110 L 42 110 z M 40 110 L 38 110 L 38 112 L 40 112 L 40 110 z M 38 110 L 38 108 L 36 108 L 36 110 L 38 110 z M 36 110 L 34 110 L 34 112 L 36 112 L 36 110 z M 34 110 L 34 108 L 32 108 L 32 110 L 34 110 z M 32 110 L 30 110 L 30 112 L 32 112 L 32 110 z M 30 110 L 30 108 L 28 108 L 28 110 L 30 110 z M 28 110 L 26 110 L 26 112 L 28 112 L 28 110 z M 26 110 L 26 108 L 24 108 L 24 110 L 26 110 z M 24 110 L 22 110 L 22 112 L 24 112 L 24 110 z M 22 110 L 22 108 L 20 108 L 20 110 L 22 110 z M 20 110 L 18 110 L 18 112 L 20 112 L 20 110 z M 18 110 L 18 108 L 16 108 L 16 110 L 18 110 z M 18 108 L 20 108 L 20 106 L 18 106 L 18 108 z M 18 106 L 18 104 L 16 104 L 16 106 L 18 106 z M 18 104 L 20 104 L 20 102 L 18 102 L 18 104 z M 18 102 L 18 100 L 16 100 L 16 102 L 18 102 z M 18 100 L 20 100 L 20 98 L 18 98 L 18 100 z M 18 98 L 18 96 L 16 96 L 16 98 L 18 98 z M 18 96 L 20 96 L 20 94 L 18 94 L 18 96 z M 18 94 L 18 92 L 16 92 L 16 94 L 18 94 z M 18 92 L 20 92 L 20 90 L 18 90 L 18 92 z M 18 90 L 18 88 L 16 88 L 16 90 L 18 90 z M 18 88 L 20 88 L 20 86 L 18 86 L 18 88 z M 18 86 L 18 84 L 16 84 L 16 86 L 18 86 z M 18 84 L 20 84 L 20 82 L 18 82 L 18 84 z M 18 82 L 18 80 L 16 80 L 16 82 L 18 82 z M 18 80 L 20 80 L 20 78 L 18 78 L 18 80 z M 18 78 L 18 76 L 16 76 L 16 78 L 18 78 z M 18 76 L 20 76 L 20 74 L 18 74 L 18 76 z M 18 74 L 18 72 L 16 72 L 16 74 L 18 74 z M 18 72 L 20 72 L 20 70 L 18 70 L 18 72 z M 18 70 L 18 68 L 16 68 L 16 70 L 18 70 z M 18 68 L 20 68 L 20 66 L 18 66 L 18 68 z M 18 66 L 18 64 L 16 64 L 16 66 L 18 66 z M 18 64 L 20 64 L 20 62 L 18 62 L 18 64 z M 18 62 L 18 60 L 16 60 L 16 62 L 18 62 z M 18 60 L 20 60 L 20 58 L 18 58 L 18 60 z M 18 58 L 18 56 L 16 56 L 16 58 L 18 58 z M 18 56 L 20 56 L 20 54 L 18 54 L 18 56 z M 18 54 L 18 52 L 16 52 L 16 54 L 18 54 z M 18 52 L 20 52 L 20 50 L 18 50 L 18 52 z M 18 50 L 18 48 L 16 48 L 16 50 L 18 50 z M 18 48 L 20 48 L 20 46 L 18 46 L 18 48 z M 18 46 L 18 44 L 16 44 L 16 46 L 18 46 z M 18 44 L 20 44 L 20 42 L 18 42 L 18 44 z M 18 42 L 18 40 L 16 40 L 16 42 L 18 42 z M 18 40 L 20 40 L 20 38 L 18 38 L 18 40 z M 18 38 L 18 36 L 16 36 L 16 38 L 18 38 z M 18 36 L 20 36 L 20 34 L 18 34 L 18 36 z M 18 34 L 18 32 L 16 32 L 16 34 L 18 34 z M 18 32 L 20 32 L 20 30 L 18 30 L 18 32 z M 18 30 L 18 28 L 16 28 L 16 30 L 18 30 z M 18 28 L 20 28 L 20 26 L 18 26 L 18 28 z M 18 26 L 18 24 L 16 24 L 16 26 L 18 26 z M 18 24 L 20 24 L 20 22 L 18 22 L 18 24 z M 18 22 L 18 20 L 16 20 L 16 22 L 18 22 z M 20 22 L 22 22 L 22 20 L 20 20 L 20 22 z M 22 22 L 22 24 L 24 24 L 24 22 L 22 22 z M 24 22 L 26 22 L 26 20 L 24 20 L 24 22 z M 26 22 L 26 24 L 28 24 L 28 22 L 26 22 z M 28 22 L 30 22 L 30 20 L 28 20 L 28 22 z M 30 22 L 30 24 L 32 24 L 32 22 L 30 22 z M 32 22 L 34 22 L 34 20 L 32 20 L 32 22 z M 34 22 L 34 24 L 36 24 L 36 22 L 34 22 z M 36 22 L 38 22 L 38 20 L 36 20 L 36 22 z M 38 22 L 38 24 L 40 24 L 40 22 L 38 22 z M 40 22 L 42 22 L 42 20 L 40 20 L 40 22 z M 42 22 L 42 24 L 44 24 L 44 22 L 42 22 z M 44 22 L 46 22 L 46 20 L 44 20 L 44 22 z M 46 22 L 46 24 L 48 24 L 48 22 L 46 22 z M 48 22 L 50 22 L 50 20 L 48 20 L 48 22 z M 50 22 L 50 24 L 52 24 L 52 22 L 50 22 z M 52 22 L 54 22 L 54 20 L 52 20 L 52 22 z M 54 22 L 54 24 L 56 24 L 56 22 L 54 22 z M 56 22 L 58 22 L 58 20 L 56 20 L 56 22 z M 58 22 L 58 24 L 60 24 L 60 22 L 58 22 z M 60 22 L 62 22 L 62 20 L 60 20 L 60 22 z M 62 22 L 62 24 L 64 24 L 64 22 L 62 22 z M 64 22 L 66 22 L 66 20 L 64 20 L 64 22 z M 66 22 L 66 24 L 68 24 L 68 22 L 66 22 z M 68 22 L 70 22 L 70 20 L 68 20 L 68 22 z M 70 22 L 70 24 L 72 24 L 72 22 L 70 22 z M 72 22 L 74 22 L 74 20 L 72 20 L 72 22 z M 74 22 L 74 24 L 76 24 L 76 22 L 74 22 z M 76 22 L 78 22 L 78 20 L 76 20 L 76 22 z M 78 22 L 78 24 L 80 24 L 80 22 L 78 22 z M 80 22 L 82 22 L 82 20 L 80 20 L 80 22 z M 82 22 L 82 24 L 84 24 L 84 22 L 82 22 z M 84 22 L 86 22 L 86 20 L 84 20 L 84 22 z M 86 22 L 86 24 L 88 24 L 88 22 L 86 22 z M 88 22 L 90 22 L 90 20 L 88 20 L 88 22 z M 90 22 L 90 24 L 92 24 L 92 22 L 90 22 z M 92 22 L 94 22 L 94 20 L 92 20 L 92 22 z M 94 22 L 94 24 L 96 24 L 96 22 L 94 22 z M 96 22 L 98 22 L 98 20 L 96 20 L 96 22 z M 98 22 L 98 24 L 100 24 L 100 22 L 98 22 z M 100 22 L 102 22 L 102 20 L 100 20 L 100 22 z M 102 22 L 102 24 L 104 24 L 104 22 L 102 22 z M 104 22 L 106 22 L 106 20 L 104 20 L 104 22 z M 106 22 L 106 24 L 108 24 L 108 22 L 106 22 z M 106 24 L 104 24 L 104 26 L 106 26 L 106 24 z M 106 26 L 106 28 L 108 28 L 108 26 L 106 26 z M 106 28 L 104 28 L 104 30 L 106 30 L 106 28 z M 106 30 L 106 32 L 108 32 L 108 30 L 106 30 z M 106 32 L 104 32 L 104 34 L 106 34 L 106 32 z M 106 34 L 106 36 L 108 36 L 108 34 L 106 34 z M 106 36 L 104 36 L 104 38 L 106 38 L 106 36 z M 106 38 L 106 40 L 108 40 L 108 38 L 106 38 z M 106 40 L 104 40 L 104 42 L 106 42 L 106 40 z M 106 42 L 106 44 L 108 44 L 108 42 L 106 42 z M 106 44 L 104 44 L 104 46 L 106 46 L 106 44 z M 106 46 L 106 48 L 108 48 L 108 46 L 106 46 z M 106 48 L 104 48 L 104 50 L 106 50 L 106 48 z M 106 50 L 106 52 L 108 52 L 108 50 L 106 50 z M 106 52 L 104 52 L 104 54 L 106 54 L 106 52 z M 106 54 L 106 56 L 108 56 L 108 54 L 106 54 z M 106 56 L 104 56 L 104 58 L 106 58 L 106 56 z M 106 58 L 106 60 L 108 60 L 108 58 L 106 58 z M 106 60 L 104 60 L 104 62 L 106 62 L 106 60 z M 106 62 L 106 64 L 108 64 L 108 62 L 106 62 z M 106 64 L 104 64 L 104 66 L 106 66 L 106 64 z M 106 66 L 106 68 L 108 68 L 108 66 L 106 66 z M 106 68 L 104 68 L 104 70 L 106 70 L 106 68 z M 106 70 L 106 72 L 108 72 L 108 70 L 106 70 z M 106 72 L 104 72 L 104 74 L 106 74 L 106 72 z M 106 74 L 106 76 L 108 76 L 108 74 L 106 74 z M 106 76 L 104 76 L 104 78 L 106 78 L 106 76 z M 106 78 L 106 80 L 108 80 L 108 78 L 106 78 z M 106 80 L 104 80 L 104 82 L 106 82 L 106 80 z M 106 82 L 106 84 L 108 84 L 108 82 L 106 82 z M 106 84 L 104 84 L 104 86 L 106 86 L 106 84 z M 106 86 L 106 88 L 108 88 L 108 86 L 106 86 z M 106 88 L 104 88 L 104 90 L 106 90 L 106 88 z M 106 90 L 106 92 L 108 92 L 108 90 L 106 90 z M 106 92 L 104 92 L 104 94 L 106 94 L 106 92 z M 106 94 L 106 96 L 108 96 L 108 94 L 106 94 z M 106 96 L 104 96 L 104 98 L 106 98 L 106 96 z M 106 98 L 106 100 L 108 100 L 108 98 L 106 98 z M 106 100 L 104 100 L 104 102 L 106 102 L 106 100 z M 106 102 L 106 104 L 108 104 L 108 102 L 106 102 z M 106 104 L 104 104 L 104 106 L 106 106 L 106 104 z M 106 106 L 106 108 L 108 108 L 108 106 L 106 106 z M 104 106 L 102 106 L 102 108 L 104 108 L 104 106 z M 102 106 L 102 104 L 100 104 L 100 106 L 102 106 z M 100 106 L 98 106 L 98 108 L 100 108 L 100 106 z M 98 106 L 98 104 L 96 104 L 96 106 L 98 106 z M 96 106 L 94 106 L 94 108 L 96 108 L 96 106 z M 94 106 L 94 104 L 92 104 L 92 106 L 94 106 z M 92 106 L 90 106 L 90 108 L 92 108 L 92 106 z M 90 106 L 90 104 L 88 104 L 88 106 L 90 106 z M 88 106 L 86 106 L 86 108 L 88 108 L 88 106 z M 86 106 L 86 104 L 84 104 L 84 106 L 86 106 z M 84 106 L 82 106 L 82 108 L 84 108 L 84 106 z M 82 106 L 82 104 L 80 104 L 80 106 L 82 106 z M 80 106 L 78 106 L 78 108 L 80 108 L 80 106 z M 78 106 L 78 104 L 76 104 L 76 106 L 78 106 z M 76 106 L 74 106 L 74 108 L 76 108 L 76 106 z M 74 106 L 74 104 L 72 104 L 72 106 L 74 106 z M 72 106 L 70 106 L 70 108 L 72 108 L 72 106 z M 70 106 L 70 104 L 68 104 L 68 106 L 70 106 z M 68 106 L 66 106 L 66 108 L 68 108 L 68 106 z M 66 106 L 66 104 L 64 104 L 64 106 L 66 106 z M 64 106 L 62 106 L 62 108 L 64 108 L 64 106 z M 62 106 L 62 104 L 60 104 L 60 106 L 62 106 z M 60 106 L 58 106 L 58 108 L 60 108 L 60 106 z M 58 106 L 58 104 L 56 104 L 56 106 L 58 106 z M 56 106 L 54 106 L 54 108 L 56 108 L 56 106 z M 54 106 L 54 104 L 52 104 L 52 106 L 54 106 z M 52 106 L 50 106 L 50 108 L 52 108 L 52 106 z M 50 106 L 50 104 L 48 104 L 48 106 L 50 106 z M 48 106 L 46 106 L 46 108 L 48 108 L 48 106 z M 46 106 L 46 104 L 44 104 L 44 106 L 46 106 z M 44 106 L 42 106 L 42 108 L 44 108 L 44 106 z M 42 106 L 42 104 L 40 104 L 40 106 L 42 106 z M 40 106 L 38 106 L 38 108 L 40 108 L 40 106 z M 38 106 L 38 104 L 36 104 L 36 106 L 38 106 z M 36 106 L 34 106 L 34 108 L 36 108 L 36 106 z M 34 106 L 34 104 L 32 104 L 32 106 L 34 106 z M 32 106 L 30 106 L 30 108 L 32 108 L 32 106 z M 30 106 L 30 104 L 28 104 L 28 106 L 30 106 z M 28 106 L 26 106 L 26 108 L 28 108 L 28 106 z M 26 106 L 26 104 L 24 104 L 24 106 L 26 106 z M 24 106 L 22 106 L 22 108 L 24 108 L 24 106 z M 22 106 L 22 104 L 20 104 L 20 106 L 22 106 z M 22 104 L 24 104 L 24 102 L 22 102 L 22 104 z M 22 102 L 22 100 L 20 100 L 20 102 L 22 102 z M 22 100 L 24 100 L 24 98 L 22 98 L 22 100 z M 22 98 L 22 96 L 20 96 L 20 98 L 22 98 z M 22 96 L 24 96 L 24 94 L 22 94 L 22 96 z M 22 94 L 22 92 L 20 92 L 20 94 L 22 94 z M 22 92 L 24 92 L 24 90 L 22 90 L 22 92 z M 22 90 L 22 88 L 20 88 L 20 90 L 22 90 z M 22 88 L 24 88 L 24 86 L 22 86 L 22 88 z M 22 86 L 22 84 L 20 84 L 20 86 L 22 86 z M 22 84 L 24 84 L 24 82 L 22 82 L 22 84 z M 22 82 L 22 80 L 20 80 L 20 82 L 22 82 z M 22 80 L 24 80 L 24 78 L 22 78 L 22 80 z M 22 78 L 22 76 L 20 76 L 20 78 L 22 78 z M 22 76 L 24 76 L 24 74 L 22 74 L 22 76 z M 22 74 L 22 72 L 20 72 L 20 74 L 22 74 z M 22 72 L 24 72 L 24 70 L 22 70 L 22 72 z M 22 70 L 22 68 L 20 68 L 20 70 L 22 70 z M 22 68 L 24 68 L 24 66 L 22 66 L 22 68 z M 22 66 L 22 64 L 20 64 L 20 66 L 22 66 z M 22 64 L 24 64 L 24 62 L 22 62 L 22 64 z M 22 62 L 22 60 L 20 60 L 20 62 L 22 62 z M 22 60 L 24 60 L 24 58 L 22 58 L 22 60 z M 22 58 L 22 56 L 20 56 L 20 58 L 22 58 z M 22 56 L 24 56 L 24 54 L 22 54 L 22 56 z M 22 54 L 22 52 L 20 52 L 20 54 L 22 54 z M 22 52 L 24 52 L 24 50 L 22 50 L 22 52 z M 22 50 L 22 48 L 20 48 L 20 50 L 22 50 z M 22 48 L 24 48 L 24 46 L 22 46 L 22 48 z M 22 46 L 22 44 L 20 44 L 20 46 L 22 46 z M 22 44 L 24 44 L 24 42 L 22 42 L 22 44 z M 22 42 L 22 40 L 20 40 L 20 42 L 22 42 z M 22 40 L 24 40 L 24 38 L 22 38 L 22 40 z M 22 38 L 22 36 L 20 36 L 20 38 L 22 38 z M 22 36 L 24 36 L 24 34 L 22 34 L 22 36 z M 22 34 L 22 32 L 20 32 L 20 34 L 22 34 z M 22 32 L 24 32 L 24 30 L 22 30 L 22 32 z M 22 30 L 22 28 L 20 28 L 20 30 L 22 30 z M 22 28 L 24 28 L 24 26 L 22 26 L 22 28 z M 22 26 L 22 24 L 20 24 L 20 26 L 22 26 z M 24 26 L 26 26 L 26 24 L 24 24 L 24 26 z M 26 26 L 26 28 L 28 28 L 28 26 L 26 26 z M 28 26 L 30 26 L 30 24 L 28 24 L 28 26 z M 30 26 L 30 28 L 32 28 L 32 26 L 30 26 z M 32 26 L 34 26 L 34 24 L 32 24 L 32 26 z M 34 26 L 34 28 L 36 28 L 36 26 L 34 26 z M 36 26 L 38 26 L 38 24 L 36 24 L 36 26 z M 38 26 L 38 28 L 40 28 L 40 26 L 38 26 z M 40 26 L 42 26 L 42 24 L 40 24 L 40 26 z M 42 26 L 42 28 L 44 28 L 44 26 L 42 26 z M 44 26 L 46 26 L 46 24 L 44 24 L 44 26 z M 46 26 L 46 28 L 48 28 L 48 26 L 46 26 z M 48 26 L 50 26 L 50 24 L 48 24 L 48 26 z M 50 26 L 50 28 L 52 28 L 52 26 L 50 26 z M 52 26 L 54 26 L 54 24 L 52 24 L 52 26 z M 54 26 L 54 28 L 56 28 L 56 26 L 54 26 z M 56 26 L 58 26 L 58 24 L 56 24 L 56 26 z M 58 26 L 58 28 L 60 28 L 60 26 L 58 26 z M 60 26 L 62 26 L 62 24 L 60 24 L 60 26 z M 62 26 L 62 28 L 64 28 L 64 26 L 62 26 z M 64 26 L 66 26 L 66 24 L 64 24 L 64 26 z M 66 26 L 66 28 L 68 28 L 68 26 L 66 26 z M 68 26 L 70 26 L 70 24 L 68 24 L 68 26 z M 70 26 L 70 28 L 72 28 L 72 26 L 70 26 z M 72 26 L 74 26 L 74 24 L 72 24 L 72 26 z M 74 26 L 74 28 L 76 28 L 76 26 L 74 26 z M 76 26 L 78 26 L 78 24 L 76 24 L 76 26 z M 78 26 L 78 28 L 80 28 L 80 26 L 78 26 z M 80 26 L 82 26 L 82 24 L 80 24 L 80 26 z M 82 26 L 82 28 L 84 28 L 84 26 L 82 26 z M 84 26 L 86 26 L 86 24 L 84 24 L 84 26 z M 86 26 L 86 28 L 88 28 L 88 26 L 86 26 z M 88 26 L 90 26 L 90 24 L 88 24 L 88 26 z M 90 26 L 90 28 L 92 28 L 92 26 L 90 26 z M 92 26 L 94 26 L 94 24 L 92 24 L 92 26 z M 94 26 L 94 28 L 96 28 L 96 26 L 94 26 z M 96 26 L 98 26 L 98 24 L 96 24 L 96 26 z M 98 26 L 98 28 L 100 28 L 100 26 L 98 26 z M 100 26 L 102 26 L 102 24 L 100 24 L 100 26 z M 102 26 L 102 28 L 104 28 L 104 26 L 102 26 z M 102 28 L 100 28 L 100 30 L 102 30 L 102 28 z M 102 30 L 102 32 L 104 32 L 104 30 L 102 30 z M 102 32 L 100 32 L 100 34 L 102 34 L 102 32 z M 102 34 L 102 36 L 104 36 L 104 34 L 102 34 z M 102 36 L 100 36 L 100 38 L 102 38 L 102 36 z M 102 38 L 102 40 L 104 40 L 104 38 L 102 38 z M 102 40 L 100 40 L 100 42 L 102 42 L 102 40 z M 102 42 L 102 44 L 104 44 L 104 42 L 102 42 z M 102 44 L 100 44 L 100 46 L 102 46 L 102 44 z M 102 46 L 102 48 L 104 48 L 104 46 L 102 46 z M 102 48 L 100 48 L 100 50 L 102 50 L 102 48 z M 102 50 L 102 52 L 104 52 L 104 50 L 102 50 z M 102 52 L 100 52 L 100 54 L 102 54 L 102 52 z M 102 54 L 102 56 L 104 56 L 104 54 L 102 54 z M 102 56 L 100 56 L 100 58 L 102 58 L 102 56 z M 102 58 L 102 60 L 104 60 L 104 58 L 102 58 z M 102 60 L 100 60 L 100 62 L 102 62 L 102 60 z M 102 62 L 102 64 L 104 64 L 104 62 L 102 62 z M 102 64 L 100 64 L 100 66 L 102 66 L 102 64 z M 102 66 L 102 68 L 104 68 L 104 66 L 102 66 z M 102 68 L 100 68 L 100 70 L 102 70 L 102 68 z M 102 70 L 102 72 L 104 72 L 104 70 L 102 70 z M 102 72 L 100 72 L 100 74 L 102 74 L 102 72 z M 102 74 L 102 76 L 104 76 L 104 74 L 102 74 z M 102 76 L 100 76 L 100 78 L 102 78 L 102 76 z M 102 78 L 102 80 L 104 80 L 104 78 L 102 78 z M 102 80 L 100 80 L 100 82 L 102 82 L 102 80 z M 102 82 L 102 84 L 104 84 L 104 82 L 102 82 z M 102 84 L 100 84 L 100 86 L 102 86 L 102 84 z M 102 86 L 102 88 L 104 88 L 104 86 L 102 86 z M 102 88 L 100 88 L 100 90 L 102 90 L 102 88 z M 102 90 L 102 92 L 104 92 L 104 90 L 102 90 z M 102 92 L 100 92 L 100 94 L 102 94 L 102 92 z M 102 94 L 102 96 L 104 96 L 104 94 L 102 94 z M 102 96 L 100 96 L 100 98 L 102 98 L 102 96 z M 102 98 L 102 100 L 104 100 L 104 98 L 102 98 z M 102 100 L 100 100 L 100 102 L 102 102 L 102 100 z M 102 102 L 102 104 L 104 104 L 104 102 L 102 102 z M 100 102 L 98 102 L 98 104 L 100 104 L 100 102 z M 98 102 L 98 100 L 96 100 L 96 102 L 98 102 z M 96 102 L 94 102 L 94 104 L 96 104 L 96 102 z M 94 102 L 94 100 L 92 100 L 92 102 L 94 102 z M 92 102 L 90 102 L 90 104 L 92 104 L 92 102 z M 90 102 L 90 100 L 88 100 L 88 102 L 90 102 z M 88 102 L 86 102 L 86 104 L 88 104 L 88 102 z M 86 102 L 86 100 L 84 100 L 84 102 L 86 102 z M 84 102 L 82 102 L 82 104 L 84 104 L 84 102 z M 82 102 L 82 100 L 80 100 L 80 102 L 82 102 z M 80 102 L 78 102 L 78 104 L 80 104 L 80 102 z M 78 102 L 78 100 L 76 100 L 76 102 L 78 102 z M 76 102 L 74 102 L 74 104 L 76 104 L 76 102 z M 74 102 L 74 100 L 72 100 L 72 102 L 74 102 z M 72 102 L 70 102 L 70 104 L 72 104 L 72 102 z M 70 102 L 70 100 L 68 100 L 68 102 L 70 102 z M 68 102 L 66 102 L 66 104 L 68 104 L 68 102 z M 66 102 L 66 100 L 64 100 L 64 102 L 66 102 z M 64 102 L 62 102 L 62 104 L 64 104 L 64 102 z M 62 102 L 62 100 L 60 100 L 60 102 L 62 102 z M 60 102 L 58 102 L 58 104 L 60 104 L 60 102 z M 58 102 L 58 100 L 56 100 L 56 102 L 58 102 z M 56 102 L 54 102 L 54 104 L 56 104 L 56 102 z M 54 102 L 54 100 L 52 100 L 52 102 L 54 102 z M 52 102 L 50 102 L 50 104 L 52 104 L 52 102 z M 50 102 L 50 100 L 48 100 L 48 102 L 50 102 z M 48 102 L 46 102 L 46 104 L 48 104 L 48 102 z M 46 102 L 46 100 L 44 100 L 44 102 L 46 102 z M 44 102 L 42 102 L 42 104 L 44 104 L 44 102 z M 42 102 L 42 100 L 40 100 L 40 102 L 42 102 z M 40 102 L 38 102 L 38 104 L 40 104 L 40 102 z M 38 102 L 38 100 L 36 100 L 36 102 L 38 102 z M 36 102 L 34 102 L 34 104 L 36 104 L 36 102 z M 34 102 L 34 100 L 32 100 L 32 102 L 34 102 z M 32 102 L 30 102 L 30 104 L 32 104 L 32 102 z M 30 102 L 30 100 L 28 100 L 28 102 L 30 102 z M 28 102 L 26 102 L 26 104 L 28 104 L 28 102 z M 26 102 L 26 100 L 24 100 L 24 102 L 26 102 z M 26 100 L 28 100 L 28 98 L 26 98 L 26 100 z M 26 98 L 26 96 L 24 96 L 24 98 L 26 98 z M 26 96 L 28 96 L 28 94 L 26 94 L 26 96 z M 26 94 L 26 92 L 24 92 L 24 94 L 26 94 z M 26 92 L 28 92 L 28 90 L 26 90 L 26 92 z M 26 90 L 26 88 L 24 88 L 24 90 L 26 90 z M 26 88 L 28 88 L 28 86 L 26 86 L 26 88 z M 26 86 L 26 84 L 24 84 L 24 86 L 26 86 z M 26 84 L 28 84 L 28 82 L 26 82 L 26 84 z M 26 82 L 26 80 L 24 80 L 24 82 L 26 82 z M 26 80 L 28 80 L 28 78 L 26 78 L 26 80 z M 26 78 L 26 76 L 24 76 L 24 78 L 26 78 z M 26 76 L 28 76 L 28 74 L 26 74 L 26 76 z M 26 74 L 26 72 L 24 72 L 24 74 L 26 74 z M 26 72 L 28 72 L 28 70 L 26 70 L 26 72 z M 26 70 L 26 68 L 24 68 L 24 70 L 26 70 z M 26 68 L 28 68 L 28 66 L 26 66 L 26 68 z M 26 66 L 26 64 L 24 64 L 24 66 L 26 66 z M 26 64 L 28 64 L 28 62 L 26 62 L 26 64 z M 26 62 L 26 60 L 24 60 L 24 62 L 26 62 z M 26 60 L 28 60 L 28 58 L 26 58 L 26 60 z M 26 58 L 26 56 L 24 56 L 24 58 L 26 58 z M 26 56 L 28 56 L 28 54 L 26 54 L 26 56 z M 26 54 L 26 52 L 24 52 L 24 54 L 26 54 z M 26 52 L 28 52 L 28 50 L 26 50 L 26 52 z M 26 50 L 26 48 L 24 48 L 24 50 L 26 50 z M 26 48 L 28 48 L 28 46 L 26 46 L 26 48 z M 26 46 L 26 44 L 24 44 L 24 46 L 26 46 z M 26 44 L 28 44 L 28 42 L 26 42 L 26 44 z M 26 42 L 26 40 L 24 40 L 24 42 L 26 42 z M 26 40 L 28 40 L 28 38 L 26 38 L 26 40 z M 26 38 L 26 36 L 24 36 L 24 38 L 26 38 z M 26 36 L 28 36 L 28 34 L 26 34 L 26 36 z M 26 34 L 26 32 L 24 32 L 24 34 L 26 34 z M 26 32 L 28 32 L 28 30 L 26 30 L 26 32 z M 26 30 L 26 28 L 24 28 L 24 30 L 26 30 z M 28 30 L 30 30 L 30 28 L 28 28 L 28 30 z M 30 30 L 30 32 L 32 32 L 32 30 L 30 30 z M 32 30 L 34 30 L 34 28 L 32 28 L 32 30 z M 34 30 L 34 32 L 36 32 L 36 30 L 34 30 z M 36 30 L 38 30 L 38 28 L 36 28 L 36 30 z M 38 30 L 38 32 L 40 32 L 40 30 L 38 30 z M 40 30 L 42 30 L 42 28 L 40 28 L 40 30 z M 42 30 L 42 32 L 44 32 L 44 30 L 42 30 z M 44 30 L 46 30 L 46 28 L 44 28 L 44 30 z M 46 30 L 46 32 L 48 32 L 48 30 L 46 30 z M 48 30 L 50 30 L 50 28 L 48 28 L 48 30 z M 50 30 L 50 32 L 52 32 L 52 30 L 50 30 z M 52 30 L 54 30 L 54 28 L 52 28 L 52 30 z M 54 30 L 54 32 L 56 32 L 56 30 L 54 30 z M 56 30 L 58 30 L 58 28 L 56 28 L 56 30 z M 58 30 L 58 32 L 60 32 L 60 30 L 58 30 z M 60 30 L 62 30 L 62 28 L 60 28 L 60 30 z M 62 30 L 62 32 L 64 32 L 64 30 L 62 30 z M 64 30 L 66 30 L 66 28 L 64 28 L 64 30 z M 66 30 L 66 32 L 68 32 L 68 30 L 66 30 z M 68 30 L 70 30 L 70 28 L 68 28 L 68 30 z M 70 30 L 70 32 L 72 32 L 72 30 L 70 30 z M 72 30 L 74 30 L 74 28 L 72 28 L 72 30 z M 74 30 L 74 32 L 76 32 L 76 30 L 74 30 z M 76 30 L 78 30 L 78 28 L 76 28 L 76 30 z M 78 30 L 78 32 L 80 32 L 80 30 L 78 30 z M 80 30 L 82 30 L 82 28 L 80 28 L 80 30 z M 82 30 L 82 32 L 84 32 L 84 30 L 82 30 z M 84 30 L 86 30 L 86 28 L 84 28 L 84 30 z M 86 30 L 86 32 L 88 32 L 88 30 L 86 30 z M 88 30 L 90 30 L 90 28 L 88 28 L 88 30 z M 90 30 L 90 32 L 92 32 L 92 30 L 90 30 z M 92 30 L 94 30 L 94 28 L 92 28 L 92 30 z M 94 30 L 94 32 L 96 32 L 96 30 L 94 30 z M 96 30 L 98 30 L 98 28 L 96 28 L 96 30 z M 98 30 L 98 32 L 100 32 L 100 30 L 98 30 z M 98 32 L 96 32 L 96 34 L 98 34 L 98 32 z M 98 34 L 98 36 L 100 36 L 100 34 L 98 34 z M 98 36 L 96 36 L 96 38 L 98 38 L 98 36 z M 98 38 L 98 40 L 100 40 L 100 38 L 98 38 z M 98 40 L 96 40 L 96 42 L 98 42 L 98 40 z M 98 42 L 98 44 L 100 44 L 100 42 L 98 42 z M 98 44 L 96 44 L 96 46 L 98 46 L 98 44 z M 98 46 L 98 48 L 100 48 L 100 46 L 98 46 z M 98 48 L 96 48 L 96 50 L 98 50 L 98 48 z M 98 50 L 98 52 L 100 52 L 100 50 L 98 50 z M 98 52 L 96 52 L 96 54 L 98 54 L 98 52 z M 98 54 L 98 56 L 100 56 L 100 54 L 98 54 z M 98 56 L 96 56 L 96 58 L 98 58 L 98 56 z M 98 58 L 98 60 L 100 60 L 100 58 L 98 58 z M 98 60 L 96 60 L 96 62 L 98 62 L 98 60 z M 98 62 L 98 64 L 100 64 L 100 62 L 98 62 z M 98 64 L 96 64 L 96 66 L 98 66 L 98 64 z M 98 66 L 98 68 L 100 68 L 100 66 L 98 66 z M 98 68 L 96 68 L 96 70 L 98 70 L 98 68 z M 98 70 L 98 72 L 100 72 L 100 70 L 98 70 z M 98 72 L 96 72 L 96 74 L 98 74 L 98 72 z M 98 74 L 98 76 L 100 76 L 100 74 L 98 74 z M 98 76 L 96 76 L 96 78 L 98 78 L 98 76 z M 98 78 L 98 80 L 100 80 L 100 78 L 98 78 z M 98 80 L 96 80 L 96 82 L 98 82 L 98 80 z M 98 82 L 98 84 L 100 84 L 100 82 L 98 82 z M 98 84 L 96 84 L 96 86 L 98 86 L 98 84 z M 98 86 L 98 88 L 100 88 L 100 86 L 98 86 z M 98 88 L 96 88 L 96 90 L 98 90 L 98 88 z M 98 90 L 98 92 L 100 92 L 100 90 L 98 90 z M 98 92 L 96 92 L 96 94 L 98 94 L 98 92 z M 98 94 L 98 96 L 100 96 L 100 94 L 98 94 z M 98 96 L 96 96 L 96 98 L 98 98 L 98 96 z M 98 98 L 98 100 L 100 100 L 100 98 L 98 98 z M 96 98 L 94 98 L 94 100 L 96 100 L 96 98 z M 94 98 L 94 96 L 92 96 L 92 98 L 94 98 z M 92 98 L 90 98 L 90 100 L 92 100 L 92 98 z M 90 98 L 90 96 L 88 96 L 88 98 L 90 98 z M 88 98 L 86 98 L 86 100 L 88 100 L 88 98 z M 86 98 L 86 96 L 84 96 L 84 98 L 86 98 z M 84 98 L 82 98 L 82 100 L 84 100 L 84 98 z M 82 98 L 82 96 L 80 96 L 80 98 L 82 98 z M 80 98 L 78 98 L 78 100 L 80 100 L 80 98 z M 78 98 L 78 96 L 76 96 L 76 98 L 78 98 z M 76 98 L 74 98 L 74 100 L 76 100 L 76 98 z M 74 98 L 74 96 L 72 96 L 72 98 L 74 98 z M 72 98 L 70 98 L 70 100 L 72 100 L 72 98 z M 70 98 L 70 96 L 68 96 L 68 98 L 70 98 z M 68 98 L 66 98 L 66 100 L 68 100 L 68 98 z M 66 98 L 66 96 L 64 96 L 64 98 L 66 98 z M 64 98 L 62 98 L 62 100 L 64 100 L 64 98 z M 62 98 L 62 96 L 60 96 L 60 98 L 62 98 z M 60 98 L 58 98 L 58 100 L 60 100 L 60 98 z M 58 98 L 58 96 L 56 96 L 56 98 L 58 98 z M 56 98 L 54 98 L 54 100 L 56 100 L 56 98 z M 54 98 L 54 96 L 52 96 L 52 98 L 54 98 z M 52 98 L 50 98 L 50 100 L 52 100 L 52 98 z M 50 98 L 50 96 L 48 96 L 48 98 L 50 98 z M 48 98 L 46 98 L 46 100 L 48 100 L 48 98 z M 46 98 L 46 96 L 44 96 L 44 98 L 46 98 z M 44 98 L 42 98 L 42 100 L 44 100 L 44 98 z M 42 98 L 42 96 L 40 96 L 40 98 L 42 98 z M 40 98 L 38 98 L 38 100 L 40 100 L 40 98 z M 38 98 L 38 96 L 36 96 L 36 98 L 38 98 z M 36 98 L 34 98 L 34 100 L 36 100 L 36 98 z M 34 98 L 34 96 L 32 96 L 32 98 L 34 98 z M 32 98 L 30 98 L 30 100 L 32 100 L 32 98 z M 30 98 L 30 96 L 28 96 L 28 98 L 30 98 z M 30 96 L 32 96 L 32 94 L 30 94 L 30 96 z M 30 94 L 30 92 L 28 92 L 28 94 L 30 94 z M 30 92 L 32 92 L 32 90 L 30 90 L 30 92 z M 30 90 L 30 88 L 28 88 L 28 90 L 30 90 z M 30 88 L 32 88 L 32 86 L 30 86 L 30 88 z M 30 86 L 30 84 L 28 84 L 28 86 L 30 86 z M 30 84 L 32 84 L 32 82 L 30 82 L 30 84 z M 30 82 L 30 80 L 28 80 L 28 82 L 30 82 z M 30 80 L 32 80 L 32 78 L 30 78 L 30 80 z M 30 78 L 30 76 L 28 76 L 28 78 L 30 78 z M 30 76 L 32 76 L 32 74 L 30 74 L 30 76 z M 30 74 L 30 72 L 28 72 L 28 74 L 30 74 z M 30 72 L 32 72 L 32 70 L 30 70 L 30 72 z M 30 70 L 30 68 L 28 68 L 28 70 L 30 70 z M 30 68 L 32 68 L 32 66 L 30 66 L 30 68 z M 30 66 L 30 64 L 28 64 L 28 66 L 30 66 z M 30 64 L 32 64 L 32 62 L 30 62 L 30 64 z M 30 62 L 30 60 L 28 60 L 28 62 L 30 62 z M 30 60 L 32 60 L 32 58 L 30 58 L 30 60 z M 30 58 L 30 56 L 28 56 L 28 58 L 30 58 z M 30 56 L 32 56 L 32 54 L 30 54 L 30 56 z M 30 54 L 30 52 L 28 52 L 28 54 L 30 54 z M 30 52 L 32 52 L 32 50 L 30 50 L 30 52 z M 30 50 L 30 48 L 28 48 L 28 50 L 30 50 z M 30 48 L 32 48 L 32 46 L 30 46 L 30 48 z M 30 46 L 30 44 L 28 44 L 28 46 L 30 46 z M 30 44 L 32 44 L 32 42 L 30 42 L 30 44 z M 30 42 L 30 40 L 28 40 L 28 42 L 30 42 z M 30 40 L 32 40 L 32 38 L 30 38 L 30 40 z M 30 38 L 30 36 L 28 36 L 28 38 L 30 38 z M 30 36 L 32 36 L 32 34 L 30 34 L 30 36 z M 30 34 L 30 32 L 28 32 L 28 34 L 30 34 z M 32 34 L 34 34 L 34 32 L 32 32 L 32 34 z M 34 34 L 34 36 L 36 36 L 36 34 L 34 34 z M 36 34 L 38 34 L 38 32 L 36 32 L 36 34 z M 38 34 L 38 36 L 40 36 L 40 34 L 38 34 z M 40 34 L 42 34 L 42 32 L 40 32 L 40 34 z M 42 34 L 42 36 L 44 36 L 44 34 L 42 34 z M 44 34 L 46 34 L 46 32 L 44 32 L 44 34 z M 46 34 L 46 36 L 48 36 L 48 34 L 46 34 z M 48 34 L 50 34 L 50 32 L 48 32 L 48 34 z M 50 34 L 50 36 L 52 36 L 52 34 L 50 34 z M 52 34 L 54 34 L 54 32 L 52 32 L 52 34 z M 54 34 L 54 36 L 56 36 L 56 34 L 54 34 z M 56 34 L 58 34 L 58 32 L 56 32 L 56 34 z M 58 34 L 58 36 L 60 36 L 60 34 L 58 34 z M 60 34 L 62 34 L 62 32 L 60 32 L 60 34 z M 62 34 L 62 36 L 64 36 L 64 34 L 62 34 z M 64 34 L 66 34 L 66 32 L 64 32 L 64 34 z M 66 34 L 66 36 L 68 36 L 68 34 L 66 34 z M 68 34 L 70 34 L 70 32 L 68 32 L 68 34 z M 70 34 L 70 36 L 72 36 L 72 34 L 70 34 z M 72 34 L 74 34 L 74 32 L 72 32 L 72 34 z M 74 34 L 74 36 L 76 36 L 76 34 L 74 34 z M 76 34 L 78 34 L 78 32 L 76 32 L 76 34 z M 78 34 L 78 36 L 80 36 L 80 34 L 78 34 z M 80 34 L 82 34 L 82 32 L 80 32 L 80 34 z M 82 34 L 82 36 L 84 36 L 84 34 L 82 34 z M 84 34 L 86 34 L 86 32 L 84 32 L 84 34 z M 86 34 L 86 36 L 88 36 L 88 34 L 86 34 z M 88 34 L 90 34 L 90 32 L 88 32 L 88 34 z M 90 34 L 90 36 L 92 36 L 92 34 L 90 34 z M 92 34 L 94 34 L 94 32 L 92 32 L 92 34 z M 94 34 L 94 36 L 96 36 L 96 34 L 94 34 z M 94 36 L 92 36 L 92 38 L 94 38 L 94 36 z M 94 38 L 94 40 L 96 40 L 96 38 L 94 38 z M 94 40 L 92 40 L 92 42 L 94 42 L 94 40 z M 94 42 L 94 44 L 96 44 L 96 42 L 94 42 z M 94 44 L 92 44 L 92 46 L 94 46 L 94 44 z M 94 46 L 94 48 L 96 48 L 96 46 L 94 46 z M 94 48 L 92 48 L 92 50 L 94 50 L 94 48 z M 94 50 L 94 52 L 96 52 L 96 50 L 94 50 z M 94 52 L 92 52 L 92 54 L 94 54 L 94 52 z M 94 54 L 94 56 L 96 56 L 96 54 L 94 54 z M 94 56 L 92 56 L 92 58 L 94 58 L 94 56 z M 94 58 L 94 60 L 96 60 L 96 58 L 94 58 z M 94 60 L 92 60 L 92 62 L 94 62 L 94 60 z M 94 62 L 94 64 L 96 64 L 96 62 L 94 62 z M 94 64 L 92 64 L 92 66 L 94 66 L 94 64 z M 94 66 L 94 68 L 96 68 L 96 66 L 94 66 z M 94 68 L 92 68 L 92 70 L 94 70 L 94 68 z M 94 70 L 94 72 L 96 72 L 96 70 L 94 70 z M 94 72 L 92 72 L 92 74 L 94 74 L 94 72 z M 94 74 L 94 76 L 96 76 L 96 74 L 94 74 z M 94 76 L 92 76 L 92 78 L 94 78 L 94 76 z M 94 78 L 94 80 L 96 80 L 96 78 L 94 78 z M 94 80 L 92 80 L 92 82 L 94 82 L 94 80 z M 94 82 L 94 84 L 96 84 L 96 82 L 94 82 z M 94 84 L 92 84 L 92 86 L 94 86 L 94 84 z M 94 86 L 94 88 L 96 88 L 96 86 L 94 86 z M 94 88 L 92 88 L 92 90 L 94 90 L 94 88 z M 94 90 L 94 92 L 96 92 L 96 90 L 94 90 z M 94 92 L 92 92 L 92 94 L 94 94 L 94 92 z M 94 94 L 94 96 L 96 96 L 96 94 L 94 94 z M 92 94 L 90 94 L 90 96 L 92 96 L 92 94 z M 90 94 L 90 92 L 88 92 L 88 94 L 90 94 z M 88 94 L 86 94 L 86 96 L 88 96 L 88 94 z M 86 94 L 86 92 L 84 92 L 84 94 L 86 94 z M 84 94 L 82 94 L 82 96 L 84 96 L 84 94 z M 82 94 L 82 92 L 80 92 L 80 94 L 82 94 z M 80 94 L 78 94 L 78 96 L 80 96 L 80 94 z M 78 94 L 78 92 L 76 92 L 76 94 L 78 94 z M 76 94 L 74 94 L 74 96 L 76 96 L 76 94 z M 74 94 L 74 92 L 72 92 L 72 94 L 74 94 z M 72 94 L 70 94 L 70 96 L 72 96 L 72 94 z M 70 94 L 70 92 L 68 92 L 68 94 L 70 94 z M 68 94 L 66 94 L 66 96 L 68 96 L 68 94 z M 66 94 L 66 92 L 64 92 L 64 94 L 66 94 z M 64 94 L 62 94 L 62 96 L 64 96 L 64 94 z M 62 94 L 62 92 L 60 92 L 60 94 L 62 94 z M 60 94 L 58 94 L 58 96 L 60 96 L 60 94 z M 58 94 L 58 92 L 56 92 L 56 94 L 58 94 z M 56 94 L 54 94 L 54 96 L 56 96 L 56 94 z M 54 94 L 54 92 L 52 92 L 52 94 L 54 94 z M 52 94 L 50 94 L 50 96 L 52 96 L 52 94 z M 50 94 L 50 92 L 48 92 L 48 94 L 50 94 z M 48 94 L 46 94 L 46 96 L 48 96 L 48 94 z M 46 94 L 46 92 L 44 92 L 44 94 L 46 94 z M 44 94 L 42 94 L 42 96 L 44 96 L 44 94 z M 42 94 L 42 92 L 40 92 L 40 94 L 42 94 z M 40 94 L 38 94 L 38 96 L 40 96 L 40 94 z M 38 94 L 38 92 L 36 92 L 36 94 L 38 94 z M 36 94 L 34 94 L 34 96 L 36 96 L 36 94 z M 34 94 L 34 92 L 32 92 L 32 94 L 34 94 z M 34 92 L 36 92 L 36 90 L 34 90 L 34 92 z M 34 90 L 34 88 L 32 88 L 32 90 L 34 90 z M 34 88 L 36 88 L 36 86 L 34 86 L 34 88 z M 34 86 L 34 84 L 32 84 L 32 86 L 34 86 z M 34 84 L 36 84 L 36 82 L 34 82 L 34 84 z M 34 82 L 34 80 L 32 80 L 32 82 L 34 82 z M 34 80 L 36 80 L 36 78 L 34 78 L 34 80 z M 34 78 L 34 76 L 32 76 L 32 78 L 34 78 z M 34 76 L 36 76 L 36 74 L 34 74 L 34 76 z M 34 74 L 34 72 L 32 72 L 32 74 L 34 74 z M 34 72 L 36 72 L 36 70 L 34 70 L 34 72 z M 34 70 L 34 68 L 32 68 L 32 70 L 34 70 z M 34 68 L 36 68 L 36 66 L 34 66 L 34 68 z M 34 66 L 34 64 L 32 64 L 32 66 L 34 66 z M 34 64 L 36 64 L 36 62 L 34 62 L 34 64 z M 34 62 L 34 60 L 32 60 L 32 62 L 34 62 z M 34 60 L 36 60 L 36 58 L 34 58 L 34 60 z M 34 58 L 34 56 L 32 56 L 32 58 L 34 58 z M 34 56 L 36 56 L 36 54 L 34 54 L 34 56 z M 34 54 L 34 52 L 32 52 L 32 54 L 34 54 z M 34 52 L 36 52 L 36 50 L 34 50 L 34 52 z M 34 50 L 34 48 L 32 48 L 32 50 L 34 50 z M 34 48 L 36 48 L 36 46 L 34 46 L 34 48 z M 34 46 L 34 44 L 32 44 L 32 46 L 34 46 z M 34 44 L 36 44 L 36 42 L 34 42 L 34 44 z M 34 42 L 34 40 L 32 40 L 32 42 L 34 42 z M 34 40 L 36 40 L 36 38 L 34 38 L 34 40 z M 34 38 L 34 36 L 32 36 L 32 38 L 34 38 z M 36 38 L 38 38 L 38 36 L 36 36 L 36 38 z M 38 38 L 38 40 L 40 40 L 40 38 L 38 38 z M 40 38 L 42 38 L 42 36 L 40 36 L 40 38 z M 42 38 L 42 40 L 44 40 L 44 38 L 42 38 z M 44 38 L 46 38 L 46 36 L 44 36 L 44 38 z M 46 38 L 46 40 L 48 40 L 48 38 L 46 38 z M 48 38 L 50 38 L 50 36 L 48 36 L 48 38 z M 50 38 L 50 40 L 52 40 L 52 38 L 50 38 z M 52 38 L 54 38 L 54 36 L 52 36 L 52 38 z M 54 38 L 54 40 L 56 40 L 56 38 L 54 38 z M 56 38 L 58 38 L 58 36 L 56 36 L 56 38 z M 58 38 L 58 40 L 60 40 L 60 38 L 58 38 z M 60 38 L 62 38 L 62 36 L 60 36 L 60 38 z M 62 38 L 62 40 L 64 40 L 64 38 L 62 38 z M 64 38 L 66 38 L 66 36 L 64 36 L 64 38 z M 66 38 L 66 40 L 68 40 L 68 38 L 66 38 z M 68 38 L 70 38 L 70 36 L 68 36 L 68 38 z M 70 38 L 70 40 L 72 40 L 72 38 L 70 38 z M 72 38 L 74 38 L 74 36 L 72 36 L 72 38 z M 74 38 L 74 40 L 76 40 L 76 38 L 74 38 z M 76 38 L 78 38 L 78 36 L 76 36 L 76 38 z M 78 38 L 78 40 L 80 40 L 80 38 L 78 38 z M 80 38 L 82 38 L 82 36 L 80 36 L 80 38 z M 82 38 L 82 40 L 84 40 L 84 38 L 82 38 z M 84 38 L 86 38 L 86 36 L 84 36 L 84 38 z M 86 38 L 86 40 L 88 40 L 88 38 L 86 38 z M 88 38 L 90 38 L 90 36 L 88 36 L 88 38 z M 90 38 L 90 40 L 92 40 L 92 38 L 90 38 z M 90 40 L 88 40 L 88 42 L 90 42 L 90 40 z M 90 42 L 90 44 L 92 44 L 92 42 L 90 42 z M 90 44 L 88 44 L 88 46 L 90 46 L 90 44 z M 90 46 L 90 48 L 92 48 L 92 46 L 90 46 z M 90 48 L 88 48 L 88 50 L 90 50 L 90 48 z M 90 50 L 90 52 L 92 52 L 92 50 L 90 50 z M 90 52 L 88 52 L 88 54 L 90 54 L 90 52 z M 90 54 L 90 56 L 92 56 L 92 54 L 90 54 z M 90 56 L 88 56 L 88 58 L 90 58 L 90 56 z M 90 58 L 90 60 L 92 60 L 92 58 L 90 58 z M 90 60 L 88 60 L 88 62 L 90 62 L 90 60 z M 90 62 L 90 64 L 92 64 L 92 62 L 90 62 z M 90 64 L 88 64 L 88 66 L 90 66 L 90 64 z M 90 66 L 90 68 L 92 68 L 92 66 L 90 66 z M 90 68 L 88 68 L 88 70 L 90 70 L 90 68 z M 90 70 L 90 72 L 92 72 L 92 70 L 90 70 z M 90 72 L 88 72 L 88 74 L 90 74 L 90 72 z M 90 74 L 90 76 L 92 76 L 92 74 L 90 74 z M 90 76 L 88 76 L 88 78 L 90 78 L 90 76 z M 90 78 L 90 80 L 92 80 L 92 78 L 90 78 z M 90 80 L 88 80 L 88 82 L 90 82 L 90 80 z M 90 82 L 90 84 L 92 84 L 92 82 L 90 82 z M 90 84 L 88 84 L 88 86 L 90 86 L 90 84 z M 90 86 L 90 88 L 92 88 L 92 86 L 90 86 z M 90 88 L 88 88 L 88 90 L 90 90 L 90 88 z M 90 90 L 90 92 L 92 92 L 92 90 L 90 90 z M 88 90 L 86 90 L 86 92 L 88 92 L 88 90 z M 86 90 L 86 88 L 84 88 L 84 90 L 86 90 z M 84 90 L 82 90 L 82 92 L 84 92 L 84 90 z M 82 90 L 82 88 L 80 88 L 80 90 L 82 90 z M 80 90 L 78 90 L 78 92 L 80 92 L 80 90 z M 78 90 L 78 88 L 76 88 L 76 90 L 78 90 z M 76 90 L 74 90 L 74 92 L 76 92 L 76 90 z M 74 90 L 74 88 L 72 88 L 72 90 L 74 90 z M 72 90 L 70 90 L 70 92 L 72 92 L 72 90 z M 70 90 L 70 88 L 68 88 L 68 90 L 70 90 z M 68 90 L 66 90 L 66 92 L 68 92 L 68 90 z M 66 90 L 66 88 L 64 88 L 64 90 L 66 90 z M 64 90 L 62 90 L 62 92 L 64 92 L 64 90 z M 62 90 L 62 88 L 60 88 L 60 90 L 62 90 z M 60 90 L 58 90 L 58 92 L 60 92 L 60 90 z M 58 90 L 58 88 L 56 88 L 56 90 L 58 90 z M 56 90 L 54 90 L 54 92 L 56 92 L 56 90 z M 54 90 L 54 88 L 52 88 L 52 90 L 54 90 z M 52 90 L 50 90 L 50 92 L 52 92 L 52 90 z M 50 90 L 50 88 L 48 88 L 48 90 L 50 90 z M 48 90 L 46 90 L 46 92 L 48 92 L 48 90 z M 46 90 L 46 88 L 44 88 L 44 90 L 46 90 z M 44 90 L 42 90 L 42 92 L 44 92 L 44 90 z M 42 90 L 42 88 L 40 88 L 40 90 L 42 90 z M 40 90 L 38 90 L 38 92 L 40 92 L 40 90 z M 38 90 L 38 88 L 36 88 L 36 90 L 38 90 z M 38 88 L 40 88 L 40 86 L 38 86 L 38 88 z M 38 86 L 38 84 L 36 84 L 36 86 L 38 86 z M 38 84 L 40 84 L 40 82 L 38 82 L 38 84 z M 38 82 L 38 80 L 36 80 L 36 82 L 38 82 z M 38 80 L 40 80 L 40 78 L 38 78 L 38 80 z M 38 78 L 38 76 L 36 76 L 36 78 L 38 78 z M 38 76 L 40 76 L 40 74 L 38 74 L 38 76 z M 38 74 L 38 72 L 36 72 L 36 74 L 38 74 z M 38 72 L 40 72 L 40 70 L 38 70 L 38 72 z M 38 70 L 38 68 L 36 68 L 36 70 L 38 70 z M 38 68 L 40 68 L 40 66 L 38 66 L 38 68 z M 38 66 L 38 64 L 36 64 L 36 66 L 38 66 z M 38 64 L 40 64 L 40 62 L 38 62 L 38 64 z M 38 62 L 38 60 L 36 60 L 36 62 L 38 62 z M 38 60 L 40 60 L 40 58 L 38 58 L 38 60 z M 38 58 L 38 56 L 36 56 L 36 58 L 38 58 z M 38 56 L 40 56 L 40 54 L 38 54 L 38 56 z M 38 54 L 38 52 L 36 52 L 36 54 L 38 54 z M 38 52 L 40 52 L 40 50 L 38 50 L 38 52 z M 38 50 L 38 48 L 36 48 L 36 50 L 38 50 z M 38 48 L 40 48 L 40 46 L 38 46 L 38 48 z M 38 46 L 38 44 L 36 44 L 36 46 L 38 46 z M 38 44 L 40 44 L 40 42 L 38 42 L 38 44 z M 38 42 L 38 40 L 36 40 L 36 42 L 38 42 z M 40 42 L 42 42 L 42 40 L 40 40 L 40 42 z M 42 42 L 42 44 L 44 44 L 44 42 L 42 42 z M 44 42 L 46 42 L 46 40 L 44 40 L 44 42 z M 46 42 L 46 44 L 48 44 L 48 42 L 46 42 z M 48 42 L 50 42 L 50 40 L 48 40 L 48 42 z M 50 42 L 50 44 L 52 44 L 52 42 L 50 42 z M 52 42 L 54 42 L 54 40 L 52 40 L 52 42 z M 54 42 L 54 44 L 56 44 L 56 42 L 54 42 z M 56 42 L 58 42 L 58 40 L 56 40 L 56 42 z M 58 42 L 58 44 L 60 44 L 60 42 L 58 42 z M 60 42 L 62 42 L 62 40 L 60 40 L 60 42 z M 62 42 L 62 44 L 64 44 L 64 42 L 62 42 z M 64 42 L 66 42 L 66 40 L 64 40 L 64 42 z M 66 42 L 66 44 L 68 44 L 68 42 L 66 42 z M 68 42 L 70 42 L 70 40 L 68 40 L 68 42 z M 70 42 L 70 44 L 72 44 L 72 42 L 70 42 z M 72 42 L 74 42 L 74 40 L 72 40 L 72 42 z M 74 42 L 74 44 L 76 44 L 76 42 L 74 42 z M 76 42 L 78 42 L 78 40 L 76 40 L 76 42 z M 78 42 L 78 44 L 80 44 L 80 42 L 78 42 z M 80 42 L 82 42 L 82 40 L 80 40 L 80 42 z M 82 42 L 82 44 L 84 44 L 84 42 L 82 42 z M 84 42 L 86 42 L 86 40 L 84 40 L 84 42 z M 86 42 L 86 44 L 88 44 L 88 42 L 86 42 z M 86 44 L 84 44 L 84 46 L 86 46 L 86 44 z M 86 46 L 86 48 L 88 48 L 88 46 L 86 46 z M 86 48 L 84 48 L 84 50 L 86 50 L 86 48 z M 86 50 L 86 52 L 88 52 L 88 50 L 86 50 z M 86 52 L 84 52 L 84 54 L 86 54 L 86 52 z M 86 54 L 86 56 L 88 56 L 88 54 L 86 54 z M 86 56 L 84 56 L 84 58 L 86 58 L 86 56 z M 86 58 L 86 60 L 88 60 L 88 58 L 86 58 z M 86 60 L 84 60 L 84 62 L 86 62 L 86 60 z M 86 62 L 86 64 L 88 64 L 88 62 L 86 62 z M 86 64 L 84 64 L 84 66 L 86 66 L 86 64 z M 86 66 L 86 68 L 88 68 L 88 66 L 86 66 z M 86 68 L 84 68 L 84 70 L 86 70 L 86 68 z M 86 70 L 86 72 L 88 72 L 88 70 L 86 70 z M 86 72 L 84 72 L 84 74 L 86 74 L 86 72 z M 86 74 L 86 76 L 88 76 L 88 74 L 86 74 z M 86 76 L 84 76 L 84 78 L 86 78 L 86 76 z M 86 78 L 86 80 L 88 80 L 88 78 L 86 78 z M 86 80 L 84 80 L 84 82 L 86 82 L 86 80 z M 86 82 L 86 84 L 88 84 L 88 82 L 86 82 z M 86 84 L 84 84 L 84 86 L 86 86 L 86 84 z M 86 86 L 86 88 L 88 88 L 88 86 L 86 86 z M 84 86 L 82 86 L 82 88 L 84 88 L 84 86 z M 82 86 L 82 84 L 80 84 L 80 86 L 82 86 z M 80 86 L 78 86 L 78 88 L 80 88 L 80 86 z M 78 86 L 78 84 L 76 84 L 76 86 L 78 86 z M 76 86 L 74 86 L 74 88 L 76 88 L 76 86 z M 74 86 L 74 84 L 72 84 L 72 86 L 74 86 z M 72 86 L 70 86 L 70 88 L 72 88 L 72 86 z M 70 86 L 70 84 L 68 84 L 68 86 L 70 86 z M 68 86 L 66 86 L 66 88 L 68 88 L 68 86 z M 66 86 L 66 84 L 64 84 L 64 86 L 66 86 z M 64 86 L 62 86 L 62 88 L 64 88 L 64 86 z M 62 86 L 62 84 L 60 84 L 60 86 L 62 86 z M 60 86 L 58 86 L 58 88 L 60 88 L 60 86 z M 58 86 L 58 84 L 56 84 L 56 86 L 58 86 z M 56 86 L 54 86 L 54 88 L 56 88 L 56 86 z M 54 86 L 54 84 L 52 84 L 52 86 L 54 86 z M 52 86 L 50 86 L 50 88 L 52 88 L 52 86 z M 50 86 L 50 84 L 48 84 L 48 86 L 50 86 z M 48 86 L 46 86 L 46 88 L 48 88 L 48 86 z M 46 86 L 46 84 L 44 84 L 44 86 L 46 86 z M 44 86 L 42 86 L 42 88 L 44 88 L 44 86 z M 42 86 L 42 84 L 40 84 L 40 86 L 42 86 z M 42 84 L 44 84 L 44 82 L 42 82 L 42 84 z M 42 82 L 42 80 L 40 80 L 40 82 L 42 82 z M 42 80 L 44 80 L 44 78 L 42 78 L 42 80 z M 42 78 L 42 76 L 40 76 L 40 78 L 42 78 z M 42 76 L 44 76 L 44 74 L 42 74 L 42 76 z M 42 74 L 42 72 L 40 72 L 40 74 L 42 74 z M 42 72 L 44 72 L 44 70 L 42 70 L 42 72 z M 42 70 L 42 68 L 40 68 L 40 70 L 42 70 z M 42 68 L 44 68 L 44 66 L 42 66 L 42 68 z M 42 66 L 42 64 L 40 64 L 40 66 L 42 66 z M 42 64 L 44 64 L 44 62 L 42 62 L 42 64 z M 42 62 L 42 60 L 40 60 L 40 62 L 42 62 z M 42 60 L 44 60 L 44 58 L 42 58 L 42 60 z M 42 58 L 42 56 L 40 56 L 40 58 L 42 58 z M 42 56 L 44 56 L 44 54 L 42 54 L 42 56 z M 42 54 L 42 52 L 40 52 L 40 54 L 42 54 z M 42 52 L 44 52 L 44 50 L 42 50 L 42 52 z M 42 50 L 42 48 L 40 48 L 40 50 L 42 50 z M 42 48 L 44 48 L 44 46 L 42 46 L 42 48 z M 42 46 L 42 44 L 40 44 L 40 46 L 42 46 z M 44 46 L 46 46 L 46 44 L 44 44 L 44 46 z M 46 46 L 46 48 L 48 48 L 48 46 L 46 46 z M 48 46 L 50 46 L 50 44 L 48 44 L 48 46 z M 50 46 L 50 48 L 52 48 L 52 46 L 50 46 z M 52 46 L 54 46 L 54 44 L 52 44 L 52 46 z M 54 46 L 54 48 L 56 48 L 56 46 L 54 46 z M 56 46 L 58 46 L 58 44 L 56 44 L 56 46 z M 58 46 L 58 48 L 60 48 L 60 46 L 58 46 z M 60 46 L 62 46 L 62 44 L 60 44 L 60 46 z M 62 46 L 62 48 L 64 48 L 64 46 L 62 46 z M 64 46 L 66 46 L 66 44 L 64 44 L 64 46 z M 66 46 L 66 48 L 68 48 L 68 46 L 66 46 z M 68 46 L 70 46 L 70 44 L 68 44 L 68 46 z M 70 46 L 70 48 L 72 48 L 72 46 L 70 46 z M 72 46 L 74 46 L 74 44 L 72 44 L 72 46 z M 74 46 L 74 48 L 76 48 L 76 46 L 74 46 z M 76 46 L 78 46 L 78 44 L 76 44 L 76 46 z M 78 46 L 78 48 L 80 48 L 80 46 L 78 46 z M 80 46 L 82 46 L 82 44 L 80 44 L 80 46 z M 82 46 L 82 48 L 84 48 L 84 46 L 82 46 z M 82 48 L 80 48 L 80 50 L 82 50 L 82 48 z M 82 50 L 82 52 L 84 52 L 84 50 L 82 50 z M 82 52 L 80 52 L 80 54 L 82 54 L 82 52 z M 82 54 L 82 56 L 84 56 L 84 54 L 82 54 z M 82 56 L 80 56 L 80 58 L 82 58 L 82 56 z M 82 58 L 82 60 L 84 60 L 84 58 L 82 58 z M 82 60 L 80 60 L 80 62 L 82 62 L 82 60 z M 82 62 L 82 64 L 84 64 L 84 62 L 82 62 z M 82 64 L 80 64 L 80 66 L 82 66 L 82 64 z M 82 66 L 82 68 L 84 68 L 84 66 L 82 66 z M 82 68 L 80 68 L 80 70 L 82 70 L 82 68 z M 82 70 L 82 72 L 84 72 L 84 70 L 82 70 z M 82 72 L 80 72 L 80 74 L 82 74 L 82 72 z M 82 74 L 82 76 L 84 76 L 84 74 L 82 74 z M 82 76 L 80 76 L 80 78 L 82 78 L 82 76 z M 82 78 L 82 80 L 84 80 L 84 78 L 82 78 z M 82 80 L 80 80 L 80 82 L 82 82 L 82 80 z M 82 82 L 82 84 L 84 84 L 84 82 L 82 82 z M 80 82 L 78 82 L 78 84 L 80 84 L 80 82 z M 78 82 L 78 80 L 76 80 L 76 82 L 78 82 z M 76 82 L 74 82 L 74 84 L 76 84 L 76 82 z M 74 82 L 74 80 L 72 80 L 72 82 L 74 82 z M 72 82 L 70 82 L 70 84 L 72 84 L 72 82 z M 70 82 L 70 80 L 68 80 L 68 82 L 70 82 z M 68 82 L 66 82 L 66 84 L 68 84 L 68 82 z M 66 82 L 66 80 L 64 80 L 64 82 L 66 82 z M 64 82 L 62 82 L 62 84 L 64 84 L 64 82 z M 62 82 L 62 80 L 60 80 L 60 82 L 62 82 z M 60 82 L 58 82 L 58 84 L 60 84 L 60 82 z M 58 82 L 58 80 L 56 80 L 56 82 L 58 82 z M 56 82 L 54 82 L 54 84 L 56 84 L 56 82 z M 54 82 L 54 80 L 52 80 L 52 82 L 54 82 z M 52 82 L 50 82 L 50 84 L 52 84 L 52 82 z M 50 82 L 50 80 L 48 80 L 48 82 L 50 82 z M 48 82 L 46 82 L 46 84 L 48 84 L 48 82 z M 46 82 L 46 80 L 44 80 L 44 82 L 46 82 z M 46 80 L 48 80 L 48 78 L 46 78 L 46 80 z M 46 78 L 46 76 L 44 76 L 44 78 L 46 78 z M 46 76 L 48 76 L 48 74 L 46 74 L 46 76 z M 46 74 L 46 72 L 44 72 L 44 74 L 46 74 z M 46 72 L 48 72 L 48 70 L 46 70 L 46 72 z M 46 70 L 46 68 L 44 68 L 44 70 L 46 70 z M 46 68 L 48 68 L 48 66 L 46 66 L 46 68 z M 46 66 L 46 64 L 44 64 L 44 66 L 46 66 z M 46 64 L 48 64 L 48 62 L 46 62 L 46 64 z M 46 62 L 46 60 L 44 60 L 44 62 L 46 62 z M 46 60 L 48 60 L 48 58 L 46 58 L 46 60 z M 46 58 L 46 56 L 44 56 L 44 58 L 46 58 z M 46 56 L 48 56 L 48 54 L 46 54 L 46 56 z M 46 54 L 46 52 L 44 52 L 44 54 L 46 54 z M 46 52 L 48 52 L 48 50 L 46 50 L 46 52 z M 46 50 L 46 48 L 44 48 L 44 50 L 46 50 z M 48 50 L 50 50 L 50 48 L 48 48 L 48 50 z M 50 50 L 50 52 L 52 52 L 52 50 L 50 50 z M 52 50 L 54 50 L 54 48 L 52 48 L 52 50 z M 54 50 L 54 52 L 56 52 L 56 50 L 54 50 z M 56 50 L 58 50 L 58 48 L 56 48 L 56 50 z M 58 50 L 58 52 L 60 52 L 60 50 L 58 50 z M 60 50 L 62 50 L 62 48 L 60 48 L 60 50 z M 62 50 L 62 52 L 64 52 L 64 50 L 62 50 z M 64 50 L 66 50 L 66 48 L 64 48 L 64 50 z M 66 50 L 66 52 L 68 52 L 68 50 L 66 50 z M 68 50 L 70 50 L 70 48 L 68 48 L 68 50 z M 70 50 L 70 52 L 72 52 L 72 50 L 70 50 z M 72 50 L 74 50 L 74 48 L 72 48 L 72 50 z M 74 50 L 74 52 L 76 52 L 76 50 L 74 50 z M 76 50 L 78 50 L 78 48 L 76 48 L 76 50 z M 78 50 L 78 52 L 80 52 L 80 50 L 78 50 z M 78 52 L 76 52 L 76 54 L 78 54 L 78 52 z M 78 54 L 78 56 L 80 56 L 80 54 L 78 54 z M 78 56 L 76 56 L 76 58 L 78 58 L 78 56 z M 78 58 L 78 60 L 80 60 L 80 58 L 78 58 z M 78 60 L 76 60 L 76 62 L 78 62 L 78 60 z M 78 62 L 78 64 L 80 64 L 80 62 L 78 62 z M 78 64 L 76 64 L 76 66 L 78 66 L 78 64 z M 78 66 L 78 68 L 80 68 L 80 66 L 78 66 z M 78 68 L 76 68 L 76 70 L 78 70 L 78 68 z M 78 70 L 78 72 L 80 72 L 80 70 L 78 70 z M 78 72 L 76 72 L 76 74 L 78 74 L 78 72 z M 78 74 L 78 76 L 80 76 L 80 74 L 78 74 z M 78 76 L 76 76 L 76 78 L 78 78 L 78 76 z M 78 78 L 78 80 L 80 80 L 80 78 L 78 78 z M 76 78 L 74 78 L 74 80 L 76 80 L 76 78 z M 74 78 L 74 76 L 72 76 L 72 78 L 74 78 z M 72 78 L 70 78 L 70 80 L 72 80 L 72 78 z M 70 78 L 70 76 L 68 76 L 68 78 L 70 78 z M 68 78 L 66 78 L 66 80 L 68 80 L 68 78 z M 66 78 L 66 76 L 64 76 L 64 78 L 66 78 z M 64 78 L 62 78 L 62 80 L 64 80 L 64 78 z M 62 78 L 62 76 L 60 76 L 60 78 L 62 78 z M 60 78 L 58 78 L 58 80 L 60 80 L 60 78 z M 58 78 L 58 76 L 56 76 L 56 78 L 58 78 z M 56 78 L 54 78 L 54 80 L 56 80 L 56 78 z M 54 78 L 54 76 L 52 76 L 52 78 L 54 78 z M 52 78 L 50 78 L 50 80 L 52 80 L 52 78 z M 50 78 L 50 76 L 48 76 L 48 78 L 50 78 z M 50 76 L 52 76 L 52 74 L 50 74 L 50 76 z M 50 74 L 50 72 L 48 72 L 48 74 L 50 74 z M 50 72 L 52 72 L 52 70 L 50 70 L 50 72 z M 50 70 L 50 68 L 48 68 L 48 70 L 50 70 z M 50 68 L 52 68 L 52 66 L 50 66 L 50 68 z M 50 66 L 50 64 L 48 64 L 48 66 L 50 66 z M 50 64 L 52 64 L 52 62 L 50 62 L 50 64 z M 50 62 L 50 60 L 48 60 L 48 62 L 50 62 z M 50 60 L 52 60 L 52 58 L 50 58 L 50 60 z M 50 58 L 50 56 L 48 56 L 48 58 L 50 58 z M 50 56 L 52 56 L 52 54 L 50 54 L 50 56 z M 50 54 L 50 52 L 48 52 L 48 54 L 50 54 z M 52 54 L 54 54 L 54 52 L 52 52 L 52 54 z M 54 54 L 54 56 L 56 56 L 56 54 L 54 54 z M 56 54 L 58 54 L 58 52 L 56 52 L 56 54 z M 58 54 L 58 56 L 60 56 L 60 54 L 58 54 z M 60 54 L 62 54 L 62 52 L 60 52 L 60 54 z M 62 54 L 62 56 L 64 56 L 64 54 L 62 54 z M 64 54 L 66 54 L 66 52 L 64 52 L 64 54 z M 66 54 L 66 56 L 68 56 L 68 54 L 66 54 z M 68 54 L 70 54 L 70 52 L 68 52 L 68 54 z M 70 54 L 70 56 L 72 56 L 72 54 L 70 54 z M 72 54 L 74 54 L 74 52 L 72 52 L 72 54 z M 74 54 L 74 56 L 76 56 L 76 54 L 74 54 z M 74 56 L 72 56 L 72 58 L 74 58 L 74 56 z M 74 58 L 74 60 L 76 60 L 76 58 L 74 58 z M 74 60 L 72 60 L 72 62 L 74 62 L 74 60 z M 74 62 L 74 64 L 76 64 L 76 62 L 74 62 z M 74 64 L 72 64 L 72 66 L 74 66 L 74 64 z M 74 66 L 74 68 L 76 68 L 76 66 L 74 66 z M 74 68 L 72 68 L 72 70 L 74 70 L 74 68 z M 74 70 L 74 72 L 76 72 L 76 70 L 74 70 z M 74 72 L 72 72 L 72 74 L 74 74 L 74 72 z M 74 74 L 74 76 L 76 76 L 76 74 L 74 74 z M 72 74 L 70 74 L 70 76 L 72 76 L 72 74 z M 70 74 L 70 72 L 68 72 L 68 74 L 70 74 z M 68 74 L 66 74 L 66 76 L 68 76 L 68 74 z M 66 74 L 66 72 L 64 72 L 64 74 L 66 74 z M 64 74 L 62 74 L 62 76 L 64 76 L 64 74 z M 62 74 L 62 72 L 60 72 L 60 74 L 62 74 z M 60 74 L 58 74 L 58 76 L 60 76 L 60 74 z M 58 74 L 58 72 L 56 72 L 56 74 L 58 74 z M 56 74 L 54 74 L 54 76 L 56 76 L 56 74 z M 54 74 L 54 72 L 52 72 L 52 74 L 54 74 z M 54 72 L 56 72 L 56 70 L 54 70 L 54 72 z M 54 70 L 54 68 L 52 68 L 52 70 L 54 70 z M 54 68 L 56 68 L 56 66 L 54 66 L 54 68 z M 54 66 L 54 64 L 52 64 L 52 66 L 54 66 z M 54 64 L 56 64 L 56 62 L 54 62 L 54 64 z M 54 62 L 54 60 L 52 60 L 52 62 L 54 62 z M 54 60 L 56 60 L 56 58 L 54 58 L 54 60 z M 54 58 L 54 56 L 52 56 L 52 58 L 54 58 z M 56 58 L 58 58 L 58 56 L 56 56 L 56 58 z M 58 58 L 58 60 L 60 60 L 60 58 L 58 58 z M 60 58 L 62 58 L 62 56 L 60 56 L 60 58 z M 62 58 L 62 60 L 64 60 L 64 58 L 62 58 z M 64 58 L 66 58 L 66 56 L 64 56 L 64 58 z M 66 58 L 66 60 L 68 60 L 68 58 L 66 58 z M 68 58 L 70 58 L 70 56 L 68 56 L 68 58 z M 70 58 L 70 60 L 72 60 L 72 58 L 70 58 z M 70 60 L 68 60 L 68 62 L 70 62 L 70 60 z M 70 62 L 70 64 L 72 64 L 72 62 L 70 62 z M 70 64 L 68 64 L 68 66 L 70 66 L 70 64 z M 70 66 L 70 68 L 72 68 L 72 66 L 70 66 z M 70 68 L 68 68 L 68 70 L 70 70 L 70 68 z M 70 70 L 70 72 L 72 72 L 72 70 L 70 70 z M 68 70 L 66 70 L 66 72 L 68 72 L 68 70 z M 66 70 L 66 68 L 64 68 L 64 70 L 66 70 z M 64 70 L 62 70 L 62 72 L 64 72 L 64 70 z M 62 70 L 62 68 L 60 68 L 60 70 L 62 70 z M 60 70 L 58 70 L 58 72 L 60 72 L 60 70 z M 58 70 L 58 68 L 56 68 L 56 70 L 58 70 z M 58 68 L 60 68 L 60 66 L 58 66 L 58 68 z M 58 66 L 58 64 L 56 64 L 56 66 L 58 66 z M 58 64 L 60 64 L 60 62 L 58 62 L 58 64 z M 58 62 L 58 60 L 56 60 L 56 62 L 58 62 z M 60 62 L 62 62 L 62 60 L 60 60 L 60 62 z M 62 62 L 62 64 L 64 64 L 64 62 L 62 62 z M 64 62 L 66 62 L 66 60 L 64 60 L 64 62 z M 66 62 L 66 64 L 68 64 L 68 62 L 66 62 z M 66 64 L 64 64 L 64 66 L 66 66 L 66 64 z M 66 66 L 66 68 L 68 68 L 68 66 L 66 66 z M 64 66 L 62 66 L 62 68 L 64 68 L 64 66 z M 62 66 L 62 64 L 60 64 L 60 66 L 62 66 z "
         transform="matrix(0.26458334,0,0,0.26458334,82.550003,136.13333)" />
    </g>
  </g>
</svg>
