<?xml version="1.0" encoding="UTF-8" standalone="no"?>
<!-- Created with Inkscape (http://www.inkscape.org/) -->

<svg
   width="16"
   height="16"
   id="svg4159"
   version="1.1"
   inkscape:version="1.1 (c4e8f9ed74, 2021-05-24)"
   viewBox="0 0 16 16"
   sodipodi:docname="image-loading.svg"
   xmlns:inkscape="http://www.inkscape.org/namespaces/inkscape"
   xmlns:sodipodi="http://sodipodi.sourceforge.net/DTD/sodipodi-0.dtd"
   xmlns="http://www.w3.org/2000/svg"
   xmlns:svg="http://www.w3.org/2000/svg"
   xmlns:rdf="http://www.w3.org/1999/02/22-rdf-syntax-ns#"
   xmlns:cc="http://creativecommons.org/ns#"
   xmlns:dc="http://purl.org/dc/elements/1.1/">
  <title
     id="title815">Boston Icons</title>
  <defs
     id="defs4161">
    <inkscape:perspective
       sodipodi:type="inkscape:persp3d"
       inkscape:vp_x="0 : 8 : 1"
       inkscape:vp_y="0 : 1000 : 0"
       inkscape:vp_z="16 : 8 : 1"
       inkscape:persp3d-origin="8 : 5.3333333 : 1"
       id="perspective4709" />
    <clipPath
       clipPathUnits="userSpaceOnUse"
       id="clipPath5603">
      <path
         style="fill:#00ffff;fill-opacity:1;stroke:none;stroke-width:0.26458335px;stroke-linecap:butt;stroke-linejoin:miter;stroke-opacity:1"
         d="m 61.912499,165.76667 -6.879168,6.87917 6.879168,6.87916 6.879167,-6.87916 z"
         id="path5605"
         inkscape:connector-curvature="0" />
    </clipPath>
  </defs>
  <sodipodi:namedview
     id="base"
     pagecolor="#ffffff"
     bordercolor="#00fff6"
     borderopacity="1"
     inkscape:pageopacity="0"
     inkscape:pageshadow="2"
     inkscape:zoom="31.392433"
     inkscape:cx="5.3675356"
     inkscape:cy="7.3106791"
     inkscape:current-layer="layer1"
     showgrid="false"
     inkscape:grid-bbox="true"
     inkscape:document-units="px"
     inkscape:window-width="1920"
     inkscape:window-height="1011"
     inkscape:window-x="0"
     inkscape:window-y="32"
     inkscape:window-maximized="1"
     showguides="true"
     inkscape:guide-bbox="true"
     inkscape:pagecheckerboard="0">
    <inkscape:grid
       type="xygrid"
       id="grid4707" />
  </sodipodi:namedview>
  <metadata
     id="metadata4164">
    <rdf:RDF>
      <cc:Work
         rdf:about="">
        <dc:format>image/svg+xml</dc:format>
        <dc:type
           rdf:resource="http://purl.org/dc/dcmitype/StillImage" />
        <dc:title>Boston Icons</dc:title>
        <cc:license
           rdf:resource="dribbble.com/chrisdiaz" />
        <dc:creator>
          <cc:Agent>
            <dc:title>Christian Díaz</dc:title>
          </cc:Agent>
        </dc:creator>
        <dc:date>2021</dc:date>
        <dc:publisher>
          <cc:Agent>
            <dc:title>Christian Díaz</dc:title>
          </cc:Agent>
        </dc:publisher>
        <dc:identifier>christiandiaz.design [at] gmail [dot] com</dc:identifier>
        <dc:subject>
          <rdf:Bag>
            <rdf:li>GNOME icon Theme</rdf:li>
          </rdf:Bag>
        </dc:subject>
        <dc:description>dribbble.com/chrisdiaz | diazchris.deviantart.com</dc:description>
      </cc:Work>
    </rdf:RDF>
  </metadata>
  <g
     id="layer1"
     inkscape:label="Layer 1"
     inkscape:groupmode="layer">
    <g
       id="g1221">
      <path
         style="opacity:1;fill:#96a5af;fill-opacity:1;fill-rule:nonzero;stroke:none;stroke-width:0.38100001;stroke-linecap:square;stroke-linejoin:bevel;stroke-miterlimit:4;stroke-dasharray:none;stroke-dashoffset:35;stroke-opacity:1"
         d="M 0,0 V 1 4 H 1 V 1 H 4 V 0 H 1 Z m 6,0 v 1 h 4 V 0 Z m 6,0 v 1 h 3 v 3 h 1 V 1 0 H 15 Z M 0,6 v 4 H 1 V 6 Z m 15,0 v 4 h 1 V 6 Z M 0,12 v 3 1 H 1 4 V 15 H 1 v -3 z m 15,0 v 3 h -3 v 1 h 3 1 v -1 -3 z m -9,3 v 1 h 4 v -1 z"
         id="rect4760"
         inkscape:connector-curvature="0" />
      <path
         id="rect850"
         style="fill:#96a5af;stroke-width:0.5;stroke-linejoin:round"
         d="M 2 2 L 2 3 L 3 3 L 3 2 L 2 2 z M 3 3 L 3 4 L 4 4 L 4 3 L 3 3 z M 4 3 L 5 3 L 5 2 L 4 2 L 4 3 z M 5 3 L 5 4 L 6 4 L 6 3 L 5 3 z M 6 3 L 7 3 L 7 2 L 6 2 L 6 3 z M 7 3 L 7 4 L 8 4 L 8 3 L 7 3 z M 8 3 L 9 3 L 9 2 L 8 2 L 8 3 z M 9 3 L 9 4 L 10 4 L 10 3 L 9 3 z M 10 3 L 11 3 L 11 2 L 10 2 L 10 3 z M 11 3 L 11 4 L 12 4 L 12 3 L 11 3 z M 12 3 L 13 3 L 13 2 L 12 2 L 12 3 z M 13 3 L 13 4 L 14 4 L 14 3 L 13 3 z M 13 4 L 12 4 L 12 5 L 13 5 L 13 4 z M 13 5 L 13 6 L 14 6 L 14 5 L 13 5 z M 13 6 L 12 6 L 12 7 L 13 7 L 13 6 z M 13 7 L 13 8 L 14 8 L 14 7 L 13 7 z M 13 8 L 12 8 L 12 9 L 13 9 L 13 8 z M 13 9 L 13 10 L 14 10 L 14 9 L 13 9 z M 13 10 L 12 10 L 12 11 L 13 11 L 13 10 z M 13 11 L 13 12 L 14 12 L 14 11 L 13 11 z M 13 12 L 12 12 L 12 13 L 13 13 L 13 12 z M 13 13 L 13 14 L 14 14 L 14 13 L 13 13 z M 12 13 L 11 13 L 11 14 L 12 14 L 12 13 z M 11 13 L 11 12 L 10 12 L 10 13 L 11 13 z M 10 13 L 9 13 L 9 14 L 10 14 L 10 13 z M 9 13 L 9 12 L 8 12 L 8 13 L 9 13 z M 8 13 L 7 13 L 7 14 L 8 14 L 8 13 z M 7 13 L 7 12 L 6 12 L 6 13 L 7 13 z M 6 13 L 5 13 L 5 14 L 6 14 L 6 13 z M 5 13 L 5 12 L 4 12 L 4 13 L 5 13 z M 4 13 L 3 13 L 3 14 L 4 14 L 4 13 z M 3 13 L 3 12 L 2 12 L 2 13 L 3 13 z M 3 12 L 4 12 L 4 11 L 3 11 L 3 12 z M 3 11 L 3 10 L 2 10 L 2 11 L 3 11 z M 3 10 L 4 10 L 4 9 L 3 9 L 3 10 z M 3 9 L 3 8 L 2 8 L 2 9 L 3 9 z M 3 8 L 4 8 L 4 7 L 3 7 L 3 8 z M 3 7 L 3 6 L 2 6 L 2 7 L 3 7 z M 3 6 L 4 6 L 4 5 L 3 5 L 3 6 z M 3 5 L 3 4 L 2 4 L 2 5 L 3 5 z M 4 5 L 5 5 L 5 4 L 4 4 L 4 5 z M 5 5 L 5 6 L 6 6 L 6 5 L 5 5 z M 6 5 L 7 5 L 7 4 L 6 4 L 6 5 z M 7 5 L 7 6 L 8 6 L 8 5 L 7 5 z M 8 5 L 9 5 L 9 4 L 8 4 L 8 5 z M 9 5 L 9 6 L 10 6 L 10 5 L 9 5 z M 10 5 L 11 5 L 11 4 L 10 4 L 10 5 z M 11 5 L 11 6 L 12 6 L 12 5 L 11 5 z M 11 6 L 10 6 L 10 7 L 11 7 L 11 6 z M 11 7 L 11 8 L 12 8 L 12 7 L 11 7 z M 11 8 L 10 8 L 10 9 L 11 9 L 11 8 z M 11 9 L 11 10 L 12 10 L 12 9 L 11 9 z M 11 10 L 10 10 L 10 11 L 11 11 L 11 10 z M 11 11 L 11 12 L 12 12 L 12 11 L 11 11 z M 10 11 L 9 11 L 9 12 L 10 12 L 10 11 z M 9 11 L 9 10 L 8 10 L 8 11 L 9 11 z M 8 11 L 7 11 L 7 12 L 8 12 L 8 11 z M 7 11 L 7 10 L 6 10 L 6 11 L 7 11 z M 6 11 L 5 11 L 5 12 L 6 12 L 6 11 z M 5 11 L 5 10 L 4 10 L 4 11 L 5 11 z M 5 10 L 6 10 L 6 9 L 5 9 L 5 10 z M 5 9 L 5 8 L 4 8 L 4 9 L 5 9 z M 5 8 L 6 8 L 6 7 L 5 7 L 5 8 z M 5 7 L 5 6 L 4 6 L 4 7 L 5 7 z M 6 7 L 7 7 L 7 6 L 6 6 L 6 7 z M 7 7 L 7 8 L 8 8 L 8 7 L 7 7 z M 8 7 L 9 7 L 9 6 L 8 6 L 8 7 z M 9 7 L 9 8 L 10 8 L 10 7 L 9 7 z M 9 8 L 8 8 L 8 9 L 9 9 L 9 8 z M 9 9 L 9 10 L 10 10 L 10 9 L 9 9 z M 8 9 L 7 9 L 7 10 L 8 10 L 8 9 z M 7 9 L 7 8 L 6 8 L 6 9 L 7 9 z " />
    </g>
  </g>
</svg>
