<?xml version="1.0" encoding="UTF-8" standalone="no"?>
<svg
   xmlns:dc="http://purl.org/dc/elements/1.1/"
   xmlns:cc="http://creativecommons.org/ns#"
   xmlns:rdf="http://www.w3.org/1999/02/22-rdf-syntax-ns#"
   xmlns:svg="http://www.w3.org/2000/svg"
   xmlns="http://www.w3.org/2000/svg"
   xmlns:sodipodi="http://sodipodi.sourceforge.net/DTD/sodipodi-0.dtd"
   xmlns:inkscape="http://www.inkscape.org/namespaces/inkscape"
   sodipodi:docname="application-x-partial-download.svg"
   inkscape:version="1.0 (4035a4fb49, 2020-05-01)"
   id="svg2634"
   version="1.1"
   viewBox="0 0 33.866667 33.866667"
   height="128"
   width="128">
  <title
     id="title3250">Boston Icons</title>
  <defs
     id="defs2628" />
  <sodipodi:namedview
     inkscape:document-rotation="0"
     units="px"
     inkscape:window-maximized="1"
     inkscape:window-y="27"
     inkscape:window-x="0"
     inkscape:window-height="1016"
     inkscape:window-width="1920"
     fit-margin-bottom="0"
     fit-margin-right="0"
     fit-margin-left="0"
     fit-margin-top="0"
     inkscape:guide-bbox="true"
     showguides="false"
     showgrid="false"
     inkscape:current-layer="layer1"
     inkscape:document-units="px"
     inkscape:cy="71.540629"
     inkscape:cx="46.33718"
     inkscape:zoom="5.6"
     inkscape:pageshadow="2"
     inkscape:pageopacity="1"
     borderopacity="1"
     bordercolor="#00ffed"
     pagecolor="#ffffff"
     id="base">
    <inkscape:grid
       dotted="false"
       originy="-127.00001"
       originx="-82.550004"
       empspacing="4"
       spacingy="0.52916667"
       spacingx="0.52916667"
       id="grid3182"
       type="xygrid" />
    <sodipodi:guide
       inkscape:locked="false"
       id="guide3216"
       orientation="1,0"
       position="-4.268358e-06,27.516666" />
    <sodipodi:guide
       inkscape:locked="false"
       id="guide3218"
       orientation="0,1"
       position="3.7041618,33.866666" />
    <sodipodi:guide
       inkscape:locked="false"
       id="guide3220"
       orientation="1,0"
       position="33.866657,24.870836" />
    <sodipodi:guide
       inkscape:locked="false"
       id="guide3222"
       orientation="0,1"
       position="32.279157,-4.1479283e-06" />
    <sodipodi:guide
       inkscape:locked="false"
       id="guide3224"
       orientation="0,1"
       position="15.345829,32.808336" />
    <sodipodi:guide
       inkscape:locked="false"
       id="guide3226"
       orientation="0,1"
       position="-4.7625023,1.0583259" />
    <sodipodi:guide
       inkscape:locked="false"
       id="guide3232"
       orientation="0,1"
       position="15.874995,31.750006" />
    <sodipodi:guide
       inkscape:locked="false"
       id="guide3238"
       orientation="1,0"
       position="5.2916633,15.345824" />
    <sodipodi:guide
       inkscape:locked="false"
       id="guide3240"
       orientation="1,0"
       position="28.574997,25.400006" />
    <sodipodi:guide
       inkscape:locked="false"
       id="guide850"
       orientation="0.70710678,0.70710678"
       position="29.63333,25.399991" />
    <sodipodi:guide
       inkscape:locked="false"
       id="guide843"
       orientation="0,1"
       position="26.987497,30.162491" />
    <sodipodi:guide
       inkscape:locked="false"
       id="guide845"
       orientation="0,1"
       position="30.162497,26.458325" />
    <sodipodi:guide
       inkscape:locked="false"
       id="guide867"
       orientation="0,1"
       position="10.054163,11.641658" />
    <sodipodi:guide
       inkscape:locked="false"
       id="guide872"
       orientation="0,1"
       position="8.4666632,16.933324" />
    <sodipodi:guide
       position="8.9958299,6.3500094"
       orientation="0,-1"
       id="guide882" />
  </sodipodi:namedview>
  <metadata
     id="metadata2631">
    <rdf:RDF>
      <cc:Work
         rdf:about="">
        <dc:format>image/svg+xml</dc:format>
        <dc:type
           rdf:resource="http://purl.org/dc/dcmitype/StillImage" />
        <dc:title>Boston Icons</dc:title>
        <cc:license
           rdf:resource="dribbble.com/chrisdiaz" />
        <dc:creator>
          <cc:Agent>
            <dc:title>Christian Díaz</dc:title>
          </cc:Agent>
        </dc:creator>
        <dc:date>2020</dc:date>
        <dc:publisher>
          <cc:Agent>
            <dc:title>Christian Díaz</dc:title>
          </cc:Agent>
        </dc:publisher>
        <dc:identifier>christiandiaz.design [at] gmail [dot] com</dc:identifier>
        <dc:subject>
          <rdf:Bag>
            <rdf:li>GNOME icon Theme</rdf:li>
          </rdf:Bag>
        </dc:subject>
        <dc:description>dribbble.com/chrisdiaz | diazchris.deviantart.com</dc:description>
      </cc:Work>
    </rdf:RDF>
  </metadata>
  <g
     transform="translate(-82.550003,-136.13333)"
     id="layer1"
     inkscape:groupmode="layer"
     inkscape:label="Capa 1">
    <g
       id="g875">
      <path
         inkscape:connector-curvature="0"
         style="fill:#ffffff;fill-opacity:1;stroke:none;stroke-width:0.529167;stroke-linejoin:bevel;stroke-miterlimit:4;stroke-dasharray:none;stroke-opacity:1"
         d="m 87.84167,137.19166 v 26.45833 l 2.116663,-3.17501 1.5875,2.64584 1.5875,-2.64584 1.5875,2.64584 1.5875,-2.64584 1.5875,2.64584 1.5875,-2.64584 1.587497,2.64584 1.5875,-2.64584 1.5875,2.64584 1.5875,-2.64584 1.5875,2.64584 1.5875,-2.64584 2.11667,3.17501 v -20.10833 l -6.35,-6.35 z"
         id="rect851"
         sodipodi:nodetypes="ccccccccccccccccccc" />
      <path
         style="fill:#96a5af;fill-opacity:1;stroke:none;stroke-width:0.264583;stroke-linejoin:round;stroke-miterlimit:4;stroke-dasharray:none"
         d="m 87.84167,137.19166 v 26.45833 l -4e-6,1e-5 h 0.529167 l 1.5875,-2.64585 1.5875,2.64585 1.5875,-2.64585 1.5875,2.64585 1.5875,-2.64585 1.593464,2.64585 1.581536,-2.64585 1.587497,2.64585 1.5875,-2.64585 1.5875,2.64585 1.5875,-2.64585 1.5875,2.64585 1.5875,-2.64585 1.5875,2.64583 0.52917,1e-5 v -20.10833 l -0.52916,-0.52916 -10e-6,19.57915 -1.5875,-2.64583 -1.5875,2.64583 -1.5875,-2.64583 -1.5875,2.64583 -1.5875,-2.64583 -1.5875,2.64583 -1.587497,-2.64583 -1.5875,2.64583 -1.5875,-2.64583 -1.5875,2.64583 -1.5875,-2.64583 -1.5875,2.64583 -1.5875,-2.64583 -1.5875,2.64583 3e-6,-24.87082 h 16.933334 l -0.52917,-0.52917 z"
         id="rect840"
         inkscape:connector-curvature="0"
         sodipodi:nodetypes="cccccccccccccccccccccccccccccccccccccccc" />
      <path
         inkscape:connector-curvature="0"
         style="fill:#96a5af;fill-opacity:1;stroke:none;stroke-width:0.264583px;stroke-linecap:butt;stroke-linejoin:miter;stroke-opacity:1"
         d="m 104.24584,137.19166 v 6.87917 h 6.87916 v -0.52917 l -6.35,-6.35 z m 0.52916,0.79375 5.55625,5.55625 H 104.775 Z"
         id="path863" />
      <path
         id="rect884"
         style="fill:#cdd5d9;stroke-width:2;stroke-linecap:round;stroke-linejoin:round"
         d="m 20,108 v 6 h 2 v -6 z m 86,0 v 6 h 2 v -6 z m -86,10 v 4 2 h 2 4 v -2 h -4 v -4 z m 86,0 v 4 h -4 v 2 h 4 2 v -2 -4 z m -76,4 v 2 h 8 v -2 z m 12,0 v 2 h 8 v -2 z m 12,0 v 2 h 8 v -2 z m 12,0 v 2 h 8 v -2 z m 12,0 v 2 h 8 v -2 z m 12,0 v 2 h 8 v -2 z"
         transform="matrix(0.26458334,0,0,0.26458334,82.550003,136.13333)" />
    </g>
  </g>
</svg>
