<?xml version="1.0" encoding="UTF-8" standalone="no"?>
<!-- Created with Inkscape (http://www.inkscape.org/) -->

<svg
   xmlns:dc="http://purl.org/dc/elements/1.1/"
   xmlns:cc="http://creativecommons.org/ns#"
   xmlns:rdf="http://www.w3.org/1999/02/22-rdf-syntax-ns#"
   xmlns:svg="http://www.w3.org/2000/svg"
   xmlns="http://www.w3.org/2000/svg"
   xmlns:sodipodi="http://sodipodi.sourceforge.net/DTD/sodipodi-0.dtd"
   xmlns:inkscape="http://www.inkscape.org/namespaces/inkscape"
   width="128"
   height="128"
   viewBox="0 0 33.866667 33.866667"
   version="1.1"
   id="svg2634"
   inkscape:version="0.92.4 5da689c313, 2019-01-14"
   sodipodi:docname="application-x-blender.svg">
  <title
     id="title3250">Boston Icons</title>
  <defs
     id="defs2628" />
  <sodipodi:namedview
     id="base"
     pagecolor="#ffffff"
     bordercolor="#00ffed"
     borderopacity="1"
     inkscape:pageopacity="1"
     inkscape:pageshadow="2"
     inkscape:zoom="2.8"
     inkscape:cx="37.153278"
     inkscape:cy="65.012312"
     inkscape:document-units="px"
     inkscape:current-layer="g850"
     showgrid="false"
     showguides="false"
     inkscape:guide-bbox="true"
     fit-margin-top="0"
     fit-margin-left="0"
     fit-margin-right="0"
     fit-margin-bottom="0"
     inkscape:window-width="1920"
     inkscape:window-height="1016"
     inkscape:window-x="0"
     inkscape:window-y="27"
     inkscape:window-maximized="1"
     units="px">
    <inkscape:grid
       type="xygrid"
       id="grid3182"
       spacingx="0.52916667"
       spacingy="0.52916667"
       empspacing="4"
       originx="-82.550004"
       originy="-127.00001"
       dotted="false" />
    <sodipodi:guide
       position="-4.268358e-06,27.516666"
       orientation="1,0"
       id="guide3216"
       inkscape:locked="false" />
    <sodipodi:guide
       position="3.7041618,33.866666"
       orientation="0,1"
       id="guide3218"
       inkscape:locked="false" />
    <sodipodi:guide
       position="33.866657,24.870836"
       orientation="1,0"
       id="guide3220"
       inkscape:locked="false" />
    <sodipodi:guide
       position="32.279157,-4.1479283e-06"
       orientation="0,1"
       id="guide3222"
       inkscape:locked="false" />
    <sodipodi:guide
       position="15.345829,32.808336"
       orientation="0,1"
       id="guide3224"
       inkscape:locked="false" />
    <sodipodi:guide
       position="-4.7625023,1.0583259"
       orientation="0,1"
       id="guide3226"
       inkscape:locked="false" />
    <sodipodi:guide
       position="1.0583287,17.462496"
       orientation="1,0"
       id="guide3228"
       inkscape:locked="false" />
    <sodipodi:guide
       position="32.808327,20.108336"
       orientation="1,0"
       id="guide3230"
       inkscape:locked="false" />
    <sodipodi:guide
       position="15.874995,31.750006"
       orientation="0,1"
       id="guide3232"
       inkscape:locked="false" />
    <sodipodi:guide
       position="2.1166617,24.870836"
       orientation="1,0"
       id="guide3234"
       inkscape:locked="false" />
    <sodipodi:guide
       position="3.1749958,25.400006"
       orientation="1,0"
       id="guide3236"
       inkscape:locked="false" />
    <sodipodi:guide
       position="5.2916633,15.345824"
       orientation="1,0"
       id="guide3238"
       inkscape:locked="false" />
    <sodipodi:guide
       position="28.574997,25.400006"
       orientation="1,0"
       id="guide3240"
       inkscape:locked="false" />
    <sodipodi:guide
       position="30.691657,24.341666"
       orientation="1,0"
       id="guide3242"
       inkscape:locked="false" />
    <sodipodi:guide
       position="31.749997,21.695836"
       orientation="1,0"
       id="guide3244"
       inkscape:locked="false" />
    <sodipodi:guide
       position="21.695827,2.1166659"
       orientation="0,1"
       id="guide3246"
       inkscape:locked="false" />
    <sodipodi:guide
       position="16.404162,3.1749959"
       orientation="0,1"
       id="guide3248"
       inkscape:locked="false" />
    <sodipodi:guide
       position="29.63333,25.399991"
       orientation="0.70710678,0.70710678"
       id="guide850"
       inkscape:locked="false" />
    <sodipodi:guide
       position="26.987497,30.162491"
       orientation="0,1"
       id="guide843"
       inkscape:locked="false" />
    <sodipodi:guide
       position="30.162497,26.458325"
       orientation="0,1"
       id="guide845"
       inkscape:locked="false" />
    <sodipodi:guide
       position="8.9958299,20.637491"
       orientation="1,0"
       id="guide851"
       inkscape:locked="false" />
    <sodipodi:guide
       position="13.229163,23.812491"
       orientation="0,1"
       id="guide853"
       inkscape:locked="false" />
    <sodipodi:guide
       position="24.87083,14.287491"
       orientation="1,0"
       id="guide855"
       inkscape:locked="false" />
    <sodipodi:guide
       position="20.10833,7.9374908"
       orientation="0,1"
       id="guide857"
       inkscape:locked="false" />
    <sodipodi:guide
       position="10.054163,17.462491"
       orientation="1,0"
       id="guide882"
       inkscape:locked="false" />
    <sodipodi:guide
       position="12.699997,22.754158"
       orientation="0,1"
       id="guide884"
       inkscape:locked="false" />
    <sodipodi:guide
       position="23.812497,18.520824"
       orientation="1,0"
       id="guide886"
       inkscape:locked="false" />
    <sodipodi:guide
       position="16.404163,8.9958242"
       orientation="0,1"
       id="guide888"
       inkscape:locked="false" />
  </sodipodi:namedview>
  <metadata
     id="metadata2631">
    <rdf:RDF>
      <cc:Work
         rdf:about="">
        <dc:format>image/svg+xml</dc:format>
        <dc:type
           rdf:resource="http://purl.org/dc/dcmitype/StillImage" />
        <dc:title>Boston Icons</dc:title>
        <cc:license
           rdf:resource="dribbble.com/chrisdiaz" />
        <dc:creator>
          <cc:Agent>
            <dc:title>Christian Díaz</dc:title>
          </cc:Agent>
        </dc:creator>
        <dc:date>2019</dc:date>
        <dc:publisher>
          <cc:Agent>
            <dc:title>Christian Díaz</dc:title>
          </cc:Agent>
        </dc:publisher>
        <dc:identifier>christiandiaz.design [at] gmail [dot] com</dc:identifier>
        <dc:subject>
          <rdf:Bag>
            <rdf:li>GNOME icon Theme</rdf:li>
          </rdf:Bag>
        </dc:subject>
        <dc:description>diazchris.deviantart.com | dribbble.com/chrisdiaz</dc:description>
      </cc:Work>
    </rdf:RDF>
  </metadata>
  <g
     inkscape:label="Capa 1"
     inkscape:groupmode="layer"
     id="layer1"
     transform="translate(-82.550003,-136.13333)">
    <g
       id="g850">
      <path
         id="rect851"
         transform="matrix(0.26458333,0,0,0.26458333,82.550003,136.13333)"
         d="m 20,4 v 120 h 88 V 28 L 84,4 Z"
         style="fill:#ffffff;fill-opacity:1;stroke:none;stroke-width:1.99999988;stroke-linejoin:bevel;stroke-miterlimit:4;stroke-dasharray:none;stroke-opacity:1"
         inkscape:connector-curvature="0" />
      <path
         sodipodi:nodetypes="ccccccccccc"
         inkscape:connector-curvature="0"
         id="rect840"
         transform="matrix(0.26458333,0,0,0.26458333,82.550003,136.13333)"
         d="m 20,4 v 120 h 88 V 28 l -2,-2 v 96 H 22 V 6 H 86 L 84,4 Z"
         style="fill:#96a5af;fill-opacity:1;stroke:none;stroke-width:0.99999994;stroke-linejoin:round;stroke-miterlimit:4;stroke-dasharray:none" />
      <path
         transform="matrix(0.26458333,0,0,0.26458333,82.550003,136.13333)"
         id="path863"
         d="m 82,4 v 26 h 26 V 28 L 84,4 Z m 2,3 21,21 H 84 Z"
         style="fill:#96a5af;fill-opacity:1;stroke:none;stroke-width:0.99999994px;stroke-linecap:butt;stroke-linejoin:miter;stroke-opacity:1"
         inkscape:connector-curvature="0" />
      <path
         style="fill:#96a5af;stroke-width:2.60338116"
         d="m 65.044922,40.753906 c -1.582298,-0.103273 -3.026429,0.992204 -3.304688,2.636719 -0.09959,0.588699 -0.0055,1.231743 0.269532,1.841797 0.191573,0.42565 0.361923,0.604369 3.929687,4.185547 l 3.728516,3.74414 h -12.03711 c -13.175278,0 -12.269715,-0.02503 -13.02539,0.357422 -0.391533,0.198236 -1.065398,0.873764 -1.263672,1.265625 -0.942902,1.861947 0.01695,4.01459 2.023437,4.53711 0.305723,0.09827 1.161371,0.09766 5.574219,0.09766 h 5.212891 l -8.785156,8.796875 c -9.539116,9.552529 -9.056582,9.032032 -9.277344,9.96875 -0.120832,0.51205 -0.120832,0.928789 0,1.441406 0.472838,2.015584 2.776131,3.020866 4.574218,2.015625 0.263229,-0.146797 1.373349,-1.21488 4.441407,-4.27539 2.79535,-2.788196 4.090572,-4.043142 4.091797,-3.955079 0.0012,0.06879 0.07069,0.779247 0.154296,1.578125 l 0.150391,1.453125 0.566406,1.832032 0.564453,1.832031 0.882813,1.636719 0.880859,1.636718 1.210938,1.472657 1.210937,1.472656 1.46875,1.201172 1.466797,1.203125 1.705078,0.908203 c 1.219125,0.649323 1.869005,0.957558 2.275391,1.078125 0.312673,0.09339 1.12137,0.335409 1.798828,0.541015 1.224423,0.370243 1.243673,0.376736 3.033203,0.556641 v -0.0078 C 69.556567,91.912089 70.383826,92 70.414062,92 c 0.02642,0.0045 0.922329,-0.07733 1.990235,-0.181641 l 1.941406,-0.193359 1.800781,-0.542969 1.798828,-0.542969 1.714844,-0.914062 1.712891,-0.912109 1.466797,-1.203125 1.464844,-1.205078 1.208984,-1.472657 1.208984,-1.470703 0.898438,-1.679687 0.90039,-1.679688 0.5625,-1.876953 0.5625,-1.876953 0.175782,-1.863281 L 90,72.521484 89.806641,70.595703 c -0.16373,-1.628258 -0.22338,-2.019602 -0.384766,-2.527344 -0.104731,-0.330104 -0.34952,-1.125058 -0.544922,-1.767578 C 88.5405,65.195118 88.472421,65.040942 87.628906,63.453125 L 86.738281,61.775391 85.59375,60.390625 C 84.519684,59.090997 83.900732,58.457704 75.576172,50.152344 66.205967,40.805686 66.522247,41.099441 65.728516,40.873047 65.499796,40.807533 65.270964,40.76866 65.044922,40.753906 Z m 5.498047,18.738282 c 0.314688,-2.4e-5 0.631194,0.02578 1.205078,0.07812 1.130494,0.101972 1.288838,0.134267 2.501953,0.492188 1.197808,0.353613 1.379912,0.426417 2.431641,0.988281 0.987326,0.528 1.268345,0.714398 2.128906,1.419922 0.848882,0.695584 1.107201,0.953626 1.806641,1.802735 0.71554,0.868119 0.892881,1.132611 1.429687,2.136718 0.549846,1.028599 0.649068,1.269311 0.982422,2.367188 0.345978,1.141115 0.378677,1.308114 0.5,2.501953 l 0.130859,1.279297 -0.130859,1.279297 c -0.118035,1.167382 -0.159082,1.381098 -0.476563,2.447265 -0.310412,1.044359 -0.41505,1.29545 -0.974609,2.357422 -0.555591,1.054715 -0.715671,1.299081 -1.427734,2.169922 -0.692448,0.846879 -0.942051,1.097162 -1.816407,1.816406 -0.894878,0.737197 -1.146623,0.905179 -2.15039,1.439453 -0.99069,0.527396 -1.288398,0.653474 -2.306641,0.966797 -1.035401,0.319748 -1.294048,0.372248 -2.273437,0.476563 l -0.002,-0.0039 c -1.318639,0.148536 -1.783853,0.146268 -3.158203,0 C 68.03083,85.411624 67.757418,85.353456 66.734375,85.037109 65.713978,84.722275 65.420616,84.600731 64.427734,84.070312 63.440344,83.54322 63.159916,83.355889 62.294922,82.648438 61.444668,81.952551 61.18065,81.690795 60.494141,80.859375 59.79472,80.012043 59.61074,79.736456 59.078125,78.744141 58.527274,77.718037 58.427607,77.477208 58.085938,76.359375 57.72661,75.183677 57.698276,75.048158 57.578125,73.833984 l -0.126953,-1.283203 0.130859,-1.27539 c 0.119668,-1.182161 0.155495,-1.363645 0.494141,-2.488282 0.329238,-1.093115 0.425815,-1.325536 0.980469,-2.363281 0.535468,-1.001499 0.719831,-1.280656 1.421875,-2.136719 0.692069,-0.843363 0.95067,-1.100121 1.810546,-1.808593 0.882679,-0.727333 1.137699,-0.898312 2.138672,-1.431641 1.050101,-0.558576 1.235776,-0.632501 2.431641,-0.984375 1.204309,-0.35263 1.378196,-0.387873 2.488281,-0.492188 0.567742,-0.05244 0.880625,-0.0781 1.195313,-0.07812 z"
         transform="matrix(0.26458334,0,0,0.26458334,82.550003,136.13333)"
         id="path4783"
         inkscape:connector-curvature="0" />
      <path
         style="fill:#96a5af;stroke-width:0.6888113"
         d="m 100.95041,157.41749 c -0.21182,-0.0233 -0.50965,-0.12001 -0.72109,-0.23275 -0.751942,-0.40057 -1.190876,-1.22484 -1.100566,-2.06676 0.141155,-1.31593 1.426026,-2.17432 2.690756,-1.79753 1.26755,0.3776 1.87801,1.84254 1.25112,3.00244 -0.41512,0.76801 -1.24017,1.19394 -2.12022,1.09455 z"
         inkscape:connector-curvature="0"
         id="path4283" />
    </g>
  </g>
</svg>
