<?xml version="1.0" encoding="UTF-8" standalone="no"?>
<svg
   width="128"
   height="128"
   viewBox="0 0 33.866667 33.866667"
   version="1.1"
   id="svg2634"
   inkscape:version="1.1 (c4e8f9ed74, 2021-05-24)"
   sodipodi:docname="application-pdf.svg"
   xmlns:inkscape="http://www.inkscape.org/namespaces/inkscape"
   xmlns:sodipodi="http://sodipodi.sourceforge.net/DTD/sodipodi-0.dtd"
   xmlns="http://www.w3.org/2000/svg"
   xmlns:svg="http://www.w3.org/2000/svg"
   xmlns:rdf="http://www.w3.org/1999/02/22-rdf-syntax-ns#"
   xmlns:cc="http://creativecommons.org/ns#"
   xmlns:dc="http://purl.org/dc/elements/1.1/">
  <title
     id="title3250">Boston Icons</title>
  <defs
     id="defs2628" />
  <sodipodi:namedview
     id="base"
     pagecolor="#ffffff"
     bordercolor="#00ffed"
     borderopacity="1"
     inkscape:pageopacity="1"
     inkscape:pageshadow="2"
     inkscape:zoom="5.6"
     inkscape:cx="61.517857"
     inkscape:cy="66.875"
     inkscape:document-units="px"
     inkscape:current-layer="layer1"
     showgrid="false"
     showguides="false"
     inkscape:guide-bbox="true"
     fit-margin-top="0"
     fit-margin-left="0"
     fit-margin-right="0"
     fit-margin-bottom="0"
     inkscape:window-width="1920"
     inkscape:window-height="1011"
     inkscape:window-x="0"
     inkscape:window-y="32"
     inkscape:window-maximized="1"
     units="px"
     inkscape:document-rotation="0"
     inkscape:pagecheckerboard="0">
    <inkscape:grid
       type="xygrid"
       id="grid3182"
       spacingx="0.52916667"
       spacingy="0.52916667"
       empspacing="4"
       originx="-82.550004"
       originy="-127.00001"
       dotted="false" />
    <sodipodi:guide
       position="-4.268358e-06,27.516666"
       orientation="1,0"
       id="guide3216"
       inkscape:locked="false" />
    <sodipodi:guide
       position="3.7041618,33.866666"
       orientation="0,1"
       id="guide3218"
       inkscape:locked="false" />
    <sodipodi:guide
       position="33.866657,24.870836"
       orientation="1,0"
       id="guide3220"
       inkscape:locked="false" />
    <sodipodi:guide
       position="32.279157,-4.1479283e-06"
       orientation="0,1"
       id="guide3222"
       inkscape:locked="false" />
    <sodipodi:guide
       position="15.345829,32.808336"
       orientation="0,1"
       id="guide3224"
       inkscape:locked="false" />
    <sodipodi:guide
       position="-4.7625023,1.0583259"
       orientation="0,1"
       id="guide3226"
       inkscape:locked="false" />
    <sodipodi:guide
       position="1.0583287,17.462496"
       orientation="1,0"
       id="guide3228"
       inkscape:locked="false" />
    <sodipodi:guide
       position="32.808327,20.108336"
       orientation="1,0"
       id="guide3230"
       inkscape:locked="false" />
    <sodipodi:guide
       position="15.874995,31.750006"
       orientation="0,1"
       id="guide3232"
       inkscape:locked="false" />
    <sodipodi:guide
       position="2.1166617,24.870836"
       orientation="1,0"
       id="guide3234"
       inkscape:locked="false" />
    <sodipodi:guide
       position="3.1749958,25.400006"
       orientation="1,0"
       id="guide3236"
       inkscape:locked="false" />
    <sodipodi:guide
       position="5.2916632,5.2916575"
       orientation="1,0"
       id="guide3238"
       inkscape:locked="false" />
    <sodipodi:guide
       position="28.574997,25.400006"
       orientation="1,0"
       id="guide3240"
       inkscape:locked="false" />
    <sodipodi:guide
       position="30.691657,24.341666"
       orientation="1,0"
       id="guide3242"
       inkscape:locked="false" />
    <sodipodi:guide
       position="31.749997,21.695836"
       orientation="1,0"
       id="guide3244"
       inkscape:locked="false" />
    <sodipodi:guide
       position="21.695827,2.1166659"
       orientation="0,1"
       id="guide3246"
       inkscape:locked="false" />
    <sodipodi:guide
       position="16.404162,3.1749959"
       orientation="0,1"
       id="guide3248"
       inkscape:locked="false" />
    <sodipodi:guide
       position="29.63333,25.399991"
       orientation="0.70710678,0.70710678"
       id="guide850"
       inkscape:locked="false" />
    <sodipodi:guide
       position="26.987497,30.162491"
       orientation="0,1"
       id="guide843"
       inkscape:locked="false" />
    <sodipodi:guide
       position="30.162497,26.458325"
       orientation="0,1"
       id="guide845"
       inkscape:locked="false" />
    <sodipodi:guide
       position="8.9958299,20.637491"
       orientation="1,0"
       id="guide851"
       inkscape:locked="false" />
    <sodipodi:guide
       position="13.229163,23.812491"
       orientation="0,1"
       id="guide853"
       inkscape:locked="false" />
    <sodipodi:guide
       position="24.87083,14.287491"
       orientation="1,0"
       id="guide855"
       inkscape:locked="false" />
    <sodipodi:guide
       position="20.10833,7.9374908"
       orientation="0,1"
       id="guide857"
       inkscape:locked="false" />
    <sodipodi:guide
       position="10.054163,17.462491"
       orientation="1,0"
       id="guide882"
       inkscape:locked="false" />
    <sodipodi:guide
       position="12.699997,22.754158"
       orientation="0,1"
       id="guide884"
       inkscape:locked="false" />
    <sodipodi:guide
       position="23.812497,18.520824"
       orientation="1,0"
       id="guide886"
       inkscape:locked="false" />
    <sodipodi:guide
       position="16.404163,8.9958242"
       orientation="0,1"
       id="guide888"
       inkscape:locked="false" />
    <sodipodi:guide
       position="16.93333,12.699991"
       orientation="0,1"
       id="guide860"
       inkscape:locked="false" />
  </sodipodi:namedview>
  <metadata
     id="metadata2631">
    <rdf:RDF>
      <cc:Work
         rdf:about="">
        <dc:format>image/svg+xml</dc:format>
        <dc:type
           rdf:resource="http://purl.org/dc/dcmitype/StillImage" />
        <dc:title>Boston Icons</dc:title>
        <cc:license
           rdf:resource="dribbble.com/chrisdiaz" />
        <dc:creator>
          <cc:Agent>
            <dc:title>Christian Díaz</dc:title>
          </cc:Agent>
        </dc:creator>
        <dc:date>2021</dc:date>
        <dc:publisher>
          <cc:Agent>
            <dc:title>Christian Díaz</dc:title>
          </cc:Agent>
        </dc:publisher>
        <dc:identifier>christiandiaz.design [at] gmail [dot] com</dc:identifier>
        <dc:subject>
          <rdf:Bag>
            <rdf:li>GNOME icon Theme</rdf:li>
          </rdf:Bag>
        </dc:subject>
        <dc:description>dribbble.com/chrisdiaz | diazchris.deviantart.com</dc:description>
      </cc:Work>
    </rdf:RDF>
  </metadata>
  <g
     inkscape:label="Capa 1"
     inkscape:groupmode="layer"
     id="layer1"
     transform="translate(-82.550003,-136.13333)">
    <g
       id="g905">
      <path
         id="rect851"
         d="m 87.84167,137.19166 v 31.75 H 111.125 v -25.4 l -6.35,-6.35 z"
         style="fill:#d63232;fill-opacity:1;stroke:none;stroke-width:0.529167;stroke-linejoin:bevel;stroke-miterlimit:4;stroke-dasharray:none;stroke-opacity:1"
         inkscape:connector-curvature="0" />
      <path
         sodipodi:nodetypes="ccccccccccc"
         inkscape:connector-curvature="0"
         id="rect840"
         d="m 87.84167,137.19166 v 31.75 H 111.125 v -25.4 l -0.52916,-0.52916 v 25.4 H 88.370836 v -30.69167 h 16.933334 l -0.52917,-0.52917 z"
         style="fill:#af282e;fill-opacity:1;stroke:none;stroke-width:0.264583;stroke-linejoin:round;stroke-miterlimit:4;stroke-dasharray:none" />
      <path
         sodipodi:nodetypes="cccccc"
         inkscape:connector-curvature="0"
         id="path863"
         d="m 104.24584,137.19166 v 6.87917 h 6.87916 v -0.52917 l -6.35,-6.35 z"
         style="fill:#af282e;fill-opacity:1;stroke:none;stroke-width:0.264583px;stroke-linecap:butt;stroke-linejoin:miter;stroke-opacity:1" />
      <path
         id="rect4805"
         style="fill:#ffffff;fill-opacity:1;fill-rule:nonzero;stroke:none;stroke-width:0.380999;stroke-linecap:square;stroke-linejoin:bevel;stroke-miterlimit:4;stroke-dasharray:none;stroke-dashoffset:35;stroke-opacity:1"
         d="M 38 52 L 38 54 L 40 54 L 40 52 L 38 52 z M 40 54 L 40 56 L 42 56 L 42 54 L 40 54 z M 42 54 L 44 54 L 44 52 L 42 52 L 42 54 z M 44 54 L 44 56 L 46 56 L 46 54 L 44 54 z M 46 54 L 48 54 L 48 52 L 46 52 L 46 54 z M 48 54 L 48 56 L 50 56 L 50 54 L 48 54 z M 50 54 L 52 54 L 52 52 L 50 52 L 50 54 z M 52 54 L 52 56 L 54 56 L 54 54 L 52 54 z M 54 54 L 56 54 L 56 52 L 54 52 L 54 54 z M 56 54 L 56 56 L 58 56 L 58 54 L 56 54 z M 58 54 L 60 54 L 60 52 L 58 52 L 58 54 z M 60 54 L 60 56 L 62 56 L 62 54 L 60 54 z M 62 54 L 64 54 L 64 52 L 62 52 L 62 54 z M 64 54 L 64 56 L 66 56 L 66 54 L 64 54 z M 66 54 L 68 54 L 68 52 L 66 52 L 66 54 z M 68 54 L 68 56 L 70 56 L 70 54 L 68 54 z M 70 54 L 72 54 L 72 52 L 70 52 L 70 54 z M 72 54 L 72 56 L 74 56 L 74 54 L 72 54 z M 74 54 L 76 54 L 76 52 L 74 52 L 74 54 z M 76 54 L 76 56 L 78 56 L 78 54 L 76 54 z M 78 54 L 80 54 L 80 52 L 78 52 L 78 54 z M 80 54 L 80 56 L 82 56 L 82 54 L 80 54 z M 82 54 L 84 54 L 84 52 L 82 52 L 82 54 z M 84 54 L 84 56 L 86 56 L 86 54 L 84 54 z M 86 54 L 88 54 L 88 52 L 86 52 L 86 54 z M 88 54 L 88 56 L 90 56 L 90 54 L 88 54 z M 38 60 L 38 62 L 40 62 L 40 60 L 38 60 z M 40 62 L 40 64 L 42 64 L 42 62 L 40 62 z M 42 62 L 44 62 L 44 60 L 42 60 L 42 62 z M 44 62 L 44 64 L 46 64 L 46 62 L 44 62 z M 46 62 L 48 62 L 48 60 L 46 60 L 46 62 z M 48 62 L 48 64 L 50 64 L 50 62 L 48 62 z M 50 62 L 52 62 L 52 60 L 50 60 L 50 62 z M 52 62 L 52 64 L 54 64 L 54 62 L 52 62 z M 54 62 L 56 62 L 56 60 L 54 60 L 54 62 z M 56 62 L 56 64 L 58 64 L 58 62 L 56 62 z M 58 62 L 60 62 L 60 60 L 58 60 L 58 62 z M 60 62 L 60 64 L 62 64 L 62 62 L 60 62 z M 62 62 L 64 62 L 64 60 L 62 60 L 62 62 z M 64 62 L 64 64 L 66 64 L 66 62 L 64 62 z M 66 62 L 68 62 L 68 60 L 66 60 L 66 62 z M 68 62 L 68 64 L 70 64 L 70 62 L 68 62 z M 70 62 L 72 62 L 72 60 L 70 60 L 70 62 z M 72 62 L 72 64 L 74 64 L 74 62 L 72 62 z M 74 62 L 76 62 L 76 60 L 74 60 L 74 62 z M 76 62 L 76 64 L 78 64 L 78 62 L 76 62 z M 78 62 L 80 62 L 80 60 L 78 60 L 78 62 z M 80 62 L 80 64 L 82 64 L 82 62 L 80 62 z M 82 62 L 84 62 L 84 60 L 82 60 L 82 62 z M 84 62 L 84 64 L 86 64 L 86 62 L 84 62 z M 86 62 L 88 62 L 88 60 L 86 60 L 86 62 z M 88 62 L 88 64 L 90 64 L 90 62 L 88 62 z M 38 68 L 38 70 L 40 70 L 40 68 L 38 68 z M 40 70 L 40 72 L 42 72 L 42 70 L 40 70 z M 42 70 L 44 70 L 44 68 L 42 68 L 42 70 z M 44 70 L 44 72 L 46 72 L 46 70 L 44 70 z M 46 70 L 48 70 L 48 68 L 46 68 L 46 70 z M 48 70 L 48 72 L 50 72 L 50 70 L 48 70 z M 50 70 L 52 70 L 52 68 L 50 68 L 50 70 z M 52 70 L 52 72 L 54 72 L 54 70 L 52 70 z M 54 70 L 56 70 L 56 68 L 54 68 L 54 70 z M 56 70 L 56 72 L 58 72 L 58 70 L 56 70 z M 58 70 L 60 70 L 60 68 L 58 68 L 58 70 z M 60 70 L 60 72 L 62 72 L 62 70 L 60 70 z M 62 70 L 64 70 L 64 68 L 62 68 L 62 70 z M 64 70 L 64 72 L 66 72 L 66 70 L 64 70 z M 66 70 L 68 70 L 68 68 L 66 68 L 66 70 z M 68 70 L 68 72 L 70 72 L 70 70 L 68 70 z M 70 70 L 72 70 L 72 68 L 70 68 L 70 70 z M 72 70 L 72 72 L 74 72 L 74 70 L 72 70 z M 74 70 L 76 70 L 76 68 L 74 68 L 74 70 z M 76 70 L 76 72 L 78 72 L 78 70 L 76 70 z M 78 70 L 80 70 L 80 68 L 78 68 L 78 70 z M 80 70 L 80 72 L 82 72 L 82 70 L 80 70 z M 82 70 L 84 70 L 84 68 L 82 68 L 82 70 z M 84 70 L 84 72 L 86 72 L 86 70 L 84 70 z M 86 70 L 88 70 L 88 68 L 86 68 L 86 70 z M 88 70 L 88 72 L 90 72 L 90 70 L 88 70 z M 38 76 L 38 78 L 40 78 L 40 76 L 38 76 z M 40 78 L 40 80 L 42 80 L 42 78 L 40 78 z M 42 78 L 44 78 L 44 76 L 42 76 L 42 78 z M 44 78 L 44 80 L 46 80 L 46 78 L 44 78 z M 46 78 L 48 78 L 48 76 L 46 76 L 46 78 z M 48 78 L 48 80 L 50 80 L 50 78 L 48 78 z M 50 78 L 52 78 L 52 76 L 50 76 L 50 78 z M 52 78 L 52 80 L 54 80 L 54 78 L 52 78 z M 54 78 L 56 78 L 56 76 L 54 76 L 54 78 z M 56 78 L 56 80 L 58 80 L 58 78 L 56 78 z M 58 78 L 60 78 L 60 76 L 58 76 L 58 78 z M 60 78 L 60 80 L 62 80 L 62 78 L 60 78 z M 62 78 L 64 78 L 64 76 L 62 76 L 62 78 z M 64 78 L 64 80 L 66 80 L 66 78 L 64 78 z M 66 78 L 68 78 L 68 76 L 66 76 L 66 78 z M 68 78 L 68 80 L 70 80 L 70 78 L 68 78 z M 70 78 L 72 78 L 72 76 L 70 76 L 70 78 z M 72 78 L 72 80 L 74 80 L 74 78 L 72 78 z M 74 78 L 76 78 L 76 76 L 74 76 L 74 78 z M 76 78 L 76 80 L 78 80 L 78 78 L 76 78 z M 78 78 L 80 78 L 80 76 L 78 76 L 78 78 z M 80 78 L 80 80 L 82 80 L 82 78 L 80 78 z M 82 78 L 84 78 L 84 76 L 82 76 L 82 78 z M 84 78 L 84 80 L 86 80 L 86 78 L 84 78 z M 86 78 L 88 78 L 88 76 L 86 76 L 86 78 z M 88 78 L 88 80 L 90 80 L 90 78 L 88 78 z "
         transform="matrix(0.26458334,0,0,0.26458334,82.550003,136.13333)" />
    </g>
  </g>
</svg>
