<?xml version="1.0" encoding="UTF-8" standalone="no"?>
<!-- Created with Inkscape (http://www.inkscape.org/) -->

<svg
   width="128"
   height="128"
   viewBox="0 0 33.866667 33.866667"
   version="1.1"
   id="svg2634"
   inkscape:version="1.1.2 (0a00cf5339, 2022-02-04, custom)"
   sodipodi:docname="application-vnd.appimage.svg"
   xmlns:inkscape="http://www.inkscape.org/namespaces/inkscape"
   xmlns:sodipodi="http://sodipodi.sourceforge.net/DTD/sodipodi-0.dtd"
   xmlns="http://www.w3.org/2000/svg"
   xmlns:svg="http://www.w3.org/2000/svg"
   xmlns:rdf="http://www.w3.org/1999/02/22-rdf-syntax-ns#"
   xmlns:cc="http://creativecommons.org/ns#"
   xmlns:dc="http://purl.org/dc/elements/1.1/">
  <title
     id="title3250">Boston Icons</title>
  <defs
     id="defs2628" />
  <sodipodi:namedview
     id="base"
     pagecolor="#ffffff"
     bordercolor="#00ffed"
     borderopacity="1"
     inkscape:pageopacity="1"
     inkscape:pageshadow="2"
     inkscape:zoom="3.959798"
     inkscape:cx="27.652926"
     inkscape:cy="40.279832"
     inkscape:document-units="px"
     inkscape:current-layer="layer1"
     showgrid="false"
     showguides="false"
     inkscape:guide-bbox="true"
     fit-margin-top="0"
     fit-margin-left="0"
     fit-margin-right="0"
     fit-margin-bottom="0"
     inkscape:window-width="1920"
     inkscape:window-height="1011"
     inkscape:window-x="0"
     inkscape:window-y="0"
     inkscape:window-maximized="1"
     units="px"
     inkscape:pagecheckerboard="0">
    <inkscape:grid
       type="xygrid"
       id="grid3182"
       spacingx="0.52916667"
       spacingy="0.52916667"
       empspacing="4"
       originx="-82.550004"
       originy="-127.00001"
       dotted="false" />
    <sodipodi:guide
       position="-4.268358e-06,27.516666"
       orientation="1,0"
       id="guide3216"
       inkscape:locked="false" />
    <sodipodi:guide
       position="3.7041618,33.866666"
       orientation="0,1"
       id="guide3218"
       inkscape:locked="false" />
    <sodipodi:guide
       position="33.866657,24.870836"
       orientation="1,0"
       id="guide3220"
       inkscape:locked="false" />
    <sodipodi:guide
       position="32.279157,-4.1479283e-06"
       orientation="0,1"
       id="guide3222"
       inkscape:locked="false" />
    <sodipodi:guide
       position="2.1166617,24.870836"
       orientation="1,0"
       id="guide3234"
       inkscape:locked="false" />
    <sodipodi:guide
       position="31.749997,21.695836"
       orientation="1,0"
       id="guide3244"
       inkscape:locked="false" />
    <sodipodi:guide
       position="16.404162,3.1749959"
       orientation="0,1"
       id="guide3248"
       inkscape:locked="false" />
    <sodipodi:guide
       position="30.162497,26.458325"
       orientation="0,1"
       id="guide845"
       inkscape:locked="false" />
    <sodipodi:guide
       position="16.93333,16.404158"
       orientation="1,0"
       id="guide4798"
       inkscape:locked="false" />
    <sodipodi:guide
       position="7.9374966,13.758324"
       orientation="0,1"
       id="guide4800"
       inkscape:locked="false" />
  </sodipodi:namedview>
  <metadata
     id="metadata2631">
    <rdf:RDF>
      <cc:Work
         rdf:about="">
        <dc:format>image/svg+xml</dc:format>
        <dc:type
           rdf:resource="http://purl.org/dc/dcmitype/StillImage" />
        <dc:title>Boston Icons</dc:title>
        <cc:license
           rdf:resource="dribbble.com/chrisdiaz" />
        <dc:creator>
          <cc:Agent>
            <dc:title>Christian Díaz</dc:title>
          </cc:Agent>
        </dc:creator>
        <dc:date>2022</dc:date>
        <dc:publisher>
          <cc:Agent>
            <dc:title>Christian Díaz</dc:title>
          </cc:Agent>
        </dc:publisher>
        <dc:identifier>christiandiaz.design [at] gmail [dot] com</dc:identifier>
        <dc:subject>
          <rdf:Bag>
            <rdf:li>GNOME icon Theme</rdf:li>
          </rdf:Bag>
        </dc:subject>
        <dc:description>dribbble.com/chrisdiaz | diazchris.deviantart.com</dc:description>
      </cc:Work>
    </rdf:RDF>
  </metadata>
  <g
     inkscape:label="Capa 1"
     inkscape:groupmode="layer"
     id="layer1"
     transform="translate(-82.550003,-136.13333)">
    <g
       id="g4807">
      <path
         sodipodi:nodetypes="sssccccss"
         inkscape:connector-curvature="0"
         id="rect858-6"
         d="m 86.783332,144.60001 h 27.516658 c 0.58632,0 1.05834,0.47202 1.05834,1.05834 v 21.16666 1.05833 H 85.724996 l -2e-6,-1.05833 1e-6,-21.16666 c 0,-0.58632 0.472018,-1.05834 1.058337,-1.05834 z"
         style="opacity:1;fill:#cdd5d9;fill-opacity:1;fill-rule:evenodd;stroke:none;stroke-width:0.5291667;stroke-linecap:square;stroke-linejoin:bevel;stroke-miterlimit:4;stroke-dasharray:none;stroke-opacity:1" />
      <path
         sodipodi:nodetypes="sssccccss"
         inkscape:connector-curvature="0"
         id="rect858"
         d="m 85.725,143.54167 h 27.51666 c 0.58632,0 1.05834,0.47202 1.05834,1.05834 v 21.16666 1.05833 H 84.666664 l -2e-6,-1.05833 10e-7,-21.16666 c 0,-0.58632 0.472018,-1.05834 1.058337,-1.05834 z"
         style="opacity:1;fill:#2f3744;fill-opacity:1;fill-rule:evenodd;stroke:none;stroke-width:0.5291667;stroke-linecap:square;stroke-linejoin:bevel;stroke-miterlimit:4;stroke-dasharray:none;stroke-opacity:1" />
      <rect
         rx="8.5529211e-07"
         y="146.1875"
         x="85.195831"
         height="20.108332"
         width="28.57501"
         id="rect860"
         style="opacity:1;fill:#2d8cff;fill-opacity:1;fill-rule:evenodd;stroke:none;stroke-width:0.5291667;stroke-linecap:square;stroke-linejoin:bevel;stroke-miterlimit:4;stroke-dasharray:none;stroke-opacity:1" />
      <path
         sodipodi:nodetypes="cccccccccc"
         inkscape:connector-curvature="0"
         id="path4804"
         d="m 99.483337,150.42083 -5.820834,5.82084 5.820834,5.82083 5.820833,-5.82083 z m 0,0.79375 5.027083,5.02709 -5.027083,5.02708 -5.027084,-5.02708 z"
         style="fill:#ffffff;fill-opacity:1;stroke:none;stroke-width:0.26458335px;stroke-linecap:butt;stroke-linejoin:miter;stroke-opacity:1" />
      <path
         inkscape:connector-curvature="0"
         id="path4763"
         d="m 99.483337,152.00834 -0.529167,0.52917 0.529167,0.52916 0.529163,-0.52916 z m 0,1.05833 -0.529167,0.52917 0.529167,0.52917 0.529163,-0.52917 z m 0.529163,0.52917 0.52917,0.52917 0.52917,-0.52917 -0.52917,-0.52917 z m 0.52917,0.52917 -0.52917,0.52916 0.52917,0.52917 0.52917,-0.52917 z m 0.52917,0.52916 0.52916,0.52917 0.52917,-0.52917 -0.52917,-0.52916 z m 0.52916,0.52917 -0.52916,0.52917 0.52916,0.52916 0.52917,-0.52916 z m 0.52917,0.52917 0.52917,0.52916 0.52916,-0.52916 -0.52916,-0.52917 z m 0.52917,0.52916 -0.52917,0.52917 0.52917,0.52917 0.52916,-0.52917 z m -0.52917,0.52917 -0.52917,-0.52917 -0.52916,0.52917 0.52916,0.52917 z m -0.52917,0.52917 -0.52916,0.52916 0.52916,0.52917 0.52917,-0.52917 z m -0.52916,0.52916 -0.52917,-0.52916 -0.52917,0.52916 0.52917,0.52917 z m -0.52917,0.52917 -0.52917,0.52917 0.52917,0.52916 0.52917,-0.52916 z m -0.52917,0.52917 -0.529163,-0.52917 -0.529167,0.52917 0.529167,0.52916 z m -0.529163,0.52916 -0.529167,0.52917 0.529167,0.52917 0.529163,-0.52917 z m -0.529167,-0.52916 -0.529167,-0.52917 -0.529166,0.52917 0.529166,0.52916 z m -0.529167,-0.52917 0.529167,-0.52917 -0.529167,-0.52916 -0.529166,0.52916 z m -0.529166,-0.52917 -0.529167,-0.52916 -0.529167,0.52916 0.529167,0.52917 z m -0.529167,-0.52916 0.529167,-0.52917 -0.529167,-0.52917 -0.529167,0.52917 z m -0.529167,-0.52917 -0.529166,-0.52917 -0.529167,0.52917 0.529167,0.52917 z m -0.529166,-0.52917 0.529166,-0.52916 -0.529166,-0.52917 -0.529167,0.52917 z m 0.529166,-0.52916 0.529167,0.52916 0.529167,-0.52916 -0.529167,-0.52917 z m 0.529167,-0.52917 0.529167,-0.52917 -0.529167,-0.52916 -0.529167,0.52916 z m 0.529167,-0.52917 0.529166,0.52917 0.529167,-0.52917 -0.529167,-0.52916 z m 0.529166,-0.52916 0.529167,-0.52917 -0.529167,-0.52917 -0.529166,0.52917 z m 0.529167,0.52916 0.529167,0.52917 0.529163,-0.52917 -0.529163,-0.52916 z m 0.529167,0.52917 -0.529167,0.52917 0.529167,0.52916 0.529163,-0.52916 z m 0.529163,0.52917 0.52917,0.52916 0.52917,-0.52916 -0.52917,-0.52917 z m 0.52917,0.52916 -0.52917,0.52917 0.52917,0.52917 0.52917,-0.52917 z m -0.52917,0.52917 -0.529163,-0.52917 -0.529167,0.52917 0.529167,0.52917 z m -0.529163,0.52917 -0.529167,0.52916 0.529167,0.52917 0.529163,-0.52917 z m -0.529167,-0.52917 -0.529167,-0.52917 -0.529166,0.52917 0.529166,0.52917 z m -0.529167,-0.52917 0.529167,-0.52916 -0.529167,-0.52917 -0.529166,0.52917 z"
         style="fill:#ffffff;fill-opacity:1;stroke:none;stroke-width:0.26458335px;stroke-linecap:butt;stroke-linejoin:miter;stroke-opacity:1" />
    </g>
  </g>
</svg>
