<?xml version="1.0" encoding="UTF-8" standalone="no"?>
<!-- Created with Inkscape (http://www.inkscape.org/) -->

<svg
   xmlns:dc="http://purl.org/dc/elements/1.1/"
   xmlns:cc="http://creativecommons.org/ns#"
   xmlns:rdf="http://www.w3.org/1999/02/22-rdf-syntax-ns#"
   xmlns:svg="http://www.w3.org/2000/svg"
   xmlns="http://www.w3.org/2000/svg"
   xmlns:sodipodi="http://sodipodi.sourceforge.net/DTD/sodipodi-0.dtd"
   xmlns:inkscape="http://www.inkscape.org/namespaces/inkscape"
   width="128"
   height="128"
   viewBox="0 0 33.866667 33.866667"
   version="1.1"
   id="svg2634"
   inkscape:version="0.92.4 5da689c313, 2019-01-14"
   sodipodi:docname="application-x-executable.svg">
  <title
     id="title3250">Boston Icons</title>
  <defs
     id="defs2628" />
  <sodipodi:namedview
     id="base"
     pagecolor="#ffffff"
     bordercolor="#00ffed"
     borderopacity="1"
     inkscape:pageopacity="1"
     inkscape:pageshadow="2"
     inkscape:zoom="5.6"
     inkscape:cx="56.667341"
     inkscape:cy="58.459554"
     inkscape:document-units="px"
     inkscape:current-layer="layer1"
     showgrid="false"
     showguides="false"
     inkscape:guide-bbox="true"
     fit-margin-top="0"
     fit-margin-left="0"
     fit-margin-right="0"
     fit-margin-bottom="0"
     inkscape:window-width="1920"
     inkscape:window-height="1016"
     inkscape:window-x="0"
     inkscape:window-y="27"
     inkscape:window-maximized="1"
     units="px">
    <inkscape:grid
       type="xygrid"
       id="grid3182"
       spacingx="0.52916667"
       spacingy="0.52916667"
       empspacing="4"
       originx="-82.550004"
       originy="-127.00001"
       dotted="false" />
    <sodipodi:guide
       position="-4.268358e-06,27.516666"
       orientation="1,0"
       id="guide3216"
       inkscape:locked="false" />
    <sodipodi:guide
       position="3.7041618,33.866666"
       orientation="0,1"
       id="guide3218"
       inkscape:locked="false" />
    <sodipodi:guide
       position="33.866657,24.870836"
       orientation="1,0"
       id="guide3220"
       inkscape:locked="false" />
    <sodipodi:guide
       position="32.279157,-4.1479283e-06"
       orientation="0,1"
       id="guide3222"
       inkscape:locked="false" />
    <sodipodi:guide
       position="15.345829,32.808336"
       orientation="0,1"
       id="guide3224"
       inkscape:locked="false" />
    <sodipodi:guide
       position="-4.7625023,1.0583259"
       orientation="0,1"
       id="guide3226"
       inkscape:locked="false" />
    <sodipodi:guide
       position="1.0583287,17.462496"
       orientation="1,0"
       id="guide3228"
       inkscape:locked="false" />
    <sodipodi:guide
       position="32.808327,20.108336"
       orientation="1,0"
       id="guide3230"
       inkscape:locked="false" />
    <sodipodi:guide
       position="15.874995,31.750006"
       orientation="0,1"
       id="guide3232"
       inkscape:locked="false" />
    <sodipodi:guide
       position="2.1166617,24.870836"
       orientation="1,0"
       id="guide3234"
       inkscape:locked="false" />
    <sodipodi:guide
       position="3.1749958,25.400006"
       orientation="1,0"
       id="guide3236"
       inkscape:locked="false" />
    <sodipodi:guide
       position="5.2916633,15.345824"
       orientation="1,0"
       id="guide3238"
       inkscape:locked="false" />
    <sodipodi:guide
       position="28.574997,25.400006"
       orientation="1,0"
       id="guide3240"
       inkscape:locked="false" />
    <sodipodi:guide
       position="30.691657,24.341666"
       orientation="1,0"
       id="guide3242"
       inkscape:locked="false" />
    <sodipodi:guide
       position="31.749997,21.695836"
       orientation="1,0"
       id="guide3244"
       inkscape:locked="false" />
    <sodipodi:guide
       position="21.695827,2.1166659"
       orientation="0,1"
       id="guide3246"
       inkscape:locked="false" />
    <sodipodi:guide
       position="16.404162,3.1749959"
       orientation="0,1"
       id="guide3248"
       inkscape:locked="false" />
    <sodipodi:guide
       position="29.63333,25.399991"
       orientation="0.70710678,0.70710678"
       id="guide850"
       inkscape:locked="false" />
    <sodipodi:guide
       position="26.987497,30.162491"
       orientation="0,1"
       id="guide843"
       inkscape:locked="false" />
    <sodipodi:guide
       position="30.162497,26.458325"
       orientation="0,1"
       id="guide845"
       inkscape:locked="false" />
    <sodipodi:guide
       position="8.9958299,20.637491"
       orientation="1,0"
       id="guide851"
       inkscape:locked="false" />
    <sodipodi:guide
       position="13.229163,23.812491"
       orientation="0,1"
       id="guide853"
       inkscape:locked="false" />
    <sodipodi:guide
       position="24.87083,14.287491"
       orientation="1,0"
       id="guide855"
       inkscape:locked="false" />
    <sodipodi:guide
       position="20.10833,7.9374908"
       orientation="0,1"
       id="guide857"
       inkscape:locked="false" />
    <sodipodi:guide
       position="10.054163,17.462491"
       orientation="1,0"
       id="guide882"
       inkscape:locked="false" />
    <sodipodi:guide
       position="12.699997,22.754158"
       orientation="0,1"
       id="guide884"
       inkscape:locked="false" />
    <sodipodi:guide
       position="23.812497,18.520824"
       orientation="1,0"
       id="guide886"
       inkscape:locked="false" />
    <sodipodi:guide
       position="16.404163,8.9958242"
       orientation="0,1"
       id="guide888"
       inkscape:locked="false" />
    <sodipodi:guide
       position="16.93333,15.874991"
       orientation="0,1"
       id="guide846"
       inkscape:locked="false" />
    <sodipodi:guide
       position="16.93333,15.874991"
       orientation="1,0"
       id="guide848"
       inkscape:locked="false" />
  </sodipodi:namedview>
  <metadata
     id="metadata2631">
    <rdf:RDF>
      <cc:Work
         rdf:about="">
        <dc:format>image/svg+xml</dc:format>
        <dc:type
           rdf:resource="http://purl.org/dc/dcmitype/StillImage" />
        <dc:title>Boston Icons</dc:title>
        <cc:license
           rdf:resource="dribbble.com/chrisdiaz" />
        <dc:creator>
          <cc:Agent>
            <dc:title>Christian Díaz</dc:title>
          </cc:Agent>
        </dc:creator>
        <dc:date>2019</dc:date>
        <dc:publisher>
          <cc:Agent>
            <dc:title>Christian Díaz</dc:title>
          </cc:Agent>
        </dc:publisher>
        <dc:identifier>christiandiaz.design [at] gmail [dot] com</dc:identifier>
        <dc:subject>
          <rdf:Bag>
            <rdf:li>GNOME icon Theme</rdf:li>
          </rdf:Bag>
        </dc:subject>
        <dc:description>diazchris.deviantart.com | dribbble.com/chrisdiaz</dc:description>
      </cc:Work>
    </rdf:RDF>
  </metadata>
  <g
     inkscape:label="Capa 1"
     inkscape:groupmode="layer"
     id="layer1"
     transform="translate(-82.550003,-136.13333)">
    <g
       id="g854">
      <path
         transform="matrix(0.26458333,0,0,0.26458333,82.550003,136.13333)"
         id="rect851"
         d="m 20,4 v 120 h 88 V 28 L 84,4 Z"
         style="fill:#ffffff;fill-opacity:1;stroke:none;stroke-width:1.99999988;stroke-linejoin:bevel;stroke-miterlimit:4;stroke-dasharray:none;stroke-opacity:1"
         inkscape:connector-curvature="0" />
      <path
         sodipodi:nodetypes="ccccccccccc"
         inkscape:connector-curvature="0"
         id="rect840"
         transform="matrix(0.26458333,0,0,0.26458333,82.550003,136.13333)"
         d="m 20,4 v 120 h 88 V 28 l -2,-2 v 96 H 22 V 6 H 86 L 84,4 Z"
         style="fill:#96a5af;fill-opacity:1;stroke:none;stroke-width:0.99999994;stroke-linejoin:round;stroke-miterlimit:4;stroke-dasharray:none" />
      <path
         transform="matrix(0.26458333,0,0,0.26458333,82.550003,136.13333)"
         id="path863"
         d="m 82,4 v 26 h 26 V 28 L 84,4 Z m 2,3 21,21 H 84 Z"
         style="fill:#96a5af;fill-opacity:1;stroke:none;stroke-width:0.99999994px;stroke-linecap:butt;stroke-linejoin:miter;stroke-opacity:1"
         inkscape:connector-curvature="0" />
      <path
         sodipodi:nodetypes="cccccccccc"
         inkscape:connector-curvature="0"
         transform="matrix(0.26458334,0,0,0.26458334,82.550003,136.13333)"
         id="path850"
         d="M 64,42 38,68 64,94 90,68 Z m 0,2.999999 22.999999,23 -22.999999,23 -23.000001,-23 z"
         style="fill:#96a5af;fill-opacity:1;stroke:none;stroke-width:1px;stroke-linecap:butt;stroke-linejoin:miter;stroke-opacity:1" />
      <path
         inkscape:connector-curvature="0"
         id="rect1220"
         d="m 99.483368,148.88651 -0.374176,0.37418 0.37418,0.37418 0.374172,-0.37419 z m -2.6e-5,0.74837 -0.374184,0.37417 0.374178,0.37417 0.374183,-0.37417 z m 0.374177,0.37417 0.374191,0.37417 0.37417,-0.37417 -0.37418,-0.37418 z m 0.374191,0.37417 -0.374197,0.37419 0.374187,0.37417 0.37418,-0.37418 z m 0.37417,0.37418 0.37418,0.37417 0.37417,-0.37417 -0.37418,-0.37417 z m 0.37418,0.37417 -0.37418,0.37419 0.37417,0.37418 0.37417,-0.37417 z m 0.37416,0.3742 0.37419,0.37417 0.37417,-0.37418 -0.37417,-0.37418 z m 0.37419,0.37417 -0.37418,0.37417 0.37417,0.37418 0.37418,-0.37417 z m 0.37417,0.37418 0.37418,0.37417 0.37418,-0.37418 -0.37417,-0.37417 z m 0.37418,0.37417 -0.37418,0.37419 0.37418,0.37418 0.37418,-0.37419 z m 0.37418,0.37418 0.37418,0.37418 0.37417,-0.37417 -0.37417,-0.37419 z m 0.37418,0.37418 -0.37418,0.37418 0.37417,0.37417 0.37418,-0.37418 z m 0.37417,0.37417 0.37417,0.37419 0.37419,-0.37419 -0.37418,-0.37417 z m 0.37417,0.37419 -0.37417,0.37417 0.37418,0.37418 0.37418,-0.37418 z m -0.37417,0.37417 -0.37418,-0.37418 -0.37417,0.37418 0.37418,0.37418 z m -0.37417,0.37418 -0.37418,0.37418 0.37417,0.37417 0.37418,-0.37417 z m -0.37418,0.37418 -0.37418,-0.37418 -0.37419,0.37418 0.37419,0.37418 z m -0.37418,0.37418 -0.37419,0.37416 0.37419,0.37419 0.37418,-0.37418 z m -0.37419,0.37416 -0.37417,-0.37417 -0.37417,0.37418 0.37417,0.37417 z m -0.37417,0.37418 -0.37418,0.37418 0.37418,0.37419 0.37418,-0.37419 z m -0.37418,0.37418 -0.37417,-0.37418 -0.37418,0.37417 0.37418,0.37419 z m -0.37417,0.37418 -0.37418,0.37418 0.37418,0.37418 0.37418,-0.37418 z m -0.37418,0.37418 -0.37419,-0.37418 -0.374171,0.37418 0.374181,0.37417 z m -0.37418,0.37417 -0.374176,0.37418 0.374176,0.37418 0.37417,-0.37418 z m -0.374176,0.37418 -0.374184,-0.37419 -0.374181,0.37419 0.37418,0.37417 z m -0.374185,0.37417 -0.37418,0.37419 0.374179,0.37418 0.374189,-0.37418 z m -0.37418,-0.37417 -0.374171,-0.37417 -0.37418,0.37417 0.374172,0.37418 z m -0.374171,-0.37417 0.374179,-0.37419 -0.374178,-0.37417 -0.374181,0.37418 z m -0.37418,-0.37418 -0.374179,-0.37418 -0.374181,0.37417 0.374181,0.37418 z m -0.374179,-0.37418 0.37418,-0.37419 -0.374172,-0.37417 -0.374179,0.37417 z m -0.374171,-0.37419 -0.37418,-0.37417 -0.374181,0.37418 0.374181,0.37418 z m -0.37418,-0.37417 0.37418,-0.37417 -0.374178,-0.37418 -0.374181,0.37417 z m -0.374179,-0.37418 -0.374175,-0.37417 -0.374181,0.37418 0.374176,0.37417 z m -0.374175,-0.37417 0.37418,-0.37419 -0.374177,-0.37418 -0.37418,0.37418 z m -0.374177,-0.37419 -0.374178,-0.37417 -0.374179,0.37417 0.374175,0.37419 z m -0.374178,-0.37417 0.37418,-0.37418 -0.374176,-0.37418 -0.37418,0.37419 z m -0.374176,-0.37417 -0.374178,-0.37419 -0.37418,0.37418 0.374177,0.37418 z m -0.374178,-0.37419 0.37418,-0.37417 -0.374176,-0.37418 -0.374181,0.37418 z m 0.37418,-0.37417 0.374178,0.37417 0.374173,-0.37417 -0.374177,-0.37419 z m 0.374174,-0.37419 0.37418,-0.37417 -0.374177,-0.37417 -0.37418,0.37417 z m 0.37418,-0.37417 0.374177,0.37418 0.374181,-0.37418 -0.374178,-0.37418 z m 0.37418,-0.37418 0.374173,-0.37416 -0.374178,-0.37419 -0.374173,0.37418 z m 0.374173,-0.37416 0.374177,0.37417 0.37418,-0.37418 -0.374177,-0.37418 z m 0.37418,-0.37419 0.37418,-0.37417 -0.374176,-0.37419 -0.374182,0.37419 z m 0.37418,-0.37417 0.374177,0.37418 0.374173,-0.37418 -0.374176,-0.37418 z m 0.374174,-0.37418 0.374179,-0.37419 -0.374177,-0.37417 -0.374179,0.37418 z m 0.374179,-0.37419 0.374177,0.37419 0.374181,-0.37418 -0.374178,-0.37418 z m 0.37418,-0.37417 0.374173,-0.37417 -0.374177,-0.37418 -0.374172,0.37418 z m 0.374178,0.37418 0.374177,0.37417 0.374173,-0.37416 -0.374177,-0.37419 z m 0.374177,0.37417 -0.374181,0.37419 0.374174,0.37418 0.374182,-0.37418 z m 0.374175,0.37419 0.374185,0.37417 0.37418,-0.37417 -0.37418,-0.37418 z m 0.374185,0.37417 -0.374193,0.37418 0.374183,0.37418 0.37419,-0.37418 z m 0.37418,0.37418 0.37418,0.37418 0.37417,-0.37418 -0.37418,-0.37417 z m 0.37418,0.37418 -0.37419,0.37417 0.37418,0.3742 0.37418,-0.37419 z m 0.37417,0.37418 0.37418,0.37417 0.37417,-0.37416 -0.37418,-0.37419 z m 0.37418,0.37417 -0.37418,0.37419 0.37417,0.37417 0.37418,-0.37418 z m 0.37417,0.37418 0.37419,0.37418 0.37417,-0.37417 -0.37418,-0.37417 z m 0.37419,0.37418 -0.37419,0.37418 0.37418,0.37418 0.37418,-0.37418 z m -0.37419,0.37418 -0.37418,-0.37418 -0.37417,0.37417 0.37418,0.37419 z m -0.37417,0.37418 -0.37418,0.37418 0.37417,0.37417 0.37417,-0.37417 z m -0.37418,0.37418 -0.37417,-0.37419 -0.37418,0.37418 0.37417,0.37419 z m -0.37418,0.37418 -0.37418,0.37417 0.37418,0.37417 0.37418,-0.37417 z m -0.37418,0.37417 -0.37419,-0.37418 -0.374174,0.37418 0.374194,0.37418 z m -0.37417,0.37418 -0.37419,0.37417 0.37417,0.37418 0.37419,-0.37419 z m -0.37419,0.37417 -0.374178,-0.37418 -0.37418,0.37418 0.374178,0.37419 z m -0.37418,0.37419 -0.374173,0.37416 0.374173,0.37417 0.374179,-0.37416 z m -0.374178,-0.37419 -0.37418,-0.37418 -0.374173,0.37417 0.37418,0.37419 z m -0.37418,-0.37418 0.374181,-0.37418 -0.374173,-0.37417 -0.37418,0.37418 z m -0.374172,-0.37417 -0.374179,-0.37418 -0.374173,0.37418 0.374179,0.37417 z m -0.374179,-0.37418 0.37418,-0.37417 -0.374179,-0.3742 -0.37418,0.37419 z m -0.374179,-0.37418 -0.374175,-0.37418 -0.374173,0.37417 0.374176,0.37419 z m -0.374175,-0.37418 0.37418,-0.37418 -0.374177,-0.37417 -0.374181,0.37418 z m -0.374178,-0.37417 -0.374177,-0.37418 -0.374173,0.37417 0.374178,0.37417 z m -0.374177,-0.37418 0.37418,-0.37418 -0.374176,-0.37418 -0.37418,0.37418 z m 0.37418,-0.37418 0.374178,0.37418 0.37418,-0.37418 -0.374178,-0.37419 z m 0.37418,-0.37419 0.374174,-0.37417 -0.374177,-0.37417 -0.374172,0.37417 z m 0.374174,-0.37417 0.374177,0.37419 0.374181,-0.37418 -0.374178,-0.37419 z m 0.37418,-0.37418 0.37418,-0.37417 -0.374177,-0.37417 -0.37418,0.37417 z m 0.37418,-0.37417 0.374176,0.37417 0.374175,-0.37417 -0.374178,-0.37418 z m 0.374173,-0.37418 0.37418,-0.37417 -0.374177,-0.37418 -0.37418,0.37418 z m 0.374178,0.37418 0.374179,0.37418 0.374171,-0.37418 -0.374174,-0.37417 z m 0.374179,0.37418 -0.374176,0.37417 0.37418,0.37418 0.374171,-0.37417 z m 0.374175,0.37418 0.374179,0.37418 0.37418,-0.37419 -0.37418,-0.37417 z m 0.374179,0.37418 -0.374176,0.37417 0.374186,0.37418 0.37418,-0.37417 z m 0.37419,0.37418 0.37416,0.37417 0.37419,-0.37417 -0.37418,-0.37417 z m 0.37416,0.37417 -0.37417,0.37417 0.37419,0.37418 0.37417,-0.37418 z m -0.37417,0.37417 -0.37417,-0.37417 -0.374192,0.37418 0.374182,0.37417 z m -0.37418,0.37418 -0.374188,0.37419 0.374178,0.37417 0.3742,-0.37418 z m -0.374188,0.37419 -0.374168,-0.37418 -0.374175,0.37417 0.374173,0.37417 z m -0.37417,0.37416 -0.374179,0.37418 0.374179,0.37418 0.374174,-0.37417 z m -0.374173,-0.37417 -0.374177,-0.37418 -0.374181,0.37419 0.374179,0.37417 z m -0.374177,-0.37418 0.374173,-0.37417 -0.374179,-0.37418 -0.374172,0.37417 z m -0.374178,-0.37418 -0.374177,-0.37417 -0.37418,0.37417 0.374175,0.37417 z m -0.374177,-0.37417 0.374172,-0.37418 -0.374176,-0.37417 -0.374173,0.37417 z m 0.374172,-0.37418 0.374177,0.37418 0.374181,-0.37418 -0.374177,-0.37417 z m 0.374181,-0.37417 0.37418,-0.37419 -0.374178,-0.37418 -0.374178,0.37419 z m 0.374177,0.37417 0.374177,0.37418 0.37418,-0.37418 -0.374174,-0.37418 z m 0.374177,0.37418 -0.374179,0.37418 0.374179,0.37418 0.374174,-0.37418 z"
         style="opacity:1;fill:#96a5af;fill-opacity:1;fill-rule:nonzero;stroke:none;stroke-width:0.26458335;stroke-linecap:butt;stroke-linejoin:bevel;stroke-miterlimit:4;stroke-dasharray:none;stroke-dashoffset:35;stroke-opacity:1" />
    </g>
  </g>
</svg>
