<?xml version="1.0" encoding="UTF-8" standalone="no"?>
<svg
   xmlns:dc="http://purl.org/dc/elements/1.1/"
   xmlns:cc="http://creativecommons.org/ns#"
   xmlns:rdf="http://www.w3.org/1999/02/22-rdf-syntax-ns#"
   xmlns:svg="http://www.w3.org/2000/svg"
   xmlns="http://www.w3.org/2000/svg"
   xmlns:sodipodi="http://sodipodi.sourceforge.net/DTD/sodipodi-0.dtd"
   xmlns:inkscape="http://www.inkscape.org/namespaces/inkscape"
   sodipodi:docname="application-x-audacity-project.svg"
   inkscape:version="1.0 (4035a4fb49, 2020-05-01)"
   id="svg2634"
   version="1.1"
   viewBox="0 0 33.866667 33.866667"
   height="128"
   width="128">
  <title
     id="title3250">Boston Icons</title>
  <defs
     id="defs2628" />
  <sodipodi:namedview
     inkscape:document-rotation="0"
     units="px"
     inkscape:window-maximized="1"
     inkscape:window-y="27"
     inkscape:window-x="0"
     inkscape:window-height="1016"
     inkscape:window-width="1920"
     fit-margin-bottom="0"
     fit-margin-right="0"
     fit-margin-left="0"
     fit-margin-top="0"
     inkscape:guide-bbox="true"
     showguides="false"
     showgrid="false"
     inkscape:current-layer="layer1"
     inkscape:document-units="px"
     inkscape:cy="65.838529"
     inkscape:cx="53.227269"
     inkscape:zoom="5.6"
     inkscape:pageshadow="2"
     inkscape:pageopacity="1"
     borderopacity="1"
     bordercolor="#00ffed"
     pagecolor="#ffffff"
     id="base">
    <inkscape:grid
       dotted="false"
       originy="-127.00001"
       originx="-82.550004"
       empspacing="4"
       spacingy="0.52916667"
       spacingx="0.52916667"
       id="grid3182"
       type="xygrid" />
    <sodipodi:guide
       inkscape:locked="false"
       id="guide3216"
       orientation="1,0"
       position="-4.268358e-06,27.516666" />
    <sodipodi:guide
       inkscape:locked="false"
       id="guide3218"
       orientation="0,1"
       position="3.7041618,33.866666" />
    <sodipodi:guide
       inkscape:locked="false"
       id="guide3220"
       orientation="1,0"
       position="33.866657,24.870836" />
    <sodipodi:guide
       inkscape:locked="false"
       id="guide3222"
       orientation="0,1"
       position="32.279157,-4.1479283e-06" />
    <sodipodi:guide
       inkscape:locked="false"
       id="guide3224"
       orientation="0,1"
       position="15.345829,32.808336" />
    <sodipodi:guide
       inkscape:locked="false"
       id="guide3226"
       orientation="0,1"
       position="-4.7625023,1.0583259" />
    <sodipodi:guide
       inkscape:locked="false"
       id="guide3228"
       orientation="1,0"
       position="1.0583287,17.462496" />
    <sodipodi:guide
       inkscape:locked="false"
       id="guide3230"
       orientation="1,0"
       position="32.808327,20.108336" />
    <sodipodi:guide
       inkscape:locked="false"
       id="guide3232"
       orientation="0,1"
       position="15.874995,31.750006" />
    <sodipodi:guide
       inkscape:locked="false"
       id="guide3234"
       orientation="1,0"
       position="2.1166617,24.870836" />
    <sodipodi:guide
       inkscape:locked="false"
       id="guide3236"
       orientation="1,0"
       position="3.1749958,25.400006" />
    <sodipodi:guide
       inkscape:locked="false"
       id="guide3238"
       orientation="1,0"
       position="5.2916633,15.345824" />
    <sodipodi:guide
       inkscape:locked="false"
       id="guide3240"
       orientation="1,0"
       position="28.574997,25.400006" />
    <sodipodi:guide
       inkscape:locked="false"
       id="guide3242"
       orientation="1,0"
       position="30.691657,24.341666" />
    <sodipodi:guide
       inkscape:locked="false"
       id="guide3244"
       orientation="1,0"
       position="31.749997,21.695836" />
    <sodipodi:guide
       inkscape:locked="false"
       id="guide3246"
       orientation="0,1"
       position="21.695827,2.1166659" />
    <sodipodi:guide
       inkscape:locked="false"
       id="guide3248"
       orientation="0,1"
       position="16.404162,3.1749959" />
    <sodipodi:guide
       inkscape:locked="false"
       id="guide850"
       orientation="0.70710678,0.70710678"
       position="29.63333,25.399991" />
    <sodipodi:guide
       inkscape:locked="false"
       id="guide843"
       orientation="0,1"
       position="26.987497,30.162491" />
    <sodipodi:guide
       inkscape:locked="false"
       id="guide845"
       orientation="0,1"
       position="30.162497,26.458325" />
    <sodipodi:guide
       inkscape:locked="false"
       id="guide851"
       orientation="1,0"
       position="8.9958299,20.637491" />
    <sodipodi:guide
       inkscape:locked="false"
       id="guide853"
       orientation="0,1"
       position="13.229163,23.812491" />
    <sodipodi:guide
       inkscape:locked="false"
       id="guide855"
       orientation="1,0"
       position="24.87083,14.287491" />
    <sodipodi:guide
       inkscape:locked="false"
       id="guide857"
       orientation="0,1"
       position="20.10833,7.9374908" />
    <sodipodi:guide
       inkscape:locked="false"
       id="guide882"
       orientation="1,0"
       position="10.054163,17.462491" />
    <sodipodi:guide
       inkscape:locked="false"
       id="guide884"
       orientation="0,1"
       position="12.699997,22.754158" />
    <sodipodi:guide
       inkscape:locked="false"
       id="guide886"
       orientation="1,0"
       position="23.812497,18.520824" />
    <sodipodi:guide
       inkscape:locked="false"
       id="guide888"
       orientation="0,1"
       position="16.404163,8.9958242" />
    <sodipodi:guide
       inkscape:locked="false"
       id="guide856"
       orientation="0,1"
       position="12.17083,15.874991" />
    <sodipodi:guide
       inkscape:locked="false"
       id="guide984"
       orientation="1,0"
       position="16.404163,15.345824" />
    <sodipodi:guide
       inkscape:locked="false"
       id="guide994"
       orientation="1,0"
       position="17.462497,14.287491" />
  </sodipodi:namedview>
  <metadata
     id="metadata2631">
    <rdf:RDF>
      <cc:Work
         rdf:about="">
        <dc:format>image/svg+xml</dc:format>
        <dc:type
           rdf:resource="http://purl.org/dc/dcmitype/StillImage" />
        <dc:title>Boston Icons</dc:title>
        <cc:license
           rdf:resource="dribbble.com/chrisdiaz" />
        <dc:creator>
          <cc:Agent>
            <dc:title>Christian Díaz</dc:title>
          </cc:Agent>
        </dc:creator>
        <dc:date>2020</dc:date>
        <dc:publisher>
          <cc:Agent>
            <dc:title>Christian Díaz</dc:title>
          </cc:Agent>
        </dc:publisher>
        <dc:identifier>christiandiaz.design [at] gmail [dot] com</dc:identifier>
        <dc:subject>
          <rdf:Bag>
            <rdf:li>GNOME icon Theme</rdf:li>
          </rdf:Bag>
        </dc:subject>
        <dc:description>dribbble.com/chrisdiaz | diazchris.deviantart.com</dc:description>
      </cc:Work>
    </rdf:RDF>
  </metadata>
  <g
     transform="translate(-82.550003,-136.13333)"
     id="layer1"
     inkscape:groupmode="layer"
     inkscape:label="Capa 1">
    <g
       id="g908">
      <path
         inkscape:connector-curvature="0"
         style="fill:#ffffff;fill-opacity:1;stroke:none;stroke-width:0.529167;stroke-linejoin:bevel;stroke-miterlimit:4;stroke-dasharray:none;stroke-opacity:1"
         d="m 87.84167,137.19166 v 31.75 H 111.125 v -25.4 l -6.35,-6.35 z"
         id="rect851" />
      <path
         style="fill:#96a5af;fill-opacity:1;stroke:none;stroke-width:0.264583;stroke-linejoin:round;stroke-miterlimit:4;stroke-dasharray:none"
         d="m 87.84167,137.19166 v 31.75 H 111.125 v -25.4 l -0.52916,-0.52916 v 25.4 H 88.370836 v -30.69167 h 16.933334 l -0.52917,-0.52917 z"
         id="rect840"
         inkscape:connector-curvature="0"
         sodipodi:nodetypes="ccccccccccc" />
      <path
         id="path902"
         style="fill:#96a5af;fill-opacity:1;fill-rule:nonzero;stroke:none;stroke-width:2;stroke-linecap:square;stroke-linejoin:round;stroke-miterlimit:4;stroke-dasharray:none;stroke-dashoffset:0;stroke-opacity:1"
         d="m 34,42 v 8 h 2 v -6 h 56 v 6 h 2 V 44 42 H 36 Z m 14,8 A 13.999999,14 0 0 0 34,64 13.999999,14 0 0 0 48,78 h 8 v 8 h 4 8 4 v -8 h 8 A 13.999999,14 0 0 0 94,64 13.999999,14 0 0 0 80,50 13.999999,14 0 0 0 66,64 13.999999,14 0 0 0 72.791016,76 H 68 v -2 h -8 v 2 H 55.208984 A 13.999999,14 0 0 0 62,64 13.999999,14 0 0 0 48,50 Z m 0,2 A 12.000001,12.000001 0 0 1 60,64 12.000001,12.000001 0 0 1 48,76 12.000001,12.000001 0 0 1 36,64 12.000001,12.000001 0 0 1 48,52 Z m 32,0 A 12.000001,12.000001 0 0 1 92,64 12.000001,12.000001 0 0 1 80,76 12.000001,12.000001 0 0 1 68,64 12.000001,12.000001 0 0 1 80,52 Z m -34,2 v 4 h 4 v -4 z m 26.351562,3.261719 -2,3.46289 3.464844,2 2,-3.46289 z m 15.296876,0 -3.464844,2 2,3.46289 3.464844,-2 z M 48,60 c -2.209149,0 -4.000015,1.790866 -4,4 8e-6,2.209134 1.790866,4 4,4 2.209134,0 3.999992,-1.790866 4,-4 1.5e-5,-2.209134 -1.790851,-4 -4,-4 z m 32,0 c -2.209134,0 -4,1.790866 -4,4 0,2.209134 1.790866,4 4,4 2.209134,0 4,-1.790866 4,-4 0,-2.209172 -1.790828,-4 -4,-4 z m -38.210938,5.294922 -3.464843,2 2,3.464844 3.464843,-2 z m 12.421876,0 -2,3.464844 3.464843,2 2,-3.464844 z m 23.761718,4.724609 v 4 h 4 v -4 z M 34,78 v 20 h 2 58 V 96 78 H 92 V 96 H 36 V 78 Z"
         transform="matrix(0.26458334,0,0,0.26458334,82.550003,136.13333)" />
      <path
         inkscape:connector-curvature="0"
         style="fill:#96a5af;fill-opacity:1;stroke:none;stroke-width:0.264583px;stroke-linecap:butt;stroke-linejoin:miter;stroke-opacity:1"
         d="m 104.24584,137.19166 v 6.87917 h 6.87916 v -0.52917 l -6.35,-6.35 z m 0.52916,0.79375 5.55625,5.55625 H 104.775 Z"
         id="path863-3" />
    </g>
  </g>
</svg>
