<?xml version="1.0" encoding="UTF-8" standalone="no"?>
<!-- Created with Inkscape (http://www.inkscape.org/) -->

<svg
   xmlns:dc="http://purl.org/dc/elements/1.1/"
   xmlns:cc="http://creativecommons.org/ns#"
   xmlns:rdf="http://www.w3.org/1999/02/22-rdf-syntax-ns#"
   xmlns:svg="http://www.w3.org/2000/svg"
   xmlns="http://www.w3.org/2000/svg"
   xmlns:sodipodi="http://sodipodi.sourceforge.net/DTD/sodipodi-0.dtd"
   xmlns:inkscape="http://www.inkscape.org/namespaces/inkscape"
   width="128"
   height="128"
   viewBox="0 0 33.866667 33.866667"
   version="1.1"
   id="svg2634"
   inkscape:version="0.92.4 5da689c313, 2019-01-14"
   sodipodi:docname="application-x-blender.svg">
  <title
     id="title3250">Boston Icons</title>
  <defs
     id="defs2628" />
  <sodipodi:namedview
     id="base"
     pagecolor="#ffffff"
     bordercolor="#00ffed"
     borderopacity="1"
     inkscape:pageopacity="1"
     inkscape:pageshadow="2"
     inkscape:zoom="7.919596"
     inkscape:cx="6.7734399"
     inkscape:cy="61.926444"
     inkscape:document-units="px"
     inkscape:current-layer="layer1"
     showgrid="false"
     showguides="false"
     inkscape:guide-bbox="true"
     fit-margin-top="0"
     fit-margin-left="0"
     fit-margin-right="0"
     fit-margin-bottom="0"
     inkscape:window-width="1920"
     inkscape:window-height="1016"
     inkscape:window-x="0"
     inkscape:window-y="27"
     inkscape:window-maximized="1"
     units="px">
    <inkscape:grid
       type="xygrid"
       id="grid3182"
       spacingx="0.52916667"
       spacingy="0.52916667"
       empspacing="4"
       originx="-82.550004"
       originy="-127.00001"
       dotted="false" />
    <sodipodi:guide
       position="-4.268358e-06,27.516666"
       orientation="1,0"
       id="guide3216"
       inkscape:locked="false" />
    <sodipodi:guide
       position="3.7041618,33.866666"
       orientation="0,1"
       id="guide3218"
       inkscape:locked="false" />
    <sodipodi:guide
       position="33.866657,24.870836"
       orientation="1,0"
       id="guide3220"
       inkscape:locked="false" />
    <sodipodi:guide
       position="32.279157,-4.1479283e-06"
       orientation="0,1"
       id="guide3222"
       inkscape:locked="false" />
    <sodipodi:guide
       position="15.345829,32.808336"
       orientation="0,1"
       id="guide3224"
       inkscape:locked="false" />
    <sodipodi:guide
       position="-4.7625023,1.0583259"
       orientation="0,1"
       id="guide3226"
       inkscape:locked="false" />
    <sodipodi:guide
       position="1.0583287,17.462496"
       orientation="1,0"
       id="guide3228"
       inkscape:locked="false" />
    <sodipodi:guide
       position="32.808327,20.108336"
       orientation="1,0"
       id="guide3230"
       inkscape:locked="false" />
    <sodipodi:guide
       position="15.874995,31.750006"
       orientation="0,1"
       id="guide3232"
       inkscape:locked="false" />
    <sodipodi:guide
       position="2.1166617,24.870836"
       orientation="1,0"
       id="guide3234"
       inkscape:locked="false" />
    <sodipodi:guide
       position="3.1749958,25.400006"
       orientation="1,0"
       id="guide3236"
       inkscape:locked="false" />
    <sodipodi:guide
       position="5.2916633,15.345824"
       orientation="1,0"
       id="guide3238"
       inkscape:locked="false" />
    <sodipodi:guide
       position="28.574997,25.400006"
       orientation="1,0"
       id="guide3240"
       inkscape:locked="false" />
    <sodipodi:guide
       position="30.691657,24.341666"
       orientation="1,0"
       id="guide3242"
       inkscape:locked="false" />
    <sodipodi:guide
       position="31.749997,21.695836"
       orientation="1,0"
       id="guide3244"
       inkscape:locked="false" />
    <sodipodi:guide
       position="21.695827,2.1166659"
       orientation="0,1"
       id="guide3246"
       inkscape:locked="false" />
    <sodipodi:guide
       position="16.404162,3.1749959"
       orientation="0,1"
       id="guide3248"
       inkscape:locked="false" />
    <sodipodi:guide
       position="29.63333,25.399991"
       orientation="0.70710678,0.70710678"
       id="guide850"
       inkscape:locked="false" />
    <sodipodi:guide
       position="26.987497,30.162491"
       orientation="0,1"
       id="guide843"
       inkscape:locked="false" />
    <sodipodi:guide
       position="30.162497,26.458325"
       orientation="0,1"
       id="guide845"
       inkscape:locked="false" />
    <sodipodi:guide
       position="8.9958299,20.637491"
       orientation="1,0"
       id="guide851"
       inkscape:locked="false" />
    <sodipodi:guide
       position="13.229163,23.812491"
       orientation="0,1"
       id="guide853"
       inkscape:locked="false" />
    <sodipodi:guide
       position="24.87083,14.287491"
       orientation="1,0"
       id="guide855"
       inkscape:locked="false" />
    <sodipodi:guide
       position="20.10833,7.9374908"
       orientation="0,1"
       id="guide857"
       inkscape:locked="false" />
    <sodipodi:guide
       position="10.054163,17.462491"
       orientation="1,0"
       id="guide882"
       inkscape:locked="false" />
    <sodipodi:guide
       position="12.699997,22.754158"
       orientation="0,1"
       id="guide884"
       inkscape:locked="false" />
    <sodipodi:guide
       position="23.812497,18.520824"
       orientation="1,0"
       id="guide886"
       inkscape:locked="false" />
    <sodipodi:guide
       position="16.404163,8.9958242"
       orientation="0,1"
       id="guide888"
       inkscape:locked="false" />
  </sodipodi:namedview>
  <metadata
     id="metadata2631">
    <rdf:RDF>
      <cc:Work
         rdf:about="">
        <dc:format>image/svg+xml</dc:format>
        <dc:type
           rdf:resource="http://purl.org/dc/dcmitype/StillImage" />
        <dc:title>Boston Icons</dc:title>
        <cc:license
           rdf:resource="dribbble.com/chrisdiaz" />
        <dc:creator>
          <cc:Agent>
            <dc:title>Christian Díaz</dc:title>
          </cc:Agent>
        </dc:creator>
        <dc:date>2019</dc:date>
        <dc:publisher>
          <cc:Agent>
            <dc:title>Christian Díaz</dc:title>
          </cc:Agent>
        </dc:publisher>
        <dc:identifier>christiandiaz.design [at] gmail [dot] com</dc:identifier>
        <dc:subject>
          <rdf:Bag>
            <rdf:li>GNOME icon Theme</rdf:li>
          </rdf:Bag>
        </dc:subject>
        <dc:description>diazchris.deviantart.com | dribbble.com/chrisdiaz</dc:description>
      </cc:Work>
    </rdf:RDF>
  </metadata>
  <g
     inkscape:label="Capa 1"
     inkscape:groupmode="layer"
     id="layer1"
     transform="translate(-82.550003,-136.13333)">
    <g
       id="g850">
      <path
         id="rect851"
         transform="matrix(0.26458333,0,0,0.26458333,82.550003,136.13333)"
         d="M 20 4 L 20 124 L 108 124 L 108 28 L 84 4 L 20 4 z "
         style="fill:#ffffff;fill-opacity:1;stroke:none;stroke-width:1.99999988;stroke-linejoin:bevel;stroke-miterlimit:4;stroke-dasharray:none;stroke-opacity:1" />
      <path
         sodipodi:nodetypes="ccccccccccc"
         inkscape:connector-curvature="0"
         id="rect840"
         transform="matrix(0.26458333,0,0,0.26458333,82.550003,136.13333)"
         d="m 20,4 v 120 h 88 V 28 l -2,-2 v 96 H 22 V 6 H 86 L 84,4 Z"
         style="fill:#a8b4bd;fill-opacity:1;stroke:none;stroke-width:0.99999994;stroke-linejoin:round;stroke-miterlimit:4;stroke-dasharray:none" />
      <path
         transform="matrix(0.26458333,0,0,0.26458333,82.550003,136.13333)"
         id="path863"
         d="M 82 4 L 82 30 L 108 30 L 108 28 L 84 4 L 82 4 z M 84 7 L 105 28 L 84 28 L 84 7 z "
         style="fill:#a8b4bd;fill-opacity:1;stroke:none;stroke-width:0.99999994px;stroke-linecap:butt;stroke-linejoin:miter;stroke-opacity:1" />
      <path
         inkscape:connector-curvature="0"
         id="path4283"
         d="m 100.69138,160.42614 c -0.47348,-0.0476 -0.47823,-0.0494 -0.802192,-0.14736 -0.179244,-0.0544 -0.39359,-0.11872 -0.476318,-0.14343 -0.107523,-0.0319 -0.279105,-0.11326 -0.601665,-0.28506 l -0.451245,-0.24028 -0.388345,-0.31826 -0.388344,-0.31815 -0.320432,-0.38961 -0.320425,-0.38956 -0.23329,-0.43312 -0.233289,-0.43298 -0.14959,-0.48474 -0.149564,-0.48465 -0.04004,-0.38442 c -0.02212,-0.21137 -0.04033,-0.39929 -0.04064,-0.41749 -3.24e-4,-0.0233 -0.343161,0.3086 -1.082764,1.04631 -0.811757,0.80976 -1.105358,1.09252 -1.175004,1.13136 -0.475744,0.26597 -1.084988,0 -1.210093,-0.53329 -0.03197,-0.13563 -0.03197,-0.24575 0,-0.38123 0.05841,-0.24784 -0.06923,-0.11063 2.454661,-2.63807 l 2.324041,-2.32723 h -1.379227 c -1.167566,0 -1.393884,0 -1.474773,-0.026 -0.530884,-0.13825 -0.784929,-0.70789 -0.535453,-1.20053 0.05246,-0.10368 0.230893,-0.28205 0.334486,-0.3345 0.199939,-0.10119 -0.03946,-0.0949 3.446499,-0.0949 h 3.184356 l -0.986479,-0.99023 c -0.943971,-0.94752 -0.988773,-0.99527 -1.03946,-1.10789 -0.07277,-0.16141 -0.09763,-0.3315 -0.07128,-0.48726 0.08414,-0.49727 0.570927,-0.80434 1.055051,-0.66567 0.210008,0.0599 0.126218,-0.0182 2.605418,2.45477 2.20254,2.19746 2.36638,2.3649 2.65056,2.70876 l 0.30291,0.36668 0.23591,0.44391 c 0.22318,0.42011 0.24092,0.46068 0.32994,0.75322 0.0517,0.17 0.11678,0.38064 0.14449,0.46798 0.0427,0.13434 0.0583,0.23769 0.10162,0.6685 l 0.0511,0.50972 -0.0468,0.49305 -0.0469,0.49305 -0.14871,0.4965 -0.14874,0.49647 -0.23806,0.44431 -0.23805,0.44427 -0.31978,0.38952 -0.3198,0.38966 -0.38787,0.31844 -0.38791,0.31843 -0.4533,0.2416 -0.45332,0.24159 -0.47634,0.1437 -0.4763,0.14372 -0.51374,0.051 c -0.28255,0.0276 -0.51946,0.0494 -0.52645,0.0482 -0.008,0 -0.22707,-0.0232 -0.48905,-0.0511 z m 0.93592,-1.66768 c 0.25913,-0.0276 0.32772,-0.0419 0.60167,-0.1265 0.26941,-0.0829 0.3479,-0.11589 0.61002,-0.25543 0.26558,-0.14136 0.33227,-0.18586 0.56904,-0.38091 0.23134,-0.1903 0.29738,-0.25643 0.48059,-0.4805 0.1884,-0.23041 0.23107,-0.29522 0.37807,-0.57428 0.14805,-0.28098 0.17552,-0.34748 0.25765,-0.6238 0.084,-0.28209 0.095,-0.33864 0.12623,-0.64751 l 0.0344,-0.33841 -0.0344,-0.33859 c -0.0321,-0.31587 -0.0407,-0.35981 -0.13224,-0.66173 -0.0882,-0.29048 -0.11461,-0.35439 -0.26009,-0.62654 -0.14203,-0.26567 -0.18875,-0.33554 -0.37807,-0.56523 -0.18506,-0.22466 -0.25368,-0.29303 -0.47828,-0.47707 -0.22769,-0.18667 -0.30183,-0.23586 -0.56306,-0.37556 -0.27827,-0.14866 -0.32651,-0.16817 -0.64343,-0.26173 -0.32097,-0.0947 -0.36278,-0.10293 -0.66189,-0.12991 -0.30368,-0.0277 -0.33467,-0.0277 -0.6351,5e-5 -0.29371,0.0276 -0.33979,0.0366 -0.65843,0.1299 -0.316406,0.0931 -0.36558,0.11299 -0.643419,0.26078 -0.264841,0.14111 -0.332573,0.18614 -0.566115,0.37858 -0.227509,0.18745 -0.295673,0.25565 -0.478783,0.47879 -0.185749,0.2265 -0.234668,0.29997 -0.376344,0.56495 -0.146752,0.27457 -0.172395,0.33636 -0.259506,0.62558 -0.0896,0.29756 -0.09913,0.34552 -0.130792,0.6583 l -0.03416,0.33725 0.03358,0.33959 c 0.03179,0.32125 0.039,0.35728 0.134072,0.66835 0.0904,0.29576 0.11679,0.35915 0.262536,0.63064 0.140921,0.26255 0.18976,0.3355 0.374815,0.55969 0.181639,0.21998 0.251356,0.28931 0.476319,0.47343 0.228863,0.18718 0.303114,0.23666 0.564361,0.37612 0.2627,0.14034 0.340026,0.17264 0.610006,0.25594 0.27068,0.0837 0.3435,0.099 0.58494,0.12445 0.36363,0.0387 0.48675,0.0393 0.83564,0 z m -0.67689,-1.34097 c -0.21182,-0.0233 -0.50965,-0.12001 -0.72109,-0.23275 -0.751942,-0.40057 -1.190876,-1.22484 -1.100566,-2.06676 0.141155,-1.31593 1.426026,-2.17432 2.690756,-1.79753 1.26755,0.3776 1.87801,1.84254 1.25112,3.00244 -0.41512,0.76801 -1.24017,1.19394 -2.12022,1.09455 z"
         style="fill:#fbc342;stroke-width:0.6888113" />
    </g>
  </g>
</svg>
