<?xml version="1.0" encoding="UTF-8" standalone="no"?>
<svg
   sodipodi:docname="text-x-changelog.svg"
   inkscape:version="1.1.2 (0a00cf5339, 2022-02-04, custom)"
   id="svg2634"
   version="1.1"
   viewBox="0 0 33.866667 33.866667"
   height="128"
   width="128"
   xmlns:inkscape="http://www.inkscape.org/namespaces/inkscape"
   xmlns:sodipodi="http://sodipodi.sourceforge.net/DTD/sodipodi-0.dtd"
   xmlns="http://www.w3.org/2000/svg"
   xmlns:svg="http://www.w3.org/2000/svg"
   xmlns:rdf="http://www.w3.org/1999/02/22-rdf-syntax-ns#"
   xmlns:cc="http://creativecommons.org/ns#"
   xmlns:dc="http://purl.org/dc/elements/1.1/">
  <title
     id="title3250">Boston Icons</title>
  <defs
     id="defs2628" />
  <sodipodi:namedview
     inkscape:document-rotation="0"
     units="px"
     inkscape:window-maximized="1"
     inkscape:window-y="0"
     inkscape:window-x="0"
     inkscape:window-height="1011"
     inkscape:window-width="1920"
     fit-margin-bottom="0"
     fit-margin-right="0"
     fit-margin-left="0"
     fit-margin-top="0"
     inkscape:guide-bbox="true"
     showguides="false"
     showgrid="false"
     inkscape:current-layer="layer1"
     inkscape:document-units="px"
     inkscape:cy="59.472731"
     inkscape:cx="51.138972"
     inkscape:zoom="3.959798"
     inkscape:pageshadow="2"
     inkscape:pageopacity="1"
     borderopacity="1"
     bordercolor="#00ffed"
     pagecolor="#ffffff"
     id="base"
     inkscape:pagecheckerboard="0">
    <inkscape:grid
       dotted="false"
       originy="-127.00001"
       originx="-82.550004"
       empspacing="4"
       spacingy="0.52916667"
       spacingx="0.52916667"
       id="grid3182"
       type="xygrid" />
    <sodipodi:guide
       inkscape:locked="false"
       id="guide3216"
       orientation="1,0"
       position="-4.268358e-06,27.516666" />
    <sodipodi:guide
       inkscape:locked="false"
       id="guide3218"
       orientation="0,1"
       position="3.7041618,33.866666" />
    <sodipodi:guide
       inkscape:locked="false"
       id="guide3220"
       orientation="1,0"
       position="33.866657,24.870836" />
    <sodipodi:guide
       inkscape:locked="false"
       id="guide3222"
       orientation="0,1"
       position="32.279157,-4.1479283e-06" />
    <sodipodi:guide
       inkscape:locked="false"
       id="guide3224"
       orientation="0,1"
       position="15.345829,32.808336" />
    <sodipodi:guide
       inkscape:locked="false"
       id="guide3226"
       orientation="0,1"
       position="-4.7625023,1.0583259" />
    <sodipodi:guide
       inkscape:locked="false"
       id="guide3232"
       orientation="0,1"
       position="15.874995,31.750006" />
    <sodipodi:guide
       inkscape:locked="false"
       id="guide3238"
       orientation="1,0"
       position="5.2916633,15.345824" />
    <sodipodi:guide
       inkscape:locked="false"
       id="guide3240"
       orientation="1,0"
       position="28.574997,25.400006" />
    <sodipodi:guide
       inkscape:locked="false"
       id="guide850"
       orientation="0.70710678,0.70710678"
       position="29.63333,25.399991" />
    <sodipodi:guide
       inkscape:locked="false"
       id="guide843"
       orientation="0,1"
       position="26.987497,30.162491" />
    <sodipodi:guide
       inkscape:locked="false"
       id="guide845"
       orientation="0,1"
       position="30.162497,26.458325" />
    <sodipodi:guide
       inkscape:locked="false"
       id="guide867"
       orientation="0,1"
       position="10.054163,11.641658" />
    <sodipodi:guide
       inkscape:locked="false"
       id="guide872"
       orientation="0,1"
       position="8.4666632,16.933324" />
    <sodipodi:guide
       position="8.9958299,6.3500094"
       orientation="0,-1"
       id="guide882" />
  </sodipodi:namedview>
  <metadata
     id="metadata2631">
    <rdf:RDF>
      <cc:Work
         rdf:about="">
        <dc:format>image/svg+xml</dc:format>
        <dc:type
           rdf:resource="http://purl.org/dc/dcmitype/StillImage" />
        <dc:title>Boston Icons</dc:title>
        <cc:license
           rdf:resource="dribbble.com/chrisdiaz" />
        <dc:creator>
          <cc:Agent>
            <dc:title>Christian Díaz</dc:title>
          </cc:Agent>
        </dc:creator>
        <dc:date>2022</dc:date>
        <dc:publisher>
          <cc:Agent>
            <dc:title>Christian Díaz</dc:title>
          </cc:Agent>
        </dc:publisher>
        <dc:identifier>christiandiaz.design [at] gmail [dot] com</dc:identifier>
        <dc:subject>
          <rdf:Bag>
            <rdf:li>GNOME icon Theme</rdf:li>
          </rdf:Bag>
        </dc:subject>
        <dc:description>dribbble.com/chrisdiaz | diazchris.deviantart.com</dc:description>
      </cc:Work>
    </rdf:RDF>
  </metadata>
  <g
     transform="translate(-82.550003,-136.13333)"
     id="layer1"
     inkscape:groupmode="layer"
     inkscape:label="Capa 1">
    <g
       id="g879">
      <path
         inkscape:connector-curvature="0"
         style="fill:#ffffff;fill-opacity:1;stroke:none;stroke-width:0.529167;stroke-linejoin:bevel;stroke-miterlimit:4;stroke-dasharray:none;stroke-opacity:1"
         d="m 87.84167,137.19166 v 31.74999 l 2.116663,-3.17501 1.5875,2.64584 1.5875,-2.64584 1.5875,2.64584 1.5875,-2.64584 1.5875,2.64584 1.5875,-2.64584 1.587497,2.64584 1.5875,-2.64584 1.5875,2.64584 1.5875,-2.64584 1.5875,2.64584 1.5875,-2.64584 2.11667,3.17501 v -25.39999 -6.35001 z"
         id="rect851"
         sodipodi:nodetypes="ccccccccccccccccccc" />
      <path
         id="path893"
         style="fill:#96a5af;fill-opacity:1;stroke:none;stroke-width:0.999999;stroke-linejoin:round;stroke-miterlimit:4;stroke-dasharray:none"
         d="m 20,4 v 120 h 2 l 6,-10 6,10 6,-10 6,10 6,-10 6.023438,10 L 64,114 l 6,10 6,-10 6,10 6,-10 6,10 6,-10 6,10 h 2 c -2e-5,3e-5 -1e-5,-120.0000348 -1e-5,-120.0000348 z m 2,2 83.99998,-3.49e-5 L 106,120 l -6,-10 -6,10 -6,-10 -6,10 -6,-10 -6,10 -6,-10 -6,10 -6,-10 -6,10 -6,-10 -6,10 -6,-10 -6,10 z"
         transform="matrix(0.26458334,0,0,0.26458334,82.550003,136.13333)"
         sodipodi:nodetypes="cccccccccccccccccccccccccccccccccccccc" />
      <path
         id="circle879"
         style="fill:#96a5af;stroke-width:2;stroke-linecap:square;stroke-linejoin:round"
         d="M 27.951172,14 A 2.0000001,2.0000001 0 0 0 26,16 a 2.0000001,2.0000001 0 0 0 2,2 2.0000001,2.0000001 0 0 0 2,-2 2.0000001,2.0000001 0 0 0 -2,-2 2.0000001,2.0000001 0 0 0 -0.04883,0 z m 72,0 A 2.0000001,2.0000001 0 0 0 98,16 a 2.0000001,2.0000001 0 0 0 2,2 2.0000001,2.0000001 0 0 0 2,-2 2.0000001,2.0000001 0 0 0 -2,-2 2.0000001,2.0000001 0 0 0 -0.04883,0 z m -72,12 A 2.0000001,2.0000001 0 0 0 26,28 a 2.0000001,2.0000001 0 0 0 2,2 2.0000001,2.0000001 0 0 0 2,-2 2.0000001,2.0000001 0 0 0 -2,-2 2.0000001,2.0000001 0 0 0 -0.04883,0 z m 72,0 A 2.0000001,2.0000001 0 0 0 98,28 a 2.0000001,2.0000001 0 0 0 2,2 2.0000001,2.0000001 0 0 0 2,-2 2.0000001,2.0000001 0 0 0 -2,-2 2.0000001,2.0000001 0 0 0 -0.04883,0 z m -72,12 A 2.0000001,2.0000001 0 0 0 26,40 a 2.0000001,2.0000001 0 0 0 2,2 2.0000001,2.0000001 0 0 0 2,-2 2.0000001,2.0000001 0 0 0 -2,-2 2.0000001,2.0000001 0 0 0 -0.04883,0 z m 72,0 A 2.0000001,2.0000001 0 0 0 98,40 a 2.0000001,2.0000001 0 0 0 2,2 2.0000001,2.0000001 0 0 0 2,-2 2.0000001,2.0000001 0 0 0 -2,-2 2.0000001,2.0000001 0 0 0 -0.04883,0 z m -72,12 A 2.0000001,2.0000001 0 0 0 26,52 a 2.0000001,2.0000001 0 0 0 2,2 2.0000001,2.0000001 0 0 0 2,-2 2.0000001,2.0000001 0 0 0 -2,-2 2.0000001,2.0000001 0 0 0 -0.04883,0 z m 72,0 A 2.0000001,2.0000001 0 0 0 98,52 a 2.0000001,2.0000001 0 0 0 2,2 2.0000001,2.0000001 0 0 0 2,-2 2.0000001,2.0000001 0 0 0 -2,-2 2.0000001,2.0000001 0 0 0 -0.04883,0 z m -72,12 A 2.0000001,2.0000001 0 0 0 26,64 a 2.0000001,2.0000001 0 0 0 2,2 2.0000001,2.0000001 0 0 0 2,-2 2.0000001,2.0000001 0 0 0 -2,-2 2.0000001,2.0000001 0 0 0 -0.04883,0 z m 72,0 A 2.0000001,2.0000001 0 0 0 98,64 a 2.0000001,2.0000001 0 0 0 2,2 2.0000001,2.0000001 0 0 0 2,-2 2.0000001,2.0000001 0 0 0 -2,-2 2.0000001,2.0000001 0 0 0 -0.04883,0 z m -72,12 A 2.0000001,2.0000001 0 0 0 26,76 a 2.0000001,2.0000001 0 0 0 2,2 2.0000001,2.0000001 0 0 0 2,-2 2.0000001,2.0000001 0 0 0 -2,-2 2.0000001,2.0000001 0 0 0 -0.04883,0 z m 72,0 A 2.0000001,2.0000001 0 0 0 98,76 a 2.0000001,2.0000001 0 0 0 2,2 2.0000001,2.0000001 0 0 0 2,-2 2.0000001,2.0000001 0 0 0 -2,-2 2.0000001,2.0000001 0 0 0 -0.04883,0 z m -72,12 A 2.0000001,2.0000001 0 0 0 26,88 a 2.0000001,2.0000001 0 0 0 2,2 2.0000001,2.0000001 0 0 0 2,-2 2.0000001,2.0000001 0 0 0 -2,-2 2.0000001,2.0000001 0 0 0 -0.04883,0 z m 72,0 A 2.0000001,2.0000001 0 0 0 98,88 a 2.0000001,2.0000001 0 0 0 2,2 2.0000001,2.0000001 0 0 0 2,-2 2.0000001,2.0000001 0 0 0 -2,-2 2.0000001,2.0000001 0 0 0 -0.04883,0 z m -72,12 A 2.0000001,2.0000001 0 0 0 26,100 a 2.0000001,2.0000001 0 0 0 2,2 2.0000001,2.0000001 0 0 0 2,-2 2.0000001,2.0000001 0 0 0 -2,-2 2.0000001,2.0000001 0 0 0 -0.04883,0 z m 72,0 A 2.0000001,2.0000001 0 0 0 98,100 a 2.0000001,2.0000001 0 0 0 2,2 2.0000001,2.0000001 0 0 0 2,-2 2.0000001,2.0000001 0 0 0 -2,-2 2.0000001,2.0000001 0 0 0 -0.04883,0 z"
         transform="matrix(0.26458334,0,0,0.26458334,82.550003,136.13333)" />
      <path
         id="rect1011"
         style="fill:#96a5af;stroke:none;stroke-width:0.500001;stroke-linejoin:round"
         d="m 38,22 v 2 h 16 v -2 z m 0,6 v 2 h 52 v -2 z m 12,10 v 2 h 16 v -2 z m 0,6 v 2 h 20 v -2 z m 0,6 v 2 h 12 v -2 z m 0,6 v 2 h 16 v -2 z m 20,0 v 2 h 8 V 56 Z M 50,66 v 2 h 16 v -2 z m 0,6 v 2 h 20 v -2 z m 0,6 v 2 h 12 v -2 z m 0,6 v 2 h 16 v -2 z m 20,0 v 2 h 8 v -2 z"
         transform="matrix(0.26458334,0,0,0.26458334,82.550003,136.13333)" />
      <path
         id="rect1015"
         style="fill:#f866a7;stroke:none;stroke-width:0.500001;stroke-linejoin:round"
         d="m 38,38 v 2 l 3.999986,-3.6e-5 v -2 z m 0,6 v 2 l 3.999986,-3.6e-5 v -2 z m 0,6 v 2 l 3.999986,-3.6e-5 v -2 z m 0,6 v 2 l 3.999986,-3.6e-5 v -2 z m 0,10 v 2 l 3.999986,-3.6e-5 v -2 z m 0,6 v 2 l 3.999986,-3.6e-5 v -2 z m 0,6 v 2 l 3.999986,-3.6e-5 v -2 z m 0,6 v 2 l 3.999986,-3.6e-5 v -2 z"
         transform="matrix(0.26458334,0,0,0.26458334,82.550003,136.13333)"
         sodipodi:nodetypes="cccccccccccccccccccccccccccccccccccccccc" />
    </g>
  </g>
</svg>
