<?xml version="1.0" encoding="UTF-8" standalone="no"?>
<svg
   sodipodi:docname="video-x-generic.svg"
   inkscape:version="1.1.2 (0a00cf5339, 2022-02-04, custom)"
   id="svg2634"
   version="1.1"
   viewBox="0 0 33.866667 33.866667"
   height="128"
   width="128"
   xmlns:inkscape="http://www.inkscape.org/namespaces/inkscape"
   xmlns:sodipodi="http://sodipodi.sourceforge.net/DTD/sodipodi-0.dtd"
   xmlns="http://www.w3.org/2000/svg"
   xmlns:svg="http://www.w3.org/2000/svg"
   xmlns:rdf="http://www.w3.org/1999/02/22-rdf-syntax-ns#"
   xmlns:cc="http://creativecommons.org/ns#"
   xmlns:dc="http://purl.org/dc/elements/1.1/">
  <title
     id="title3250">Boston Icons</title>
  <defs
     id="defs2628" />
  <sodipodi:namedview
     inkscape:document-rotation="0"
     units="px"
     inkscape:window-maximized="1"
     inkscape:window-y="0"
     inkscape:window-x="0"
     inkscape:window-height="1011"
     inkscape:window-width="1920"
     fit-margin-bottom="0"
     fit-margin-right="0"
     fit-margin-left="0"
     fit-margin-top="0"
     inkscape:guide-bbox="true"
     showguides="false"
     showgrid="false"
     inkscape:current-layer="layer1"
     inkscape:document-units="px"
     inkscape:cy="25.885159"
     inkscape:cx="75.761441"
     inkscape:zoom="3.959798"
     inkscape:pageshadow="2"
     inkscape:pageopacity="1"
     borderopacity="1"
     bordercolor="#00ffed"
     pagecolor="#ffffff"
     id="base"
     inkscape:pagecheckerboard="0">
    <inkscape:grid
       dotted="false"
       originy="-127.00001"
       originx="-82.550004"
       empspacing="4"
       spacingy="0.52916667"
       spacingx="0.52916667"
       id="grid3182"
       type="xygrid" />
    <sodipodi:guide
       inkscape:locked="false"
       id="guide3216"
       orientation="1,0"
       position="-4.268358e-06,27.516666" />
    <sodipodi:guide
       inkscape:locked="false"
       id="guide3218"
       orientation="0,1"
       position="3.7041618,33.866666" />
    <sodipodi:guide
       inkscape:locked="false"
       id="guide3220"
       orientation="1,0"
       position="33.866657,24.870836" />
    <sodipodi:guide
       inkscape:locked="false"
       id="guide3224"
       orientation="0,1"
       position="15.345829,32.808336" />
    <sodipodi:guide
       inkscape:locked="false"
       id="guide3226"
       orientation="0,1"
       position="-4.7625023,1.0583259" />
    <sodipodi:guide
       inkscape:locked="false"
       id="guide3228"
       orientation="1,0"
       position="1.0583287,17.462496" />
    <sodipodi:guide
       inkscape:locked="false"
       id="guide3230"
       orientation="1,0"
       position="32.808327,20.108336" />
    <sodipodi:guide
       inkscape:locked="false"
       id="guide3232"
       orientation="0,1"
       position="15.874995,31.750006" />
    <sodipodi:guide
       inkscape:locked="false"
       id="guide3234"
       orientation="1,0"
       position="2.1166617,24.870836" />
    <sodipodi:guide
       inkscape:locked="false"
       id="guide3236"
       orientation="1,0"
       position="3.1749958,25.400006" />
    <sodipodi:guide
       inkscape:locked="false"
       id="guide3238"
       orientation="1,0"
       position="5.2916633,15.345824" />
    <sodipodi:guide
       inkscape:locked="false"
       id="guide3240"
       orientation="1,0"
       position="28.574997,25.400006" />
    <sodipodi:guide
       inkscape:locked="false"
       id="guide3242"
       orientation="1,0"
       position="30.691657,24.341666" />
    <sodipodi:guide
       inkscape:locked="false"
       id="guide3244"
       orientation="1,0"
       position="31.749997,21.695836" />
    <sodipodi:guide
       inkscape:locked="false"
       id="guide3246"
       orientation="0,1"
       position="21.695827,2.1166659" />
    <sodipodi:guide
       inkscape:locked="false"
       id="guide3248"
       orientation="0,1"
       position="16.404162,3.1749959" />
    <sodipodi:guide
       inkscape:locked="false"
       id="guide843"
       orientation="0,1"
       position="26.987497,30.162491" />
    <sodipodi:guide
       inkscape:locked="false"
       id="guide845"
       orientation="0,1"
       position="30.162497,26.458325" />
    <sodipodi:guide
       position="8.9958299,19.050009"
       orientation="1,0"
       id="guide879" />
    <sodipodi:guide
       position="14.816663,23.283343"
       orientation="0,-1"
       id="guide881" />
    <sodipodi:guide
       position="24.87083,19.579176"
       orientation="1,0"
       id="guide883" />
    <sodipodi:guide
       position="18.52083,7.4083427"
       orientation="0,-1"
       id="guide885" />
    <sodipodi:guide
       position="16.404163,16.933343"
       orientation="0,-1"
       id="guide6003" />
  </sodipodi:namedview>
  <metadata
     id="metadata2631">
    <rdf:RDF>
      <cc:Work
         rdf:about="">
        <dc:format>image/svg+xml</dc:format>
        <dc:type
           rdf:resource="http://purl.org/dc/dcmitype/StillImage" />
        <dc:title>Boston Icons</dc:title>
        <cc:license
           rdf:resource="dribbble.com/chrisdiaz" />
        <dc:creator>
          <cc:Agent>
            <dc:title>Christian Díaz</dc:title>
          </cc:Agent>
        </dc:creator>
        <dc:date>2020</dc:date>
        <dc:publisher>
          <cc:Agent>
            <dc:title>Christian Díaz</dc:title>
          </cc:Agent>
        </dc:publisher>
        <dc:identifier>christiandiaz.design [at] gmail [dot] com</dc:identifier>
        <dc:subject>
          <rdf:Bag>
            <rdf:li>GNOME icon Theme</rdf:li>
          </rdf:Bag>
        </dc:subject>
        <dc:description>dribbble.com/chrisdiaz | diazchris.deviantart.com</dc:description>
      </cc:Work>
    </rdf:RDF>
  </metadata>
  <g
     transform="translate(-82.550003,-136.13333)"
     id="layer1"
     inkscape:groupmode="layer"
     inkscape:label="Capa 1">
    <g
       id="g863">
      <path
         id="rect851"
         style="fill:#373b43;fill-opacity:1;stroke:none;stroke-width:2;stroke-linejoin:bevel;stroke-miterlimit:4;stroke-dasharray:none;stroke-opacity:1"
         d="M 20 4 L 20 124 L 36 124 L 92 124 L 108 124 L 108 28 L 108 4 L 92 4 L 36 4 L 20 4 z "
         transform="matrix(0.26458334,0,0,0.26458334,82.550003,136.13333)" />
      <path
         id="rect840"
         style="fill:#252627;fill-opacity:1;stroke:none;stroke-width:0.999999;stroke-linejoin:round;stroke-miterlimit:4;stroke-dasharray:none"
         d="M 20 4 L 20 124 L 108 124 L 108 4 L 92 4 L 36 4 L 20 4 z M 22 6 L 34 6 L 94 6 L 106 6 L 106 122 L 94 122 L 34 122 L 22 122 L 22 6 z "
         transform="matrix(0.26458334,0,0,0.26458334,82.550003,136.13333)" />
      <path
         id="rect2317"
         style="fill:#ffffff;stroke-width:5.00001;stroke-linejoin:round"
         d="M 26 10 L 26 14 L 30 14 L 30 10 L 26 10 z M 98 10 L 98 14 L 102 14 L 102 10 L 98 10 z M 26 18 L 26 22 L 30 22 L 30 18 L 26 18 z M 98 18 L 98 22 L 102 22 L 102 18 L 98 18 z M 26 26 L 26 30 L 30 30 L 30 26 L 26 26 z M 98 26 L 98 30 L 102 30 L 102 26 L 98 26 z M 26 34 L 26 38 L 30 38 L 30 34 L 26 34 z M 98 34 L 98 38 L 102 38 L 102 34 L 98 34 z M 26 42 L 26 46 L 30 46 L 30 42 L 26 42 z M 98 42 L 98 46 L 102 46 L 102 42 L 98 42 z M 26 50 L 26 54 L 30 54 L 30 50 L 26 50 z M 98 50 L 98 54 L 102 54 L 102 50 L 98 50 z M 26 58 L 26 62 L 30 62 L 30 58 L 26 58 z M 98 58 L 98 62 L 102 62 L 102 58 L 98 58 z M 26 66 L 26 70 L 30 70 L 30 66 L 26 66 z M 98 66 L 98 70 L 102 70 L 102 66 L 98 66 z M 26 74 L 26 78 L 30 78 L 30 74 L 26 74 z M 98 74 L 98 78 L 102 78 L 102 74 L 98 74 z M 26 82 L 26 86 L 30 86 L 30 82 L 26 82 z M 98 82 L 98 86 L 102 86 L 102 82 L 98 82 z M 26 90 L 26 94 L 30 94 L 30 90 L 26 90 z M 98 90 L 98 94 L 102 94 L 102 90 L 98 90 z M 26 98 L 26 102 L 30 102 L 30 98 L 26 98 z M 98 98 L 98 102 L 102 102 L 102 98 L 98 98 z M 26 106 L 26 110 L 30 110 L 30 106 L 26 106 z M 98 106 L 98 110 L 102 110 L 102 106 L 98 106 z M 26 114 L 26 118 L 30 118 L 30 114 L 26 114 z M 98 114 L 98 118 L 102 118 L 102 114 L 98 114 z "
         transform="matrix(0.26458334,0,0,0.26458334,82.550003,136.13333)" />
      <path
         style="fill:#ffffff;stroke:none;stroke-width:0.264583px;stroke-linecap:butt;stroke-linejoin:miter;stroke-opacity:1"
         d="m 96.308333,148.83332 7.408337,4.23333 -7.408337,4.23334 z"
         id="path6005"
         sodipodi:nodetypes="cccc" />
      <g
         id="g1202">
        <g
           id="g1005" />
        <g
           id="g1011"
           transform="translate(0,-24.870839)" />
      </g>
    </g>
  </g>
</svg>
